%TF.GenerationSoftware,KiCad,Pcbnew,(5.1.5-0)*%
%TF.CreationDate,2020-04-03T13:37:13+02:00*%
%TF.ProjectId,egc_ads1292,6567635f-6164-4733-9132-39322e6b6963,rev?*%
%TF.SameCoordinates,PX23c3460PY8f0d180*%
%TF.FileFunction,Legend,Top*%
%TF.FilePolarity,Positive*%
%FSLAX46Y46*%
G04 Gerber Fmt 4.6, Leading zero omitted, Abs format (unit mm)*
G04 Created by KiCad (PCBNEW (5.1.5-0)) date 2020-04-03 13:37:13*
%MOMM*%
%LPD*%
G04 APERTURE LIST*
%ADD10C,0.120000*%
%ADD11C,0.150000*%
G04 APERTURE END LIST*
D10*
X48380000Y41250000D02*
X49150000Y41250000D01*
X56460000Y41250000D02*
X55690000Y41250000D01*
X49150000Y39880000D02*
X55690000Y39880000D01*
X49150000Y42620000D02*
X49150000Y39880000D01*
X55690000Y42620000D02*
X49150000Y42620000D01*
X55690000Y39880000D02*
X55690000Y42620000D01*
X33340000Y31250000D02*
X34030000Y31250000D01*
X43960000Y31250000D02*
X43270000Y31250000D01*
X34030000Y29530000D02*
X43270000Y29530000D01*
X34030000Y32970000D02*
X34030000Y29530000D01*
X43270000Y32970000D02*
X34030000Y32970000D01*
X43270000Y29530000D02*
X43270000Y32970000D01*
X33340000Y18750000D02*
X34030000Y18750000D01*
X43960000Y18750000D02*
X43270000Y18750000D01*
X34030000Y17030000D02*
X43270000Y17030000D01*
X34030000Y20470000D02*
X34030000Y17030000D01*
X43270000Y20470000D02*
X34030000Y20470000D01*
X43270000Y17030000D02*
X43270000Y20470000D01*
X33340000Y6250000D02*
X34030000Y6250000D01*
X43960000Y6250000D02*
X43270000Y6250000D01*
X34030000Y4530000D02*
X43270000Y4530000D01*
X34030000Y7970000D02*
X34030000Y4530000D01*
X43270000Y7970000D02*
X34030000Y7970000D01*
X43270000Y4530000D02*
X43270000Y7970000D01*
X18340000Y43750000D02*
X19030000Y43750000D01*
X28960000Y43750000D02*
X28270000Y43750000D01*
X19030000Y42030000D02*
X28270000Y42030000D01*
X19030000Y45470000D02*
X19030000Y42030000D01*
X28270000Y45470000D02*
X19030000Y45470000D01*
X28270000Y42030000D02*
X28270000Y45470000D01*
X53620000Y22500000D02*
G75*
G03X53620000Y22500000I-4120000J0D01*
G01*
X53620000Y10000000D02*
G75*
G03X53620000Y10000000I-4120000J0D01*
G01*
X59100000Y26650000D02*
X59100000Y33950000D01*
X63400000Y26650000D02*
X63400000Y33950000D01*
X59100000Y26650000D02*
X63400000Y26650000D01*
X59100000Y14150000D02*
X59100000Y21450000D01*
X63400000Y14150000D02*
X63400000Y21450000D01*
X59100000Y14150000D02*
X63400000Y14150000D01*
X59100000Y1650000D02*
X59100000Y8950000D01*
X63400000Y1650000D02*
X63400000Y8950000D01*
X59100000Y1650000D02*
X63400000Y1650000D01*
X58165000Y23370000D02*
X58870000Y23370000D01*
X56130000Y23370000D02*
X56835000Y23370000D01*
X58165000Y19130000D02*
X58870000Y19130000D01*
X56130000Y19130000D02*
X56835000Y19130000D01*
X58870000Y19130000D02*
X58870000Y23370000D01*
X56130000Y19130000D02*
X56130000Y23370000D01*
X94921267Y21010000D02*
X94578733Y21010000D01*
X94921267Y19990000D02*
X94578733Y19990000D01*
X109420000Y24530000D02*
X110750000Y24530000D01*
X109420000Y23200000D02*
X109420000Y24530000D01*
X112020000Y24530000D02*
X114620000Y24530000D01*
X112020000Y21930000D02*
X112020000Y24530000D01*
X109420000Y21930000D02*
X112020000Y21930000D01*
X114620000Y24530000D02*
X114620000Y16790000D01*
X109420000Y21930000D02*
X109420000Y16790000D01*
X109420000Y16790000D02*
X114620000Y16790000D01*
X91350000Y14340000D02*
X93800000Y14340000D01*
X93150000Y17560000D02*
X91350000Y17560000D01*
X94470000Y38440000D02*
G75*
G03X94470000Y38440000I-1500000J0D01*
G01*
X107130000Y23200000D02*
G75*
G03X107130000Y23200000I-1500000J0D01*
G01*
X107130000Y18120000D02*
G75*
G03X107130000Y18120000I-1500000J0D01*
G01*
X102090000Y20660000D02*
G75*
G03X102090000Y20660000I-1500000J0D01*
G01*
X102090000Y35900000D02*
G75*
G03X102090000Y35900000I-1500000J0D01*
G01*
X102090000Y30820000D02*
G75*
G03X102090000Y30820000I-1500000J0D01*
G01*
X107130000Y33360000D02*
G75*
G03X107130000Y33360000I-1500000J0D01*
G01*
X107130000Y28280000D02*
G75*
G03X107130000Y28280000I-1500000J0D01*
G01*
X107170000Y14500000D02*
G75*
G03X107170000Y14500000I-1500000J0D01*
G01*
X107130000Y38440000D02*
G75*
G03X107130000Y38440000I-1500000J0D01*
G01*
X68000000Y41250000D02*
G75*
G03X68000000Y41250000I-1500000J0D01*
G01*
X68000000Y33750000D02*
G75*
G03X68000000Y33750000I-1500000J0D01*
G01*
X68000000Y26250000D02*
G75*
G03X68000000Y26250000I-1500000J0D01*
G01*
X68000000Y15000000D02*
G75*
G03X68000000Y15000000I-1500000J0D01*
G01*
X68000000Y8750000D02*
G75*
G03X68000000Y8750000I-1500000J0D01*
G01*
X90740000Y35296267D02*
X90740000Y34953733D01*
X91760000Y35296267D02*
X91760000Y34953733D01*
X90260000Y34953733D02*
X90260000Y35296267D01*
X89240000Y34953733D02*
X89240000Y35296267D01*
X94921267Y28760000D02*
X94578733Y28760000D01*
X94921267Y27740000D02*
X94578733Y27740000D01*
X94921267Y25260000D02*
X94578733Y25260000D01*
X94921267Y24240000D02*
X94578733Y24240000D01*
X84240000Y38671267D02*
X84240000Y38328733D01*
X85260000Y38671267D02*
X85260000Y38328733D01*
X82740000Y38671267D02*
X82740000Y38328733D01*
X83760000Y38671267D02*
X83760000Y38328733D01*
X85740000Y38671267D02*
X85740000Y38328733D01*
X86760000Y38671267D02*
X86760000Y38328733D01*
X70453733Y25740000D02*
X70796267Y25740000D01*
X70453733Y26760000D02*
X70796267Y26760000D01*
X70453733Y18010000D02*
X70796267Y18010000D01*
X70453733Y16990000D02*
X70796267Y16990000D01*
X70453733Y8240000D02*
X70796267Y8240000D01*
X70453733Y9260000D02*
X70796267Y9260000D01*
X94921267Y24010000D02*
X94578733Y24010000D01*
X94921267Y22990000D02*
X94578733Y22990000D01*
X94578733Y21490000D02*
X94921267Y21490000D01*
X94578733Y22510000D02*
X94921267Y22510000D01*
X85960000Y15763748D02*
X85960000Y16286252D01*
X84540000Y15763748D02*
X84540000Y16286252D01*
X100488748Y14290000D02*
X101011252Y14290000D01*
X100488748Y15710000D02*
X101011252Y15710000D01*
X109420000Y39770000D02*
X110750000Y39770000D01*
X109420000Y38440000D02*
X109420000Y39770000D01*
X112020000Y39770000D02*
X114620000Y39770000D01*
X112020000Y37170000D02*
X112020000Y39770000D01*
X109420000Y37170000D02*
X112020000Y37170000D01*
X114620000Y39770000D02*
X114620000Y24410000D01*
X109420000Y37170000D02*
X109420000Y24410000D01*
X109420000Y24410000D02*
X114620000Y24410000D01*
X12420000Y45080000D02*
X13750000Y45080000D01*
X12420000Y43750000D02*
X12420000Y45080000D01*
X12420000Y42480000D02*
X15080000Y42480000D01*
X15080000Y42480000D02*
X15080000Y42420000D01*
X12420000Y42480000D02*
X12420000Y42420000D01*
X12420000Y42420000D02*
X15080000Y42420000D01*
X12420000Y32580000D02*
X13750000Y32580000D01*
X12420000Y31250000D02*
X12420000Y32580000D01*
X12420000Y29980000D02*
X15080000Y29980000D01*
X15080000Y29980000D02*
X15080000Y29920000D01*
X12420000Y29980000D02*
X12420000Y29920000D01*
X12420000Y29920000D02*
X15080000Y29920000D01*
X12420000Y20080000D02*
X13750000Y20080000D01*
X12420000Y18750000D02*
X12420000Y20080000D01*
X12420000Y17480000D02*
X15080000Y17480000D01*
X15080000Y17480000D02*
X15080000Y17420000D01*
X12420000Y17480000D02*
X12420000Y17420000D01*
X12420000Y17420000D02*
X15080000Y17420000D01*
X12420000Y7580000D02*
X13750000Y7580000D01*
X12420000Y6250000D02*
X12420000Y7580000D01*
X12420000Y4980000D02*
X15080000Y4980000D01*
X15080000Y4980000D02*
X15080000Y4920000D01*
X12420000Y4980000D02*
X12420000Y4920000D01*
X12420000Y4920000D02*
X15080000Y4920000D01*
X84140000Y29660000D02*
X82825000Y29660000D01*
X84140000Y30110000D02*
X84140000Y29660000D01*
X84590000Y30110000D02*
X84140000Y30110000D01*
X89360000Y30110000D02*
X89360000Y29660000D01*
X88910000Y30110000D02*
X89360000Y30110000D01*
X84140000Y24890000D02*
X84140000Y25340000D01*
X84590000Y24890000D02*
X84140000Y24890000D01*
X89360000Y24890000D02*
X89360000Y25340000D01*
X88910000Y24890000D02*
X89360000Y24890000D01*
X74260000Y16078733D02*
X74260000Y16421267D01*
X73240000Y16078733D02*
X73240000Y16421267D01*
X96260000Y31578733D02*
X96260000Y31921267D01*
X95240000Y31578733D02*
X95240000Y31921267D01*
X94260000Y31578733D02*
X94260000Y31921267D01*
X93240000Y31578733D02*
X93240000Y31921267D01*
X82578733Y18990000D02*
X82921267Y18990000D01*
X82578733Y20010000D02*
X82921267Y20010000D01*
X82578733Y20490000D02*
X82921267Y20490000D01*
X82578733Y21510000D02*
X82921267Y21510000D01*
X85921267Y20010000D02*
X85578733Y20010000D01*
X85921267Y18990000D02*
X85578733Y18990000D01*
X85921267Y21510000D02*
X85578733Y21510000D01*
X85921267Y20490000D02*
X85578733Y20490000D01*
X84578733Y35490000D02*
X84921267Y35490000D01*
X84578733Y36510000D02*
X84921267Y36510000D01*
X87760000Y34953733D02*
X87760000Y35296267D01*
X86740000Y34953733D02*
X86740000Y35296267D01*
X87240000Y38671267D02*
X87240000Y38328733D01*
X88260000Y38671267D02*
X88260000Y38328733D01*
X87760000Y15703733D02*
X87760000Y16046267D01*
X86740000Y15703733D02*
X86740000Y16046267D01*
X80760000Y23983733D02*
X80760000Y24326267D01*
X79740000Y23983733D02*
X79740000Y24326267D01*
X80760000Y30703733D02*
X80760000Y31046267D01*
X79740000Y30703733D02*
X79740000Y31046267D01*
X89260000Y15703733D02*
X89260000Y16046267D01*
X88240000Y15703733D02*
X88240000Y16046267D01*
X89921267Y18490000D02*
X89578733Y18490000D01*
X89921267Y19510000D02*
X89578733Y19510000D01*
X74260000Y20703733D02*
X74260000Y21046267D01*
X73240000Y20703733D02*
X73240000Y21046267D01*
X96260000Y15703733D02*
X96260000Y16046267D01*
X95240000Y15703733D02*
X95240000Y16046267D01*
X97760000Y15703733D02*
X97760000Y16046267D01*
X96740000Y15703733D02*
X96740000Y16046267D01*
X72010000Y29078733D02*
X72010000Y29421267D01*
X70990000Y29078733D02*
X70990000Y29421267D01*
X72010000Y19828733D02*
X72010000Y20171267D01*
X70990000Y19828733D02*
X70990000Y20171267D01*
X72010000Y11078733D02*
X72010000Y11421267D01*
X70990000Y11078733D02*
X70990000Y11421267D01*
X53370000Y47500000D02*
G75*
G03X53370000Y47500000I-4120000J0D01*
G01*
X53620000Y35000000D02*
G75*
G03X53620000Y35000000I-4120000J0D01*
G01*
X59100000Y39350000D02*
X59100000Y46650000D01*
X63400000Y39350000D02*
X63400000Y46650000D01*
X59100000Y39350000D02*
X63400000Y39350000D01*
X33340000Y43750000D02*
X34030000Y43750000D01*
X43960000Y43750000D02*
X43270000Y43750000D01*
X34030000Y42030000D02*
X43270000Y42030000D01*
X34030000Y45470000D02*
X34030000Y42030000D01*
X43270000Y45470000D02*
X34030000Y45470000D01*
X43270000Y42030000D02*
X43270000Y45470000D01*
X18340000Y31250000D02*
X19030000Y31250000D01*
X28960000Y31250000D02*
X28270000Y31250000D01*
X19030000Y29530000D02*
X28270000Y29530000D01*
X19030000Y32970000D02*
X19030000Y29530000D01*
X28270000Y32970000D02*
X19030000Y32970000D01*
X28270000Y29530000D02*
X28270000Y32970000D01*
X18340000Y18750000D02*
X19030000Y18750000D01*
X28960000Y18750000D02*
X28270000Y18750000D01*
X19030000Y17030000D02*
X28270000Y17030000D01*
X19030000Y20470000D02*
X19030000Y17030000D01*
X28270000Y20470000D02*
X19030000Y20470000D01*
X28270000Y17030000D02*
X28270000Y20470000D01*
X18340000Y6250000D02*
X19030000Y6250000D01*
X28960000Y6250000D02*
X28270000Y6250000D01*
X19030000Y4530000D02*
X28270000Y4530000D01*
X19030000Y7970000D02*
X19030000Y4530000D01*
X28270000Y7970000D02*
X19030000Y7970000D01*
X28270000Y4530000D02*
X28270000Y7970000D01*
X55850000Y2380000D02*
X55850000Y5120000D01*
X55850000Y5120000D02*
X49310000Y5120000D01*
X49310000Y5120000D02*
X49310000Y2380000D01*
X49310000Y2380000D02*
X55850000Y2380000D01*
X56620000Y3750000D02*
X55850000Y3750000D01*
X48540000Y3750000D02*
X49310000Y3750000D01*
X55690000Y14880000D02*
X55690000Y17620000D01*
X55690000Y17620000D02*
X49150000Y17620000D01*
X49150000Y17620000D02*
X49150000Y14880000D01*
X49150000Y14880000D02*
X55690000Y14880000D01*
X56460000Y16250000D02*
X55690000Y16250000D01*
X48380000Y16250000D02*
X49150000Y16250000D01*
X48380000Y28750000D02*
X49150000Y28750000D01*
X56460000Y28750000D02*
X55690000Y28750000D01*
X49150000Y27380000D02*
X55690000Y27380000D01*
X49150000Y30120000D02*
X49150000Y27380000D01*
X55690000Y30120000D02*
X49150000Y30120000D01*
X55690000Y27380000D02*
X55690000Y30120000D01*
X56130000Y6630000D02*
X56130000Y10870000D01*
X58870000Y6630000D02*
X58870000Y10870000D01*
X56130000Y6630000D02*
X56835000Y6630000D01*
X58165000Y6630000D02*
X58870000Y6630000D01*
X56130000Y10870000D02*
X56835000Y10870000D01*
X58165000Y10870000D02*
X58870000Y10870000D01*
X56130000Y31630000D02*
X56130000Y35870000D01*
X58870000Y31630000D02*
X58870000Y35870000D01*
X56130000Y31630000D02*
X56835000Y31630000D01*
X58165000Y31630000D02*
X58870000Y31630000D01*
X56130000Y35870000D02*
X56835000Y35870000D01*
X58165000Y35870000D02*
X58870000Y35870000D01*
X58165000Y48370000D02*
X58870000Y48370000D01*
X56130000Y48370000D02*
X56835000Y48370000D01*
X58165000Y44130000D02*
X58870000Y44130000D01*
X56130000Y44130000D02*
X56835000Y44130000D01*
X58870000Y44130000D02*
X58870000Y48370000D01*
X56130000Y44130000D02*
X56130000Y48370000D01*
D11*
X51777142Y38427620D02*
X51443809Y38903810D01*
X51205714Y38427620D02*
X51205714Y39427620D01*
X51586666Y39427620D01*
X51681904Y39380000D01*
X51729523Y39332381D01*
X51777142Y39237143D01*
X51777142Y39094286D01*
X51729523Y38999048D01*
X51681904Y38951429D01*
X51586666Y38903810D01*
X51205714Y38903810D01*
X52729523Y38427620D02*
X52158095Y38427620D01*
X52443809Y38427620D02*
X52443809Y39427620D01*
X52348571Y39284762D01*
X52253333Y39189524D01*
X52158095Y39141905D01*
X53586666Y39094286D02*
X53586666Y38427620D01*
X53348571Y39475239D02*
X53110476Y38760953D01*
X53729523Y38760953D01*
X38483333Y28077620D02*
X38150000Y28553810D01*
X37911904Y28077620D02*
X37911904Y29077620D01*
X38292857Y29077620D01*
X38388095Y29030000D01*
X38435714Y28982381D01*
X38483333Y28887143D01*
X38483333Y28744286D01*
X38435714Y28649048D01*
X38388095Y28601429D01*
X38292857Y28553810D01*
X37911904Y28553810D01*
X38959523Y28077620D02*
X39150000Y28077620D01*
X39245238Y28125239D01*
X39292857Y28172858D01*
X39388095Y28315715D01*
X39435714Y28506191D01*
X39435714Y28887143D01*
X39388095Y28982381D01*
X39340476Y29030000D01*
X39245238Y29077620D01*
X39054761Y29077620D01*
X38959523Y29030000D01*
X38911904Y28982381D01*
X38864285Y28887143D01*
X38864285Y28649048D01*
X38911904Y28553810D01*
X38959523Y28506191D01*
X39054761Y28458572D01*
X39245238Y28458572D01*
X39340476Y28506191D01*
X39388095Y28553810D01*
X39435714Y28649048D01*
X38483333Y15577620D02*
X38150000Y16053810D01*
X37911904Y15577620D02*
X37911904Y16577620D01*
X38292857Y16577620D01*
X38388095Y16530000D01*
X38435714Y16482381D01*
X38483333Y16387143D01*
X38483333Y16244286D01*
X38435714Y16149048D01*
X38388095Y16101429D01*
X38292857Y16053810D01*
X37911904Y16053810D01*
X39054761Y16149048D02*
X38959523Y16196667D01*
X38911904Y16244286D01*
X38864285Y16339524D01*
X38864285Y16387143D01*
X38911904Y16482381D01*
X38959523Y16530000D01*
X39054761Y16577620D01*
X39245238Y16577620D01*
X39340476Y16530000D01*
X39388095Y16482381D01*
X39435714Y16387143D01*
X39435714Y16339524D01*
X39388095Y16244286D01*
X39340476Y16196667D01*
X39245238Y16149048D01*
X39054761Y16149048D01*
X38959523Y16101429D01*
X38911904Y16053810D01*
X38864285Y15958572D01*
X38864285Y15768096D01*
X38911904Y15672858D01*
X38959523Y15625239D01*
X39054761Y15577620D01*
X39245238Y15577620D01*
X39340476Y15625239D01*
X39388095Y15672858D01*
X39435714Y15768096D01*
X39435714Y15958572D01*
X39388095Y16053810D01*
X39340476Y16101429D01*
X39245238Y16149048D01*
X38483333Y3077620D02*
X38150000Y3553810D01*
X37911904Y3077620D02*
X37911904Y4077620D01*
X38292857Y4077620D01*
X38388095Y4030000D01*
X38435714Y3982381D01*
X38483333Y3887143D01*
X38483333Y3744286D01*
X38435714Y3649048D01*
X38388095Y3601429D01*
X38292857Y3553810D01*
X37911904Y3553810D01*
X38816666Y4077620D02*
X39483333Y4077620D01*
X39054761Y3077620D01*
X23483333Y40577620D02*
X23150000Y41053810D01*
X22911904Y40577620D02*
X22911904Y41577620D01*
X23292857Y41577620D01*
X23388095Y41530000D01*
X23435714Y41482381D01*
X23483333Y41387143D01*
X23483333Y41244286D01*
X23435714Y41149048D01*
X23388095Y41101429D01*
X23292857Y41053810D01*
X22911904Y41053810D01*
X24340476Y41577620D02*
X24150000Y41577620D01*
X24054761Y41530000D01*
X24007142Y41482381D01*
X23911904Y41339524D01*
X23864285Y41149048D01*
X23864285Y40768096D01*
X23911904Y40672858D01*
X23959523Y40625239D01*
X24054761Y40577620D01*
X24245238Y40577620D01*
X24340476Y40625239D01*
X24388095Y40672858D01*
X24435714Y40768096D01*
X24435714Y41006191D01*
X24388095Y41101429D01*
X24340476Y41149048D01*
X24245238Y41196667D01*
X24054761Y41196667D01*
X23959523Y41149048D01*
X23911904Y41101429D01*
X23864285Y41006191D01*
X48285714Y16797620D02*
X48285714Y17797620D01*
X48857142Y16797620D01*
X48857142Y17797620D01*
X49333333Y17321429D02*
X49666666Y17321429D01*
X49809523Y16797620D02*
X49333333Y16797620D01*
X49333333Y17797620D01*
X49809523Y17797620D01*
X50190476Y17702381D02*
X50238095Y17750000D01*
X50333333Y17797620D01*
X50571428Y17797620D01*
X50666666Y17750000D01*
X50714285Y17702381D01*
X50761904Y17607143D01*
X50761904Y17511905D01*
X50714285Y17369048D01*
X50142857Y16797620D01*
X50761904Y16797620D01*
X48285714Y4297620D02*
X48285714Y5297620D01*
X48857142Y4297620D01*
X48857142Y5297620D01*
X49333333Y4821429D02*
X49666666Y4821429D01*
X49809523Y4297620D02*
X49333333Y4297620D01*
X49333333Y5297620D01*
X49809523Y5297620D01*
X50761904Y4297620D02*
X50190476Y4297620D01*
X50476190Y4297620D02*
X50476190Y5297620D01*
X50380952Y5154762D01*
X50285714Y5059524D01*
X50190476Y5011905D01*
X113988095Y5797620D02*
X113988095Y6797620D01*
X113988095Y6321429D02*
X114559523Y6321429D01*
X114559523Y5797620D02*
X114559523Y6797620D01*
X115464285Y6464286D02*
X115464285Y5797620D01*
X115226190Y6845239D02*
X114988095Y6130953D01*
X115607142Y6130953D01*
X114238095Y53297620D02*
X114238095Y54297620D01*
X114238095Y53821429D02*
X114809523Y53821429D01*
X114809523Y53297620D02*
X114809523Y54297620D01*
X115190476Y54297620D02*
X115809523Y54297620D01*
X115476190Y53916667D01*
X115619047Y53916667D01*
X115714285Y53869048D01*
X115761904Y53821429D01*
X115809523Y53726191D01*
X115809523Y53488096D01*
X115761904Y53392858D01*
X115714285Y53345239D01*
X115619047Y53297620D01*
X115333333Y53297620D01*
X115238095Y53345239D01*
X115190476Y53392858D01*
X4238095Y3797620D02*
X4238095Y4797620D01*
X4238095Y4321429D02*
X4809523Y4321429D01*
X4809523Y3797620D02*
X4809523Y4797620D01*
X5238095Y4702381D02*
X5285714Y4750000D01*
X5380952Y4797620D01*
X5619047Y4797620D01*
X5714285Y4750000D01*
X5761904Y4702381D01*
X5809523Y4607143D01*
X5809523Y4511905D01*
X5761904Y4369048D01*
X5190476Y3797620D01*
X5809523Y3797620D01*
X4238095Y52797620D02*
X4238095Y53797620D01*
X4238095Y53321429D02*
X4809523Y53321429D01*
X4809523Y52797620D02*
X4809523Y53797620D01*
X5809523Y52797620D02*
X5238095Y52797620D01*
X5523809Y52797620D02*
X5523809Y53797620D01*
X5428571Y53654762D01*
X5333333Y53559524D01*
X5238095Y53511905D01*
X58702380Y30511905D02*
X57702380Y30511905D01*
X57702380Y30750000D01*
X57750000Y30892858D01*
X57845238Y30988096D01*
X57940476Y31035715D01*
X58130952Y31083334D01*
X58273809Y31083334D01*
X58464285Y31035715D01*
X58559523Y30988096D01*
X58654761Y30892858D01*
X58702380Y30750000D01*
X58702380Y30511905D01*
X57702380Y31416667D02*
X57702380Y32035715D01*
X58083333Y31702381D01*
X58083333Y31845239D01*
X58130952Y31940477D01*
X58178571Y31988096D01*
X58273809Y32035715D01*
X58511904Y32035715D01*
X58607142Y31988096D01*
X58654761Y31940477D01*
X58702380Y31845239D01*
X58702380Y31559524D01*
X58654761Y31464286D01*
X58607142Y31416667D01*
X58702380Y18011905D02*
X57702380Y18011905D01*
X57702380Y18250000D01*
X57750000Y18392858D01*
X57845238Y18488096D01*
X57940476Y18535715D01*
X58130952Y18583334D01*
X58273809Y18583334D01*
X58464285Y18535715D01*
X58559523Y18488096D01*
X58654761Y18392858D01*
X58702380Y18250000D01*
X58702380Y18011905D01*
X57797619Y18964286D02*
X57750000Y19011905D01*
X57702380Y19107143D01*
X57702380Y19345239D01*
X57750000Y19440477D01*
X57797619Y19488096D01*
X57892857Y19535715D01*
X57988095Y19535715D01*
X58130952Y19488096D01*
X58702380Y18916667D01*
X58702380Y19535715D01*
X58702380Y5511905D02*
X57702380Y5511905D01*
X57702380Y5750000D01*
X57750000Y5892858D01*
X57845238Y5988096D01*
X57940476Y6035715D01*
X58130952Y6083334D01*
X58273809Y6083334D01*
X58464285Y6035715D01*
X58559523Y5988096D01*
X58654761Y5892858D01*
X58702380Y5750000D01*
X58702380Y5511905D01*
X58702380Y7035715D02*
X58702380Y6464286D01*
X58702380Y6750000D02*
X57702380Y6750000D01*
X57845238Y6654762D01*
X57940476Y6559524D01*
X57988095Y6464286D01*
X55357142Y21083334D02*
X55404761Y21035715D01*
X55452380Y20892858D01*
X55452380Y20797620D01*
X55404761Y20654762D01*
X55309523Y20559524D01*
X55214285Y20511905D01*
X55023809Y20464286D01*
X54880952Y20464286D01*
X54690476Y20511905D01*
X54595238Y20559524D01*
X54500000Y20654762D01*
X54452380Y20797620D01*
X54452380Y20892858D01*
X54500000Y21035715D01*
X54547619Y21083334D01*
X54547619Y21464286D02*
X54500000Y21511905D01*
X54452380Y21607143D01*
X54452380Y21845239D01*
X54500000Y21940477D01*
X54547619Y21988096D01*
X54642857Y22035715D01*
X54738095Y22035715D01*
X54880952Y21988096D01*
X55452380Y21416667D01*
X55452380Y22035715D01*
X94107142Y18617620D02*
X93773809Y19093810D01*
X93535714Y18617620D02*
X93535714Y19617620D01*
X93916666Y19617620D01*
X94011904Y19570000D01*
X94059523Y19522381D01*
X94107142Y19427143D01*
X94107142Y19284286D01*
X94059523Y19189048D01*
X94011904Y19141429D01*
X93916666Y19093810D01*
X93535714Y19093810D01*
X94488095Y19522381D02*
X94535714Y19570000D01*
X94630952Y19617620D01*
X94869047Y19617620D01*
X94964285Y19570000D01*
X95011904Y19522381D01*
X95059523Y19427143D01*
X95059523Y19331905D01*
X95011904Y19189048D01*
X94440476Y18617620D01*
X95059523Y18617620D01*
X95630952Y19189048D02*
X95535714Y19236667D01*
X95488095Y19284286D01*
X95440476Y19379524D01*
X95440476Y19427143D01*
X95488095Y19522381D01*
X95535714Y19570000D01*
X95630952Y19617620D01*
X95821428Y19617620D01*
X95916666Y19570000D01*
X95964285Y19522381D01*
X96011904Y19427143D01*
X96011904Y19379524D01*
X95964285Y19284286D01*
X95916666Y19236667D01*
X95821428Y19189048D01*
X95630952Y19189048D01*
X95535714Y19141429D01*
X95488095Y19093810D01*
X95440476Y18998572D01*
X95440476Y18808096D01*
X95488095Y18712858D01*
X95535714Y18665239D01*
X95630952Y18617620D01*
X95821428Y18617620D01*
X95916666Y18665239D01*
X95964285Y18712858D01*
X96011904Y18808096D01*
X96011904Y18998572D01*
X95964285Y19093810D01*
X95916666Y19141429D01*
X95821428Y19189048D01*
X111686666Y26077620D02*
X111686666Y25363334D01*
X111639047Y25220477D01*
X111543809Y25125239D01*
X111400952Y25077620D01*
X111305714Y25077620D01*
X112591428Y26077620D02*
X112400952Y26077620D01*
X112305714Y26030000D01*
X112258095Y25982381D01*
X112162857Y25839524D01*
X112115238Y25649048D01*
X112115238Y25268096D01*
X112162857Y25172858D01*
X112210476Y25125239D01*
X112305714Y25077620D01*
X112496190Y25077620D01*
X112591428Y25125239D01*
X112639047Y25172858D01*
X112686666Y25268096D01*
X112686666Y25506191D01*
X112639047Y25601429D01*
X112591428Y25649048D01*
X112496190Y25696667D01*
X112305714Y25696667D01*
X112210476Y25649048D01*
X112162857Y25601429D01*
X112115238Y25506191D01*
X91488095Y13597620D02*
X91488095Y12788096D01*
X91535714Y12692858D01*
X91583333Y12645239D01*
X91678571Y12597620D01*
X91869047Y12597620D01*
X91964285Y12645239D01*
X92011904Y12692858D01*
X92059523Y12788096D01*
X92059523Y13597620D01*
X93059523Y12597620D02*
X92488095Y12597620D01*
X92773809Y12597620D02*
X92773809Y13597620D01*
X92678571Y13454762D01*
X92583333Y13359524D01*
X92488095Y13311905D01*
X91931904Y36487620D02*
X92503333Y36487620D01*
X92217619Y35487620D02*
X92217619Y36487620D01*
X92836666Y35487620D02*
X92836666Y36487620D01*
X93217619Y36487620D01*
X93312857Y36440000D01*
X93360476Y36392381D01*
X93408095Y36297143D01*
X93408095Y36154286D01*
X93360476Y36059048D01*
X93312857Y36011429D01*
X93217619Y35963810D01*
X92836666Y35963810D01*
X94360476Y35487620D02*
X93789047Y35487620D01*
X94074761Y35487620D02*
X94074761Y36487620D01*
X93979523Y36344762D01*
X93884285Y36249524D01*
X93789047Y36201905D01*
X95265238Y36487620D02*
X94789047Y36487620D01*
X94741428Y36011429D01*
X94789047Y36059048D01*
X94884285Y36106667D01*
X95122380Y36106667D01*
X95217619Y36059048D01*
X95265238Y36011429D01*
X95312857Y35916191D01*
X95312857Y35678096D01*
X95265238Y35582858D01*
X95217619Y35535239D01*
X95122380Y35487620D01*
X94884285Y35487620D01*
X94789047Y35535239D01*
X94741428Y35582858D01*
X104591904Y21247620D02*
X105163333Y21247620D01*
X104877619Y20247620D02*
X104877619Y21247620D01*
X105496666Y20247620D02*
X105496666Y21247620D01*
X105877619Y21247620D01*
X105972857Y21200000D01*
X106020476Y21152381D01*
X106068095Y21057143D01*
X106068095Y20914286D01*
X106020476Y20819048D01*
X105972857Y20771429D01*
X105877619Y20723810D01*
X105496666Y20723810D01*
X107020476Y20247620D02*
X106449047Y20247620D01*
X106734761Y20247620D02*
X106734761Y21247620D01*
X106639523Y21104762D01*
X106544285Y21009524D01*
X106449047Y20961905D01*
X107877619Y20914286D02*
X107877619Y20247620D01*
X107639523Y21295239D02*
X107401428Y20580953D01*
X108020476Y20580953D01*
X104591904Y16167620D02*
X105163333Y16167620D01*
X104877619Y15167620D02*
X104877619Y16167620D01*
X105496666Y15167620D02*
X105496666Y16167620D01*
X105877619Y16167620D01*
X105972857Y16120000D01*
X106020476Y16072381D01*
X106068095Y15977143D01*
X106068095Y15834286D01*
X106020476Y15739048D01*
X105972857Y15691429D01*
X105877619Y15643810D01*
X105496666Y15643810D01*
X107020476Y15167620D02*
X106449047Y15167620D01*
X106734761Y15167620D02*
X106734761Y16167620D01*
X106639523Y16024762D01*
X106544285Y15929524D01*
X106449047Y15881905D01*
X107353809Y16167620D02*
X107972857Y16167620D01*
X107639523Y15786667D01*
X107782380Y15786667D01*
X107877619Y15739048D01*
X107925238Y15691429D01*
X107972857Y15596191D01*
X107972857Y15358096D01*
X107925238Y15262858D01*
X107877619Y15215239D01*
X107782380Y15167620D01*
X107496666Y15167620D01*
X107401428Y15215239D01*
X107353809Y15262858D01*
X99551904Y18707620D02*
X100123333Y18707620D01*
X99837619Y17707620D02*
X99837619Y18707620D01*
X100456666Y17707620D02*
X100456666Y18707620D01*
X100837619Y18707620D01*
X100932857Y18660000D01*
X100980476Y18612381D01*
X101028095Y18517143D01*
X101028095Y18374286D01*
X100980476Y18279048D01*
X100932857Y18231429D01*
X100837619Y18183810D01*
X100456666Y18183810D01*
X101980476Y17707620D02*
X101409047Y17707620D01*
X101694761Y17707620D02*
X101694761Y18707620D01*
X101599523Y18564762D01*
X101504285Y18469524D01*
X101409047Y18421905D01*
X102361428Y18612381D02*
X102409047Y18660000D01*
X102504285Y18707620D01*
X102742380Y18707620D01*
X102837619Y18660000D01*
X102885238Y18612381D01*
X102932857Y18517143D01*
X102932857Y18421905D01*
X102885238Y18279048D01*
X102313809Y17707620D01*
X102932857Y17707620D01*
X99551904Y33947620D02*
X100123333Y33947620D01*
X99837619Y32947620D02*
X99837619Y33947620D01*
X100456666Y32947620D02*
X100456666Y33947620D01*
X100837619Y33947620D01*
X100932857Y33900000D01*
X100980476Y33852381D01*
X101028095Y33757143D01*
X101028095Y33614286D01*
X100980476Y33519048D01*
X100932857Y33471429D01*
X100837619Y33423810D01*
X100456666Y33423810D01*
X101980476Y32947620D02*
X101409047Y32947620D01*
X101694761Y32947620D02*
X101694761Y33947620D01*
X101599523Y33804762D01*
X101504285Y33709524D01*
X101409047Y33661905D01*
X102932857Y32947620D02*
X102361428Y32947620D01*
X102647142Y32947620D02*
X102647142Y33947620D01*
X102551904Y33804762D01*
X102456666Y33709524D01*
X102361428Y33661905D01*
X99551904Y28867620D02*
X100123333Y28867620D01*
X99837619Y27867620D02*
X99837619Y28867620D01*
X100456666Y27867620D02*
X100456666Y28867620D01*
X100837619Y28867620D01*
X100932857Y28820000D01*
X100980476Y28772381D01*
X101028095Y28677143D01*
X101028095Y28534286D01*
X100980476Y28439048D01*
X100932857Y28391429D01*
X100837619Y28343810D01*
X100456666Y28343810D01*
X101980476Y27867620D02*
X101409047Y27867620D01*
X101694761Y27867620D02*
X101694761Y28867620D01*
X101599523Y28724762D01*
X101504285Y28629524D01*
X101409047Y28581905D01*
X102599523Y28867620D02*
X102694761Y28867620D01*
X102790000Y28820000D01*
X102837619Y28772381D01*
X102885238Y28677143D01*
X102932857Y28486667D01*
X102932857Y28248572D01*
X102885238Y28058096D01*
X102837619Y27962858D01*
X102790000Y27915239D01*
X102694761Y27867620D01*
X102599523Y27867620D01*
X102504285Y27915239D01*
X102456666Y27962858D01*
X102409047Y28058096D01*
X102361428Y28248572D01*
X102361428Y28486667D01*
X102409047Y28677143D01*
X102456666Y28772381D01*
X102504285Y28820000D01*
X102599523Y28867620D01*
X105068095Y31407620D02*
X105639523Y31407620D01*
X105353809Y30407620D02*
X105353809Y31407620D01*
X105972857Y30407620D02*
X105972857Y31407620D01*
X106353809Y31407620D01*
X106449047Y31360000D01*
X106496666Y31312381D01*
X106544285Y31217143D01*
X106544285Y31074286D01*
X106496666Y30979048D01*
X106449047Y30931429D01*
X106353809Y30883810D01*
X105972857Y30883810D01*
X107020476Y30407620D02*
X107210952Y30407620D01*
X107306190Y30455239D01*
X107353809Y30502858D01*
X107449047Y30645715D01*
X107496666Y30836191D01*
X107496666Y31217143D01*
X107449047Y31312381D01*
X107401428Y31360000D01*
X107306190Y31407620D01*
X107115714Y31407620D01*
X107020476Y31360000D01*
X106972857Y31312381D01*
X106925238Y31217143D01*
X106925238Y30979048D01*
X106972857Y30883810D01*
X107020476Y30836191D01*
X107115714Y30788572D01*
X107306190Y30788572D01*
X107401428Y30836191D01*
X107449047Y30883810D01*
X107496666Y30979048D01*
X105068095Y26327620D02*
X105639523Y26327620D01*
X105353809Y25327620D02*
X105353809Y26327620D01*
X105972857Y25327620D02*
X105972857Y26327620D01*
X106353809Y26327620D01*
X106449047Y26280000D01*
X106496666Y26232381D01*
X106544285Y26137143D01*
X106544285Y25994286D01*
X106496666Y25899048D01*
X106449047Y25851429D01*
X106353809Y25803810D01*
X105972857Y25803810D01*
X107115714Y25899048D02*
X107020476Y25946667D01*
X106972857Y25994286D01*
X106925238Y26089524D01*
X106925238Y26137143D01*
X106972857Y26232381D01*
X107020476Y26280000D01*
X107115714Y26327620D01*
X107306190Y26327620D01*
X107401428Y26280000D01*
X107449047Y26232381D01*
X107496666Y26137143D01*
X107496666Y26089524D01*
X107449047Y25994286D01*
X107401428Y25946667D01*
X107306190Y25899048D01*
X107115714Y25899048D01*
X107020476Y25851429D01*
X106972857Y25803810D01*
X106925238Y25708572D01*
X106925238Y25518096D01*
X106972857Y25422858D01*
X107020476Y25375239D01*
X107115714Y25327620D01*
X107306190Y25327620D01*
X107401428Y25375239D01*
X107449047Y25422858D01*
X107496666Y25518096D01*
X107496666Y25708572D01*
X107449047Y25803810D01*
X107401428Y25851429D01*
X107306190Y25899048D01*
X105108095Y12547620D02*
X105679523Y12547620D01*
X105393809Y11547620D02*
X105393809Y12547620D01*
X106012857Y11547620D02*
X106012857Y12547620D01*
X106393809Y12547620D01*
X106489047Y12500000D01*
X106536666Y12452381D01*
X106584285Y12357143D01*
X106584285Y12214286D01*
X106536666Y12119048D01*
X106489047Y12071429D01*
X106393809Y12023810D01*
X106012857Y12023810D01*
X106917619Y12547620D02*
X107584285Y12547620D01*
X107155714Y11547620D01*
X105068095Y36487620D02*
X105639523Y36487620D01*
X105353809Y35487620D02*
X105353809Y36487620D01*
X105972857Y35487620D02*
X105972857Y36487620D01*
X106353809Y36487620D01*
X106449047Y36440000D01*
X106496666Y36392381D01*
X106544285Y36297143D01*
X106544285Y36154286D01*
X106496666Y36059048D01*
X106449047Y36011429D01*
X106353809Y35963810D01*
X105972857Y35963810D01*
X107401428Y36487620D02*
X107210952Y36487620D01*
X107115714Y36440000D01*
X107068095Y36392381D01*
X106972857Y36249524D01*
X106925238Y36059048D01*
X106925238Y35678096D01*
X106972857Y35582858D01*
X107020476Y35535239D01*
X107115714Y35487620D01*
X107306190Y35487620D01*
X107401428Y35535239D01*
X107449047Y35582858D01*
X107496666Y35678096D01*
X107496666Y35916191D01*
X107449047Y36011429D01*
X107401428Y36059048D01*
X107306190Y36106667D01*
X107115714Y36106667D01*
X107020476Y36059048D01*
X106972857Y36011429D01*
X106925238Y35916191D01*
X65938095Y39297620D02*
X66509523Y39297620D01*
X66223809Y38297620D02*
X66223809Y39297620D01*
X66842857Y38297620D02*
X66842857Y39297620D01*
X67223809Y39297620D01*
X67319047Y39250000D01*
X67366666Y39202381D01*
X67414285Y39107143D01*
X67414285Y38964286D01*
X67366666Y38869048D01*
X67319047Y38821429D01*
X67223809Y38773810D01*
X66842857Y38773810D01*
X68319047Y39297620D02*
X67842857Y39297620D01*
X67795238Y38821429D01*
X67842857Y38869048D01*
X67938095Y38916667D01*
X68176190Y38916667D01*
X68271428Y38869048D01*
X68319047Y38821429D01*
X68366666Y38726191D01*
X68366666Y38488096D01*
X68319047Y38392858D01*
X68271428Y38345239D01*
X68176190Y38297620D01*
X67938095Y38297620D01*
X67842857Y38345239D01*
X67795238Y38392858D01*
X65938095Y31797620D02*
X66509523Y31797620D01*
X66223809Y30797620D02*
X66223809Y31797620D01*
X66842857Y30797620D02*
X66842857Y31797620D01*
X67223809Y31797620D01*
X67319047Y31750000D01*
X67366666Y31702381D01*
X67414285Y31607143D01*
X67414285Y31464286D01*
X67366666Y31369048D01*
X67319047Y31321429D01*
X67223809Y31273810D01*
X66842857Y31273810D01*
X68271428Y31464286D02*
X68271428Y30797620D01*
X68033333Y31845239D02*
X67795238Y31130953D01*
X68414285Y31130953D01*
X65938095Y24297620D02*
X66509523Y24297620D01*
X66223809Y23297620D02*
X66223809Y24297620D01*
X66842857Y23297620D02*
X66842857Y24297620D01*
X67223809Y24297620D01*
X67319047Y24250000D01*
X67366666Y24202381D01*
X67414285Y24107143D01*
X67414285Y23964286D01*
X67366666Y23869048D01*
X67319047Y23821429D01*
X67223809Y23773810D01*
X66842857Y23773810D01*
X67747619Y24297620D02*
X68366666Y24297620D01*
X68033333Y23916667D01*
X68176190Y23916667D01*
X68271428Y23869048D01*
X68319047Y23821429D01*
X68366666Y23726191D01*
X68366666Y23488096D01*
X68319047Y23392858D01*
X68271428Y23345239D01*
X68176190Y23297620D01*
X67890476Y23297620D01*
X67795238Y23345239D01*
X67747619Y23392858D01*
X65938095Y13047620D02*
X66509523Y13047620D01*
X66223809Y12047620D02*
X66223809Y13047620D01*
X66842857Y12047620D02*
X66842857Y13047620D01*
X67223809Y13047620D01*
X67319047Y13000000D01*
X67366666Y12952381D01*
X67414285Y12857143D01*
X67414285Y12714286D01*
X67366666Y12619048D01*
X67319047Y12571429D01*
X67223809Y12523810D01*
X66842857Y12523810D01*
X67795238Y12952381D02*
X67842857Y13000000D01*
X67938095Y13047620D01*
X68176190Y13047620D01*
X68271428Y13000000D01*
X68319047Y12952381D01*
X68366666Y12857143D01*
X68366666Y12761905D01*
X68319047Y12619048D01*
X67747619Y12047620D01*
X68366666Y12047620D01*
X65938095Y6797620D02*
X66509523Y6797620D01*
X66223809Y5797620D02*
X66223809Y6797620D01*
X66842857Y5797620D02*
X66842857Y6797620D01*
X67223809Y6797620D01*
X67319047Y6750000D01*
X67366666Y6702381D01*
X67414285Y6607143D01*
X67414285Y6464286D01*
X67366666Y6369048D01*
X67319047Y6321429D01*
X67223809Y6273810D01*
X66842857Y6273810D01*
X68366666Y5797620D02*
X67795238Y5797620D01*
X68080952Y5797620D02*
X68080952Y6797620D01*
X67985714Y6654762D01*
X67890476Y6559524D01*
X67795238Y6511905D01*
X93132380Y34482143D02*
X92656190Y34148810D01*
X93132380Y33910715D02*
X92132380Y33910715D01*
X92132380Y34291667D01*
X92180000Y34386905D01*
X92227619Y34434524D01*
X92322857Y34482143D01*
X92465714Y34482143D01*
X92560952Y34434524D01*
X92608571Y34386905D01*
X92656190Y34291667D01*
X92656190Y33910715D01*
X92227619Y34863096D02*
X92180000Y34910715D01*
X92132380Y35005953D01*
X92132380Y35244048D01*
X92180000Y35339286D01*
X92227619Y35386905D01*
X92322857Y35434524D01*
X92418095Y35434524D01*
X92560952Y35386905D01*
X93132380Y34815477D01*
X93132380Y35434524D01*
X92465714Y36291667D02*
X93132380Y36291667D01*
X92084761Y36053572D02*
X92799047Y35815477D01*
X92799047Y36434524D01*
X88772380Y34482143D02*
X88296190Y34148810D01*
X88772380Y33910715D02*
X87772380Y33910715D01*
X87772380Y34291667D01*
X87820000Y34386905D01*
X87867619Y34434524D01*
X87962857Y34482143D01*
X88105714Y34482143D01*
X88200952Y34434524D01*
X88248571Y34386905D01*
X88296190Y34291667D01*
X88296190Y33910715D01*
X87867619Y34863096D02*
X87820000Y34910715D01*
X87772380Y35005953D01*
X87772380Y35244048D01*
X87820000Y35339286D01*
X87867619Y35386905D01*
X87962857Y35434524D01*
X88058095Y35434524D01*
X88200952Y35386905D01*
X88772380Y34815477D01*
X88772380Y35434524D01*
X87772380Y35767858D02*
X87772380Y36386905D01*
X88153333Y36053572D01*
X88153333Y36196429D01*
X88200952Y36291667D01*
X88248571Y36339286D01*
X88343809Y36386905D01*
X88581904Y36386905D01*
X88677142Y36339286D01*
X88724761Y36291667D01*
X88772380Y36196429D01*
X88772380Y35910715D01*
X88724761Y35815477D01*
X88677142Y35767858D01*
X94107142Y26367620D02*
X93773809Y26843810D01*
X93535714Y26367620D02*
X93535714Y27367620D01*
X93916666Y27367620D01*
X94011904Y27320000D01*
X94059523Y27272381D01*
X94107142Y27177143D01*
X94107142Y27034286D01*
X94059523Y26939048D01*
X94011904Y26891429D01*
X93916666Y26843810D01*
X93535714Y26843810D01*
X94488095Y27272381D02*
X94535714Y27320000D01*
X94630952Y27367620D01*
X94869047Y27367620D01*
X94964285Y27320000D01*
X95011904Y27272381D01*
X95059523Y27177143D01*
X95059523Y27081905D01*
X95011904Y26939048D01*
X94440476Y26367620D01*
X95059523Y26367620D01*
X95440476Y27272381D02*
X95488095Y27320000D01*
X95583333Y27367620D01*
X95821428Y27367620D01*
X95916666Y27320000D01*
X95964285Y27272381D01*
X96011904Y27177143D01*
X96011904Y27081905D01*
X95964285Y26939048D01*
X95392857Y26367620D01*
X96011904Y26367620D01*
X94107142Y22867620D02*
X93773809Y23343810D01*
X93535714Y22867620D02*
X93535714Y23867620D01*
X93916666Y23867620D01*
X94011904Y23820000D01*
X94059523Y23772381D01*
X94107142Y23677143D01*
X94107142Y23534286D01*
X94059523Y23439048D01*
X94011904Y23391429D01*
X93916666Y23343810D01*
X93535714Y23343810D01*
X94488095Y23772381D02*
X94535714Y23820000D01*
X94630952Y23867620D01*
X94869047Y23867620D01*
X94964285Y23820000D01*
X95011904Y23772381D01*
X95059523Y23677143D01*
X95059523Y23581905D01*
X95011904Y23439048D01*
X94440476Y22867620D01*
X95059523Y22867620D01*
X96011904Y22867620D02*
X95440476Y22867620D01*
X95726190Y22867620D02*
X95726190Y23867620D01*
X95630952Y23724762D01*
X95535714Y23629524D01*
X95440476Y23581905D01*
X86632380Y37857143D02*
X86156190Y37523810D01*
X86632380Y37285715D02*
X85632380Y37285715D01*
X85632380Y37666667D01*
X85680000Y37761905D01*
X85727619Y37809524D01*
X85822857Y37857143D01*
X85965714Y37857143D01*
X86060952Y37809524D01*
X86108571Y37761905D01*
X86156190Y37666667D01*
X86156190Y37285715D01*
X85727619Y38238096D02*
X85680000Y38285715D01*
X85632380Y38380953D01*
X85632380Y38619048D01*
X85680000Y38714286D01*
X85727619Y38761905D01*
X85822857Y38809524D01*
X85918095Y38809524D01*
X86060952Y38761905D01*
X86632380Y38190477D01*
X86632380Y38809524D01*
X85632380Y39428572D02*
X85632380Y39523810D01*
X85680000Y39619048D01*
X85727619Y39666667D01*
X85822857Y39714286D01*
X86013333Y39761905D01*
X86251428Y39761905D01*
X86441904Y39714286D01*
X86537142Y39666667D01*
X86584761Y39619048D01*
X86632380Y39523810D01*
X86632380Y39428572D01*
X86584761Y39333334D01*
X86537142Y39285715D01*
X86441904Y39238096D01*
X86251428Y39190477D01*
X86013333Y39190477D01*
X85822857Y39238096D01*
X85727619Y39285715D01*
X85680000Y39333334D01*
X85632380Y39428572D01*
X85132380Y37857143D02*
X84656190Y37523810D01*
X85132380Y37285715D02*
X84132380Y37285715D01*
X84132380Y37666667D01*
X84180000Y37761905D01*
X84227619Y37809524D01*
X84322857Y37857143D01*
X84465714Y37857143D01*
X84560952Y37809524D01*
X84608571Y37761905D01*
X84656190Y37666667D01*
X84656190Y37285715D01*
X85132380Y38809524D02*
X85132380Y38238096D01*
X85132380Y38523810D02*
X84132380Y38523810D01*
X84275238Y38428572D01*
X84370476Y38333334D01*
X84418095Y38238096D01*
X85132380Y39285715D02*
X85132380Y39476191D01*
X85084761Y39571429D01*
X85037142Y39619048D01*
X84894285Y39714286D01*
X84703809Y39761905D01*
X84322857Y39761905D01*
X84227619Y39714286D01*
X84180000Y39666667D01*
X84132380Y39571429D01*
X84132380Y39380953D01*
X84180000Y39285715D01*
X84227619Y39238096D01*
X84322857Y39190477D01*
X84560952Y39190477D01*
X84656190Y39238096D01*
X84703809Y39285715D01*
X84751428Y39380953D01*
X84751428Y39571429D01*
X84703809Y39666667D01*
X84656190Y39714286D01*
X84560952Y39761905D01*
X88132380Y37857143D02*
X87656190Y37523810D01*
X88132380Y37285715D02*
X87132380Y37285715D01*
X87132380Y37666667D01*
X87180000Y37761905D01*
X87227619Y37809524D01*
X87322857Y37857143D01*
X87465714Y37857143D01*
X87560952Y37809524D01*
X87608571Y37761905D01*
X87656190Y37666667D01*
X87656190Y37285715D01*
X88132380Y38809524D02*
X88132380Y38238096D01*
X88132380Y38523810D02*
X87132380Y38523810D01*
X87275238Y38428572D01*
X87370476Y38333334D01*
X87418095Y38238096D01*
X87560952Y39380953D02*
X87513333Y39285715D01*
X87465714Y39238096D01*
X87370476Y39190477D01*
X87322857Y39190477D01*
X87227619Y39238096D01*
X87180000Y39285715D01*
X87132380Y39380953D01*
X87132380Y39571429D01*
X87180000Y39666667D01*
X87227619Y39714286D01*
X87322857Y39761905D01*
X87370476Y39761905D01*
X87465714Y39714286D01*
X87513333Y39666667D01*
X87560952Y39571429D01*
X87560952Y39380953D01*
X87608571Y39285715D01*
X87656190Y39238096D01*
X87751428Y39190477D01*
X87941904Y39190477D01*
X88037142Y39238096D01*
X88084761Y39285715D01*
X88132380Y39380953D01*
X88132380Y39571429D01*
X88084761Y39666667D01*
X88037142Y39714286D01*
X87941904Y39761905D01*
X87751428Y39761905D01*
X87656190Y39714286D01*
X87608571Y39666667D01*
X87560952Y39571429D01*
X69982142Y27227620D02*
X69648809Y27703810D01*
X69410714Y27227620D02*
X69410714Y28227620D01*
X69791666Y28227620D01*
X69886904Y28180000D01*
X69934523Y28132381D01*
X69982142Y28037143D01*
X69982142Y27894286D01*
X69934523Y27799048D01*
X69886904Y27751429D01*
X69791666Y27703810D01*
X69410714Y27703810D01*
X70934523Y27227620D02*
X70363095Y27227620D01*
X70648809Y27227620D02*
X70648809Y28227620D01*
X70553571Y28084762D01*
X70458333Y27989524D01*
X70363095Y27941905D01*
X71267857Y28227620D02*
X71934523Y28227620D01*
X71505952Y27227620D01*
X69982142Y18477620D02*
X69648809Y18953810D01*
X69410714Y18477620D02*
X69410714Y19477620D01*
X69791666Y19477620D01*
X69886904Y19430000D01*
X69934523Y19382381D01*
X69982142Y19287143D01*
X69982142Y19144286D01*
X69934523Y19049048D01*
X69886904Y19001429D01*
X69791666Y18953810D01*
X69410714Y18953810D01*
X70934523Y18477620D02*
X70363095Y18477620D01*
X70648809Y18477620D02*
X70648809Y19477620D01*
X70553571Y19334762D01*
X70458333Y19239524D01*
X70363095Y19191905D01*
X71791666Y19477620D02*
X71601190Y19477620D01*
X71505952Y19430000D01*
X71458333Y19382381D01*
X71363095Y19239524D01*
X71315476Y19049048D01*
X71315476Y18668096D01*
X71363095Y18572858D01*
X71410714Y18525239D01*
X71505952Y18477620D01*
X71696428Y18477620D01*
X71791666Y18525239D01*
X71839285Y18572858D01*
X71886904Y18668096D01*
X71886904Y18906191D01*
X71839285Y19001429D01*
X71791666Y19049048D01*
X71696428Y19096667D01*
X71505952Y19096667D01*
X71410714Y19049048D01*
X71363095Y19001429D01*
X71315476Y18906191D01*
X69982142Y9727620D02*
X69648809Y10203810D01*
X69410714Y9727620D02*
X69410714Y10727620D01*
X69791666Y10727620D01*
X69886904Y10680000D01*
X69934523Y10632381D01*
X69982142Y10537143D01*
X69982142Y10394286D01*
X69934523Y10299048D01*
X69886904Y10251429D01*
X69791666Y10203810D01*
X69410714Y10203810D01*
X70934523Y9727620D02*
X70363095Y9727620D01*
X70648809Y9727620D02*
X70648809Y10727620D01*
X70553571Y10584762D01*
X70458333Y10489524D01*
X70363095Y10441905D01*
X71839285Y10727620D02*
X71363095Y10727620D01*
X71315476Y10251429D01*
X71363095Y10299048D01*
X71458333Y10346667D01*
X71696428Y10346667D01*
X71791666Y10299048D01*
X71839285Y10251429D01*
X71886904Y10156191D01*
X71886904Y9918096D01*
X71839285Y9822858D01*
X71791666Y9775239D01*
X71696428Y9727620D01*
X71458333Y9727620D01*
X71363095Y9775239D01*
X71315476Y9822858D01*
X94583333Y21617620D02*
X94250000Y22093810D01*
X94011904Y21617620D02*
X94011904Y22617620D01*
X94392857Y22617620D01*
X94488095Y22570000D01*
X94535714Y22522381D01*
X94583333Y22427143D01*
X94583333Y22284286D01*
X94535714Y22189048D01*
X94488095Y22141429D01*
X94392857Y22093810D01*
X94011904Y22093810D01*
X94964285Y22522381D02*
X95011904Y22570000D01*
X95107142Y22617620D01*
X95345238Y22617620D01*
X95440476Y22570000D01*
X95488095Y22522381D01*
X95535714Y22427143D01*
X95535714Y22331905D01*
X95488095Y22189048D01*
X94916666Y21617620D01*
X95535714Y21617620D01*
X94583333Y22977620D02*
X94250000Y23453810D01*
X94011904Y22977620D02*
X94011904Y23977620D01*
X94392857Y23977620D01*
X94488095Y23930000D01*
X94535714Y23882381D01*
X94583333Y23787143D01*
X94583333Y23644286D01*
X94535714Y23549048D01*
X94488095Y23501429D01*
X94392857Y23453810D01*
X94011904Y23453810D01*
X95535714Y22977620D02*
X94964285Y22977620D01*
X95250000Y22977620D02*
X95250000Y23977620D01*
X95154761Y23834762D01*
X95059523Y23739524D01*
X94964285Y23691905D01*
X84052380Y15858334D02*
X84052380Y15382143D01*
X83052380Y15382143D01*
X83052380Y16096429D02*
X83052380Y16715477D01*
X83433333Y16382143D01*
X83433333Y16525000D01*
X83480952Y16620239D01*
X83528571Y16667858D01*
X83623809Y16715477D01*
X83861904Y16715477D01*
X83957142Y16667858D01*
X84004761Y16620239D01*
X84052380Y16525000D01*
X84052380Y16239286D01*
X84004761Y16144048D01*
X83957142Y16096429D01*
X100583333Y16197620D02*
X100107142Y16197620D01*
X100107142Y17197620D01*
X101440476Y16197620D02*
X100869047Y16197620D01*
X101154761Y16197620D02*
X101154761Y17197620D01*
X101059523Y17054762D01*
X100964285Y16959524D01*
X100869047Y16911905D01*
X111686666Y41317620D02*
X111686666Y40603334D01*
X111639047Y40460477D01*
X111543809Y40365239D01*
X111400952Y40317620D01*
X111305714Y40317620D01*
X112639047Y41317620D02*
X112162857Y41317620D01*
X112115238Y40841429D01*
X112162857Y40889048D01*
X112258095Y40936667D01*
X112496190Y40936667D01*
X112591428Y40889048D01*
X112639047Y40841429D01*
X112686666Y40746191D01*
X112686666Y40508096D01*
X112639047Y40412858D01*
X112591428Y40365239D01*
X112496190Y40317620D01*
X112258095Y40317620D01*
X112162857Y40365239D01*
X112115238Y40412858D01*
X13416666Y46627620D02*
X13416666Y45913334D01*
X13369047Y45770477D01*
X13273809Y45675239D01*
X13130952Y45627620D01*
X13035714Y45627620D01*
X14321428Y46294286D02*
X14321428Y45627620D01*
X14083333Y46675239D02*
X13845238Y45960953D01*
X14464285Y45960953D01*
X13416666Y34127620D02*
X13416666Y33413334D01*
X13369047Y33270477D01*
X13273809Y33175239D01*
X13130952Y33127620D01*
X13035714Y33127620D01*
X13797619Y34127620D02*
X14416666Y34127620D01*
X14083333Y33746667D01*
X14226190Y33746667D01*
X14321428Y33699048D01*
X14369047Y33651429D01*
X14416666Y33556191D01*
X14416666Y33318096D01*
X14369047Y33222858D01*
X14321428Y33175239D01*
X14226190Y33127620D01*
X13940476Y33127620D01*
X13845238Y33175239D01*
X13797619Y33222858D01*
X13416666Y21627620D02*
X13416666Y20913334D01*
X13369047Y20770477D01*
X13273809Y20675239D01*
X13130952Y20627620D01*
X13035714Y20627620D01*
X13845238Y21532381D02*
X13892857Y21580000D01*
X13988095Y21627620D01*
X14226190Y21627620D01*
X14321428Y21580000D01*
X14369047Y21532381D01*
X14416666Y21437143D01*
X14416666Y21341905D01*
X14369047Y21199048D01*
X13797619Y20627620D01*
X14416666Y20627620D01*
X13416666Y9127620D02*
X13416666Y8413334D01*
X13369047Y8270477D01*
X13273809Y8175239D01*
X13130952Y8127620D01*
X13035714Y8127620D01*
X14416666Y8127620D02*
X13845238Y8127620D01*
X14130952Y8127620D02*
X14130952Y9127620D01*
X14035714Y8984762D01*
X13940476Y8889524D01*
X13845238Y8841905D01*
X85773809Y31927620D02*
X85773809Y32927620D01*
X86821428Y32022858D02*
X86773809Y31975239D01*
X86630952Y31927620D01*
X86535714Y31927620D01*
X86392857Y31975239D01*
X86297619Y32070477D01*
X86250000Y32165715D01*
X86202380Y32356191D01*
X86202380Y32499048D01*
X86250000Y32689524D01*
X86297619Y32784762D01*
X86392857Y32880000D01*
X86535714Y32927620D01*
X86630952Y32927620D01*
X86773809Y32880000D01*
X86821428Y32832381D01*
X87773809Y31927620D02*
X87202380Y31927620D01*
X87488095Y31927620D02*
X87488095Y32927620D01*
X87392857Y32784762D01*
X87297619Y32689524D01*
X87202380Y32641905D01*
X72677142Y15607143D02*
X72724761Y15559524D01*
X72772380Y15416667D01*
X72772380Y15321429D01*
X72724761Y15178572D01*
X72629523Y15083334D01*
X72534285Y15035715D01*
X72343809Y14988096D01*
X72200952Y14988096D01*
X72010476Y15035715D01*
X71915238Y15083334D01*
X71820000Y15178572D01*
X71772380Y15321429D01*
X71772380Y15416667D01*
X71820000Y15559524D01*
X71867619Y15607143D01*
X72772380Y16559524D02*
X72772380Y15988096D01*
X72772380Y16273810D02*
X71772380Y16273810D01*
X71915238Y16178572D01*
X72010476Y16083334D01*
X72058095Y15988096D01*
X71772380Y17178572D02*
X71772380Y17273810D01*
X71820000Y17369048D01*
X71867619Y17416667D01*
X71962857Y17464286D01*
X72153333Y17511905D01*
X72391428Y17511905D01*
X72581904Y17464286D01*
X72677142Y17416667D01*
X72724761Y17369048D01*
X72772380Y17273810D01*
X72772380Y17178572D01*
X72724761Y17083334D01*
X72677142Y17035715D01*
X72581904Y16988096D01*
X72391428Y16940477D01*
X72153333Y16940477D01*
X71962857Y16988096D01*
X71867619Y17035715D01*
X71820000Y17083334D01*
X71772380Y17178572D01*
X94677142Y31107143D02*
X94724761Y31059524D01*
X94772380Y30916667D01*
X94772380Y30821429D01*
X94724761Y30678572D01*
X94629523Y30583334D01*
X94534285Y30535715D01*
X94343809Y30488096D01*
X94200952Y30488096D01*
X94010476Y30535715D01*
X93915238Y30583334D01*
X93820000Y30678572D01*
X93772380Y30821429D01*
X93772380Y30916667D01*
X93820000Y31059524D01*
X93867619Y31107143D01*
X93772380Y31440477D02*
X93772380Y32059524D01*
X94153333Y31726191D01*
X94153333Y31869048D01*
X94200952Y31964286D01*
X94248571Y32011905D01*
X94343809Y32059524D01*
X94581904Y32059524D01*
X94677142Y32011905D01*
X94724761Y31964286D01*
X94772380Y31869048D01*
X94772380Y31583334D01*
X94724761Y31488096D01*
X94677142Y31440477D01*
X94772380Y33011905D02*
X94772380Y32440477D01*
X94772380Y32726191D02*
X93772380Y32726191D01*
X93915238Y32630953D01*
X94010476Y32535715D01*
X94058095Y32440477D01*
X92677142Y31107143D02*
X92724761Y31059524D01*
X92772380Y30916667D01*
X92772380Y30821429D01*
X92724761Y30678572D01*
X92629523Y30583334D01*
X92534285Y30535715D01*
X92343809Y30488096D01*
X92200952Y30488096D01*
X92010476Y30535715D01*
X91915238Y30583334D01*
X91820000Y30678572D01*
X91772380Y30821429D01*
X91772380Y30916667D01*
X91820000Y31059524D01*
X91867619Y31107143D01*
X91867619Y31488096D02*
X91820000Y31535715D01*
X91772380Y31630953D01*
X91772380Y31869048D01*
X91820000Y31964286D01*
X91867619Y32011905D01*
X91962857Y32059524D01*
X92058095Y32059524D01*
X92200952Y32011905D01*
X92772380Y31440477D01*
X92772380Y32059524D01*
X92772380Y32535715D02*
X92772380Y32726191D01*
X92724761Y32821429D01*
X92677142Y32869048D01*
X92534285Y32964286D01*
X92343809Y33011905D01*
X91962857Y33011905D01*
X91867619Y32964286D01*
X91820000Y32916667D01*
X91772380Y32821429D01*
X91772380Y32630953D01*
X91820000Y32535715D01*
X91867619Y32488096D01*
X91962857Y32440477D01*
X92200952Y32440477D01*
X92296190Y32488096D01*
X92343809Y32535715D01*
X92391428Y32630953D01*
X92391428Y32821429D01*
X92343809Y32916667D01*
X92296190Y32964286D01*
X92200952Y33011905D01*
X82107142Y20572858D02*
X82059523Y20525239D01*
X81916666Y20477620D01*
X81821428Y20477620D01*
X81678571Y20525239D01*
X81583333Y20620477D01*
X81535714Y20715715D01*
X81488095Y20906191D01*
X81488095Y21049048D01*
X81535714Y21239524D01*
X81583333Y21334762D01*
X81678571Y21430000D01*
X81821428Y21477620D01*
X81916666Y21477620D01*
X82059523Y21430000D01*
X82107142Y21382381D01*
X82488095Y21382381D02*
X82535714Y21430000D01*
X82630952Y21477620D01*
X82869047Y21477620D01*
X82964285Y21430000D01*
X83011904Y21382381D01*
X83059523Y21287143D01*
X83059523Y21191905D01*
X83011904Y21049048D01*
X82440476Y20477620D01*
X83059523Y20477620D01*
X83630952Y21049048D02*
X83535714Y21096667D01*
X83488095Y21144286D01*
X83440476Y21239524D01*
X83440476Y21287143D01*
X83488095Y21382381D01*
X83535714Y21430000D01*
X83630952Y21477620D01*
X83821428Y21477620D01*
X83916666Y21430000D01*
X83964285Y21382381D01*
X84011904Y21287143D01*
X84011904Y21239524D01*
X83964285Y21144286D01*
X83916666Y21096667D01*
X83821428Y21049048D01*
X83630952Y21049048D01*
X83535714Y21001429D01*
X83488095Y20953810D01*
X83440476Y20858572D01*
X83440476Y20668096D01*
X83488095Y20572858D01*
X83535714Y20525239D01*
X83630952Y20477620D01*
X83821428Y20477620D01*
X83916666Y20525239D01*
X83964285Y20572858D01*
X84011904Y20668096D01*
X84011904Y20858572D01*
X83964285Y20953810D01*
X83916666Y21001429D01*
X83821428Y21049048D01*
X82107142Y22072858D02*
X82059523Y22025239D01*
X81916666Y21977620D01*
X81821428Y21977620D01*
X81678571Y22025239D01*
X81583333Y22120477D01*
X81535714Y22215715D01*
X81488095Y22406191D01*
X81488095Y22549048D01*
X81535714Y22739524D01*
X81583333Y22834762D01*
X81678571Y22930000D01*
X81821428Y22977620D01*
X81916666Y22977620D01*
X82059523Y22930000D01*
X82107142Y22882381D01*
X82488095Y22882381D02*
X82535714Y22930000D01*
X82630952Y22977620D01*
X82869047Y22977620D01*
X82964285Y22930000D01*
X83011904Y22882381D01*
X83059523Y22787143D01*
X83059523Y22691905D01*
X83011904Y22549048D01*
X82440476Y21977620D01*
X83059523Y21977620D01*
X83392857Y22977620D02*
X84059523Y22977620D01*
X83630952Y21977620D01*
X85107142Y17712858D02*
X85059523Y17665239D01*
X84916666Y17617620D01*
X84821428Y17617620D01*
X84678571Y17665239D01*
X84583333Y17760477D01*
X84535714Y17855715D01*
X84488095Y18046191D01*
X84488095Y18189048D01*
X84535714Y18379524D01*
X84583333Y18474762D01*
X84678571Y18570000D01*
X84821428Y18617620D01*
X84916666Y18617620D01*
X85059523Y18570000D01*
X85107142Y18522381D01*
X85488095Y18522381D02*
X85535714Y18570000D01*
X85630952Y18617620D01*
X85869047Y18617620D01*
X85964285Y18570000D01*
X86011904Y18522381D01*
X86059523Y18427143D01*
X86059523Y18331905D01*
X86011904Y18189048D01*
X85440476Y17617620D01*
X86059523Y17617620D01*
X86916666Y18617620D02*
X86726190Y18617620D01*
X86630952Y18570000D01*
X86583333Y18522381D01*
X86488095Y18379524D01*
X86440476Y18189048D01*
X86440476Y17808096D01*
X86488095Y17712858D01*
X86535714Y17665239D01*
X86630952Y17617620D01*
X86821428Y17617620D01*
X86916666Y17665239D01*
X86964285Y17712858D01*
X87011904Y17808096D01*
X87011904Y18046191D01*
X86964285Y18141429D01*
X86916666Y18189048D01*
X86821428Y18236667D01*
X86630952Y18236667D01*
X86535714Y18189048D01*
X86488095Y18141429D01*
X86440476Y18046191D01*
X85107142Y19212858D02*
X85059523Y19165239D01*
X84916666Y19117620D01*
X84821428Y19117620D01*
X84678571Y19165239D01*
X84583333Y19260477D01*
X84535714Y19355715D01*
X84488095Y19546191D01*
X84488095Y19689048D01*
X84535714Y19879524D01*
X84583333Y19974762D01*
X84678571Y20070000D01*
X84821428Y20117620D01*
X84916666Y20117620D01*
X85059523Y20070000D01*
X85107142Y20022381D01*
X85488095Y20022381D02*
X85535714Y20070000D01*
X85630952Y20117620D01*
X85869047Y20117620D01*
X85964285Y20070000D01*
X86011904Y20022381D01*
X86059523Y19927143D01*
X86059523Y19831905D01*
X86011904Y19689048D01*
X85440476Y19117620D01*
X86059523Y19117620D01*
X86392857Y20117620D02*
X87011904Y20117620D01*
X86678571Y19736667D01*
X86821428Y19736667D01*
X86916666Y19689048D01*
X86964285Y19641429D01*
X87011904Y19546191D01*
X87011904Y19308096D01*
X86964285Y19212858D01*
X86916666Y19165239D01*
X86821428Y19117620D01*
X86535714Y19117620D01*
X86440476Y19165239D01*
X86392857Y19212858D01*
X84107142Y37072858D02*
X84059523Y37025239D01*
X83916666Y36977620D01*
X83821428Y36977620D01*
X83678571Y37025239D01*
X83583333Y37120477D01*
X83535714Y37215715D01*
X83488095Y37406191D01*
X83488095Y37549048D01*
X83535714Y37739524D01*
X83583333Y37834762D01*
X83678571Y37930000D01*
X83821428Y37977620D01*
X83916666Y37977620D01*
X84059523Y37930000D01*
X84107142Y37882381D01*
X84488095Y37882381D02*
X84535714Y37930000D01*
X84630952Y37977620D01*
X84869047Y37977620D01*
X84964285Y37930000D01*
X85011904Y37882381D01*
X85059523Y37787143D01*
X85059523Y37691905D01*
X85011904Y37549048D01*
X84440476Y36977620D01*
X85059523Y36977620D01*
X85440476Y37882381D02*
X85488095Y37930000D01*
X85583333Y37977620D01*
X85821428Y37977620D01*
X85916666Y37930000D01*
X85964285Y37882381D01*
X86011904Y37787143D01*
X86011904Y37691905D01*
X85964285Y37549048D01*
X85392857Y36977620D01*
X86011904Y36977620D01*
X86177142Y34482143D02*
X86224761Y34434524D01*
X86272380Y34291667D01*
X86272380Y34196429D01*
X86224761Y34053572D01*
X86129523Y33958334D01*
X86034285Y33910715D01*
X85843809Y33863096D01*
X85700952Y33863096D01*
X85510476Y33910715D01*
X85415238Y33958334D01*
X85320000Y34053572D01*
X85272380Y34196429D01*
X85272380Y34291667D01*
X85320000Y34434524D01*
X85367619Y34482143D01*
X85367619Y34863096D02*
X85320000Y34910715D01*
X85272380Y35005953D01*
X85272380Y35244048D01*
X85320000Y35339286D01*
X85367619Y35386905D01*
X85462857Y35434524D01*
X85558095Y35434524D01*
X85700952Y35386905D01*
X86272380Y34815477D01*
X86272380Y35434524D01*
X85272380Y36053572D02*
X85272380Y36148810D01*
X85320000Y36244048D01*
X85367619Y36291667D01*
X85462857Y36339286D01*
X85653333Y36386905D01*
X85891428Y36386905D01*
X86081904Y36339286D01*
X86177142Y36291667D01*
X86224761Y36244048D01*
X86272380Y36148810D01*
X86272380Y36053572D01*
X86224761Y35958334D01*
X86177142Y35910715D01*
X86081904Y35863096D01*
X85891428Y35815477D01*
X85653333Y35815477D01*
X85462857Y35863096D01*
X85367619Y35910715D01*
X85320000Y35958334D01*
X85272380Y36053572D01*
X89537142Y37857143D02*
X89584761Y37809524D01*
X89632380Y37666667D01*
X89632380Y37571429D01*
X89584761Y37428572D01*
X89489523Y37333334D01*
X89394285Y37285715D01*
X89203809Y37238096D01*
X89060952Y37238096D01*
X88870476Y37285715D01*
X88775238Y37333334D01*
X88680000Y37428572D01*
X88632380Y37571429D01*
X88632380Y37666667D01*
X88680000Y37809524D01*
X88727619Y37857143D01*
X89632380Y38809524D02*
X89632380Y38238096D01*
X89632380Y38523810D02*
X88632380Y38523810D01*
X88775238Y38428572D01*
X88870476Y38333334D01*
X88918095Y38238096D01*
X89632380Y39285715D02*
X89632380Y39476191D01*
X89584761Y39571429D01*
X89537142Y39619048D01*
X89394285Y39714286D01*
X89203809Y39761905D01*
X88822857Y39761905D01*
X88727619Y39714286D01*
X88680000Y39666667D01*
X88632380Y39571429D01*
X88632380Y39380953D01*
X88680000Y39285715D01*
X88727619Y39238096D01*
X88822857Y39190477D01*
X89060952Y39190477D01*
X89156190Y39238096D01*
X89203809Y39285715D01*
X89251428Y39380953D01*
X89251428Y39571429D01*
X89203809Y39666667D01*
X89156190Y39714286D01*
X89060952Y39761905D01*
X86177142Y15232143D02*
X86224761Y15184524D01*
X86272380Y15041667D01*
X86272380Y14946429D01*
X86224761Y14803572D01*
X86129523Y14708334D01*
X86034285Y14660715D01*
X85843809Y14613096D01*
X85700952Y14613096D01*
X85510476Y14660715D01*
X85415238Y14708334D01*
X85320000Y14803572D01*
X85272380Y14946429D01*
X85272380Y15041667D01*
X85320000Y15184524D01*
X85367619Y15232143D01*
X86272380Y16184524D02*
X86272380Y15613096D01*
X86272380Y15898810D02*
X85272380Y15898810D01*
X85415238Y15803572D01*
X85510476Y15708334D01*
X85558095Y15613096D01*
X85700952Y16755953D02*
X85653333Y16660715D01*
X85605714Y16613096D01*
X85510476Y16565477D01*
X85462857Y16565477D01*
X85367619Y16613096D01*
X85320000Y16660715D01*
X85272380Y16755953D01*
X85272380Y16946429D01*
X85320000Y17041667D01*
X85367619Y17089286D01*
X85462857Y17136905D01*
X85510476Y17136905D01*
X85605714Y17089286D01*
X85653333Y17041667D01*
X85700952Y16946429D01*
X85700952Y16755953D01*
X85748571Y16660715D01*
X85796190Y16613096D01*
X85891428Y16565477D01*
X86081904Y16565477D01*
X86177142Y16613096D01*
X86224761Y16660715D01*
X86272380Y16755953D01*
X86272380Y16946429D01*
X86224761Y17041667D01*
X86177142Y17089286D01*
X86081904Y17136905D01*
X85891428Y17136905D01*
X85796190Y17089286D01*
X85748571Y17041667D01*
X85700952Y16946429D01*
X79177142Y23512143D02*
X79224761Y23464524D01*
X79272380Y23321667D01*
X79272380Y23226429D01*
X79224761Y23083572D01*
X79129523Y22988334D01*
X79034285Y22940715D01*
X78843809Y22893096D01*
X78700952Y22893096D01*
X78510476Y22940715D01*
X78415238Y22988334D01*
X78320000Y23083572D01*
X78272380Y23226429D01*
X78272380Y23321667D01*
X78320000Y23464524D01*
X78367619Y23512143D01*
X79272380Y24464524D02*
X79272380Y23893096D01*
X79272380Y24178810D02*
X78272380Y24178810D01*
X78415238Y24083572D01*
X78510476Y23988334D01*
X78558095Y23893096D01*
X78272380Y25321667D02*
X78272380Y25131191D01*
X78320000Y25035953D01*
X78367619Y24988334D01*
X78510476Y24893096D01*
X78700952Y24845477D01*
X79081904Y24845477D01*
X79177142Y24893096D01*
X79224761Y24940715D01*
X79272380Y25035953D01*
X79272380Y25226429D01*
X79224761Y25321667D01*
X79177142Y25369286D01*
X79081904Y25416905D01*
X78843809Y25416905D01*
X78748571Y25369286D01*
X78700952Y25321667D01*
X78653333Y25226429D01*
X78653333Y25035953D01*
X78700952Y24940715D01*
X78748571Y24893096D01*
X78843809Y24845477D01*
X79177142Y30232143D02*
X79224761Y30184524D01*
X79272380Y30041667D01*
X79272380Y29946429D01*
X79224761Y29803572D01*
X79129523Y29708334D01*
X79034285Y29660715D01*
X78843809Y29613096D01*
X78700952Y29613096D01*
X78510476Y29660715D01*
X78415238Y29708334D01*
X78320000Y29803572D01*
X78272380Y29946429D01*
X78272380Y30041667D01*
X78320000Y30184524D01*
X78367619Y30232143D01*
X79272380Y31184524D02*
X79272380Y30613096D01*
X79272380Y30898810D02*
X78272380Y30898810D01*
X78415238Y30803572D01*
X78510476Y30708334D01*
X78558095Y30613096D01*
X78272380Y32089286D02*
X78272380Y31613096D01*
X78748571Y31565477D01*
X78700952Y31613096D01*
X78653333Y31708334D01*
X78653333Y31946429D01*
X78700952Y32041667D01*
X78748571Y32089286D01*
X78843809Y32136905D01*
X79081904Y32136905D01*
X79177142Y32089286D01*
X79224761Y32041667D01*
X79272380Y31946429D01*
X79272380Y31708334D01*
X79224761Y31613096D01*
X79177142Y31565477D01*
X87677142Y15232143D02*
X87724761Y15184524D01*
X87772380Y15041667D01*
X87772380Y14946429D01*
X87724761Y14803572D01*
X87629523Y14708334D01*
X87534285Y14660715D01*
X87343809Y14613096D01*
X87200952Y14613096D01*
X87010476Y14660715D01*
X86915238Y14708334D01*
X86820000Y14803572D01*
X86772380Y14946429D01*
X86772380Y15041667D01*
X86820000Y15184524D01*
X86867619Y15232143D01*
X87772380Y16184524D02*
X87772380Y15613096D01*
X87772380Y15898810D02*
X86772380Y15898810D01*
X86915238Y15803572D01*
X87010476Y15708334D01*
X87058095Y15613096D01*
X86772380Y16517858D02*
X86772380Y17136905D01*
X87153333Y16803572D01*
X87153333Y16946429D01*
X87200952Y17041667D01*
X87248571Y17089286D01*
X87343809Y17136905D01*
X87581904Y17136905D01*
X87677142Y17089286D01*
X87724761Y17041667D01*
X87772380Y16946429D01*
X87772380Y16660715D01*
X87724761Y16565477D01*
X87677142Y16517858D01*
X89107142Y17212858D02*
X89059523Y17165239D01*
X88916666Y17117620D01*
X88821428Y17117620D01*
X88678571Y17165239D01*
X88583333Y17260477D01*
X88535714Y17355715D01*
X88488095Y17546191D01*
X88488095Y17689048D01*
X88535714Y17879524D01*
X88583333Y17974762D01*
X88678571Y18070000D01*
X88821428Y18117620D01*
X88916666Y18117620D01*
X89059523Y18070000D01*
X89107142Y18022381D01*
X90059523Y17117620D02*
X89488095Y17117620D01*
X89773809Y17117620D02*
X89773809Y18117620D01*
X89678571Y17974762D01*
X89583333Y17879524D01*
X89488095Y17831905D01*
X90440476Y18022381D02*
X90488095Y18070000D01*
X90583333Y18117620D01*
X90821428Y18117620D01*
X90916666Y18070000D01*
X90964285Y18022381D01*
X91011904Y17927143D01*
X91011904Y17831905D01*
X90964285Y17689048D01*
X90392857Y17117620D01*
X91011904Y17117620D01*
X72677142Y20232143D02*
X72724761Y20184524D01*
X72772380Y20041667D01*
X72772380Y19946429D01*
X72724761Y19803572D01*
X72629523Y19708334D01*
X72534285Y19660715D01*
X72343809Y19613096D01*
X72200952Y19613096D01*
X72010476Y19660715D01*
X71915238Y19708334D01*
X71820000Y19803572D01*
X71772380Y19946429D01*
X71772380Y20041667D01*
X71820000Y20184524D01*
X71867619Y20232143D01*
X72772380Y21184524D02*
X72772380Y20613096D01*
X72772380Y20898810D02*
X71772380Y20898810D01*
X71915238Y20803572D01*
X72010476Y20708334D01*
X72058095Y20613096D01*
X72772380Y22136905D02*
X72772380Y21565477D01*
X72772380Y21851191D02*
X71772380Y21851191D01*
X71915238Y21755953D01*
X72010476Y21660715D01*
X72058095Y21565477D01*
X94677142Y15708334D02*
X94724761Y15660715D01*
X94772380Y15517858D01*
X94772380Y15422620D01*
X94724761Y15279762D01*
X94629523Y15184524D01*
X94534285Y15136905D01*
X94343809Y15089286D01*
X94200952Y15089286D01*
X94010476Y15136905D01*
X93915238Y15184524D01*
X93820000Y15279762D01*
X93772380Y15422620D01*
X93772380Y15517858D01*
X93820000Y15660715D01*
X93867619Y15708334D01*
X94772380Y16184524D02*
X94772380Y16375000D01*
X94724761Y16470239D01*
X94677142Y16517858D01*
X94534285Y16613096D01*
X94343809Y16660715D01*
X93962857Y16660715D01*
X93867619Y16613096D01*
X93820000Y16565477D01*
X93772380Y16470239D01*
X93772380Y16279762D01*
X93820000Y16184524D01*
X93867619Y16136905D01*
X93962857Y16089286D01*
X94200952Y16089286D01*
X94296190Y16136905D01*
X94343809Y16184524D01*
X94391428Y16279762D01*
X94391428Y16470239D01*
X94343809Y16565477D01*
X94296190Y16613096D01*
X94200952Y16660715D01*
X96177142Y15708334D02*
X96224761Y15660715D01*
X96272380Y15517858D01*
X96272380Y15422620D01*
X96224761Y15279762D01*
X96129523Y15184524D01*
X96034285Y15136905D01*
X95843809Y15089286D01*
X95700952Y15089286D01*
X95510476Y15136905D01*
X95415238Y15184524D01*
X95320000Y15279762D01*
X95272380Y15422620D01*
X95272380Y15517858D01*
X95320000Y15660715D01*
X95367619Y15708334D01*
X95700952Y16279762D02*
X95653333Y16184524D01*
X95605714Y16136905D01*
X95510476Y16089286D01*
X95462857Y16089286D01*
X95367619Y16136905D01*
X95320000Y16184524D01*
X95272380Y16279762D01*
X95272380Y16470239D01*
X95320000Y16565477D01*
X95367619Y16613096D01*
X95462857Y16660715D01*
X95510476Y16660715D01*
X95605714Y16613096D01*
X95653333Y16565477D01*
X95700952Y16470239D01*
X95700952Y16279762D01*
X95748571Y16184524D01*
X95796190Y16136905D01*
X95891428Y16089286D01*
X96081904Y16089286D01*
X96177142Y16136905D01*
X96224761Y16184524D01*
X96272380Y16279762D01*
X96272380Y16470239D01*
X96224761Y16565477D01*
X96177142Y16613096D01*
X96081904Y16660715D01*
X95891428Y16660715D01*
X95796190Y16613096D01*
X95748571Y16565477D01*
X95700952Y16470239D01*
X70427142Y29083334D02*
X70474761Y29035715D01*
X70522380Y28892858D01*
X70522380Y28797620D01*
X70474761Y28654762D01*
X70379523Y28559524D01*
X70284285Y28511905D01*
X70093809Y28464286D01*
X69950952Y28464286D01*
X69760476Y28511905D01*
X69665238Y28559524D01*
X69570000Y28654762D01*
X69522380Y28797620D01*
X69522380Y28892858D01*
X69570000Y29035715D01*
X69617619Y29083334D01*
X69522380Y29416667D02*
X69522380Y30083334D01*
X70522380Y29654762D01*
X70427142Y19833334D02*
X70474761Y19785715D01*
X70522380Y19642858D01*
X70522380Y19547620D01*
X70474761Y19404762D01*
X70379523Y19309524D01*
X70284285Y19261905D01*
X70093809Y19214286D01*
X69950952Y19214286D01*
X69760476Y19261905D01*
X69665238Y19309524D01*
X69570000Y19404762D01*
X69522380Y19547620D01*
X69522380Y19642858D01*
X69570000Y19785715D01*
X69617619Y19833334D01*
X69522380Y20690477D02*
X69522380Y20500000D01*
X69570000Y20404762D01*
X69617619Y20357143D01*
X69760476Y20261905D01*
X69950952Y20214286D01*
X70331904Y20214286D01*
X70427142Y20261905D01*
X70474761Y20309524D01*
X70522380Y20404762D01*
X70522380Y20595239D01*
X70474761Y20690477D01*
X70427142Y20738096D01*
X70331904Y20785715D01*
X70093809Y20785715D01*
X69998571Y20738096D01*
X69950952Y20690477D01*
X69903333Y20595239D01*
X69903333Y20404762D01*
X69950952Y20309524D01*
X69998571Y20261905D01*
X70093809Y20214286D01*
X70427142Y11083334D02*
X70474761Y11035715D01*
X70522380Y10892858D01*
X70522380Y10797620D01*
X70474761Y10654762D01*
X70379523Y10559524D01*
X70284285Y10511905D01*
X70093809Y10464286D01*
X69950952Y10464286D01*
X69760476Y10511905D01*
X69665238Y10559524D01*
X69570000Y10654762D01*
X69522380Y10797620D01*
X69522380Y10892858D01*
X69570000Y11035715D01*
X69617619Y11083334D01*
X69522380Y11988096D02*
X69522380Y11511905D01*
X69998571Y11464286D01*
X69950952Y11511905D01*
X69903333Y11607143D01*
X69903333Y11845239D01*
X69950952Y11940477D01*
X69998571Y11988096D01*
X70093809Y12035715D01*
X70331904Y12035715D01*
X70427142Y11988096D01*
X70474761Y11940477D01*
X70522380Y11845239D01*
X70522380Y11607143D01*
X70474761Y11511905D01*
X70427142Y11464286D01*
X48035714Y41797620D02*
X48035714Y42797620D01*
X48607142Y41797620D01*
X48607142Y42797620D01*
X49083333Y42321429D02*
X49416666Y42321429D01*
X49559523Y41797620D02*
X49083333Y41797620D01*
X49083333Y42797620D01*
X49559523Y42797620D01*
X50416666Y42464286D02*
X50416666Y41797620D01*
X50178571Y42845239D02*
X49940476Y42130953D01*
X50559523Y42130953D01*
X48285714Y29297620D02*
X48285714Y30297620D01*
X48857142Y29297620D01*
X48857142Y30297620D01*
X49333333Y29821429D02*
X49666666Y29821429D01*
X49809523Y29297620D02*
X49333333Y29297620D01*
X49333333Y30297620D01*
X49809523Y30297620D01*
X50142857Y30297620D02*
X50761904Y30297620D01*
X50428571Y29916667D01*
X50571428Y29916667D01*
X50666666Y29869048D01*
X50714285Y29821429D01*
X50761904Y29726191D01*
X50761904Y29488096D01*
X50714285Y29392858D01*
X50666666Y29345239D01*
X50571428Y29297620D01*
X50285714Y29297620D01*
X50190476Y29345239D01*
X50142857Y29392858D01*
X58702380Y43211905D02*
X57702380Y43211905D01*
X57702380Y43450000D01*
X57750000Y43592858D01*
X57845238Y43688096D01*
X57940476Y43735715D01*
X58130952Y43783334D01*
X58273809Y43783334D01*
X58464285Y43735715D01*
X58559523Y43688096D01*
X58654761Y43592858D01*
X58702380Y43450000D01*
X58702380Y43211905D01*
X58035714Y44640477D02*
X58702380Y44640477D01*
X57654761Y44402381D02*
X58369047Y44164286D01*
X58369047Y44783334D01*
X38007142Y40577620D02*
X37673809Y41053810D01*
X37435714Y40577620D02*
X37435714Y41577620D01*
X37816666Y41577620D01*
X37911904Y41530000D01*
X37959523Y41482381D01*
X38007142Y41387143D01*
X38007142Y41244286D01*
X37959523Y41149048D01*
X37911904Y41101429D01*
X37816666Y41053810D01*
X37435714Y41053810D01*
X38959523Y40577620D02*
X38388095Y40577620D01*
X38673809Y40577620D02*
X38673809Y41577620D01*
X38578571Y41434762D01*
X38483333Y41339524D01*
X38388095Y41291905D01*
X39578571Y41577620D02*
X39673809Y41577620D01*
X39769047Y41530000D01*
X39816666Y41482381D01*
X39864285Y41387143D01*
X39911904Y41196667D01*
X39911904Y40958572D01*
X39864285Y40768096D01*
X39816666Y40672858D01*
X39769047Y40625239D01*
X39673809Y40577620D01*
X39578571Y40577620D01*
X39483333Y40625239D01*
X39435714Y40672858D01*
X39388095Y40768096D01*
X39340476Y40958572D01*
X39340476Y41196667D01*
X39388095Y41387143D01*
X39435714Y41482381D01*
X39483333Y41530000D01*
X39578571Y41577620D01*
X23483333Y28077620D02*
X23150000Y28553810D01*
X22911904Y28077620D02*
X22911904Y29077620D01*
X23292857Y29077620D01*
X23388095Y29030000D01*
X23435714Y28982381D01*
X23483333Y28887143D01*
X23483333Y28744286D01*
X23435714Y28649048D01*
X23388095Y28601429D01*
X23292857Y28553810D01*
X22911904Y28553810D01*
X24388095Y29077620D02*
X23911904Y29077620D01*
X23864285Y28601429D01*
X23911904Y28649048D01*
X24007142Y28696667D01*
X24245238Y28696667D01*
X24340476Y28649048D01*
X24388095Y28601429D01*
X24435714Y28506191D01*
X24435714Y28268096D01*
X24388095Y28172858D01*
X24340476Y28125239D01*
X24245238Y28077620D01*
X24007142Y28077620D01*
X23911904Y28125239D01*
X23864285Y28172858D01*
X23483333Y15577620D02*
X23150000Y16053810D01*
X22911904Y15577620D02*
X22911904Y16577620D01*
X23292857Y16577620D01*
X23388095Y16530000D01*
X23435714Y16482381D01*
X23483333Y16387143D01*
X23483333Y16244286D01*
X23435714Y16149048D01*
X23388095Y16101429D01*
X23292857Y16053810D01*
X22911904Y16053810D01*
X24340476Y16244286D02*
X24340476Y15577620D01*
X24102380Y16625239D02*
X23864285Y15910953D01*
X24483333Y15910953D01*
X23483333Y3077620D02*
X23150000Y3553810D01*
X22911904Y3077620D02*
X22911904Y4077620D01*
X23292857Y4077620D01*
X23388095Y4030000D01*
X23435714Y3982381D01*
X23483333Y3887143D01*
X23483333Y3744286D01*
X23435714Y3649048D01*
X23388095Y3601429D01*
X23292857Y3553810D01*
X22911904Y3553810D01*
X23816666Y4077620D02*
X24435714Y4077620D01*
X24102380Y3696667D01*
X24245238Y3696667D01*
X24340476Y3649048D01*
X24388095Y3601429D01*
X24435714Y3506191D01*
X24435714Y3268096D01*
X24388095Y3172858D01*
X24340476Y3125239D01*
X24245238Y3077620D01*
X23959523Y3077620D01*
X23864285Y3125239D01*
X23816666Y3172858D01*
X51937142Y927620D02*
X51603809Y1403810D01*
X51365714Y927620D02*
X51365714Y1927620D01*
X51746666Y1927620D01*
X51841904Y1880000D01*
X51889523Y1832381D01*
X51937142Y1737143D01*
X51937142Y1594286D01*
X51889523Y1499048D01*
X51841904Y1451429D01*
X51746666Y1403810D01*
X51365714Y1403810D01*
X52889523Y927620D02*
X52318095Y927620D01*
X52603809Y927620D02*
X52603809Y1927620D01*
X52508571Y1784762D01*
X52413333Y1689524D01*
X52318095Y1641905D01*
X53841904Y927620D02*
X53270476Y927620D01*
X53556190Y927620D02*
X53556190Y1927620D01*
X53460952Y1784762D01*
X53365714Y1689524D01*
X53270476Y1641905D01*
X51777142Y13427620D02*
X51443809Y13903810D01*
X51205714Y13427620D02*
X51205714Y14427620D01*
X51586666Y14427620D01*
X51681904Y14380000D01*
X51729523Y14332381D01*
X51777142Y14237143D01*
X51777142Y14094286D01*
X51729523Y13999048D01*
X51681904Y13951429D01*
X51586666Y13903810D01*
X51205714Y13903810D01*
X52729523Y13427620D02*
X52158095Y13427620D01*
X52443809Y13427620D02*
X52443809Y14427620D01*
X52348571Y14284762D01*
X52253333Y14189524D01*
X52158095Y14141905D01*
X53110476Y14332381D02*
X53158095Y14380000D01*
X53253333Y14427620D01*
X53491428Y14427620D01*
X53586666Y14380000D01*
X53634285Y14332381D01*
X53681904Y14237143D01*
X53681904Y14141905D01*
X53634285Y13999048D01*
X53062857Y13427620D01*
X53681904Y13427620D01*
X51777142Y25927620D02*
X51443809Y26403810D01*
X51205714Y25927620D02*
X51205714Y26927620D01*
X51586666Y26927620D01*
X51681904Y26880000D01*
X51729523Y26832381D01*
X51777142Y26737143D01*
X51777142Y26594286D01*
X51729523Y26499048D01*
X51681904Y26451429D01*
X51586666Y26403810D01*
X51205714Y26403810D01*
X52729523Y25927620D02*
X52158095Y25927620D01*
X52443809Y25927620D02*
X52443809Y26927620D01*
X52348571Y26784762D01*
X52253333Y26689524D01*
X52158095Y26641905D01*
X53062857Y26927620D02*
X53681904Y26927620D01*
X53348571Y26546667D01*
X53491428Y26546667D01*
X53586666Y26499048D01*
X53634285Y26451429D01*
X53681904Y26356191D01*
X53681904Y26118096D01*
X53634285Y26022858D01*
X53586666Y25975239D01*
X53491428Y25927620D01*
X53205714Y25927620D01*
X53110476Y25975239D01*
X53062857Y26022858D01*
X55357142Y8583334D02*
X55404761Y8535715D01*
X55452380Y8392858D01*
X55452380Y8297620D01*
X55404761Y8154762D01*
X55309523Y8059524D01*
X55214285Y8011905D01*
X55023809Y7964286D01*
X54880952Y7964286D01*
X54690476Y8011905D01*
X54595238Y8059524D01*
X54500000Y8154762D01*
X54452380Y8297620D01*
X54452380Y8392858D01*
X54500000Y8535715D01*
X54547619Y8583334D01*
X55452380Y9535715D02*
X55452380Y8964286D01*
X55452380Y9250000D02*
X54452380Y9250000D01*
X54595238Y9154762D01*
X54690476Y9059524D01*
X54738095Y8964286D01*
X55357142Y33583334D02*
X55404761Y33535715D01*
X55452380Y33392858D01*
X55452380Y33297620D01*
X55404761Y33154762D01*
X55309523Y33059524D01*
X55214285Y33011905D01*
X55023809Y32964286D01*
X54880952Y32964286D01*
X54690476Y33011905D01*
X54595238Y33059524D01*
X54500000Y33154762D01*
X54452380Y33297620D01*
X54452380Y33392858D01*
X54500000Y33535715D01*
X54547619Y33583334D01*
X54452380Y33916667D02*
X54452380Y34535715D01*
X54833333Y34202381D01*
X54833333Y34345239D01*
X54880952Y34440477D01*
X54928571Y34488096D01*
X55023809Y34535715D01*
X55261904Y34535715D01*
X55357142Y34488096D01*
X55404761Y34440477D01*
X55452380Y34345239D01*
X55452380Y34059524D01*
X55404761Y33964286D01*
X55357142Y33916667D01*
X55357142Y46083334D02*
X55404761Y46035715D01*
X55452380Y45892858D01*
X55452380Y45797620D01*
X55404761Y45654762D01*
X55309523Y45559524D01*
X55214285Y45511905D01*
X55023809Y45464286D01*
X54880952Y45464286D01*
X54690476Y45511905D01*
X54595238Y45559524D01*
X54500000Y45654762D01*
X54452380Y45797620D01*
X54452380Y45892858D01*
X54500000Y46035715D01*
X54547619Y46083334D01*
X54785714Y46940477D02*
X55452380Y46940477D01*
X54404761Y46702381D02*
X55119047Y46464286D01*
X55119047Y47083334D01*
M02*
