M48
; DRILL file {KiCad (5.1.5-0)} date Freitag, 03. April 2020 um 13:37:04
; FORMAT={-:-/ absolute / metric / decimal}
; #@! TF.CreationDate,2020-04-03T13:37:04+02:00
; #@! TF.GenerationSoftware,Kicad,Pcbnew,(5.1.5-0)
; #@! TF.FileFunction,Plated,1,2,PTH
FMAT,2
METRIC
T1C0.800
T2C1.000
%
G90
G05
T1
X47.34Y16.25
X57.5Y16.25
X47.75Y22.5
X51.25Y22.5
X57.5Y22.5
X57.5Y20.0
X32.3Y6.25
X45.0Y6.25
X47.34Y28.75
X57.5Y28.75
X32.3Y31.25
X45.0Y31.25
X57.5Y10.0
X57.5Y7.5
X47.34Y41.25
X57.5Y41.25
X57.5Y47.5
X57.5Y45.0
X47.75Y10.0
X51.25Y10.0
X47.5Y47.5
X51.0Y47.5
X17.3Y43.75
X30.0Y43.75
X57.5Y35.0
X57.5Y32.5
X32.3Y18.75
X45.0Y18.75
X32.3Y43.75
X45.0Y43.75
X17.3Y31.25
X30.0Y31.25
X17.3Y18.75
X30.0Y18.75
X47.75Y35.0
X51.25Y35.0
X17.3Y6.25
X30.0Y6.25
X47.5Y3.75
X57.66Y3.75
T2
X105.63Y38.44
X105.63Y18.12
X13.75Y6.25
X66.5Y26.25
X110.75Y23.2
X110.75Y20.66
X110.75Y18.12
X113.29Y23.2
X113.29Y20.66
X113.29Y18.12
X105.63Y33.36
X66.5Y41.25
X13.75Y43.75
X100.59Y20.66
X92.97Y38.44
X66.5Y15.0
X110.75Y38.44
X110.75Y35.9
X110.75Y33.36
X110.75Y30.82
X110.75Y28.28
X110.75Y25.74
X113.29Y38.44
X113.29Y35.9
X113.29Y33.36
X113.29Y30.82
X113.29Y28.28
X113.29Y25.74
X13.75Y18.75
X100.59Y35.9
X105.63Y23.2
X66.5Y8.75
X105.63Y28.28
X105.67Y14.5
X66.5Y33.75
X13.75Y31.25
X100.59Y30.82
T0
M30
