%FSLAX45Y45*%
G04 Gerber Fmt 4.5, Leading zero omitted, Abs format (unit mm)*
G04 Created by KiCad (PCBNEW (5.1.5-0)) date 2020-04-03 13:37:01*
%MOMM*%
%LPD*%
G04 APERTURE LIST*
%TA.AperFunction,Profile*%
%ADD10C,0.050000*%
%TD*%
%ADD11C,0.200000*%
%ADD12C,0.300000*%
G04 APERTURE END LIST*
D10*
X11750000Y250000D02*
X11750000Y5250000D01*
X11750000Y5250000D02*
X0Y5250000D01*
X0Y0D02*
X11750000Y0D01*
X0Y5250000D02*
X0Y250000D01*
D11*
X4694000Y1665000D02*
X4774000Y1585000D01*
X4774000Y1665000D02*
X4694000Y1585000D01*
X5710000Y1665000D02*
X5790000Y1585000D01*
X5790000Y1665000D02*
X5710000Y1585000D01*
X4735000Y2290000D02*
X4815000Y2210000D01*
X4815000Y2290000D02*
X4735000Y2210000D01*
X5085000Y2290000D02*
X5165000Y2210000D01*
X5165000Y2290000D02*
X5085000Y2210000D01*
X5710000Y2290000D02*
X5790000Y2210000D01*
X5790000Y2290000D02*
X5710000Y2210000D01*
X5710000Y2040000D02*
X5790000Y1960000D01*
X5790000Y2040000D02*
X5710000Y1960000D01*
X3190000Y665000D02*
X3270000Y585000D01*
X3270000Y665000D02*
X3190000Y585000D01*
X4460000Y665000D02*
X4540000Y585000D01*
X4540000Y665000D02*
X4460000Y585000D01*
X4694000Y2915000D02*
X4774000Y2835000D01*
X4774000Y2915000D02*
X4694000Y2835000D01*
X5710000Y2915000D02*
X5790000Y2835000D01*
X5790000Y2915000D02*
X5710000Y2835000D01*
X3190000Y3165000D02*
X3270000Y3085000D01*
X3270000Y3165000D02*
X3190000Y3085000D01*
X4460000Y3165000D02*
X4540000Y3085000D01*
X4540000Y3165000D02*
X4460000Y3085000D01*
X5710000Y1040000D02*
X5790000Y960000D01*
X5790000Y1040000D02*
X5710000Y960000D01*
X5710000Y790000D02*
X5790000Y710000D01*
X5790000Y790000D02*
X5710000Y710000D01*
X4694000Y4165000D02*
X4774000Y4085000D01*
X4774000Y4165000D02*
X4694000Y4085000D01*
X5710000Y4165000D02*
X5790000Y4085000D01*
X5790000Y4165000D02*
X5710000Y4085000D01*
X5710000Y4790000D02*
X5790000Y4710000D01*
X5790000Y4790000D02*
X5710000Y4710000D01*
X5710000Y4540000D02*
X5790000Y4460000D01*
X5790000Y4540000D02*
X5710000Y4460000D01*
X4735000Y1040000D02*
X4815000Y960000D01*
X4815000Y1040000D02*
X4735000Y960000D01*
X5085000Y1040000D02*
X5165000Y960000D01*
X5165000Y1040000D02*
X5085000Y960000D01*
X4710000Y4790000D02*
X4790000Y4710000D01*
X4790000Y4790000D02*
X4710000Y4710000D01*
X5060000Y4790000D02*
X5140000Y4710000D01*
X5140000Y4790000D02*
X5060000Y4710000D01*
X1690000Y4415000D02*
X1770000Y4335000D01*
X1770000Y4415000D02*
X1690000Y4335000D01*
X2960000Y4415000D02*
X3040000Y4335000D01*
X3040000Y4415000D02*
X2960000Y4335000D01*
X5710000Y3540000D02*
X5790000Y3460000D01*
X5790000Y3540000D02*
X5710000Y3460000D01*
X5710000Y3290000D02*
X5790000Y3210000D01*
X5790000Y3290000D02*
X5710000Y3210000D01*
X3190000Y1915000D02*
X3270000Y1835000D01*
X3270000Y1915000D02*
X3190000Y1835000D01*
X4460000Y1915000D02*
X4540000Y1835000D01*
X4540000Y1915000D02*
X4460000Y1835000D01*
X3190000Y4415000D02*
X3270000Y4335000D01*
X3270000Y4415000D02*
X3190000Y4335000D01*
X4460000Y4415000D02*
X4540000Y4335000D01*
X4540000Y4415000D02*
X4460000Y4335000D01*
X1690000Y3165000D02*
X1770000Y3085000D01*
X1770000Y3165000D02*
X1690000Y3085000D01*
X2960000Y3165000D02*
X3040000Y3085000D01*
X3040000Y3165000D02*
X2960000Y3085000D01*
X1690000Y1915000D02*
X1770000Y1835000D01*
X1770000Y1915000D02*
X1690000Y1835000D01*
X2960000Y1915000D02*
X3040000Y1835000D01*
X3040000Y1915000D02*
X2960000Y1835000D01*
X4735000Y3540000D02*
X4815000Y3460000D01*
X4815000Y3540000D02*
X4735000Y3460000D01*
X5085000Y3540000D02*
X5165000Y3460000D01*
X5165000Y3540000D02*
X5085000Y3460000D01*
X1690000Y665000D02*
X1770000Y585000D01*
X1770000Y665000D02*
X1690000Y585000D01*
X2960000Y665000D02*
X3040000Y585000D01*
X3040000Y665000D02*
X2960000Y585000D01*
X4710000Y415000D02*
X4790000Y335000D01*
X4790000Y415000D02*
X4710000Y335000D01*
X5726000Y415000D02*
X5806000Y335000D01*
X5806000Y415000D02*
X5726000Y335000D01*
X10613000Y3844000D02*
G75*
G03X10613000Y3844000I-50000J0D01*
G01*
X10613000Y1812000D02*
G75*
G03X10613000Y1812000I-50000J0D01*
G01*
X1425000Y625000D02*
G75*
G03X1425000Y625000I-50000J0D01*
G01*
X6700000Y2625000D02*
G75*
G03X6700000Y2625000I-50000J0D01*
G01*
X11125000Y2320000D02*
G75*
G03X11125000Y2320000I-50000J0D01*
G01*
X11125000Y2066000D02*
G75*
G03X11125000Y2066000I-50000J0D01*
G01*
X11125000Y1812000D02*
G75*
G03X11125000Y1812000I-50000J0D01*
G01*
X11379000Y2320000D02*
G75*
G03X11379000Y2320000I-50000J0D01*
G01*
X11379000Y2066000D02*
G75*
G03X11379000Y2066000I-50000J0D01*
G01*
X11379000Y1812000D02*
G75*
G03X11379000Y1812000I-50000J0D01*
G01*
X10613000Y3336000D02*
G75*
G03X10613000Y3336000I-50000J0D01*
G01*
X6700000Y4125000D02*
G75*
G03X6700000Y4125000I-50000J0D01*
G01*
X1425000Y4375000D02*
G75*
G03X1425000Y4375000I-50000J0D01*
G01*
X10109000Y2066000D02*
G75*
G03X10109000Y2066000I-50000J0D01*
G01*
X9347000Y3844000D02*
G75*
G03X9347000Y3844000I-50000J0D01*
G01*
X6700000Y1500000D02*
G75*
G03X6700000Y1500000I-50000J0D01*
G01*
X11125000Y3844000D02*
G75*
G03X11125000Y3844000I-50000J0D01*
G01*
X11125000Y3590000D02*
G75*
G03X11125000Y3590000I-50000J0D01*
G01*
X11125000Y3336000D02*
G75*
G03X11125000Y3336000I-50000J0D01*
G01*
X11125000Y3082000D02*
G75*
G03X11125000Y3082000I-50000J0D01*
G01*
X11125000Y2828000D02*
G75*
G03X11125000Y2828000I-50000J0D01*
G01*
X11125000Y2574000D02*
G75*
G03X11125000Y2574000I-50000J0D01*
G01*
X11379000Y3844000D02*
G75*
G03X11379000Y3844000I-50000J0D01*
G01*
X11379000Y3590000D02*
G75*
G03X11379000Y3590000I-50000J0D01*
G01*
X11379000Y3336000D02*
G75*
G03X11379000Y3336000I-50000J0D01*
G01*
X11379000Y3082000D02*
G75*
G03X11379000Y3082000I-50000J0D01*
G01*
X11379000Y2828000D02*
G75*
G03X11379000Y2828000I-50000J0D01*
G01*
X11379000Y2574000D02*
G75*
G03X11379000Y2574000I-50000J0D01*
G01*
X1425000Y1875000D02*
G75*
G03X1425000Y1875000I-50000J0D01*
G01*
X10109000Y3590000D02*
G75*
G03X10109000Y3590000I-50000J0D01*
G01*
X10613000Y2320000D02*
G75*
G03X10613000Y2320000I-50000J0D01*
G01*
X6700000Y875000D02*
G75*
G03X6700000Y875000I-50000J0D01*
G01*
X10613000Y2828000D02*
G75*
G03X10613000Y2828000I-50000J0D01*
G01*
X10617000Y1450000D02*
G75*
G03X10617000Y1450000I-50000J0D01*
G01*
X6700000Y3375000D02*
G75*
G03X6700000Y3375000I-50000J0D01*
G01*
X1425000Y3125000D02*
G75*
G03X1425000Y3125000I-50000J0D01*
G01*
X10109000Y3082000D02*
G75*
G03X10109000Y3082000I-50000J0D01*
G01*
D12*
X283928Y-468214D02*
X283928Y-168214D01*
X355357Y-168214D01*
X398214Y-182500D01*
X426786Y-211071D01*
X441071Y-239643D01*
X455357Y-296786D01*
X455357Y-339643D01*
X441071Y-396786D01*
X426786Y-425357D01*
X398214Y-453929D01*
X355357Y-468214D01*
X283928Y-468214D01*
X583928Y-468214D02*
X583928Y-268214D01*
X583928Y-325357D02*
X598214Y-296786D01*
X612500Y-282500D01*
X641071Y-268214D01*
X669643Y-268214D01*
X769643Y-468214D02*
X769643Y-268214D01*
X769643Y-168214D02*
X755357Y-182500D01*
X769643Y-196786D01*
X783928Y-182500D01*
X769643Y-168214D01*
X769643Y-196786D01*
X955357Y-468214D02*
X926786Y-453929D01*
X912500Y-425357D01*
X912500Y-168214D01*
X1112500Y-468214D02*
X1083928Y-453929D01*
X1069643Y-425357D01*
X1069643Y-168214D01*
X1455357Y-468214D02*
X1455357Y-168214D01*
X1555357Y-382500D01*
X1655357Y-168214D01*
X1655357Y-468214D01*
X1926786Y-468214D02*
X1926786Y-311072D01*
X1912500Y-282500D01*
X1883928Y-268214D01*
X1826786Y-268214D01*
X1798214Y-282500D01*
X1926786Y-453929D02*
X1898214Y-468214D01*
X1826786Y-468214D01*
X1798214Y-453929D01*
X1783928Y-425357D01*
X1783928Y-396786D01*
X1798214Y-368214D01*
X1826786Y-353929D01*
X1898214Y-353929D01*
X1926786Y-339643D01*
X2069643Y-268214D02*
X2069643Y-568214D01*
X2069643Y-282500D02*
X2098214Y-268214D01*
X2155357Y-268214D01*
X2183928Y-282500D01*
X2198214Y-296786D01*
X2212500Y-325357D01*
X2212500Y-411071D01*
X2198214Y-439643D01*
X2183928Y-453929D01*
X2155357Y-468214D01*
X2098214Y-468214D01*
X2069643Y-453929D01*
X2341071Y-439643D02*
X2355357Y-453929D01*
X2341071Y-468214D01*
X2326786Y-453929D01*
X2341071Y-439643D01*
X2341071Y-468214D01*
X2341071Y-282500D02*
X2355357Y-296786D01*
X2341071Y-311072D01*
X2326786Y-296786D01*
X2341071Y-282500D01*
X2341071Y-311072D01*
X-82500Y-922500D02*
X-2500Y-1002500D01*
X-2500Y-922500D02*
X-82500Y-1002500D01*
X341071Y-798214D02*
X369643Y-798214D01*
X398214Y-812500D01*
X412500Y-826786D01*
X426786Y-855357D01*
X441071Y-912500D01*
X441071Y-983929D01*
X426786Y-1041071D01*
X412500Y-1069643D01*
X398214Y-1083929D01*
X369643Y-1098214D01*
X341071Y-1098214D01*
X312500Y-1083929D01*
X298214Y-1069643D01*
X283928Y-1041071D01*
X269643Y-983929D01*
X269643Y-912500D01*
X283928Y-855357D01*
X298214Y-826786D01*
X312500Y-812500D01*
X341071Y-798214D01*
X569643Y-1069643D02*
X583928Y-1083929D01*
X569643Y-1098214D01*
X555357Y-1083929D01*
X569643Y-1069643D01*
X569643Y-1098214D01*
X755357Y-926786D02*
X726786Y-912500D01*
X712500Y-898214D01*
X698214Y-869643D01*
X698214Y-855357D01*
X712500Y-826786D01*
X726786Y-812500D01*
X755357Y-798214D01*
X812500Y-798214D01*
X841071Y-812500D01*
X855357Y-826786D01*
X869643Y-855357D01*
X869643Y-869643D01*
X855357Y-898214D01*
X841071Y-912500D01*
X812500Y-926786D01*
X755357Y-926786D01*
X726786Y-941071D01*
X712500Y-955357D01*
X698214Y-983929D01*
X698214Y-1041071D01*
X712500Y-1069643D01*
X726786Y-1083929D01*
X755357Y-1098214D01*
X812500Y-1098214D01*
X841071Y-1083929D01*
X855357Y-1069643D01*
X869643Y-1041071D01*
X869643Y-983929D01*
X855357Y-955357D01*
X841071Y-941071D01*
X812500Y-926786D01*
X1055357Y-798214D02*
X1083928Y-798214D01*
X1112500Y-812500D01*
X1126786Y-826786D01*
X1141071Y-855357D01*
X1155357Y-912500D01*
X1155357Y-983929D01*
X1141071Y-1041071D01*
X1126786Y-1069643D01*
X1112500Y-1083929D01*
X1083928Y-1098214D01*
X1055357Y-1098214D01*
X1026786Y-1083929D01*
X1012500Y-1069643D01*
X998214Y-1041071D01*
X983928Y-983929D01*
X983928Y-912500D01*
X998214Y-855357D01*
X1012500Y-826786D01*
X1026786Y-812500D01*
X1055357Y-798214D01*
X1283928Y-1098214D02*
X1283928Y-898214D01*
X1283928Y-926786D02*
X1298214Y-912500D01*
X1326786Y-898214D01*
X1369643Y-898214D01*
X1398214Y-912500D01*
X1412500Y-941071D01*
X1412500Y-1098214D01*
X1412500Y-941071D02*
X1426786Y-912500D01*
X1455357Y-898214D01*
X1498214Y-898214D01*
X1526786Y-912500D01*
X1541071Y-941071D01*
X1541071Y-1098214D01*
X1683928Y-1098214D02*
X1683928Y-898214D01*
X1683928Y-926786D02*
X1698214Y-912500D01*
X1726786Y-898214D01*
X1769643Y-898214D01*
X1798214Y-912500D01*
X1812500Y-941071D01*
X1812500Y-1098214D01*
X1812500Y-941071D02*
X1826786Y-912500D01*
X1855357Y-898214D01*
X1898214Y-898214D01*
X1926786Y-912500D01*
X1941071Y-941071D01*
X1941071Y-1098214D01*
X2526786Y-783929D02*
X2269643Y-1169643D01*
X2912500Y-798214D02*
X2941071Y-798214D01*
X2969643Y-812500D01*
X2983928Y-826786D01*
X2998214Y-855357D01*
X3012500Y-912500D01*
X3012500Y-983929D01*
X2998214Y-1041071D01*
X2983928Y-1069643D01*
X2969643Y-1083929D01*
X2941071Y-1098214D01*
X2912500Y-1098214D01*
X2883928Y-1083929D01*
X2869643Y-1069643D01*
X2855357Y-1041071D01*
X2841071Y-983929D01*
X2841071Y-912500D01*
X2855357Y-855357D01*
X2869643Y-826786D01*
X2883928Y-812500D01*
X2912500Y-798214D01*
X3141071Y-1069643D02*
X3155357Y-1083929D01*
X3141071Y-1098214D01*
X3126786Y-1083929D01*
X3141071Y-1069643D01*
X3141071Y-1098214D01*
X3341071Y-798214D02*
X3369643Y-798214D01*
X3398214Y-812500D01*
X3412500Y-826786D01*
X3426786Y-855357D01*
X3441071Y-912500D01*
X3441071Y-983929D01*
X3426786Y-1041071D01*
X3412500Y-1069643D01*
X3398214Y-1083929D01*
X3369643Y-1098214D01*
X3341071Y-1098214D01*
X3312500Y-1083929D01*
X3298214Y-1069643D01*
X3283928Y-1041071D01*
X3269643Y-983929D01*
X3269643Y-912500D01*
X3283928Y-855357D01*
X3298214Y-826786D01*
X3312500Y-812500D01*
X3341071Y-798214D01*
X3541071Y-798214D02*
X3726786Y-798214D01*
X3626786Y-912500D01*
X3669643Y-912500D01*
X3698214Y-926786D01*
X3712500Y-941071D01*
X3726786Y-969643D01*
X3726786Y-1041071D01*
X3712500Y-1069643D01*
X3698214Y-1083929D01*
X3669643Y-1098214D01*
X3583928Y-1098214D01*
X3555357Y-1083929D01*
X3541071Y-1069643D01*
X4012500Y-1098214D02*
X3841071Y-1098214D01*
X3926786Y-1098214D02*
X3926786Y-798214D01*
X3898214Y-841071D01*
X3869643Y-869643D01*
X3841071Y-883929D01*
X4126786Y-798214D02*
X4126786Y-855357D01*
X4241071Y-798214D02*
X4241071Y-855357D01*
X4683928Y-1212500D02*
X4669643Y-1198214D01*
X4641071Y-1155357D01*
X4626786Y-1126786D01*
X4612500Y-1083929D01*
X4598214Y-1012500D01*
X4598214Y-955357D01*
X4612500Y-883929D01*
X4626786Y-841071D01*
X4641071Y-812500D01*
X4669643Y-769643D01*
X4683928Y-755357D01*
X4926786Y-898214D02*
X4926786Y-1098214D01*
X4855357Y-783929D02*
X4783928Y-998214D01*
X4969643Y-998214D01*
X5141071Y-798214D02*
X5169643Y-798214D01*
X5198214Y-812500D01*
X5212500Y-826786D01*
X5226786Y-855357D01*
X5241071Y-912500D01*
X5241071Y-983929D01*
X5226786Y-1041071D01*
X5212500Y-1069643D01*
X5198214Y-1083929D01*
X5169643Y-1098214D01*
X5141071Y-1098214D01*
X5112500Y-1083929D01*
X5098214Y-1069643D01*
X5083928Y-1041071D01*
X5069643Y-983929D01*
X5069643Y-912500D01*
X5083928Y-855357D01*
X5098214Y-826786D01*
X5112500Y-812500D01*
X5141071Y-798214D01*
X5598214Y-1098214D02*
X5598214Y-798214D01*
X5726786Y-1098214D02*
X5726786Y-941071D01*
X5712500Y-912500D01*
X5683928Y-898214D01*
X5641071Y-898214D01*
X5612500Y-912500D01*
X5598214Y-926786D01*
X5912500Y-1098214D02*
X5883928Y-1083929D01*
X5869643Y-1069643D01*
X5855357Y-1041071D01*
X5855357Y-955357D01*
X5869643Y-926786D01*
X5883928Y-912500D01*
X5912500Y-898214D01*
X5955357Y-898214D01*
X5983928Y-912500D01*
X5998214Y-926786D01*
X6012500Y-955357D01*
X6012500Y-1041071D01*
X5998214Y-1069643D01*
X5983928Y-1083929D01*
X5955357Y-1098214D01*
X5912500Y-1098214D01*
X6183928Y-1098214D02*
X6155357Y-1083929D01*
X6141071Y-1055357D01*
X6141071Y-798214D01*
X6412500Y-1083929D02*
X6383928Y-1098214D01*
X6326786Y-1098214D01*
X6298214Y-1083929D01*
X6283928Y-1055357D01*
X6283928Y-941071D01*
X6298214Y-912500D01*
X6326786Y-898214D01*
X6383928Y-898214D01*
X6412500Y-912500D01*
X6426786Y-941071D01*
X6426786Y-969643D01*
X6283928Y-998214D01*
X6541071Y-1083929D02*
X6569643Y-1098214D01*
X6626786Y-1098214D01*
X6655357Y-1083929D01*
X6669643Y-1055357D01*
X6669643Y-1041071D01*
X6655357Y-1012500D01*
X6626786Y-998214D01*
X6583928Y-998214D01*
X6555357Y-983929D01*
X6541071Y-955357D01*
X6541071Y-941071D01*
X6555357Y-912500D01*
X6583928Y-898214D01*
X6626786Y-898214D01*
X6655357Y-912500D01*
X6769643Y-1212500D02*
X6783928Y-1198214D01*
X6812500Y-1155357D01*
X6826786Y-1126786D01*
X6841071Y-1083929D01*
X6855357Y-1012500D01*
X6855357Y-955357D01*
X6841071Y-883929D01*
X6826786Y-841071D01*
X6812500Y-812500D01*
X6783928Y-769643D01*
X6769643Y-755357D01*
X-2500Y-1358500D02*
G75*
G03X-2500Y-1358500I-50000J0D01*
G01*
X441071Y-1494214D02*
X269643Y-1494214D01*
X355357Y-1494214D02*
X355357Y-1194214D01*
X326786Y-1237072D01*
X298214Y-1265643D01*
X269643Y-1279929D01*
X569643Y-1465643D02*
X583928Y-1479929D01*
X569643Y-1494214D01*
X555357Y-1479929D01*
X569643Y-1465643D01*
X569643Y-1494214D01*
X769643Y-1194214D02*
X798214Y-1194214D01*
X826786Y-1208500D01*
X841071Y-1222786D01*
X855357Y-1251357D01*
X869643Y-1308500D01*
X869643Y-1379929D01*
X855357Y-1437071D01*
X841071Y-1465643D01*
X826786Y-1479929D01*
X798214Y-1494214D01*
X769643Y-1494214D01*
X741071Y-1479929D01*
X726786Y-1465643D01*
X712500Y-1437071D01*
X698214Y-1379929D01*
X698214Y-1308500D01*
X712500Y-1251357D01*
X726786Y-1222786D01*
X741071Y-1208500D01*
X769643Y-1194214D01*
X1055357Y-1194214D02*
X1083928Y-1194214D01*
X1112500Y-1208500D01*
X1126786Y-1222786D01*
X1141071Y-1251357D01*
X1155357Y-1308500D01*
X1155357Y-1379929D01*
X1141071Y-1437071D01*
X1126786Y-1465643D01*
X1112500Y-1479929D01*
X1083928Y-1494214D01*
X1055357Y-1494214D01*
X1026786Y-1479929D01*
X1012500Y-1465643D01*
X998214Y-1437071D01*
X983928Y-1379929D01*
X983928Y-1308500D01*
X998214Y-1251357D01*
X1012500Y-1222786D01*
X1026786Y-1208500D01*
X1055357Y-1194214D01*
X1283928Y-1494214D02*
X1283928Y-1294214D01*
X1283928Y-1322786D02*
X1298214Y-1308500D01*
X1326786Y-1294214D01*
X1369643Y-1294214D01*
X1398214Y-1308500D01*
X1412500Y-1337072D01*
X1412500Y-1494214D01*
X1412500Y-1337072D02*
X1426786Y-1308500D01*
X1455357Y-1294214D01*
X1498214Y-1294214D01*
X1526786Y-1308500D01*
X1541071Y-1337072D01*
X1541071Y-1494214D01*
X1683928Y-1494214D02*
X1683928Y-1294214D01*
X1683928Y-1322786D02*
X1698214Y-1308500D01*
X1726786Y-1294214D01*
X1769643Y-1294214D01*
X1798214Y-1308500D01*
X1812500Y-1337072D01*
X1812500Y-1494214D01*
X1812500Y-1337072D02*
X1826786Y-1308500D01*
X1855357Y-1294214D01*
X1898214Y-1294214D01*
X1926786Y-1308500D01*
X1941071Y-1337072D01*
X1941071Y-1494214D01*
X2526786Y-1179929D02*
X2269643Y-1565643D01*
X2912500Y-1194214D02*
X2941071Y-1194214D01*
X2969643Y-1208500D01*
X2983928Y-1222786D01*
X2998214Y-1251357D01*
X3012500Y-1308500D01*
X3012500Y-1379929D01*
X2998214Y-1437071D01*
X2983928Y-1465643D01*
X2969643Y-1479929D01*
X2941071Y-1494214D01*
X2912500Y-1494214D01*
X2883928Y-1479929D01*
X2869643Y-1465643D01*
X2855357Y-1437071D01*
X2841071Y-1379929D01*
X2841071Y-1308500D01*
X2855357Y-1251357D01*
X2869643Y-1222786D01*
X2883928Y-1208500D01*
X2912500Y-1194214D01*
X3141071Y-1465643D02*
X3155357Y-1479929D01*
X3141071Y-1494214D01*
X3126786Y-1479929D01*
X3141071Y-1465643D01*
X3141071Y-1494214D01*
X3341071Y-1194214D02*
X3369643Y-1194214D01*
X3398214Y-1208500D01*
X3412500Y-1222786D01*
X3426786Y-1251357D01*
X3441071Y-1308500D01*
X3441071Y-1379929D01*
X3426786Y-1437071D01*
X3412500Y-1465643D01*
X3398214Y-1479929D01*
X3369643Y-1494214D01*
X3341071Y-1494214D01*
X3312500Y-1479929D01*
X3298214Y-1465643D01*
X3283928Y-1437071D01*
X3269643Y-1379929D01*
X3269643Y-1308500D01*
X3283928Y-1251357D01*
X3298214Y-1222786D01*
X3312500Y-1208500D01*
X3341071Y-1194214D01*
X3541071Y-1194214D02*
X3726786Y-1194214D01*
X3626786Y-1308500D01*
X3669643Y-1308500D01*
X3698214Y-1322786D01*
X3712500Y-1337072D01*
X3726786Y-1365643D01*
X3726786Y-1437071D01*
X3712500Y-1465643D01*
X3698214Y-1479929D01*
X3669643Y-1494214D01*
X3583928Y-1494214D01*
X3555357Y-1479929D01*
X3541071Y-1465643D01*
X3869643Y-1494214D02*
X3926786Y-1494214D01*
X3955357Y-1479929D01*
X3969643Y-1465643D01*
X3998214Y-1422786D01*
X4012500Y-1365643D01*
X4012500Y-1251357D01*
X3998214Y-1222786D01*
X3983928Y-1208500D01*
X3955357Y-1194214D01*
X3898214Y-1194214D01*
X3869643Y-1208500D01*
X3855357Y-1222786D01*
X3841071Y-1251357D01*
X3841071Y-1322786D01*
X3855357Y-1351357D01*
X3869643Y-1365643D01*
X3898214Y-1379929D01*
X3955357Y-1379929D01*
X3983928Y-1365643D01*
X3998214Y-1351357D01*
X4012500Y-1322786D01*
X4126786Y-1194214D02*
X4126786Y-1251357D01*
X4241071Y-1194214D02*
X4241071Y-1251357D01*
X4683928Y-1608500D02*
X4669643Y-1594214D01*
X4641071Y-1551357D01*
X4626786Y-1522786D01*
X4612500Y-1479929D01*
X4598214Y-1408500D01*
X4598214Y-1351357D01*
X4612500Y-1279929D01*
X4626786Y-1237072D01*
X4641071Y-1208500D01*
X4669643Y-1165643D01*
X4683928Y-1151357D01*
X4769643Y-1194214D02*
X4955357Y-1194214D01*
X4855357Y-1308500D01*
X4898214Y-1308500D01*
X4926786Y-1322786D01*
X4941071Y-1337072D01*
X4955357Y-1365643D01*
X4955357Y-1437071D01*
X4941071Y-1465643D01*
X4926786Y-1479929D01*
X4898214Y-1494214D01*
X4812500Y-1494214D01*
X4783928Y-1479929D01*
X4769643Y-1465643D01*
X5055357Y-1194214D02*
X5255357Y-1194214D01*
X5126786Y-1494214D01*
X5598214Y-1494214D02*
X5598214Y-1194214D01*
X5726786Y-1494214D02*
X5726786Y-1337072D01*
X5712500Y-1308500D01*
X5683928Y-1294214D01*
X5641071Y-1294214D01*
X5612500Y-1308500D01*
X5598214Y-1322786D01*
X5912500Y-1494214D02*
X5883928Y-1479929D01*
X5869643Y-1465643D01*
X5855357Y-1437071D01*
X5855357Y-1351357D01*
X5869643Y-1322786D01*
X5883928Y-1308500D01*
X5912500Y-1294214D01*
X5955357Y-1294214D01*
X5983928Y-1308500D01*
X5998214Y-1322786D01*
X6012500Y-1351357D01*
X6012500Y-1437071D01*
X5998214Y-1465643D01*
X5983928Y-1479929D01*
X5955357Y-1494214D01*
X5912500Y-1494214D01*
X6183928Y-1494214D02*
X6155357Y-1479929D01*
X6141071Y-1451357D01*
X6141071Y-1194214D01*
X6412500Y-1479929D02*
X6383928Y-1494214D01*
X6326786Y-1494214D01*
X6298214Y-1479929D01*
X6283928Y-1451357D01*
X6283928Y-1337072D01*
X6298214Y-1308500D01*
X6326786Y-1294214D01*
X6383928Y-1294214D01*
X6412500Y-1308500D01*
X6426786Y-1337072D01*
X6426786Y-1365643D01*
X6283928Y-1394214D01*
X6541071Y-1479929D02*
X6569643Y-1494214D01*
X6626786Y-1494214D01*
X6655357Y-1479929D01*
X6669643Y-1451357D01*
X6669643Y-1437071D01*
X6655357Y-1408500D01*
X6626786Y-1394214D01*
X6583928Y-1394214D01*
X6555357Y-1379929D01*
X6541071Y-1351357D01*
X6541071Y-1337072D01*
X6555357Y-1308500D01*
X6583928Y-1294214D01*
X6626786Y-1294214D01*
X6655357Y-1308500D01*
X6769643Y-1608500D02*
X6783928Y-1594214D01*
X6812500Y-1551357D01*
X6826786Y-1522786D01*
X6841071Y-1479929D01*
X6855357Y-1408500D01*
X6855357Y-1351357D01*
X6841071Y-1279929D01*
X6826786Y-1237072D01*
X6812500Y-1208500D01*
X6783928Y-1165643D01*
X6769643Y-1151357D01*
M02*
