%TF.GenerationSoftware,KiCad,Pcbnew,(5.1.5-0)*%
%TF.CreationDate,2020-04-03T13:37:13+02:00*%
%TF.ProjectId,egc_ads1292,6567635f-6164-4733-9132-39322e6b6963,rev?*%
%TF.SameCoordinates,PX23c3460PY8f0d180*%
%TF.FileFunction,Copper,L2,Bot*%
%TF.FilePolarity,Positive*%
%FSLAX46Y46*%
G04 Gerber Fmt 4.6, Leading zero omitted, Abs format (unit mm)*
G04 Created by KiCad (PCBNEW (5.1.5-0)) date 2020-04-03 13:37:13*
%MOMM*%
%LPD*%
G04 APERTURE LIST*
%ADD10O,1.600000X1.600000*%
%ADD11C,1.600000*%
%ADD12O,1.700000X1.700000*%
%ADD13R,1.700000X1.700000*%
%ADD14C,2.000000*%
%ADD15C,1.000000*%
G04 APERTURE END LIST*
D10*
X47340000Y41250000D03*
D11*
X57500000Y41250000D03*
D10*
X32300000Y31250000D03*
D11*
X45000000Y31250000D03*
D10*
X32300000Y18750000D03*
D11*
X45000000Y18750000D03*
D10*
X32300000Y6250000D03*
D11*
X45000000Y6250000D03*
D10*
X17300000Y43750000D03*
D11*
X30000000Y43750000D03*
X47750000Y22500000D03*
X51250000Y22500000D03*
X47750000Y10000000D03*
X51250000Y10000000D03*
X57500000Y22500000D03*
X57500000Y20000000D03*
D12*
X113290000Y18120000D03*
X110750000Y18120000D03*
X113290000Y20660000D03*
X110750000Y20660000D03*
X113290000Y23200000D03*
D13*
X110750000Y23200000D03*
D14*
X92970000Y38440000D03*
X105630000Y23200000D03*
X105630000Y18120000D03*
X100590000Y20660000D03*
X100590000Y35900000D03*
X100590000Y30820000D03*
X105630000Y33360000D03*
X105630000Y28280000D03*
X105670000Y14500000D03*
X105630000Y38440000D03*
X66500000Y41250000D03*
X66500000Y33750000D03*
X66500000Y26250000D03*
X66500000Y15000000D03*
X66500000Y8750000D03*
D12*
X113290000Y25740000D03*
X110750000Y25740000D03*
X113290000Y28280000D03*
X110750000Y28280000D03*
X113290000Y30820000D03*
X110750000Y30820000D03*
X113290000Y33360000D03*
X110750000Y33360000D03*
X113290000Y35900000D03*
X110750000Y35900000D03*
X113290000Y38440000D03*
D13*
X110750000Y38440000D03*
X13750000Y43750000D03*
X13750000Y31250000D03*
X13750000Y18750000D03*
X13750000Y6250000D03*
D11*
X47500000Y47500000D03*
X51000000Y47500000D03*
X47750000Y35000000D03*
X51250000Y35000000D03*
D10*
X32300000Y43750000D03*
D11*
X45000000Y43750000D03*
D10*
X17300000Y31250000D03*
D11*
X30000000Y31250000D03*
D10*
X17300000Y18750000D03*
D11*
X30000000Y18750000D03*
D10*
X17300000Y6250000D03*
D11*
X30000000Y6250000D03*
X57660000Y3750000D03*
D10*
X47500000Y3750000D03*
D11*
X57500000Y16250000D03*
D10*
X47340000Y16250000D03*
X47340000Y28750000D03*
D11*
X57500000Y28750000D03*
X57500000Y7500000D03*
X57500000Y10000000D03*
X57500000Y32500000D03*
X57500000Y35000000D03*
X57500000Y47500000D03*
X57500000Y45000000D03*
D15*
X108990000Y25740000D02*
X110750000Y25740000D01*
X107750000Y24500000D02*
X108990000Y25740000D01*
X107750000Y16500000D02*
X107750000Y24500000D01*
X106250000Y15000000D02*
X107750000Y16500000D01*
X105670000Y15000000D02*
X106250000Y15000000D01*
M02*
