%TF.GenerationSoftware,KiCad,Pcbnew,(5.1.5-0)*%
%TF.CreationDate,2020-04-03T13:37:13+02:00*%
%TF.ProjectId,egc_ads1292,6567635f-6164-4733-9132-39322e6b6963,rev?*%
%TF.SameCoordinates,PX23c3460PY8f0d180*%
%TF.FileFunction,Soldermask,Top*%
%TF.FilePolarity,Negative*%
%FSLAX46Y46*%
G04 Gerber Fmt 4.6, Leading zero omitted, Abs format (unit mm)*
G04 Created by KiCad (PCBNEW (5.1.5-0)) date 2020-04-03 13:37:13*
%MOMM*%
%LPD*%
G04 APERTURE LIST*
%ADD10C,0.100000*%
G04 APERTURE END LIST*
D10*
G36*
X5375256Y2108702D02*
G01*
X5481579Y2087553D01*
X5782042Y1963097D01*
X6052451Y1782415D01*
X6282415Y1552451D01*
X6463097Y1282042D01*
X6587553Y981579D01*
X6651000Y662609D01*
X6651000Y337391D01*
X6587553Y18421D01*
X6463097Y-282042D01*
X6282415Y-552451D01*
X6052451Y-782415D01*
X5782042Y-963097D01*
X5481579Y-1087553D01*
X5375256Y-1108702D01*
X5162611Y-1151000D01*
X4837389Y-1151000D01*
X4624744Y-1108702D01*
X4518421Y-1087553D01*
X4217958Y-963097D01*
X3947549Y-782415D01*
X3717585Y-552451D01*
X3536903Y-282042D01*
X3412447Y18421D01*
X3349000Y337391D01*
X3349000Y662609D01*
X3412447Y981579D01*
X3536903Y1282042D01*
X3717585Y1552451D01*
X3947549Y1782415D01*
X4217958Y1963097D01*
X4518421Y2087553D01*
X4624744Y2108702D01*
X4837389Y2151000D01*
X5162611Y2151000D01*
X5375256Y2108702D01*
G37*
G36*
X115125256Y4108702D02*
G01*
X115231579Y4087553D01*
X115532042Y3963097D01*
X115802451Y3782415D01*
X116032415Y3552451D01*
X116066278Y3501771D01*
X116213098Y3282040D01*
X116249550Y3194037D01*
X116337553Y2981579D01*
X116401000Y2662609D01*
X116401000Y2337391D01*
X116337553Y2018421D01*
X116213097Y1717958D01*
X116032415Y1447549D01*
X115802451Y1217585D01*
X115532042Y1036903D01*
X115231579Y912447D01*
X115125256Y891298D01*
X114912611Y849000D01*
X114587389Y849000D01*
X114374744Y891298D01*
X114268421Y912447D01*
X113967958Y1036903D01*
X113697549Y1217585D01*
X113467585Y1447549D01*
X113286903Y1717958D01*
X113162447Y2018421D01*
X113099000Y2337391D01*
X113099000Y2662609D01*
X113162447Y2981579D01*
X113250450Y3194037D01*
X113286902Y3282040D01*
X113433722Y3501771D01*
X113467585Y3552451D01*
X113697549Y3782415D01*
X113967958Y3963097D01*
X114268421Y4087553D01*
X114374744Y4108702D01*
X114587389Y4151000D01*
X114912611Y4151000D01*
X115125256Y4108702D01*
G37*
G36*
X62451000Y1749000D02*
G01*
X60049000Y1749000D01*
X60049000Y5351000D01*
X62451000Y5351000D01*
X62451000Y1749000D01*
G37*
G36*
X57908228Y4568297D02*
G01*
X58063100Y4504147D01*
X58202481Y4411015D01*
X58321015Y4292481D01*
X58414147Y4153100D01*
X58478297Y3998228D01*
X58511000Y3833816D01*
X58511000Y3666184D01*
X58478297Y3501772D01*
X58414147Y3346900D01*
X58321015Y3207519D01*
X58202481Y3088985D01*
X58063100Y2995853D01*
X57908228Y2931703D01*
X57743816Y2899000D01*
X57576184Y2899000D01*
X57411772Y2931703D01*
X57256900Y2995853D01*
X57117519Y3088985D01*
X56998985Y3207519D01*
X56905853Y3346900D01*
X56841703Y3501772D01*
X56809000Y3666184D01*
X56809000Y3833816D01*
X56841703Y3998228D01*
X56905853Y4153100D01*
X56998985Y4292481D01*
X57117519Y4411015D01*
X57256900Y4504147D01*
X57411772Y4568297D01*
X57576184Y4601000D01*
X57743816Y4601000D01*
X57908228Y4568297D01*
G37*
G36*
X47748228Y4568297D02*
G01*
X47903100Y4504147D01*
X48042481Y4411015D01*
X48161015Y4292481D01*
X48254147Y4153100D01*
X48318297Y3998228D01*
X48351000Y3833816D01*
X48351000Y3666184D01*
X48318297Y3501772D01*
X48254147Y3346900D01*
X48161015Y3207519D01*
X48042481Y3088985D01*
X47903100Y2995853D01*
X47748228Y2931703D01*
X47583816Y2899000D01*
X47416184Y2899000D01*
X47251772Y2931703D01*
X47096900Y2995853D01*
X46957519Y3088985D01*
X46838985Y3207519D01*
X46745853Y3346900D01*
X46681703Y3501772D01*
X46649000Y3666184D01*
X46649000Y3833816D01*
X46681703Y3998228D01*
X46745853Y4153100D01*
X46838985Y4292481D01*
X46957519Y4411015D01*
X47096900Y4504147D01*
X47251772Y4568297D01*
X47416184Y4601000D01*
X47583816Y4601000D01*
X47748228Y4568297D01*
G37*
G36*
X14651000Y5349000D02*
G01*
X12849000Y5349000D01*
X12849000Y7151000D01*
X14651000Y7151000D01*
X14651000Y5349000D01*
G37*
G36*
X45248228Y7068297D02*
G01*
X45403100Y7004147D01*
X45542481Y6911015D01*
X45661015Y6792481D01*
X45754147Y6653100D01*
X45818297Y6498228D01*
X45851000Y6333816D01*
X45851000Y6166184D01*
X45818297Y6001772D01*
X45754147Y5846900D01*
X45661015Y5707519D01*
X45542481Y5588985D01*
X45403100Y5495853D01*
X45248228Y5431703D01*
X45083816Y5399000D01*
X44916184Y5399000D01*
X44751772Y5431703D01*
X44596900Y5495853D01*
X44457519Y5588985D01*
X44338985Y5707519D01*
X44245853Y5846900D01*
X44181703Y6001772D01*
X44149000Y6166184D01*
X44149000Y6333816D01*
X44181703Y6498228D01*
X44245853Y6653100D01*
X44338985Y6792481D01*
X44457519Y6911015D01*
X44596900Y7004147D01*
X44751772Y7068297D01*
X44916184Y7101000D01*
X45083816Y7101000D01*
X45248228Y7068297D01*
G37*
G36*
X32548228Y7068297D02*
G01*
X32703100Y7004147D01*
X32842481Y6911015D01*
X32961015Y6792481D01*
X33054147Y6653100D01*
X33118297Y6498228D01*
X33151000Y6333816D01*
X33151000Y6166184D01*
X33118297Y6001772D01*
X33054147Y5846900D01*
X32961015Y5707519D01*
X32842481Y5588985D01*
X32703100Y5495853D01*
X32548228Y5431703D01*
X32383816Y5399000D01*
X32216184Y5399000D01*
X32051772Y5431703D01*
X31896900Y5495853D01*
X31757519Y5588985D01*
X31638985Y5707519D01*
X31545853Y5846900D01*
X31481703Y6001772D01*
X31449000Y6166184D01*
X31449000Y6333816D01*
X31481703Y6498228D01*
X31545853Y6653100D01*
X31638985Y6792481D01*
X31757519Y6911015D01*
X31896900Y7004147D01*
X32051772Y7068297D01*
X32216184Y7101000D01*
X32383816Y7101000D01*
X32548228Y7068297D01*
G37*
G36*
X30248228Y7068297D02*
G01*
X30403100Y7004147D01*
X30542481Y6911015D01*
X30661015Y6792481D01*
X30754147Y6653100D01*
X30818297Y6498228D01*
X30851000Y6333816D01*
X30851000Y6166184D01*
X30818297Y6001772D01*
X30754147Y5846900D01*
X30661015Y5707519D01*
X30542481Y5588985D01*
X30403100Y5495853D01*
X30248228Y5431703D01*
X30083816Y5399000D01*
X29916184Y5399000D01*
X29751772Y5431703D01*
X29596900Y5495853D01*
X29457519Y5588985D01*
X29338985Y5707519D01*
X29245853Y5846900D01*
X29181703Y6001772D01*
X29149000Y6166184D01*
X29149000Y6333816D01*
X29181703Y6498228D01*
X29245853Y6653100D01*
X29338985Y6792481D01*
X29457519Y6911015D01*
X29596900Y7004147D01*
X29751772Y7068297D01*
X29916184Y7101000D01*
X30083816Y7101000D01*
X30248228Y7068297D01*
G37*
G36*
X17548228Y7068297D02*
G01*
X17703100Y7004147D01*
X17842481Y6911015D01*
X17961015Y6792481D01*
X18054147Y6653100D01*
X18118297Y6498228D01*
X18151000Y6333816D01*
X18151000Y6166184D01*
X18118297Y6001772D01*
X18054147Y5846900D01*
X17961015Y5707519D01*
X17842481Y5588985D01*
X17703100Y5495853D01*
X17548228Y5431703D01*
X17383816Y5399000D01*
X17216184Y5399000D01*
X17051772Y5431703D01*
X16896900Y5495853D01*
X16757519Y5588985D01*
X16638985Y5707519D01*
X16545853Y5846900D01*
X16481703Y6001772D01*
X16449000Y6166184D01*
X16449000Y6333816D01*
X16481703Y6498228D01*
X16545853Y6653100D01*
X16638985Y6792481D01*
X16757519Y6911015D01*
X16896900Y7004147D01*
X17051772Y7068297D01*
X17216184Y7101000D01*
X17383816Y7101000D01*
X17548228Y7068297D01*
G37*
G36*
X57748228Y8318297D02*
G01*
X57903100Y8254147D01*
X58042481Y8161015D01*
X58161015Y8042481D01*
X58254147Y7903100D01*
X58318297Y7748228D01*
X58351000Y7583816D01*
X58351000Y7416184D01*
X58318297Y7251772D01*
X58254147Y7096900D01*
X58161015Y6957519D01*
X58042481Y6838985D01*
X57903100Y6745853D01*
X57748228Y6681703D01*
X57583816Y6649000D01*
X57416184Y6649000D01*
X57251772Y6681703D01*
X57096900Y6745853D01*
X56957519Y6838985D01*
X56838985Y6957519D01*
X56745853Y7096900D01*
X56681703Y7251772D01*
X56649000Y7416184D01*
X56649000Y7583816D01*
X56681703Y7748228D01*
X56745853Y7903100D01*
X56838985Y8042481D01*
X56957519Y8161015D01*
X57096900Y8254147D01*
X57251772Y8318297D01*
X57416184Y8351000D01*
X57583816Y8351000D01*
X57748228Y8318297D01*
G37*
G36*
X62451000Y7149000D02*
G01*
X60049000Y7149000D01*
X60049000Y10751000D01*
X62451000Y10751000D01*
X62451000Y7149000D01*
G37*
G36*
X66806564Y9760611D02*
G01*
X66997833Y9681385D01*
X66997835Y9681384D01*
X67169973Y9566365D01*
X67316365Y9419973D01*
X67425942Y9255980D01*
X67431385Y9247833D01*
X67510611Y9056564D01*
X67551000Y8853516D01*
X67551000Y8646484D01*
X67510611Y8443436D01*
X67432205Y8254147D01*
X67431384Y8252165D01*
X67316365Y8080027D01*
X67169973Y7933635D01*
X66997835Y7818616D01*
X66997834Y7818615D01*
X66997833Y7818615D01*
X66806564Y7739389D01*
X66603516Y7699000D01*
X66396484Y7699000D01*
X66193436Y7739389D01*
X66002167Y7818615D01*
X66002166Y7818615D01*
X66002165Y7818616D01*
X65830027Y7933635D01*
X65683635Y8080027D01*
X65568616Y8252165D01*
X65567795Y8254147D01*
X65489389Y8443436D01*
X65449000Y8646484D01*
X65449000Y8853516D01*
X65489389Y9056564D01*
X65568615Y9247833D01*
X65574059Y9255980D01*
X65683635Y9419973D01*
X65830027Y9566365D01*
X66002165Y9681384D01*
X66002167Y9681385D01*
X66193436Y9760611D01*
X66396484Y9801000D01*
X66603516Y9801000D01*
X66806564Y9760611D01*
G37*
G36*
X71914499Y9271555D02*
G01*
X71951995Y9260180D01*
X71986554Y9241708D01*
X72016847Y9216847D01*
X72041708Y9186554D01*
X72060180Y9151995D01*
X72071555Y9114499D01*
X72076000Y9069362D01*
X72076000Y8430638D01*
X72071555Y8385501D01*
X72060180Y8348005D01*
X72041708Y8313446D01*
X72016847Y8283153D01*
X71986554Y8258292D01*
X71951995Y8239820D01*
X71914499Y8228445D01*
X71869362Y8224000D01*
X71130638Y8224000D01*
X71085501Y8228445D01*
X71048005Y8239820D01*
X71013446Y8258292D01*
X70983153Y8283153D01*
X70958292Y8313446D01*
X70939820Y8348005D01*
X70928445Y8385501D01*
X70924000Y8430638D01*
X70924000Y9069362D01*
X70928445Y9114499D01*
X70939820Y9151995D01*
X70958292Y9186554D01*
X70983153Y9216847D01*
X71013446Y9241708D01*
X71048005Y9260180D01*
X71085501Y9271555D01*
X71130638Y9276000D01*
X71869362Y9276000D01*
X71914499Y9271555D01*
G37*
G36*
X70164499Y9271555D02*
G01*
X70201995Y9260180D01*
X70236554Y9241708D01*
X70266847Y9216847D01*
X70291708Y9186554D01*
X70310180Y9151995D01*
X70321555Y9114499D01*
X70326000Y9069362D01*
X70326000Y8430638D01*
X70321555Y8385501D01*
X70310180Y8348005D01*
X70291708Y8313446D01*
X70266847Y8283153D01*
X70236554Y8258292D01*
X70201995Y8239820D01*
X70164499Y8228445D01*
X70119362Y8224000D01*
X69380638Y8224000D01*
X69335501Y8228445D01*
X69298005Y8239820D01*
X69263446Y8258292D01*
X69233153Y8283153D01*
X69208292Y8313446D01*
X69189820Y8348005D01*
X69178445Y8385501D01*
X69174000Y8430638D01*
X69174000Y9069362D01*
X69178445Y9114499D01*
X69189820Y9151995D01*
X69208292Y9186554D01*
X69233153Y9216847D01*
X69263446Y9241708D01*
X69298005Y9260180D01*
X69335501Y9271555D01*
X69380638Y9276000D01*
X70119362Y9276000D01*
X70164499Y9271555D01*
G37*
G36*
X57748228Y10818297D02*
G01*
X57903100Y10754147D01*
X58042481Y10661015D01*
X58161015Y10542481D01*
X58254147Y10403100D01*
X58318297Y10248228D01*
X58351000Y10083816D01*
X58351000Y9916184D01*
X58318297Y9751772D01*
X58254147Y9596900D01*
X58161015Y9457519D01*
X58042481Y9338985D01*
X57903100Y9245853D01*
X57748228Y9181703D01*
X57583816Y9149000D01*
X57416184Y9149000D01*
X57251772Y9181703D01*
X57096900Y9245853D01*
X56957519Y9338985D01*
X56838985Y9457519D01*
X56745853Y9596900D01*
X56681703Y9751772D01*
X56649000Y9916184D01*
X56649000Y10083816D01*
X56681703Y10248228D01*
X56745853Y10403100D01*
X56838985Y10542481D01*
X56957519Y10661015D01*
X57096900Y10754147D01*
X57251772Y10818297D01*
X57416184Y10851000D01*
X57583816Y10851000D01*
X57748228Y10818297D01*
G37*
G36*
X51498228Y10818297D02*
G01*
X51653100Y10754147D01*
X51792481Y10661015D01*
X51911015Y10542481D01*
X52004147Y10403100D01*
X52068297Y10248228D01*
X52101000Y10083816D01*
X52101000Y9916184D01*
X52068297Y9751772D01*
X52004147Y9596900D01*
X51911015Y9457519D01*
X51792481Y9338985D01*
X51653100Y9245853D01*
X51498228Y9181703D01*
X51333816Y9149000D01*
X51166184Y9149000D01*
X51001772Y9181703D01*
X50846900Y9245853D01*
X50707519Y9338985D01*
X50588985Y9457519D01*
X50495853Y9596900D01*
X50431703Y9751772D01*
X50399000Y9916184D01*
X50399000Y10083816D01*
X50431703Y10248228D01*
X50495853Y10403100D01*
X50588985Y10542481D01*
X50707519Y10661015D01*
X50846900Y10754147D01*
X51001772Y10818297D01*
X51166184Y10851000D01*
X51333816Y10851000D01*
X51498228Y10818297D01*
G37*
G36*
X47998228Y10818297D02*
G01*
X48153100Y10754147D01*
X48292481Y10661015D01*
X48411015Y10542481D01*
X48504147Y10403100D01*
X48568297Y10248228D01*
X48601000Y10083816D01*
X48601000Y9916184D01*
X48568297Y9751772D01*
X48504147Y9596900D01*
X48411015Y9457519D01*
X48292481Y9338985D01*
X48153100Y9245853D01*
X47998228Y9181703D01*
X47833816Y9149000D01*
X47666184Y9149000D01*
X47501772Y9181703D01*
X47346900Y9245853D01*
X47207519Y9338985D01*
X47088985Y9457519D01*
X46995853Y9596900D01*
X46931703Y9751772D01*
X46899000Y9916184D01*
X46899000Y10083816D01*
X46931703Y10248228D01*
X46995853Y10403100D01*
X47088985Y10542481D01*
X47207519Y10661015D01*
X47346900Y10754147D01*
X47501772Y10818297D01*
X47666184Y10851000D01*
X47833816Y10851000D01*
X47998228Y10818297D01*
G37*
G36*
X71864499Y10946555D02*
G01*
X71901995Y10935180D01*
X71936554Y10916708D01*
X71966847Y10891847D01*
X71991708Y10861554D01*
X72010180Y10826995D01*
X72021555Y10789499D01*
X72026000Y10744362D01*
X72026000Y10005638D01*
X72021555Y9960501D01*
X72010180Y9923005D01*
X71991708Y9888446D01*
X71966847Y9858153D01*
X71936554Y9833292D01*
X71901995Y9814820D01*
X71864499Y9803445D01*
X71819362Y9799000D01*
X71180638Y9799000D01*
X71135501Y9803445D01*
X71098005Y9814820D01*
X71063446Y9833292D01*
X71033153Y9858153D01*
X71008292Y9888446D01*
X70989820Y9923005D01*
X70978445Y9960501D01*
X70974000Y10005638D01*
X70974000Y10744362D01*
X70978445Y10789499D01*
X70989820Y10826995D01*
X71008292Y10861554D01*
X71033153Y10891847D01*
X71063446Y10916708D01*
X71098005Y10935180D01*
X71135501Y10946555D01*
X71180638Y10951000D01*
X71819362Y10951000D01*
X71864499Y10946555D01*
G37*
G36*
X71864499Y12696555D02*
G01*
X71901995Y12685180D01*
X71936554Y12666708D01*
X71966847Y12641847D01*
X71991708Y12611554D01*
X72010180Y12576995D01*
X72021555Y12539499D01*
X72026000Y12494362D01*
X72026000Y11755638D01*
X72021555Y11710501D01*
X72010180Y11673005D01*
X71991708Y11638446D01*
X71966847Y11608153D01*
X71936554Y11583292D01*
X71901995Y11564820D01*
X71864499Y11553445D01*
X71819362Y11549000D01*
X71180638Y11549000D01*
X71135501Y11553445D01*
X71098005Y11564820D01*
X71063446Y11583292D01*
X71033153Y11608153D01*
X71008292Y11638446D01*
X70989820Y11673005D01*
X70978445Y11710501D01*
X70974000Y11755638D01*
X70974000Y12494362D01*
X70978445Y12539499D01*
X70989820Y12576995D01*
X71008292Y12611554D01*
X71033153Y12641847D01*
X71063446Y12666708D01*
X71098005Y12685180D01*
X71135501Y12696555D01*
X71180638Y12701000D01*
X71819362Y12701000D01*
X71864499Y12696555D01*
G37*
G36*
X105976564Y15510611D02*
G01*
X106167060Y15431705D01*
X106167835Y15431384D01*
X106339973Y15316365D01*
X106486365Y15169973D01*
X106530772Y15103514D01*
X106601385Y14997833D01*
X106680611Y14806564D01*
X106721000Y14603516D01*
X106721000Y14396484D01*
X106680611Y14193436D01*
X106601385Y14002167D01*
X106601384Y14002165D01*
X106486365Y13830027D01*
X106339973Y13683635D01*
X106167835Y13568616D01*
X106167834Y13568615D01*
X106167833Y13568615D01*
X105976564Y13489389D01*
X105773516Y13449000D01*
X105566484Y13449000D01*
X105363436Y13489389D01*
X105172167Y13568615D01*
X105172166Y13568615D01*
X105172165Y13568616D01*
X105000027Y13683635D01*
X104853635Y13830027D01*
X104738616Y14002165D01*
X104738615Y14002167D01*
X104659389Y14193436D01*
X104619000Y14396484D01*
X104619000Y14603516D01*
X104659389Y14806564D01*
X104738615Y14997833D01*
X104809229Y15103514D01*
X104853635Y15169973D01*
X105000027Y15316365D01*
X105172165Y15431384D01*
X105172940Y15431705D01*
X105363436Y15510611D01*
X105566484Y15551000D01*
X105773516Y15551000D01*
X105976564Y15510611D01*
G37*
G36*
X66806564Y16010611D02*
G01*
X66961209Y15946555D01*
X66997835Y15931384D01*
X67169973Y15816365D01*
X67316365Y15669973D01*
X67418681Y15516847D01*
X67431385Y15497833D01*
X67510611Y15306564D01*
X67551000Y15103516D01*
X67551000Y14896484D01*
X67510611Y14693436D01*
X67436057Y14513446D01*
X67431384Y14502165D01*
X67316365Y14330027D01*
X67169973Y14183635D01*
X66997835Y14068616D01*
X66997834Y14068615D01*
X66997833Y14068615D01*
X66806564Y13989389D01*
X66603516Y13949000D01*
X66396484Y13949000D01*
X66193436Y13989389D01*
X66002167Y14068615D01*
X66002166Y14068615D01*
X66002165Y14068616D01*
X65830027Y14183635D01*
X65683635Y14330027D01*
X65568616Y14502165D01*
X65563943Y14513446D01*
X65489389Y14693436D01*
X65449000Y14896484D01*
X65449000Y15103516D01*
X65489389Y15306564D01*
X65568615Y15497833D01*
X65581320Y15516847D01*
X65683635Y15669973D01*
X65830027Y15816365D01*
X66002165Y15931384D01*
X66038791Y15946555D01*
X66193436Y16010611D01*
X66396484Y16051000D01*
X66603516Y16051000D01*
X66806564Y16010611D01*
G37*
G36*
X102238674Y15746535D02*
G01*
X102276367Y15735101D01*
X102311103Y15716534D01*
X102341548Y15691548D01*
X102366534Y15661103D01*
X102385101Y15626367D01*
X102396535Y15588674D01*
X102401000Y15543339D01*
X102401000Y14456661D01*
X102396535Y14411326D01*
X102385101Y14373633D01*
X102366534Y14338897D01*
X102341548Y14308452D01*
X102311103Y14283466D01*
X102276367Y14264899D01*
X102238674Y14253465D01*
X102193339Y14249000D01*
X101356661Y14249000D01*
X101311326Y14253465D01*
X101273633Y14264899D01*
X101238897Y14283466D01*
X101208452Y14308452D01*
X101183466Y14338897D01*
X101164899Y14373633D01*
X101153465Y14411326D01*
X101149000Y14456661D01*
X101149000Y15543339D01*
X101153465Y15588674D01*
X101164899Y15626367D01*
X101183466Y15661103D01*
X101208452Y15691548D01*
X101238897Y15716534D01*
X101273633Y15735101D01*
X101311326Y15746535D01*
X101356661Y15751000D01*
X102193339Y15751000D01*
X102238674Y15746535D01*
G37*
G36*
X100188674Y15746535D02*
G01*
X100226367Y15735101D01*
X100261103Y15716534D01*
X100291548Y15691548D01*
X100316534Y15661103D01*
X100335101Y15626367D01*
X100346535Y15588674D01*
X100351000Y15543339D01*
X100351000Y14456661D01*
X100346535Y14411326D01*
X100335101Y14373633D01*
X100316534Y14338897D01*
X100291548Y14308452D01*
X100261103Y14283466D01*
X100226367Y14264899D01*
X100188674Y14253465D01*
X100143339Y14249000D01*
X99306661Y14249000D01*
X99261326Y14253465D01*
X99223633Y14264899D01*
X99188897Y14283466D01*
X99158452Y14308452D01*
X99133466Y14338897D01*
X99114899Y14373633D01*
X99103465Y14411326D01*
X99099000Y14456661D01*
X99099000Y15543339D01*
X99103465Y15588674D01*
X99114899Y15626367D01*
X99133466Y15661103D01*
X99158452Y15691548D01*
X99188897Y15716534D01*
X99223633Y15735101D01*
X99261326Y15746535D01*
X99306661Y15751000D01*
X100143339Y15751000D01*
X100188674Y15746535D01*
G37*
G36*
X62451000Y14249000D02*
G01*
X60049000Y14249000D01*
X60049000Y17851000D01*
X62451000Y17851000D01*
X62451000Y14249000D01*
G37*
G36*
X85838674Y15621535D02*
G01*
X85876367Y15610101D01*
X85911103Y15591534D01*
X85941548Y15566548D01*
X85966534Y15536103D01*
X85985101Y15501367D01*
X85996535Y15463674D01*
X86001000Y15418339D01*
X86001000Y14581661D01*
X85996535Y14536326D01*
X85985101Y14498633D01*
X85966534Y14463897D01*
X85941548Y14433452D01*
X85911103Y14408466D01*
X85876367Y14389899D01*
X85838674Y14378465D01*
X85793339Y14374000D01*
X84706661Y14374000D01*
X84661326Y14378465D01*
X84623633Y14389899D01*
X84588897Y14408466D01*
X84558452Y14433452D01*
X84533466Y14463897D01*
X84514899Y14498633D01*
X84503465Y14536326D01*
X84499000Y14581661D01*
X84499000Y15418339D01*
X84503465Y15463674D01*
X84514899Y15501367D01*
X84533466Y15536103D01*
X84558452Y15566548D01*
X84588897Y15591534D01*
X84623633Y15610101D01*
X84661326Y15621535D01*
X84706661Y15626000D01*
X85793339Y15626000D01*
X85838674Y15621535D01*
G37*
G36*
X97614499Y15571555D02*
G01*
X97651995Y15560180D01*
X97686554Y15541708D01*
X97716847Y15516847D01*
X97741708Y15486554D01*
X97760180Y15451995D01*
X97771555Y15414499D01*
X97776000Y15369362D01*
X97776000Y14630638D01*
X97771555Y14585501D01*
X97760180Y14548005D01*
X97741708Y14513446D01*
X97716847Y14483153D01*
X97686554Y14458292D01*
X97651995Y14439820D01*
X97614499Y14428445D01*
X97569362Y14424000D01*
X96930638Y14424000D01*
X96885501Y14428445D01*
X96848005Y14439820D01*
X96813446Y14458292D01*
X96783153Y14483153D01*
X96758292Y14513446D01*
X96739820Y14548005D01*
X96728445Y14585501D01*
X96724000Y14630638D01*
X96724000Y15369362D01*
X96728445Y15414499D01*
X96739820Y15451995D01*
X96758292Y15486554D01*
X96783153Y15516847D01*
X96813446Y15541708D01*
X96848005Y15560180D01*
X96885501Y15571555D01*
X96930638Y15576000D01*
X97569362Y15576000D01*
X97614499Y15571555D01*
G37*
G36*
X96114499Y15571555D02*
G01*
X96151995Y15560180D01*
X96186554Y15541708D01*
X96216847Y15516847D01*
X96241708Y15486554D01*
X96260180Y15451995D01*
X96271555Y15414499D01*
X96276000Y15369362D01*
X96276000Y14630638D01*
X96271555Y14585501D01*
X96260180Y14548005D01*
X96241708Y14513446D01*
X96216847Y14483153D01*
X96186554Y14458292D01*
X96151995Y14439820D01*
X96114499Y14428445D01*
X96069362Y14424000D01*
X95430638Y14424000D01*
X95385501Y14428445D01*
X95348005Y14439820D01*
X95313446Y14458292D01*
X95283153Y14483153D01*
X95258292Y14513446D01*
X95239820Y14548005D01*
X95228445Y14585501D01*
X95224000Y14630638D01*
X95224000Y15369362D01*
X95228445Y15414499D01*
X95239820Y15451995D01*
X95258292Y15486554D01*
X95283153Y15516847D01*
X95313446Y15541708D01*
X95348005Y15560180D01*
X95385501Y15571555D01*
X95430638Y15576000D01*
X96069362Y15576000D01*
X96114499Y15571555D01*
G37*
G36*
X89114499Y15571555D02*
G01*
X89151995Y15560180D01*
X89186554Y15541708D01*
X89216847Y15516847D01*
X89241708Y15486554D01*
X89260180Y15451995D01*
X89271555Y15414499D01*
X89276000Y15369362D01*
X89276000Y14630638D01*
X89271555Y14585501D01*
X89260180Y14548005D01*
X89241708Y14513446D01*
X89216847Y14483153D01*
X89186554Y14458292D01*
X89151995Y14439820D01*
X89114499Y14428445D01*
X89069362Y14424000D01*
X88430638Y14424000D01*
X88385501Y14428445D01*
X88348005Y14439820D01*
X88313446Y14458292D01*
X88283153Y14483153D01*
X88258292Y14513446D01*
X88239820Y14548005D01*
X88228445Y14585501D01*
X88224000Y14630638D01*
X88224000Y15369362D01*
X88228445Y15414499D01*
X88239820Y15451995D01*
X88258292Y15486554D01*
X88283153Y15516847D01*
X88313446Y15541708D01*
X88348005Y15560180D01*
X88385501Y15571555D01*
X88430638Y15576000D01*
X89069362Y15576000D01*
X89114499Y15571555D01*
G37*
G36*
X87614499Y15571555D02*
G01*
X87651995Y15560180D01*
X87686554Y15541708D01*
X87716847Y15516847D01*
X87741708Y15486554D01*
X87760180Y15451995D01*
X87771555Y15414499D01*
X87776000Y15369362D01*
X87776000Y14630638D01*
X87771555Y14585501D01*
X87760180Y14548005D01*
X87741708Y14513446D01*
X87716847Y14483153D01*
X87686554Y14458292D01*
X87651995Y14439820D01*
X87614499Y14428445D01*
X87569362Y14424000D01*
X86930638Y14424000D01*
X86885501Y14428445D01*
X86848005Y14439820D01*
X86813446Y14458292D01*
X86783153Y14483153D01*
X86758292Y14513446D01*
X86739820Y14548005D01*
X86728445Y14585501D01*
X86724000Y14630638D01*
X86724000Y15369362D01*
X86728445Y15414499D01*
X86739820Y15451995D01*
X86758292Y15486554D01*
X86783153Y15516847D01*
X86813446Y15541708D01*
X86848005Y15560180D01*
X86885501Y15571555D01*
X86930638Y15576000D01*
X87569362Y15576000D01*
X87614499Y15571555D01*
G37*
G36*
X91731000Y14624000D02*
G01*
X90069000Y14624000D01*
X90069000Y15376000D01*
X91731000Y15376000D01*
X91731000Y14624000D01*
G37*
G36*
X94431000Y14624000D02*
G01*
X92769000Y14624000D01*
X92769000Y17276000D01*
X94431000Y17276000D01*
X94431000Y14624000D01*
G37*
G36*
X74114499Y15946555D02*
G01*
X74151995Y15935180D01*
X74186554Y15916708D01*
X74216847Y15891847D01*
X74241708Y15861554D01*
X74260180Y15826995D01*
X74271555Y15789499D01*
X74276000Y15744362D01*
X74276000Y15005638D01*
X74271555Y14960501D01*
X74260180Y14923005D01*
X74241708Y14888446D01*
X74216847Y14858153D01*
X74186554Y14833292D01*
X74151995Y14814820D01*
X74114499Y14803445D01*
X74069362Y14799000D01*
X73430638Y14799000D01*
X73385501Y14803445D01*
X73348005Y14814820D01*
X73313446Y14833292D01*
X73283153Y14858153D01*
X73258292Y14888446D01*
X73239820Y14923005D01*
X73228445Y14960501D01*
X73224000Y15005638D01*
X73224000Y15744362D01*
X73228445Y15789499D01*
X73239820Y15826995D01*
X73258292Y15861554D01*
X73283153Y15891847D01*
X73313446Y15916708D01*
X73348005Y15935180D01*
X73385501Y15946555D01*
X73430638Y15951000D01*
X74069362Y15951000D01*
X74114499Y15946555D01*
G37*
G36*
X47588228Y17068297D02*
G01*
X47743100Y17004147D01*
X47882481Y16911015D01*
X48001015Y16792481D01*
X48094147Y16653100D01*
X48158297Y16498228D01*
X48191000Y16333816D01*
X48191000Y16166184D01*
X48158297Y16001772D01*
X48094147Y15846900D01*
X48001015Y15707519D01*
X47882481Y15588985D01*
X47743100Y15495853D01*
X47588228Y15431703D01*
X47423816Y15399000D01*
X47256184Y15399000D01*
X47091772Y15431703D01*
X46936900Y15495853D01*
X46797519Y15588985D01*
X46678985Y15707519D01*
X46585853Y15846900D01*
X46521703Y16001772D01*
X46489000Y16166184D01*
X46489000Y16333816D01*
X46521703Y16498228D01*
X46585853Y16653100D01*
X46678985Y16792481D01*
X46797519Y16911015D01*
X46936900Y17004147D01*
X47091772Y17068297D01*
X47256184Y17101000D01*
X47423816Y17101000D01*
X47588228Y17068297D01*
G37*
G36*
X57748228Y17068297D02*
G01*
X57903100Y17004147D01*
X58042481Y16911015D01*
X58161015Y16792481D01*
X58254147Y16653100D01*
X58318297Y16498228D01*
X58351000Y16333816D01*
X58351000Y16166184D01*
X58318297Y16001772D01*
X58254147Y15846900D01*
X58161015Y15707519D01*
X58042481Y15588985D01*
X57903100Y15495853D01*
X57748228Y15431703D01*
X57583816Y15399000D01*
X57416184Y15399000D01*
X57251772Y15431703D01*
X57096900Y15495853D01*
X56957519Y15588985D01*
X56838985Y15707519D01*
X56745853Y15846900D01*
X56681703Y16001772D01*
X56649000Y16166184D01*
X56649000Y16333816D01*
X56681703Y16498228D01*
X56745853Y16653100D01*
X56838985Y16792481D01*
X56957519Y16911015D01*
X57096900Y17004147D01*
X57251772Y17068297D01*
X57416184Y17101000D01*
X57583816Y17101000D01*
X57748228Y17068297D01*
G37*
G36*
X89114499Y17321555D02*
G01*
X89151995Y17310180D01*
X89186554Y17291708D01*
X89216847Y17266847D01*
X89241708Y17236554D01*
X89260180Y17201995D01*
X89271555Y17164499D01*
X89276000Y17119362D01*
X89276000Y16380638D01*
X89271555Y16335501D01*
X89260180Y16298005D01*
X89241708Y16263446D01*
X89216847Y16233153D01*
X89186554Y16208292D01*
X89151995Y16189820D01*
X89114499Y16178445D01*
X89069362Y16174000D01*
X88430638Y16174000D01*
X88385501Y16178445D01*
X88348005Y16189820D01*
X88313446Y16208292D01*
X88283153Y16233153D01*
X88258292Y16263446D01*
X88239820Y16298005D01*
X88228445Y16335501D01*
X88224000Y16380638D01*
X88224000Y17119362D01*
X88228445Y17164499D01*
X88239820Y17201995D01*
X88258292Y17236554D01*
X88283153Y17266847D01*
X88313446Y17291708D01*
X88348005Y17310180D01*
X88385501Y17321555D01*
X88430638Y17326000D01*
X89069362Y17326000D01*
X89114499Y17321555D01*
G37*
G36*
X97614499Y17321555D02*
G01*
X97651995Y17310180D01*
X97686554Y17291708D01*
X97716847Y17266847D01*
X97741708Y17236554D01*
X97760180Y17201995D01*
X97771555Y17164499D01*
X97776000Y17119362D01*
X97776000Y16380638D01*
X97771555Y16335501D01*
X97760180Y16298005D01*
X97741708Y16263446D01*
X97716847Y16233153D01*
X97686554Y16208292D01*
X97651995Y16189820D01*
X97614499Y16178445D01*
X97569362Y16174000D01*
X96930638Y16174000D01*
X96885501Y16178445D01*
X96848005Y16189820D01*
X96813446Y16208292D01*
X96783153Y16233153D01*
X96758292Y16263446D01*
X96739820Y16298005D01*
X96728445Y16335501D01*
X96724000Y16380638D01*
X96724000Y17119362D01*
X96728445Y17164499D01*
X96739820Y17201995D01*
X96758292Y17236554D01*
X96783153Y17266847D01*
X96813446Y17291708D01*
X96848005Y17310180D01*
X96885501Y17321555D01*
X96930638Y17326000D01*
X97569362Y17326000D01*
X97614499Y17321555D01*
G37*
G36*
X87614499Y17321555D02*
G01*
X87651995Y17310180D01*
X87686554Y17291708D01*
X87716847Y17266847D01*
X87741708Y17236554D01*
X87760180Y17201995D01*
X87771555Y17164499D01*
X87776000Y17119362D01*
X87776000Y16380638D01*
X87771555Y16335501D01*
X87760180Y16298005D01*
X87741708Y16263446D01*
X87716847Y16233153D01*
X87686554Y16208292D01*
X87651995Y16189820D01*
X87614499Y16178445D01*
X87569362Y16174000D01*
X86930638Y16174000D01*
X86885501Y16178445D01*
X86848005Y16189820D01*
X86813446Y16208292D01*
X86783153Y16233153D01*
X86758292Y16263446D01*
X86739820Y16298005D01*
X86728445Y16335501D01*
X86724000Y16380638D01*
X86724000Y17119362D01*
X86728445Y17164499D01*
X86739820Y17201995D01*
X86758292Y17236554D01*
X86783153Y17266847D01*
X86813446Y17291708D01*
X86848005Y17310180D01*
X86885501Y17321555D01*
X86930638Y17326000D01*
X87569362Y17326000D01*
X87614499Y17321555D01*
G37*
G36*
X96114499Y17321555D02*
G01*
X96151995Y17310180D01*
X96186554Y17291708D01*
X96216847Y17266847D01*
X96241708Y17236554D01*
X96260180Y17201995D01*
X96271555Y17164499D01*
X96276000Y17119362D01*
X96276000Y16380638D01*
X96271555Y16335501D01*
X96260180Y16298005D01*
X96241708Y16263446D01*
X96216847Y16233153D01*
X96186554Y16208292D01*
X96151995Y16189820D01*
X96114499Y16178445D01*
X96069362Y16174000D01*
X95430638Y16174000D01*
X95385501Y16178445D01*
X95348005Y16189820D01*
X95313446Y16208292D01*
X95283153Y16233153D01*
X95258292Y16263446D01*
X95239820Y16298005D01*
X95228445Y16335501D01*
X95224000Y16380638D01*
X95224000Y17119362D01*
X95228445Y17164499D01*
X95239820Y17201995D01*
X95258292Y17236554D01*
X95283153Y17266847D01*
X95313446Y17291708D01*
X95348005Y17310180D01*
X95385501Y17321555D01*
X95430638Y17326000D01*
X96069362Y17326000D01*
X96114499Y17321555D01*
G37*
G36*
X85838674Y17671535D02*
G01*
X85876367Y17660101D01*
X85911103Y17641534D01*
X85941548Y17616548D01*
X85966534Y17586103D01*
X85985101Y17551367D01*
X85996535Y17513674D01*
X86001000Y17468339D01*
X86001000Y16631661D01*
X85996535Y16586326D01*
X85985101Y16548633D01*
X85966534Y16513897D01*
X85941548Y16483452D01*
X85911103Y16458466D01*
X85876367Y16439899D01*
X85838674Y16428465D01*
X85793339Y16424000D01*
X84706661Y16424000D01*
X84661326Y16428465D01*
X84623633Y16439899D01*
X84588897Y16458466D01*
X84558452Y16483452D01*
X84533466Y16513897D01*
X84514899Y16548633D01*
X84503465Y16586326D01*
X84499000Y16631661D01*
X84499000Y17468339D01*
X84503465Y17513674D01*
X84514899Y17551367D01*
X84533466Y17586103D01*
X84558452Y17616548D01*
X84588897Y17641534D01*
X84623633Y17660101D01*
X84661326Y17671535D01*
X84706661Y17676000D01*
X85793339Y17676000D01*
X85838674Y17671535D01*
G37*
G36*
X91731000Y16524000D02*
G01*
X90069000Y16524000D01*
X90069000Y17276000D01*
X91731000Y17276000D01*
X91731000Y16524000D01*
G37*
G36*
X74114499Y17696555D02*
G01*
X74151995Y17685180D01*
X74186554Y17666708D01*
X74216847Y17641847D01*
X74241708Y17611554D01*
X74260180Y17576995D01*
X74271555Y17539499D01*
X74276000Y17494362D01*
X74276000Y16755638D01*
X74271555Y16710501D01*
X74260180Y16673005D01*
X74241708Y16638446D01*
X74216847Y16608153D01*
X74186554Y16583292D01*
X74151995Y16564820D01*
X74114499Y16553445D01*
X74069362Y16549000D01*
X73430638Y16549000D01*
X73385501Y16553445D01*
X73348005Y16564820D01*
X73313446Y16583292D01*
X73283153Y16608153D01*
X73258292Y16638446D01*
X73239820Y16673005D01*
X73228445Y16710501D01*
X73224000Y16755638D01*
X73224000Y17494362D01*
X73228445Y17539499D01*
X73239820Y17576995D01*
X73258292Y17611554D01*
X73283153Y17641847D01*
X73313446Y17666708D01*
X73348005Y17685180D01*
X73385501Y17696555D01*
X73430638Y17701000D01*
X74069362Y17701000D01*
X74114499Y17696555D01*
G37*
G36*
X71914499Y18021555D02*
G01*
X71951995Y18010180D01*
X71986554Y17991708D01*
X72016847Y17966847D01*
X72041708Y17936554D01*
X72060180Y17901995D01*
X72071555Y17864499D01*
X72076000Y17819362D01*
X72076000Y17180638D01*
X72071555Y17135501D01*
X72060180Y17098005D01*
X72041708Y17063446D01*
X72016847Y17033153D01*
X71986554Y17008292D01*
X71951995Y16989820D01*
X71914499Y16978445D01*
X71869362Y16974000D01*
X71130638Y16974000D01*
X71085501Y16978445D01*
X71048005Y16989820D01*
X71013446Y17008292D01*
X70983153Y17033153D01*
X70958292Y17063446D01*
X70939820Y17098005D01*
X70928445Y17135501D01*
X70924000Y17180638D01*
X70924000Y17819362D01*
X70928445Y17864499D01*
X70939820Y17901995D01*
X70958292Y17936554D01*
X70983153Y17966847D01*
X71013446Y17991708D01*
X71048005Y18010180D01*
X71085501Y18021555D01*
X71130638Y18026000D01*
X71869362Y18026000D01*
X71914499Y18021555D01*
G37*
G36*
X70164499Y18021555D02*
G01*
X70201995Y18010180D01*
X70236554Y17991708D01*
X70266847Y17966847D01*
X70291708Y17936554D01*
X70310180Y17901995D01*
X70321555Y17864499D01*
X70326000Y17819362D01*
X70326000Y17180638D01*
X70321555Y17135501D01*
X70310180Y17098005D01*
X70291708Y17063446D01*
X70266847Y17033153D01*
X70236554Y17008292D01*
X70201995Y16989820D01*
X70164499Y16978445D01*
X70119362Y16974000D01*
X69380638Y16974000D01*
X69335501Y16978445D01*
X69298005Y16989820D01*
X69263446Y17008292D01*
X69233153Y17033153D01*
X69208292Y17063446D01*
X69189820Y17098005D01*
X69178445Y17135501D01*
X69174000Y17180638D01*
X69174000Y17819362D01*
X69178445Y17864499D01*
X69189820Y17901995D01*
X69208292Y17936554D01*
X69233153Y17966847D01*
X69263446Y17991708D01*
X69298005Y18010180D01*
X69335501Y18021555D01*
X69380638Y18026000D01*
X70119362Y18026000D01*
X70164499Y18021555D01*
G37*
G36*
X105936564Y19130611D02*
G01*
X106098715Y19063446D01*
X106127835Y19051384D01*
X106299973Y18936365D01*
X106446365Y18789973D01*
X106555908Y18626031D01*
X106561385Y18617833D01*
X106640611Y18426564D01*
X106681000Y18223516D01*
X106681000Y18016484D01*
X106640611Y17813436D01*
X106569407Y17641534D01*
X106561384Y17622165D01*
X106446365Y17450027D01*
X106299973Y17303635D01*
X106127835Y17188616D01*
X106127834Y17188615D01*
X106127833Y17188615D01*
X105936564Y17109389D01*
X105733516Y17069000D01*
X105526484Y17069000D01*
X105323436Y17109389D01*
X105132167Y17188615D01*
X105132166Y17188615D01*
X105132165Y17188616D01*
X104960027Y17303635D01*
X104813635Y17450027D01*
X104698616Y17622165D01*
X104690593Y17641534D01*
X104619389Y17813436D01*
X104579000Y18016484D01*
X104579000Y18223516D01*
X104619389Y18426564D01*
X104698615Y18617833D01*
X104704093Y18626031D01*
X104813635Y18789973D01*
X104960027Y18936365D01*
X105132165Y19051384D01*
X105161285Y19063446D01*
X105323436Y19130611D01*
X105526484Y19171000D01*
X105733516Y19171000D01*
X105936564Y19130611D01*
G37*
G36*
X110852200Y19018323D02*
G01*
X111012812Y18986376D01*
X111176784Y18918456D01*
X111324354Y18819853D01*
X111449853Y18694354D01*
X111548456Y18546784D01*
X111616376Y18382812D01*
X111651000Y18208741D01*
X111651000Y18031259D01*
X111616376Y17857188D01*
X111548456Y17693216D01*
X111449853Y17545646D01*
X111324354Y17420147D01*
X111176784Y17321544D01*
X111012812Y17253624D01*
X110863512Y17223927D01*
X110838742Y17219000D01*
X110661258Y17219000D01*
X110636488Y17223927D01*
X110487188Y17253624D01*
X110323216Y17321544D01*
X110175646Y17420147D01*
X110050147Y17545646D01*
X109951544Y17693216D01*
X109883624Y17857188D01*
X109849000Y18031259D01*
X109849000Y18208741D01*
X109883624Y18382812D01*
X109951544Y18546784D01*
X110050147Y18694354D01*
X110175646Y18819853D01*
X110323216Y18918456D01*
X110487188Y18986376D01*
X110647800Y19018323D01*
X110661258Y19021000D01*
X110838742Y19021000D01*
X110852200Y19018323D01*
G37*
G36*
X113392200Y19018323D02*
G01*
X113552812Y18986376D01*
X113716784Y18918456D01*
X113864354Y18819853D01*
X113989853Y18694354D01*
X114088456Y18546784D01*
X114156376Y18382812D01*
X114191000Y18208741D01*
X114191000Y18031259D01*
X114156376Y17857188D01*
X114088456Y17693216D01*
X113989853Y17545646D01*
X113864354Y17420147D01*
X113716784Y17321544D01*
X113552812Y17253624D01*
X113403512Y17223927D01*
X113378742Y17219000D01*
X113201258Y17219000D01*
X113176488Y17223927D01*
X113027188Y17253624D01*
X112863216Y17321544D01*
X112715646Y17420147D01*
X112590147Y17545646D01*
X112491544Y17693216D01*
X112423624Y17857188D01*
X112389000Y18031259D01*
X112389000Y18208741D01*
X112423624Y18382812D01*
X112491544Y18546784D01*
X112590147Y18694354D01*
X112715646Y18819853D01*
X112863216Y18918456D01*
X113027188Y18986376D01*
X113187800Y19018323D01*
X113201258Y19021000D01*
X113378742Y19021000D01*
X113392200Y19018323D01*
G37*
G36*
X14651000Y17849000D02*
G01*
X12849000Y17849000D01*
X12849000Y19651000D01*
X14651000Y19651000D01*
X14651000Y17849000D01*
G37*
G36*
X45248228Y19568297D02*
G01*
X45403100Y19504147D01*
X45542481Y19411015D01*
X45661015Y19292481D01*
X45754147Y19153100D01*
X45818297Y18998228D01*
X45851000Y18833816D01*
X45851000Y18666184D01*
X45818297Y18501772D01*
X45754147Y18346900D01*
X45661015Y18207519D01*
X45542481Y18088985D01*
X45403100Y17995853D01*
X45248228Y17931703D01*
X45083816Y17899000D01*
X44916184Y17899000D01*
X44751772Y17931703D01*
X44596900Y17995853D01*
X44457519Y18088985D01*
X44338985Y18207519D01*
X44245853Y18346900D01*
X44181703Y18501772D01*
X44149000Y18666184D01*
X44149000Y18833816D01*
X44181703Y18998228D01*
X44245853Y19153100D01*
X44338985Y19292481D01*
X44457519Y19411015D01*
X44596900Y19504147D01*
X44751772Y19568297D01*
X44916184Y19601000D01*
X45083816Y19601000D01*
X45248228Y19568297D01*
G37*
G36*
X32548228Y19568297D02*
G01*
X32703100Y19504147D01*
X32842481Y19411015D01*
X32961015Y19292481D01*
X33054147Y19153100D01*
X33118297Y18998228D01*
X33151000Y18833816D01*
X33151000Y18666184D01*
X33118297Y18501772D01*
X33054147Y18346900D01*
X32961015Y18207519D01*
X32842481Y18088985D01*
X32703100Y17995853D01*
X32548228Y17931703D01*
X32383816Y17899000D01*
X32216184Y17899000D01*
X32051772Y17931703D01*
X31896900Y17995853D01*
X31757519Y18088985D01*
X31638985Y18207519D01*
X31545853Y18346900D01*
X31481703Y18501772D01*
X31449000Y18666184D01*
X31449000Y18833816D01*
X31481703Y18998228D01*
X31545853Y19153100D01*
X31638985Y19292481D01*
X31757519Y19411015D01*
X31896900Y19504147D01*
X32051772Y19568297D01*
X32216184Y19601000D01*
X32383816Y19601000D01*
X32548228Y19568297D01*
G37*
G36*
X17548228Y19568297D02*
G01*
X17703100Y19504147D01*
X17842481Y19411015D01*
X17961015Y19292481D01*
X18054147Y19153100D01*
X18118297Y18998228D01*
X18151000Y18833816D01*
X18151000Y18666184D01*
X18118297Y18501772D01*
X18054147Y18346900D01*
X17961015Y18207519D01*
X17842481Y18088985D01*
X17703100Y17995853D01*
X17548228Y17931703D01*
X17383816Y17899000D01*
X17216184Y17899000D01*
X17051772Y17931703D01*
X16896900Y17995853D01*
X16757519Y18088985D01*
X16638985Y18207519D01*
X16545853Y18346900D01*
X16481703Y18501772D01*
X16449000Y18666184D01*
X16449000Y18833816D01*
X16481703Y18998228D01*
X16545853Y19153100D01*
X16638985Y19292481D01*
X16757519Y19411015D01*
X16896900Y19504147D01*
X17051772Y19568297D01*
X17216184Y19601000D01*
X17383816Y19601000D01*
X17548228Y19568297D01*
G37*
G36*
X30248228Y19568297D02*
G01*
X30403100Y19504147D01*
X30542481Y19411015D01*
X30661015Y19292481D01*
X30754147Y19153100D01*
X30818297Y18998228D01*
X30851000Y18833816D01*
X30851000Y18666184D01*
X30818297Y18501772D01*
X30754147Y18346900D01*
X30661015Y18207519D01*
X30542481Y18088985D01*
X30403100Y17995853D01*
X30248228Y17931703D01*
X30083816Y17899000D01*
X29916184Y17899000D01*
X29751772Y17931703D01*
X29596900Y17995853D01*
X29457519Y18088985D01*
X29338985Y18207519D01*
X29245853Y18346900D01*
X29181703Y18501772D01*
X29149000Y18666184D01*
X29149000Y18833816D01*
X29181703Y18998228D01*
X29245853Y19153100D01*
X29338985Y19292481D01*
X29457519Y19411015D01*
X29596900Y19504147D01*
X29751772Y19568297D01*
X29916184Y19601000D01*
X30083816Y19601000D01*
X30248228Y19568297D01*
G37*
G36*
X91039499Y19521555D02*
G01*
X91076995Y19510180D01*
X91111554Y19491708D01*
X91141847Y19466847D01*
X91166708Y19436554D01*
X91185180Y19401995D01*
X91196555Y19364499D01*
X91201000Y19319362D01*
X91201000Y18680638D01*
X91196555Y18635501D01*
X91185180Y18598005D01*
X91166708Y18563446D01*
X91141847Y18533153D01*
X91111554Y18508292D01*
X91076995Y18489820D01*
X91039499Y18478445D01*
X90994362Y18474000D01*
X90255638Y18474000D01*
X90210501Y18478445D01*
X90173005Y18489820D01*
X90138446Y18508292D01*
X90108153Y18533153D01*
X90083292Y18563446D01*
X90064820Y18598005D01*
X90053445Y18635501D01*
X90049000Y18680638D01*
X90049000Y19319362D01*
X90053445Y19364499D01*
X90064820Y19401995D01*
X90083292Y19436554D01*
X90108153Y19466847D01*
X90138446Y19491708D01*
X90173005Y19510180D01*
X90210501Y19521555D01*
X90255638Y19526000D01*
X90994362Y19526000D01*
X91039499Y19521555D01*
G37*
G36*
X89289499Y19521555D02*
G01*
X89326995Y19510180D01*
X89361554Y19491708D01*
X89391847Y19466847D01*
X89416708Y19436554D01*
X89435180Y19401995D01*
X89446555Y19364499D01*
X89451000Y19319362D01*
X89451000Y18680638D01*
X89446555Y18635501D01*
X89435180Y18598005D01*
X89416708Y18563446D01*
X89391847Y18533153D01*
X89361554Y18508292D01*
X89326995Y18489820D01*
X89289499Y18478445D01*
X89244362Y18474000D01*
X88505638Y18474000D01*
X88460501Y18478445D01*
X88423005Y18489820D01*
X88388446Y18508292D01*
X88358153Y18533153D01*
X88333292Y18563446D01*
X88314820Y18598005D01*
X88303445Y18635501D01*
X88299000Y18680638D01*
X88299000Y19319362D01*
X88303445Y19364499D01*
X88314820Y19401995D01*
X88333292Y19436554D01*
X88358153Y19466847D01*
X88388446Y19491708D01*
X88423005Y19510180D01*
X88460501Y19521555D01*
X88505638Y19526000D01*
X89244362Y19526000D01*
X89289499Y19521555D01*
G37*
G36*
X71864499Y19696555D02*
G01*
X71901995Y19685180D01*
X71936554Y19666708D01*
X71966847Y19641847D01*
X71991708Y19611554D01*
X72010180Y19576995D01*
X72021555Y19539499D01*
X72026000Y19494362D01*
X72026000Y18755638D01*
X72021555Y18710501D01*
X72010180Y18673005D01*
X71991708Y18638446D01*
X71966847Y18608153D01*
X71936554Y18583292D01*
X71901995Y18564820D01*
X71864499Y18553445D01*
X71819362Y18549000D01*
X71180638Y18549000D01*
X71135501Y18553445D01*
X71098005Y18564820D01*
X71063446Y18583292D01*
X71033153Y18608153D01*
X71008292Y18638446D01*
X70989820Y18673005D01*
X70978445Y18710501D01*
X70974000Y18755638D01*
X70974000Y19494362D01*
X70978445Y19539499D01*
X70989820Y19576995D01*
X71008292Y19611554D01*
X71033153Y19641847D01*
X71063446Y19666708D01*
X71098005Y19685180D01*
X71135501Y19696555D01*
X71180638Y19701000D01*
X71819362Y19701000D01*
X71864499Y19696555D01*
G37*
G36*
X87039499Y20021555D02*
G01*
X87076995Y20010180D01*
X87111554Y19991708D01*
X87141847Y19966847D01*
X87166708Y19936554D01*
X87185180Y19901995D01*
X87196555Y19864499D01*
X87201000Y19819362D01*
X87201000Y19180638D01*
X87196555Y19135501D01*
X87185180Y19098005D01*
X87166708Y19063446D01*
X87141847Y19033153D01*
X87111554Y19008292D01*
X87076995Y18989820D01*
X87039499Y18978445D01*
X86994362Y18974000D01*
X86255638Y18974000D01*
X86210501Y18978445D01*
X86173005Y18989820D01*
X86138446Y19008292D01*
X86108153Y19033153D01*
X86083292Y19063446D01*
X86064820Y19098005D01*
X86053445Y19135501D01*
X86049000Y19180638D01*
X86049000Y19819362D01*
X86053445Y19864499D01*
X86064820Y19901995D01*
X86083292Y19936554D01*
X86108153Y19966847D01*
X86138446Y19991708D01*
X86173005Y20010180D01*
X86210501Y20021555D01*
X86255638Y20026000D01*
X86994362Y20026000D01*
X87039499Y20021555D01*
G37*
G36*
X84039499Y20021555D02*
G01*
X84076995Y20010180D01*
X84111554Y19991708D01*
X84141850Y19966845D01*
X84153375Y19952802D01*
X84170702Y19935475D01*
X84191076Y19921861D01*
X84213715Y19912484D01*
X84237748Y19907704D01*
X84262253Y19907704D01*
X84286286Y19912485D01*
X84308925Y19921862D01*
X84329299Y19935476D01*
X84346625Y19952802D01*
X84358150Y19966845D01*
X84388446Y19991708D01*
X84423005Y20010180D01*
X84460501Y20021555D01*
X84505638Y20026000D01*
X85244362Y20026000D01*
X85289499Y20021555D01*
X85326995Y20010180D01*
X85361554Y19991708D01*
X85391847Y19966847D01*
X85416708Y19936554D01*
X85435180Y19901995D01*
X85446555Y19864499D01*
X85451000Y19819362D01*
X85451000Y19180638D01*
X85446555Y19135501D01*
X85435180Y19098005D01*
X85416708Y19063446D01*
X85391847Y19033153D01*
X85361554Y19008292D01*
X85326995Y18989820D01*
X85289499Y18978445D01*
X85244362Y18974000D01*
X84505638Y18974000D01*
X84460501Y18978445D01*
X84423005Y18989820D01*
X84388446Y19008292D01*
X84358150Y19033155D01*
X84346625Y19047198D01*
X84329298Y19064525D01*
X84308924Y19078139D01*
X84286285Y19087516D01*
X84262252Y19092296D01*
X84237747Y19092296D01*
X84213714Y19087515D01*
X84191075Y19078138D01*
X84170701Y19064524D01*
X84153375Y19047198D01*
X84141850Y19033155D01*
X84111554Y19008292D01*
X84076995Y18989820D01*
X84039499Y18978445D01*
X83994362Y18974000D01*
X83255638Y18974000D01*
X83210501Y18978445D01*
X83173005Y18989820D01*
X83138446Y19008292D01*
X83108153Y19033153D01*
X83083292Y19063446D01*
X83064820Y19098005D01*
X83053445Y19135501D01*
X83049000Y19180638D01*
X83049000Y19819362D01*
X83053445Y19864499D01*
X83064820Y19901995D01*
X83083292Y19936554D01*
X83108153Y19966847D01*
X83138446Y19991708D01*
X83173005Y20010180D01*
X83210501Y20021555D01*
X83255638Y20026000D01*
X83994362Y20026000D01*
X84039499Y20021555D01*
G37*
G36*
X82289499Y20021555D02*
G01*
X82326995Y20010180D01*
X82361554Y19991708D01*
X82391847Y19966847D01*
X82416708Y19936554D01*
X82435180Y19901995D01*
X82446555Y19864499D01*
X82451000Y19819362D01*
X82451000Y19180638D01*
X82446555Y19135501D01*
X82435180Y19098005D01*
X82416708Y19063446D01*
X82391847Y19033153D01*
X82361554Y19008292D01*
X82326995Y18989820D01*
X82289499Y18978445D01*
X82244362Y18974000D01*
X81505638Y18974000D01*
X81460501Y18978445D01*
X81423005Y18989820D01*
X81388446Y19008292D01*
X81358153Y19033153D01*
X81333292Y19063446D01*
X81314820Y19098005D01*
X81303445Y19135501D01*
X81299000Y19180638D01*
X81299000Y19819362D01*
X81303445Y19864499D01*
X81314820Y19901995D01*
X81333292Y19936554D01*
X81358153Y19966847D01*
X81388446Y19991708D01*
X81423005Y20010180D01*
X81460501Y20021555D01*
X81505638Y20026000D01*
X82244362Y20026000D01*
X82289499Y20021555D01*
G37*
G36*
X57748228Y20818297D02*
G01*
X57903100Y20754147D01*
X58042481Y20661015D01*
X58161015Y20542481D01*
X58254147Y20403100D01*
X58318297Y20248228D01*
X58351000Y20083816D01*
X58351000Y19916184D01*
X58318297Y19751772D01*
X58254147Y19596900D01*
X58161015Y19457519D01*
X58042481Y19338985D01*
X57903100Y19245853D01*
X57748228Y19181703D01*
X57583816Y19149000D01*
X57416184Y19149000D01*
X57251772Y19181703D01*
X57096900Y19245853D01*
X56957519Y19338985D01*
X56838985Y19457519D01*
X56745853Y19596900D01*
X56681703Y19751772D01*
X56649000Y19916184D01*
X56649000Y20083816D01*
X56681703Y20248228D01*
X56745853Y20403100D01*
X56838985Y20542481D01*
X56957519Y20661015D01*
X57096900Y20754147D01*
X57251772Y20818297D01*
X57416184Y20851000D01*
X57583816Y20851000D01*
X57748228Y20818297D01*
G37*
G36*
X74114499Y20571555D02*
G01*
X74151995Y20560180D01*
X74186554Y20541708D01*
X74216847Y20516847D01*
X74241708Y20486554D01*
X74260180Y20451995D01*
X74271555Y20414499D01*
X74276000Y20369362D01*
X74276000Y19630638D01*
X74271555Y19585501D01*
X74260180Y19548005D01*
X74241708Y19513446D01*
X74216847Y19483153D01*
X74186554Y19458292D01*
X74151995Y19439820D01*
X74114499Y19428445D01*
X74069362Y19424000D01*
X73430638Y19424000D01*
X73385501Y19428445D01*
X73348005Y19439820D01*
X73313446Y19458292D01*
X73283153Y19483153D01*
X73258292Y19513446D01*
X73239820Y19548005D01*
X73228445Y19585501D01*
X73224000Y19630638D01*
X73224000Y20369362D01*
X73228445Y20414499D01*
X73239820Y20451995D01*
X73258292Y20486554D01*
X73283153Y20516847D01*
X73313446Y20541708D01*
X73348005Y20560180D01*
X73385501Y20571555D01*
X73430638Y20576000D01*
X74069362Y20576000D01*
X74114499Y20571555D01*
G37*
G36*
X100896564Y21670611D02*
G01*
X101087833Y21591385D01*
X101087835Y21591384D01*
X101259973Y21476365D01*
X101406365Y21329973D01*
X101507207Y21179053D01*
X101521385Y21157833D01*
X101600611Y20966564D01*
X101641000Y20763516D01*
X101641000Y20556484D01*
X101600611Y20353436D01*
X101550815Y20233218D01*
X101521384Y20162165D01*
X101406365Y19990027D01*
X101259973Y19843635D01*
X101087835Y19728616D01*
X101087834Y19728615D01*
X101087833Y19728615D01*
X100896564Y19649389D01*
X100693516Y19609000D01*
X100486484Y19609000D01*
X100283436Y19649389D01*
X100092167Y19728615D01*
X100092166Y19728615D01*
X100092165Y19728616D01*
X99920027Y19843635D01*
X99773635Y19990027D01*
X99658616Y20162165D01*
X99629185Y20233218D01*
X99579389Y20353436D01*
X99539000Y20556484D01*
X99539000Y20763516D01*
X99579389Y20966564D01*
X99658615Y21157833D01*
X99672794Y21179053D01*
X99773635Y21329973D01*
X99920027Y21476365D01*
X100092165Y21591384D01*
X100092167Y21591385D01*
X100283436Y21670611D01*
X100486484Y21711000D01*
X100693516Y21711000D01*
X100896564Y21670611D01*
G37*
G36*
X62451000Y19649000D02*
G01*
X60049000Y19649000D01*
X60049000Y23251000D01*
X62451000Y23251000D01*
X62451000Y19649000D01*
G37*
G36*
X113403512Y21556073D02*
G01*
X113552812Y21526376D01*
X113716784Y21458456D01*
X113864354Y21359853D01*
X113989853Y21234354D01*
X114088456Y21086784D01*
X114156376Y20922812D01*
X114177165Y20818295D01*
X114191000Y20748742D01*
X114191000Y20571258D01*
X114189446Y20563446D01*
X114156376Y20397188D01*
X114088456Y20233216D01*
X113989853Y20085646D01*
X113864354Y19960147D01*
X113716784Y19861544D01*
X113552812Y19793624D01*
X113403512Y19763927D01*
X113378742Y19759000D01*
X113201258Y19759000D01*
X113176488Y19763927D01*
X113027188Y19793624D01*
X112863216Y19861544D01*
X112715646Y19960147D01*
X112590147Y20085646D01*
X112491544Y20233216D01*
X112423624Y20397188D01*
X112390554Y20563446D01*
X112389000Y20571258D01*
X112389000Y20748742D01*
X112402835Y20818295D01*
X112423624Y20922812D01*
X112491544Y21086784D01*
X112590147Y21234354D01*
X112715646Y21359853D01*
X112863216Y21458456D01*
X113027188Y21526376D01*
X113176488Y21556073D01*
X113201258Y21561000D01*
X113378742Y21561000D01*
X113403512Y21556073D01*
G37*
G36*
X110863512Y21556073D02*
G01*
X111012812Y21526376D01*
X111176784Y21458456D01*
X111324354Y21359853D01*
X111449853Y21234354D01*
X111548456Y21086784D01*
X111616376Y20922812D01*
X111637165Y20818295D01*
X111651000Y20748742D01*
X111651000Y20571258D01*
X111649446Y20563446D01*
X111616376Y20397188D01*
X111548456Y20233216D01*
X111449853Y20085646D01*
X111324354Y19960147D01*
X111176784Y19861544D01*
X111012812Y19793624D01*
X110863512Y19763927D01*
X110838742Y19759000D01*
X110661258Y19759000D01*
X110636488Y19763927D01*
X110487188Y19793624D01*
X110323216Y19861544D01*
X110175646Y19960147D01*
X110050147Y20085646D01*
X109951544Y20233216D01*
X109883624Y20397188D01*
X109850554Y20563446D01*
X109849000Y20571258D01*
X109849000Y20748742D01*
X109862835Y20818295D01*
X109883624Y20922812D01*
X109951544Y21086784D01*
X110050147Y21234354D01*
X110175646Y21359853D01*
X110323216Y21458456D01*
X110487188Y21526376D01*
X110636488Y21556073D01*
X110661258Y21561000D01*
X110838742Y21561000D01*
X110863512Y21556073D01*
G37*
G36*
X94289499Y21021555D02*
G01*
X94326995Y21010180D01*
X94361554Y20991708D01*
X94391847Y20966847D01*
X94416708Y20936554D01*
X94435180Y20901995D01*
X94446555Y20864499D01*
X94451000Y20819362D01*
X94451000Y20180638D01*
X94446555Y20135501D01*
X94435180Y20098005D01*
X94416708Y20063446D01*
X94391847Y20033153D01*
X94361554Y20008292D01*
X94326995Y19989820D01*
X94289499Y19978445D01*
X94244362Y19974000D01*
X93505638Y19974000D01*
X93460501Y19978445D01*
X93423005Y19989820D01*
X93388446Y20008292D01*
X93358153Y20033153D01*
X93333292Y20063446D01*
X93314820Y20098005D01*
X93303445Y20135501D01*
X93299000Y20180638D01*
X93299000Y20819362D01*
X93303445Y20864499D01*
X93314820Y20901995D01*
X93333292Y20936554D01*
X93358153Y20966847D01*
X93388446Y20991708D01*
X93423005Y21010180D01*
X93460501Y21021555D01*
X93505638Y21026000D01*
X94244362Y21026000D01*
X94289499Y21021555D01*
G37*
G36*
X96039499Y21021555D02*
G01*
X96076995Y21010180D01*
X96111554Y20991708D01*
X96141847Y20966847D01*
X96166708Y20936554D01*
X96185180Y20901995D01*
X96196555Y20864499D01*
X96201000Y20819362D01*
X96201000Y20180638D01*
X96196555Y20135501D01*
X96185180Y20098005D01*
X96166708Y20063446D01*
X96141847Y20033153D01*
X96111554Y20008292D01*
X96076995Y19989820D01*
X96039499Y19978445D01*
X95994362Y19974000D01*
X95255638Y19974000D01*
X95210501Y19978445D01*
X95173005Y19989820D01*
X95138446Y20008292D01*
X95108153Y20033153D01*
X95083292Y20063446D01*
X95064820Y20098005D01*
X95053445Y20135501D01*
X95049000Y20180638D01*
X95049000Y20819362D01*
X95053445Y20864499D01*
X95064820Y20901995D01*
X95083292Y20936554D01*
X95108153Y20966847D01*
X95138446Y20991708D01*
X95173005Y21010180D01*
X95210501Y21021555D01*
X95255638Y21026000D01*
X95994362Y21026000D01*
X96039499Y21021555D01*
G37*
G36*
X71864499Y21446555D02*
G01*
X71901995Y21435180D01*
X71936554Y21416708D01*
X71966847Y21391847D01*
X71991708Y21361554D01*
X72010180Y21326995D01*
X72021555Y21289499D01*
X72026000Y21244362D01*
X72026000Y20505638D01*
X72021555Y20460501D01*
X72010180Y20423005D01*
X71991708Y20388446D01*
X71966847Y20358153D01*
X71936554Y20333292D01*
X71901995Y20314820D01*
X71864499Y20303445D01*
X71819362Y20299000D01*
X71180638Y20299000D01*
X71135501Y20303445D01*
X71098005Y20314820D01*
X71063446Y20333292D01*
X71033153Y20358153D01*
X71008292Y20388446D01*
X70989820Y20423005D01*
X70978445Y20460501D01*
X70974000Y20505638D01*
X70974000Y21244362D01*
X70978445Y21289499D01*
X70989820Y21326995D01*
X71008292Y21361554D01*
X71033153Y21391847D01*
X71063446Y21416708D01*
X71098005Y21435180D01*
X71135501Y21446555D01*
X71180638Y21451000D01*
X71819362Y21451000D01*
X71864499Y21446555D01*
G37*
G36*
X82289499Y21521555D02*
G01*
X82326995Y21510180D01*
X82361554Y21491708D01*
X82391847Y21466847D01*
X82416708Y21436554D01*
X82435180Y21401995D01*
X82446555Y21364499D01*
X82451000Y21319362D01*
X82451000Y20680638D01*
X82446555Y20635501D01*
X82435180Y20598005D01*
X82416708Y20563446D01*
X82391847Y20533153D01*
X82361554Y20508292D01*
X82326995Y20489820D01*
X82289499Y20478445D01*
X82244362Y20474000D01*
X81505638Y20474000D01*
X81460501Y20478445D01*
X81423005Y20489820D01*
X81388446Y20508292D01*
X81358153Y20533153D01*
X81333292Y20563446D01*
X81314820Y20598005D01*
X81303445Y20635501D01*
X81299000Y20680638D01*
X81299000Y21319362D01*
X81303445Y21364499D01*
X81314820Y21401995D01*
X81333292Y21436554D01*
X81358153Y21466847D01*
X81388446Y21491708D01*
X81423005Y21510180D01*
X81460501Y21521555D01*
X81505638Y21526000D01*
X82244362Y21526000D01*
X82289499Y21521555D01*
G37*
G36*
X84039499Y21521555D02*
G01*
X84076995Y21510180D01*
X84111554Y21491708D01*
X84141850Y21466845D01*
X84153375Y21452802D01*
X84170702Y21435475D01*
X84191076Y21421861D01*
X84213715Y21412484D01*
X84237748Y21407704D01*
X84262253Y21407704D01*
X84286286Y21412485D01*
X84308925Y21421862D01*
X84329299Y21435476D01*
X84346625Y21452802D01*
X84358150Y21466845D01*
X84388446Y21491708D01*
X84423005Y21510180D01*
X84460501Y21521555D01*
X84505638Y21526000D01*
X85244362Y21526000D01*
X85289499Y21521555D01*
X85326995Y21510180D01*
X85361554Y21491708D01*
X85391847Y21466847D01*
X85416708Y21436554D01*
X85435180Y21401995D01*
X85446555Y21364499D01*
X85451000Y21319362D01*
X85451000Y20680638D01*
X85446555Y20635501D01*
X85435180Y20598005D01*
X85416708Y20563446D01*
X85391847Y20533153D01*
X85361554Y20508292D01*
X85326995Y20489820D01*
X85289499Y20478445D01*
X85244362Y20474000D01*
X84505638Y20474000D01*
X84460501Y20478445D01*
X84423005Y20489820D01*
X84388446Y20508292D01*
X84358150Y20533155D01*
X84346625Y20547198D01*
X84329298Y20564525D01*
X84308924Y20578139D01*
X84286285Y20587516D01*
X84262252Y20592296D01*
X84237747Y20592296D01*
X84213714Y20587515D01*
X84191075Y20578138D01*
X84170701Y20564524D01*
X84153375Y20547198D01*
X84141850Y20533155D01*
X84111554Y20508292D01*
X84076995Y20489820D01*
X84039499Y20478445D01*
X83994362Y20474000D01*
X83255638Y20474000D01*
X83210501Y20478445D01*
X83173005Y20489820D01*
X83138446Y20508292D01*
X83108153Y20533153D01*
X83083292Y20563446D01*
X83064820Y20598005D01*
X83053445Y20635501D01*
X83049000Y20680638D01*
X83049000Y21319362D01*
X83053445Y21364499D01*
X83064820Y21401995D01*
X83083292Y21436554D01*
X83108153Y21466847D01*
X83138446Y21491708D01*
X83173005Y21510180D01*
X83210501Y21521555D01*
X83255638Y21526000D01*
X83994362Y21526000D01*
X84039499Y21521555D01*
G37*
G36*
X87039499Y21521555D02*
G01*
X87076995Y21510180D01*
X87111554Y21491708D01*
X87141847Y21466847D01*
X87166708Y21436554D01*
X87185180Y21401995D01*
X87196555Y21364499D01*
X87201000Y21319362D01*
X87201000Y20680638D01*
X87196555Y20635501D01*
X87185180Y20598005D01*
X87166708Y20563446D01*
X87141847Y20533153D01*
X87111554Y20508292D01*
X87076995Y20489820D01*
X87039499Y20478445D01*
X86994362Y20474000D01*
X86255638Y20474000D01*
X86210501Y20478445D01*
X86173005Y20489820D01*
X86138446Y20508292D01*
X86108153Y20533153D01*
X86083292Y20563446D01*
X86064820Y20598005D01*
X86053445Y20635501D01*
X86049000Y20680638D01*
X86049000Y21319362D01*
X86053445Y21364499D01*
X86064820Y21401995D01*
X86083292Y21436554D01*
X86108153Y21466847D01*
X86138446Y21491708D01*
X86173005Y21510180D01*
X86210501Y21521555D01*
X86255638Y21526000D01*
X86994362Y21526000D01*
X87039499Y21521555D01*
G37*
G36*
X74114499Y22321555D02*
G01*
X74151995Y22310180D01*
X74186554Y22291708D01*
X74216847Y22266847D01*
X74241708Y22236554D01*
X74260180Y22201995D01*
X74271555Y22164499D01*
X74276000Y22119362D01*
X74276000Y21380638D01*
X74271555Y21335501D01*
X74260180Y21298005D01*
X74241708Y21263446D01*
X74216847Y21233153D01*
X74186554Y21208292D01*
X74151995Y21189820D01*
X74114499Y21178445D01*
X74069362Y21174000D01*
X73430638Y21174000D01*
X73385501Y21178445D01*
X73348005Y21189820D01*
X73313446Y21208292D01*
X73283153Y21233153D01*
X73258292Y21263446D01*
X73239820Y21298005D01*
X73228445Y21335501D01*
X73224000Y21380638D01*
X73224000Y22119362D01*
X73228445Y22164499D01*
X73239820Y22201995D01*
X73258292Y22236554D01*
X73283153Y22266847D01*
X73313446Y22291708D01*
X73348005Y22310180D01*
X73385501Y22321555D01*
X73430638Y22326000D01*
X74069362Y22326000D01*
X74114499Y22321555D01*
G37*
G36*
X94289499Y22521555D02*
G01*
X94326995Y22510180D01*
X94361554Y22491708D01*
X94391847Y22466847D01*
X94416708Y22436554D01*
X94435180Y22401995D01*
X94446555Y22364499D01*
X94451000Y22319362D01*
X94451000Y21680638D01*
X94446555Y21635501D01*
X94435180Y21598005D01*
X94416708Y21563446D01*
X94391847Y21533153D01*
X94361554Y21508292D01*
X94326995Y21489820D01*
X94289499Y21478445D01*
X94244362Y21474000D01*
X93505638Y21474000D01*
X93460501Y21478445D01*
X93423005Y21489820D01*
X93388446Y21508292D01*
X93358153Y21533153D01*
X93333292Y21563446D01*
X93314820Y21598005D01*
X93303445Y21635501D01*
X93299000Y21680638D01*
X93299000Y22319362D01*
X93303445Y22364499D01*
X93314820Y22401995D01*
X93333292Y22436554D01*
X93358153Y22466847D01*
X93388446Y22491708D01*
X93423005Y22510180D01*
X93460501Y22521555D01*
X93505638Y22526000D01*
X94244362Y22526000D01*
X94289499Y22521555D01*
G37*
G36*
X96039499Y22521555D02*
G01*
X96076995Y22510180D01*
X96111554Y22491708D01*
X96141847Y22466847D01*
X96166708Y22436554D01*
X96185180Y22401995D01*
X96196555Y22364499D01*
X96201000Y22319362D01*
X96201000Y21680638D01*
X96196555Y21635501D01*
X96185180Y21598005D01*
X96166708Y21563446D01*
X96141847Y21533153D01*
X96111554Y21508292D01*
X96076995Y21489820D01*
X96039499Y21478445D01*
X95994362Y21474000D01*
X95255638Y21474000D01*
X95210501Y21478445D01*
X95173005Y21489820D01*
X95138446Y21508292D01*
X95108153Y21533153D01*
X95083292Y21563446D01*
X95064820Y21598005D01*
X95053445Y21635501D01*
X95049000Y21680638D01*
X95049000Y22319362D01*
X95053445Y22364499D01*
X95064820Y22401995D01*
X95083292Y22436554D01*
X95108153Y22466847D01*
X95138446Y22491708D01*
X95173005Y22510180D01*
X95210501Y22521555D01*
X95255638Y22526000D01*
X95994362Y22526000D01*
X96039499Y22521555D01*
G37*
G36*
X51498228Y23318297D02*
G01*
X51653100Y23254147D01*
X51792481Y23161015D01*
X51911015Y23042481D01*
X52004147Y22903100D01*
X52068297Y22748228D01*
X52101000Y22583816D01*
X52101000Y22416184D01*
X52068297Y22251772D01*
X52004147Y22096900D01*
X51911015Y21957519D01*
X51792481Y21838985D01*
X51653100Y21745853D01*
X51498228Y21681703D01*
X51333816Y21649000D01*
X51166184Y21649000D01*
X51001772Y21681703D01*
X50846900Y21745853D01*
X50707519Y21838985D01*
X50588985Y21957519D01*
X50495853Y22096900D01*
X50431703Y22251772D01*
X50399000Y22416184D01*
X50399000Y22583816D01*
X50431703Y22748228D01*
X50495853Y22903100D01*
X50588985Y23042481D01*
X50707519Y23161015D01*
X50846900Y23254147D01*
X51001772Y23318297D01*
X51166184Y23351000D01*
X51333816Y23351000D01*
X51498228Y23318297D01*
G37*
G36*
X47998228Y23318297D02*
G01*
X48153100Y23254147D01*
X48292481Y23161015D01*
X48411015Y23042481D01*
X48504147Y22903100D01*
X48568297Y22748228D01*
X48601000Y22583816D01*
X48601000Y22416184D01*
X48568297Y22251772D01*
X48504147Y22096900D01*
X48411015Y21957519D01*
X48292481Y21838985D01*
X48153100Y21745853D01*
X47998228Y21681703D01*
X47833816Y21649000D01*
X47666184Y21649000D01*
X47501772Y21681703D01*
X47346900Y21745853D01*
X47207519Y21838985D01*
X47088985Y21957519D01*
X46995853Y22096900D01*
X46931703Y22251772D01*
X46899000Y22416184D01*
X46899000Y22583816D01*
X46931703Y22748228D01*
X46995853Y22903100D01*
X47088985Y23042481D01*
X47207519Y23161015D01*
X47346900Y23254147D01*
X47501772Y23318297D01*
X47666184Y23351000D01*
X47833816Y23351000D01*
X47998228Y23318297D01*
G37*
G36*
X57748228Y23318297D02*
G01*
X57903100Y23254147D01*
X58042481Y23161015D01*
X58161015Y23042481D01*
X58254147Y22903100D01*
X58318297Y22748228D01*
X58351000Y22583816D01*
X58351000Y22416184D01*
X58318297Y22251772D01*
X58254147Y22096900D01*
X58161015Y21957519D01*
X58042481Y21838985D01*
X57903100Y21745853D01*
X57748228Y21681703D01*
X57583816Y21649000D01*
X57416184Y21649000D01*
X57251772Y21681703D01*
X57096900Y21745853D01*
X56957519Y21838985D01*
X56838985Y21957519D01*
X56745853Y22096900D01*
X56681703Y22251772D01*
X56649000Y22416184D01*
X56649000Y22583816D01*
X56681703Y22748228D01*
X56745853Y22903100D01*
X56838985Y23042481D01*
X56957519Y23161015D01*
X57096900Y23254147D01*
X57251772Y23318297D01*
X57416184Y23351000D01*
X57583816Y23351000D01*
X57748228Y23318297D01*
G37*
G36*
X105936564Y24210611D02*
G01*
X106113666Y24137253D01*
X106127835Y24131384D01*
X106299973Y24016365D01*
X106446365Y23869973D01*
X106533802Y23739115D01*
X106561385Y23697833D01*
X106640611Y23506564D01*
X106681000Y23303516D01*
X106681000Y23096484D01*
X106640611Y22893436D01*
X106610559Y22820885D01*
X106561384Y22702165D01*
X106446365Y22530027D01*
X106299973Y22383635D01*
X106127835Y22268616D01*
X106127834Y22268615D01*
X106127833Y22268615D01*
X105936564Y22189389D01*
X105733516Y22149000D01*
X105526484Y22149000D01*
X105323436Y22189389D01*
X105132167Y22268615D01*
X105132166Y22268615D01*
X105132165Y22268616D01*
X104960027Y22383635D01*
X104813635Y22530027D01*
X104698616Y22702165D01*
X104649441Y22820885D01*
X104619389Y22893436D01*
X104579000Y23096484D01*
X104579000Y23303516D01*
X104619389Y23506564D01*
X104698615Y23697833D01*
X104726199Y23739115D01*
X104813635Y23869973D01*
X104960027Y24016365D01*
X105132165Y24131384D01*
X105146334Y24137253D01*
X105323436Y24210611D01*
X105526484Y24251000D01*
X105733516Y24251000D01*
X105936564Y24210611D01*
G37*
G36*
X113403512Y24096073D02*
G01*
X113552812Y24066376D01*
X113716784Y23998456D01*
X113864354Y23899853D01*
X113989853Y23774354D01*
X114088456Y23626784D01*
X114156376Y23462812D01*
X114191000Y23288741D01*
X114191000Y23111259D01*
X114156376Y22937188D01*
X114088456Y22773216D01*
X113989853Y22625646D01*
X113864354Y22500147D01*
X113716784Y22401544D01*
X113552812Y22333624D01*
X113403512Y22303927D01*
X113378742Y22299000D01*
X113201258Y22299000D01*
X113176488Y22303927D01*
X113027188Y22333624D01*
X112863216Y22401544D01*
X112715646Y22500147D01*
X112590147Y22625646D01*
X112491544Y22773216D01*
X112423624Y22937188D01*
X112389000Y23111259D01*
X112389000Y23288741D01*
X112423624Y23462812D01*
X112491544Y23626784D01*
X112590147Y23774354D01*
X112715646Y23899853D01*
X112863216Y23998456D01*
X113027188Y24066376D01*
X113176488Y24096073D01*
X113201258Y24101000D01*
X113378742Y24101000D01*
X113403512Y24096073D01*
G37*
G36*
X111651000Y22299000D02*
G01*
X109849000Y22299000D01*
X109849000Y24101000D01*
X111651000Y24101000D01*
X111651000Y22299000D01*
G37*
G36*
X80614499Y23851555D02*
G01*
X80651995Y23840180D01*
X80686554Y23821708D01*
X80716847Y23796847D01*
X80741708Y23766554D01*
X80760180Y23731995D01*
X80771555Y23694499D01*
X80776000Y23649362D01*
X80776000Y22910638D01*
X80771555Y22865501D01*
X80760180Y22828005D01*
X80741708Y22793446D01*
X80716847Y22763153D01*
X80686554Y22738292D01*
X80651995Y22719820D01*
X80614499Y22708445D01*
X80569362Y22704000D01*
X79930638Y22704000D01*
X79885501Y22708445D01*
X79848005Y22719820D01*
X79813446Y22738292D01*
X79783153Y22763153D01*
X79758292Y22793446D01*
X79739820Y22828005D01*
X79728445Y22865501D01*
X79724000Y22910638D01*
X79724000Y23649362D01*
X79728445Y23694499D01*
X79739820Y23731995D01*
X79758292Y23766554D01*
X79783153Y23796847D01*
X79813446Y23821708D01*
X79848005Y23840180D01*
X79885501Y23851555D01*
X79930638Y23856000D01*
X80569362Y23856000D01*
X80614499Y23851555D01*
G37*
G36*
X94289499Y25271555D02*
G01*
X94326995Y25260180D01*
X94361554Y25241708D01*
X94391847Y25216847D01*
X94416708Y25186554D01*
X94435180Y25151995D01*
X94446555Y25114499D01*
X94451000Y25069362D01*
X94451000Y24430638D01*
X94446555Y24385501D01*
X94435180Y24348005D01*
X94416708Y24313446D01*
X94391847Y24283153D01*
X94361554Y24258292D01*
X94318426Y24235240D01*
X94298051Y24221626D01*
X94280724Y24204300D01*
X94267110Y24183925D01*
X94257733Y24161287D01*
X94252952Y24137253D01*
X94252952Y24112749D01*
X94257732Y24088716D01*
X94267109Y24066077D01*
X94280723Y24045702D01*
X94298049Y24028375D01*
X94318426Y24014760D01*
X94361554Y23991708D01*
X94391847Y23966847D01*
X94416708Y23936554D01*
X94435180Y23901995D01*
X94446555Y23864499D01*
X94451000Y23819362D01*
X94451000Y23180638D01*
X94446555Y23135501D01*
X94435180Y23098005D01*
X94416708Y23063446D01*
X94391847Y23033153D01*
X94361554Y23008292D01*
X94326995Y22989820D01*
X94289499Y22978445D01*
X94244362Y22974000D01*
X93505638Y22974000D01*
X93460501Y22978445D01*
X93423005Y22989820D01*
X93388446Y23008292D01*
X93358153Y23033153D01*
X93333292Y23063446D01*
X93314820Y23098005D01*
X93303445Y23135501D01*
X93299000Y23180638D01*
X93299000Y23819362D01*
X93303445Y23864499D01*
X93314820Y23901995D01*
X93333292Y23936554D01*
X93358153Y23966847D01*
X93388446Y23991708D01*
X93431574Y24014760D01*
X93451949Y24028374D01*
X93469276Y24045700D01*
X93482890Y24066075D01*
X93492267Y24088713D01*
X93497048Y24112747D01*
X93497048Y24137251D01*
X93492268Y24161284D01*
X93482891Y24183923D01*
X93469277Y24204298D01*
X93451951Y24221625D01*
X93431574Y24235240D01*
X93388446Y24258292D01*
X93358153Y24283153D01*
X93333292Y24313446D01*
X93314820Y24348005D01*
X93303445Y24385501D01*
X93299000Y24430638D01*
X93299000Y25069362D01*
X93303445Y25114499D01*
X93314820Y25151995D01*
X93333292Y25186554D01*
X93358153Y25216847D01*
X93388446Y25241708D01*
X93423005Y25260180D01*
X93460501Y25271555D01*
X93505638Y25276000D01*
X94244362Y25276000D01*
X94289499Y25271555D01*
G37*
G36*
X96039499Y25271555D02*
G01*
X96076995Y25260180D01*
X96111554Y25241708D01*
X96141847Y25216847D01*
X96166708Y25186554D01*
X96185180Y25151995D01*
X96196555Y25114499D01*
X96201000Y25069362D01*
X96201000Y24430638D01*
X96196555Y24385501D01*
X96185180Y24348005D01*
X96166708Y24313446D01*
X96141847Y24283153D01*
X96111554Y24258292D01*
X96068426Y24235240D01*
X96048051Y24221626D01*
X96030724Y24204300D01*
X96017110Y24183925D01*
X96007733Y24161287D01*
X96002952Y24137253D01*
X96002952Y24112749D01*
X96007732Y24088716D01*
X96017109Y24066077D01*
X96030723Y24045702D01*
X96048049Y24028375D01*
X96068426Y24014760D01*
X96111554Y23991708D01*
X96141847Y23966847D01*
X96166708Y23936554D01*
X96185180Y23901995D01*
X96196555Y23864499D01*
X96201000Y23819362D01*
X96201000Y23180638D01*
X96196555Y23135501D01*
X96185180Y23098005D01*
X96166708Y23063446D01*
X96141847Y23033153D01*
X96111554Y23008292D01*
X96076995Y22989820D01*
X96039499Y22978445D01*
X95994362Y22974000D01*
X95255638Y22974000D01*
X95210501Y22978445D01*
X95173005Y22989820D01*
X95138446Y23008292D01*
X95108153Y23033153D01*
X95083292Y23063446D01*
X95064820Y23098005D01*
X95053445Y23135501D01*
X95049000Y23180638D01*
X95049000Y23819362D01*
X95053445Y23864499D01*
X95064820Y23901995D01*
X95083292Y23936554D01*
X95108153Y23966847D01*
X95138446Y23991708D01*
X95181574Y24014760D01*
X95201949Y24028374D01*
X95219276Y24045700D01*
X95232890Y24066075D01*
X95242267Y24088713D01*
X95247048Y24112747D01*
X95247048Y24137251D01*
X95242268Y24161284D01*
X95232891Y24183923D01*
X95219277Y24204298D01*
X95201951Y24221625D01*
X95181574Y24235240D01*
X95138446Y24258292D01*
X95108153Y24283153D01*
X95083292Y24313446D01*
X95064820Y24348005D01*
X95053445Y24385501D01*
X95049000Y24430638D01*
X95049000Y25069362D01*
X95053445Y25114499D01*
X95064820Y25151995D01*
X95083292Y25186554D01*
X95108153Y25216847D01*
X95138446Y25241708D01*
X95173005Y25260180D01*
X95210501Y25271555D01*
X95255638Y25276000D01*
X95994362Y25276000D01*
X96039499Y25271555D01*
G37*
G36*
X85170295Y25124677D02*
G01*
X85177309Y25122549D01*
X85191077Y25115190D01*
X85213716Y25105813D01*
X85237749Y25101033D01*
X85262253Y25101033D01*
X85286286Y25105814D01*
X85308923Y25115190D01*
X85322691Y25122549D01*
X85329705Y25124677D01*
X85343140Y25126000D01*
X85656860Y25126000D01*
X85670295Y25124677D01*
X85677309Y25122549D01*
X85691077Y25115190D01*
X85713716Y25105813D01*
X85737749Y25101033D01*
X85762253Y25101033D01*
X85786286Y25105814D01*
X85808923Y25115190D01*
X85822691Y25122549D01*
X85829705Y25124677D01*
X85843140Y25126000D01*
X86156860Y25126000D01*
X86170295Y25124677D01*
X86177309Y25122549D01*
X86191077Y25115190D01*
X86213716Y25105813D01*
X86237749Y25101033D01*
X86262253Y25101033D01*
X86286286Y25105814D01*
X86308923Y25115190D01*
X86322691Y25122549D01*
X86329705Y25124677D01*
X86343140Y25126000D01*
X86656860Y25126000D01*
X86670295Y25124677D01*
X86677309Y25122549D01*
X86691077Y25115190D01*
X86713716Y25105813D01*
X86737749Y25101033D01*
X86762253Y25101033D01*
X86786286Y25105814D01*
X86808923Y25115190D01*
X86822691Y25122549D01*
X86829705Y25124677D01*
X86843140Y25126000D01*
X87156860Y25126000D01*
X87170295Y25124677D01*
X87177309Y25122549D01*
X87191077Y25115190D01*
X87213716Y25105813D01*
X87237749Y25101033D01*
X87262253Y25101033D01*
X87286286Y25105814D01*
X87308923Y25115190D01*
X87322691Y25122549D01*
X87329705Y25124677D01*
X87343140Y25126000D01*
X87656860Y25126000D01*
X87670295Y25124677D01*
X87677309Y25122549D01*
X87691077Y25115190D01*
X87713716Y25105813D01*
X87737749Y25101033D01*
X87762253Y25101033D01*
X87786286Y25105814D01*
X87808923Y25115190D01*
X87822691Y25122549D01*
X87829705Y25124677D01*
X87843140Y25126000D01*
X88156860Y25126000D01*
X88170295Y25124677D01*
X88177309Y25122549D01*
X88191077Y25115190D01*
X88213716Y25105813D01*
X88237749Y25101033D01*
X88262253Y25101033D01*
X88286286Y25105814D01*
X88308923Y25115190D01*
X88322691Y25122549D01*
X88329705Y25124677D01*
X88343140Y25126000D01*
X88656860Y25126000D01*
X88670295Y25124677D01*
X88677310Y25122549D01*
X88683776Y25119092D01*
X88689442Y25114442D01*
X88694092Y25108776D01*
X88697549Y25102310D01*
X88699677Y25095295D01*
X88701000Y25081860D01*
X88701000Y23568140D01*
X88699677Y23554705D01*
X88697549Y23547690D01*
X88694092Y23541224D01*
X88689442Y23535558D01*
X88683776Y23530908D01*
X88677310Y23527451D01*
X88670295Y23525323D01*
X88656860Y23524000D01*
X88343140Y23524000D01*
X88329705Y23525323D01*
X88322691Y23527451D01*
X88308923Y23534810D01*
X88286284Y23544187D01*
X88262251Y23548967D01*
X88237747Y23548967D01*
X88213714Y23544186D01*
X88191077Y23534810D01*
X88177309Y23527451D01*
X88170295Y23525323D01*
X88156860Y23524000D01*
X87843140Y23524000D01*
X87829705Y23525323D01*
X87822691Y23527451D01*
X87808923Y23534810D01*
X87786284Y23544187D01*
X87762251Y23548967D01*
X87737747Y23548967D01*
X87713714Y23544186D01*
X87691077Y23534810D01*
X87677309Y23527451D01*
X87670295Y23525323D01*
X87656860Y23524000D01*
X87343140Y23524000D01*
X87329705Y23525323D01*
X87322691Y23527451D01*
X87308923Y23534810D01*
X87286284Y23544187D01*
X87262251Y23548967D01*
X87237747Y23548967D01*
X87213714Y23544186D01*
X87191077Y23534810D01*
X87177309Y23527451D01*
X87170295Y23525323D01*
X87156860Y23524000D01*
X86843140Y23524000D01*
X86829705Y23525323D01*
X86822691Y23527451D01*
X86808923Y23534810D01*
X86786284Y23544187D01*
X86762251Y23548967D01*
X86737747Y23548967D01*
X86713714Y23544186D01*
X86691077Y23534810D01*
X86677309Y23527451D01*
X86670295Y23525323D01*
X86656860Y23524000D01*
X86343140Y23524000D01*
X86329705Y23525323D01*
X86322691Y23527451D01*
X86308923Y23534810D01*
X86286284Y23544187D01*
X86262251Y23548967D01*
X86237747Y23548967D01*
X86213714Y23544186D01*
X86191077Y23534810D01*
X86177309Y23527451D01*
X86170295Y23525323D01*
X86156860Y23524000D01*
X85843140Y23524000D01*
X85829705Y23525323D01*
X85822691Y23527451D01*
X85808923Y23534810D01*
X85786284Y23544187D01*
X85762251Y23548967D01*
X85737747Y23548967D01*
X85713714Y23544186D01*
X85691077Y23534810D01*
X85677309Y23527451D01*
X85670295Y23525323D01*
X85656860Y23524000D01*
X85343140Y23524000D01*
X85329705Y23525323D01*
X85322691Y23527451D01*
X85308923Y23534810D01*
X85286284Y23544187D01*
X85262251Y23548967D01*
X85237747Y23548967D01*
X85213714Y23544186D01*
X85191077Y23534810D01*
X85177309Y23527451D01*
X85170295Y23525323D01*
X85156860Y23524000D01*
X84843140Y23524000D01*
X84829705Y23525323D01*
X84822690Y23527451D01*
X84816224Y23530908D01*
X84810558Y23535558D01*
X84805908Y23541224D01*
X84802451Y23547690D01*
X84800323Y23554705D01*
X84799000Y23568140D01*
X84799000Y25081860D01*
X84800323Y25095295D01*
X84802451Y25102310D01*
X84805908Y25108776D01*
X84810558Y25114442D01*
X84816224Y25119092D01*
X84822690Y25122549D01*
X84829705Y25124677D01*
X84843140Y25126000D01*
X85156860Y25126000D01*
X85170295Y25124677D01*
G37*
G36*
X80614499Y25601555D02*
G01*
X80651995Y25590180D01*
X80686554Y25571708D01*
X80716847Y25546847D01*
X80741708Y25516554D01*
X80760180Y25481995D01*
X80771555Y25444499D01*
X80776000Y25399362D01*
X80776000Y24660638D01*
X80771555Y24615501D01*
X80760180Y24578005D01*
X80741708Y24543446D01*
X80716847Y24513153D01*
X80686554Y24488292D01*
X80651995Y24469820D01*
X80614499Y24458445D01*
X80569362Y24454000D01*
X79930638Y24454000D01*
X79885501Y24458445D01*
X79848005Y24469820D01*
X79813446Y24488292D01*
X79783153Y24513153D01*
X79758292Y24543446D01*
X79739820Y24578005D01*
X79728445Y24615501D01*
X79724000Y24660638D01*
X79724000Y25399362D01*
X79728445Y25444499D01*
X79739820Y25481995D01*
X79758292Y25516554D01*
X79783153Y25546847D01*
X79813446Y25571708D01*
X79848005Y25590180D01*
X79885501Y25601555D01*
X79930638Y25606000D01*
X80569362Y25606000D01*
X80614499Y25601555D01*
G37*
G36*
X113403512Y26636073D02*
G01*
X113552812Y26606376D01*
X113716784Y26538456D01*
X113864354Y26439853D01*
X113989853Y26314354D01*
X114088456Y26166784D01*
X114156376Y26002812D01*
X114175566Y25906335D01*
X114188585Y25840885D01*
X114191000Y25828741D01*
X114191000Y25651259D01*
X114156376Y25477188D01*
X114088456Y25313216D01*
X113989853Y25165646D01*
X113864354Y25040147D01*
X113716784Y24941544D01*
X113552812Y24873624D01*
X113403512Y24843927D01*
X113378742Y24839000D01*
X113201258Y24839000D01*
X113176488Y24843927D01*
X113027188Y24873624D01*
X112863216Y24941544D01*
X112715646Y25040147D01*
X112590147Y25165646D01*
X112491544Y25313216D01*
X112423624Y25477188D01*
X112389000Y25651259D01*
X112389000Y25828741D01*
X112391416Y25840885D01*
X112404434Y25906335D01*
X112423624Y26002812D01*
X112491544Y26166784D01*
X112590147Y26314354D01*
X112715646Y26439853D01*
X112863216Y26538456D01*
X113027188Y26606376D01*
X113176488Y26636073D01*
X113201258Y26641000D01*
X113378742Y26641000D01*
X113403512Y26636073D01*
G37*
G36*
X110863512Y26636073D02*
G01*
X111012812Y26606376D01*
X111176784Y26538456D01*
X111324354Y26439853D01*
X111449853Y26314354D01*
X111548456Y26166784D01*
X111616376Y26002812D01*
X111635566Y25906335D01*
X111648585Y25840885D01*
X111651000Y25828741D01*
X111651000Y25651259D01*
X111616376Y25477188D01*
X111548456Y25313216D01*
X111449853Y25165646D01*
X111324354Y25040147D01*
X111176784Y24941544D01*
X111012812Y24873624D01*
X110863512Y24843927D01*
X110838742Y24839000D01*
X110661258Y24839000D01*
X110636488Y24843927D01*
X110487188Y24873624D01*
X110323216Y24941544D01*
X110175646Y25040147D01*
X110050147Y25165646D01*
X109951544Y25313216D01*
X109883624Y25477188D01*
X109849000Y25651259D01*
X109849000Y25828741D01*
X109851416Y25840885D01*
X109864434Y25906335D01*
X109883624Y26002812D01*
X109951544Y26166784D01*
X110050147Y26314354D01*
X110175646Y26439853D01*
X110323216Y26538456D01*
X110487188Y26606376D01*
X110636488Y26636073D01*
X110661258Y26641000D01*
X110838742Y26641000D01*
X110863512Y26636073D01*
G37*
G36*
X66806564Y27260611D02*
G01*
X66997833Y27181385D01*
X66997835Y27181384D01*
X67169973Y27066365D01*
X67316365Y26919973D01*
X67430606Y26749000D01*
X67431385Y26747833D01*
X67510611Y26556564D01*
X67551000Y26353516D01*
X67551000Y26146484D01*
X67510611Y25943436D01*
X67451625Y25801031D01*
X67431384Y25752165D01*
X67316365Y25580027D01*
X67169973Y25433635D01*
X66997835Y25318616D01*
X66997834Y25318615D01*
X66997833Y25318615D01*
X66806564Y25239389D01*
X66603516Y25199000D01*
X66396484Y25199000D01*
X66193436Y25239389D01*
X66002167Y25318615D01*
X66002166Y25318615D01*
X66002165Y25318616D01*
X65830027Y25433635D01*
X65683635Y25580027D01*
X65568616Y25752165D01*
X65548375Y25801031D01*
X65489389Y25943436D01*
X65449000Y26146484D01*
X65449000Y26353516D01*
X65489389Y26556564D01*
X65568615Y26747833D01*
X65569395Y26749000D01*
X65683635Y26919973D01*
X65830027Y27066365D01*
X66002165Y27181384D01*
X66002167Y27181385D01*
X66193436Y27260611D01*
X66396484Y27301000D01*
X66603516Y27301000D01*
X66806564Y27260611D01*
G37*
G36*
X84345295Y29449677D02*
G01*
X84352310Y29447549D01*
X84358776Y29444092D01*
X84364442Y29439442D01*
X84369092Y29433776D01*
X84372549Y29427310D01*
X84374677Y29420295D01*
X84376000Y29406860D01*
X84376000Y29093140D01*
X84374677Y29079705D01*
X84372549Y29072691D01*
X84365190Y29058923D01*
X84355813Y29036284D01*
X84351033Y29012251D01*
X84351033Y28987747D01*
X84355814Y28963714D01*
X84365190Y28941077D01*
X84372549Y28927309D01*
X84374677Y28920295D01*
X84376000Y28906860D01*
X84376000Y28593140D01*
X84374677Y28579705D01*
X84372549Y28572691D01*
X84365190Y28558923D01*
X84355813Y28536284D01*
X84351033Y28512251D01*
X84351033Y28487747D01*
X84355814Y28463714D01*
X84365190Y28441077D01*
X84372549Y28427309D01*
X84374677Y28420295D01*
X84376000Y28406860D01*
X84376000Y28093140D01*
X84374677Y28079705D01*
X84372549Y28072691D01*
X84365190Y28058923D01*
X84355813Y28036284D01*
X84351033Y28012251D01*
X84351033Y27987747D01*
X84355814Y27963714D01*
X84365190Y27941077D01*
X84372549Y27927309D01*
X84374677Y27920295D01*
X84376000Y27906860D01*
X84376000Y27593140D01*
X84374677Y27579705D01*
X84372549Y27572691D01*
X84365190Y27558923D01*
X84355813Y27536284D01*
X84351033Y27512251D01*
X84351033Y27487747D01*
X84355814Y27463714D01*
X84365190Y27441077D01*
X84372549Y27427309D01*
X84374677Y27420295D01*
X84376000Y27406860D01*
X84376000Y27093140D01*
X84374677Y27079705D01*
X84372549Y27072691D01*
X84365190Y27058923D01*
X84355813Y27036284D01*
X84351033Y27012251D01*
X84351033Y26987747D01*
X84355814Y26963714D01*
X84365190Y26941077D01*
X84372549Y26927309D01*
X84374677Y26920295D01*
X84376000Y26906860D01*
X84376000Y26593140D01*
X84374677Y26579705D01*
X84372549Y26572691D01*
X84365190Y26558923D01*
X84355813Y26536284D01*
X84351033Y26512251D01*
X84351033Y26487747D01*
X84355814Y26463714D01*
X84365190Y26441077D01*
X84372549Y26427309D01*
X84374677Y26420295D01*
X84376000Y26406860D01*
X84376000Y26093140D01*
X84374677Y26079705D01*
X84372549Y26072691D01*
X84365190Y26058923D01*
X84355813Y26036284D01*
X84351033Y26012251D01*
X84351033Y25987747D01*
X84355814Y25963714D01*
X84365190Y25941077D01*
X84372549Y25927309D01*
X84374677Y25920295D01*
X84376000Y25906860D01*
X84376000Y25593140D01*
X84374677Y25579705D01*
X84372549Y25572690D01*
X84369092Y25566224D01*
X84364442Y25560558D01*
X84358776Y25555908D01*
X84352310Y25552451D01*
X84345295Y25550323D01*
X84331860Y25549000D01*
X82818140Y25549000D01*
X82804705Y25550323D01*
X82797690Y25552451D01*
X82791224Y25555908D01*
X82785558Y25560558D01*
X82780908Y25566224D01*
X82777451Y25572690D01*
X82775323Y25579705D01*
X82774000Y25593140D01*
X82774000Y25906860D01*
X82775323Y25920295D01*
X82777451Y25927309D01*
X82784810Y25941077D01*
X82794187Y25963716D01*
X82798967Y25987749D01*
X82798967Y26012253D01*
X82794186Y26036286D01*
X82784810Y26058923D01*
X82777451Y26072691D01*
X82775323Y26079705D01*
X82774000Y26093140D01*
X82774000Y26406860D01*
X82775323Y26420295D01*
X82777451Y26427309D01*
X82784810Y26441077D01*
X82794187Y26463716D01*
X82798967Y26487749D01*
X82798967Y26512253D01*
X82794186Y26536286D01*
X82784810Y26558923D01*
X82777451Y26572691D01*
X82775323Y26579705D01*
X82774000Y26593140D01*
X82774000Y26906860D01*
X82775323Y26920295D01*
X82777451Y26927309D01*
X82784810Y26941077D01*
X82794187Y26963716D01*
X82798967Y26987749D01*
X82798967Y27012253D01*
X82794186Y27036286D01*
X82784810Y27058923D01*
X82777451Y27072691D01*
X82775323Y27079705D01*
X82774000Y27093140D01*
X82774000Y27406860D01*
X82775323Y27420295D01*
X82777451Y27427309D01*
X82784810Y27441077D01*
X82794187Y27463716D01*
X82798967Y27487749D01*
X82798967Y27512253D01*
X82794186Y27536286D01*
X82784810Y27558923D01*
X82777451Y27572691D01*
X82775323Y27579705D01*
X82774000Y27593140D01*
X82774000Y27906860D01*
X82775323Y27920295D01*
X82777451Y27927309D01*
X82784810Y27941077D01*
X82794187Y27963716D01*
X82798967Y27987749D01*
X82798967Y28012253D01*
X82794186Y28036286D01*
X82784810Y28058923D01*
X82777451Y28072691D01*
X82775323Y28079705D01*
X82774000Y28093140D01*
X82774000Y28406860D01*
X82775323Y28420295D01*
X82777451Y28427309D01*
X82784810Y28441077D01*
X82794187Y28463716D01*
X82798967Y28487749D01*
X82798967Y28512253D01*
X82794186Y28536286D01*
X82784810Y28558923D01*
X82777451Y28572691D01*
X82775323Y28579705D01*
X82774000Y28593140D01*
X82774000Y28906860D01*
X82775323Y28920295D01*
X82777451Y28927309D01*
X82784810Y28941077D01*
X82794187Y28963716D01*
X82798967Y28987749D01*
X82798967Y29012253D01*
X82794186Y29036286D01*
X82784810Y29058923D01*
X82777451Y29072691D01*
X82775323Y29079705D01*
X82774000Y29093140D01*
X82774000Y29406860D01*
X82775323Y29420295D01*
X82777451Y29427310D01*
X82780908Y29433776D01*
X82785558Y29439442D01*
X82791224Y29444092D01*
X82797690Y29447549D01*
X82804705Y29449677D01*
X82818140Y29451000D01*
X84331860Y29451000D01*
X84345295Y29449677D01*
G37*
G36*
X90695295Y29449677D02*
G01*
X90702310Y29447549D01*
X90708776Y29444092D01*
X90714442Y29439442D01*
X90719092Y29433776D01*
X90722549Y29427310D01*
X90724677Y29420295D01*
X90726000Y29406860D01*
X90726000Y29093140D01*
X90724677Y29079705D01*
X90722549Y29072691D01*
X90715190Y29058923D01*
X90705813Y29036284D01*
X90701033Y29012251D01*
X90701033Y28987747D01*
X90705814Y28963714D01*
X90715190Y28941077D01*
X90722549Y28927309D01*
X90724677Y28920295D01*
X90726000Y28906860D01*
X90726000Y28593140D01*
X90724677Y28579705D01*
X90722549Y28572691D01*
X90715190Y28558923D01*
X90705813Y28536284D01*
X90701033Y28512251D01*
X90701033Y28487747D01*
X90705814Y28463714D01*
X90715190Y28441077D01*
X90722549Y28427309D01*
X90724677Y28420295D01*
X90726000Y28406860D01*
X90726000Y28093140D01*
X90724677Y28079705D01*
X90722549Y28072691D01*
X90715190Y28058923D01*
X90705813Y28036284D01*
X90701033Y28012251D01*
X90701033Y27987747D01*
X90705814Y27963714D01*
X90715190Y27941077D01*
X90722549Y27927309D01*
X90724677Y27920295D01*
X90726000Y27906860D01*
X90726000Y27593140D01*
X90724677Y27579705D01*
X90722549Y27572691D01*
X90715190Y27558923D01*
X90705813Y27536284D01*
X90701033Y27512251D01*
X90701033Y27487747D01*
X90705814Y27463714D01*
X90715190Y27441077D01*
X90722549Y27427309D01*
X90724677Y27420295D01*
X90726000Y27406860D01*
X90726000Y27093140D01*
X90724677Y27079705D01*
X90722549Y27072691D01*
X90715190Y27058923D01*
X90705813Y27036284D01*
X90701033Y27012251D01*
X90701033Y26987747D01*
X90705814Y26963714D01*
X90715190Y26941077D01*
X90722549Y26927309D01*
X90724677Y26920295D01*
X90726000Y26906860D01*
X90726000Y26593140D01*
X90724677Y26579705D01*
X90722549Y26572691D01*
X90715190Y26558923D01*
X90705813Y26536284D01*
X90701033Y26512251D01*
X90701033Y26487747D01*
X90705814Y26463714D01*
X90715190Y26441077D01*
X90722549Y26427309D01*
X90724677Y26420295D01*
X90726000Y26406860D01*
X90726000Y26093140D01*
X90724677Y26079705D01*
X90722549Y26072691D01*
X90715190Y26058923D01*
X90705813Y26036284D01*
X90701033Y26012251D01*
X90701033Y25987747D01*
X90705814Y25963714D01*
X90715190Y25941077D01*
X90722549Y25927309D01*
X90724677Y25920295D01*
X90726000Y25906860D01*
X90726000Y25593140D01*
X90724677Y25579705D01*
X90722549Y25572690D01*
X90719092Y25566224D01*
X90714442Y25560558D01*
X90708776Y25555908D01*
X90702310Y25552451D01*
X90695295Y25550323D01*
X90681860Y25549000D01*
X89168140Y25549000D01*
X89154705Y25550323D01*
X89147690Y25552451D01*
X89141224Y25555908D01*
X89135558Y25560558D01*
X89130908Y25566224D01*
X89127451Y25572690D01*
X89125323Y25579705D01*
X89124000Y25593140D01*
X89124000Y25906860D01*
X89125323Y25920295D01*
X89127451Y25927309D01*
X89134810Y25941077D01*
X89144187Y25963716D01*
X89148967Y25987749D01*
X89148967Y26012253D01*
X89144186Y26036286D01*
X89134810Y26058923D01*
X89127451Y26072691D01*
X89125323Y26079705D01*
X89124000Y26093140D01*
X89124000Y26406860D01*
X89125323Y26420295D01*
X89127451Y26427309D01*
X89134810Y26441077D01*
X89144187Y26463716D01*
X89148967Y26487749D01*
X89148967Y26512253D01*
X89144186Y26536286D01*
X89134810Y26558923D01*
X89127451Y26572691D01*
X89125323Y26579705D01*
X89124000Y26593140D01*
X89124000Y26906860D01*
X89125323Y26920295D01*
X89127451Y26927309D01*
X89134810Y26941077D01*
X89144187Y26963716D01*
X89148967Y26987749D01*
X89148967Y27012253D01*
X89144186Y27036286D01*
X89134810Y27058923D01*
X89127451Y27072691D01*
X89125323Y27079705D01*
X89124000Y27093140D01*
X89124000Y27406860D01*
X89125323Y27420295D01*
X89127451Y27427309D01*
X89134810Y27441077D01*
X89144187Y27463716D01*
X89148967Y27487749D01*
X89148967Y27512253D01*
X89144186Y27536286D01*
X89134810Y27558923D01*
X89127451Y27572691D01*
X89125323Y27579705D01*
X89124000Y27593140D01*
X89124000Y27906860D01*
X89125323Y27920295D01*
X89127451Y27927309D01*
X89134810Y27941077D01*
X89144187Y27963716D01*
X89148967Y27987749D01*
X89148967Y28012253D01*
X89144186Y28036286D01*
X89134810Y28058923D01*
X89127451Y28072691D01*
X89125323Y28079705D01*
X89124000Y28093140D01*
X89124000Y28406860D01*
X89125323Y28420295D01*
X89127451Y28427309D01*
X89134810Y28441077D01*
X89144187Y28463716D01*
X89148967Y28487749D01*
X89148967Y28512253D01*
X89144186Y28536286D01*
X89134810Y28558923D01*
X89127451Y28572691D01*
X89125323Y28579705D01*
X89124000Y28593140D01*
X89124000Y28906860D01*
X89125323Y28920295D01*
X89127451Y28927309D01*
X89134810Y28941077D01*
X89144187Y28963716D01*
X89148967Y28987749D01*
X89148967Y29012253D01*
X89144186Y29036286D01*
X89134810Y29058923D01*
X89127451Y29072691D01*
X89125323Y29079705D01*
X89124000Y29093140D01*
X89124000Y29406860D01*
X89125323Y29420295D01*
X89127451Y29427310D01*
X89130908Y29433776D01*
X89135558Y29439442D01*
X89141224Y29444092D01*
X89147690Y29447549D01*
X89154705Y29449677D01*
X89168140Y29451000D01*
X90681860Y29451000D01*
X90695295Y29449677D01*
G37*
G36*
X71914499Y26771555D02*
G01*
X71951995Y26760180D01*
X71986554Y26741708D01*
X72016847Y26716847D01*
X72041708Y26686554D01*
X72060180Y26651995D01*
X72071555Y26614499D01*
X72076000Y26569362D01*
X72076000Y25930638D01*
X72071555Y25885501D01*
X72060180Y25848005D01*
X72041708Y25813446D01*
X72016847Y25783153D01*
X71986554Y25758292D01*
X71951995Y25739820D01*
X71914499Y25728445D01*
X71869362Y25724000D01*
X71130638Y25724000D01*
X71085501Y25728445D01*
X71048005Y25739820D01*
X71013446Y25758292D01*
X70983153Y25783153D01*
X70958292Y25813446D01*
X70939820Y25848005D01*
X70928445Y25885501D01*
X70924000Y25930638D01*
X70924000Y26569362D01*
X70928445Y26614499D01*
X70939820Y26651995D01*
X70958292Y26686554D01*
X70983153Y26716847D01*
X71013446Y26741708D01*
X71048005Y26760180D01*
X71085501Y26771555D01*
X71130638Y26776000D01*
X71869362Y26776000D01*
X71914499Y26771555D01*
G37*
G36*
X70164499Y26771555D02*
G01*
X70201995Y26760180D01*
X70236554Y26741708D01*
X70266847Y26716847D01*
X70291708Y26686554D01*
X70310180Y26651995D01*
X70321555Y26614499D01*
X70326000Y26569362D01*
X70326000Y25930638D01*
X70321555Y25885501D01*
X70310180Y25848005D01*
X70291708Y25813446D01*
X70266847Y25783153D01*
X70236554Y25758292D01*
X70201995Y25739820D01*
X70164499Y25728445D01*
X70119362Y25724000D01*
X69380638Y25724000D01*
X69335501Y25728445D01*
X69298005Y25739820D01*
X69263446Y25758292D01*
X69233153Y25783153D01*
X69208292Y25813446D01*
X69189820Y25848005D01*
X69178445Y25885501D01*
X69174000Y25930638D01*
X69174000Y26569362D01*
X69178445Y26614499D01*
X69189820Y26651995D01*
X69208292Y26686554D01*
X69233153Y26716847D01*
X69263446Y26741708D01*
X69298005Y26760180D01*
X69335501Y26771555D01*
X69380638Y26776000D01*
X70119362Y26776000D01*
X70164499Y26771555D01*
G37*
G36*
X62451000Y26749000D02*
G01*
X60049000Y26749000D01*
X60049000Y30351000D01*
X62451000Y30351000D01*
X62451000Y26749000D01*
G37*
G36*
X105936564Y29290611D02*
G01*
X106127833Y29211385D01*
X106127835Y29211384D01*
X106299973Y29096365D01*
X106446365Y28949973D01*
X106523979Y28833816D01*
X106561385Y28777833D01*
X106640611Y28586564D01*
X106681000Y28383516D01*
X106681000Y28176484D01*
X106640611Y27973436D01*
X106568357Y27799000D01*
X106561384Y27782165D01*
X106446365Y27610027D01*
X106299973Y27463635D01*
X106127835Y27348616D01*
X106127834Y27348615D01*
X106127833Y27348615D01*
X105936564Y27269389D01*
X105733516Y27229000D01*
X105526484Y27229000D01*
X105323436Y27269389D01*
X105132167Y27348615D01*
X105132166Y27348615D01*
X105132165Y27348616D01*
X104960027Y27463635D01*
X104813635Y27610027D01*
X104698616Y27782165D01*
X104691643Y27799000D01*
X104619389Y27973436D01*
X104579000Y28176484D01*
X104579000Y28383516D01*
X104619389Y28586564D01*
X104698615Y28777833D01*
X104736022Y28833816D01*
X104813635Y28949973D01*
X104960027Y29096365D01*
X105132165Y29211384D01*
X105132167Y29211385D01*
X105323436Y29290611D01*
X105526484Y29331000D01*
X105733516Y29331000D01*
X105936564Y29290611D01*
G37*
G36*
X113403512Y29176073D02*
G01*
X113552812Y29146376D01*
X113716784Y29078456D01*
X113864354Y28979853D01*
X113989853Y28854354D01*
X114088456Y28706784D01*
X114156376Y28542812D01*
X114191000Y28368741D01*
X114191000Y28191259D01*
X114156376Y28017188D01*
X114088456Y27853216D01*
X113989853Y27705646D01*
X113864354Y27580147D01*
X113716784Y27481544D01*
X113552812Y27413624D01*
X113403512Y27383927D01*
X113378742Y27379000D01*
X113201258Y27379000D01*
X113176488Y27383927D01*
X113027188Y27413624D01*
X112863216Y27481544D01*
X112715646Y27580147D01*
X112590147Y27705646D01*
X112491544Y27853216D01*
X112423624Y28017188D01*
X112389000Y28191259D01*
X112389000Y28368741D01*
X112423624Y28542812D01*
X112491544Y28706784D01*
X112590147Y28854354D01*
X112715646Y28979853D01*
X112863216Y29078456D01*
X113027188Y29146376D01*
X113176488Y29176073D01*
X113201258Y29181000D01*
X113378742Y29181000D01*
X113403512Y29176073D01*
G37*
G36*
X110863512Y29176073D02*
G01*
X111012812Y29146376D01*
X111176784Y29078456D01*
X111324354Y28979853D01*
X111449853Y28854354D01*
X111548456Y28706784D01*
X111616376Y28542812D01*
X111651000Y28368741D01*
X111651000Y28191259D01*
X111616376Y28017188D01*
X111548456Y27853216D01*
X111449853Y27705646D01*
X111324354Y27580147D01*
X111176784Y27481544D01*
X111012812Y27413624D01*
X110863512Y27383927D01*
X110838742Y27379000D01*
X110661258Y27379000D01*
X110636488Y27383927D01*
X110487188Y27413624D01*
X110323216Y27481544D01*
X110175646Y27580147D01*
X110050147Y27705646D01*
X109951544Y27853216D01*
X109883624Y28017188D01*
X109849000Y28191259D01*
X109849000Y28368741D01*
X109883624Y28542812D01*
X109951544Y28706784D01*
X110050147Y28854354D01*
X110175646Y28979853D01*
X110323216Y29078456D01*
X110487188Y29146376D01*
X110636488Y29176073D01*
X110661258Y29181000D01*
X110838742Y29181000D01*
X110863512Y29176073D01*
G37*
G36*
X96039499Y28771555D02*
G01*
X96076995Y28760180D01*
X96111554Y28741708D01*
X96141847Y28716847D01*
X96166708Y28686554D01*
X96185180Y28651995D01*
X96196555Y28614499D01*
X96201000Y28569362D01*
X96201000Y27930638D01*
X96196555Y27885501D01*
X96185180Y27848005D01*
X96166708Y27813446D01*
X96141847Y27783153D01*
X96111554Y27758292D01*
X96076995Y27739820D01*
X96039499Y27728445D01*
X95994362Y27724000D01*
X95255638Y27724000D01*
X95210501Y27728445D01*
X95173005Y27739820D01*
X95138446Y27758292D01*
X95108153Y27783153D01*
X95083292Y27813446D01*
X95064820Y27848005D01*
X95053445Y27885501D01*
X95049000Y27930638D01*
X95049000Y28569362D01*
X95053445Y28614499D01*
X95064820Y28651995D01*
X95083292Y28686554D01*
X95108153Y28716847D01*
X95138446Y28741708D01*
X95173005Y28760180D01*
X95210501Y28771555D01*
X95255638Y28776000D01*
X95994362Y28776000D01*
X96039499Y28771555D01*
G37*
G36*
X94289499Y28771555D02*
G01*
X94326995Y28760180D01*
X94361554Y28741708D01*
X94391847Y28716847D01*
X94416708Y28686554D01*
X94435180Y28651995D01*
X94446555Y28614499D01*
X94451000Y28569362D01*
X94451000Y27930638D01*
X94446555Y27885501D01*
X94435180Y27848005D01*
X94416708Y27813446D01*
X94391847Y27783153D01*
X94361554Y27758292D01*
X94326995Y27739820D01*
X94289499Y27728445D01*
X94244362Y27724000D01*
X93505638Y27724000D01*
X93460501Y27728445D01*
X93423005Y27739820D01*
X93388446Y27758292D01*
X93358153Y27783153D01*
X93333292Y27813446D01*
X93314820Y27848005D01*
X93303445Y27885501D01*
X93299000Y27930638D01*
X93299000Y28569362D01*
X93303445Y28614499D01*
X93314820Y28651995D01*
X93333292Y28686554D01*
X93358153Y28716847D01*
X93388446Y28741708D01*
X93423005Y28760180D01*
X93460501Y28771555D01*
X93505638Y28776000D01*
X94244362Y28776000D01*
X94289499Y28771555D01*
G37*
G36*
X71864499Y28946555D02*
G01*
X71901995Y28935180D01*
X71936554Y28916708D01*
X71966847Y28891847D01*
X71991708Y28861554D01*
X72010180Y28826995D01*
X72021555Y28789499D01*
X72026000Y28744362D01*
X72026000Y28005638D01*
X72021555Y27960501D01*
X72010180Y27923005D01*
X71991708Y27888446D01*
X71966847Y27858153D01*
X71936554Y27833292D01*
X71901995Y27814820D01*
X71864499Y27803445D01*
X71819362Y27799000D01*
X71180638Y27799000D01*
X71135501Y27803445D01*
X71098005Y27814820D01*
X71063446Y27833292D01*
X71033153Y27858153D01*
X71008292Y27888446D01*
X70989820Y27923005D01*
X70978445Y27960501D01*
X70974000Y28005638D01*
X70974000Y28744362D01*
X70978445Y28789499D01*
X70989820Y28826995D01*
X71008292Y28861554D01*
X71033153Y28891847D01*
X71063446Y28916708D01*
X71098005Y28935180D01*
X71135501Y28946555D01*
X71180638Y28951000D01*
X71819362Y28951000D01*
X71864499Y28946555D01*
G37*
G36*
X47588228Y29568297D02*
G01*
X47743100Y29504147D01*
X47882481Y29411015D01*
X48001015Y29292481D01*
X48094147Y29153100D01*
X48158297Y28998228D01*
X48191000Y28833816D01*
X48191000Y28666184D01*
X48158297Y28501772D01*
X48094147Y28346900D01*
X48001015Y28207519D01*
X47882481Y28088985D01*
X47743100Y27995853D01*
X47588228Y27931703D01*
X47423816Y27899000D01*
X47256184Y27899000D01*
X47091772Y27931703D01*
X46936900Y27995853D01*
X46797519Y28088985D01*
X46678985Y28207519D01*
X46585853Y28346900D01*
X46521703Y28501772D01*
X46489000Y28666184D01*
X46489000Y28833816D01*
X46521703Y28998228D01*
X46585853Y29153100D01*
X46678985Y29292481D01*
X46797519Y29411015D01*
X46936900Y29504147D01*
X47091772Y29568297D01*
X47256184Y29601000D01*
X47423816Y29601000D01*
X47588228Y29568297D01*
G37*
G36*
X57748228Y29568297D02*
G01*
X57903100Y29504147D01*
X58042481Y29411015D01*
X58161015Y29292481D01*
X58254147Y29153100D01*
X58318297Y28998228D01*
X58351000Y28833816D01*
X58351000Y28666184D01*
X58318297Y28501772D01*
X58254147Y28346900D01*
X58161015Y28207519D01*
X58042481Y28088985D01*
X57903100Y27995853D01*
X57748228Y27931703D01*
X57583816Y27899000D01*
X57416184Y27899000D01*
X57251772Y27931703D01*
X57096900Y27995853D01*
X56957519Y28088985D01*
X56838985Y28207519D01*
X56745853Y28346900D01*
X56681703Y28501772D01*
X56649000Y28666184D01*
X56649000Y28833816D01*
X56681703Y28998228D01*
X56745853Y29153100D01*
X56838985Y29292481D01*
X56957519Y29411015D01*
X57096900Y29504147D01*
X57251772Y29568297D01*
X57416184Y29601000D01*
X57583816Y29601000D01*
X57748228Y29568297D01*
G37*
G36*
X80614499Y30571555D02*
G01*
X80651995Y30560180D01*
X80686554Y30541708D01*
X80716847Y30516847D01*
X80741708Y30486554D01*
X80760180Y30451995D01*
X80771555Y30414499D01*
X80776000Y30369362D01*
X80776000Y29630638D01*
X80771555Y29585501D01*
X80760180Y29548005D01*
X80741708Y29513446D01*
X80716847Y29483153D01*
X80686554Y29458292D01*
X80651995Y29439820D01*
X80614499Y29428445D01*
X80569362Y29424000D01*
X79930638Y29424000D01*
X79885501Y29428445D01*
X79848005Y29439820D01*
X79813446Y29458292D01*
X79783153Y29483153D01*
X79758292Y29513446D01*
X79739820Y29548005D01*
X79728445Y29585501D01*
X79724000Y29630638D01*
X79724000Y30369362D01*
X79728445Y30414499D01*
X79739820Y30451995D01*
X79758292Y30486554D01*
X79783153Y30516847D01*
X79813446Y30541708D01*
X79848005Y30560180D01*
X79885501Y30571555D01*
X79930638Y30576000D01*
X80569362Y30576000D01*
X80614499Y30571555D01*
G37*
G36*
X71864499Y30696555D02*
G01*
X71901995Y30685180D01*
X71936554Y30666708D01*
X71966847Y30641847D01*
X71991708Y30611554D01*
X72010180Y30576995D01*
X72021555Y30539499D01*
X72026000Y30494362D01*
X72026000Y29755638D01*
X72021555Y29710501D01*
X72010180Y29673005D01*
X71991708Y29638446D01*
X71966847Y29608153D01*
X71936554Y29583292D01*
X71901995Y29564820D01*
X71864499Y29553445D01*
X71819362Y29549000D01*
X71180638Y29549000D01*
X71135501Y29553445D01*
X71098005Y29564820D01*
X71063446Y29583292D01*
X71033153Y29608153D01*
X71008292Y29638446D01*
X70989820Y29673005D01*
X70978445Y29710501D01*
X70974000Y29755638D01*
X70974000Y30494362D01*
X70978445Y30539499D01*
X70989820Y30576995D01*
X71008292Y30611554D01*
X71033153Y30641847D01*
X71063446Y30666708D01*
X71098005Y30685180D01*
X71135501Y30696555D01*
X71180638Y30701000D01*
X71819362Y30701000D01*
X71864499Y30696555D01*
G37*
G36*
X100896564Y31830611D02*
G01*
X101087833Y31751385D01*
X101087835Y31751384D01*
X101259973Y31636365D01*
X101406365Y31489973D01*
X101470256Y31394354D01*
X101521385Y31317833D01*
X101600611Y31126564D01*
X101641000Y30923516D01*
X101641000Y30716484D01*
X101600611Y30513436D01*
X101530148Y30343323D01*
X101521384Y30322165D01*
X101406365Y30150027D01*
X101259973Y30003635D01*
X101087835Y29888616D01*
X101087834Y29888615D01*
X101087833Y29888615D01*
X100896564Y29809389D01*
X100693516Y29769000D01*
X100486484Y29769000D01*
X100283436Y29809389D01*
X100092167Y29888615D01*
X100092166Y29888615D01*
X100092165Y29888616D01*
X99920027Y30003635D01*
X99773635Y30150027D01*
X99658616Y30322165D01*
X99649852Y30343323D01*
X99579389Y30513436D01*
X99539000Y30716484D01*
X99539000Y30923516D01*
X99579389Y31126564D01*
X99658615Y31317833D01*
X99709745Y31394354D01*
X99773635Y31489973D01*
X99920027Y31636365D01*
X100092165Y31751384D01*
X100092167Y31751385D01*
X100283436Y31830611D01*
X100486484Y31871000D01*
X100693516Y31871000D01*
X100896564Y31830611D01*
G37*
G36*
X85170295Y31474677D02*
G01*
X85177309Y31472549D01*
X85191077Y31465190D01*
X85213716Y31455813D01*
X85237749Y31451033D01*
X85262253Y31451033D01*
X85286286Y31455814D01*
X85308923Y31465190D01*
X85322691Y31472549D01*
X85329705Y31474677D01*
X85343140Y31476000D01*
X85656860Y31476000D01*
X85670295Y31474677D01*
X85677309Y31472549D01*
X85691077Y31465190D01*
X85713716Y31455813D01*
X85737749Y31451033D01*
X85762253Y31451033D01*
X85786286Y31455814D01*
X85808923Y31465190D01*
X85822691Y31472549D01*
X85829705Y31474677D01*
X85843140Y31476000D01*
X86156860Y31476000D01*
X86170295Y31474677D01*
X86177309Y31472549D01*
X86191077Y31465190D01*
X86213716Y31455813D01*
X86237749Y31451033D01*
X86262253Y31451033D01*
X86286286Y31455814D01*
X86308923Y31465190D01*
X86322691Y31472549D01*
X86329705Y31474677D01*
X86343140Y31476000D01*
X86656860Y31476000D01*
X86670295Y31474677D01*
X86677309Y31472549D01*
X86691077Y31465190D01*
X86713716Y31455813D01*
X86737749Y31451033D01*
X86762253Y31451033D01*
X86786286Y31455814D01*
X86808923Y31465190D01*
X86822691Y31472549D01*
X86829705Y31474677D01*
X86843140Y31476000D01*
X87156860Y31476000D01*
X87170295Y31474677D01*
X87177309Y31472549D01*
X87191077Y31465190D01*
X87213716Y31455813D01*
X87237749Y31451033D01*
X87262253Y31451033D01*
X87286286Y31455814D01*
X87308923Y31465190D01*
X87322691Y31472549D01*
X87329705Y31474677D01*
X87343140Y31476000D01*
X87656860Y31476000D01*
X87670295Y31474677D01*
X87677309Y31472549D01*
X87691077Y31465190D01*
X87713716Y31455813D01*
X87737749Y31451033D01*
X87762253Y31451033D01*
X87786286Y31455814D01*
X87808923Y31465190D01*
X87822691Y31472549D01*
X87829705Y31474677D01*
X87843140Y31476000D01*
X88156860Y31476000D01*
X88170295Y31474677D01*
X88177309Y31472549D01*
X88191077Y31465190D01*
X88213716Y31455813D01*
X88237749Y31451033D01*
X88262253Y31451033D01*
X88286286Y31455814D01*
X88308923Y31465190D01*
X88322691Y31472549D01*
X88329705Y31474677D01*
X88343140Y31476000D01*
X88656860Y31476000D01*
X88670295Y31474677D01*
X88677310Y31472549D01*
X88683776Y31469092D01*
X88689442Y31464442D01*
X88694092Y31458776D01*
X88697549Y31452310D01*
X88699677Y31445295D01*
X88701000Y31431860D01*
X88701000Y29918140D01*
X88699677Y29904705D01*
X88697549Y29897690D01*
X88694092Y29891224D01*
X88689442Y29885558D01*
X88683776Y29880908D01*
X88677310Y29877451D01*
X88670295Y29875323D01*
X88656860Y29874000D01*
X88343140Y29874000D01*
X88329705Y29875323D01*
X88322691Y29877451D01*
X88308923Y29884810D01*
X88286284Y29894187D01*
X88262251Y29898967D01*
X88237747Y29898967D01*
X88213714Y29894186D01*
X88191077Y29884810D01*
X88177309Y29877451D01*
X88170295Y29875323D01*
X88156860Y29874000D01*
X87843140Y29874000D01*
X87829705Y29875323D01*
X87822691Y29877451D01*
X87808923Y29884810D01*
X87786284Y29894187D01*
X87762251Y29898967D01*
X87737747Y29898967D01*
X87713714Y29894186D01*
X87691077Y29884810D01*
X87677309Y29877451D01*
X87670295Y29875323D01*
X87656860Y29874000D01*
X87343140Y29874000D01*
X87329705Y29875323D01*
X87322691Y29877451D01*
X87308923Y29884810D01*
X87286284Y29894187D01*
X87262251Y29898967D01*
X87237747Y29898967D01*
X87213714Y29894186D01*
X87191077Y29884810D01*
X87177309Y29877451D01*
X87170295Y29875323D01*
X87156860Y29874000D01*
X86843140Y29874000D01*
X86829705Y29875323D01*
X86822691Y29877451D01*
X86808923Y29884810D01*
X86786284Y29894187D01*
X86762251Y29898967D01*
X86737747Y29898967D01*
X86713714Y29894186D01*
X86691077Y29884810D01*
X86677309Y29877451D01*
X86670295Y29875323D01*
X86656860Y29874000D01*
X86343140Y29874000D01*
X86329705Y29875323D01*
X86322691Y29877451D01*
X86308923Y29884810D01*
X86286284Y29894187D01*
X86262251Y29898967D01*
X86237747Y29898967D01*
X86213714Y29894186D01*
X86191077Y29884810D01*
X86177309Y29877451D01*
X86170295Y29875323D01*
X86156860Y29874000D01*
X85843140Y29874000D01*
X85829705Y29875323D01*
X85822691Y29877451D01*
X85808923Y29884810D01*
X85786284Y29894187D01*
X85762251Y29898967D01*
X85737747Y29898967D01*
X85713714Y29894186D01*
X85691077Y29884810D01*
X85677309Y29877451D01*
X85670295Y29875323D01*
X85656860Y29874000D01*
X85343140Y29874000D01*
X85329705Y29875323D01*
X85322691Y29877451D01*
X85308923Y29884810D01*
X85286284Y29894187D01*
X85262251Y29898967D01*
X85237747Y29898967D01*
X85213714Y29894186D01*
X85191077Y29884810D01*
X85177309Y29877451D01*
X85170295Y29875323D01*
X85156860Y29874000D01*
X84843140Y29874000D01*
X84829705Y29875323D01*
X84822690Y29877451D01*
X84816224Y29880908D01*
X84810558Y29885558D01*
X84805908Y29891224D01*
X84802451Y29897690D01*
X84800323Y29904705D01*
X84799000Y29918140D01*
X84799000Y31431860D01*
X84800323Y31445295D01*
X84802451Y31452310D01*
X84805908Y31458776D01*
X84810558Y31464442D01*
X84816224Y31469092D01*
X84822690Y31472549D01*
X84829705Y31474677D01*
X84843140Y31476000D01*
X85156860Y31476000D01*
X85170295Y31474677D01*
G37*
G36*
X113403512Y31716073D02*
G01*
X113552812Y31686376D01*
X113716784Y31618456D01*
X113864354Y31519853D01*
X113989853Y31394354D01*
X114088456Y31246784D01*
X114156376Y31082812D01*
X114191000Y30908741D01*
X114191000Y30731259D01*
X114156376Y30557188D01*
X114088456Y30393216D01*
X113989853Y30245646D01*
X113864354Y30120147D01*
X113716784Y30021544D01*
X113552812Y29953624D01*
X113403512Y29923927D01*
X113378742Y29919000D01*
X113201258Y29919000D01*
X113176488Y29923927D01*
X113027188Y29953624D01*
X112863216Y30021544D01*
X112715646Y30120147D01*
X112590147Y30245646D01*
X112491544Y30393216D01*
X112423624Y30557188D01*
X112389000Y30731259D01*
X112389000Y30908741D01*
X112423624Y31082812D01*
X112491544Y31246784D01*
X112590147Y31394354D01*
X112715646Y31519853D01*
X112863216Y31618456D01*
X113027188Y31686376D01*
X113176488Y31716073D01*
X113201258Y31721000D01*
X113378742Y31721000D01*
X113403512Y31716073D01*
G37*
G36*
X110863512Y31716073D02*
G01*
X111012812Y31686376D01*
X111176784Y31618456D01*
X111324354Y31519853D01*
X111449853Y31394354D01*
X111548456Y31246784D01*
X111616376Y31082812D01*
X111651000Y30908741D01*
X111651000Y30731259D01*
X111616376Y30557188D01*
X111548456Y30393216D01*
X111449853Y30245646D01*
X111324354Y30120147D01*
X111176784Y30021544D01*
X111012812Y29953624D01*
X110863512Y29923927D01*
X110838742Y29919000D01*
X110661258Y29919000D01*
X110636488Y29923927D01*
X110487188Y29953624D01*
X110323216Y30021544D01*
X110175646Y30120147D01*
X110050147Y30245646D01*
X109951544Y30393216D01*
X109883624Y30557188D01*
X109849000Y30731259D01*
X109849000Y30908741D01*
X109883624Y31082812D01*
X109951544Y31246784D01*
X110050147Y31394354D01*
X110175646Y31519853D01*
X110323216Y31618456D01*
X110487188Y31686376D01*
X110636488Y31716073D01*
X110661258Y31721000D01*
X110838742Y31721000D01*
X110863512Y31716073D01*
G37*
G36*
X94114499Y31446555D02*
G01*
X94151995Y31435180D01*
X94186554Y31416708D01*
X94216847Y31391847D01*
X94241708Y31361554D01*
X94260180Y31326995D01*
X94271555Y31289499D01*
X94276000Y31244362D01*
X94276000Y30505638D01*
X94271555Y30460501D01*
X94260180Y30423005D01*
X94241708Y30388446D01*
X94216847Y30358153D01*
X94186554Y30333292D01*
X94151995Y30314820D01*
X94114499Y30303445D01*
X94069362Y30299000D01*
X93430638Y30299000D01*
X93385501Y30303445D01*
X93348005Y30314820D01*
X93313446Y30333292D01*
X93283153Y30358153D01*
X93258292Y30388446D01*
X93239820Y30423005D01*
X93228445Y30460501D01*
X93224000Y30505638D01*
X93224000Y31244362D01*
X93228445Y31289499D01*
X93239820Y31326995D01*
X93258292Y31361554D01*
X93283153Y31391847D01*
X93313446Y31416708D01*
X93348005Y31435180D01*
X93385501Y31446555D01*
X93430638Y31451000D01*
X94069362Y31451000D01*
X94114499Y31446555D01*
G37*
G36*
X96114499Y31446555D02*
G01*
X96151995Y31435180D01*
X96186554Y31416708D01*
X96216847Y31391847D01*
X96241708Y31361554D01*
X96260180Y31326995D01*
X96271555Y31289499D01*
X96276000Y31244362D01*
X96276000Y30505638D01*
X96271555Y30460501D01*
X96260180Y30423005D01*
X96241708Y30388446D01*
X96216847Y30358153D01*
X96186554Y30333292D01*
X96151995Y30314820D01*
X96114499Y30303445D01*
X96069362Y30299000D01*
X95430638Y30299000D01*
X95385501Y30303445D01*
X95348005Y30314820D01*
X95313446Y30333292D01*
X95283153Y30358153D01*
X95258292Y30388446D01*
X95239820Y30423005D01*
X95228445Y30460501D01*
X95224000Y30505638D01*
X95224000Y31244362D01*
X95228445Y31289499D01*
X95239820Y31326995D01*
X95258292Y31361554D01*
X95283153Y31391847D01*
X95313446Y31416708D01*
X95348005Y31435180D01*
X95385501Y31446555D01*
X95430638Y31451000D01*
X96069362Y31451000D01*
X96114499Y31446555D01*
G37*
G36*
X14651000Y30349000D02*
G01*
X12849000Y30349000D01*
X12849000Y32151000D01*
X14651000Y32151000D01*
X14651000Y30349000D01*
G37*
G36*
X45248228Y32068297D02*
G01*
X45403100Y32004147D01*
X45542481Y31911015D01*
X45661015Y31792481D01*
X45754147Y31653100D01*
X45818297Y31498228D01*
X45851000Y31333816D01*
X45851000Y31166184D01*
X45818297Y31001772D01*
X45754147Y30846900D01*
X45661015Y30707519D01*
X45542481Y30588985D01*
X45403100Y30495853D01*
X45248228Y30431703D01*
X45083816Y30399000D01*
X44916184Y30399000D01*
X44751772Y30431703D01*
X44596900Y30495853D01*
X44457519Y30588985D01*
X44338985Y30707519D01*
X44245853Y30846900D01*
X44181703Y31001772D01*
X44149000Y31166184D01*
X44149000Y31333816D01*
X44181703Y31498228D01*
X44245853Y31653100D01*
X44338985Y31792481D01*
X44457519Y31911015D01*
X44596900Y32004147D01*
X44751772Y32068297D01*
X44916184Y32101000D01*
X45083816Y32101000D01*
X45248228Y32068297D01*
G37*
G36*
X30248228Y32068297D02*
G01*
X30403100Y32004147D01*
X30542481Y31911015D01*
X30661015Y31792481D01*
X30754147Y31653100D01*
X30818297Y31498228D01*
X30851000Y31333816D01*
X30851000Y31166184D01*
X30818297Y31001772D01*
X30754147Y30846900D01*
X30661015Y30707519D01*
X30542481Y30588985D01*
X30403100Y30495853D01*
X30248228Y30431703D01*
X30083816Y30399000D01*
X29916184Y30399000D01*
X29751772Y30431703D01*
X29596900Y30495853D01*
X29457519Y30588985D01*
X29338985Y30707519D01*
X29245853Y30846900D01*
X29181703Y31001772D01*
X29149000Y31166184D01*
X29149000Y31333816D01*
X29181703Y31498228D01*
X29245853Y31653100D01*
X29338985Y31792481D01*
X29457519Y31911015D01*
X29596900Y32004147D01*
X29751772Y32068297D01*
X29916184Y32101000D01*
X30083816Y32101000D01*
X30248228Y32068297D01*
G37*
G36*
X17548228Y32068297D02*
G01*
X17703100Y32004147D01*
X17842481Y31911015D01*
X17961015Y31792481D01*
X18054147Y31653100D01*
X18118297Y31498228D01*
X18151000Y31333816D01*
X18151000Y31166184D01*
X18118297Y31001772D01*
X18054147Y30846900D01*
X17961015Y30707519D01*
X17842481Y30588985D01*
X17703100Y30495853D01*
X17548228Y30431703D01*
X17383816Y30399000D01*
X17216184Y30399000D01*
X17051772Y30431703D01*
X16896900Y30495853D01*
X16757519Y30588985D01*
X16638985Y30707519D01*
X16545853Y30846900D01*
X16481703Y31001772D01*
X16449000Y31166184D01*
X16449000Y31333816D01*
X16481703Y31498228D01*
X16545853Y31653100D01*
X16638985Y31792481D01*
X16757519Y31911015D01*
X16896900Y32004147D01*
X17051772Y32068297D01*
X17216184Y32101000D01*
X17383816Y32101000D01*
X17548228Y32068297D01*
G37*
G36*
X32548228Y32068297D02*
G01*
X32703100Y32004147D01*
X32842481Y31911015D01*
X32961015Y31792481D01*
X33054147Y31653100D01*
X33118297Y31498228D01*
X33151000Y31333816D01*
X33151000Y31166184D01*
X33118297Y31001772D01*
X33054147Y30846900D01*
X32961015Y30707519D01*
X32842481Y30588985D01*
X32703100Y30495853D01*
X32548228Y30431703D01*
X32383816Y30399000D01*
X32216184Y30399000D01*
X32051772Y30431703D01*
X31896900Y30495853D01*
X31757519Y30588985D01*
X31638985Y30707519D01*
X31545853Y30846900D01*
X31481703Y31001772D01*
X31449000Y31166184D01*
X31449000Y31333816D01*
X31481703Y31498228D01*
X31545853Y31653100D01*
X31638985Y31792481D01*
X31757519Y31911015D01*
X31896900Y32004147D01*
X32051772Y32068297D01*
X32216184Y32101000D01*
X32383816Y32101000D01*
X32548228Y32068297D01*
G37*
G36*
X80614499Y32321555D02*
G01*
X80651995Y32310180D01*
X80686554Y32291708D01*
X80716847Y32266847D01*
X80741708Y32236554D01*
X80760180Y32201995D01*
X80771555Y32164499D01*
X80776000Y32119362D01*
X80776000Y31380638D01*
X80771555Y31335501D01*
X80760180Y31298005D01*
X80741708Y31263446D01*
X80716847Y31233153D01*
X80686554Y31208292D01*
X80651995Y31189820D01*
X80614499Y31178445D01*
X80569362Y31174000D01*
X79930638Y31174000D01*
X79885501Y31178445D01*
X79848005Y31189820D01*
X79813446Y31208292D01*
X79783153Y31233153D01*
X79758292Y31263446D01*
X79739820Y31298005D01*
X79728445Y31335501D01*
X79724000Y31380638D01*
X79724000Y32119362D01*
X79728445Y32164499D01*
X79739820Y32201995D01*
X79758292Y32236554D01*
X79783153Y32266847D01*
X79813446Y32291708D01*
X79848005Y32310180D01*
X79885501Y32321555D01*
X79930638Y32326000D01*
X80569362Y32326000D01*
X80614499Y32321555D01*
G37*
G36*
X57748228Y33318297D02*
G01*
X57903100Y33254147D01*
X58042481Y33161015D01*
X58161015Y33042481D01*
X58254147Y32903100D01*
X58318297Y32748228D01*
X58351000Y32583816D01*
X58351000Y32416184D01*
X58318297Y32251772D01*
X58254147Y32096900D01*
X58161015Y31957519D01*
X58042481Y31838985D01*
X57903100Y31745853D01*
X57748228Y31681703D01*
X57583816Y31649000D01*
X57416184Y31649000D01*
X57251772Y31681703D01*
X57096900Y31745853D01*
X56957519Y31838985D01*
X56838985Y31957519D01*
X56745853Y32096900D01*
X56681703Y32251772D01*
X56649000Y32416184D01*
X56649000Y32583816D01*
X56681703Y32748228D01*
X56745853Y32903100D01*
X56838985Y33042481D01*
X56957519Y33161015D01*
X57096900Y33254147D01*
X57251772Y33318297D01*
X57416184Y33351000D01*
X57583816Y33351000D01*
X57748228Y33318297D01*
G37*
G36*
X94114499Y33196555D02*
G01*
X94151995Y33185180D01*
X94186554Y33166708D01*
X94216847Y33141847D01*
X94241708Y33111554D01*
X94260180Y33076995D01*
X94271555Y33039499D01*
X94276000Y32994362D01*
X94276000Y32255638D01*
X94271555Y32210501D01*
X94260180Y32173005D01*
X94241708Y32138446D01*
X94216847Y32108153D01*
X94186554Y32083292D01*
X94151995Y32064820D01*
X94114499Y32053445D01*
X94069362Y32049000D01*
X93430638Y32049000D01*
X93385501Y32053445D01*
X93348005Y32064820D01*
X93313446Y32083292D01*
X93283153Y32108153D01*
X93258292Y32138446D01*
X93239820Y32173005D01*
X93228445Y32210501D01*
X93224000Y32255638D01*
X93224000Y32994362D01*
X93228445Y33039499D01*
X93239820Y33076995D01*
X93258292Y33111554D01*
X93283153Y33141847D01*
X93313446Y33166708D01*
X93348005Y33185180D01*
X93385501Y33196555D01*
X93430638Y33201000D01*
X94069362Y33201000D01*
X94114499Y33196555D01*
G37*
G36*
X96114499Y33196555D02*
G01*
X96151995Y33185180D01*
X96186554Y33166708D01*
X96216847Y33141847D01*
X96241708Y33111554D01*
X96260180Y33076995D01*
X96271555Y33039499D01*
X96276000Y32994362D01*
X96276000Y32255638D01*
X96271555Y32210501D01*
X96260180Y32173005D01*
X96241708Y32138446D01*
X96216847Y32108153D01*
X96186554Y32083292D01*
X96151995Y32064820D01*
X96114499Y32053445D01*
X96069362Y32049000D01*
X95430638Y32049000D01*
X95385501Y32053445D01*
X95348005Y32064820D01*
X95313446Y32083292D01*
X95283153Y32108153D01*
X95258292Y32138446D01*
X95239820Y32173005D01*
X95228445Y32210501D01*
X95224000Y32255638D01*
X95224000Y32994362D01*
X95228445Y33039499D01*
X95239820Y33076995D01*
X95258292Y33111554D01*
X95283153Y33141847D01*
X95313446Y33166708D01*
X95348005Y33185180D01*
X95385501Y33196555D01*
X95430638Y33201000D01*
X96069362Y33201000D01*
X96114499Y33196555D01*
G37*
G36*
X62451000Y32149000D02*
G01*
X60049000Y32149000D01*
X60049000Y35751000D01*
X62451000Y35751000D01*
X62451000Y32149000D01*
G37*
G36*
X105936564Y34370611D02*
G01*
X106127833Y34291385D01*
X106127835Y34291384D01*
X106299973Y34176365D01*
X106446365Y34029973D01*
X106546148Y33880638D01*
X106561385Y33857833D01*
X106640611Y33666564D01*
X106681000Y33463516D01*
X106681000Y33256484D01*
X106640611Y33053436D01*
X106561385Y32862167D01*
X106561384Y32862165D01*
X106446365Y32690027D01*
X106299973Y32543635D01*
X106127835Y32428616D01*
X106127834Y32428615D01*
X106127833Y32428615D01*
X105936564Y32349389D01*
X105733516Y32309000D01*
X105526484Y32309000D01*
X105323436Y32349389D01*
X105132167Y32428615D01*
X105132166Y32428615D01*
X105132165Y32428616D01*
X104960027Y32543635D01*
X104813635Y32690027D01*
X104698616Y32862165D01*
X104698615Y32862167D01*
X104619389Y33053436D01*
X104579000Y33256484D01*
X104579000Y33463516D01*
X104619389Y33666564D01*
X104698615Y33857833D01*
X104713853Y33880638D01*
X104813635Y34029973D01*
X104960027Y34176365D01*
X105132165Y34291384D01*
X105132167Y34291385D01*
X105323436Y34370611D01*
X105526484Y34411000D01*
X105733516Y34411000D01*
X105936564Y34370611D01*
G37*
G36*
X110863512Y34256073D02*
G01*
X111012812Y34226376D01*
X111176784Y34158456D01*
X111324354Y34059853D01*
X111449853Y33934354D01*
X111548456Y33786784D01*
X111616376Y33622812D01*
X111646073Y33473512D01*
X111651000Y33448742D01*
X111651000Y33271258D01*
X111647202Y33252165D01*
X111616376Y33097188D01*
X111548456Y32933216D01*
X111449853Y32785646D01*
X111324354Y32660147D01*
X111176784Y32561544D01*
X111012812Y32493624D01*
X110863512Y32463927D01*
X110838742Y32459000D01*
X110661258Y32459000D01*
X110636488Y32463927D01*
X110487188Y32493624D01*
X110323216Y32561544D01*
X110175646Y32660147D01*
X110050147Y32785646D01*
X109951544Y32933216D01*
X109883624Y33097188D01*
X109852798Y33252165D01*
X109849000Y33271258D01*
X109849000Y33448742D01*
X109853927Y33473512D01*
X109883624Y33622812D01*
X109951544Y33786784D01*
X110050147Y33934354D01*
X110175646Y34059853D01*
X110323216Y34158456D01*
X110487188Y34226376D01*
X110636488Y34256073D01*
X110661258Y34261000D01*
X110838742Y34261000D01*
X110863512Y34256073D01*
G37*
G36*
X113403512Y34256073D02*
G01*
X113552812Y34226376D01*
X113716784Y34158456D01*
X113864354Y34059853D01*
X113989853Y33934354D01*
X114088456Y33786784D01*
X114156376Y33622812D01*
X114186073Y33473512D01*
X114191000Y33448742D01*
X114191000Y33271258D01*
X114187202Y33252165D01*
X114156376Y33097188D01*
X114088456Y32933216D01*
X113989853Y32785646D01*
X113864354Y32660147D01*
X113716784Y32561544D01*
X113552812Y32493624D01*
X113403512Y32463927D01*
X113378742Y32459000D01*
X113201258Y32459000D01*
X113176488Y32463927D01*
X113027188Y32493624D01*
X112863216Y32561544D01*
X112715646Y32660147D01*
X112590147Y32785646D01*
X112491544Y32933216D01*
X112423624Y33097188D01*
X112392798Y33252165D01*
X112389000Y33271258D01*
X112389000Y33448742D01*
X112393927Y33473512D01*
X112423624Y33622812D01*
X112491544Y33786784D01*
X112590147Y33934354D01*
X112715646Y34059853D01*
X112863216Y34158456D01*
X113027188Y34226376D01*
X113176488Y34256073D01*
X113201258Y34261000D01*
X113378742Y34261000D01*
X113403512Y34256073D01*
G37*
G36*
X66806564Y34760611D02*
G01*
X66997833Y34681385D01*
X66997835Y34681384D01*
X67090657Y34619362D01*
X67169973Y34566365D01*
X67316365Y34419973D01*
X67431385Y34247833D01*
X67510611Y34056564D01*
X67551000Y33853516D01*
X67551000Y33646484D01*
X67510611Y33443436D01*
X67432205Y33254147D01*
X67431384Y33252165D01*
X67316365Y33080027D01*
X67169973Y32933635D01*
X66997835Y32818616D01*
X66997834Y32818615D01*
X66997833Y32818615D01*
X66806564Y32739389D01*
X66603516Y32699000D01*
X66396484Y32699000D01*
X66193436Y32739389D01*
X66002167Y32818615D01*
X66002166Y32818615D01*
X66002165Y32818616D01*
X65830027Y32933635D01*
X65683635Y33080027D01*
X65568616Y33252165D01*
X65567795Y33254147D01*
X65489389Y33443436D01*
X65449000Y33646484D01*
X65449000Y33853516D01*
X65489389Y34056564D01*
X65568615Y34247833D01*
X65683635Y34419973D01*
X65830027Y34566365D01*
X65909343Y34619362D01*
X66002165Y34681384D01*
X66002167Y34681385D01*
X66193436Y34760611D01*
X66396484Y34801000D01*
X66603516Y34801000D01*
X66806564Y34760611D01*
G37*
G36*
X90114499Y34821555D02*
G01*
X90151995Y34810180D01*
X90186554Y34791708D01*
X90216847Y34766847D01*
X90241708Y34736554D01*
X90260180Y34701995D01*
X90271555Y34664499D01*
X90276000Y34619362D01*
X90276000Y33880638D01*
X90271555Y33835501D01*
X90260180Y33798005D01*
X90241708Y33763446D01*
X90216847Y33733153D01*
X90186554Y33708292D01*
X90151995Y33689820D01*
X90114499Y33678445D01*
X90069362Y33674000D01*
X89430638Y33674000D01*
X89385501Y33678445D01*
X89348005Y33689820D01*
X89313446Y33708292D01*
X89283153Y33733153D01*
X89258292Y33763446D01*
X89239820Y33798005D01*
X89228445Y33835501D01*
X89224000Y33880638D01*
X89224000Y34619362D01*
X89228445Y34664499D01*
X89239820Y34701995D01*
X89258292Y34736554D01*
X89283153Y34766847D01*
X89313446Y34791708D01*
X89348005Y34810180D01*
X89385501Y34821555D01*
X89430638Y34826000D01*
X90069362Y34826000D01*
X90114499Y34821555D01*
G37*
G36*
X91614499Y34821555D02*
G01*
X91651995Y34810180D01*
X91686554Y34791708D01*
X91716847Y34766847D01*
X91741708Y34736554D01*
X91760180Y34701995D01*
X91771555Y34664499D01*
X91776000Y34619362D01*
X91776000Y33880638D01*
X91771555Y33835501D01*
X91760180Y33798005D01*
X91741708Y33763446D01*
X91716847Y33733153D01*
X91686554Y33708292D01*
X91651995Y33689820D01*
X91614499Y33678445D01*
X91569362Y33674000D01*
X90930638Y33674000D01*
X90885501Y33678445D01*
X90848005Y33689820D01*
X90813446Y33708292D01*
X90783153Y33733153D01*
X90758292Y33763446D01*
X90739820Y33798005D01*
X90728445Y33835501D01*
X90724000Y33880638D01*
X90724000Y34619362D01*
X90728445Y34664499D01*
X90739820Y34701995D01*
X90758292Y34736554D01*
X90783153Y34766847D01*
X90813446Y34791708D01*
X90848005Y34810180D01*
X90885501Y34821555D01*
X90930638Y34826000D01*
X91569362Y34826000D01*
X91614499Y34821555D01*
G37*
G36*
X87614499Y34821555D02*
G01*
X87651995Y34810180D01*
X87686554Y34791708D01*
X87716847Y34766847D01*
X87741708Y34736554D01*
X87760180Y34701995D01*
X87771555Y34664499D01*
X87776000Y34619362D01*
X87776000Y33880638D01*
X87771555Y33835501D01*
X87760180Y33798005D01*
X87741708Y33763446D01*
X87716847Y33733153D01*
X87686554Y33708292D01*
X87651995Y33689820D01*
X87614499Y33678445D01*
X87569362Y33674000D01*
X86930638Y33674000D01*
X86885501Y33678445D01*
X86848005Y33689820D01*
X86813446Y33708292D01*
X86783153Y33733153D01*
X86758292Y33763446D01*
X86739820Y33798005D01*
X86728445Y33835501D01*
X86724000Y33880638D01*
X86724000Y34619362D01*
X86728445Y34664499D01*
X86739820Y34701995D01*
X86758292Y34736554D01*
X86783153Y34766847D01*
X86813446Y34791708D01*
X86848005Y34810180D01*
X86885501Y34821555D01*
X86930638Y34826000D01*
X87569362Y34826000D01*
X87614499Y34821555D01*
G37*
G36*
X47998228Y35818297D02*
G01*
X48153100Y35754147D01*
X48292481Y35661015D01*
X48411015Y35542481D01*
X48504147Y35403100D01*
X48568297Y35248228D01*
X48601000Y35083816D01*
X48601000Y34916184D01*
X48568297Y34751772D01*
X48504147Y34596900D01*
X48411015Y34457519D01*
X48292481Y34338985D01*
X48153100Y34245853D01*
X47998228Y34181703D01*
X47833816Y34149000D01*
X47666184Y34149000D01*
X47501772Y34181703D01*
X47346900Y34245853D01*
X47207519Y34338985D01*
X47088985Y34457519D01*
X46995853Y34596900D01*
X46931703Y34751772D01*
X46899000Y34916184D01*
X46899000Y35083816D01*
X46931703Y35248228D01*
X46995853Y35403100D01*
X47088985Y35542481D01*
X47207519Y35661015D01*
X47346900Y35754147D01*
X47501772Y35818297D01*
X47666184Y35851000D01*
X47833816Y35851000D01*
X47998228Y35818297D01*
G37*
G36*
X51498228Y35818297D02*
G01*
X51653100Y35754147D01*
X51792481Y35661015D01*
X51911015Y35542481D01*
X52004147Y35403100D01*
X52068297Y35248228D01*
X52101000Y35083816D01*
X52101000Y34916184D01*
X52068297Y34751772D01*
X52004147Y34596900D01*
X51911015Y34457519D01*
X51792481Y34338985D01*
X51653100Y34245853D01*
X51498228Y34181703D01*
X51333816Y34149000D01*
X51166184Y34149000D01*
X51001772Y34181703D01*
X50846900Y34245853D01*
X50707519Y34338985D01*
X50588985Y34457519D01*
X50495853Y34596900D01*
X50431703Y34751772D01*
X50399000Y34916184D01*
X50399000Y35083816D01*
X50431703Y35248228D01*
X50495853Y35403100D01*
X50588985Y35542481D01*
X50707519Y35661015D01*
X50846900Y35754147D01*
X51001772Y35818297D01*
X51166184Y35851000D01*
X51333816Y35851000D01*
X51498228Y35818297D01*
G37*
G36*
X57748228Y35818297D02*
G01*
X57903100Y35754147D01*
X58042481Y35661015D01*
X58161015Y35542481D01*
X58254147Y35403100D01*
X58318297Y35248228D01*
X58351000Y35083816D01*
X58351000Y34916184D01*
X58318297Y34751772D01*
X58254147Y34596900D01*
X58161015Y34457519D01*
X58042481Y34338985D01*
X57903100Y34245853D01*
X57748228Y34181703D01*
X57583816Y34149000D01*
X57416184Y34149000D01*
X57251772Y34181703D01*
X57096900Y34245853D01*
X56957519Y34338985D01*
X56838985Y34457519D01*
X56745853Y34596900D01*
X56681703Y34751772D01*
X56649000Y34916184D01*
X56649000Y35083816D01*
X56681703Y35248228D01*
X56745853Y35403100D01*
X56838985Y35542481D01*
X56957519Y35661015D01*
X57096900Y35754147D01*
X57251772Y35818297D01*
X57416184Y35851000D01*
X57583816Y35851000D01*
X57748228Y35818297D01*
G37*
G36*
X100896564Y36910611D02*
G01*
X101087833Y36831385D01*
X101087835Y36831384D01*
X101259973Y36716365D01*
X101406365Y36569973D01*
X101475272Y36466847D01*
X101521385Y36397833D01*
X101600611Y36206564D01*
X101641000Y36003516D01*
X101641000Y35796484D01*
X101600611Y35593436D01*
X101521771Y35403100D01*
X101521384Y35402165D01*
X101406365Y35230027D01*
X101259973Y35083635D01*
X101087835Y34968616D01*
X101087834Y34968615D01*
X101087833Y34968615D01*
X100896564Y34889389D01*
X100693516Y34849000D01*
X100486484Y34849000D01*
X100283436Y34889389D01*
X100092167Y34968615D01*
X100092166Y34968615D01*
X100092165Y34968616D01*
X99920027Y35083635D01*
X99773635Y35230027D01*
X99658616Y35402165D01*
X99658229Y35403100D01*
X99579389Y35593436D01*
X99539000Y35796484D01*
X99539000Y36003516D01*
X99579389Y36206564D01*
X99658615Y36397833D01*
X99704729Y36466847D01*
X99773635Y36569973D01*
X99920027Y36716365D01*
X100092165Y36831384D01*
X100092167Y36831385D01*
X100283436Y36910611D01*
X100486484Y36951000D01*
X100693516Y36951000D01*
X100896564Y36910611D01*
G37*
G36*
X110863512Y36796073D02*
G01*
X111012812Y36766376D01*
X111176784Y36698456D01*
X111324354Y36599853D01*
X111449853Y36474354D01*
X111548456Y36326784D01*
X111616376Y36162812D01*
X111651000Y35988741D01*
X111651000Y35811259D01*
X111616376Y35637188D01*
X111548456Y35473216D01*
X111449853Y35325646D01*
X111324354Y35200147D01*
X111176784Y35101544D01*
X111012812Y35033624D01*
X110863512Y35003927D01*
X110838742Y34999000D01*
X110661258Y34999000D01*
X110636488Y35003927D01*
X110487188Y35033624D01*
X110323216Y35101544D01*
X110175646Y35200147D01*
X110050147Y35325646D01*
X109951544Y35473216D01*
X109883624Y35637188D01*
X109849000Y35811259D01*
X109849000Y35988741D01*
X109883624Y36162812D01*
X109951544Y36326784D01*
X110050147Y36474354D01*
X110175646Y36599853D01*
X110323216Y36698456D01*
X110487188Y36766376D01*
X110636488Y36796073D01*
X110661258Y36801000D01*
X110838742Y36801000D01*
X110863512Y36796073D01*
G37*
G36*
X113403512Y36796073D02*
G01*
X113552812Y36766376D01*
X113716784Y36698456D01*
X113864354Y36599853D01*
X113989853Y36474354D01*
X114088456Y36326784D01*
X114156376Y36162812D01*
X114191000Y35988741D01*
X114191000Y35811259D01*
X114156376Y35637188D01*
X114088456Y35473216D01*
X113989853Y35325646D01*
X113864354Y35200147D01*
X113716784Y35101544D01*
X113552812Y35033624D01*
X113403512Y35003927D01*
X113378742Y34999000D01*
X113201258Y34999000D01*
X113176488Y35003927D01*
X113027188Y35033624D01*
X112863216Y35101544D01*
X112715646Y35200147D01*
X112590147Y35325646D01*
X112491544Y35473216D01*
X112423624Y35637188D01*
X112389000Y35811259D01*
X112389000Y35988741D01*
X112423624Y36162812D01*
X112491544Y36326784D01*
X112590147Y36474354D01*
X112715646Y36599853D01*
X112863216Y36698456D01*
X113027188Y36766376D01*
X113176488Y36796073D01*
X113201258Y36801000D01*
X113378742Y36801000D01*
X113403512Y36796073D01*
G37*
G36*
X90114499Y36571555D02*
G01*
X90151995Y36560180D01*
X90186554Y36541708D01*
X90216847Y36516847D01*
X90241708Y36486554D01*
X90260180Y36451995D01*
X90271555Y36414499D01*
X90276000Y36369362D01*
X90276000Y35630638D01*
X90271555Y35585501D01*
X90260180Y35548005D01*
X90241708Y35513446D01*
X90216847Y35483153D01*
X90186554Y35458292D01*
X90151995Y35439820D01*
X90114499Y35428445D01*
X90069362Y35424000D01*
X89430638Y35424000D01*
X89385501Y35428445D01*
X89348005Y35439820D01*
X89313446Y35458292D01*
X89283153Y35483153D01*
X89258292Y35513446D01*
X89239820Y35548005D01*
X89228445Y35585501D01*
X89224000Y35630638D01*
X89224000Y36369362D01*
X89228445Y36414499D01*
X89239820Y36451995D01*
X89258292Y36486554D01*
X89283153Y36516847D01*
X89313446Y36541708D01*
X89348005Y36560180D01*
X89385501Y36571555D01*
X89430638Y36576000D01*
X90069362Y36576000D01*
X90114499Y36571555D01*
G37*
G36*
X91614499Y36571555D02*
G01*
X91651995Y36560180D01*
X91686554Y36541708D01*
X91716847Y36516847D01*
X91741708Y36486554D01*
X91760180Y36451995D01*
X91771555Y36414499D01*
X91776000Y36369362D01*
X91776000Y35630638D01*
X91771555Y35585501D01*
X91760180Y35548005D01*
X91741708Y35513446D01*
X91716847Y35483153D01*
X91686554Y35458292D01*
X91651995Y35439820D01*
X91614499Y35428445D01*
X91569362Y35424000D01*
X90930638Y35424000D01*
X90885501Y35428445D01*
X90848005Y35439820D01*
X90813446Y35458292D01*
X90783153Y35483153D01*
X90758292Y35513446D01*
X90739820Y35548005D01*
X90728445Y35585501D01*
X90724000Y35630638D01*
X90724000Y36369362D01*
X90728445Y36414499D01*
X90739820Y36451995D01*
X90758292Y36486554D01*
X90783153Y36516847D01*
X90813446Y36541708D01*
X90848005Y36560180D01*
X90885501Y36571555D01*
X90930638Y36576000D01*
X91569362Y36576000D01*
X91614499Y36571555D01*
G37*
G36*
X87614499Y36571555D02*
G01*
X87651995Y36560180D01*
X87686554Y36541708D01*
X87716847Y36516847D01*
X87741708Y36486554D01*
X87760180Y36451995D01*
X87771555Y36414499D01*
X87776000Y36369362D01*
X87776000Y35630638D01*
X87771555Y35585501D01*
X87760180Y35548005D01*
X87741708Y35513446D01*
X87716847Y35483153D01*
X87686554Y35458292D01*
X87651995Y35439820D01*
X87614499Y35428445D01*
X87569362Y35424000D01*
X86930638Y35424000D01*
X86885501Y35428445D01*
X86848005Y35439820D01*
X86813446Y35458292D01*
X86783153Y35483153D01*
X86758292Y35513446D01*
X86739820Y35548005D01*
X86728445Y35585501D01*
X86724000Y35630638D01*
X86724000Y36369362D01*
X86728445Y36414499D01*
X86739820Y36451995D01*
X86758292Y36486554D01*
X86783153Y36516847D01*
X86813446Y36541708D01*
X86848005Y36560180D01*
X86885501Y36571555D01*
X86930638Y36576000D01*
X87569362Y36576000D01*
X87614499Y36571555D01*
G37*
G36*
X86039499Y36521555D02*
G01*
X86076995Y36510180D01*
X86111554Y36491708D01*
X86141847Y36466847D01*
X86166708Y36436554D01*
X86185180Y36401995D01*
X86196555Y36364499D01*
X86201000Y36319362D01*
X86201000Y35680638D01*
X86196555Y35635501D01*
X86185180Y35598005D01*
X86166708Y35563446D01*
X86141847Y35533153D01*
X86111554Y35508292D01*
X86076995Y35489820D01*
X86039499Y35478445D01*
X85994362Y35474000D01*
X85255638Y35474000D01*
X85210501Y35478445D01*
X85173005Y35489820D01*
X85138446Y35508292D01*
X85108153Y35533153D01*
X85083292Y35563446D01*
X85064820Y35598005D01*
X85053445Y35635501D01*
X85049000Y35680638D01*
X85049000Y36319362D01*
X85053445Y36364499D01*
X85064820Y36401995D01*
X85083292Y36436554D01*
X85108153Y36466847D01*
X85138446Y36491708D01*
X85173005Y36510180D01*
X85210501Y36521555D01*
X85255638Y36526000D01*
X85994362Y36526000D01*
X86039499Y36521555D01*
G37*
G36*
X84289499Y36521555D02*
G01*
X84326995Y36510180D01*
X84361554Y36491708D01*
X84391847Y36466847D01*
X84416708Y36436554D01*
X84435180Y36401995D01*
X84446555Y36364499D01*
X84451000Y36319362D01*
X84451000Y35680638D01*
X84446555Y35635501D01*
X84435180Y35598005D01*
X84416708Y35563446D01*
X84391847Y35533153D01*
X84361554Y35508292D01*
X84326995Y35489820D01*
X84289499Y35478445D01*
X84244362Y35474000D01*
X83505638Y35474000D01*
X83460501Y35478445D01*
X83423005Y35489820D01*
X83388446Y35508292D01*
X83358153Y35533153D01*
X83333292Y35563446D01*
X83314820Y35598005D01*
X83303445Y35635501D01*
X83299000Y35680638D01*
X83299000Y36319362D01*
X83303445Y36364499D01*
X83314820Y36401995D01*
X83333292Y36436554D01*
X83358153Y36466847D01*
X83388446Y36491708D01*
X83423005Y36510180D01*
X83460501Y36521555D01*
X83505638Y36526000D01*
X84244362Y36526000D01*
X84289499Y36521555D01*
G37*
G36*
X86614499Y38196555D02*
G01*
X86651995Y38185180D01*
X86686554Y38166708D01*
X86716847Y38141847D01*
X86741708Y38111554D01*
X86760180Y38076995D01*
X86771555Y38039499D01*
X86776000Y37994362D01*
X86776000Y37255638D01*
X86771555Y37210501D01*
X86760180Y37173005D01*
X86741708Y37138446D01*
X86716847Y37108153D01*
X86686554Y37083292D01*
X86651995Y37064820D01*
X86614499Y37053445D01*
X86569362Y37049000D01*
X85930638Y37049000D01*
X85885501Y37053445D01*
X85848005Y37064820D01*
X85813446Y37083292D01*
X85783153Y37108153D01*
X85758292Y37138446D01*
X85739820Y37173005D01*
X85728445Y37210501D01*
X85724000Y37255638D01*
X85724000Y37994362D01*
X85728445Y38039499D01*
X85739820Y38076995D01*
X85758292Y38111554D01*
X85783153Y38141847D01*
X85813446Y38166708D01*
X85848005Y38185180D01*
X85885501Y38196555D01*
X85930638Y38201000D01*
X86569362Y38201000D01*
X86614499Y38196555D01*
G37*
G36*
X85114499Y38196555D02*
G01*
X85151995Y38185180D01*
X85186554Y38166708D01*
X85216847Y38141847D01*
X85241708Y38111554D01*
X85260180Y38076995D01*
X85271555Y38039499D01*
X85276000Y37994362D01*
X85276000Y37255638D01*
X85271555Y37210501D01*
X85260180Y37173005D01*
X85241708Y37138446D01*
X85216847Y37108153D01*
X85186554Y37083292D01*
X85151995Y37064820D01*
X85114499Y37053445D01*
X85069362Y37049000D01*
X84430638Y37049000D01*
X84385501Y37053445D01*
X84348005Y37064820D01*
X84313446Y37083292D01*
X84283153Y37108153D01*
X84258292Y37138446D01*
X84239820Y37173005D01*
X84228445Y37210501D01*
X84224000Y37255638D01*
X84224000Y37994362D01*
X84228445Y38039499D01*
X84239820Y38076995D01*
X84258292Y38111554D01*
X84283153Y38141847D01*
X84313446Y38166708D01*
X84348005Y38185180D01*
X84385501Y38196555D01*
X84430638Y38201000D01*
X85069362Y38201000D01*
X85114499Y38196555D01*
G37*
G36*
X83614499Y38196555D02*
G01*
X83651995Y38185180D01*
X83686554Y38166708D01*
X83716847Y38141847D01*
X83741708Y38111554D01*
X83760180Y38076995D01*
X83771555Y38039499D01*
X83776000Y37994362D01*
X83776000Y37255638D01*
X83771555Y37210501D01*
X83760180Y37173005D01*
X83741708Y37138446D01*
X83716847Y37108153D01*
X83686554Y37083292D01*
X83651995Y37064820D01*
X83614499Y37053445D01*
X83569362Y37049000D01*
X82930638Y37049000D01*
X82885501Y37053445D01*
X82848005Y37064820D01*
X82813446Y37083292D01*
X82783153Y37108153D01*
X82758292Y37138446D01*
X82739820Y37173005D01*
X82728445Y37210501D01*
X82724000Y37255638D01*
X82724000Y37994362D01*
X82728445Y38039499D01*
X82739820Y38076995D01*
X82758292Y38111554D01*
X82783153Y38141847D01*
X82813446Y38166708D01*
X82848005Y38185180D01*
X82885501Y38196555D01*
X82930638Y38201000D01*
X83569362Y38201000D01*
X83614499Y38196555D01*
G37*
G36*
X88114499Y38196555D02*
G01*
X88151995Y38185180D01*
X88186554Y38166708D01*
X88216847Y38141847D01*
X88241708Y38111554D01*
X88260180Y38076995D01*
X88271555Y38039499D01*
X88276000Y37994362D01*
X88276000Y37255638D01*
X88271555Y37210501D01*
X88260180Y37173005D01*
X88241708Y37138446D01*
X88216847Y37108153D01*
X88186554Y37083292D01*
X88151995Y37064820D01*
X88114499Y37053445D01*
X88069362Y37049000D01*
X87430638Y37049000D01*
X87385501Y37053445D01*
X87348005Y37064820D01*
X87313446Y37083292D01*
X87283153Y37108153D01*
X87258292Y37138446D01*
X87239820Y37173005D01*
X87228445Y37210501D01*
X87224000Y37255638D01*
X87224000Y37994362D01*
X87228445Y38039499D01*
X87239820Y38076995D01*
X87258292Y38111554D01*
X87283153Y38141847D01*
X87313446Y38166708D01*
X87348005Y38185180D01*
X87385501Y38196555D01*
X87430638Y38201000D01*
X88069362Y38201000D01*
X88114499Y38196555D01*
G37*
G36*
X93276564Y39450611D02*
G01*
X93467833Y39371385D01*
X93467835Y39371384D01*
X93639973Y39256365D01*
X93786365Y39109973D01*
X93850256Y39014354D01*
X93901385Y38937833D01*
X93980611Y38746564D01*
X94021000Y38543516D01*
X94021000Y38336484D01*
X93980611Y38133436D01*
X93930815Y38013218D01*
X93901384Y37942165D01*
X93786365Y37770027D01*
X93639973Y37623635D01*
X93467835Y37508616D01*
X93467834Y37508615D01*
X93467833Y37508615D01*
X93276564Y37429389D01*
X93073516Y37389000D01*
X92866484Y37389000D01*
X92663436Y37429389D01*
X92472167Y37508615D01*
X92472166Y37508615D01*
X92472165Y37508616D01*
X92300027Y37623635D01*
X92153635Y37770027D01*
X92038616Y37942165D01*
X92009185Y38013218D01*
X91959389Y38133436D01*
X91919000Y38336484D01*
X91919000Y38543516D01*
X91959389Y38746564D01*
X92038615Y38937833D01*
X92089745Y39014354D01*
X92153635Y39109973D01*
X92300027Y39256365D01*
X92472165Y39371384D01*
X92472167Y39371385D01*
X92663436Y39450611D01*
X92866484Y39491000D01*
X93073516Y39491000D01*
X93276564Y39450611D01*
G37*
G36*
X105936564Y39450611D02*
G01*
X106127833Y39371385D01*
X106127835Y39371384D01*
X106299973Y39256365D01*
X106446365Y39109973D01*
X106510256Y39014354D01*
X106561385Y38937833D01*
X106640611Y38746564D01*
X106681000Y38543516D01*
X106681000Y38336484D01*
X106640611Y38133436D01*
X106590815Y38013218D01*
X106561384Y37942165D01*
X106446365Y37770027D01*
X106299973Y37623635D01*
X106127835Y37508616D01*
X106127834Y37508615D01*
X106127833Y37508615D01*
X105936564Y37429389D01*
X105733516Y37389000D01*
X105526484Y37389000D01*
X105323436Y37429389D01*
X105132167Y37508615D01*
X105132166Y37508615D01*
X105132165Y37508616D01*
X104960027Y37623635D01*
X104813635Y37770027D01*
X104698616Y37942165D01*
X104669185Y38013218D01*
X104619389Y38133436D01*
X104579000Y38336484D01*
X104579000Y38543516D01*
X104619389Y38746564D01*
X104698615Y38937833D01*
X104749745Y39014354D01*
X104813635Y39109973D01*
X104960027Y39256365D01*
X105132165Y39371384D01*
X105132167Y39371385D01*
X105323436Y39450611D01*
X105526484Y39491000D01*
X105733516Y39491000D01*
X105936564Y39450611D01*
G37*
G36*
X113403512Y39336073D02*
G01*
X113552812Y39306376D01*
X113716784Y39238456D01*
X113864354Y39139853D01*
X113989853Y39014354D01*
X114088456Y38866784D01*
X114156376Y38702812D01*
X114191000Y38528741D01*
X114191000Y38351259D01*
X114156376Y38177188D01*
X114088456Y38013216D01*
X113989853Y37865646D01*
X113864354Y37740147D01*
X113716784Y37641544D01*
X113552812Y37573624D01*
X113403512Y37543927D01*
X113378742Y37539000D01*
X113201258Y37539000D01*
X113176488Y37543927D01*
X113027188Y37573624D01*
X112863216Y37641544D01*
X112715646Y37740147D01*
X112590147Y37865646D01*
X112491544Y38013216D01*
X112423624Y38177188D01*
X112389000Y38351259D01*
X112389000Y38528741D01*
X112423624Y38702812D01*
X112491544Y38866784D01*
X112590147Y39014354D01*
X112715646Y39139853D01*
X112863216Y39238456D01*
X113027188Y39306376D01*
X113176488Y39336073D01*
X113201258Y39341000D01*
X113378742Y39341000D01*
X113403512Y39336073D01*
G37*
G36*
X111651000Y37539000D02*
G01*
X109849000Y37539000D01*
X109849000Y39341000D01*
X111651000Y39341000D01*
X111651000Y37539000D01*
G37*
G36*
X85114499Y39946555D02*
G01*
X85151995Y39935180D01*
X85186554Y39916708D01*
X85216847Y39891847D01*
X85241708Y39861554D01*
X85260180Y39826995D01*
X85271555Y39789499D01*
X85276000Y39744362D01*
X85276000Y39005638D01*
X85271555Y38960501D01*
X85260180Y38923005D01*
X85241708Y38888446D01*
X85216847Y38858153D01*
X85186554Y38833292D01*
X85151995Y38814820D01*
X85114499Y38803445D01*
X85069362Y38799000D01*
X84430638Y38799000D01*
X84385501Y38803445D01*
X84348005Y38814820D01*
X84313446Y38833292D01*
X84283153Y38858153D01*
X84258292Y38888446D01*
X84239820Y38923005D01*
X84228445Y38960501D01*
X84224000Y39005638D01*
X84224000Y39744362D01*
X84228445Y39789499D01*
X84239820Y39826995D01*
X84258292Y39861554D01*
X84283153Y39891847D01*
X84313446Y39916708D01*
X84348005Y39935180D01*
X84385501Y39946555D01*
X84430638Y39951000D01*
X85069362Y39951000D01*
X85114499Y39946555D01*
G37*
G36*
X83614499Y39946555D02*
G01*
X83651995Y39935180D01*
X83686554Y39916708D01*
X83716847Y39891847D01*
X83741708Y39861554D01*
X83760180Y39826995D01*
X83771555Y39789499D01*
X83776000Y39744362D01*
X83776000Y39005638D01*
X83771555Y38960501D01*
X83760180Y38923005D01*
X83741708Y38888446D01*
X83716847Y38858153D01*
X83686554Y38833292D01*
X83651995Y38814820D01*
X83614499Y38803445D01*
X83569362Y38799000D01*
X82930638Y38799000D01*
X82885501Y38803445D01*
X82848005Y38814820D01*
X82813446Y38833292D01*
X82783153Y38858153D01*
X82758292Y38888446D01*
X82739820Y38923005D01*
X82728445Y38960501D01*
X82724000Y39005638D01*
X82724000Y39744362D01*
X82728445Y39789499D01*
X82739820Y39826995D01*
X82758292Y39861554D01*
X82783153Y39891847D01*
X82813446Y39916708D01*
X82848005Y39935180D01*
X82885501Y39946555D01*
X82930638Y39951000D01*
X83569362Y39951000D01*
X83614499Y39946555D01*
G37*
G36*
X88114499Y39946555D02*
G01*
X88151995Y39935180D01*
X88186554Y39916708D01*
X88216847Y39891847D01*
X88241708Y39861554D01*
X88260180Y39826995D01*
X88271555Y39789499D01*
X88276000Y39744362D01*
X88276000Y39005638D01*
X88271555Y38960501D01*
X88260180Y38923005D01*
X88241708Y38888446D01*
X88216847Y38858153D01*
X88186554Y38833292D01*
X88151995Y38814820D01*
X88114499Y38803445D01*
X88069362Y38799000D01*
X87430638Y38799000D01*
X87385501Y38803445D01*
X87348005Y38814820D01*
X87313446Y38833292D01*
X87283153Y38858153D01*
X87258292Y38888446D01*
X87239820Y38923005D01*
X87228445Y38960501D01*
X87224000Y39005638D01*
X87224000Y39744362D01*
X87228445Y39789499D01*
X87239820Y39826995D01*
X87258292Y39861554D01*
X87283153Y39891847D01*
X87313446Y39916708D01*
X87348005Y39935180D01*
X87385501Y39946555D01*
X87430638Y39951000D01*
X88069362Y39951000D01*
X88114499Y39946555D01*
G37*
G36*
X86614499Y39946555D02*
G01*
X86651995Y39935180D01*
X86686554Y39916708D01*
X86716847Y39891847D01*
X86741708Y39861554D01*
X86760180Y39826995D01*
X86771555Y39789499D01*
X86776000Y39744362D01*
X86776000Y39005638D01*
X86771555Y38960501D01*
X86760180Y38923005D01*
X86741708Y38888446D01*
X86716847Y38858153D01*
X86686554Y38833292D01*
X86651995Y38814820D01*
X86614499Y38803445D01*
X86569362Y38799000D01*
X85930638Y38799000D01*
X85885501Y38803445D01*
X85848005Y38814820D01*
X85813446Y38833292D01*
X85783153Y38858153D01*
X85758292Y38888446D01*
X85739820Y38923005D01*
X85728445Y38960501D01*
X85724000Y39005638D01*
X85724000Y39744362D01*
X85728445Y39789499D01*
X85739820Y39826995D01*
X85758292Y39861554D01*
X85783153Y39891847D01*
X85813446Y39916708D01*
X85848005Y39935180D01*
X85885501Y39946555D01*
X85930638Y39951000D01*
X86569362Y39951000D01*
X86614499Y39946555D01*
G37*
G36*
X62451000Y39449000D02*
G01*
X60049000Y39449000D01*
X60049000Y43051000D01*
X62451000Y43051000D01*
X62451000Y39449000D01*
G37*
G36*
X66806564Y42260611D02*
G01*
X66997833Y42181385D01*
X66997835Y42181384D01*
X67118138Y42101000D01*
X67169973Y42066365D01*
X67316365Y41919973D01*
X67431385Y41747833D01*
X67510611Y41556564D01*
X67551000Y41353516D01*
X67551000Y41146484D01*
X67510611Y40943436D01*
X67431385Y40752167D01*
X67431384Y40752165D01*
X67316365Y40580027D01*
X67169973Y40433635D01*
X66997835Y40318616D01*
X66997834Y40318615D01*
X66997833Y40318615D01*
X66806564Y40239389D01*
X66603516Y40199000D01*
X66396484Y40199000D01*
X66193436Y40239389D01*
X66002167Y40318615D01*
X66002166Y40318615D01*
X66002165Y40318616D01*
X65830027Y40433635D01*
X65683635Y40580027D01*
X65568616Y40752165D01*
X65568615Y40752167D01*
X65489389Y40943436D01*
X65449000Y41146484D01*
X65449000Y41353516D01*
X65489389Y41556564D01*
X65568615Y41747833D01*
X65683635Y41919973D01*
X65830027Y42066365D01*
X65881862Y42101000D01*
X66002165Y42181384D01*
X66002167Y42181385D01*
X66193436Y42260611D01*
X66396484Y42301000D01*
X66603516Y42301000D01*
X66806564Y42260611D01*
G37*
G36*
X57748228Y42068297D02*
G01*
X57903100Y42004147D01*
X58042481Y41911015D01*
X58161015Y41792481D01*
X58254147Y41653100D01*
X58318297Y41498228D01*
X58351000Y41333816D01*
X58351000Y41166184D01*
X58318297Y41001772D01*
X58254147Y40846900D01*
X58161015Y40707519D01*
X58042481Y40588985D01*
X57903100Y40495853D01*
X57748228Y40431703D01*
X57583816Y40399000D01*
X57416184Y40399000D01*
X57251772Y40431703D01*
X57096900Y40495853D01*
X56957519Y40588985D01*
X56838985Y40707519D01*
X56745853Y40846900D01*
X56681703Y41001772D01*
X56649000Y41166184D01*
X56649000Y41333816D01*
X56681703Y41498228D01*
X56745853Y41653100D01*
X56838985Y41792481D01*
X56957519Y41911015D01*
X57096900Y42004147D01*
X57251772Y42068297D01*
X57416184Y42101000D01*
X57583816Y42101000D01*
X57748228Y42068297D01*
G37*
G36*
X47588228Y42068297D02*
G01*
X47743100Y42004147D01*
X47882481Y41911015D01*
X48001015Y41792481D01*
X48094147Y41653100D01*
X48158297Y41498228D01*
X48191000Y41333816D01*
X48191000Y41166184D01*
X48158297Y41001772D01*
X48094147Y40846900D01*
X48001015Y40707519D01*
X47882481Y40588985D01*
X47743100Y40495853D01*
X47588228Y40431703D01*
X47423816Y40399000D01*
X47256184Y40399000D01*
X47091772Y40431703D01*
X46936900Y40495853D01*
X46797519Y40588985D01*
X46678985Y40707519D01*
X46585853Y40846900D01*
X46521703Y41001772D01*
X46489000Y41166184D01*
X46489000Y41333816D01*
X46521703Y41498228D01*
X46585853Y41653100D01*
X46678985Y41792481D01*
X46797519Y41911015D01*
X46936900Y42004147D01*
X47091772Y42068297D01*
X47256184Y42101000D01*
X47423816Y42101000D01*
X47588228Y42068297D01*
G37*
G36*
X14651000Y42849000D02*
G01*
X12849000Y42849000D01*
X12849000Y44651000D01*
X14651000Y44651000D01*
X14651000Y42849000D01*
G37*
G36*
X30248228Y44568297D02*
G01*
X30403100Y44504147D01*
X30542481Y44411015D01*
X30661015Y44292481D01*
X30754147Y44153100D01*
X30818297Y43998228D01*
X30851000Y43833816D01*
X30851000Y43666184D01*
X30818297Y43501772D01*
X30754147Y43346900D01*
X30661015Y43207519D01*
X30542481Y43088985D01*
X30403100Y42995853D01*
X30248228Y42931703D01*
X30083816Y42899000D01*
X29916184Y42899000D01*
X29751772Y42931703D01*
X29596900Y42995853D01*
X29457519Y43088985D01*
X29338985Y43207519D01*
X29245853Y43346900D01*
X29181703Y43501772D01*
X29149000Y43666184D01*
X29149000Y43833816D01*
X29181703Y43998228D01*
X29245853Y44153100D01*
X29338985Y44292481D01*
X29457519Y44411015D01*
X29596900Y44504147D01*
X29751772Y44568297D01*
X29916184Y44601000D01*
X30083816Y44601000D01*
X30248228Y44568297D01*
G37*
G36*
X17548228Y44568297D02*
G01*
X17703100Y44504147D01*
X17842481Y44411015D01*
X17961015Y44292481D01*
X18054147Y44153100D01*
X18118297Y43998228D01*
X18151000Y43833816D01*
X18151000Y43666184D01*
X18118297Y43501772D01*
X18054147Y43346900D01*
X17961015Y43207519D01*
X17842481Y43088985D01*
X17703100Y42995853D01*
X17548228Y42931703D01*
X17383816Y42899000D01*
X17216184Y42899000D01*
X17051772Y42931703D01*
X16896900Y42995853D01*
X16757519Y43088985D01*
X16638985Y43207519D01*
X16545853Y43346900D01*
X16481703Y43501772D01*
X16449000Y43666184D01*
X16449000Y43833816D01*
X16481703Y43998228D01*
X16545853Y44153100D01*
X16638985Y44292481D01*
X16757519Y44411015D01*
X16896900Y44504147D01*
X17051772Y44568297D01*
X17216184Y44601000D01*
X17383816Y44601000D01*
X17548228Y44568297D01*
G37*
G36*
X32548228Y44568297D02*
G01*
X32703100Y44504147D01*
X32842481Y44411015D01*
X32961015Y44292481D01*
X33054147Y44153100D01*
X33118297Y43998228D01*
X33151000Y43833816D01*
X33151000Y43666184D01*
X33118297Y43501772D01*
X33054147Y43346900D01*
X32961015Y43207519D01*
X32842481Y43088985D01*
X32703100Y42995853D01*
X32548228Y42931703D01*
X32383816Y42899000D01*
X32216184Y42899000D01*
X32051772Y42931703D01*
X31896900Y42995853D01*
X31757519Y43088985D01*
X31638985Y43207519D01*
X31545853Y43346900D01*
X31481703Y43501772D01*
X31449000Y43666184D01*
X31449000Y43833816D01*
X31481703Y43998228D01*
X31545853Y44153100D01*
X31638985Y44292481D01*
X31757519Y44411015D01*
X31896900Y44504147D01*
X32051772Y44568297D01*
X32216184Y44601000D01*
X32383816Y44601000D01*
X32548228Y44568297D01*
G37*
G36*
X45248228Y44568297D02*
G01*
X45403100Y44504147D01*
X45542481Y44411015D01*
X45661015Y44292481D01*
X45754147Y44153100D01*
X45818297Y43998228D01*
X45851000Y43833816D01*
X45851000Y43666184D01*
X45818297Y43501772D01*
X45754147Y43346900D01*
X45661015Y43207519D01*
X45542481Y43088985D01*
X45403100Y42995853D01*
X45248228Y42931703D01*
X45083816Y42899000D01*
X44916184Y42899000D01*
X44751772Y42931703D01*
X44596900Y42995853D01*
X44457519Y43088985D01*
X44338985Y43207519D01*
X44245853Y43346900D01*
X44181703Y43501772D01*
X44149000Y43666184D01*
X44149000Y43833816D01*
X44181703Y43998228D01*
X44245853Y44153100D01*
X44338985Y44292481D01*
X44457519Y44411015D01*
X44596900Y44504147D01*
X44751772Y44568297D01*
X44916184Y44601000D01*
X45083816Y44601000D01*
X45248228Y44568297D01*
G37*
G36*
X57748228Y45818297D02*
G01*
X57903100Y45754147D01*
X58042481Y45661015D01*
X58161015Y45542481D01*
X58254147Y45403100D01*
X58318297Y45248228D01*
X58351000Y45083816D01*
X58351000Y44916184D01*
X58318297Y44751772D01*
X58254147Y44596900D01*
X58161015Y44457519D01*
X58042481Y44338985D01*
X57903100Y44245853D01*
X57748228Y44181703D01*
X57583816Y44149000D01*
X57416184Y44149000D01*
X57251772Y44181703D01*
X57096900Y44245853D01*
X56957519Y44338985D01*
X56838985Y44457519D01*
X56745853Y44596900D01*
X56681703Y44751772D01*
X56649000Y44916184D01*
X56649000Y45083816D01*
X56681703Y45248228D01*
X56745853Y45403100D01*
X56838985Y45542481D01*
X56957519Y45661015D01*
X57096900Y45754147D01*
X57251772Y45818297D01*
X57416184Y45851000D01*
X57583816Y45851000D01*
X57748228Y45818297D01*
G37*
G36*
X62451000Y44849000D02*
G01*
X60049000Y44849000D01*
X60049000Y48451000D01*
X62451000Y48451000D01*
X62451000Y44849000D01*
G37*
G36*
X47748228Y48318297D02*
G01*
X47903100Y48254147D01*
X48042481Y48161015D01*
X48161015Y48042481D01*
X48254147Y47903100D01*
X48318297Y47748228D01*
X48351000Y47583816D01*
X48351000Y47416184D01*
X48318297Y47251772D01*
X48254147Y47096900D01*
X48161015Y46957519D01*
X48042481Y46838985D01*
X47903100Y46745853D01*
X47748228Y46681703D01*
X47583816Y46649000D01*
X47416184Y46649000D01*
X47251772Y46681703D01*
X47096900Y46745853D01*
X46957519Y46838985D01*
X46838985Y46957519D01*
X46745853Y47096900D01*
X46681703Y47251772D01*
X46649000Y47416184D01*
X46649000Y47583816D01*
X46681703Y47748228D01*
X46745853Y47903100D01*
X46838985Y48042481D01*
X46957519Y48161015D01*
X47096900Y48254147D01*
X47251772Y48318297D01*
X47416184Y48351000D01*
X47583816Y48351000D01*
X47748228Y48318297D01*
G37*
G36*
X51248228Y48318297D02*
G01*
X51403100Y48254147D01*
X51542481Y48161015D01*
X51661015Y48042481D01*
X51754147Y47903100D01*
X51818297Y47748228D01*
X51851000Y47583816D01*
X51851000Y47416184D01*
X51818297Y47251772D01*
X51754147Y47096900D01*
X51661015Y46957519D01*
X51542481Y46838985D01*
X51403100Y46745853D01*
X51248228Y46681703D01*
X51083816Y46649000D01*
X50916184Y46649000D01*
X50751772Y46681703D01*
X50596900Y46745853D01*
X50457519Y46838985D01*
X50338985Y46957519D01*
X50245853Y47096900D01*
X50181703Y47251772D01*
X50149000Y47416184D01*
X50149000Y47583816D01*
X50181703Y47748228D01*
X50245853Y47903100D01*
X50338985Y48042481D01*
X50457519Y48161015D01*
X50596900Y48254147D01*
X50751772Y48318297D01*
X50916184Y48351000D01*
X51083816Y48351000D01*
X51248228Y48318297D01*
G37*
G36*
X57748228Y48318297D02*
G01*
X57903100Y48254147D01*
X58042481Y48161015D01*
X58161015Y48042481D01*
X58254147Y47903100D01*
X58318297Y47748228D01*
X58351000Y47583816D01*
X58351000Y47416184D01*
X58318297Y47251772D01*
X58254147Y47096900D01*
X58161015Y46957519D01*
X58042481Y46838985D01*
X57903100Y46745853D01*
X57748228Y46681703D01*
X57583816Y46649000D01*
X57416184Y46649000D01*
X57251772Y46681703D01*
X57096900Y46745853D01*
X56957519Y46838985D01*
X56838985Y46957519D01*
X56745853Y47096900D01*
X56681703Y47251772D01*
X56649000Y47416184D01*
X56649000Y47583816D01*
X56681703Y47748228D01*
X56745853Y47903100D01*
X56838985Y48042481D01*
X56957519Y48161015D01*
X57096900Y48254147D01*
X57251772Y48318297D01*
X57416184Y48351000D01*
X57583816Y48351000D01*
X57748228Y48318297D01*
G37*
G36*
X5375256Y51108702D02*
G01*
X5481579Y51087553D01*
X5782042Y50963097D01*
X6052451Y50782415D01*
X6282415Y50552451D01*
X6282416Y50552449D01*
X6463098Y50282040D01*
X6587553Y49981578D01*
X6651000Y49662611D01*
X6651000Y49337389D01*
X6608702Y49124744D01*
X6587553Y49018421D01*
X6463097Y48717958D01*
X6282415Y48447549D01*
X6052451Y48217585D01*
X5782042Y48036903D01*
X5481579Y47912447D01*
X5434588Y47903100D01*
X5162611Y47849000D01*
X4837389Y47849000D01*
X4565412Y47903100D01*
X4518421Y47912447D01*
X4217958Y48036903D01*
X3947549Y48217585D01*
X3717585Y48447549D01*
X3536903Y48717958D01*
X3412447Y49018421D01*
X3391298Y49124744D01*
X3349000Y49337389D01*
X3349000Y49662611D01*
X3412447Y49981578D01*
X3536902Y50282040D01*
X3717584Y50552449D01*
X3717585Y50552451D01*
X3947549Y50782415D01*
X4217958Y50963097D01*
X4518421Y51087553D01*
X4624744Y51108702D01*
X4837389Y51151000D01*
X5162611Y51151000D01*
X5375256Y51108702D01*
G37*
G36*
X115375256Y51608702D02*
G01*
X115481579Y51587553D01*
X115782042Y51463097D01*
X116052451Y51282415D01*
X116282415Y51052451D01*
X116463097Y50782042D01*
X116558198Y50552449D01*
X116587553Y50481578D01*
X116627244Y50282042D01*
X116651000Y50162609D01*
X116651000Y49837391D01*
X116587553Y49518421D01*
X116463097Y49217958D01*
X116282415Y48947549D01*
X116052451Y48717585D01*
X115782042Y48536903D01*
X115481579Y48412447D01*
X115375256Y48391298D01*
X115162611Y48349000D01*
X114837389Y48349000D01*
X114624744Y48391298D01*
X114518421Y48412447D01*
X114217958Y48536903D01*
X113947549Y48717585D01*
X113717585Y48947549D01*
X113536903Y49217958D01*
X113412447Y49518421D01*
X113349000Y49837391D01*
X113349000Y50162609D01*
X113372757Y50282042D01*
X113412447Y50481578D01*
X113441803Y50552449D01*
X113536903Y50782042D01*
X113717585Y51052451D01*
X113947549Y51282415D01*
X114217958Y51463097D01*
X114518421Y51587553D01*
X114624744Y51608702D01*
X114837389Y51651000D01*
X115162611Y51651000D01*
X115375256Y51608702D01*
G37*
M02*
