%TF.GenerationSoftware,KiCad,Pcbnew,(5.1.5-0)*%
%TF.CreationDate,2020-04-03T13:37:13+02:00*%
%TF.ProjectId,egc_ads1292,6567635f-6164-4733-9132-39322e6b6963,rev?*%
%TF.SameCoordinates,PX23c3460PY8f0d180*%
%TF.FileFunction,Paste,Top*%
%TF.FilePolarity,Positive*%
%FSLAX46Y46*%
G04 Gerber Fmt 4.6, Leading zero omitted, Abs format (unit mm)*
G04 Created by KiCad (PCBNEW (5.1.5-0)) date 2020-04-03 13:37:13*
%MOMM*%
%LPD*%
G04 APERTURE LIST*
%ADD10R,2.300000X3.500000*%
%ADD11C,0.100000*%
%ADD12R,1.560000X0.650000*%
G04 APERTURE END LIST*
D10*
X61250000Y33950000D03*
X61250000Y28550000D03*
X61250000Y21450000D03*
X61250000Y16050000D03*
X61250000Y8950000D03*
X61250000Y3550000D03*
D11*
G36*
X94185779Y20973856D02*
G01*
X94208834Y20970437D01*
X94231443Y20964773D01*
X94253387Y20956921D01*
X94274457Y20946956D01*
X94294448Y20934974D01*
X94313168Y20921090D01*
X94330438Y20905438D01*
X94346090Y20888168D01*
X94359974Y20869448D01*
X94371956Y20849457D01*
X94381921Y20828387D01*
X94389773Y20806443D01*
X94395437Y20783834D01*
X94398856Y20760779D01*
X94400000Y20737500D01*
X94400000Y20262500D01*
X94398856Y20239221D01*
X94395437Y20216166D01*
X94389773Y20193557D01*
X94381921Y20171613D01*
X94371956Y20150543D01*
X94359974Y20130552D01*
X94346090Y20111832D01*
X94330438Y20094562D01*
X94313168Y20078910D01*
X94294448Y20065026D01*
X94274457Y20053044D01*
X94253387Y20043079D01*
X94231443Y20035227D01*
X94208834Y20029563D01*
X94185779Y20026144D01*
X94162500Y20025000D01*
X93587500Y20025000D01*
X93564221Y20026144D01*
X93541166Y20029563D01*
X93518557Y20035227D01*
X93496613Y20043079D01*
X93475543Y20053044D01*
X93455552Y20065026D01*
X93436832Y20078910D01*
X93419562Y20094562D01*
X93403910Y20111832D01*
X93390026Y20130552D01*
X93378044Y20150543D01*
X93368079Y20171613D01*
X93360227Y20193557D01*
X93354563Y20216166D01*
X93351144Y20239221D01*
X93350000Y20262500D01*
X93350000Y20737500D01*
X93351144Y20760779D01*
X93354563Y20783834D01*
X93360227Y20806443D01*
X93368079Y20828387D01*
X93378044Y20849457D01*
X93390026Y20869448D01*
X93403910Y20888168D01*
X93419562Y20905438D01*
X93436832Y20921090D01*
X93455552Y20934974D01*
X93475543Y20946956D01*
X93496613Y20956921D01*
X93518557Y20964773D01*
X93541166Y20970437D01*
X93564221Y20973856D01*
X93587500Y20975000D01*
X94162500Y20975000D01*
X94185779Y20973856D01*
G37*
G36*
X95935779Y20973856D02*
G01*
X95958834Y20970437D01*
X95981443Y20964773D01*
X96003387Y20956921D01*
X96024457Y20946956D01*
X96044448Y20934974D01*
X96063168Y20921090D01*
X96080438Y20905438D01*
X96096090Y20888168D01*
X96109974Y20869448D01*
X96121956Y20849457D01*
X96131921Y20828387D01*
X96139773Y20806443D01*
X96145437Y20783834D01*
X96148856Y20760779D01*
X96150000Y20737500D01*
X96150000Y20262500D01*
X96148856Y20239221D01*
X96145437Y20216166D01*
X96139773Y20193557D01*
X96131921Y20171613D01*
X96121956Y20150543D01*
X96109974Y20130552D01*
X96096090Y20111832D01*
X96080438Y20094562D01*
X96063168Y20078910D01*
X96044448Y20065026D01*
X96024457Y20053044D01*
X96003387Y20043079D01*
X95981443Y20035227D01*
X95958834Y20029563D01*
X95935779Y20026144D01*
X95912500Y20025000D01*
X95337500Y20025000D01*
X95314221Y20026144D01*
X95291166Y20029563D01*
X95268557Y20035227D01*
X95246613Y20043079D01*
X95225543Y20053044D01*
X95205552Y20065026D01*
X95186832Y20078910D01*
X95169562Y20094562D01*
X95153910Y20111832D01*
X95140026Y20130552D01*
X95128044Y20150543D01*
X95118079Y20171613D01*
X95110227Y20193557D01*
X95104563Y20216166D01*
X95101144Y20239221D01*
X95100000Y20262500D01*
X95100000Y20737500D01*
X95101144Y20760779D01*
X95104563Y20783834D01*
X95110227Y20806443D01*
X95118079Y20828387D01*
X95128044Y20849457D01*
X95140026Y20869448D01*
X95153910Y20888168D01*
X95169562Y20905438D01*
X95186832Y20921090D01*
X95205552Y20934974D01*
X95225543Y20946956D01*
X95246613Y20956921D01*
X95268557Y20964773D01*
X95291166Y20970437D01*
X95314221Y20973856D01*
X95337500Y20975000D01*
X95912500Y20975000D01*
X95935779Y20973856D01*
G37*
D12*
X90900000Y15000000D03*
X90900000Y16900000D03*
X93600000Y16900000D03*
X93600000Y15950000D03*
X93600000Y15000000D03*
D11*
G36*
X91510779Y34773856D02*
G01*
X91533834Y34770437D01*
X91556443Y34764773D01*
X91578387Y34756921D01*
X91599457Y34746956D01*
X91619448Y34734974D01*
X91638168Y34721090D01*
X91655438Y34705438D01*
X91671090Y34688168D01*
X91684974Y34669448D01*
X91696956Y34649457D01*
X91706921Y34628387D01*
X91714773Y34606443D01*
X91720437Y34583834D01*
X91723856Y34560779D01*
X91725000Y34537500D01*
X91725000Y33962500D01*
X91723856Y33939221D01*
X91720437Y33916166D01*
X91714773Y33893557D01*
X91706921Y33871613D01*
X91696956Y33850543D01*
X91684974Y33830552D01*
X91671090Y33811832D01*
X91655438Y33794562D01*
X91638168Y33778910D01*
X91619448Y33765026D01*
X91599457Y33753044D01*
X91578387Y33743079D01*
X91556443Y33735227D01*
X91533834Y33729563D01*
X91510779Y33726144D01*
X91487500Y33725000D01*
X91012500Y33725000D01*
X90989221Y33726144D01*
X90966166Y33729563D01*
X90943557Y33735227D01*
X90921613Y33743079D01*
X90900543Y33753044D01*
X90880552Y33765026D01*
X90861832Y33778910D01*
X90844562Y33794562D01*
X90828910Y33811832D01*
X90815026Y33830552D01*
X90803044Y33850543D01*
X90793079Y33871613D01*
X90785227Y33893557D01*
X90779563Y33916166D01*
X90776144Y33939221D01*
X90775000Y33962500D01*
X90775000Y34537500D01*
X90776144Y34560779D01*
X90779563Y34583834D01*
X90785227Y34606443D01*
X90793079Y34628387D01*
X90803044Y34649457D01*
X90815026Y34669448D01*
X90828910Y34688168D01*
X90844562Y34705438D01*
X90861832Y34721090D01*
X90880552Y34734974D01*
X90900543Y34746956D01*
X90921613Y34756921D01*
X90943557Y34764773D01*
X90966166Y34770437D01*
X90989221Y34773856D01*
X91012500Y34775000D01*
X91487500Y34775000D01*
X91510779Y34773856D01*
G37*
G36*
X91510779Y36523856D02*
G01*
X91533834Y36520437D01*
X91556443Y36514773D01*
X91578387Y36506921D01*
X91599457Y36496956D01*
X91619448Y36484974D01*
X91638168Y36471090D01*
X91655438Y36455438D01*
X91671090Y36438168D01*
X91684974Y36419448D01*
X91696956Y36399457D01*
X91706921Y36378387D01*
X91714773Y36356443D01*
X91720437Y36333834D01*
X91723856Y36310779D01*
X91725000Y36287500D01*
X91725000Y35712500D01*
X91723856Y35689221D01*
X91720437Y35666166D01*
X91714773Y35643557D01*
X91706921Y35621613D01*
X91696956Y35600543D01*
X91684974Y35580552D01*
X91671090Y35561832D01*
X91655438Y35544562D01*
X91638168Y35528910D01*
X91619448Y35515026D01*
X91599457Y35503044D01*
X91578387Y35493079D01*
X91556443Y35485227D01*
X91533834Y35479563D01*
X91510779Y35476144D01*
X91487500Y35475000D01*
X91012500Y35475000D01*
X90989221Y35476144D01*
X90966166Y35479563D01*
X90943557Y35485227D01*
X90921613Y35493079D01*
X90900543Y35503044D01*
X90880552Y35515026D01*
X90861832Y35528910D01*
X90844562Y35544562D01*
X90828910Y35561832D01*
X90815026Y35580552D01*
X90803044Y35600543D01*
X90793079Y35621613D01*
X90785227Y35643557D01*
X90779563Y35666166D01*
X90776144Y35689221D01*
X90775000Y35712500D01*
X90775000Y36287500D01*
X90776144Y36310779D01*
X90779563Y36333834D01*
X90785227Y36356443D01*
X90793079Y36378387D01*
X90803044Y36399457D01*
X90815026Y36419448D01*
X90828910Y36438168D01*
X90844562Y36455438D01*
X90861832Y36471090D01*
X90880552Y36484974D01*
X90900543Y36496956D01*
X90921613Y36506921D01*
X90943557Y36514773D01*
X90966166Y36520437D01*
X90989221Y36523856D01*
X91012500Y36525000D01*
X91487500Y36525000D01*
X91510779Y36523856D01*
G37*
G36*
X90010779Y36523856D02*
G01*
X90033834Y36520437D01*
X90056443Y36514773D01*
X90078387Y36506921D01*
X90099457Y36496956D01*
X90119448Y36484974D01*
X90138168Y36471090D01*
X90155438Y36455438D01*
X90171090Y36438168D01*
X90184974Y36419448D01*
X90196956Y36399457D01*
X90206921Y36378387D01*
X90214773Y36356443D01*
X90220437Y36333834D01*
X90223856Y36310779D01*
X90225000Y36287500D01*
X90225000Y35712500D01*
X90223856Y35689221D01*
X90220437Y35666166D01*
X90214773Y35643557D01*
X90206921Y35621613D01*
X90196956Y35600543D01*
X90184974Y35580552D01*
X90171090Y35561832D01*
X90155438Y35544562D01*
X90138168Y35528910D01*
X90119448Y35515026D01*
X90099457Y35503044D01*
X90078387Y35493079D01*
X90056443Y35485227D01*
X90033834Y35479563D01*
X90010779Y35476144D01*
X89987500Y35475000D01*
X89512500Y35475000D01*
X89489221Y35476144D01*
X89466166Y35479563D01*
X89443557Y35485227D01*
X89421613Y35493079D01*
X89400543Y35503044D01*
X89380552Y35515026D01*
X89361832Y35528910D01*
X89344562Y35544562D01*
X89328910Y35561832D01*
X89315026Y35580552D01*
X89303044Y35600543D01*
X89293079Y35621613D01*
X89285227Y35643557D01*
X89279563Y35666166D01*
X89276144Y35689221D01*
X89275000Y35712500D01*
X89275000Y36287500D01*
X89276144Y36310779D01*
X89279563Y36333834D01*
X89285227Y36356443D01*
X89293079Y36378387D01*
X89303044Y36399457D01*
X89315026Y36419448D01*
X89328910Y36438168D01*
X89344562Y36455438D01*
X89361832Y36471090D01*
X89380552Y36484974D01*
X89400543Y36496956D01*
X89421613Y36506921D01*
X89443557Y36514773D01*
X89466166Y36520437D01*
X89489221Y36523856D01*
X89512500Y36525000D01*
X89987500Y36525000D01*
X90010779Y36523856D01*
G37*
G36*
X90010779Y34773856D02*
G01*
X90033834Y34770437D01*
X90056443Y34764773D01*
X90078387Y34756921D01*
X90099457Y34746956D01*
X90119448Y34734974D01*
X90138168Y34721090D01*
X90155438Y34705438D01*
X90171090Y34688168D01*
X90184974Y34669448D01*
X90196956Y34649457D01*
X90206921Y34628387D01*
X90214773Y34606443D01*
X90220437Y34583834D01*
X90223856Y34560779D01*
X90225000Y34537500D01*
X90225000Y33962500D01*
X90223856Y33939221D01*
X90220437Y33916166D01*
X90214773Y33893557D01*
X90206921Y33871613D01*
X90196956Y33850543D01*
X90184974Y33830552D01*
X90171090Y33811832D01*
X90155438Y33794562D01*
X90138168Y33778910D01*
X90119448Y33765026D01*
X90099457Y33753044D01*
X90078387Y33743079D01*
X90056443Y33735227D01*
X90033834Y33729563D01*
X90010779Y33726144D01*
X89987500Y33725000D01*
X89512500Y33725000D01*
X89489221Y33726144D01*
X89466166Y33729563D01*
X89443557Y33735227D01*
X89421613Y33743079D01*
X89400543Y33753044D01*
X89380552Y33765026D01*
X89361832Y33778910D01*
X89344562Y33794562D01*
X89328910Y33811832D01*
X89315026Y33830552D01*
X89303044Y33850543D01*
X89293079Y33871613D01*
X89285227Y33893557D01*
X89279563Y33916166D01*
X89276144Y33939221D01*
X89275000Y33962500D01*
X89275000Y34537500D01*
X89276144Y34560779D01*
X89279563Y34583834D01*
X89285227Y34606443D01*
X89293079Y34628387D01*
X89303044Y34649457D01*
X89315026Y34669448D01*
X89328910Y34688168D01*
X89344562Y34705438D01*
X89361832Y34721090D01*
X89380552Y34734974D01*
X89400543Y34746956D01*
X89421613Y34756921D01*
X89443557Y34764773D01*
X89466166Y34770437D01*
X89489221Y34773856D01*
X89512500Y34775000D01*
X89987500Y34775000D01*
X90010779Y34773856D01*
G37*
G36*
X94185779Y28723856D02*
G01*
X94208834Y28720437D01*
X94231443Y28714773D01*
X94253387Y28706921D01*
X94274457Y28696956D01*
X94294448Y28684974D01*
X94313168Y28671090D01*
X94330438Y28655438D01*
X94346090Y28638168D01*
X94359974Y28619448D01*
X94371956Y28599457D01*
X94381921Y28578387D01*
X94389773Y28556443D01*
X94395437Y28533834D01*
X94398856Y28510779D01*
X94400000Y28487500D01*
X94400000Y28012500D01*
X94398856Y27989221D01*
X94395437Y27966166D01*
X94389773Y27943557D01*
X94381921Y27921613D01*
X94371956Y27900543D01*
X94359974Y27880552D01*
X94346090Y27861832D01*
X94330438Y27844562D01*
X94313168Y27828910D01*
X94294448Y27815026D01*
X94274457Y27803044D01*
X94253387Y27793079D01*
X94231443Y27785227D01*
X94208834Y27779563D01*
X94185779Y27776144D01*
X94162500Y27775000D01*
X93587500Y27775000D01*
X93564221Y27776144D01*
X93541166Y27779563D01*
X93518557Y27785227D01*
X93496613Y27793079D01*
X93475543Y27803044D01*
X93455552Y27815026D01*
X93436832Y27828910D01*
X93419562Y27844562D01*
X93403910Y27861832D01*
X93390026Y27880552D01*
X93378044Y27900543D01*
X93368079Y27921613D01*
X93360227Y27943557D01*
X93354563Y27966166D01*
X93351144Y27989221D01*
X93350000Y28012500D01*
X93350000Y28487500D01*
X93351144Y28510779D01*
X93354563Y28533834D01*
X93360227Y28556443D01*
X93368079Y28578387D01*
X93378044Y28599457D01*
X93390026Y28619448D01*
X93403910Y28638168D01*
X93419562Y28655438D01*
X93436832Y28671090D01*
X93455552Y28684974D01*
X93475543Y28696956D01*
X93496613Y28706921D01*
X93518557Y28714773D01*
X93541166Y28720437D01*
X93564221Y28723856D01*
X93587500Y28725000D01*
X94162500Y28725000D01*
X94185779Y28723856D01*
G37*
G36*
X95935779Y28723856D02*
G01*
X95958834Y28720437D01*
X95981443Y28714773D01*
X96003387Y28706921D01*
X96024457Y28696956D01*
X96044448Y28684974D01*
X96063168Y28671090D01*
X96080438Y28655438D01*
X96096090Y28638168D01*
X96109974Y28619448D01*
X96121956Y28599457D01*
X96131921Y28578387D01*
X96139773Y28556443D01*
X96145437Y28533834D01*
X96148856Y28510779D01*
X96150000Y28487500D01*
X96150000Y28012500D01*
X96148856Y27989221D01*
X96145437Y27966166D01*
X96139773Y27943557D01*
X96131921Y27921613D01*
X96121956Y27900543D01*
X96109974Y27880552D01*
X96096090Y27861832D01*
X96080438Y27844562D01*
X96063168Y27828910D01*
X96044448Y27815026D01*
X96024457Y27803044D01*
X96003387Y27793079D01*
X95981443Y27785227D01*
X95958834Y27779563D01*
X95935779Y27776144D01*
X95912500Y27775000D01*
X95337500Y27775000D01*
X95314221Y27776144D01*
X95291166Y27779563D01*
X95268557Y27785227D01*
X95246613Y27793079D01*
X95225543Y27803044D01*
X95205552Y27815026D01*
X95186832Y27828910D01*
X95169562Y27844562D01*
X95153910Y27861832D01*
X95140026Y27880552D01*
X95128044Y27900543D01*
X95118079Y27921613D01*
X95110227Y27943557D01*
X95104563Y27966166D01*
X95101144Y27989221D01*
X95100000Y28012500D01*
X95100000Y28487500D01*
X95101144Y28510779D01*
X95104563Y28533834D01*
X95110227Y28556443D01*
X95118079Y28578387D01*
X95128044Y28599457D01*
X95140026Y28619448D01*
X95153910Y28638168D01*
X95169562Y28655438D01*
X95186832Y28671090D01*
X95205552Y28684974D01*
X95225543Y28696956D01*
X95246613Y28706921D01*
X95268557Y28714773D01*
X95291166Y28720437D01*
X95314221Y28723856D01*
X95337500Y28725000D01*
X95912500Y28725000D01*
X95935779Y28723856D01*
G37*
G36*
X94185779Y25223856D02*
G01*
X94208834Y25220437D01*
X94231443Y25214773D01*
X94253387Y25206921D01*
X94274457Y25196956D01*
X94294448Y25184974D01*
X94313168Y25171090D01*
X94330438Y25155438D01*
X94346090Y25138168D01*
X94359974Y25119448D01*
X94371956Y25099457D01*
X94381921Y25078387D01*
X94389773Y25056443D01*
X94395437Y25033834D01*
X94398856Y25010779D01*
X94400000Y24987500D01*
X94400000Y24512500D01*
X94398856Y24489221D01*
X94395437Y24466166D01*
X94389773Y24443557D01*
X94381921Y24421613D01*
X94371956Y24400543D01*
X94359974Y24380552D01*
X94346090Y24361832D01*
X94330438Y24344562D01*
X94313168Y24328910D01*
X94294448Y24315026D01*
X94274457Y24303044D01*
X94253387Y24293079D01*
X94231443Y24285227D01*
X94208834Y24279563D01*
X94185779Y24276144D01*
X94162500Y24275000D01*
X93587500Y24275000D01*
X93564221Y24276144D01*
X93541166Y24279563D01*
X93518557Y24285227D01*
X93496613Y24293079D01*
X93475543Y24303044D01*
X93455552Y24315026D01*
X93436832Y24328910D01*
X93419562Y24344562D01*
X93403910Y24361832D01*
X93390026Y24380552D01*
X93378044Y24400543D01*
X93368079Y24421613D01*
X93360227Y24443557D01*
X93354563Y24466166D01*
X93351144Y24489221D01*
X93350000Y24512500D01*
X93350000Y24987500D01*
X93351144Y25010779D01*
X93354563Y25033834D01*
X93360227Y25056443D01*
X93368079Y25078387D01*
X93378044Y25099457D01*
X93390026Y25119448D01*
X93403910Y25138168D01*
X93419562Y25155438D01*
X93436832Y25171090D01*
X93455552Y25184974D01*
X93475543Y25196956D01*
X93496613Y25206921D01*
X93518557Y25214773D01*
X93541166Y25220437D01*
X93564221Y25223856D01*
X93587500Y25225000D01*
X94162500Y25225000D01*
X94185779Y25223856D01*
G37*
G36*
X95935779Y25223856D02*
G01*
X95958834Y25220437D01*
X95981443Y25214773D01*
X96003387Y25206921D01*
X96024457Y25196956D01*
X96044448Y25184974D01*
X96063168Y25171090D01*
X96080438Y25155438D01*
X96096090Y25138168D01*
X96109974Y25119448D01*
X96121956Y25099457D01*
X96131921Y25078387D01*
X96139773Y25056443D01*
X96145437Y25033834D01*
X96148856Y25010779D01*
X96150000Y24987500D01*
X96150000Y24512500D01*
X96148856Y24489221D01*
X96145437Y24466166D01*
X96139773Y24443557D01*
X96131921Y24421613D01*
X96121956Y24400543D01*
X96109974Y24380552D01*
X96096090Y24361832D01*
X96080438Y24344562D01*
X96063168Y24328910D01*
X96044448Y24315026D01*
X96024457Y24303044D01*
X96003387Y24293079D01*
X95981443Y24285227D01*
X95958834Y24279563D01*
X95935779Y24276144D01*
X95912500Y24275000D01*
X95337500Y24275000D01*
X95314221Y24276144D01*
X95291166Y24279563D01*
X95268557Y24285227D01*
X95246613Y24293079D01*
X95225543Y24303044D01*
X95205552Y24315026D01*
X95186832Y24328910D01*
X95169562Y24344562D01*
X95153910Y24361832D01*
X95140026Y24380552D01*
X95128044Y24400543D01*
X95118079Y24421613D01*
X95110227Y24443557D01*
X95104563Y24466166D01*
X95101144Y24489221D01*
X95100000Y24512500D01*
X95100000Y24987500D01*
X95101144Y25010779D01*
X95104563Y25033834D01*
X95110227Y25056443D01*
X95118079Y25078387D01*
X95128044Y25099457D01*
X95140026Y25119448D01*
X95153910Y25138168D01*
X95169562Y25155438D01*
X95186832Y25171090D01*
X95205552Y25184974D01*
X95225543Y25196956D01*
X95246613Y25206921D01*
X95268557Y25214773D01*
X95291166Y25220437D01*
X95314221Y25223856D01*
X95337500Y25225000D01*
X95912500Y25225000D01*
X95935779Y25223856D01*
G37*
G36*
X85010779Y38148856D02*
G01*
X85033834Y38145437D01*
X85056443Y38139773D01*
X85078387Y38131921D01*
X85099457Y38121956D01*
X85119448Y38109974D01*
X85138168Y38096090D01*
X85155438Y38080438D01*
X85171090Y38063168D01*
X85184974Y38044448D01*
X85196956Y38024457D01*
X85206921Y38003387D01*
X85214773Y37981443D01*
X85220437Y37958834D01*
X85223856Y37935779D01*
X85225000Y37912500D01*
X85225000Y37337500D01*
X85223856Y37314221D01*
X85220437Y37291166D01*
X85214773Y37268557D01*
X85206921Y37246613D01*
X85196956Y37225543D01*
X85184974Y37205552D01*
X85171090Y37186832D01*
X85155438Y37169562D01*
X85138168Y37153910D01*
X85119448Y37140026D01*
X85099457Y37128044D01*
X85078387Y37118079D01*
X85056443Y37110227D01*
X85033834Y37104563D01*
X85010779Y37101144D01*
X84987500Y37100000D01*
X84512500Y37100000D01*
X84489221Y37101144D01*
X84466166Y37104563D01*
X84443557Y37110227D01*
X84421613Y37118079D01*
X84400543Y37128044D01*
X84380552Y37140026D01*
X84361832Y37153910D01*
X84344562Y37169562D01*
X84328910Y37186832D01*
X84315026Y37205552D01*
X84303044Y37225543D01*
X84293079Y37246613D01*
X84285227Y37268557D01*
X84279563Y37291166D01*
X84276144Y37314221D01*
X84275000Y37337500D01*
X84275000Y37912500D01*
X84276144Y37935779D01*
X84279563Y37958834D01*
X84285227Y37981443D01*
X84293079Y38003387D01*
X84303044Y38024457D01*
X84315026Y38044448D01*
X84328910Y38063168D01*
X84344562Y38080438D01*
X84361832Y38096090D01*
X84380552Y38109974D01*
X84400543Y38121956D01*
X84421613Y38131921D01*
X84443557Y38139773D01*
X84466166Y38145437D01*
X84489221Y38148856D01*
X84512500Y38150000D01*
X84987500Y38150000D01*
X85010779Y38148856D01*
G37*
G36*
X85010779Y39898856D02*
G01*
X85033834Y39895437D01*
X85056443Y39889773D01*
X85078387Y39881921D01*
X85099457Y39871956D01*
X85119448Y39859974D01*
X85138168Y39846090D01*
X85155438Y39830438D01*
X85171090Y39813168D01*
X85184974Y39794448D01*
X85196956Y39774457D01*
X85206921Y39753387D01*
X85214773Y39731443D01*
X85220437Y39708834D01*
X85223856Y39685779D01*
X85225000Y39662500D01*
X85225000Y39087500D01*
X85223856Y39064221D01*
X85220437Y39041166D01*
X85214773Y39018557D01*
X85206921Y38996613D01*
X85196956Y38975543D01*
X85184974Y38955552D01*
X85171090Y38936832D01*
X85155438Y38919562D01*
X85138168Y38903910D01*
X85119448Y38890026D01*
X85099457Y38878044D01*
X85078387Y38868079D01*
X85056443Y38860227D01*
X85033834Y38854563D01*
X85010779Y38851144D01*
X84987500Y38850000D01*
X84512500Y38850000D01*
X84489221Y38851144D01*
X84466166Y38854563D01*
X84443557Y38860227D01*
X84421613Y38868079D01*
X84400543Y38878044D01*
X84380552Y38890026D01*
X84361832Y38903910D01*
X84344562Y38919562D01*
X84328910Y38936832D01*
X84315026Y38955552D01*
X84303044Y38975543D01*
X84293079Y38996613D01*
X84285227Y39018557D01*
X84279563Y39041166D01*
X84276144Y39064221D01*
X84275000Y39087500D01*
X84275000Y39662500D01*
X84276144Y39685779D01*
X84279563Y39708834D01*
X84285227Y39731443D01*
X84293079Y39753387D01*
X84303044Y39774457D01*
X84315026Y39794448D01*
X84328910Y39813168D01*
X84344562Y39830438D01*
X84361832Y39846090D01*
X84380552Y39859974D01*
X84400543Y39871956D01*
X84421613Y39881921D01*
X84443557Y39889773D01*
X84466166Y39895437D01*
X84489221Y39898856D01*
X84512500Y39900000D01*
X84987500Y39900000D01*
X85010779Y39898856D01*
G37*
G36*
X83510779Y38148856D02*
G01*
X83533834Y38145437D01*
X83556443Y38139773D01*
X83578387Y38131921D01*
X83599457Y38121956D01*
X83619448Y38109974D01*
X83638168Y38096090D01*
X83655438Y38080438D01*
X83671090Y38063168D01*
X83684974Y38044448D01*
X83696956Y38024457D01*
X83706921Y38003387D01*
X83714773Y37981443D01*
X83720437Y37958834D01*
X83723856Y37935779D01*
X83725000Y37912500D01*
X83725000Y37337500D01*
X83723856Y37314221D01*
X83720437Y37291166D01*
X83714773Y37268557D01*
X83706921Y37246613D01*
X83696956Y37225543D01*
X83684974Y37205552D01*
X83671090Y37186832D01*
X83655438Y37169562D01*
X83638168Y37153910D01*
X83619448Y37140026D01*
X83599457Y37128044D01*
X83578387Y37118079D01*
X83556443Y37110227D01*
X83533834Y37104563D01*
X83510779Y37101144D01*
X83487500Y37100000D01*
X83012500Y37100000D01*
X82989221Y37101144D01*
X82966166Y37104563D01*
X82943557Y37110227D01*
X82921613Y37118079D01*
X82900543Y37128044D01*
X82880552Y37140026D01*
X82861832Y37153910D01*
X82844562Y37169562D01*
X82828910Y37186832D01*
X82815026Y37205552D01*
X82803044Y37225543D01*
X82793079Y37246613D01*
X82785227Y37268557D01*
X82779563Y37291166D01*
X82776144Y37314221D01*
X82775000Y37337500D01*
X82775000Y37912500D01*
X82776144Y37935779D01*
X82779563Y37958834D01*
X82785227Y37981443D01*
X82793079Y38003387D01*
X82803044Y38024457D01*
X82815026Y38044448D01*
X82828910Y38063168D01*
X82844562Y38080438D01*
X82861832Y38096090D01*
X82880552Y38109974D01*
X82900543Y38121956D01*
X82921613Y38131921D01*
X82943557Y38139773D01*
X82966166Y38145437D01*
X82989221Y38148856D01*
X83012500Y38150000D01*
X83487500Y38150000D01*
X83510779Y38148856D01*
G37*
G36*
X83510779Y39898856D02*
G01*
X83533834Y39895437D01*
X83556443Y39889773D01*
X83578387Y39881921D01*
X83599457Y39871956D01*
X83619448Y39859974D01*
X83638168Y39846090D01*
X83655438Y39830438D01*
X83671090Y39813168D01*
X83684974Y39794448D01*
X83696956Y39774457D01*
X83706921Y39753387D01*
X83714773Y39731443D01*
X83720437Y39708834D01*
X83723856Y39685779D01*
X83725000Y39662500D01*
X83725000Y39087500D01*
X83723856Y39064221D01*
X83720437Y39041166D01*
X83714773Y39018557D01*
X83706921Y38996613D01*
X83696956Y38975543D01*
X83684974Y38955552D01*
X83671090Y38936832D01*
X83655438Y38919562D01*
X83638168Y38903910D01*
X83619448Y38890026D01*
X83599457Y38878044D01*
X83578387Y38868079D01*
X83556443Y38860227D01*
X83533834Y38854563D01*
X83510779Y38851144D01*
X83487500Y38850000D01*
X83012500Y38850000D01*
X82989221Y38851144D01*
X82966166Y38854563D01*
X82943557Y38860227D01*
X82921613Y38868079D01*
X82900543Y38878044D01*
X82880552Y38890026D01*
X82861832Y38903910D01*
X82844562Y38919562D01*
X82828910Y38936832D01*
X82815026Y38955552D01*
X82803044Y38975543D01*
X82793079Y38996613D01*
X82785227Y39018557D01*
X82779563Y39041166D01*
X82776144Y39064221D01*
X82775000Y39087500D01*
X82775000Y39662500D01*
X82776144Y39685779D01*
X82779563Y39708834D01*
X82785227Y39731443D01*
X82793079Y39753387D01*
X82803044Y39774457D01*
X82815026Y39794448D01*
X82828910Y39813168D01*
X82844562Y39830438D01*
X82861832Y39846090D01*
X82880552Y39859974D01*
X82900543Y39871956D01*
X82921613Y39881921D01*
X82943557Y39889773D01*
X82966166Y39895437D01*
X82989221Y39898856D01*
X83012500Y39900000D01*
X83487500Y39900000D01*
X83510779Y39898856D01*
G37*
G36*
X86510779Y38148856D02*
G01*
X86533834Y38145437D01*
X86556443Y38139773D01*
X86578387Y38131921D01*
X86599457Y38121956D01*
X86619448Y38109974D01*
X86638168Y38096090D01*
X86655438Y38080438D01*
X86671090Y38063168D01*
X86684974Y38044448D01*
X86696956Y38024457D01*
X86706921Y38003387D01*
X86714773Y37981443D01*
X86720437Y37958834D01*
X86723856Y37935779D01*
X86725000Y37912500D01*
X86725000Y37337500D01*
X86723856Y37314221D01*
X86720437Y37291166D01*
X86714773Y37268557D01*
X86706921Y37246613D01*
X86696956Y37225543D01*
X86684974Y37205552D01*
X86671090Y37186832D01*
X86655438Y37169562D01*
X86638168Y37153910D01*
X86619448Y37140026D01*
X86599457Y37128044D01*
X86578387Y37118079D01*
X86556443Y37110227D01*
X86533834Y37104563D01*
X86510779Y37101144D01*
X86487500Y37100000D01*
X86012500Y37100000D01*
X85989221Y37101144D01*
X85966166Y37104563D01*
X85943557Y37110227D01*
X85921613Y37118079D01*
X85900543Y37128044D01*
X85880552Y37140026D01*
X85861832Y37153910D01*
X85844562Y37169562D01*
X85828910Y37186832D01*
X85815026Y37205552D01*
X85803044Y37225543D01*
X85793079Y37246613D01*
X85785227Y37268557D01*
X85779563Y37291166D01*
X85776144Y37314221D01*
X85775000Y37337500D01*
X85775000Y37912500D01*
X85776144Y37935779D01*
X85779563Y37958834D01*
X85785227Y37981443D01*
X85793079Y38003387D01*
X85803044Y38024457D01*
X85815026Y38044448D01*
X85828910Y38063168D01*
X85844562Y38080438D01*
X85861832Y38096090D01*
X85880552Y38109974D01*
X85900543Y38121956D01*
X85921613Y38131921D01*
X85943557Y38139773D01*
X85966166Y38145437D01*
X85989221Y38148856D01*
X86012500Y38150000D01*
X86487500Y38150000D01*
X86510779Y38148856D01*
G37*
G36*
X86510779Y39898856D02*
G01*
X86533834Y39895437D01*
X86556443Y39889773D01*
X86578387Y39881921D01*
X86599457Y39871956D01*
X86619448Y39859974D01*
X86638168Y39846090D01*
X86655438Y39830438D01*
X86671090Y39813168D01*
X86684974Y39794448D01*
X86696956Y39774457D01*
X86706921Y39753387D01*
X86714773Y39731443D01*
X86720437Y39708834D01*
X86723856Y39685779D01*
X86725000Y39662500D01*
X86725000Y39087500D01*
X86723856Y39064221D01*
X86720437Y39041166D01*
X86714773Y39018557D01*
X86706921Y38996613D01*
X86696956Y38975543D01*
X86684974Y38955552D01*
X86671090Y38936832D01*
X86655438Y38919562D01*
X86638168Y38903910D01*
X86619448Y38890026D01*
X86599457Y38878044D01*
X86578387Y38868079D01*
X86556443Y38860227D01*
X86533834Y38854563D01*
X86510779Y38851144D01*
X86487500Y38850000D01*
X86012500Y38850000D01*
X85989221Y38851144D01*
X85966166Y38854563D01*
X85943557Y38860227D01*
X85921613Y38868079D01*
X85900543Y38878044D01*
X85880552Y38890026D01*
X85861832Y38903910D01*
X85844562Y38919562D01*
X85828910Y38936832D01*
X85815026Y38955552D01*
X85803044Y38975543D01*
X85793079Y38996613D01*
X85785227Y39018557D01*
X85779563Y39041166D01*
X85776144Y39064221D01*
X85775000Y39087500D01*
X85775000Y39662500D01*
X85776144Y39685779D01*
X85779563Y39708834D01*
X85785227Y39731443D01*
X85793079Y39753387D01*
X85803044Y39774457D01*
X85815026Y39794448D01*
X85828910Y39813168D01*
X85844562Y39830438D01*
X85861832Y39846090D01*
X85880552Y39859974D01*
X85900543Y39871956D01*
X85921613Y39881921D01*
X85943557Y39889773D01*
X85966166Y39895437D01*
X85989221Y39898856D01*
X86012500Y39900000D01*
X86487500Y39900000D01*
X86510779Y39898856D01*
G37*
G36*
X71810779Y26723856D02*
G01*
X71833834Y26720437D01*
X71856443Y26714773D01*
X71878387Y26706921D01*
X71899457Y26696956D01*
X71919448Y26684974D01*
X71938168Y26671090D01*
X71955438Y26655438D01*
X71971090Y26638168D01*
X71984974Y26619448D01*
X71996956Y26599457D01*
X72006921Y26578387D01*
X72014773Y26556443D01*
X72020437Y26533834D01*
X72023856Y26510779D01*
X72025000Y26487500D01*
X72025000Y26012500D01*
X72023856Y25989221D01*
X72020437Y25966166D01*
X72014773Y25943557D01*
X72006921Y25921613D01*
X71996956Y25900543D01*
X71984974Y25880552D01*
X71971090Y25861832D01*
X71955438Y25844562D01*
X71938168Y25828910D01*
X71919448Y25815026D01*
X71899457Y25803044D01*
X71878387Y25793079D01*
X71856443Y25785227D01*
X71833834Y25779563D01*
X71810779Y25776144D01*
X71787500Y25775000D01*
X71212500Y25775000D01*
X71189221Y25776144D01*
X71166166Y25779563D01*
X71143557Y25785227D01*
X71121613Y25793079D01*
X71100543Y25803044D01*
X71080552Y25815026D01*
X71061832Y25828910D01*
X71044562Y25844562D01*
X71028910Y25861832D01*
X71015026Y25880552D01*
X71003044Y25900543D01*
X70993079Y25921613D01*
X70985227Y25943557D01*
X70979563Y25966166D01*
X70976144Y25989221D01*
X70975000Y26012500D01*
X70975000Y26487500D01*
X70976144Y26510779D01*
X70979563Y26533834D01*
X70985227Y26556443D01*
X70993079Y26578387D01*
X71003044Y26599457D01*
X71015026Y26619448D01*
X71028910Y26638168D01*
X71044562Y26655438D01*
X71061832Y26671090D01*
X71080552Y26684974D01*
X71100543Y26696956D01*
X71121613Y26706921D01*
X71143557Y26714773D01*
X71166166Y26720437D01*
X71189221Y26723856D01*
X71212500Y26725000D01*
X71787500Y26725000D01*
X71810779Y26723856D01*
G37*
G36*
X70060779Y26723856D02*
G01*
X70083834Y26720437D01*
X70106443Y26714773D01*
X70128387Y26706921D01*
X70149457Y26696956D01*
X70169448Y26684974D01*
X70188168Y26671090D01*
X70205438Y26655438D01*
X70221090Y26638168D01*
X70234974Y26619448D01*
X70246956Y26599457D01*
X70256921Y26578387D01*
X70264773Y26556443D01*
X70270437Y26533834D01*
X70273856Y26510779D01*
X70275000Y26487500D01*
X70275000Y26012500D01*
X70273856Y25989221D01*
X70270437Y25966166D01*
X70264773Y25943557D01*
X70256921Y25921613D01*
X70246956Y25900543D01*
X70234974Y25880552D01*
X70221090Y25861832D01*
X70205438Y25844562D01*
X70188168Y25828910D01*
X70169448Y25815026D01*
X70149457Y25803044D01*
X70128387Y25793079D01*
X70106443Y25785227D01*
X70083834Y25779563D01*
X70060779Y25776144D01*
X70037500Y25775000D01*
X69462500Y25775000D01*
X69439221Y25776144D01*
X69416166Y25779563D01*
X69393557Y25785227D01*
X69371613Y25793079D01*
X69350543Y25803044D01*
X69330552Y25815026D01*
X69311832Y25828910D01*
X69294562Y25844562D01*
X69278910Y25861832D01*
X69265026Y25880552D01*
X69253044Y25900543D01*
X69243079Y25921613D01*
X69235227Y25943557D01*
X69229563Y25966166D01*
X69226144Y25989221D01*
X69225000Y26012500D01*
X69225000Y26487500D01*
X69226144Y26510779D01*
X69229563Y26533834D01*
X69235227Y26556443D01*
X69243079Y26578387D01*
X69253044Y26599457D01*
X69265026Y26619448D01*
X69278910Y26638168D01*
X69294562Y26655438D01*
X69311832Y26671090D01*
X69330552Y26684974D01*
X69350543Y26696956D01*
X69371613Y26706921D01*
X69393557Y26714773D01*
X69416166Y26720437D01*
X69439221Y26723856D01*
X69462500Y26725000D01*
X70037500Y26725000D01*
X70060779Y26723856D01*
G37*
G36*
X70060779Y17973856D02*
G01*
X70083834Y17970437D01*
X70106443Y17964773D01*
X70128387Y17956921D01*
X70149457Y17946956D01*
X70169448Y17934974D01*
X70188168Y17921090D01*
X70205438Y17905438D01*
X70221090Y17888168D01*
X70234974Y17869448D01*
X70246956Y17849457D01*
X70256921Y17828387D01*
X70264773Y17806443D01*
X70270437Y17783834D01*
X70273856Y17760779D01*
X70275000Y17737500D01*
X70275000Y17262500D01*
X70273856Y17239221D01*
X70270437Y17216166D01*
X70264773Y17193557D01*
X70256921Y17171613D01*
X70246956Y17150543D01*
X70234974Y17130552D01*
X70221090Y17111832D01*
X70205438Y17094562D01*
X70188168Y17078910D01*
X70169448Y17065026D01*
X70149457Y17053044D01*
X70128387Y17043079D01*
X70106443Y17035227D01*
X70083834Y17029563D01*
X70060779Y17026144D01*
X70037500Y17025000D01*
X69462500Y17025000D01*
X69439221Y17026144D01*
X69416166Y17029563D01*
X69393557Y17035227D01*
X69371613Y17043079D01*
X69350543Y17053044D01*
X69330552Y17065026D01*
X69311832Y17078910D01*
X69294562Y17094562D01*
X69278910Y17111832D01*
X69265026Y17130552D01*
X69253044Y17150543D01*
X69243079Y17171613D01*
X69235227Y17193557D01*
X69229563Y17216166D01*
X69226144Y17239221D01*
X69225000Y17262500D01*
X69225000Y17737500D01*
X69226144Y17760779D01*
X69229563Y17783834D01*
X69235227Y17806443D01*
X69243079Y17828387D01*
X69253044Y17849457D01*
X69265026Y17869448D01*
X69278910Y17888168D01*
X69294562Y17905438D01*
X69311832Y17921090D01*
X69330552Y17934974D01*
X69350543Y17946956D01*
X69371613Y17956921D01*
X69393557Y17964773D01*
X69416166Y17970437D01*
X69439221Y17973856D01*
X69462500Y17975000D01*
X70037500Y17975000D01*
X70060779Y17973856D01*
G37*
G36*
X71810779Y17973856D02*
G01*
X71833834Y17970437D01*
X71856443Y17964773D01*
X71878387Y17956921D01*
X71899457Y17946956D01*
X71919448Y17934974D01*
X71938168Y17921090D01*
X71955438Y17905438D01*
X71971090Y17888168D01*
X71984974Y17869448D01*
X71996956Y17849457D01*
X72006921Y17828387D01*
X72014773Y17806443D01*
X72020437Y17783834D01*
X72023856Y17760779D01*
X72025000Y17737500D01*
X72025000Y17262500D01*
X72023856Y17239221D01*
X72020437Y17216166D01*
X72014773Y17193557D01*
X72006921Y17171613D01*
X71996956Y17150543D01*
X71984974Y17130552D01*
X71971090Y17111832D01*
X71955438Y17094562D01*
X71938168Y17078910D01*
X71919448Y17065026D01*
X71899457Y17053044D01*
X71878387Y17043079D01*
X71856443Y17035227D01*
X71833834Y17029563D01*
X71810779Y17026144D01*
X71787500Y17025000D01*
X71212500Y17025000D01*
X71189221Y17026144D01*
X71166166Y17029563D01*
X71143557Y17035227D01*
X71121613Y17043079D01*
X71100543Y17053044D01*
X71080552Y17065026D01*
X71061832Y17078910D01*
X71044562Y17094562D01*
X71028910Y17111832D01*
X71015026Y17130552D01*
X71003044Y17150543D01*
X70993079Y17171613D01*
X70985227Y17193557D01*
X70979563Y17216166D01*
X70976144Y17239221D01*
X70975000Y17262500D01*
X70975000Y17737500D01*
X70976144Y17760779D01*
X70979563Y17783834D01*
X70985227Y17806443D01*
X70993079Y17828387D01*
X71003044Y17849457D01*
X71015026Y17869448D01*
X71028910Y17888168D01*
X71044562Y17905438D01*
X71061832Y17921090D01*
X71080552Y17934974D01*
X71100543Y17946956D01*
X71121613Y17956921D01*
X71143557Y17964773D01*
X71166166Y17970437D01*
X71189221Y17973856D01*
X71212500Y17975000D01*
X71787500Y17975000D01*
X71810779Y17973856D01*
G37*
G36*
X71810779Y9223856D02*
G01*
X71833834Y9220437D01*
X71856443Y9214773D01*
X71878387Y9206921D01*
X71899457Y9196956D01*
X71919448Y9184974D01*
X71938168Y9171090D01*
X71955438Y9155438D01*
X71971090Y9138168D01*
X71984974Y9119448D01*
X71996956Y9099457D01*
X72006921Y9078387D01*
X72014773Y9056443D01*
X72020437Y9033834D01*
X72023856Y9010779D01*
X72025000Y8987500D01*
X72025000Y8512500D01*
X72023856Y8489221D01*
X72020437Y8466166D01*
X72014773Y8443557D01*
X72006921Y8421613D01*
X71996956Y8400543D01*
X71984974Y8380552D01*
X71971090Y8361832D01*
X71955438Y8344562D01*
X71938168Y8328910D01*
X71919448Y8315026D01*
X71899457Y8303044D01*
X71878387Y8293079D01*
X71856443Y8285227D01*
X71833834Y8279563D01*
X71810779Y8276144D01*
X71787500Y8275000D01*
X71212500Y8275000D01*
X71189221Y8276144D01*
X71166166Y8279563D01*
X71143557Y8285227D01*
X71121613Y8293079D01*
X71100543Y8303044D01*
X71080552Y8315026D01*
X71061832Y8328910D01*
X71044562Y8344562D01*
X71028910Y8361832D01*
X71015026Y8380552D01*
X71003044Y8400543D01*
X70993079Y8421613D01*
X70985227Y8443557D01*
X70979563Y8466166D01*
X70976144Y8489221D01*
X70975000Y8512500D01*
X70975000Y8987500D01*
X70976144Y9010779D01*
X70979563Y9033834D01*
X70985227Y9056443D01*
X70993079Y9078387D01*
X71003044Y9099457D01*
X71015026Y9119448D01*
X71028910Y9138168D01*
X71044562Y9155438D01*
X71061832Y9171090D01*
X71080552Y9184974D01*
X71100543Y9196956D01*
X71121613Y9206921D01*
X71143557Y9214773D01*
X71166166Y9220437D01*
X71189221Y9223856D01*
X71212500Y9225000D01*
X71787500Y9225000D01*
X71810779Y9223856D01*
G37*
G36*
X70060779Y9223856D02*
G01*
X70083834Y9220437D01*
X70106443Y9214773D01*
X70128387Y9206921D01*
X70149457Y9196956D01*
X70169448Y9184974D01*
X70188168Y9171090D01*
X70205438Y9155438D01*
X70221090Y9138168D01*
X70234974Y9119448D01*
X70246956Y9099457D01*
X70256921Y9078387D01*
X70264773Y9056443D01*
X70270437Y9033834D01*
X70273856Y9010779D01*
X70275000Y8987500D01*
X70275000Y8512500D01*
X70273856Y8489221D01*
X70270437Y8466166D01*
X70264773Y8443557D01*
X70256921Y8421613D01*
X70246956Y8400543D01*
X70234974Y8380552D01*
X70221090Y8361832D01*
X70205438Y8344562D01*
X70188168Y8328910D01*
X70169448Y8315026D01*
X70149457Y8303044D01*
X70128387Y8293079D01*
X70106443Y8285227D01*
X70083834Y8279563D01*
X70060779Y8276144D01*
X70037500Y8275000D01*
X69462500Y8275000D01*
X69439221Y8276144D01*
X69416166Y8279563D01*
X69393557Y8285227D01*
X69371613Y8293079D01*
X69350543Y8303044D01*
X69330552Y8315026D01*
X69311832Y8328910D01*
X69294562Y8344562D01*
X69278910Y8361832D01*
X69265026Y8380552D01*
X69253044Y8400543D01*
X69243079Y8421613D01*
X69235227Y8443557D01*
X69229563Y8466166D01*
X69226144Y8489221D01*
X69225000Y8512500D01*
X69225000Y8987500D01*
X69226144Y9010779D01*
X69229563Y9033834D01*
X69235227Y9056443D01*
X69243079Y9078387D01*
X69253044Y9099457D01*
X69265026Y9119448D01*
X69278910Y9138168D01*
X69294562Y9155438D01*
X69311832Y9171090D01*
X69330552Y9184974D01*
X69350543Y9196956D01*
X69371613Y9206921D01*
X69393557Y9214773D01*
X69416166Y9220437D01*
X69439221Y9223856D01*
X69462500Y9225000D01*
X70037500Y9225000D01*
X70060779Y9223856D01*
G37*
G36*
X94185779Y23973856D02*
G01*
X94208834Y23970437D01*
X94231443Y23964773D01*
X94253387Y23956921D01*
X94274457Y23946956D01*
X94294448Y23934974D01*
X94313168Y23921090D01*
X94330438Y23905438D01*
X94346090Y23888168D01*
X94359974Y23869448D01*
X94371956Y23849457D01*
X94381921Y23828387D01*
X94389773Y23806443D01*
X94395437Y23783834D01*
X94398856Y23760779D01*
X94400000Y23737500D01*
X94400000Y23262500D01*
X94398856Y23239221D01*
X94395437Y23216166D01*
X94389773Y23193557D01*
X94381921Y23171613D01*
X94371956Y23150543D01*
X94359974Y23130552D01*
X94346090Y23111832D01*
X94330438Y23094562D01*
X94313168Y23078910D01*
X94294448Y23065026D01*
X94274457Y23053044D01*
X94253387Y23043079D01*
X94231443Y23035227D01*
X94208834Y23029563D01*
X94185779Y23026144D01*
X94162500Y23025000D01*
X93587500Y23025000D01*
X93564221Y23026144D01*
X93541166Y23029563D01*
X93518557Y23035227D01*
X93496613Y23043079D01*
X93475543Y23053044D01*
X93455552Y23065026D01*
X93436832Y23078910D01*
X93419562Y23094562D01*
X93403910Y23111832D01*
X93390026Y23130552D01*
X93378044Y23150543D01*
X93368079Y23171613D01*
X93360227Y23193557D01*
X93354563Y23216166D01*
X93351144Y23239221D01*
X93350000Y23262500D01*
X93350000Y23737500D01*
X93351144Y23760779D01*
X93354563Y23783834D01*
X93360227Y23806443D01*
X93368079Y23828387D01*
X93378044Y23849457D01*
X93390026Y23869448D01*
X93403910Y23888168D01*
X93419562Y23905438D01*
X93436832Y23921090D01*
X93455552Y23934974D01*
X93475543Y23946956D01*
X93496613Y23956921D01*
X93518557Y23964773D01*
X93541166Y23970437D01*
X93564221Y23973856D01*
X93587500Y23975000D01*
X94162500Y23975000D01*
X94185779Y23973856D01*
G37*
G36*
X95935779Y23973856D02*
G01*
X95958834Y23970437D01*
X95981443Y23964773D01*
X96003387Y23956921D01*
X96024457Y23946956D01*
X96044448Y23934974D01*
X96063168Y23921090D01*
X96080438Y23905438D01*
X96096090Y23888168D01*
X96109974Y23869448D01*
X96121956Y23849457D01*
X96131921Y23828387D01*
X96139773Y23806443D01*
X96145437Y23783834D01*
X96148856Y23760779D01*
X96150000Y23737500D01*
X96150000Y23262500D01*
X96148856Y23239221D01*
X96145437Y23216166D01*
X96139773Y23193557D01*
X96131921Y23171613D01*
X96121956Y23150543D01*
X96109974Y23130552D01*
X96096090Y23111832D01*
X96080438Y23094562D01*
X96063168Y23078910D01*
X96044448Y23065026D01*
X96024457Y23053044D01*
X96003387Y23043079D01*
X95981443Y23035227D01*
X95958834Y23029563D01*
X95935779Y23026144D01*
X95912500Y23025000D01*
X95337500Y23025000D01*
X95314221Y23026144D01*
X95291166Y23029563D01*
X95268557Y23035227D01*
X95246613Y23043079D01*
X95225543Y23053044D01*
X95205552Y23065026D01*
X95186832Y23078910D01*
X95169562Y23094562D01*
X95153910Y23111832D01*
X95140026Y23130552D01*
X95128044Y23150543D01*
X95118079Y23171613D01*
X95110227Y23193557D01*
X95104563Y23216166D01*
X95101144Y23239221D01*
X95100000Y23262500D01*
X95100000Y23737500D01*
X95101144Y23760779D01*
X95104563Y23783834D01*
X95110227Y23806443D01*
X95118079Y23828387D01*
X95128044Y23849457D01*
X95140026Y23869448D01*
X95153910Y23888168D01*
X95169562Y23905438D01*
X95186832Y23921090D01*
X95205552Y23934974D01*
X95225543Y23946956D01*
X95246613Y23956921D01*
X95268557Y23964773D01*
X95291166Y23970437D01*
X95314221Y23973856D01*
X95337500Y23975000D01*
X95912500Y23975000D01*
X95935779Y23973856D01*
G37*
G36*
X95935779Y22473856D02*
G01*
X95958834Y22470437D01*
X95981443Y22464773D01*
X96003387Y22456921D01*
X96024457Y22446956D01*
X96044448Y22434974D01*
X96063168Y22421090D01*
X96080438Y22405438D01*
X96096090Y22388168D01*
X96109974Y22369448D01*
X96121956Y22349457D01*
X96131921Y22328387D01*
X96139773Y22306443D01*
X96145437Y22283834D01*
X96148856Y22260779D01*
X96150000Y22237500D01*
X96150000Y21762500D01*
X96148856Y21739221D01*
X96145437Y21716166D01*
X96139773Y21693557D01*
X96131921Y21671613D01*
X96121956Y21650543D01*
X96109974Y21630552D01*
X96096090Y21611832D01*
X96080438Y21594562D01*
X96063168Y21578910D01*
X96044448Y21565026D01*
X96024457Y21553044D01*
X96003387Y21543079D01*
X95981443Y21535227D01*
X95958834Y21529563D01*
X95935779Y21526144D01*
X95912500Y21525000D01*
X95337500Y21525000D01*
X95314221Y21526144D01*
X95291166Y21529563D01*
X95268557Y21535227D01*
X95246613Y21543079D01*
X95225543Y21553044D01*
X95205552Y21565026D01*
X95186832Y21578910D01*
X95169562Y21594562D01*
X95153910Y21611832D01*
X95140026Y21630552D01*
X95128044Y21650543D01*
X95118079Y21671613D01*
X95110227Y21693557D01*
X95104563Y21716166D01*
X95101144Y21739221D01*
X95100000Y21762500D01*
X95100000Y22237500D01*
X95101144Y22260779D01*
X95104563Y22283834D01*
X95110227Y22306443D01*
X95118079Y22328387D01*
X95128044Y22349457D01*
X95140026Y22369448D01*
X95153910Y22388168D01*
X95169562Y22405438D01*
X95186832Y22421090D01*
X95205552Y22434974D01*
X95225543Y22446956D01*
X95246613Y22456921D01*
X95268557Y22464773D01*
X95291166Y22470437D01*
X95314221Y22473856D01*
X95337500Y22475000D01*
X95912500Y22475000D01*
X95935779Y22473856D01*
G37*
G36*
X94185779Y22473856D02*
G01*
X94208834Y22470437D01*
X94231443Y22464773D01*
X94253387Y22456921D01*
X94274457Y22446956D01*
X94294448Y22434974D01*
X94313168Y22421090D01*
X94330438Y22405438D01*
X94346090Y22388168D01*
X94359974Y22369448D01*
X94371956Y22349457D01*
X94381921Y22328387D01*
X94389773Y22306443D01*
X94395437Y22283834D01*
X94398856Y22260779D01*
X94400000Y22237500D01*
X94400000Y21762500D01*
X94398856Y21739221D01*
X94395437Y21716166D01*
X94389773Y21693557D01*
X94381921Y21671613D01*
X94371956Y21650543D01*
X94359974Y21630552D01*
X94346090Y21611832D01*
X94330438Y21594562D01*
X94313168Y21578910D01*
X94294448Y21565026D01*
X94274457Y21553044D01*
X94253387Y21543079D01*
X94231443Y21535227D01*
X94208834Y21529563D01*
X94185779Y21526144D01*
X94162500Y21525000D01*
X93587500Y21525000D01*
X93564221Y21526144D01*
X93541166Y21529563D01*
X93518557Y21535227D01*
X93496613Y21543079D01*
X93475543Y21553044D01*
X93455552Y21565026D01*
X93436832Y21578910D01*
X93419562Y21594562D01*
X93403910Y21611832D01*
X93390026Y21630552D01*
X93378044Y21650543D01*
X93368079Y21671613D01*
X93360227Y21693557D01*
X93354563Y21716166D01*
X93351144Y21739221D01*
X93350000Y21762500D01*
X93350000Y22237500D01*
X93351144Y22260779D01*
X93354563Y22283834D01*
X93360227Y22306443D01*
X93368079Y22328387D01*
X93378044Y22349457D01*
X93390026Y22369448D01*
X93403910Y22388168D01*
X93419562Y22405438D01*
X93436832Y22421090D01*
X93455552Y22434974D01*
X93475543Y22446956D01*
X93496613Y22456921D01*
X93518557Y22464773D01*
X93541166Y22470437D01*
X93564221Y22473856D01*
X93587500Y22475000D01*
X94162500Y22475000D01*
X94185779Y22473856D01*
G37*
G36*
X85724505Y17623796D02*
G01*
X85748773Y17620196D01*
X85772572Y17614235D01*
X85795671Y17605970D01*
X85817850Y17595480D01*
X85838893Y17582868D01*
X85858599Y17568253D01*
X85876777Y17551777D01*
X85893253Y17533599D01*
X85907868Y17513893D01*
X85920480Y17492850D01*
X85930970Y17470671D01*
X85939235Y17447572D01*
X85945196Y17423773D01*
X85948796Y17399505D01*
X85950000Y17375001D01*
X85950000Y16724999D01*
X85948796Y16700495D01*
X85945196Y16676227D01*
X85939235Y16652428D01*
X85930970Y16629329D01*
X85920480Y16607150D01*
X85907868Y16586107D01*
X85893253Y16566401D01*
X85876777Y16548223D01*
X85858599Y16531747D01*
X85838893Y16517132D01*
X85817850Y16504520D01*
X85795671Y16494030D01*
X85772572Y16485765D01*
X85748773Y16479804D01*
X85724505Y16476204D01*
X85700001Y16475000D01*
X84799999Y16475000D01*
X84775495Y16476204D01*
X84751227Y16479804D01*
X84727428Y16485765D01*
X84704329Y16494030D01*
X84682150Y16504520D01*
X84661107Y16517132D01*
X84641401Y16531747D01*
X84623223Y16548223D01*
X84606747Y16566401D01*
X84592132Y16586107D01*
X84579520Y16607150D01*
X84569030Y16629329D01*
X84560765Y16652428D01*
X84554804Y16676227D01*
X84551204Y16700495D01*
X84550000Y16724999D01*
X84550000Y17375001D01*
X84551204Y17399505D01*
X84554804Y17423773D01*
X84560765Y17447572D01*
X84569030Y17470671D01*
X84579520Y17492850D01*
X84592132Y17513893D01*
X84606747Y17533599D01*
X84623223Y17551777D01*
X84641401Y17568253D01*
X84661107Y17582868D01*
X84682150Y17595480D01*
X84704329Y17605970D01*
X84727428Y17614235D01*
X84751227Y17620196D01*
X84775495Y17623796D01*
X84799999Y17625000D01*
X85700001Y17625000D01*
X85724505Y17623796D01*
G37*
G36*
X85724505Y15573796D02*
G01*
X85748773Y15570196D01*
X85772572Y15564235D01*
X85795671Y15555970D01*
X85817850Y15545480D01*
X85838893Y15532868D01*
X85858599Y15518253D01*
X85876777Y15501777D01*
X85893253Y15483599D01*
X85907868Y15463893D01*
X85920480Y15442850D01*
X85930970Y15420671D01*
X85939235Y15397572D01*
X85945196Y15373773D01*
X85948796Y15349505D01*
X85950000Y15325001D01*
X85950000Y14674999D01*
X85948796Y14650495D01*
X85945196Y14626227D01*
X85939235Y14602428D01*
X85930970Y14579329D01*
X85920480Y14557150D01*
X85907868Y14536107D01*
X85893253Y14516401D01*
X85876777Y14498223D01*
X85858599Y14481747D01*
X85838893Y14467132D01*
X85817850Y14454520D01*
X85795671Y14444030D01*
X85772572Y14435765D01*
X85748773Y14429804D01*
X85724505Y14426204D01*
X85700001Y14425000D01*
X84799999Y14425000D01*
X84775495Y14426204D01*
X84751227Y14429804D01*
X84727428Y14435765D01*
X84704329Y14444030D01*
X84682150Y14454520D01*
X84661107Y14467132D01*
X84641401Y14481747D01*
X84623223Y14498223D01*
X84606747Y14516401D01*
X84592132Y14536107D01*
X84579520Y14557150D01*
X84569030Y14579329D01*
X84560765Y14602428D01*
X84554804Y14626227D01*
X84551204Y14650495D01*
X84550000Y14674999D01*
X84550000Y15325001D01*
X84551204Y15349505D01*
X84554804Y15373773D01*
X84560765Y15397572D01*
X84569030Y15420671D01*
X84579520Y15442850D01*
X84592132Y15463893D01*
X84606747Y15483599D01*
X84623223Y15501777D01*
X84641401Y15518253D01*
X84661107Y15532868D01*
X84682150Y15545480D01*
X84704329Y15555970D01*
X84727428Y15564235D01*
X84751227Y15570196D01*
X84775495Y15573796D01*
X84799999Y15575000D01*
X85700001Y15575000D01*
X85724505Y15573796D01*
G37*
G36*
X102124505Y15698796D02*
G01*
X102148773Y15695196D01*
X102172572Y15689235D01*
X102195671Y15680970D01*
X102217850Y15670480D01*
X102238893Y15657868D01*
X102258599Y15643253D01*
X102276777Y15626777D01*
X102293253Y15608599D01*
X102307868Y15588893D01*
X102320480Y15567850D01*
X102330970Y15545671D01*
X102339235Y15522572D01*
X102345196Y15498773D01*
X102348796Y15474505D01*
X102350000Y15450001D01*
X102350000Y14549999D01*
X102348796Y14525495D01*
X102345196Y14501227D01*
X102339235Y14477428D01*
X102330970Y14454329D01*
X102320480Y14432150D01*
X102307868Y14411107D01*
X102293253Y14391401D01*
X102276777Y14373223D01*
X102258599Y14356747D01*
X102238893Y14342132D01*
X102217850Y14329520D01*
X102195671Y14319030D01*
X102172572Y14310765D01*
X102148773Y14304804D01*
X102124505Y14301204D01*
X102100001Y14300000D01*
X101449999Y14300000D01*
X101425495Y14301204D01*
X101401227Y14304804D01*
X101377428Y14310765D01*
X101354329Y14319030D01*
X101332150Y14329520D01*
X101311107Y14342132D01*
X101291401Y14356747D01*
X101273223Y14373223D01*
X101256747Y14391401D01*
X101242132Y14411107D01*
X101229520Y14432150D01*
X101219030Y14454329D01*
X101210765Y14477428D01*
X101204804Y14501227D01*
X101201204Y14525495D01*
X101200000Y14549999D01*
X101200000Y15450001D01*
X101201204Y15474505D01*
X101204804Y15498773D01*
X101210765Y15522572D01*
X101219030Y15545671D01*
X101229520Y15567850D01*
X101242132Y15588893D01*
X101256747Y15608599D01*
X101273223Y15626777D01*
X101291401Y15643253D01*
X101311107Y15657868D01*
X101332150Y15670480D01*
X101354329Y15680970D01*
X101377428Y15689235D01*
X101401227Y15695196D01*
X101425495Y15698796D01*
X101449999Y15700000D01*
X102100001Y15700000D01*
X102124505Y15698796D01*
G37*
G36*
X100074505Y15698796D02*
G01*
X100098773Y15695196D01*
X100122572Y15689235D01*
X100145671Y15680970D01*
X100167850Y15670480D01*
X100188893Y15657868D01*
X100208599Y15643253D01*
X100226777Y15626777D01*
X100243253Y15608599D01*
X100257868Y15588893D01*
X100270480Y15567850D01*
X100280970Y15545671D01*
X100289235Y15522572D01*
X100295196Y15498773D01*
X100298796Y15474505D01*
X100300000Y15450001D01*
X100300000Y14549999D01*
X100298796Y14525495D01*
X100295196Y14501227D01*
X100289235Y14477428D01*
X100280970Y14454329D01*
X100270480Y14432150D01*
X100257868Y14411107D01*
X100243253Y14391401D01*
X100226777Y14373223D01*
X100208599Y14356747D01*
X100188893Y14342132D01*
X100167850Y14329520D01*
X100145671Y14319030D01*
X100122572Y14310765D01*
X100098773Y14304804D01*
X100074505Y14301204D01*
X100050001Y14300000D01*
X99399999Y14300000D01*
X99375495Y14301204D01*
X99351227Y14304804D01*
X99327428Y14310765D01*
X99304329Y14319030D01*
X99282150Y14329520D01*
X99261107Y14342132D01*
X99241401Y14356747D01*
X99223223Y14373223D01*
X99206747Y14391401D01*
X99192132Y14411107D01*
X99179520Y14432150D01*
X99169030Y14454329D01*
X99160765Y14477428D01*
X99154804Y14501227D01*
X99151204Y14525495D01*
X99150000Y14549999D01*
X99150000Y15450001D01*
X99151204Y15474505D01*
X99154804Y15498773D01*
X99160765Y15522572D01*
X99169030Y15545671D01*
X99179520Y15567850D01*
X99192132Y15588893D01*
X99206747Y15608599D01*
X99223223Y15626777D01*
X99241401Y15643253D01*
X99261107Y15657868D01*
X99282150Y15670480D01*
X99304329Y15680970D01*
X99327428Y15689235D01*
X99351227Y15695196D01*
X99375495Y15698796D01*
X99399999Y15700000D01*
X100050001Y15700000D01*
X100074505Y15698796D01*
G37*
G36*
X85082351Y31424639D02*
G01*
X85089632Y31423559D01*
X85096771Y31421771D01*
X85103701Y31419291D01*
X85110355Y31416144D01*
X85116668Y31412360D01*
X85122579Y31407976D01*
X85128033Y31403033D01*
X85132976Y31397579D01*
X85137360Y31391668D01*
X85141144Y31385355D01*
X85144291Y31378701D01*
X85146771Y31371771D01*
X85148559Y31364632D01*
X85149639Y31357351D01*
X85150000Y31350000D01*
X85150000Y30000000D01*
X85149639Y29992649D01*
X85148559Y29985368D01*
X85146771Y29978229D01*
X85144291Y29971299D01*
X85141144Y29964645D01*
X85137360Y29958332D01*
X85132976Y29952421D01*
X85128033Y29946967D01*
X85122579Y29942024D01*
X85116668Y29937640D01*
X85110355Y29933856D01*
X85103701Y29930709D01*
X85096771Y29928229D01*
X85089632Y29926441D01*
X85082351Y29925361D01*
X85075000Y29925000D01*
X84925000Y29925000D01*
X84917649Y29925361D01*
X84910368Y29926441D01*
X84903229Y29928229D01*
X84896299Y29930709D01*
X84889645Y29933856D01*
X84883332Y29937640D01*
X84877421Y29942024D01*
X84871967Y29946967D01*
X84867024Y29952421D01*
X84862640Y29958332D01*
X84858856Y29964645D01*
X84855709Y29971299D01*
X84853229Y29978229D01*
X84851441Y29985368D01*
X84850361Y29992649D01*
X84850000Y30000000D01*
X84850000Y31350000D01*
X84850361Y31357351D01*
X84851441Y31364632D01*
X84853229Y31371771D01*
X84855709Y31378701D01*
X84858856Y31385355D01*
X84862640Y31391668D01*
X84867024Y31397579D01*
X84871967Y31403033D01*
X84877421Y31407976D01*
X84883332Y31412360D01*
X84889645Y31416144D01*
X84896299Y31419291D01*
X84903229Y31421771D01*
X84910368Y31423559D01*
X84917649Y31424639D01*
X84925000Y31425000D01*
X85075000Y31425000D01*
X85082351Y31424639D01*
G37*
G36*
X85582351Y31424639D02*
G01*
X85589632Y31423559D01*
X85596771Y31421771D01*
X85603701Y31419291D01*
X85610355Y31416144D01*
X85616668Y31412360D01*
X85622579Y31407976D01*
X85628033Y31403033D01*
X85632976Y31397579D01*
X85637360Y31391668D01*
X85641144Y31385355D01*
X85644291Y31378701D01*
X85646771Y31371771D01*
X85648559Y31364632D01*
X85649639Y31357351D01*
X85650000Y31350000D01*
X85650000Y30000000D01*
X85649639Y29992649D01*
X85648559Y29985368D01*
X85646771Y29978229D01*
X85644291Y29971299D01*
X85641144Y29964645D01*
X85637360Y29958332D01*
X85632976Y29952421D01*
X85628033Y29946967D01*
X85622579Y29942024D01*
X85616668Y29937640D01*
X85610355Y29933856D01*
X85603701Y29930709D01*
X85596771Y29928229D01*
X85589632Y29926441D01*
X85582351Y29925361D01*
X85575000Y29925000D01*
X85425000Y29925000D01*
X85417649Y29925361D01*
X85410368Y29926441D01*
X85403229Y29928229D01*
X85396299Y29930709D01*
X85389645Y29933856D01*
X85383332Y29937640D01*
X85377421Y29942024D01*
X85371967Y29946967D01*
X85367024Y29952421D01*
X85362640Y29958332D01*
X85358856Y29964645D01*
X85355709Y29971299D01*
X85353229Y29978229D01*
X85351441Y29985368D01*
X85350361Y29992649D01*
X85350000Y30000000D01*
X85350000Y31350000D01*
X85350361Y31357351D01*
X85351441Y31364632D01*
X85353229Y31371771D01*
X85355709Y31378701D01*
X85358856Y31385355D01*
X85362640Y31391668D01*
X85367024Y31397579D01*
X85371967Y31403033D01*
X85377421Y31407976D01*
X85383332Y31412360D01*
X85389645Y31416144D01*
X85396299Y31419291D01*
X85403229Y31421771D01*
X85410368Y31423559D01*
X85417649Y31424639D01*
X85425000Y31425000D01*
X85575000Y31425000D01*
X85582351Y31424639D01*
G37*
G36*
X86082351Y31424639D02*
G01*
X86089632Y31423559D01*
X86096771Y31421771D01*
X86103701Y31419291D01*
X86110355Y31416144D01*
X86116668Y31412360D01*
X86122579Y31407976D01*
X86128033Y31403033D01*
X86132976Y31397579D01*
X86137360Y31391668D01*
X86141144Y31385355D01*
X86144291Y31378701D01*
X86146771Y31371771D01*
X86148559Y31364632D01*
X86149639Y31357351D01*
X86150000Y31350000D01*
X86150000Y30000000D01*
X86149639Y29992649D01*
X86148559Y29985368D01*
X86146771Y29978229D01*
X86144291Y29971299D01*
X86141144Y29964645D01*
X86137360Y29958332D01*
X86132976Y29952421D01*
X86128033Y29946967D01*
X86122579Y29942024D01*
X86116668Y29937640D01*
X86110355Y29933856D01*
X86103701Y29930709D01*
X86096771Y29928229D01*
X86089632Y29926441D01*
X86082351Y29925361D01*
X86075000Y29925000D01*
X85925000Y29925000D01*
X85917649Y29925361D01*
X85910368Y29926441D01*
X85903229Y29928229D01*
X85896299Y29930709D01*
X85889645Y29933856D01*
X85883332Y29937640D01*
X85877421Y29942024D01*
X85871967Y29946967D01*
X85867024Y29952421D01*
X85862640Y29958332D01*
X85858856Y29964645D01*
X85855709Y29971299D01*
X85853229Y29978229D01*
X85851441Y29985368D01*
X85850361Y29992649D01*
X85850000Y30000000D01*
X85850000Y31350000D01*
X85850361Y31357351D01*
X85851441Y31364632D01*
X85853229Y31371771D01*
X85855709Y31378701D01*
X85858856Y31385355D01*
X85862640Y31391668D01*
X85867024Y31397579D01*
X85871967Y31403033D01*
X85877421Y31407976D01*
X85883332Y31412360D01*
X85889645Y31416144D01*
X85896299Y31419291D01*
X85903229Y31421771D01*
X85910368Y31423559D01*
X85917649Y31424639D01*
X85925000Y31425000D01*
X86075000Y31425000D01*
X86082351Y31424639D01*
G37*
G36*
X86582351Y31424639D02*
G01*
X86589632Y31423559D01*
X86596771Y31421771D01*
X86603701Y31419291D01*
X86610355Y31416144D01*
X86616668Y31412360D01*
X86622579Y31407976D01*
X86628033Y31403033D01*
X86632976Y31397579D01*
X86637360Y31391668D01*
X86641144Y31385355D01*
X86644291Y31378701D01*
X86646771Y31371771D01*
X86648559Y31364632D01*
X86649639Y31357351D01*
X86650000Y31350000D01*
X86650000Y30000000D01*
X86649639Y29992649D01*
X86648559Y29985368D01*
X86646771Y29978229D01*
X86644291Y29971299D01*
X86641144Y29964645D01*
X86637360Y29958332D01*
X86632976Y29952421D01*
X86628033Y29946967D01*
X86622579Y29942024D01*
X86616668Y29937640D01*
X86610355Y29933856D01*
X86603701Y29930709D01*
X86596771Y29928229D01*
X86589632Y29926441D01*
X86582351Y29925361D01*
X86575000Y29925000D01*
X86425000Y29925000D01*
X86417649Y29925361D01*
X86410368Y29926441D01*
X86403229Y29928229D01*
X86396299Y29930709D01*
X86389645Y29933856D01*
X86383332Y29937640D01*
X86377421Y29942024D01*
X86371967Y29946967D01*
X86367024Y29952421D01*
X86362640Y29958332D01*
X86358856Y29964645D01*
X86355709Y29971299D01*
X86353229Y29978229D01*
X86351441Y29985368D01*
X86350361Y29992649D01*
X86350000Y30000000D01*
X86350000Y31350000D01*
X86350361Y31357351D01*
X86351441Y31364632D01*
X86353229Y31371771D01*
X86355709Y31378701D01*
X86358856Y31385355D01*
X86362640Y31391668D01*
X86367024Y31397579D01*
X86371967Y31403033D01*
X86377421Y31407976D01*
X86383332Y31412360D01*
X86389645Y31416144D01*
X86396299Y31419291D01*
X86403229Y31421771D01*
X86410368Y31423559D01*
X86417649Y31424639D01*
X86425000Y31425000D01*
X86575000Y31425000D01*
X86582351Y31424639D01*
G37*
G36*
X87082351Y31424639D02*
G01*
X87089632Y31423559D01*
X87096771Y31421771D01*
X87103701Y31419291D01*
X87110355Y31416144D01*
X87116668Y31412360D01*
X87122579Y31407976D01*
X87128033Y31403033D01*
X87132976Y31397579D01*
X87137360Y31391668D01*
X87141144Y31385355D01*
X87144291Y31378701D01*
X87146771Y31371771D01*
X87148559Y31364632D01*
X87149639Y31357351D01*
X87150000Y31350000D01*
X87150000Y30000000D01*
X87149639Y29992649D01*
X87148559Y29985368D01*
X87146771Y29978229D01*
X87144291Y29971299D01*
X87141144Y29964645D01*
X87137360Y29958332D01*
X87132976Y29952421D01*
X87128033Y29946967D01*
X87122579Y29942024D01*
X87116668Y29937640D01*
X87110355Y29933856D01*
X87103701Y29930709D01*
X87096771Y29928229D01*
X87089632Y29926441D01*
X87082351Y29925361D01*
X87075000Y29925000D01*
X86925000Y29925000D01*
X86917649Y29925361D01*
X86910368Y29926441D01*
X86903229Y29928229D01*
X86896299Y29930709D01*
X86889645Y29933856D01*
X86883332Y29937640D01*
X86877421Y29942024D01*
X86871967Y29946967D01*
X86867024Y29952421D01*
X86862640Y29958332D01*
X86858856Y29964645D01*
X86855709Y29971299D01*
X86853229Y29978229D01*
X86851441Y29985368D01*
X86850361Y29992649D01*
X86850000Y30000000D01*
X86850000Y31350000D01*
X86850361Y31357351D01*
X86851441Y31364632D01*
X86853229Y31371771D01*
X86855709Y31378701D01*
X86858856Y31385355D01*
X86862640Y31391668D01*
X86867024Y31397579D01*
X86871967Y31403033D01*
X86877421Y31407976D01*
X86883332Y31412360D01*
X86889645Y31416144D01*
X86896299Y31419291D01*
X86903229Y31421771D01*
X86910368Y31423559D01*
X86917649Y31424639D01*
X86925000Y31425000D01*
X87075000Y31425000D01*
X87082351Y31424639D01*
G37*
G36*
X87582351Y31424639D02*
G01*
X87589632Y31423559D01*
X87596771Y31421771D01*
X87603701Y31419291D01*
X87610355Y31416144D01*
X87616668Y31412360D01*
X87622579Y31407976D01*
X87628033Y31403033D01*
X87632976Y31397579D01*
X87637360Y31391668D01*
X87641144Y31385355D01*
X87644291Y31378701D01*
X87646771Y31371771D01*
X87648559Y31364632D01*
X87649639Y31357351D01*
X87650000Y31350000D01*
X87650000Y30000000D01*
X87649639Y29992649D01*
X87648559Y29985368D01*
X87646771Y29978229D01*
X87644291Y29971299D01*
X87641144Y29964645D01*
X87637360Y29958332D01*
X87632976Y29952421D01*
X87628033Y29946967D01*
X87622579Y29942024D01*
X87616668Y29937640D01*
X87610355Y29933856D01*
X87603701Y29930709D01*
X87596771Y29928229D01*
X87589632Y29926441D01*
X87582351Y29925361D01*
X87575000Y29925000D01*
X87425000Y29925000D01*
X87417649Y29925361D01*
X87410368Y29926441D01*
X87403229Y29928229D01*
X87396299Y29930709D01*
X87389645Y29933856D01*
X87383332Y29937640D01*
X87377421Y29942024D01*
X87371967Y29946967D01*
X87367024Y29952421D01*
X87362640Y29958332D01*
X87358856Y29964645D01*
X87355709Y29971299D01*
X87353229Y29978229D01*
X87351441Y29985368D01*
X87350361Y29992649D01*
X87350000Y30000000D01*
X87350000Y31350000D01*
X87350361Y31357351D01*
X87351441Y31364632D01*
X87353229Y31371771D01*
X87355709Y31378701D01*
X87358856Y31385355D01*
X87362640Y31391668D01*
X87367024Y31397579D01*
X87371967Y31403033D01*
X87377421Y31407976D01*
X87383332Y31412360D01*
X87389645Y31416144D01*
X87396299Y31419291D01*
X87403229Y31421771D01*
X87410368Y31423559D01*
X87417649Y31424639D01*
X87425000Y31425000D01*
X87575000Y31425000D01*
X87582351Y31424639D01*
G37*
G36*
X88082351Y31424639D02*
G01*
X88089632Y31423559D01*
X88096771Y31421771D01*
X88103701Y31419291D01*
X88110355Y31416144D01*
X88116668Y31412360D01*
X88122579Y31407976D01*
X88128033Y31403033D01*
X88132976Y31397579D01*
X88137360Y31391668D01*
X88141144Y31385355D01*
X88144291Y31378701D01*
X88146771Y31371771D01*
X88148559Y31364632D01*
X88149639Y31357351D01*
X88150000Y31350000D01*
X88150000Y30000000D01*
X88149639Y29992649D01*
X88148559Y29985368D01*
X88146771Y29978229D01*
X88144291Y29971299D01*
X88141144Y29964645D01*
X88137360Y29958332D01*
X88132976Y29952421D01*
X88128033Y29946967D01*
X88122579Y29942024D01*
X88116668Y29937640D01*
X88110355Y29933856D01*
X88103701Y29930709D01*
X88096771Y29928229D01*
X88089632Y29926441D01*
X88082351Y29925361D01*
X88075000Y29925000D01*
X87925000Y29925000D01*
X87917649Y29925361D01*
X87910368Y29926441D01*
X87903229Y29928229D01*
X87896299Y29930709D01*
X87889645Y29933856D01*
X87883332Y29937640D01*
X87877421Y29942024D01*
X87871967Y29946967D01*
X87867024Y29952421D01*
X87862640Y29958332D01*
X87858856Y29964645D01*
X87855709Y29971299D01*
X87853229Y29978229D01*
X87851441Y29985368D01*
X87850361Y29992649D01*
X87850000Y30000000D01*
X87850000Y31350000D01*
X87850361Y31357351D01*
X87851441Y31364632D01*
X87853229Y31371771D01*
X87855709Y31378701D01*
X87858856Y31385355D01*
X87862640Y31391668D01*
X87867024Y31397579D01*
X87871967Y31403033D01*
X87877421Y31407976D01*
X87883332Y31412360D01*
X87889645Y31416144D01*
X87896299Y31419291D01*
X87903229Y31421771D01*
X87910368Y31423559D01*
X87917649Y31424639D01*
X87925000Y31425000D01*
X88075000Y31425000D01*
X88082351Y31424639D01*
G37*
G36*
X88582351Y31424639D02*
G01*
X88589632Y31423559D01*
X88596771Y31421771D01*
X88603701Y31419291D01*
X88610355Y31416144D01*
X88616668Y31412360D01*
X88622579Y31407976D01*
X88628033Y31403033D01*
X88632976Y31397579D01*
X88637360Y31391668D01*
X88641144Y31385355D01*
X88644291Y31378701D01*
X88646771Y31371771D01*
X88648559Y31364632D01*
X88649639Y31357351D01*
X88650000Y31350000D01*
X88650000Y30000000D01*
X88649639Y29992649D01*
X88648559Y29985368D01*
X88646771Y29978229D01*
X88644291Y29971299D01*
X88641144Y29964645D01*
X88637360Y29958332D01*
X88632976Y29952421D01*
X88628033Y29946967D01*
X88622579Y29942024D01*
X88616668Y29937640D01*
X88610355Y29933856D01*
X88603701Y29930709D01*
X88596771Y29928229D01*
X88589632Y29926441D01*
X88582351Y29925361D01*
X88575000Y29925000D01*
X88425000Y29925000D01*
X88417649Y29925361D01*
X88410368Y29926441D01*
X88403229Y29928229D01*
X88396299Y29930709D01*
X88389645Y29933856D01*
X88383332Y29937640D01*
X88377421Y29942024D01*
X88371967Y29946967D01*
X88367024Y29952421D01*
X88362640Y29958332D01*
X88358856Y29964645D01*
X88355709Y29971299D01*
X88353229Y29978229D01*
X88351441Y29985368D01*
X88350361Y29992649D01*
X88350000Y30000000D01*
X88350000Y31350000D01*
X88350361Y31357351D01*
X88351441Y31364632D01*
X88353229Y31371771D01*
X88355709Y31378701D01*
X88358856Y31385355D01*
X88362640Y31391668D01*
X88367024Y31397579D01*
X88371967Y31403033D01*
X88377421Y31407976D01*
X88383332Y31412360D01*
X88389645Y31416144D01*
X88396299Y31419291D01*
X88403229Y31421771D01*
X88410368Y31423559D01*
X88417649Y31424639D01*
X88425000Y31425000D01*
X88575000Y31425000D01*
X88582351Y31424639D01*
G37*
G36*
X90607351Y29399639D02*
G01*
X90614632Y29398559D01*
X90621771Y29396771D01*
X90628701Y29394291D01*
X90635355Y29391144D01*
X90641668Y29387360D01*
X90647579Y29382976D01*
X90653033Y29378033D01*
X90657976Y29372579D01*
X90662360Y29366668D01*
X90666144Y29360355D01*
X90669291Y29353701D01*
X90671771Y29346771D01*
X90673559Y29339632D01*
X90674639Y29332351D01*
X90675000Y29325000D01*
X90675000Y29175000D01*
X90674639Y29167649D01*
X90673559Y29160368D01*
X90671771Y29153229D01*
X90669291Y29146299D01*
X90666144Y29139645D01*
X90662360Y29133332D01*
X90657976Y29127421D01*
X90653033Y29121967D01*
X90647579Y29117024D01*
X90641668Y29112640D01*
X90635355Y29108856D01*
X90628701Y29105709D01*
X90621771Y29103229D01*
X90614632Y29101441D01*
X90607351Y29100361D01*
X90600000Y29100000D01*
X89250000Y29100000D01*
X89242649Y29100361D01*
X89235368Y29101441D01*
X89228229Y29103229D01*
X89221299Y29105709D01*
X89214645Y29108856D01*
X89208332Y29112640D01*
X89202421Y29117024D01*
X89196967Y29121967D01*
X89192024Y29127421D01*
X89187640Y29133332D01*
X89183856Y29139645D01*
X89180709Y29146299D01*
X89178229Y29153229D01*
X89176441Y29160368D01*
X89175361Y29167649D01*
X89175000Y29175000D01*
X89175000Y29325000D01*
X89175361Y29332351D01*
X89176441Y29339632D01*
X89178229Y29346771D01*
X89180709Y29353701D01*
X89183856Y29360355D01*
X89187640Y29366668D01*
X89192024Y29372579D01*
X89196967Y29378033D01*
X89202421Y29382976D01*
X89208332Y29387360D01*
X89214645Y29391144D01*
X89221299Y29394291D01*
X89228229Y29396771D01*
X89235368Y29398559D01*
X89242649Y29399639D01*
X89250000Y29400000D01*
X90600000Y29400000D01*
X90607351Y29399639D01*
G37*
G36*
X90607351Y28899639D02*
G01*
X90614632Y28898559D01*
X90621771Y28896771D01*
X90628701Y28894291D01*
X90635355Y28891144D01*
X90641668Y28887360D01*
X90647579Y28882976D01*
X90653033Y28878033D01*
X90657976Y28872579D01*
X90662360Y28866668D01*
X90666144Y28860355D01*
X90669291Y28853701D01*
X90671771Y28846771D01*
X90673559Y28839632D01*
X90674639Y28832351D01*
X90675000Y28825000D01*
X90675000Y28675000D01*
X90674639Y28667649D01*
X90673559Y28660368D01*
X90671771Y28653229D01*
X90669291Y28646299D01*
X90666144Y28639645D01*
X90662360Y28633332D01*
X90657976Y28627421D01*
X90653033Y28621967D01*
X90647579Y28617024D01*
X90641668Y28612640D01*
X90635355Y28608856D01*
X90628701Y28605709D01*
X90621771Y28603229D01*
X90614632Y28601441D01*
X90607351Y28600361D01*
X90600000Y28600000D01*
X89250000Y28600000D01*
X89242649Y28600361D01*
X89235368Y28601441D01*
X89228229Y28603229D01*
X89221299Y28605709D01*
X89214645Y28608856D01*
X89208332Y28612640D01*
X89202421Y28617024D01*
X89196967Y28621967D01*
X89192024Y28627421D01*
X89187640Y28633332D01*
X89183856Y28639645D01*
X89180709Y28646299D01*
X89178229Y28653229D01*
X89176441Y28660368D01*
X89175361Y28667649D01*
X89175000Y28675000D01*
X89175000Y28825000D01*
X89175361Y28832351D01*
X89176441Y28839632D01*
X89178229Y28846771D01*
X89180709Y28853701D01*
X89183856Y28860355D01*
X89187640Y28866668D01*
X89192024Y28872579D01*
X89196967Y28878033D01*
X89202421Y28882976D01*
X89208332Y28887360D01*
X89214645Y28891144D01*
X89221299Y28894291D01*
X89228229Y28896771D01*
X89235368Y28898559D01*
X89242649Y28899639D01*
X89250000Y28900000D01*
X90600000Y28900000D01*
X90607351Y28899639D01*
G37*
G36*
X90607351Y28399639D02*
G01*
X90614632Y28398559D01*
X90621771Y28396771D01*
X90628701Y28394291D01*
X90635355Y28391144D01*
X90641668Y28387360D01*
X90647579Y28382976D01*
X90653033Y28378033D01*
X90657976Y28372579D01*
X90662360Y28366668D01*
X90666144Y28360355D01*
X90669291Y28353701D01*
X90671771Y28346771D01*
X90673559Y28339632D01*
X90674639Y28332351D01*
X90675000Y28325000D01*
X90675000Y28175000D01*
X90674639Y28167649D01*
X90673559Y28160368D01*
X90671771Y28153229D01*
X90669291Y28146299D01*
X90666144Y28139645D01*
X90662360Y28133332D01*
X90657976Y28127421D01*
X90653033Y28121967D01*
X90647579Y28117024D01*
X90641668Y28112640D01*
X90635355Y28108856D01*
X90628701Y28105709D01*
X90621771Y28103229D01*
X90614632Y28101441D01*
X90607351Y28100361D01*
X90600000Y28100000D01*
X89250000Y28100000D01*
X89242649Y28100361D01*
X89235368Y28101441D01*
X89228229Y28103229D01*
X89221299Y28105709D01*
X89214645Y28108856D01*
X89208332Y28112640D01*
X89202421Y28117024D01*
X89196967Y28121967D01*
X89192024Y28127421D01*
X89187640Y28133332D01*
X89183856Y28139645D01*
X89180709Y28146299D01*
X89178229Y28153229D01*
X89176441Y28160368D01*
X89175361Y28167649D01*
X89175000Y28175000D01*
X89175000Y28325000D01*
X89175361Y28332351D01*
X89176441Y28339632D01*
X89178229Y28346771D01*
X89180709Y28353701D01*
X89183856Y28360355D01*
X89187640Y28366668D01*
X89192024Y28372579D01*
X89196967Y28378033D01*
X89202421Y28382976D01*
X89208332Y28387360D01*
X89214645Y28391144D01*
X89221299Y28394291D01*
X89228229Y28396771D01*
X89235368Y28398559D01*
X89242649Y28399639D01*
X89250000Y28400000D01*
X90600000Y28400000D01*
X90607351Y28399639D01*
G37*
G36*
X90607351Y27899639D02*
G01*
X90614632Y27898559D01*
X90621771Y27896771D01*
X90628701Y27894291D01*
X90635355Y27891144D01*
X90641668Y27887360D01*
X90647579Y27882976D01*
X90653033Y27878033D01*
X90657976Y27872579D01*
X90662360Y27866668D01*
X90666144Y27860355D01*
X90669291Y27853701D01*
X90671771Y27846771D01*
X90673559Y27839632D01*
X90674639Y27832351D01*
X90675000Y27825000D01*
X90675000Y27675000D01*
X90674639Y27667649D01*
X90673559Y27660368D01*
X90671771Y27653229D01*
X90669291Y27646299D01*
X90666144Y27639645D01*
X90662360Y27633332D01*
X90657976Y27627421D01*
X90653033Y27621967D01*
X90647579Y27617024D01*
X90641668Y27612640D01*
X90635355Y27608856D01*
X90628701Y27605709D01*
X90621771Y27603229D01*
X90614632Y27601441D01*
X90607351Y27600361D01*
X90600000Y27600000D01*
X89250000Y27600000D01*
X89242649Y27600361D01*
X89235368Y27601441D01*
X89228229Y27603229D01*
X89221299Y27605709D01*
X89214645Y27608856D01*
X89208332Y27612640D01*
X89202421Y27617024D01*
X89196967Y27621967D01*
X89192024Y27627421D01*
X89187640Y27633332D01*
X89183856Y27639645D01*
X89180709Y27646299D01*
X89178229Y27653229D01*
X89176441Y27660368D01*
X89175361Y27667649D01*
X89175000Y27675000D01*
X89175000Y27825000D01*
X89175361Y27832351D01*
X89176441Y27839632D01*
X89178229Y27846771D01*
X89180709Y27853701D01*
X89183856Y27860355D01*
X89187640Y27866668D01*
X89192024Y27872579D01*
X89196967Y27878033D01*
X89202421Y27882976D01*
X89208332Y27887360D01*
X89214645Y27891144D01*
X89221299Y27894291D01*
X89228229Y27896771D01*
X89235368Y27898559D01*
X89242649Y27899639D01*
X89250000Y27900000D01*
X90600000Y27900000D01*
X90607351Y27899639D01*
G37*
G36*
X90607351Y27399639D02*
G01*
X90614632Y27398559D01*
X90621771Y27396771D01*
X90628701Y27394291D01*
X90635355Y27391144D01*
X90641668Y27387360D01*
X90647579Y27382976D01*
X90653033Y27378033D01*
X90657976Y27372579D01*
X90662360Y27366668D01*
X90666144Y27360355D01*
X90669291Y27353701D01*
X90671771Y27346771D01*
X90673559Y27339632D01*
X90674639Y27332351D01*
X90675000Y27325000D01*
X90675000Y27175000D01*
X90674639Y27167649D01*
X90673559Y27160368D01*
X90671771Y27153229D01*
X90669291Y27146299D01*
X90666144Y27139645D01*
X90662360Y27133332D01*
X90657976Y27127421D01*
X90653033Y27121967D01*
X90647579Y27117024D01*
X90641668Y27112640D01*
X90635355Y27108856D01*
X90628701Y27105709D01*
X90621771Y27103229D01*
X90614632Y27101441D01*
X90607351Y27100361D01*
X90600000Y27100000D01*
X89250000Y27100000D01*
X89242649Y27100361D01*
X89235368Y27101441D01*
X89228229Y27103229D01*
X89221299Y27105709D01*
X89214645Y27108856D01*
X89208332Y27112640D01*
X89202421Y27117024D01*
X89196967Y27121967D01*
X89192024Y27127421D01*
X89187640Y27133332D01*
X89183856Y27139645D01*
X89180709Y27146299D01*
X89178229Y27153229D01*
X89176441Y27160368D01*
X89175361Y27167649D01*
X89175000Y27175000D01*
X89175000Y27325000D01*
X89175361Y27332351D01*
X89176441Y27339632D01*
X89178229Y27346771D01*
X89180709Y27353701D01*
X89183856Y27360355D01*
X89187640Y27366668D01*
X89192024Y27372579D01*
X89196967Y27378033D01*
X89202421Y27382976D01*
X89208332Y27387360D01*
X89214645Y27391144D01*
X89221299Y27394291D01*
X89228229Y27396771D01*
X89235368Y27398559D01*
X89242649Y27399639D01*
X89250000Y27400000D01*
X90600000Y27400000D01*
X90607351Y27399639D01*
G37*
G36*
X90607351Y26899639D02*
G01*
X90614632Y26898559D01*
X90621771Y26896771D01*
X90628701Y26894291D01*
X90635355Y26891144D01*
X90641668Y26887360D01*
X90647579Y26882976D01*
X90653033Y26878033D01*
X90657976Y26872579D01*
X90662360Y26866668D01*
X90666144Y26860355D01*
X90669291Y26853701D01*
X90671771Y26846771D01*
X90673559Y26839632D01*
X90674639Y26832351D01*
X90675000Y26825000D01*
X90675000Y26675000D01*
X90674639Y26667649D01*
X90673559Y26660368D01*
X90671771Y26653229D01*
X90669291Y26646299D01*
X90666144Y26639645D01*
X90662360Y26633332D01*
X90657976Y26627421D01*
X90653033Y26621967D01*
X90647579Y26617024D01*
X90641668Y26612640D01*
X90635355Y26608856D01*
X90628701Y26605709D01*
X90621771Y26603229D01*
X90614632Y26601441D01*
X90607351Y26600361D01*
X90600000Y26600000D01*
X89250000Y26600000D01*
X89242649Y26600361D01*
X89235368Y26601441D01*
X89228229Y26603229D01*
X89221299Y26605709D01*
X89214645Y26608856D01*
X89208332Y26612640D01*
X89202421Y26617024D01*
X89196967Y26621967D01*
X89192024Y26627421D01*
X89187640Y26633332D01*
X89183856Y26639645D01*
X89180709Y26646299D01*
X89178229Y26653229D01*
X89176441Y26660368D01*
X89175361Y26667649D01*
X89175000Y26675000D01*
X89175000Y26825000D01*
X89175361Y26832351D01*
X89176441Y26839632D01*
X89178229Y26846771D01*
X89180709Y26853701D01*
X89183856Y26860355D01*
X89187640Y26866668D01*
X89192024Y26872579D01*
X89196967Y26878033D01*
X89202421Y26882976D01*
X89208332Y26887360D01*
X89214645Y26891144D01*
X89221299Y26894291D01*
X89228229Y26896771D01*
X89235368Y26898559D01*
X89242649Y26899639D01*
X89250000Y26900000D01*
X90600000Y26900000D01*
X90607351Y26899639D01*
G37*
G36*
X90607351Y26399639D02*
G01*
X90614632Y26398559D01*
X90621771Y26396771D01*
X90628701Y26394291D01*
X90635355Y26391144D01*
X90641668Y26387360D01*
X90647579Y26382976D01*
X90653033Y26378033D01*
X90657976Y26372579D01*
X90662360Y26366668D01*
X90666144Y26360355D01*
X90669291Y26353701D01*
X90671771Y26346771D01*
X90673559Y26339632D01*
X90674639Y26332351D01*
X90675000Y26325000D01*
X90675000Y26175000D01*
X90674639Y26167649D01*
X90673559Y26160368D01*
X90671771Y26153229D01*
X90669291Y26146299D01*
X90666144Y26139645D01*
X90662360Y26133332D01*
X90657976Y26127421D01*
X90653033Y26121967D01*
X90647579Y26117024D01*
X90641668Y26112640D01*
X90635355Y26108856D01*
X90628701Y26105709D01*
X90621771Y26103229D01*
X90614632Y26101441D01*
X90607351Y26100361D01*
X90600000Y26100000D01*
X89250000Y26100000D01*
X89242649Y26100361D01*
X89235368Y26101441D01*
X89228229Y26103229D01*
X89221299Y26105709D01*
X89214645Y26108856D01*
X89208332Y26112640D01*
X89202421Y26117024D01*
X89196967Y26121967D01*
X89192024Y26127421D01*
X89187640Y26133332D01*
X89183856Y26139645D01*
X89180709Y26146299D01*
X89178229Y26153229D01*
X89176441Y26160368D01*
X89175361Y26167649D01*
X89175000Y26175000D01*
X89175000Y26325000D01*
X89175361Y26332351D01*
X89176441Y26339632D01*
X89178229Y26346771D01*
X89180709Y26353701D01*
X89183856Y26360355D01*
X89187640Y26366668D01*
X89192024Y26372579D01*
X89196967Y26378033D01*
X89202421Y26382976D01*
X89208332Y26387360D01*
X89214645Y26391144D01*
X89221299Y26394291D01*
X89228229Y26396771D01*
X89235368Y26398559D01*
X89242649Y26399639D01*
X89250000Y26400000D01*
X90600000Y26400000D01*
X90607351Y26399639D01*
G37*
G36*
X90607351Y25899639D02*
G01*
X90614632Y25898559D01*
X90621771Y25896771D01*
X90628701Y25894291D01*
X90635355Y25891144D01*
X90641668Y25887360D01*
X90647579Y25882976D01*
X90653033Y25878033D01*
X90657976Y25872579D01*
X90662360Y25866668D01*
X90666144Y25860355D01*
X90669291Y25853701D01*
X90671771Y25846771D01*
X90673559Y25839632D01*
X90674639Y25832351D01*
X90675000Y25825000D01*
X90675000Y25675000D01*
X90674639Y25667649D01*
X90673559Y25660368D01*
X90671771Y25653229D01*
X90669291Y25646299D01*
X90666144Y25639645D01*
X90662360Y25633332D01*
X90657976Y25627421D01*
X90653033Y25621967D01*
X90647579Y25617024D01*
X90641668Y25612640D01*
X90635355Y25608856D01*
X90628701Y25605709D01*
X90621771Y25603229D01*
X90614632Y25601441D01*
X90607351Y25600361D01*
X90600000Y25600000D01*
X89250000Y25600000D01*
X89242649Y25600361D01*
X89235368Y25601441D01*
X89228229Y25603229D01*
X89221299Y25605709D01*
X89214645Y25608856D01*
X89208332Y25612640D01*
X89202421Y25617024D01*
X89196967Y25621967D01*
X89192024Y25627421D01*
X89187640Y25633332D01*
X89183856Y25639645D01*
X89180709Y25646299D01*
X89178229Y25653229D01*
X89176441Y25660368D01*
X89175361Y25667649D01*
X89175000Y25675000D01*
X89175000Y25825000D01*
X89175361Y25832351D01*
X89176441Y25839632D01*
X89178229Y25846771D01*
X89180709Y25853701D01*
X89183856Y25860355D01*
X89187640Y25866668D01*
X89192024Y25872579D01*
X89196967Y25878033D01*
X89202421Y25882976D01*
X89208332Y25887360D01*
X89214645Y25891144D01*
X89221299Y25894291D01*
X89228229Y25896771D01*
X89235368Y25898559D01*
X89242649Y25899639D01*
X89250000Y25900000D01*
X90600000Y25900000D01*
X90607351Y25899639D01*
G37*
G36*
X88582351Y25074639D02*
G01*
X88589632Y25073559D01*
X88596771Y25071771D01*
X88603701Y25069291D01*
X88610355Y25066144D01*
X88616668Y25062360D01*
X88622579Y25057976D01*
X88628033Y25053033D01*
X88632976Y25047579D01*
X88637360Y25041668D01*
X88641144Y25035355D01*
X88644291Y25028701D01*
X88646771Y25021771D01*
X88648559Y25014632D01*
X88649639Y25007351D01*
X88650000Y25000000D01*
X88650000Y23650000D01*
X88649639Y23642649D01*
X88648559Y23635368D01*
X88646771Y23628229D01*
X88644291Y23621299D01*
X88641144Y23614645D01*
X88637360Y23608332D01*
X88632976Y23602421D01*
X88628033Y23596967D01*
X88622579Y23592024D01*
X88616668Y23587640D01*
X88610355Y23583856D01*
X88603701Y23580709D01*
X88596771Y23578229D01*
X88589632Y23576441D01*
X88582351Y23575361D01*
X88575000Y23575000D01*
X88425000Y23575000D01*
X88417649Y23575361D01*
X88410368Y23576441D01*
X88403229Y23578229D01*
X88396299Y23580709D01*
X88389645Y23583856D01*
X88383332Y23587640D01*
X88377421Y23592024D01*
X88371967Y23596967D01*
X88367024Y23602421D01*
X88362640Y23608332D01*
X88358856Y23614645D01*
X88355709Y23621299D01*
X88353229Y23628229D01*
X88351441Y23635368D01*
X88350361Y23642649D01*
X88350000Y23650000D01*
X88350000Y25000000D01*
X88350361Y25007351D01*
X88351441Y25014632D01*
X88353229Y25021771D01*
X88355709Y25028701D01*
X88358856Y25035355D01*
X88362640Y25041668D01*
X88367024Y25047579D01*
X88371967Y25053033D01*
X88377421Y25057976D01*
X88383332Y25062360D01*
X88389645Y25066144D01*
X88396299Y25069291D01*
X88403229Y25071771D01*
X88410368Y25073559D01*
X88417649Y25074639D01*
X88425000Y25075000D01*
X88575000Y25075000D01*
X88582351Y25074639D01*
G37*
G36*
X88082351Y25074639D02*
G01*
X88089632Y25073559D01*
X88096771Y25071771D01*
X88103701Y25069291D01*
X88110355Y25066144D01*
X88116668Y25062360D01*
X88122579Y25057976D01*
X88128033Y25053033D01*
X88132976Y25047579D01*
X88137360Y25041668D01*
X88141144Y25035355D01*
X88144291Y25028701D01*
X88146771Y25021771D01*
X88148559Y25014632D01*
X88149639Y25007351D01*
X88150000Y25000000D01*
X88150000Y23650000D01*
X88149639Y23642649D01*
X88148559Y23635368D01*
X88146771Y23628229D01*
X88144291Y23621299D01*
X88141144Y23614645D01*
X88137360Y23608332D01*
X88132976Y23602421D01*
X88128033Y23596967D01*
X88122579Y23592024D01*
X88116668Y23587640D01*
X88110355Y23583856D01*
X88103701Y23580709D01*
X88096771Y23578229D01*
X88089632Y23576441D01*
X88082351Y23575361D01*
X88075000Y23575000D01*
X87925000Y23575000D01*
X87917649Y23575361D01*
X87910368Y23576441D01*
X87903229Y23578229D01*
X87896299Y23580709D01*
X87889645Y23583856D01*
X87883332Y23587640D01*
X87877421Y23592024D01*
X87871967Y23596967D01*
X87867024Y23602421D01*
X87862640Y23608332D01*
X87858856Y23614645D01*
X87855709Y23621299D01*
X87853229Y23628229D01*
X87851441Y23635368D01*
X87850361Y23642649D01*
X87850000Y23650000D01*
X87850000Y25000000D01*
X87850361Y25007351D01*
X87851441Y25014632D01*
X87853229Y25021771D01*
X87855709Y25028701D01*
X87858856Y25035355D01*
X87862640Y25041668D01*
X87867024Y25047579D01*
X87871967Y25053033D01*
X87877421Y25057976D01*
X87883332Y25062360D01*
X87889645Y25066144D01*
X87896299Y25069291D01*
X87903229Y25071771D01*
X87910368Y25073559D01*
X87917649Y25074639D01*
X87925000Y25075000D01*
X88075000Y25075000D01*
X88082351Y25074639D01*
G37*
G36*
X87582351Y25074639D02*
G01*
X87589632Y25073559D01*
X87596771Y25071771D01*
X87603701Y25069291D01*
X87610355Y25066144D01*
X87616668Y25062360D01*
X87622579Y25057976D01*
X87628033Y25053033D01*
X87632976Y25047579D01*
X87637360Y25041668D01*
X87641144Y25035355D01*
X87644291Y25028701D01*
X87646771Y25021771D01*
X87648559Y25014632D01*
X87649639Y25007351D01*
X87650000Y25000000D01*
X87650000Y23650000D01*
X87649639Y23642649D01*
X87648559Y23635368D01*
X87646771Y23628229D01*
X87644291Y23621299D01*
X87641144Y23614645D01*
X87637360Y23608332D01*
X87632976Y23602421D01*
X87628033Y23596967D01*
X87622579Y23592024D01*
X87616668Y23587640D01*
X87610355Y23583856D01*
X87603701Y23580709D01*
X87596771Y23578229D01*
X87589632Y23576441D01*
X87582351Y23575361D01*
X87575000Y23575000D01*
X87425000Y23575000D01*
X87417649Y23575361D01*
X87410368Y23576441D01*
X87403229Y23578229D01*
X87396299Y23580709D01*
X87389645Y23583856D01*
X87383332Y23587640D01*
X87377421Y23592024D01*
X87371967Y23596967D01*
X87367024Y23602421D01*
X87362640Y23608332D01*
X87358856Y23614645D01*
X87355709Y23621299D01*
X87353229Y23628229D01*
X87351441Y23635368D01*
X87350361Y23642649D01*
X87350000Y23650000D01*
X87350000Y25000000D01*
X87350361Y25007351D01*
X87351441Y25014632D01*
X87353229Y25021771D01*
X87355709Y25028701D01*
X87358856Y25035355D01*
X87362640Y25041668D01*
X87367024Y25047579D01*
X87371967Y25053033D01*
X87377421Y25057976D01*
X87383332Y25062360D01*
X87389645Y25066144D01*
X87396299Y25069291D01*
X87403229Y25071771D01*
X87410368Y25073559D01*
X87417649Y25074639D01*
X87425000Y25075000D01*
X87575000Y25075000D01*
X87582351Y25074639D01*
G37*
G36*
X87082351Y25074639D02*
G01*
X87089632Y25073559D01*
X87096771Y25071771D01*
X87103701Y25069291D01*
X87110355Y25066144D01*
X87116668Y25062360D01*
X87122579Y25057976D01*
X87128033Y25053033D01*
X87132976Y25047579D01*
X87137360Y25041668D01*
X87141144Y25035355D01*
X87144291Y25028701D01*
X87146771Y25021771D01*
X87148559Y25014632D01*
X87149639Y25007351D01*
X87150000Y25000000D01*
X87150000Y23650000D01*
X87149639Y23642649D01*
X87148559Y23635368D01*
X87146771Y23628229D01*
X87144291Y23621299D01*
X87141144Y23614645D01*
X87137360Y23608332D01*
X87132976Y23602421D01*
X87128033Y23596967D01*
X87122579Y23592024D01*
X87116668Y23587640D01*
X87110355Y23583856D01*
X87103701Y23580709D01*
X87096771Y23578229D01*
X87089632Y23576441D01*
X87082351Y23575361D01*
X87075000Y23575000D01*
X86925000Y23575000D01*
X86917649Y23575361D01*
X86910368Y23576441D01*
X86903229Y23578229D01*
X86896299Y23580709D01*
X86889645Y23583856D01*
X86883332Y23587640D01*
X86877421Y23592024D01*
X86871967Y23596967D01*
X86867024Y23602421D01*
X86862640Y23608332D01*
X86858856Y23614645D01*
X86855709Y23621299D01*
X86853229Y23628229D01*
X86851441Y23635368D01*
X86850361Y23642649D01*
X86850000Y23650000D01*
X86850000Y25000000D01*
X86850361Y25007351D01*
X86851441Y25014632D01*
X86853229Y25021771D01*
X86855709Y25028701D01*
X86858856Y25035355D01*
X86862640Y25041668D01*
X86867024Y25047579D01*
X86871967Y25053033D01*
X86877421Y25057976D01*
X86883332Y25062360D01*
X86889645Y25066144D01*
X86896299Y25069291D01*
X86903229Y25071771D01*
X86910368Y25073559D01*
X86917649Y25074639D01*
X86925000Y25075000D01*
X87075000Y25075000D01*
X87082351Y25074639D01*
G37*
G36*
X86582351Y25074639D02*
G01*
X86589632Y25073559D01*
X86596771Y25071771D01*
X86603701Y25069291D01*
X86610355Y25066144D01*
X86616668Y25062360D01*
X86622579Y25057976D01*
X86628033Y25053033D01*
X86632976Y25047579D01*
X86637360Y25041668D01*
X86641144Y25035355D01*
X86644291Y25028701D01*
X86646771Y25021771D01*
X86648559Y25014632D01*
X86649639Y25007351D01*
X86650000Y25000000D01*
X86650000Y23650000D01*
X86649639Y23642649D01*
X86648559Y23635368D01*
X86646771Y23628229D01*
X86644291Y23621299D01*
X86641144Y23614645D01*
X86637360Y23608332D01*
X86632976Y23602421D01*
X86628033Y23596967D01*
X86622579Y23592024D01*
X86616668Y23587640D01*
X86610355Y23583856D01*
X86603701Y23580709D01*
X86596771Y23578229D01*
X86589632Y23576441D01*
X86582351Y23575361D01*
X86575000Y23575000D01*
X86425000Y23575000D01*
X86417649Y23575361D01*
X86410368Y23576441D01*
X86403229Y23578229D01*
X86396299Y23580709D01*
X86389645Y23583856D01*
X86383332Y23587640D01*
X86377421Y23592024D01*
X86371967Y23596967D01*
X86367024Y23602421D01*
X86362640Y23608332D01*
X86358856Y23614645D01*
X86355709Y23621299D01*
X86353229Y23628229D01*
X86351441Y23635368D01*
X86350361Y23642649D01*
X86350000Y23650000D01*
X86350000Y25000000D01*
X86350361Y25007351D01*
X86351441Y25014632D01*
X86353229Y25021771D01*
X86355709Y25028701D01*
X86358856Y25035355D01*
X86362640Y25041668D01*
X86367024Y25047579D01*
X86371967Y25053033D01*
X86377421Y25057976D01*
X86383332Y25062360D01*
X86389645Y25066144D01*
X86396299Y25069291D01*
X86403229Y25071771D01*
X86410368Y25073559D01*
X86417649Y25074639D01*
X86425000Y25075000D01*
X86575000Y25075000D01*
X86582351Y25074639D01*
G37*
G36*
X86082351Y25074639D02*
G01*
X86089632Y25073559D01*
X86096771Y25071771D01*
X86103701Y25069291D01*
X86110355Y25066144D01*
X86116668Y25062360D01*
X86122579Y25057976D01*
X86128033Y25053033D01*
X86132976Y25047579D01*
X86137360Y25041668D01*
X86141144Y25035355D01*
X86144291Y25028701D01*
X86146771Y25021771D01*
X86148559Y25014632D01*
X86149639Y25007351D01*
X86150000Y25000000D01*
X86150000Y23650000D01*
X86149639Y23642649D01*
X86148559Y23635368D01*
X86146771Y23628229D01*
X86144291Y23621299D01*
X86141144Y23614645D01*
X86137360Y23608332D01*
X86132976Y23602421D01*
X86128033Y23596967D01*
X86122579Y23592024D01*
X86116668Y23587640D01*
X86110355Y23583856D01*
X86103701Y23580709D01*
X86096771Y23578229D01*
X86089632Y23576441D01*
X86082351Y23575361D01*
X86075000Y23575000D01*
X85925000Y23575000D01*
X85917649Y23575361D01*
X85910368Y23576441D01*
X85903229Y23578229D01*
X85896299Y23580709D01*
X85889645Y23583856D01*
X85883332Y23587640D01*
X85877421Y23592024D01*
X85871967Y23596967D01*
X85867024Y23602421D01*
X85862640Y23608332D01*
X85858856Y23614645D01*
X85855709Y23621299D01*
X85853229Y23628229D01*
X85851441Y23635368D01*
X85850361Y23642649D01*
X85850000Y23650000D01*
X85850000Y25000000D01*
X85850361Y25007351D01*
X85851441Y25014632D01*
X85853229Y25021771D01*
X85855709Y25028701D01*
X85858856Y25035355D01*
X85862640Y25041668D01*
X85867024Y25047579D01*
X85871967Y25053033D01*
X85877421Y25057976D01*
X85883332Y25062360D01*
X85889645Y25066144D01*
X85896299Y25069291D01*
X85903229Y25071771D01*
X85910368Y25073559D01*
X85917649Y25074639D01*
X85925000Y25075000D01*
X86075000Y25075000D01*
X86082351Y25074639D01*
G37*
G36*
X85582351Y25074639D02*
G01*
X85589632Y25073559D01*
X85596771Y25071771D01*
X85603701Y25069291D01*
X85610355Y25066144D01*
X85616668Y25062360D01*
X85622579Y25057976D01*
X85628033Y25053033D01*
X85632976Y25047579D01*
X85637360Y25041668D01*
X85641144Y25035355D01*
X85644291Y25028701D01*
X85646771Y25021771D01*
X85648559Y25014632D01*
X85649639Y25007351D01*
X85650000Y25000000D01*
X85650000Y23650000D01*
X85649639Y23642649D01*
X85648559Y23635368D01*
X85646771Y23628229D01*
X85644291Y23621299D01*
X85641144Y23614645D01*
X85637360Y23608332D01*
X85632976Y23602421D01*
X85628033Y23596967D01*
X85622579Y23592024D01*
X85616668Y23587640D01*
X85610355Y23583856D01*
X85603701Y23580709D01*
X85596771Y23578229D01*
X85589632Y23576441D01*
X85582351Y23575361D01*
X85575000Y23575000D01*
X85425000Y23575000D01*
X85417649Y23575361D01*
X85410368Y23576441D01*
X85403229Y23578229D01*
X85396299Y23580709D01*
X85389645Y23583856D01*
X85383332Y23587640D01*
X85377421Y23592024D01*
X85371967Y23596967D01*
X85367024Y23602421D01*
X85362640Y23608332D01*
X85358856Y23614645D01*
X85355709Y23621299D01*
X85353229Y23628229D01*
X85351441Y23635368D01*
X85350361Y23642649D01*
X85350000Y23650000D01*
X85350000Y25000000D01*
X85350361Y25007351D01*
X85351441Y25014632D01*
X85353229Y25021771D01*
X85355709Y25028701D01*
X85358856Y25035355D01*
X85362640Y25041668D01*
X85367024Y25047579D01*
X85371967Y25053033D01*
X85377421Y25057976D01*
X85383332Y25062360D01*
X85389645Y25066144D01*
X85396299Y25069291D01*
X85403229Y25071771D01*
X85410368Y25073559D01*
X85417649Y25074639D01*
X85425000Y25075000D01*
X85575000Y25075000D01*
X85582351Y25074639D01*
G37*
G36*
X85082351Y25074639D02*
G01*
X85089632Y25073559D01*
X85096771Y25071771D01*
X85103701Y25069291D01*
X85110355Y25066144D01*
X85116668Y25062360D01*
X85122579Y25057976D01*
X85128033Y25053033D01*
X85132976Y25047579D01*
X85137360Y25041668D01*
X85141144Y25035355D01*
X85144291Y25028701D01*
X85146771Y25021771D01*
X85148559Y25014632D01*
X85149639Y25007351D01*
X85150000Y25000000D01*
X85150000Y23650000D01*
X85149639Y23642649D01*
X85148559Y23635368D01*
X85146771Y23628229D01*
X85144291Y23621299D01*
X85141144Y23614645D01*
X85137360Y23608332D01*
X85132976Y23602421D01*
X85128033Y23596967D01*
X85122579Y23592024D01*
X85116668Y23587640D01*
X85110355Y23583856D01*
X85103701Y23580709D01*
X85096771Y23578229D01*
X85089632Y23576441D01*
X85082351Y23575361D01*
X85075000Y23575000D01*
X84925000Y23575000D01*
X84917649Y23575361D01*
X84910368Y23576441D01*
X84903229Y23578229D01*
X84896299Y23580709D01*
X84889645Y23583856D01*
X84883332Y23587640D01*
X84877421Y23592024D01*
X84871967Y23596967D01*
X84867024Y23602421D01*
X84862640Y23608332D01*
X84858856Y23614645D01*
X84855709Y23621299D01*
X84853229Y23628229D01*
X84851441Y23635368D01*
X84850361Y23642649D01*
X84850000Y23650000D01*
X84850000Y25000000D01*
X84850361Y25007351D01*
X84851441Y25014632D01*
X84853229Y25021771D01*
X84855709Y25028701D01*
X84858856Y25035355D01*
X84862640Y25041668D01*
X84867024Y25047579D01*
X84871967Y25053033D01*
X84877421Y25057976D01*
X84883332Y25062360D01*
X84889645Y25066144D01*
X84896299Y25069291D01*
X84903229Y25071771D01*
X84910368Y25073559D01*
X84917649Y25074639D01*
X84925000Y25075000D01*
X85075000Y25075000D01*
X85082351Y25074639D01*
G37*
G36*
X84257351Y25899639D02*
G01*
X84264632Y25898559D01*
X84271771Y25896771D01*
X84278701Y25894291D01*
X84285355Y25891144D01*
X84291668Y25887360D01*
X84297579Y25882976D01*
X84303033Y25878033D01*
X84307976Y25872579D01*
X84312360Y25866668D01*
X84316144Y25860355D01*
X84319291Y25853701D01*
X84321771Y25846771D01*
X84323559Y25839632D01*
X84324639Y25832351D01*
X84325000Y25825000D01*
X84325000Y25675000D01*
X84324639Y25667649D01*
X84323559Y25660368D01*
X84321771Y25653229D01*
X84319291Y25646299D01*
X84316144Y25639645D01*
X84312360Y25633332D01*
X84307976Y25627421D01*
X84303033Y25621967D01*
X84297579Y25617024D01*
X84291668Y25612640D01*
X84285355Y25608856D01*
X84278701Y25605709D01*
X84271771Y25603229D01*
X84264632Y25601441D01*
X84257351Y25600361D01*
X84250000Y25600000D01*
X82900000Y25600000D01*
X82892649Y25600361D01*
X82885368Y25601441D01*
X82878229Y25603229D01*
X82871299Y25605709D01*
X82864645Y25608856D01*
X82858332Y25612640D01*
X82852421Y25617024D01*
X82846967Y25621967D01*
X82842024Y25627421D01*
X82837640Y25633332D01*
X82833856Y25639645D01*
X82830709Y25646299D01*
X82828229Y25653229D01*
X82826441Y25660368D01*
X82825361Y25667649D01*
X82825000Y25675000D01*
X82825000Y25825000D01*
X82825361Y25832351D01*
X82826441Y25839632D01*
X82828229Y25846771D01*
X82830709Y25853701D01*
X82833856Y25860355D01*
X82837640Y25866668D01*
X82842024Y25872579D01*
X82846967Y25878033D01*
X82852421Y25882976D01*
X82858332Y25887360D01*
X82864645Y25891144D01*
X82871299Y25894291D01*
X82878229Y25896771D01*
X82885368Y25898559D01*
X82892649Y25899639D01*
X82900000Y25900000D01*
X84250000Y25900000D01*
X84257351Y25899639D01*
G37*
G36*
X84257351Y26399639D02*
G01*
X84264632Y26398559D01*
X84271771Y26396771D01*
X84278701Y26394291D01*
X84285355Y26391144D01*
X84291668Y26387360D01*
X84297579Y26382976D01*
X84303033Y26378033D01*
X84307976Y26372579D01*
X84312360Y26366668D01*
X84316144Y26360355D01*
X84319291Y26353701D01*
X84321771Y26346771D01*
X84323559Y26339632D01*
X84324639Y26332351D01*
X84325000Y26325000D01*
X84325000Y26175000D01*
X84324639Y26167649D01*
X84323559Y26160368D01*
X84321771Y26153229D01*
X84319291Y26146299D01*
X84316144Y26139645D01*
X84312360Y26133332D01*
X84307976Y26127421D01*
X84303033Y26121967D01*
X84297579Y26117024D01*
X84291668Y26112640D01*
X84285355Y26108856D01*
X84278701Y26105709D01*
X84271771Y26103229D01*
X84264632Y26101441D01*
X84257351Y26100361D01*
X84250000Y26100000D01*
X82900000Y26100000D01*
X82892649Y26100361D01*
X82885368Y26101441D01*
X82878229Y26103229D01*
X82871299Y26105709D01*
X82864645Y26108856D01*
X82858332Y26112640D01*
X82852421Y26117024D01*
X82846967Y26121967D01*
X82842024Y26127421D01*
X82837640Y26133332D01*
X82833856Y26139645D01*
X82830709Y26146299D01*
X82828229Y26153229D01*
X82826441Y26160368D01*
X82825361Y26167649D01*
X82825000Y26175000D01*
X82825000Y26325000D01*
X82825361Y26332351D01*
X82826441Y26339632D01*
X82828229Y26346771D01*
X82830709Y26353701D01*
X82833856Y26360355D01*
X82837640Y26366668D01*
X82842024Y26372579D01*
X82846967Y26378033D01*
X82852421Y26382976D01*
X82858332Y26387360D01*
X82864645Y26391144D01*
X82871299Y26394291D01*
X82878229Y26396771D01*
X82885368Y26398559D01*
X82892649Y26399639D01*
X82900000Y26400000D01*
X84250000Y26400000D01*
X84257351Y26399639D01*
G37*
G36*
X84257351Y26899639D02*
G01*
X84264632Y26898559D01*
X84271771Y26896771D01*
X84278701Y26894291D01*
X84285355Y26891144D01*
X84291668Y26887360D01*
X84297579Y26882976D01*
X84303033Y26878033D01*
X84307976Y26872579D01*
X84312360Y26866668D01*
X84316144Y26860355D01*
X84319291Y26853701D01*
X84321771Y26846771D01*
X84323559Y26839632D01*
X84324639Y26832351D01*
X84325000Y26825000D01*
X84325000Y26675000D01*
X84324639Y26667649D01*
X84323559Y26660368D01*
X84321771Y26653229D01*
X84319291Y26646299D01*
X84316144Y26639645D01*
X84312360Y26633332D01*
X84307976Y26627421D01*
X84303033Y26621967D01*
X84297579Y26617024D01*
X84291668Y26612640D01*
X84285355Y26608856D01*
X84278701Y26605709D01*
X84271771Y26603229D01*
X84264632Y26601441D01*
X84257351Y26600361D01*
X84250000Y26600000D01*
X82900000Y26600000D01*
X82892649Y26600361D01*
X82885368Y26601441D01*
X82878229Y26603229D01*
X82871299Y26605709D01*
X82864645Y26608856D01*
X82858332Y26612640D01*
X82852421Y26617024D01*
X82846967Y26621967D01*
X82842024Y26627421D01*
X82837640Y26633332D01*
X82833856Y26639645D01*
X82830709Y26646299D01*
X82828229Y26653229D01*
X82826441Y26660368D01*
X82825361Y26667649D01*
X82825000Y26675000D01*
X82825000Y26825000D01*
X82825361Y26832351D01*
X82826441Y26839632D01*
X82828229Y26846771D01*
X82830709Y26853701D01*
X82833856Y26860355D01*
X82837640Y26866668D01*
X82842024Y26872579D01*
X82846967Y26878033D01*
X82852421Y26882976D01*
X82858332Y26887360D01*
X82864645Y26891144D01*
X82871299Y26894291D01*
X82878229Y26896771D01*
X82885368Y26898559D01*
X82892649Y26899639D01*
X82900000Y26900000D01*
X84250000Y26900000D01*
X84257351Y26899639D01*
G37*
G36*
X84257351Y27399639D02*
G01*
X84264632Y27398559D01*
X84271771Y27396771D01*
X84278701Y27394291D01*
X84285355Y27391144D01*
X84291668Y27387360D01*
X84297579Y27382976D01*
X84303033Y27378033D01*
X84307976Y27372579D01*
X84312360Y27366668D01*
X84316144Y27360355D01*
X84319291Y27353701D01*
X84321771Y27346771D01*
X84323559Y27339632D01*
X84324639Y27332351D01*
X84325000Y27325000D01*
X84325000Y27175000D01*
X84324639Y27167649D01*
X84323559Y27160368D01*
X84321771Y27153229D01*
X84319291Y27146299D01*
X84316144Y27139645D01*
X84312360Y27133332D01*
X84307976Y27127421D01*
X84303033Y27121967D01*
X84297579Y27117024D01*
X84291668Y27112640D01*
X84285355Y27108856D01*
X84278701Y27105709D01*
X84271771Y27103229D01*
X84264632Y27101441D01*
X84257351Y27100361D01*
X84250000Y27100000D01*
X82900000Y27100000D01*
X82892649Y27100361D01*
X82885368Y27101441D01*
X82878229Y27103229D01*
X82871299Y27105709D01*
X82864645Y27108856D01*
X82858332Y27112640D01*
X82852421Y27117024D01*
X82846967Y27121967D01*
X82842024Y27127421D01*
X82837640Y27133332D01*
X82833856Y27139645D01*
X82830709Y27146299D01*
X82828229Y27153229D01*
X82826441Y27160368D01*
X82825361Y27167649D01*
X82825000Y27175000D01*
X82825000Y27325000D01*
X82825361Y27332351D01*
X82826441Y27339632D01*
X82828229Y27346771D01*
X82830709Y27353701D01*
X82833856Y27360355D01*
X82837640Y27366668D01*
X82842024Y27372579D01*
X82846967Y27378033D01*
X82852421Y27382976D01*
X82858332Y27387360D01*
X82864645Y27391144D01*
X82871299Y27394291D01*
X82878229Y27396771D01*
X82885368Y27398559D01*
X82892649Y27399639D01*
X82900000Y27400000D01*
X84250000Y27400000D01*
X84257351Y27399639D01*
G37*
G36*
X84257351Y27899639D02*
G01*
X84264632Y27898559D01*
X84271771Y27896771D01*
X84278701Y27894291D01*
X84285355Y27891144D01*
X84291668Y27887360D01*
X84297579Y27882976D01*
X84303033Y27878033D01*
X84307976Y27872579D01*
X84312360Y27866668D01*
X84316144Y27860355D01*
X84319291Y27853701D01*
X84321771Y27846771D01*
X84323559Y27839632D01*
X84324639Y27832351D01*
X84325000Y27825000D01*
X84325000Y27675000D01*
X84324639Y27667649D01*
X84323559Y27660368D01*
X84321771Y27653229D01*
X84319291Y27646299D01*
X84316144Y27639645D01*
X84312360Y27633332D01*
X84307976Y27627421D01*
X84303033Y27621967D01*
X84297579Y27617024D01*
X84291668Y27612640D01*
X84285355Y27608856D01*
X84278701Y27605709D01*
X84271771Y27603229D01*
X84264632Y27601441D01*
X84257351Y27600361D01*
X84250000Y27600000D01*
X82900000Y27600000D01*
X82892649Y27600361D01*
X82885368Y27601441D01*
X82878229Y27603229D01*
X82871299Y27605709D01*
X82864645Y27608856D01*
X82858332Y27612640D01*
X82852421Y27617024D01*
X82846967Y27621967D01*
X82842024Y27627421D01*
X82837640Y27633332D01*
X82833856Y27639645D01*
X82830709Y27646299D01*
X82828229Y27653229D01*
X82826441Y27660368D01*
X82825361Y27667649D01*
X82825000Y27675000D01*
X82825000Y27825000D01*
X82825361Y27832351D01*
X82826441Y27839632D01*
X82828229Y27846771D01*
X82830709Y27853701D01*
X82833856Y27860355D01*
X82837640Y27866668D01*
X82842024Y27872579D01*
X82846967Y27878033D01*
X82852421Y27882976D01*
X82858332Y27887360D01*
X82864645Y27891144D01*
X82871299Y27894291D01*
X82878229Y27896771D01*
X82885368Y27898559D01*
X82892649Y27899639D01*
X82900000Y27900000D01*
X84250000Y27900000D01*
X84257351Y27899639D01*
G37*
G36*
X84257351Y28399639D02*
G01*
X84264632Y28398559D01*
X84271771Y28396771D01*
X84278701Y28394291D01*
X84285355Y28391144D01*
X84291668Y28387360D01*
X84297579Y28382976D01*
X84303033Y28378033D01*
X84307976Y28372579D01*
X84312360Y28366668D01*
X84316144Y28360355D01*
X84319291Y28353701D01*
X84321771Y28346771D01*
X84323559Y28339632D01*
X84324639Y28332351D01*
X84325000Y28325000D01*
X84325000Y28175000D01*
X84324639Y28167649D01*
X84323559Y28160368D01*
X84321771Y28153229D01*
X84319291Y28146299D01*
X84316144Y28139645D01*
X84312360Y28133332D01*
X84307976Y28127421D01*
X84303033Y28121967D01*
X84297579Y28117024D01*
X84291668Y28112640D01*
X84285355Y28108856D01*
X84278701Y28105709D01*
X84271771Y28103229D01*
X84264632Y28101441D01*
X84257351Y28100361D01*
X84250000Y28100000D01*
X82900000Y28100000D01*
X82892649Y28100361D01*
X82885368Y28101441D01*
X82878229Y28103229D01*
X82871299Y28105709D01*
X82864645Y28108856D01*
X82858332Y28112640D01*
X82852421Y28117024D01*
X82846967Y28121967D01*
X82842024Y28127421D01*
X82837640Y28133332D01*
X82833856Y28139645D01*
X82830709Y28146299D01*
X82828229Y28153229D01*
X82826441Y28160368D01*
X82825361Y28167649D01*
X82825000Y28175000D01*
X82825000Y28325000D01*
X82825361Y28332351D01*
X82826441Y28339632D01*
X82828229Y28346771D01*
X82830709Y28353701D01*
X82833856Y28360355D01*
X82837640Y28366668D01*
X82842024Y28372579D01*
X82846967Y28378033D01*
X82852421Y28382976D01*
X82858332Y28387360D01*
X82864645Y28391144D01*
X82871299Y28394291D01*
X82878229Y28396771D01*
X82885368Y28398559D01*
X82892649Y28399639D01*
X82900000Y28400000D01*
X84250000Y28400000D01*
X84257351Y28399639D01*
G37*
G36*
X84257351Y28899639D02*
G01*
X84264632Y28898559D01*
X84271771Y28896771D01*
X84278701Y28894291D01*
X84285355Y28891144D01*
X84291668Y28887360D01*
X84297579Y28882976D01*
X84303033Y28878033D01*
X84307976Y28872579D01*
X84312360Y28866668D01*
X84316144Y28860355D01*
X84319291Y28853701D01*
X84321771Y28846771D01*
X84323559Y28839632D01*
X84324639Y28832351D01*
X84325000Y28825000D01*
X84325000Y28675000D01*
X84324639Y28667649D01*
X84323559Y28660368D01*
X84321771Y28653229D01*
X84319291Y28646299D01*
X84316144Y28639645D01*
X84312360Y28633332D01*
X84307976Y28627421D01*
X84303033Y28621967D01*
X84297579Y28617024D01*
X84291668Y28612640D01*
X84285355Y28608856D01*
X84278701Y28605709D01*
X84271771Y28603229D01*
X84264632Y28601441D01*
X84257351Y28600361D01*
X84250000Y28600000D01*
X82900000Y28600000D01*
X82892649Y28600361D01*
X82885368Y28601441D01*
X82878229Y28603229D01*
X82871299Y28605709D01*
X82864645Y28608856D01*
X82858332Y28612640D01*
X82852421Y28617024D01*
X82846967Y28621967D01*
X82842024Y28627421D01*
X82837640Y28633332D01*
X82833856Y28639645D01*
X82830709Y28646299D01*
X82828229Y28653229D01*
X82826441Y28660368D01*
X82825361Y28667649D01*
X82825000Y28675000D01*
X82825000Y28825000D01*
X82825361Y28832351D01*
X82826441Y28839632D01*
X82828229Y28846771D01*
X82830709Y28853701D01*
X82833856Y28860355D01*
X82837640Y28866668D01*
X82842024Y28872579D01*
X82846967Y28878033D01*
X82852421Y28882976D01*
X82858332Y28887360D01*
X82864645Y28891144D01*
X82871299Y28894291D01*
X82878229Y28896771D01*
X82885368Y28898559D01*
X82892649Y28899639D01*
X82900000Y28900000D01*
X84250000Y28900000D01*
X84257351Y28899639D01*
G37*
G36*
X84257351Y29399639D02*
G01*
X84264632Y29398559D01*
X84271771Y29396771D01*
X84278701Y29394291D01*
X84285355Y29391144D01*
X84291668Y29387360D01*
X84297579Y29382976D01*
X84303033Y29378033D01*
X84307976Y29372579D01*
X84312360Y29366668D01*
X84316144Y29360355D01*
X84319291Y29353701D01*
X84321771Y29346771D01*
X84323559Y29339632D01*
X84324639Y29332351D01*
X84325000Y29325000D01*
X84325000Y29175000D01*
X84324639Y29167649D01*
X84323559Y29160368D01*
X84321771Y29153229D01*
X84319291Y29146299D01*
X84316144Y29139645D01*
X84312360Y29133332D01*
X84307976Y29127421D01*
X84303033Y29121967D01*
X84297579Y29117024D01*
X84291668Y29112640D01*
X84285355Y29108856D01*
X84278701Y29105709D01*
X84271771Y29103229D01*
X84264632Y29101441D01*
X84257351Y29100361D01*
X84250000Y29100000D01*
X82900000Y29100000D01*
X82892649Y29100361D01*
X82885368Y29101441D01*
X82878229Y29103229D01*
X82871299Y29105709D01*
X82864645Y29108856D01*
X82858332Y29112640D01*
X82852421Y29117024D01*
X82846967Y29121967D01*
X82842024Y29127421D01*
X82837640Y29133332D01*
X82833856Y29139645D01*
X82830709Y29146299D01*
X82828229Y29153229D01*
X82826441Y29160368D01*
X82825361Y29167649D01*
X82825000Y29175000D01*
X82825000Y29325000D01*
X82825361Y29332351D01*
X82826441Y29339632D01*
X82828229Y29346771D01*
X82830709Y29353701D01*
X82833856Y29360355D01*
X82837640Y29366668D01*
X82842024Y29372579D01*
X82846967Y29378033D01*
X82852421Y29382976D01*
X82858332Y29387360D01*
X82864645Y29391144D01*
X82871299Y29394291D01*
X82878229Y29396771D01*
X82885368Y29398559D01*
X82892649Y29399639D01*
X82900000Y29400000D01*
X84250000Y29400000D01*
X84257351Y29399639D01*
G37*
G36*
X74010779Y17648856D02*
G01*
X74033834Y17645437D01*
X74056443Y17639773D01*
X74078387Y17631921D01*
X74099457Y17621956D01*
X74119448Y17609974D01*
X74138168Y17596090D01*
X74155438Y17580438D01*
X74171090Y17563168D01*
X74184974Y17544448D01*
X74196956Y17524457D01*
X74206921Y17503387D01*
X74214773Y17481443D01*
X74220437Y17458834D01*
X74223856Y17435779D01*
X74225000Y17412500D01*
X74225000Y16837500D01*
X74223856Y16814221D01*
X74220437Y16791166D01*
X74214773Y16768557D01*
X74206921Y16746613D01*
X74196956Y16725543D01*
X74184974Y16705552D01*
X74171090Y16686832D01*
X74155438Y16669562D01*
X74138168Y16653910D01*
X74119448Y16640026D01*
X74099457Y16628044D01*
X74078387Y16618079D01*
X74056443Y16610227D01*
X74033834Y16604563D01*
X74010779Y16601144D01*
X73987500Y16600000D01*
X73512500Y16600000D01*
X73489221Y16601144D01*
X73466166Y16604563D01*
X73443557Y16610227D01*
X73421613Y16618079D01*
X73400543Y16628044D01*
X73380552Y16640026D01*
X73361832Y16653910D01*
X73344562Y16669562D01*
X73328910Y16686832D01*
X73315026Y16705552D01*
X73303044Y16725543D01*
X73293079Y16746613D01*
X73285227Y16768557D01*
X73279563Y16791166D01*
X73276144Y16814221D01*
X73275000Y16837500D01*
X73275000Y17412500D01*
X73276144Y17435779D01*
X73279563Y17458834D01*
X73285227Y17481443D01*
X73293079Y17503387D01*
X73303044Y17524457D01*
X73315026Y17544448D01*
X73328910Y17563168D01*
X73344562Y17580438D01*
X73361832Y17596090D01*
X73380552Y17609974D01*
X73400543Y17621956D01*
X73421613Y17631921D01*
X73443557Y17639773D01*
X73466166Y17645437D01*
X73489221Y17648856D01*
X73512500Y17650000D01*
X73987500Y17650000D01*
X74010779Y17648856D01*
G37*
G36*
X74010779Y15898856D02*
G01*
X74033834Y15895437D01*
X74056443Y15889773D01*
X74078387Y15881921D01*
X74099457Y15871956D01*
X74119448Y15859974D01*
X74138168Y15846090D01*
X74155438Y15830438D01*
X74171090Y15813168D01*
X74184974Y15794448D01*
X74196956Y15774457D01*
X74206921Y15753387D01*
X74214773Y15731443D01*
X74220437Y15708834D01*
X74223856Y15685779D01*
X74225000Y15662500D01*
X74225000Y15087500D01*
X74223856Y15064221D01*
X74220437Y15041166D01*
X74214773Y15018557D01*
X74206921Y14996613D01*
X74196956Y14975543D01*
X74184974Y14955552D01*
X74171090Y14936832D01*
X74155438Y14919562D01*
X74138168Y14903910D01*
X74119448Y14890026D01*
X74099457Y14878044D01*
X74078387Y14868079D01*
X74056443Y14860227D01*
X74033834Y14854563D01*
X74010779Y14851144D01*
X73987500Y14850000D01*
X73512500Y14850000D01*
X73489221Y14851144D01*
X73466166Y14854563D01*
X73443557Y14860227D01*
X73421613Y14868079D01*
X73400543Y14878044D01*
X73380552Y14890026D01*
X73361832Y14903910D01*
X73344562Y14919562D01*
X73328910Y14936832D01*
X73315026Y14955552D01*
X73303044Y14975543D01*
X73293079Y14996613D01*
X73285227Y15018557D01*
X73279563Y15041166D01*
X73276144Y15064221D01*
X73275000Y15087500D01*
X73275000Y15662500D01*
X73276144Y15685779D01*
X73279563Y15708834D01*
X73285227Y15731443D01*
X73293079Y15753387D01*
X73303044Y15774457D01*
X73315026Y15794448D01*
X73328910Y15813168D01*
X73344562Y15830438D01*
X73361832Y15846090D01*
X73380552Y15859974D01*
X73400543Y15871956D01*
X73421613Y15881921D01*
X73443557Y15889773D01*
X73466166Y15895437D01*
X73489221Y15898856D01*
X73512500Y15900000D01*
X73987500Y15900000D01*
X74010779Y15898856D01*
G37*
G36*
X96010779Y33148856D02*
G01*
X96033834Y33145437D01*
X96056443Y33139773D01*
X96078387Y33131921D01*
X96099457Y33121956D01*
X96119448Y33109974D01*
X96138168Y33096090D01*
X96155438Y33080438D01*
X96171090Y33063168D01*
X96184974Y33044448D01*
X96196956Y33024457D01*
X96206921Y33003387D01*
X96214773Y32981443D01*
X96220437Y32958834D01*
X96223856Y32935779D01*
X96225000Y32912500D01*
X96225000Y32337500D01*
X96223856Y32314221D01*
X96220437Y32291166D01*
X96214773Y32268557D01*
X96206921Y32246613D01*
X96196956Y32225543D01*
X96184974Y32205552D01*
X96171090Y32186832D01*
X96155438Y32169562D01*
X96138168Y32153910D01*
X96119448Y32140026D01*
X96099457Y32128044D01*
X96078387Y32118079D01*
X96056443Y32110227D01*
X96033834Y32104563D01*
X96010779Y32101144D01*
X95987500Y32100000D01*
X95512500Y32100000D01*
X95489221Y32101144D01*
X95466166Y32104563D01*
X95443557Y32110227D01*
X95421613Y32118079D01*
X95400543Y32128044D01*
X95380552Y32140026D01*
X95361832Y32153910D01*
X95344562Y32169562D01*
X95328910Y32186832D01*
X95315026Y32205552D01*
X95303044Y32225543D01*
X95293079Y32246613D01*
X95285227Y32268557D01*
X95279563Y32291166D01*
X95276144Y32314221D01*
X95275000Y32337500D01*
X95275000Y32912500D01*
X95276144Y32935779D01*
X95279563Y32958834D01*
X95285227Y32981443D01*
X95293079Y33003387D01*
X95303044Y33024457D01*
X95315026Y33044448D01*
X95328910Y33063168D01*
X95344562Y33080438D01*
X95361832Y33096090D01*
X95380552Y33109974D01*
X95400543Y33121956D01*
X95421613Y33131921D01*
X95443557Y33139773D01*
X95466166Y33145437D01*
X95489221Y33148856D01*
X95512500Y33150000D01*
X95987500Y33150000D01*
X96010779Y33148856D01*
G37*
G36*
X96010779Y31398856D02*
G01*
X96033834Y31395437D01*
X96056443Y31389773D01*
X96078387Y31381921D01*
X96099457Y31371956D01*
X96119448Y31359974D01*
X96138168Y31346090D01*
X96155438Y31330438D01*
X96171090Y31313168D01*
X96184974Y31294448D01*
X96196956Y31274457D01*
X96206921Y31253387D01*
X96214773Y31231443D01*
X96220437Y31208834D01*
X96223856Y31185779D01*
X96225000Y31162500D01*
X96225000Y30587500D01*
X96223856Y30564221D01*
X96220437Y30541166D01*
X96214773Y30518557D01*
X96206921Y30496613D01*
X96196956Y30475543D01*
X96184974Y30455552D01*
X96171090Y30436832D01*
X96155438Y30419562D01*
X96138168Y30403910D01*
X96119448Y30390026D01*
X96099457Y30378044D01*
X96078387Y30368079D01*
X96056443Y30360227D01*
X96033834Y30354563D01*
X96010779Y30351144D01*
X95987500Y30350000D01*
X95512500Y30350000D01*
X95489221Y30351144D01*
X95466166Y30354563D01*
X95443557Y30360227D01*
X95421613Y30368079D01*
X95400543Y30378044D01*
X95380552Y30390026D01*
X95361832Y30403910D01*
X95344562Y30419562D01*
X95328910Y30436832D01*
X95315026Y30455552D01*
X95303044Y30475543D01*
X95293079Y30496613D01*
X95285227Y30518557D01*
X95279563Y30541166D01*
X95276144Y30564221D01*
X95275000Y30587500D01*
X95275000Y31162500D01*
X95276144Y31185779D01*
X95279563Y31208834D01*
X95285227Y31231443D01*
X95293079Y31253387D01*
X95303044Y31274457D01*
X95315026Y31294448D01*
X95328910Y31313168D01*
X95344562Y31330438D01*
X95361832Y31346090D01*
X95380552Y31359974D01*
X95400543Y31371956D01*
X95421613Y31381921D01*
X95443557Y31389773D01*
X95466166Y31395437D01*
X95489221Y31398856D01*
X95512500Y31400000D01*
X95987500Y31400000D01*
X96010779Y31398856D01*
G37*
G36*
X94010779Y33148856D02*
G01*
X94033834Y33145437D01*
X94056443Y33139773D01*
X94078387Y33131921D01*
X94099457Y33121956D01*
X94119448Y33109974D01*
X94138168Y33096090D01*
X94155438Y33080438D01*
X94171090Y33063168D01*
X94184974Y33044448D01*
X94196956Y33024457D01*
X94206921Y33003387D01*
X94214773Y32981443D01*
X94220437Y32958834D01*
X94223856Y32935779D01*
X94225000Y32912500D01*
X94225000Y32337500D01*
X94223856Y32314221D01*
X94220437Y32291166D01*
X94214773Y32268557D01*
X94206921Y32246613D01*
X94196956Y32225543D01*
X94184974Y32205552D01*
X94171090Y32186832D01*
X94155438Y32169562D01*
X94138168Y32153910D01*
X94119448Y32140026D01*
X94099457Y32128044D01*
X94078387Y32118079D01*
X94056443Y32110227D01*
X94033834Y32104563D01*
X94010779Y32101144D01*
X93987500Y32100000D01*
X93512500Y32100000D01*
X93489221Y32101144D01*
X93466166Y32104563D01*
X93443557Y32110227D01*
X93421613Y32118079D01*
X93400543Y32128044D01*
X93380552Y32140026D01*
X93361832Y32153910D01*
X93344562Y32169562D01*
X93328910Y32186832D01*
X93315026Y32205552D01*
X93303044Y32225543D01*
X93293079Y32246613D01*
X93285227Y32268557D01*
X93279563Y32291166D01*
X93276144Y32314221D01*
X93275000Y32337500D01*
X93275000Y32912500D01*
X93276144Y32935779D01*
X93279563Y32958834D01*
X93285227Y32981443D01*
X93293079Y33003387D01*
X93303044Y33024457D01*
X93315026Y33044448D01*
X93328910Y33063168D01*
X93344562Y33080438D01*
X93361832Y33096090D01*
X93380552Y33109974D01*
X93400543Y33121956D01*
X93421613Y33131921D01*
X93443557Y33139773D01*
X93466166Y33145437D01*
X93489221Y33148856D01*
X93512500Y33150000D01*
X93987500Y33150000D01*
X94010779Y33148856D01*
G37*
G36*
X94010779Y31398856D02*
G01*
X94033834Y31395437D01*
X94056443Y31389773D01*
X94078387Y31381921D01*
X94099457Y31371956D01*
X94119448Y31359974D01*
X94138168Y31346090D01*
X94155438Y31330438D01*
X94171090Y31313168D01*
X94184974Y31294448D01*
X94196956Y31274457D01*
X94206921Y31253387D01*
X94214773Y31231443D01*
X94220437Y31208834D01*
X94223856Y31185779D01*
X94225000Y31162500D01*
X94225000Y30587500D01*
X94223856Y30564221D01*
X94220437Y30541166D01*
X94214773Y30518557D01*
X94206921Y30496613D01*
X94196956Y30475543D01*
X94184974Y30455552D01*
X94171090Y30436832D01*
X94155438Y30419562D01*
X94138168Y30403910D01*
X94119448Y30390026D01*
X94099457Y30378044D01*
X94078387Y30368079D01*
X94056443Y30360227D01*
X94033834Y30354563D01*
X94010779Y30351144D01*
X93987500Y30350000D01*
X93512500Y30350000D01*
X93489221Y30351144D01*
X93466166Y30354563D01*
X93443557Y30360227D01*
X93421613Y30368079D01*
X93400543Y30378044D01*
X93380552Y30390026D01*
X93361832Y30403910D01*
X93344562Y30419562D01*
X93328910Y30436832D01*
X93315026Y30455552D01*
X93303044Y30475543D01*
X93293079Y30496613D01*
X93285227Y30518557D01*
X93279563Y30541166D01*
X93276144Y30564221D01*
X93275000Y30587500D01*
X93275000Y31162500D01*
X93276144Y31185779D01*
X93279563Y31208834D01*
X93285227Y31231443D01*
X93293079Y31253387D01*
X93303044Y31274457D01*
X93315026Y31294448D01*
X93328910Y31313168D01*
X93344562Y31330438D01*
X93361832Y31346090D01*
X93380552Y31359974D01*
X93400543Y31371956D01*
X93421613Y31381921D01*
X93443557Y31389773D01*
X93466166Y31395437D01*
X93489221Y31398856D01*
X93512500Y31400000D01*
X93987500Y31400000D01*
X94010779Y31398856D01*
G37*
G36*
X83935779Y19973856D02*
G01*
X83958834Y19970437D01*
X83981443Y19964773D01*
X84003387Y19956921D01*
X84024457Y19946956D01*
X84044448Y19934974D01*
X84063168Y19921090D01*
X84080438Y19905438D01*
X84096090Y19888168D01*
X84109974Y19869448D01*
X84121956Y19849457D01*
X84131921Y19828387D01*
X84139773Y19806443D01*
X84145437Y19783834D01*
X84148856Y19760779D01*
X84150000Y19737500D01*
X84150000Y19262500D01*
X84148856Y19239221D01*
X84145437Y19216166D01*
X84139773Y19193557D01*
X84131921Y19171613D01*
X84121956Y19150543D01*
X84109974Y19130552D01*
X84096090Y19111832D01*
X84080438Y19094562D01*
X84063168Y19078910D01*
X84044448Y19065026D01*
X84024457Y19053044D01*
X84003387Y19043079D01*
X83981443Y19035227D01*
X83958834Y19029563D01*
X83935779Y19026144D01*
X83912500Y19025000D01*
X83337500Y19025000D01*
X83314221Y19026144D01*
X83291166Y19029563D01*
X83268557Y19035227D01*
X83246613Y19043079D01*
X83225543Y19053044D01*
X83205552Y19065026D01*
X83186832Y19078910D01*
X83169562Y19094562D01*
X83153910Y19111832D01*
X83140026Y19130552D01*
X83128044Y19150543D01*
X83118079Y19171613D01*
X83110227Y19193557D01*
X83104563Y19216166D01*
X83101144Y19239221D01*
X83100000Y19262500D01*
X83100000Y19737500D01*
X83101144Y19760779D01*
X83104563Y19783834D01*
X83110227Y19806443D01*
X83118079Y19828387D01*
X83128044Y19849457D01*
X83140026Y19869448D01*
X83153910Y19888168D01*
X83169562Y19905438D01*
X83186832Y19921090D01*
X83205552Y19934974D01*
X83225543Y19946956D01*
X83246613Y19956921D01*
X83268557Y19964773D01*
X83291166Y19970437D01*
X83314221Y19973856D01*
X83337500Y19975000D01*
X83912500Y19975000D01*
X83935779Y19973856D01*
G37*
G36*
X82185779Y19973856D02*
G01*
X82208834Y19970437D01*
X82231443Y19964773D01*
X82253387Y19956921D01*
X82274457Y19946956D01*
X82294448Y19934974D01*
X82313168Y19921090D01*
X82330438Y19905438D01*
X82346090Y19888168D01*
X82359974Y19869448D01*
X82371956Y19849457D01*
X82381921Y19828387D01*
X82389773Y19806443D01*
X82395437Y19783834D01*
X82398856Y19760779D01*
X82400000Y19737500D01*
X82400000Y19262500D01*
X82398856Y19239221D01*
X82395437Y19216166D01*
X82389773Y19193557D01*
X82381921Y19171613D01*
X82371956Y19150543D01*
X82359974Y19130552D01*
X82346090Y19111832D01*
X82330438Y19094562D01*
X82313168Y19078910D01*
X82294448Y19065026D01*
X82274457Y19053044D01*
X82253387Y19043079D01*
X82231443Y19035227D01*
X82208834Y19029563D01*
X82185779Y19026144D01*
X82162500Y19025000D01*
X81587500Y19025000D01*
X81564221Y19026144D01*
X81541166Y19029563D01*
X81518557Y19035227D01*
X81496613Y19043079D01*
X81475543Y19053044D01*
X81455552Y19065026D01*
X81436832Y19078910D01*
X81419562Y19094562D01*
X81403910Y19111832D01*
X81390026Y19130552D01*
X81378044Y19150543D01*
X81368079Y19171613D01*
X81360227Y19193557D01*
X81354563Y19216166D01*
X81351144Y19239221D01*
X81350000Y19262500D01*
X81350000Y19737500D01*
X81351144Y19760779D01*
X81354563Y19783834D01*
X81360227Y19806443D01*
X81368079Y19828387D01*
X81378044Y19849457D01*
X81390026Y19869448D01*
X81403910Y19888168D01*
X81419562Y19905438D01*
X81436832Y19921090D01*
X81455552Y19934974D01*
X81475543Y19946956D01*
X81496613Y19956921D01*
X81518557Y19964773D01*
X81541166Y19970437D01*
X81564221Y19973856D01*
X81587500Y19975000D01*
X82162500Y19975000D01*
X82185779Y19973856D01*
G37*
G36*
X83935779Y21473856D02*
G01*
X83958834Y21470437D01*
X83981443Y21464773D01*
X84003387Y21456921D01*
X84024457Y21446956D01*
X84044448Y21434974D01*
X84063168Y21421090D01*
X84080438Y21405438D01*
X84096090Y21388168D01*
X84109974Y21369448D01*
X84121956Y21349457D01*
X84131921Y21328387D01*
X84139773Y21306443D01*
X84145437Y21283834D01*
X84148856Y21260779D01*
X84150000Y21237500D01*
X84150000Y20762500D01*
X84148856Y20739221D01*
X84145437Y20716166D01*
X84139773Y20693557D01*
X84131921Y20671613D01*
X84121956Y20650543D01*
X84109974Y20630552D01*
X84096090Y20611832D01*
X84080438Y20594562D01*
X84063168Y20578910D01*
X84044448Y20565026D01*
X84024457Y20553044D01*
X84003387Y20543079D01*
X83981443Y20535227D01*
X83958834Y20529563D01*
X83935779Y20526144D01*
X83912500Y20525000D01*
X83337500Y20525000D01*
X83314221Y20526144D01*
X83291166Y20529563D01*
X83268557Y20535227D01*
X83246613Y20543079D01*
X83225543Y20553044D01*
X83205552Y20565026D01*
X83186832Y20578910D01*
X83169562Y20594562D01*
X83153910Y20611832D01*
X83140026Y20630552D01*
X83128044Y20650543D01*
X83118079Y20671613D01*
X83110227Y20693557D01*
X83104563Y20716166D01*
X83101144Y20739221D01*
X83100000Y20762500D01*
X83100000Y21237500D01*
X83101144Y21260779D01*
X83104563Y21283834D01*
X83110227Y21306443D01*
X83118079Y21328387D01*
X83128044Y21349457D01*
X83140026Y21369448D01*
X83153910Y21388168D01*
X83169562Y21405438D01*
X83186832Y21421090D01*
X83205552Y21434974D01*
X83225543Y21446956D01*
X83246613Y21456921D01*
X83268557Y21464773D01*
X83291166Y21470437D01*
X83314221Y21473856D01*
X83337500Y21475000D01*
X83912500Y21475000D01*
X83935779Y21473856D01*
G37*
G36*
X82185779Y21473856D02*
G01*
X82208834Y21470437D01*
X82231443Y21464773D01*
X82253387Y21456921D01*
X82274457Y21446956D01*
X82294448Y21434974D01*
X82313168Y21421090D01*
X82330438Y21405438D01*
X82346090Y21388168D01*
X82359974Y21369448D01*
X82371956Y21349457D01*
X82381921Y21328387D01*
X82389773Y21306443D01*
X82395437Y21283834D01*
X82398856Y21260779D01*
X82400000Y21237500D01*
X82400000Y20762500D01*
X82398856Y20739221D01*
X82395437Y20716166D01*
X82389773Y20693557D01*
X82381921Y20671613D01*
X82371956Y20650543D01*
X82359974Y20630552D01*
X82346090Y20611832D01*
X82330438Y20594562D01*
X82313168Y20578910D01*
X82294448Y20565026D01*
X82274457Y20553044D01*
X82253387Y20543079D01*
X82231443Y20535227D01*
X82208834Y20529563D01*
X82185779Y20526144D01*
X82162500Y20525000D01*
X81587500Y20525000D01*
X81564221Y20526144D01*
X81541166Y20529563D01*
X81518557Y20535227D01*
X81496613Y20543079D01*
X81475543Y20553044D01*
X81455552Y20565026D01*
X81436832Y20578910D01*
X81419562Y20594562D01*
X81403910Y20611832D01*
X81390026Y20630552D01*
X81378044Y20650543D01*
X81368079Y20671613D01*
X81360227Y20693557D01*
X81354563Y20716166D01*
X81351144Y20739221D01*
X81350000Y20762500D01*
X81350000Y21237500D01*
X81351144Y21260779D01*
X81354563Y21283834D01*
X81360227Y21306443D01*
X81368079Y21328387D01*
X81378044Y21349457D01*
X81390026Y21369448D01*
X81403910Y21388168D01*
X81419562Y21405438D01*
X81436832Y21421090D01*
X81455552Y21434974D01*
X81475543Y21446956D01*
X81496613Y21456921D01*
X81518557Y21464773D01*
X81541166Y21470437D01*
X81564221Y21473856D01*
X81587500Y21475000D01*
X82162500Y21475000D01*
X82185779Y21473856D01*
G37*
G36*
X85185779Y19973856D02*
G01*
X85208834Y19970437D01*
X85231443Y19964773D01*
X85253387Y19956921D01*
X85274457Y19946956D01*
X85294448Y19934974D01*
X85313168Y19921090D01*
X85330438Y19905438D01*
X85346090Y19888168D01*
X85359974Y19869448D01*
X85371956Y19849457D01*
X85381921Y19828387D01*
X85389773Y19806443D01*
X85395437Y19783834D01*
X85398856Y19760779D01*
X85400000Y19737500D01*
X85400000Y19262500D01*
X85398856Y19239221D01*
X85395437Y19216166D01*
X85389773Y19193557D01*
X85381921Y19171613D01*
X85371956Y19150543D01*
X85359974Y19130552D01*
X85346090Y19111832D01*
X85330438Y19094562D01*
X85313168Y19078910D01*
X85294448Y19065026D01*
X85274457Y19053044D01*
X85253387Y19043079D01*
X85231443Y19035227D01*
X85208834Y19029563D01*
X85185779Y19026144D01*
X85162500Y19025000D01*
X84587500Y19025000D01*
X84564221Y19026144D01*
X84541166Y19029563D01*
X84518557Y19035227D01*
X84496613Y19043079D01*
X84475543Y19053044D01*
X84455552Y19065026D01*
X84436832Y19078910D01*
X84419562Y19094562D01*
X84403910Y19111832D01*
X84390026Y19130552D01*
X84378044Y19150543D01*
X84368079Y19171613D01*
X84360227Y19193557D01*
X84354563Y19216166D01*
X84351144Y19239221D01*
X84350000Y19262500D01*
X84350000Y19737500D01*
X84351144Y19760779D01*
X84354563Y19783834D01*
X84360227Y19806443D01*
X84368079Y19828387D01*
X84378044Y19849457D01*
X84390026Y19869448D01*
X84403910Y19888168D01*
X84419562Y19905438D01*
X84436832Y19921090D01*
X84455552Y19934974D01*
X84475543Y19946956D01*
X84496613Y19956921D01*
X84518557Y19964773D01*
X84541166Y19970437D01*
X84564221Y19973856D01*
X84587500Y19975000D01*
X85162500Y19975000D01*
X85185779Y19973856D01*
G37*
G36*
X86935779Y19973856D02*
G01*
X86958834Y19970437D01*
X86981443Y19964773D01*
X87003387Y19956921D01*
X87024457Y19946956D01*
X87044448Y19934974D01*
X87063168Y19921090D01*
X87080438Y19905438D01*
X87096090Y19888168D01*
X87109974Y19869448D01*
X87121956Y19849457D01*
X87131921Y19828387D01*
X87139773Y19806443D01*
X87145437Y19783834D01*
X87148856Y19760779D01*
X87150000Y19737500D01*
X87150000Y19262500D01*
X87148856Y19239221D01*
X87145437Y19216166D01*
X87139773Y19193557D01*
X87131921Y19171613D01*
X87121956Y19150543D01*
X87109974Y19130552D01*
X87096090Y19111832D01*
X87080438Y19094562D01*
X87063168Y19078910D01*
X87044448Y19065026D01*
X87024457Y19053044D01*
X87003387Y19043079D01*
X86981443Y19035227D01*
X86958834Y19029563D01*
X86935779Y19026144D01*
X86912500Y19025000D01*
X86337500Y19025000D01*
X86314221Y19026144D01*
X86291166Y19029563D01*
X86268557Y19035227D01*
X86246613Y19043079D01*
X86225543Y19053044D01*
X86205552Y19065026D01*
X86186832Y19078910D01*
X86169562Y19094562D01*
X86153910Y19111832D01*
X86140026Y19130552D01*
X86128044Y19150543D01*
X86118079Y19171613D01*
X86110227Y19193557D01*
X86104563Y19216166D01*
X86101144Y19239221D01*
X86100000Y19262500D01*
X86100000Y19737500D01*
X86101144Y19760779D01*
X86104563Y19783834D01*
X86110227Y19806443D01*
X86118079Y19828387D01*
X86128044Y19849457D01*
X86140026Y19869448D01*
X86153910Y19888168D01*
X86169562Y19905438D01*
X86186832Y19921090D01*
X86205552Y19934974D01*
X86225543Y19946956D01*
X86246613Y19956921D01*
X86268557Y19964773D01*
X86291166Y19970437D01*
X86314221Y19973856D01*
X86337500Y19975000D01*
X86912500Y19975000D01*
X86935779Y19973856D01*
G37*
G36*
X85185779Y21473856D02*
G01*
X85208834Y21470437D01*
X85231443Y21464773D01*
X85253387Y21456921D01*
X85274457Y21446956D01*
X85294448Y21434974D01*
X85313168Y21421090D01*
X85330438Y21405438D01*
X85346090Y21388168D01*
X85359974Y21369448D01*
X85371956Y21349457D01*
X85381921Y21328387D01*
X85389773Y21306443D01*
X85395437Y21283834D01*
X85398856Y21260779D01*
X85400000Y21237500D01*
X85400000Y20762500D01*
X85398856Y20739221D01*
X85395437Y20716166D01*
X85389773Y20693557D01*
X85381921Y20671613D01*
X85371956Y20650543D01*
X85359974Y20630552D01*
X85346090Y20611832D01*
X85330438Y20594562D01*
X85313168Y20578910D01*
X85294448Y20565026D01*
X85274457Y20553044D01*
X85253387Y20543079D01*
X85231443Y20535227D01*
X85208834Y20529563D01*
X85185779Y20526144D01*
X85162500Y20525000D01*
X84587500Y20525000D01*
X84564221Y20526144D01*
X84541166Y20529563D01*
X84518557Y20535227D01*
X84496613Y20543079D01*
X84475543Y20553044D01*
X84455552Y20565026D01*
X84436832Y20578910D01*
X84419562Y20594562D01*
X84403910Y20611832D01*
X84390026Y20630552D01*
X84378044Y20650543D01*
X84368079Y20671613D01*
X84360227Y20693557D01*
X84354563Y20716166D01*
X84351144Y20739221D01*
X84350000Y20762500D01*
X84350000Y21237500D01*
X84351144Y21260779D01*
X84354563Y21283834D01*
X84360227Y21306443D01*
X84368079Y21328387D01*
X84378044Y21349457D01*
X84390026Y21369448D01*
X84403910Y21388168D01*
X84419562Y21405438D01*
X84436832Y21421090D01*
X84455552Y21434974D01*
X84475543Y21446956D01*
X84496613Y21456921D01*
X84518557Y21464773D01*
X84541166Y21470437D01*
X84564221Y21473856D01*
X84587500Y21475000D01*
X85162500Y21475000D01*
X85185779Y21473856D01*
G37*
G36*
X86935779Y21473856D02*
G01*
X86958834Y21470437D01*
X86981443Y21464773D01*
X87003387Y21456921D01*
X87024457Y21446956D01*
X87044448Y21434974D01*
X87063168Y21421090D01*
X87080438Y21405438D01*
X87096090Y21388168D01*
X87109974Y21369448D01*
X87121956Y21349457D01*
X87131921Y21328387D01*
X87139773Y21306443D01*
X87145437Y21283834D01*
X87148856Y21260779D01*
X87150000Y21237500D01*
X87150000Y20762500D01*
X87148856Y20739221D01*
X87145437Y20716166D01*
X87139773Y20693557D01*
X87131921Y20671613D01*
X87121956Y20650543D01*
X87109974Y20630552D01*
X87096090Y20611832D01*
X87080438Y20594562D01*
X87063168Y20578910D01*
X87044448Y20565026D01*
X87024457Y20553044D01*
X87003387Y20543079D01*
X86981443Y20535227D01*
X86958834Y20529563D01*
X86935779Y20526144D01*
X86912500Y20525000D01*
X86337500Y20525000D01*
X86314221Y20526144D01*
X86291166Y20529563D01*
X86268557Y20535227D01*
X86246613Y20543079D01*
X86225543Y20553044D01*
X86205552Y20565026D01*
X86186832Y20578910D01*
X86169562Y20594562D01*
X86153910Y20611832D01*
X86140026Y20630552D01*
X86128044Y20650543D01*
X86118079Y20671613D01*
X86110227Y20693557D01*
X86104563Y20716166D01*
X86101144Y20739221D01*
X86100000Y20762500D01*
X86100000Y21237500D01*
X86101144Y21260779D01*
X86104563Y21283834D01*
X86110227Y21306443D01*
X86118079Y21328387D01*
X86128044Y21349457D01*
X86140026Y21369448D01*
X86153910Y21388168D01*
X86169562Y21405438D01*
X86186832Y21421090D01*
X86205552Y21434974D01*
X86225543Y21446956D01*
X86246613Y21456921D01*
X86268557Y21464773D01*
X86291166Y21470437D01*
X86314221Y21473856D01*
X86337500Y21475000D01*
X86912500Y21475000D01*
X86935779Y21473856D01*
G37*
G36*
X85935779Y36473856D02*
G01*
X85958834Y36470437D01*
X85981443Y36464773D01*
X86003387Y36456921D01*
X86024457Y36446956D01*
X86044448Y36434974D01*
X86063168Y36421090D01*
X86080438Y36405438D01*
X86096090Y36388168D01*
X86109974Y36369448D01*
X86121956Y36349457D01*
X86131921Y36328387D01*
X86139773Y36306443D01*
X86145437Y36283834D01*
X86148856Y36260779D01*
X86150000Y36237500D01*
X86150000Y35762500D01*
X86148856Y35739221D01*
X86145437Y35716166D01*
X86139773Y35693557D01*
X86131921Y35671613D01*
X86121956Y35650543D01*
X86109974Y35630552D01*
X86096090Y35611832D01*
X86080438Y35594562D01*
X86063168Y35578910D01*
X86044448Y35565026D01*
X86024457Y35553044D01*
X86003387Y35543079D01*
X85981443Y35535227D01*
X85958834Y35529563D01*
X85935779Y35526144D01*
X85912500Y35525000D01*
X85337500Y35525000D01*
X85314221Y35526144D01*
X85291166Y35529563D01*
X85268557Y35535227D01*
X85246613Y35543079D01*
X85225543Y35553044D01*
X85205552Y35565026D01*
X85186832Y35578910D01*
X85169562Y35594562D01*
X85153910Y35611832D01*
X85140026Y35630552D01*
X85128044Y35650543D01*
X85118079Y35671613D01*
X85110227Y35693557D01*
X85104563Y35716166D01*
X85101144Y35739221D01*
X85100000Y35762500D01*
X85100000Y36237500D01*
X85101144Y36260779D01*
X85104563Y36283834D01*
X85110227Y36306443D01*
X85118079Y36328387D01*
X85128044Y36349457D01*
X85140026Y36369448D01*
X85153910Y36388168D01*
X85169562Y36405438D01*
X85186832Y36421090D01*
X85205552Y36434974D01*
X85225543Y36446956D01*
X85246613Y36456921D01*
X85268557Y36464773D01*
X85291166Y36470437D01*
X85314221Y36473856D01*
X85337500Y36475000D01*
X85912500Y36475000D01*
X85935779Y36473856D01*
G37*
G36*
X84185779Y36473856D02*
G01*
X84208834Y36470437D01*
X84231443Y36464773D01*
X84253387Y36456921D01*
X84274457Y36446956D01*
X84294448Y36434974D01*
X84313168Y36421090D01*
X84330438Y36405438D01*
X84346090Y36388168D01*
X84359974Y36369448D01*
X84371956Y36349457D01*
X84381921Y36328387D01*
X84389773Y36306443D01*
X84395437Y36283834D01*
X84398856Y36260779D01*
X84400000Y36237500D01*
X84400000Y35762500D01*
X84398856Y35739221D01*
X84395437Y35716166D01*
X84389773Y35693557D01*
X84381921Y35671613D01*
X84371956Y35650543D01*
X84359974Y35630552D01*
X84346090Y35611832D01*
X84330438Y35594562D01*
X84313168Y35578910D01*
X84294448Y35565026D01*
X84274457Y35553044D01*
X84253387Y35543079D01*
X84231443Y35535227D01*
X84208834Y35529563D01*
X84185779Y35526144D01*
X84162500Y35525000D01*
X83587500Y35525000D01*
X83564221Y35526144D01*
X83541166Y35529563D01*
X83518557Y35535227D01*
X83496613Y35543079D01*
X83475543Y35553044D01*
X83455552Y35565026D01*
X83436832Y35578910D01*
X83419562Y35594562D01*
X83403910Y35611832D01*
X83390026Y35630552D01*
X83378044Y35650543D01*
X83368079Y35671613D01*
X83360227Y35693557D01*
X83354563Y35716166D01*
X83351144Y35739221D01*
X83350000Y35762500D01*
X83350000Y36237500D01*
X83351144Y36260779D01*
X83354563Y36283834D01*
X83360227Y36306443D01*
X83368079Y36328387D01*
X83378044Y36349457D01*
X83390026Y36369448D01*
X83403910Y36388168D01*
X83419562Y36405438D01*
X83436832Y36421090D01*
X83455552Y36434974D01*
X83475543Y36446956D01*
X83496613Y36456921D01*
X83518557Y36464773D01*
X83541166Y36470437D01*
X83564221Y36473856D01*
X83587500Y36475000D01*
X84162500Y36475000D01*
X84185779Y36473856D01*
G37*
G36*
X87510779Y36523856D02*
G01*
X87533834Y36520437D01*
X87556443Y36514773D01*
X87578387Y36506921D01*
X87599457Y36496956D01*
X87619448Y36484974D01*
X87638168Y36471090D01*
X87655438Y36455438D01*
X87671090Y36438168D01*
X87684974Y36419448D01*
X87696956Y36399457D01*
X87706921Y36378387D01*
X87714773Y36356443D01*
X87720437Y36333834D01*
X87723856Y36310779D01*
X87725000Y36287500D01*
X87725000Y35712500D01*
X87723856Y35689221D01*
X87720437Y35666166D01*
X87714773Y35643557D01*
X87706921Y35621613D01*
X87696956Y35600543D01*
X87684974Y35580552D01*
X87671090Y35561832D01*
X87655438Y35544562D01*
X87638168Y35528910D01*
X87619448Y35515026D01*
X87599457Y35503044D01*
X87578387Y35493079D01*
X87556443Y35485227D01*
X87533834Y35479563D01*
X87510779Y35476144D01*
X87487500Y35475000D01*
X87012500Y35475000D01*
X86989221Y35476144D01*
X86966166Y35479563D01*
X86943557Y35485227D01*
X86921613Y35493079D01*
X86900543Y35503044D01*
X86880552Y35515026D01*
X86861832Y35528910D01*
X86844562Y35544562D01*
X86828910Y35561832D01*
X86815026Y35580552D01*
X86803044Y35600543D01*
X86793079Y35621613D01*
X86785227Y35643557D01*
X86779563Y35666166D01*
X86776144Y35689221D01*
X86775000Y35712500D01*
X86775000Y36287500D01*
X86776144Y36310779D01*
X86779563Y36333834D01*
X86785227Y36356443D01*
X86793079Y36378387D01*
X86803044Y36399457D01*
X86815026Y36419448D01*
X86828910Y36438168D01*
X86844562Y36455438D01*
X86861832Y36471090D01*
X86880552Y36484974D01*
X86900543Y36496956D01*
X86921613Y36506921D01*
X86943557Y36514773D01*
X86966166Y36520437D01*
X86989221Y36523856D01*
X87012500Y36525000D01*
X87487500Y36525000D01*
X87510779Y36523856D01*
G37*
G36*
X87510779Y34773856D02*
G01*
X87533834Y34770437D01*
X87556443Y34764773D01*
X87578387Y34756921D01*
X87599457Y34746956D01*
X87619448Y34734974D01*
X87638168Y34721090D01*
X87655438Y34705438D01*
X87671090Y34688168D01*
X87684974Y34669448D01*
X87696956Y34649457D01*
X87706921Y34628387D01*
X87714773Y34606443D01*
X87720437Y34583834D01*
X87723856Y34560779D01*
X87725000Y34537500D01*
X87725000Y33962500D01*
X87723856Y33939221D01*
X87720437Y33916166D01*
X87714773Y33893557D01*
X87706921Y33871613D01*
X87696956Y33850543D01*
X87684974Y33830552D01*
X87671090Y33811832D01*
X87655438Y33794562D01*
X87638168Y33778910D01*
X87619448Y33765026D01*
X87599457Y33753044D01*
X87578387Y33743079D01*
X87556443Y33735227D01*
X87533834Y33729563D01*
X87510779Y33726144D01*
X87487500Y33725000D01*
X87012500Y33725000D01*
X86989221Y33726144D01*
X86966166Y33729563D01*
X86943557Y33735227D01*
X86921613Y33743079D01*
X86900543Y33753044D01*
X86880552Y33765026D01*
X86861832Y33778910D01*
X86844562Y33794562D01*
X86828910Y33811832D01*
X86815026Y33830552D01*
X86803044Y33850543D01*
X86793079Y33871613D01*
X86785227Y33893557D01*
X86779563Y33916166D01*
X86776144Y33939221D01*
X86775000Y33962500D01*
X86775000Y34537500D01*
X86776144Y34560779D01*
X86779563Y34583834D01*
X86785227Y34606443D01*
X86793079Y34628387D01*
X86803044Y34649457D01*
X86815026Y34669448D01*
X86828910Y34688168D01*
X86844562Y34705438D01*
X86861832Y34721090D01*
X86880552Y34734974D01*
X86900543Y34746956D01*
X86921613Y34756921D01*
X86943557Y34764773D01*
X86966166Y34770437D01*
X86989221Y34773856D01*
X87012500Y34775000D01*
X87487500Y34775000D01*
X87510779Y34773856D01*
G37*
G36*
X88010779Y38148856D02*
G01*
X88033834Y38145437D01*
X88056443Y38139773D01*
X88078387Y38131921D01*
X88099457Y38121956D01*
X88119448Y38109974D01*
X88138168Y38096090D01*
X88155438Y38080438D01*
X88171090Y38063168D01*
X88184974Y38044448D01*
X88196956Y38024457D01*
X88206921Y38003387D01*
X88214773Y37981443D01*
X88220437Y37958834D01*
X88223856Y37935779D01*
X88225000Y37912500D01*
X88225000Y37337500D01*
X88223856Y37314221D01*
X88220437Y37291166D01*
X88214773Y37268557D01*
X88206921Y37246613D01*
X88196956Y37225543D01*
X88184974Y37205552D01*
X88171090Y37186832D01*
X88155438Y37169562D01*
X88138168Y37153910D01*
X88119448Y37140026D01*
X88099457Y37128044D01*
X88078387Y37118079D01*
X88056443Y37110227D01*
X88033834Y37104563D01*
X88010779Y37101144D01*
X87987500Y37100000D01*
X87512500Y37100000D01*
X87489221Y37101144D01*
X87466166Y37104563D01*
X87443557Y37110227D01*
X87421613Y37118079D01*
X87400543Y37128044D01*
X87380552Y37140026D01*
X87361832Y37153910D01*
X87344562Y37169562D01*
X87328910Y37186832D01*
X87315026Y37205552D01*
X87303044Y37225543D01*
X87293079Y37246613D01*
X87285227Y37268557D01*
X87279563Y37291166D01*
X87276144Y37314221D01*
X87275000Y37337500D01*
X87275000Y37912500D01*
X87276144Y37935779D01*
X87279563Y37958834D01*
X87285227Y37981443D01*
X87293079Y38003387D01*
X87303044Y38024457D01*
X87315026Y38044448D01*
X87328910Y38063168D01*
X87344562Y38080438D01*
X87361832Y38096090D01*
X87380552Y38109974D01*
X87400543Y38121956D01*
X87421613Y38131921D01*
X87443557Y38139773D01*
X87466166Y38145437D01*
X87489221Y38148856D01*
X87512500Y38150000D01*
X87987500Y38150000D01*
X88010779Y38148856D01*
G37*
G36*
X88010779Y39898856D02*
G01*
X88033834Y39895437D01*
X88056443Y39889773D01*
X88078387Y39881921D01*
X88099457Y39871956D01*
X88119448Y39859974D01*
X88138168Y39846090D01*
X88155438Y39830438D01*
X88171090Y39813168D01*
X88184974Y39794448D01*
X88196956Y39774457D01*
X88206921Y39753387D01*
X88214773Y39731443D01*
X88220437Y39708834D01*
X88223856Y39685779D01*
X88225000Y39662500D01*
X88225000Y39087500D01*
X88223856Y39064221D01*
X88220437Y39041166D01*
X88214773Y39018557D01*
X88206921Y38996613D01*
X88196956Y38975543D01*
X88184974Y38955552D01*
X88171090Y38936832D01*
X88155438Y38919562D01*
X88138168Y38903910D01*
X88119448Y38890026D01*
X88099457Y38878044D01*
X88078387Y38868079D01*
X88056443Y38860227D01*
X88033834Y38854563D01*
X88010779Y38851144D01*
X87987500Y38850000D01*
X87512500Y38850000D01*
X87489221Y38851144D01*
X87466166Y38854563D01*
X87443557Y38860227D01*
X87421613Y38868079D01*
X87400543Y38878044D01*
X87380552Y38890026D01*
X87361832Y38903910D01*
X87344562Y38919562D01*
X87328910Y38936832D01*
X87315026Y38955552D01*
X87303044Y38975543D01*
X87293079Y38996613D01*
X87285227Y39018557D01*
X87279563Y39041166D01*
X87276144Y39064221D01*
X87275000Y39087500D01*
X87275000Y39662500D01*
X87276144Y39685779D01*
X87279563Y39708834D01*
X87285227Y39731443D01*
X87293079Y39753387D01*
X87303044Y39774457D01*
X87315026Y39794448D01*
X87328910Y39813168D01*
X87344562Y39830438D01*
X87361832Y39846090D01*
X87380552Y39859974D01*
X87400543Y39871956D01*
X87421613Y39881921D01*
X87443557Y39889773D01*
X87466166Y39895437D01*
X87489221Y39898856D01*
X87512500Y39900000D01*
X87987500Y39900000D01*
X88010779Y39898856D01*
G37*
G36*
X87510779Y17273856D02*
G01*
X87533834Y17270437D01*
X87556443Y17264773D01*
X87578387Y17256921D01*
X87599457Y17246956D01*
X87619448Y17234974D01*
X87638168Y17221090D01*
X87655438Y17205438D01*
X87671090Y17188168D01*
X87684974Y17169448D01*
X87696956Y17149457D01*
X87706921Y17128387D01*
X87714773Y17106443D01*
X87720437Y17083834D01*
X87723856Y17060779D01*
X87725000Y17037500D01*
X87725000Y16462500D01*
X87723856Y16439221D01*
X87720437Y16416166D01*
X87714773Y16393557D01*
X87706921Y16371613D01*
X87696956Y16350543D01*
X87684974Y16330552D01*
X87671090Y16311832D01*
X87655438Y16294562D01*
X87638168Y16278910D01*
X87619448Y16265026D01*
X87599457Y16253044D01*
X87578387Y16243079D01*
X87556443Y16235227D01*
X87533834Y16229563D01*
X87510779Y16226144D01*
X87487500Y16225000D01*
X87012500Y16225000D01*
X86989221Y16226144D01*
X86966166Y16229563D01*
X86943557Y16235227D01*
X86921613Y16243079D01*
X86900543Y16253044D01*
X86880552Y16265026D01*
X86861832Y16278910D01*
X86844562Y16294562D01*
X86828910Y16311832D01*
X86815026Y16330552D01*
X86803044Y16350543D01*
X86793079Y16371613D01*
X86785227Y16393557D01*
X86779563Y16416166D01*
X86776144Y16439221D01*
X86775000Y16462500D01*
X86775000Y17037500D01*
X86776144Y17060779D01*
X86779563Y17083834D01*
X86785227Y17106443D01*
X86793079Y17128387D01*
X86803044Y17149457D01*
X86815026Y17169448D01*
X86828910Y17188168D01*
X86844562Y17205438D01*
X86861832Y17221090D01*
X86880552Y17234974D01*
X86900543Y17246956D01*
X86921613Y17256921D01*
X86943557Y17264773D01*
X86966166Y17270437D01*
X86989221Y17273856D01*
X87012500Y17275000D01*
X87487500Y17275000D01*
X87510779Y17273856D01*
G37*
G36*
X87510779Y15523856D02*
G01*
X87533834Y15520437D01*
X87556443Y15514773D01*
X87578387Y15506921D01*
X87599457Y15496956D01*
X87619448Y15484974D01*
X87638168Y15471090D01*
X87655438Y15455438D01*
X87671090Y15438168D01*
X87684974Y15419448D01*
X87696956Y15399457D01*
X87706921Y15378387D01*
X87714773Y15356443D01*
X87720437Y15333834D01*
X87723856Y15310779D01*
X87725000Y15287500D01*
X87725000Y14712500D01*
X87723856Y14689221D01*
X87720437Y14666166D01*
X87714773Y14643557D01*
X87706921Y14621613D01*
X87696956Y14600543D01*
X87684974Y14580552D01*
X87671090Y14561832D01*
X87655438Y14544562D01*
X87638168Y14528910D01*
X87619448Y14515026D01*
X87599457Y14503044D01*
X87578387Y14493079D01*
X87556443Y14485227D01*
X87533834Y14479563D01*
X87510779Y14476144D01*
X87487500Y14475000D01*
X87012500Y14475000D01*
X86989221Y14476144D01*
X86966166Y14479563D01*
X86943557Y14485227D01*
X86921613Y14493079D01*
X86900543Y14503044D01*
X86880552Y14515026D01*
X86861832Y14528910D01*
X86844562Y14544562D01*
X86828910Y14561832D01*
X86815026Y14580552D01*
X86803044Y14600543D01*
X86793079Y14621613D01*
X86785227Y14643557D01*
X86779563Y14666166D01*
X86776144Y14689221D01*
X86775000Y14712500D01*
X86775000Y15287500D01*
X86776144Y15310779D01*
X86779563Y15333834D01*
X86785227Y15356443D01*
X86793079Y15378387D01*
X86803044Y15399457D01*
X86815026Y15419448D01*
X86828910Y15438168D01*
X86844562Y15455438D01*
X86861832Y15471090D01*
X86880552Y15484974D01*
X86900543Y15496956D01*
X86921613Y15506921D01*
X86943557Y15514773D01*
X86966166Y15520437D01*
X86989221Y15523856D01*
X87012500Y15525000D01*
X87487500Y15525000D01*
X87510779Y15523856D01*
G37*
G36*
X80510779Y25553856D02*
G01*
X80533834Y25550437D01*
X80556443Y25544773D01*
X80578387Y25536921D01*
X80599457Y25526956D01*
X80619448Y25514974D01*
X80638168Y25501090D01*
X80655438Y25485438D01*
X80671090Y25468168D01*
X80684974Y25449448D01*
X80696956Y25429457D01*
X80706921Y25408387D01*
X80714773Y25386443D01*
X80720437Y25363834D01*
X80723856Y25340779D01*
X80725000Y25317500D01*
X80725000Y24742500D01*
X80723856Y24719221D01*
X80720437Y24696166D01*
X80714773Y24673557D01*
X80706921Y24651613D01*
X80696956Y24630543D01*
X80684974Y24610552D01*
X80671090Y24591832D01*
X80655438Y24574562D01*
X80638168Y24558910D01*
X80619448Y24545026D01*
X80599457Y24533044D01*
X80578387Y24523079D01*
X80556443Y24515227D01*
X80533834Y24509563D01*
X80510779Y24506144D01*
X80487500Y24505000D01*
X80012500Y24505000D01*
X79989221Y24506144D01*
X79966166Y24509563D01*
X79943557Y24515227D01*
X79921613Y24523079D01*
X79900543Y24533044D01*
X79880552Y24545026D01*
X79861832Y24558910D01*
X79844562Y24574562D01*
X79828910Y24591832D01*
X79815026Y24610552D01*
X79803044Y24630543D01*
X79793079Y24651613D01*
X79785227Y24673557D01*
X79779563Y24696166D01*
X79776144Y24719221D01*
X79775000Y24742500D01*
X79775000Y25317500D01*
X79776144Y25340779D01*
X79779563Y25363834D01*
X79785227Y25386443D01*
X79793079Y25408387D01*
X79803044Y25429457D01*
X79815026Y25449448D01*
X79828910Y25468168D01*
X79844562Y25485438D01*
X79861832Y25501090D01*
X79880552Y25514974D01*
X79900543Y25526956D01*
X79921613Y25536921D01*
X79943557Y25544773D01*
X79966166Y25550437D01*
X79989221Y25553856D01*
X80012500Y25555000D01*
X80487500Y25555000D01*
X80510779Y25553856D01*
G37*
G36*
X80510779Y23803856D02*
G01*
X80533834Y23800437D01*
X80556443Y23794773D01*
X80578387Y23786921D01*
X80599457Y23776956D01*
X80619448Y23764974D01*
X80638168Y23751090D01*
X80655438Y23735438D01*
X80671090Y23718168D01*
X80684974Y23699448D01*
X80696956Y23679457D01*
X80706921Y23658387D01*
X80714773Y23636443D01*
X80720437Y23613834D01*
X80723856Y23590779D01*
X80725000Y23567500D01*
X80725000Y22992500D01*
X80723856Y22969221D01*
X80720437Y22946166D01*
X80714773Y22923557D01*
X80706921Y22901613D01*
X80696956Y22880543D01*
X80684974Y22860552D01*
X80671090Y22841832D01*
X80655438Y22824562D01*
X80638168Y22808910D01*
X80619448Y22795026D01*
X80599457Y22783044D01*
X80578387Y22773079D01*
X80556443Y22765227D01*
X80533834Y22759563D01*
X80510779Y22756144D01*
X80487500Y22755000D01*
X80012500Y22755000D01*
X79989221Y22756144D01*
X79966166Y22759563D01*
X79943557Y22765227D01*
X79921613Y22773079D01*
X79900543Y22783044D01*
X79880552Y22795026D01*
X79861832Y22808910D01*
X79844562Y22824562D01*
X79828910Y22841832D01*
X79815026Y22860552D01*
X79803044Y22880543D01*
X79793079Y22901613D01*
X79785227Y22923557D01*
X79779563Y22946166D01*
X79776144Y22969221D01*
X79775000Y22992500D01*
X79775000Y23567500D01*
X79776144Y23590779D01*
X79779563Y23613834D01*
X79785227Y23636443D01*
X79793079Y23658387D01*
X79803044Y23679457D01*
X79815026Y23699448D01*
X79828910Y23718168D01*
X79844562Y23735438D01*
X79861832Y23751090D01*
X79880552Y23764974D01*
X79900543Y23776956D01*
X79921613Y23786921D01*
X79943557Y23794773D01*
X79966166Y23800437D01*
X79989221Y23803856D01*
X80012500Y23805000D01*
X80487500Y23805000D01*
X80510779Y23803856D01*
G37*
G36*
X80510779Y32273856D02*
G01*
X80533834Y32270437D01*
X80556443Y32264773D01*
X80578387Y32256921D01*
X80599457Y32246956D01*
X80619448Y32234974D01*
X80638168Y32221090D01*
X80655438Y32205438D01*
X80671090Y32188168D01*
X80684974Y32169448D01*
X80696956Y32149457D01*
X80706921Y32128387D01*
X80714773Y32106443D01*
X80720437Y32083834D01*
X80723856Y32060779D01*
X80725000Y32037500D01*
X80725000Y31462500D01*
X80723856Y31439221D01*
X80720437Y31416166D01*
X80714773Y31393557D01*
X80706921Y31371613D01*
X80696956Y31350543D01*
X80684974Y31330552D01*
X80671090Y31311832D01*
X80655438Y31294562D01*
X80638168Y31278910D01*
X80619448Y31265026D01*
X80599457Y31253044D01*
X80578387Y31243079D01*
X80556443Y31235227D01*
X80533834Y31229563D01*
X80510779Y31226144D01*
X80487500Y31225000D01*
X80012500Y31225000D01*
X79989221Y31226144D01*
X79966166Y31229563D01*
X79943557Y31235227D01*
X79921613Y31243079D01*
X79900543Y31253044D01*
X79880552Y31265026D01*
X79861832Y31278910D01*
X79844562Y31294562D01*
X79828910Y31311832D01*
X79815026Y31330552D01*
X79803044Y31350543D01*
X79793079Y31371613D01*
X79785227Y31393557D01*
X79779563Y31416166D01*
X79776144Y31439221D01*
X79775000Y31462500D01*
X79775000Y32037500D01*
X79776144Y32060779D01*
X79779563Y32083834D01*
X79785227Y32106443D01*
X79793079Y32128387D01*
X79803044Y32149457D01*
X79815026Y32169448D01*
X79828910Y32188168D01*
X79844562Y32205438D01*
X79861832Y32221090D01*
X79880552Y32234974D01*
X79900543Y32246956D01*
X79921613Y32256921D01*
X79943557Y32264773D01*
X79966166Y32270437D01*
X79989221Y32273856D01*
X80012500Y32275000D01*
X80487500Y32275000D01*
X80510779Y32273856D01*
G37*
G36*
X80510779Y30523856D02*
G01*
X80533834Y30520437D01*
X80556443Y30514773D01*
X80578387Y30506921D01*
X80599457Y30496956D01*
X80619448Y30484974D01*
X80638168Y30471090D01*
X80655438Y30455438D01*
X80671090Y30438168D01*
X80684974Y30419448D01*
X80696956Y30399457D01*
X80706921Y30378387D01*
X80714773Y30356443D01*
X80720437Y30333834D01*
X80723856Y30310779D01*
X80725000Y30287500D01*
X80725000Y29712500D01*
X80723856Y29689221D01*
X80720437Y29666166D01*
X80714773Y29643557D01*
X80706921Y29621613D01*
X80696956Y29600543D01*
X80684974Y29580552D01*
X80671090Y29561832D01*
X80655438Y29544562D01*
X80638168Y29528910D01*
X80619448Y29515026D01*
X80599457Y29503044D01*
X80578387Y29493079D01*
X80556443Y29485227D01*
X80533834Y29479563D01*
X80510779Y29476144D01*
X80487500Y29475000D01*
X80012500Y29475000D01*
X79989221Y29476144D01*
X79966166Y29479563D01*
X79943557Y29485227D01*
X79921613Y29493079D01*
X79900543Y29503044D01*
X79880552Y29515026D01*
X79861832Y29528910D01*
X79844562Y29544562D01*
X79828910Y29561832D01*
X79815026Y29580552D01*
X79803044Y29600543D01*
X79793079Y29621613D01*
X79785227Y29643557D01*
X79779563Y29666166D01*
X79776144Y29689221D01*
X79775000Y29712500D01*
X79775000Y30287500D01*
X79776144Y30310779D01*
X79779563Y30333834D01*
X79785227Y30356443D01*
X79793079Y30378387D01*
X79803044Y30399457D01*
X79815026Y30419448D01*
X79828910Y30438168D01*
X79844562Y30455438D01*
X79861832Y30471090D01*
X79880552Y30484974D01*
X79900543Y30496956D01*
X79921613Y30506921D01*
X79943557Y30514773D01*
X79966166Y30520437D01*
X79989221Y30523856D01*
X80012500Y30525000D01*
X80487500Y30525000D01*
X80510779Y30523856D01*
G37*
G36*
X89010779Y17273856D02*
G01*
X89033834Y17270437D01*
X89056443Y17264773D01*
X89078387Y17256921D01*
X89099457Y17246956D01*
X89119448Y17234974D01*
X89138168Y17221090D01*
X89155438Y17205438D01*
X89171090Y17188168D01*
X89184974Y17169448D01*
X89196956Y17149457D01*
X89206921Y17128387D01*
X89214773Y17106443D01*
X89220437Y17083834D01*
X89223856Y17060779D01*
X89225000Y17037500D01*
X89225000Y16462500D01*
X89223856Y16439221D01*
X89220437Y16416166D01*
X89214773Y16393557D01*
X89206921Y16371613D01*
X89196956Y16350543D01*
X89184974Y16330552D01*
X89171090Y16311832D01*
X89155438Y16294562D01*
X89138168Y16278910D01*
X89119448Y16265026D01*
X89099457Y16253044D01*
X89078387Y16243079D01*
X89056443Y16235227D01*
X89033834Y16229563D01*
X89010779Y16226144D01*
X88987500Y16225000D01*
X88512500Y16225000D01*
X88489221Y16226144D01*
X88466166Y16229563D01*
X88443557Y16235227D01*
X88421613Y16243079D01*
X88400543Y16253044D01*
X88380552Y16265026D01*
X88361832Y16278910D01*
X88344562Y16294562D01*
X88328910Y16311832D01*
X88315026Y16330552D01*
X88303044Y16350543D01*
X88293079Y16371613D01*
X88285227Y16393557D01*
X88279563Y16416166D01*
X88276144Y16439221D01*
X88275000Y16462500D01*
X88275000Y17037500D01*
X88276144Y17060779D01*
X88279563Y17083834D01*
X88285227Y17106443D01*
X88293079Y17128387D01*
X88303044Y17149457D01*
X88315026Y17169448D01*
X88328910Y17188168D01*
X88344562Y17205438D01*
X88361832Y17221090D01*
X88380552Y17234974D01*
X88400543Y17246956D01*
X88421613Y17256921D01*
X88443557Y17264773D01*
X88466166Y17270437D01*
X88489221Y17273856D01*
X88512500Y17275000D01*
X88987500Y17275000D01*
X89010779Y17273856D01*
G37*
G36*
X89010779Y15523856D02*
G01*
X89033834Y15520437D01*
X89056443Y15514773D01*
X89078387Y15506921D01*
X89099457Y15496956D01*
X89119448Y15484974D01*
X89138168Y15471090D01*
X89155438Y15455438D01*
X89171090Y15438168D01*
X89184974Y15419448D01*
X89196956Y15399457D01*
X89206921Y15378387D01*
X89214773Y15356443D01*
X89220437Y15333834D01*
X89223856Y15310779D01*
X89225000Y15287500D01*
X89225000Y14712500D01*
X89223856Y14689221D01*
X89220437Y14666166D01*
X89214773Y14643557D01*
X89206921Y14621613D01*
X89196956Y14600543D01*
X89184974Y14580552D01*
X89171090Y14561832D01*
X89155438Y14544562D01*
X89138168Y14528910D01*
X89119448Y14515026D01*
X89099457Y14503044D01*
X89078387Y14493079D01*
X89056443Y14485227D01*
X89033834Y14479563D01*
X89010779Y14476144D01*
X88987500Y14475000D01*
X88512500Y14475000D01*
X88489221Y14476144D01*
X88466166Y14479563D01*
X88443557Y14485227D01*
X88421613Y14493079D01*
X88400543Y14503044D01*
X88380552Y14515026D01*
X88361832Y14528910D01*
X88344562Y14544562D01*
X88328910Y14561832D01*
X88315026Y14580552D01*
X88303044Y14600543D01*
X88293079Y14621613D01*
X88285227Y14643557D01*
X88279563Y14666166D01*
X88276144Y14689221D01*
X88275000Y14712500D01*
X88275000Y15287500D01*
X88276144Y15310779D01*
X88279563Y15333834D01*
X88285227Y15356443D01*
X88293079Y15378387D01*
X88303044Y15399457D01*
X88315026Y15419448D01*
X88328910Y15438168D01*
X88344562Y15455438D01*
X88361832Y15471090D01*
X88380552Y15484974D01*
X88400543Y15496956D01*
X88421613Y15506921D01*
X88443557Y15514773D01*
X88466166Y15520437D01*
X88489221Y15523856D01*
X88512500Y15525000D01*
X88987500Y15525000D01*
X89010779Y15523856D01*
G37*
G36*
X90935779Y19473856D02*
G01*
X90958834Y19470437D01*
X90981443Y19464773D01*
X91003387Y19456921D01*
X91024457Y19446956D01*
X91044448Y19434974D01*
X91063168Y19421090D01*
X91080438Y19405438D01*
X91096090Y19388168D01*
X91109974Y19369448D01*
X91121956Y19349457D01*
X91131921Y19328387D01*
X91139773Y19306443D01*
X91145437Y19283834D01*
X91148856Y19260779D01*
X91150000Y19237500D01*
X91150000Y18762500D01*
X91148856Y18739221D01*
X91145437Y18716166D01*
X91139773Y18693557D01*
X91131921Y18671613D01*
X91121956Y18650543D01*
X91109974Y18630552D01*
X91096090Y18611832D01*
X91080438Y18594562D01*
X91063168Y18578910D01*
X91044448Y18565026D01*
X91024457Y18553044D01*
X91003387Y18543079D01*
X90981443Y18535227D01*
X90958834Y18529563D01*
X90935779Y18526144D01*
X90912500Y18525000D01*
X90337500Y18525000D01*
X90314221Y18526144D01*
X90291166Y18529563D01*
X90268557Y18535227D01*
X90246613Y18543079D01*
X90225543Y18553044D01*
X90205552Y18565026D01*
X90186832Y18578910D01*
X90169562Y18594562D01*
X90153910Y18611832D01*
X90140026Y18630552D01*
X90128044Y18650543D01*
X90118079Y18671613D01*
X90110227Y18693557D01*
X90104563Y18716166D01*
X90101144Y18739221D01*
X90100000Y18762500D01*
X90100000Y19237500D01*
X90101144Y19260779D01*
X90104563Y19283834D01*
X90110227Y19306443D01*
X90118079Y19328387D01*
X90128044Y19349457D01*
X90140026Y19369448D01*
X90153910Y19388168D01*
X90169562Y19405438D01*
X90186832Y19421090D01*
X90205552Y19434974D01*
X90225543Y19446956D01*
X90246613Y19456921D01*
X90268557Y19464773D01*
X90291166Y19470437D01*
X90314221Y19473856D01*
X90337500Y19475000D01*
X90912500Y19475000D01*
X90935779Y19473856D01*
G37*
G36*
X89185779Y19473856D02*
G01*
X89208834Y19470437D01*
X89231443Y19464773D01*
X89253387Y19456921D01*
X89274457Y19446956D01*
X89294448Y19434974D01*
X89313168Y19421090D01*
X89330438Y19405438D01*
X89346090Y19388168D01*
X89359974Y19369448D01*
X89371956Y19349457D01*
X89381921Y19328387D01*
X89389773Y19306443D01*
X89395437Y19283834D01*
X89398856Y19260779D01*
X89400000Y19237500D01*
X89400000Y18762500D01*
X89398856Y18739221D01*
X89395437Y18716166D01*
X89389773Y18693557D01*
X89381921Y18671613D01*
X89371956Y18650543D01*
X89359974Y18630552D01*
X89346090Y18611832D01*
X89330438Y18594562D01*
X89313168Y18578910D01*
X89294448Y18565026D01*
X89274457Y18553044D01*
X89253387Y18543079D01*
X89231443Y18535227D01*
X89208834Y18529563D01*
X89185779Y18526144D01*
X89162500Y18525000D01*
X88587500Y18525000D01*
X88564221Y18526144D01*
X88541166Y18529563D01*
X88518557Y18535227D01*
X88496613Y18543079D01*
X88475543Y18553044D01*
X88455552Y18565026D01*
X88436832Y18578910D01*
X88419562Y18594562D01*
X88403910Y18611832D01*
X88390026Y18630552D01*
X88378044Y18650543D01*
X88368079Y18671613D01*
X88360227Y18693557D01*
X88354563Y18716166D01*
X88351144Y18739221D01*
X88350000Y18762500D01*
X88350000Y19237500D01*
X88351144Y19260779D01*
X88354563Y19283834D01*
X88360227Y19306443D01*
X88368079Y19328387D01*
X88378044Y19349457D01*
X88390026Y19369448D01*
X88403910Y19388168D01*
X88419562Y19405438D01*
X88436832Y19421090D01*
X88455552Y19434974D01*
X88475543Y19446956D01*
X88496613Y19456921D01*
X88518557Y19464773D01*
X88541166Y19470437D01*
X88564221Y19473856D01*
X88587500Y19475000D01*
X89162500Y19475000D01*
X89185779Y19473856D01*
G37*
G36*
X74010779Y22273856D02*
G01*
X74033834Y22270437D01*
X74056443Y22264773D01*
X74078387Y22256921D01*
X74099457Y22246956D01*
X74119448Y22234974D01*
X74138168Y22221090D01*
X74155438Y22205438D01*
X74171090Y22188168D01*
X74184974Y22169448D01*
X74196956Y22149457D01*
X74206921Y22128387D01*
X74214773Y22106443D01*
X74220437Y22083834D01*
X74223856Y22060779D01*
X74225000Y22037500D01*
X74225000Y21462500D01*
X74223856Y21439221D01*
X74220437Y21416166D01*
X74214773Y21393557D01*
X74206921Y21371613D01*
X74196956Y21350543D01*
X74184974Y21330552D01*
X74171090Y21311832D01*
X74155438Y21294562D01*
X74138168Y21278910D01*
X74119448Y21265026D01*
X74099457Y21253044D01*
X74078387Y21243079D01*
X74056443Y21235227D01*
X74033834Y21229563D01*
X74010779Y21226144D01*
X73987500Y21225000D01*
X73512500Y21225000D01*
X73489221Y21226144D01*
X73466166Y21229563D01*
X73443557Y21235227D01*
X73421613Y21243079D01*
X73400543Y21253044D01*
X73380552Y21265026D01*
X73361832Y21278910D01*
X73344562Y21294562D01*
X73328910Y21311832D01*
X73315026Y21330552D01*
X73303044Y21350543D01*
X73293079Y21371613D01*
X73285227Y21393557D01*
X73279563Y21416166D01*
X73276144Y21439221D01*
X73275000Y21462500D01*
X73275000Y22037500D01*
X73276144Y22060779D01*
X73279563Y22083834D01*
X73285227Y22106443D01*
X73293079Y22128387D01*
X73303044Y22149457D01*
X73315026Y22169448D01*
X73328910Y22188168D01*
X73344562Y22205438D01*
X73361832Y22221090D01*
X73380552Y22234974D01*
X73400543Y22246956D01*
X73421613Y22256921D01*
X73443557Y22264773D01*
X73466166Y22270437D01*
X73489221Y22273856D01*
X73512500Y22275000D01*
X73987500Y22275000D01*
X74010779Y22273856D01*
G37*
G36*
X74010779Y20523856D02*
G01*
X74033834Y20520437D01*
X74056443Y20514773D01*
X74078387Y20506921D01*
X74099457Y20496956D01*
X74119448Y20484974D01*
X74138168Y20471090D01*
X74155438Y20455438D01*
X74171090Y20438168D01*
X74184974Y20419448D01*
X74196956Y20399457D01*
X74206921Y20378387D01*
X74214773Y20356443D01*
X74220437Y20333834D01*
X74223856Y20310779D01*
X74225000Y20287500D01*
X74225000Y19712500D01*
X74223856Y19689221D01*
X74220437Y19666166D01*
X74214773Y19643557D01*
X74206921Y19621613D01*
X74196956Y19600543D01*
X74184974Y19580552D01*
X74171090Y19561832D01*
X74155438Y19544562D01*
X74138168Y19528910D01*
X74119448Y19515026D01*
X74099457Y19503044D01*
X74078387Y19493079D01*
X74056443Y19485227D01*
X74033834Y19479563D01*
X74010779Y19476144D01*
X73987500Y19475000D01*
X73512500Y19475000D01*
X73489221Y19476144D01*
X73466166Y19479563D01*
X73443557Y19485227D01*
X73421613Y19493079D01*
X73400543Y19503044D01*
X73380552Y19515026D01*
X73361832Y19528910D01*
X73344562Y19544562D01*
X73328910Y19561832D01*
X73315026Y19580552D01*
X73303044Y19600543D01*
X73293079Y19621613D01*
X73285227Y19643557D01*
X73279563Y19666166D01*
X73276144Y19689221D01*
X73275000Y19712500D01*
X73275000Y20287500D01*
X73276144Y20310779D01*
X73279563Y20333834D01*
X73285227Y20356443D01*
X73293079Y20378387D01*
X73303044Y20399457D01*
X73315026Y20419448D01*
X73328910Y20438168D01*
X73344562Y20455438D01*
X73361832Y20471090D01*
X73380552Y20484974D01*
X73400543Y20496956D01*
X73421613Y20506921D01*
X73443557Y20514773D01*
X73466166Y20520437D01*
X73489221Y20523856D01*
X73512500Y20525000D01*
X73987500Y20525000D01*
X74010779Y20523856D01*
G37*
G36*
X96010779Y17273856D02*
G01*
X96033834Y17270437D01*
X96056443Y17264773D01*
X96078387Y17256921D01*
X96099457Y17246956D01*
X96119448Y17234974D01*
X96138168Y17221090D01*
X96155438Y17205438D01*
X96171090Y17188168D01*
X96184974Y17169448D01*
X96196956Y17149457D01*
X96206921Y17128387D01*
X96214773Y17106443D01*
X96220437Y17083834D01*
X96223856Y17060779D01*
X96225000Y17037500D01*
X96225000Y16462500D01*
X96223856Y16439221D01*
X96220437Y16416166D01*
X96214773Y16393557D01*
X96206921Y16371613D01*
X96196956Y16350543D01*
X96184974Y16330552D01*
X96171090Y16311832D01*
X96155438Y16294562D01*
X96138168Y16278910D01*
X96119448Y16265026D01*
X96099457Y16253044D01*
X96078387Y16243079D01*
X96056443Y16235227D01*
X96033834Y16229563D01*
X96010779Y16226144D01*
X95987500Y16225000D01*
X95512500Y16225000D01*
X95489221Y16226144D01*
X95466166Y16229563D01*
X95443557Y16235227D01*
X95421613Y16243079D01*
X95400543Y16253044D01*
X95380552Y16265026D01*
X95361832Y16278910D01*
X95344562Y16294562D01*
X95328910Y16311832D01*
X95315026Y16330552D01*
X95303044Y16350543D01*
X95293079Y16371613D01*
X95285227Y16393557D01*
X95279563Y16416166D01*
X95276144Y16439221D01*
X95275000Y16462500D01*
X95275000Y17037500D01*
X95276144Y17060779D01*
X95279563Y17083834D01*
X95285227Y17106443D01*
X95293079Y17128387D01*
X95303044Y17149457D01*
X95315026Y17169448D01*
X95328910Y17188168D01*
X95344562Y17205438D01*
X95361832Y17221090D01*
X95380552Y17234974D01*
X95400543Y17246956D01*
X95421613Y17256921D01*
X95443557Y17264773D01*
X95466166Y17270437D01*
X95489221Y17273856D01*
X95512500Y17275000D01*
X95987500Y17275000D01*
X96010779Y17273856D01*
G37*
G36*
X96010779Y15523856D02*
G01*
X96033834Y15520437D01*
X96056443Y15514773D01*
X96078387Y15506921D01*
X96099457Y15496956D01*
X96119448Y15484974D01*
X96138168Y15471090D01*
X96155438Y15455438D01*
X96171090Y15438168D01*
X96184974Y15419448D01*
X96196956Y15399457D01*
X96206921Y15378387D01*
X96214773Y15356443D01*
X96220437Y15333834D01*
X96223856Y15310779D01*
X96225000Y15287500D01*
X96225000Y14712500D01*
X96223856Y14689221D01*
X96220437Y14666166D01*
X96214773Y14643557D01*
X96206921Y14621613D01*
X96196956Y14600543D01*
X96184974Y14580552D01*
X96171090Y14561832D01*
X96155438Y14544562D01*
X96138168Y14528910D01*
X96119448Y14515026D01*
X96099457Y14503044D01*
X96078387Y14493079D01*
X96056443Y14485227D01*
X96033834Y14479563D01*
X96010779Y14476144D01*
X95987500Y14475000D01*
X95512500Y14475000D01*
X95489221Y14476144D01*
X95466166Y14479563D01*
X95443557Y14485227D01*
X95421613Y14493079D01*
X95400543Y14503044D01*
X95380552Y14515026D01*
X95361832Y14528910D01*
X95344562Y14544562D01*
X95328910Y14561832D01*
X95315026Y14580552D01*
X95303044Y14600543D01*
X95293079Y14621613D01*
X95285227Y14643557D01*
X95279563Y14666166D01*
X95276144Y14689221D01*
X95275000Y14712500D01*
X95275000Y15287500D01*
X95276144Y15310779D01*
X95279563Y15333834D01*
X95285227Y15356443D01*
X95293079Y15378387D01*
X95303044Y15399457D01*
X95315026Y15419448D01*
X95328910Y15438168D01*
X95344562Y15455438D01*
X95361832Y15471090D01*
X95380552Y15484974D01*
X95400543Y15496956D01*
X95421613Y15506921D01*
X95443557Y15514773D01*
X95466166Y15520437D01*
X95489221Y15523856D01*
X95512500Y15525000D01*
X95987500Y15525000D01*
X96010779Y15523856D01*
G37*
G36*
X97510779Y17273856D02*
G01*
X97533834Y17270437D01*
X97556443Y17264773D01*
X97578387Y17256921D01*
X97599457Y17246956D01*
X97619448Y17234974D01*
X97638168Y17221090D01*
X97655438Y17205438D01*
X97671090Y17188168D01*
X97684974Y17169448D01*
X97696956Y17149457D01*
X97706921Y17128387D01*
X97714773Y17106443D01*
X97720437Y17083834D01*
X97723856Y17060779D01*
X97725000Y17037500D01*
X97725000Y16462500D01*
X97723856Y16439221D01*
X97720437Y16416166D01*
X97714773Y16393557D01*
X97706921Y16371613D01*
X97696956Y16350543D01*
X97684974Y16330552D01*
X97671090Y16311832D01*
X97655438Y16294562D01*
X97638168Y16278910D01*
X97619448Y16265026D01*
X97599457Y16253044D01*
X97578387Y16243079D01*
X97556443Y16235227D01*
X97533834Y16229563D01*
X97510779Y16226144D01*
X97487500Y16225000D01*
X97012500Y16225000D01*
X96989221Y16226144D01*
X96966166Y16229563D01*
X96943557Y16235227D01*
X96921613Y16243079D01*
X96900543Y16253044D01*
X96880552Y16265026D01*
X96861832Y16278910D01*
X96844562Y16294562D01*
X96828910Y16311832D01*
X96815026Y16330552D01*
X96803044Y16350543D01*
X96793079Y16371613D01*
X96785227Y16393557D01*
X96779563Y16416166D01*
X96776144Y16439221D01*
X96775000Y16462500D01*
X96775000Y17037500D01*
X96776144Y17060779D01*
X96779563Y17083834D01*
X96785227Y17106443D01*
X96793079Y17128387D01*
X96803044Y17149457D01*
X96815026Y17169448D01*
X96828910Y17188168D01*
X96844562Y17205438D01*
X96861832Y17221090D01*
X96880552Y17234974D01*
X96900543Y17246956D01*
X96921613Y17256921D01*
X96943557Y17264773D01*
X96966166Y17270437D01*
X96989221Y17273856D01*
X97012500Y17275000D01*
X97487500Y17275000D01*
X97510779Y17273856D01*
G37*
G36*
X97510779Y15523856D02*
G01*
X97533834Y15520437D01*
X97556443Y15514773D01*
X97578387Y15506921D01*
X97599457Y15496956D01*
X97619448Y15484974D01*
X97638168Y15471090D01*
X97655438Y15455438D01*
X97671090Y15438168D01*
X97684974Y15419448D01*
X97696956Y15399457D01*
X97706921Y15378387D01*
X97714773Y15356443D01*
X97720437Y15333834D01*
X97723856Y15310779D01*
X97725000Y15287500D01*
X97725000Y14712500D01*
X97723856Y14689221D01*
X97720437Y14666166D01*
X97714773Y14643557D01*
X97706921Y14621613D01*
X97696956Y14600543D01*
X97684974Y14580552D01*
X97671090Y14561832D01*
X97655438Y14544562D01*
X97638168Y14528910D01*
X97619448Y14515026D01*
X97599457Y14503044D01*
X97578387Y14493079D01*
X97556443Y14485227D01*
X97533834Y14479563D01*
X97510779Y14476144D01*
X97487500Y14475000D01*
X97012500Y14475000D01*
X96989221Y14476144D01*
X96966166Y14479563D01*
X96943557Y14485227D01*
X96921613Y14493079D01*
X96900543Y14503044D01*
X96880552Y14515026D01*
X96861832Y14528910D01*
X96844562Y14544562D01*
X96828910Y14561832D01*
X96815026Y14580552D01*
X96803044Y14600543D01*
X96793079Y14621613D01*
X96785227Y14643557D01*
X96779563Y14666166D01*
X96776144Y14689221D01*
X96775000Y14712500D01*
X96775000Y15287500D01*
X96776144Y15310779D01*
X96779563Y15333834D01*
X96785227Y15356443D01*
X96793079Y15378387D01*
X96803044Y15399457D01*
X96815026Y15419448D01*
X96828910Y15438168D01*
X96844562Y15455438D01*
X96861832Y15471090D01*
X96880552Y15484974D01*
X96900543Y15496956D01*
X96921613Y15506921D01*
X96943557Y15514773D01*
X96966166Y15520437D01*
X96989221Y15523856D01*
X97012500Y15525000D01*
X97487500Y15525000D01*
X97510779Y15523856D01*
G37*
G36*
X71760779Y30648856D02*
G01*
X71783834Y30645437D01*
X71806443Y30639773D01*
X71828387Y30631921D01*
X71849457Y30621956D01*
X71869448Y30609974D01*
X71888168Y30596090D01*
X71905438Y30580438D01*
X71921090Y30563168D01*
X71934974Y30544448D01*
X71946956Y30524457D01*
X71956921Y30503387D01*
X71964773Y30481443D01*
X71970437Y30458834D01*
X71973856Y30435779D01*
X71975000Y30412500D01*
X71975000Y29837500D01*
X71973856Y29814221D01*
X71970437Y29791166D01*
X71964773Y29768557D01*
X71956921Y29746613D01*
X71946956Y29725543D01*
X71934974Y29705552D01*
X71921090Y29686832D01*
X71905438Y29669562D01*
X71888168Y29653910D01*
X71869448Y29640026D01*
X71849457Y29628044D01*
X71828387Y29618079D01*
X71806443Y29610227D01*
X71783834Y29604563D01*
X71760779Y29601144D01*
X71737500Y29600000D01*
X71262500Y29600000D01*
X71239221Y29601144D01*
X71216166Y29604563D01*
X71193557Y29610227D01*
X71171613Y29618079D01*
X71150543Y29628044D01*
X71130552Y29640026D01*
X71111832Y29653910D01*
X71094562Y29669562D01*
X71078910Y29686832D01*
X71065026Y29705552D01*
X71053044Y29725543D01*
X71043079Y29746613D01*
X71035227Y29768557D01*
X71029563Y29791166D01*
X71026144Y29814221D01*
X71025000Y29837500D01*
X71025000Y30412500D01*
X71026144Y30435779D01*
X71029563Y30458834D01*
X71035227Y30481443D01*
X71043079Y30503387D01*
X71053044Y30524457D01*
X71065026Y30544448D01*
X71078910Y30563168D01*
X71094562Y30580438D01*
X71111832Y30596090D01*
X71130552Y30609974D01*
X71150543Y30621956D01*
X71171613Y30631921D01*
X71193557Y30639773D01*
X71216166Y30645437D01*
X71239221Y30648856D01*
X71262500Y30650000D01*
X71737500Y30650000D01*
X71760779Y30648856D01*
G37*
G36*
X71760779Y28898856D02*
G01*
X71783834Y28895437D01*
X71806443Y28889773D01*
X71828387Y28881921D01*
X71849457Y28871956D01*
X71869448Y28859974D01*
X71888168Y28846090D01*
X71905438Y28830438D01*
X71921090Y28813168D01*
X71934974Y28794448D01*
X71946956Y28774457D01*
X71956921Y28753387D01*
X71964773Y28731443D01*
X71970437Y28708834D01*
X71973856Y28685779D01*
X71975000Y28662500D01*
X71975000Y28087500D01*
X71973856Y28064221D01*
X71970437Y28041166D01*
X71964773Y28018557D01*
X71956921Y27996613D01*
X71946956Y27975543D01*
X71934974Y27955552D01*
X71921090Y27936832D01*
X71905438Y27919562D01*
X71888168Y27903910D01*
X71869448Y27890026D01*
X71849457Y27878044D01*
X71828387Y27868079D01*
X71806443Y27860227D01*
X71783834Y27854563D01*
X71760779Y27851144D01*
X71737500Y27850000D01*
X71262500Y27850000D01*
X71239221Y27851144D01*
X71216166Y27854563D01*
X71193557Y27860227D01*
X71171613Y27868079D01*
X71150543Y27878044D01*
X71130552Y27890026D01*
X71111832Y27903910D01*
X71094562Y27919562D01*
X71078910Y27936832D01*
X71065026Y27955552D01*
X71053044Y27975543D01*
X71043079Y27996613D01*
X71035227Y28018557D01*
X71029563Y28041166D01*
X71026144Y28064221D01*
X71025000Y28087500D01*
X71025000Y28662500D01*
X71026144Y28685779D01*
X71029563Y28708834D01*
X71035227Y28731443D01*
X71043079Y28753387D01*
X71053044Y28774457D01*
X71065026Y28794448D01*
X71078910Y28813168D01*
X71094562Y28830438D01*
X71111832Y28846090D01*
X71130552Y28859974D01*
X71150543Y28871956D01*
X71171613Y28881921D01*
X71193557Y28889773D01*
X71216166Y28895437D01*
X71239221Y28898856D01*
X71262500Y28900000D01*
X71737500Y28900000D01*
X71760779Y28898856D01*
G37*
G36*
X71760779Y21398856D02*
G01*
X71783834Y21395437D01*
X71806443Y21389773D01*
X71828387Y21381921D01*
X71849457Y21371956D01*
X71869448Y21359974D01*
X71888168Y21346090D01*
X71905438Y21330438D01*
X71921090Y21313168D01*
X71934974Y21294448D01*
X71946956Y21274457D01*
X71956921Y21253387D01*
X71964773Y21231443D01*
X71970437Y21208834D01*
X71973856Y21185779D01*
X71975000Y21162500D01*
X71975000Y20587500D01*
X71973856Y20564221D01*
X71970437Y20541166D01*
X71964773Y20518557D01*
X71956921Y20496613D01*
X71946956Y20475543D01*
X71934974Y20455552D01*
X71921090Y20436832D01*
X71905438Y20419562D01*
X71888168Y20403910D01*
X71869448Y20390026D01*
X71849457Y20378044D01*
X71828387Y20368079D01*
X71806443Y20360227D01*
X71783834Y20354563D01*
X71760779Y20351144D01*
X71737500Y20350000D01*
X71262500Y20350000D01*
X71239221Y20351144D01*
X71216166Y20354563D01*
X71193557Y20360227D01*
X71171613Y20368079D01*
X71150543Y20378044D01*
X71130552Y20390026D01*
X71111832Y20403910D01*
X71094562Y20419562D01*
X71078910Y20436832D01*
X71065026Y20455552D01*
X71053044Y20475543D01*
X71043079Y20496613D01*
X71035227Y20518557D01*
X71029563Y20541166D01*
X71026144Y20564221D01*
X71025000Y20587500D01*
X71025000Y21162500D01*
X71026144Y21185779D01*
X71029563Y21208834D01*
X71035227Y21231443D01*
X71043079Y21253387D01*
X71053044Y21274457D01*
X71065026Y21294448D01*
X71078910Y21313168D01*
X71094562Y21330438D01*
X71111832Y21346090D01*
X71130552Y21359974D01*
X71150543Y21371956D01*
X71171613Y21381921D01*
X71193557Y21389773D01*
X71216166Y21395437D01*
X71239221Y21398856D01*
X71262500Y21400000D01*
X71737500Y21400000D01*
X71760779Y21398856D01*
G37*
G36*
X71760779Y19648856D02*
G01*
X71783834Y19645437D01*
X71806443Y19639773D01*
X71828387Y19631921D01*
X71849457Y19621956D01*
X71869448Y19609974D01*
X71888168Y19596090D01*
X71905438Y19580438D01*
X71921090Y19563168D01*
X71934974Y19544448D01*
X71946956Y19524457D01*
X71956921Y19503387D01*
X71964773Y19481443D01*
X71970437Y19458834D01*
X71973856Y19435779D01*
X71975000Y19412500D01*
X71975000Y18837500D01*
X71973856Y18814221D01*
X71970437Y18791166D01*
X71964773Y18768557D01*
X71956921Y18746613D01*
X71946956Y18725543D01*
X71934974Y18705552D01*
X71921090Y18686832D01*
X71905438Y18669562D01*
X71888168Y18653910D01*
X71869448Y18640026D01*
X71849457Y18628044D01*
X71828387Y18618079D01*
X71806443Y18610227D01*
X71783834Y18604563D01*
X71760779Y18601144D01*
X71737500Y18600000D01*
X71262500Y18600000D01*
X71239221Y18601144D01*
X71216166Y18604563D01*
X71193557Y18610227D01*
X71171613Y18618079D01*
X71150543Y18628044D01*
X71130552Y18640026D01*
X71111832Y18653910D01*
X71094562Y18669562D01*
X71078910Y18686832D01*
X71065026Y18705552D01*
X71053044Y18725543D01*
X71043079Y18746613D01*
X71035227Y18768557D01*
X71029563Y18791166D01*
X71026144Y18814221D01*
X71025000Y18837500D01*
X71025000Y19412500D01*
X71026144Y19435779D01*
X71029563Y19458834D01*
X71035227Y19481443D01*
X71043079Y19503387D01*
X71053044Y19524457D01*
X71065026Y19544448D01*
X71078910Y19563168D01*
X71094562Y19580438D01*
X71111832Y19596090D01*
X71130552Y19609974D01*
X71150543Y19621956D01*
X71171613Y19631921D01*
X71193557Y19639773D01*
X71216166Y19645437D01*
X71239221Y19648856D01*
X71262500Y19650000D01*
X71737500Y19650000D01*
X71760779Y19648856D01*
G37*
G36*
X71760779Y12648856D02*
G01*
X71783834Y12645437D01*
X71806443Y12639773D01*
X71828387Y12631921D01*
X71849457Y12621956D01*
X71869448Y12609974D01*
X71888168Y12596090D01*
X71905438Y12580438D01*
X71921090Y12563168D01*
X71934974Y12544448D01*
X71946956Y12524457D01*
X71956921Y12503387D01*
X71964773Y12481443D01*
X71970437Y12458834D01*
X71973856Y12435779D01*
X71975000Y12412500D01*
X71975000Y11837500D01*
X71973856Y11814221D01*
X71970437Y11791166D01*
X71964773Y11768557D01*
X71956921Y11746613D01*
X71946956Y11725543D01*
X71934974Y11705552D01*
X71921090Y11686832D01*
X71905438Y11669562D01*
X71888168Y11653910D01*
X71869448Y11640026D01*
X71849457Y11628044D01*
X71828387Y11618079D01*
X71806443Y11610227D01*
X71783834Y11604563D01*
X71760779Y11601144D01*
X71737500Y11600000D01*
X71262500Y11600000D01*
X71239221Y11601144D01*
X71216166Y11604563D01*
X71193557Y11610227D01*
X71171613Y11618079D01*
X71150543Y11628044D01*
X71130552Y11640026D01*
X71111832Y11653910D01*
X71094562Y11669562D01*
X71078910Y11686832D01*
X71065026Y11705552D01*
X71053044Y11725543D01*
X71043079Y11746613D01*
X71035227Y11768557D01*
X71029563Y11791166D01*
X71026144Y11814221D01*
X71025000Y11837500D01*
X71025000Y12412500D01*
X71026144Y12435779D01*
X71029563Y12458834D01*
X71035227Y12481443D01*
X71043079Y12503387D01*
X71053044Y12524457D01*
X71065026Y12544448D01*
X71078910Y12563168D01*
X71094562Y12580438D01*
X71111832Y12596090D01*
X71130552Y12609974D01*
X71150543Y12621956D01*
X71171613Y12631921D01*
X71193557Y12639773D01*
X71216166Y12645437D01*
X71239221Y12648856D01*
X71262500Y12650000D01*
X71737500Y12650000D01*
X71760779Y12648856D01*
G37*
G36*
X71760779Y10898856D02*
G01*
X71783834Y10895437D01*
X71806443Y10889773D01*
X71828387Y10881921D01*
X71849457Y10871956D01*
X71869448Y10859974D01*
X71888168Y10846090D01*
X71905438Y10830438D01*
X71921090Y10813168D01*
X71934974Y10794448D01*
X71946956Y10774457D01*
X71956921Y10753387D01*
X71964773Y10731443D01*
X71970437Y10708834D01*
X71973856Y10685779D01*
X71975000Y10662500D01*
X71975000Y10087500D01*
X71973856Y10064221D01*
X71970437Y10041166D01*
X71964773Y10018557D01*
X71956921Y9996613D01*
X71946956Y9975543D01*
X71934974Y9955552D01*
X71921090Y9936832D01*
X71905438Y9919562D01*
X71888168Y9903910D01*
X71869448Y9890026D01*
X71849457Y9878044D01*
X71828387Y9868079D01*
X71806443Y9860227D01*
X71783834Y9854563D01*
X71760779Y9851144D01*
X71737500Y9850000D01*
X71262500Y9850000D01*
X71239221Y9851144D01*
X71216166Y9854563D01*
X71193557Y9860227D01*
X71171613Y9868079D01*
X71150543Y9878044D01*
X71130552Y9890026D01*
X71111832Y9903910D01*
X71094562Y9919562D01*
X71078910Y9936832D01*
X71065026Y9955552D01*
X71053044Y9975543D01*
X71043079Y9996613D01*
X71035227Y10018557D01*
X71029563Y10041166D01*
X71026144Y10064221D01*
X71025000Y10087500D01*
X71025000Y10662500D01*
X71026144Y10685779D01*
X71029563Y10708834D01*
X71035227Y10731443D01*
X71043079Y10753387D01*
X71053044Y10774457D01*
X71065026Y10794448D01*
X71078910Y10813168D01*
X71094562Y10830438D01*
X71111832Y10846090D01*
X71130552Y10859974D01*
X71150543Y10871956D01*
X71171613Y10881921D01*
X71193557Y10889773D01*
X71216166Y10895437D01*
X71239221Y10898856D01*
X71262500Y10900000D01*
X71737500Y10900000D01*
X71760779Y10898856D01*
G37*
D10*
X61250000Y46650000D03*
X61250000Y41250000D03*
M02*
