M48
; DRILL file {KiCad (5.1.5-0)} date Tuesday, 28 April 2020 at 00:38:06
; FORMAT={-:-/ absolute / metric / decimal}
; #@! TF.CreationDate,2020-04-28T00:38:06+02:00
; #@! TF.GenerationSoftware,Kicad,Pcbnew,(5.1.5-0)
; #@! TF.FileFunction,Plated,1,2,PTH
FMAT,2
METRIC
T1C0.500
T2C0.600
T3C1.000
T4C1.016
%
G90
G05
T1
X220.0Y-103.0
X221.0Y-101.0
X221.75Y-120.25
X222.0Y-103.0
X223.5Y-101.5
X223.75Y-118.25
X224.0Y-103.0
X225.0Y-101.0
X225.25Y-116.9
X226.0Y-115.75
X226.25Y-107.0
X226.5Y-102.0
X227.217Y-117.817
X228.8Y-118.8
X229.5Y-100.75
X230.313Y-101.563
X230.45Y-117.15
X230.5Y-110.75
X231.5Y-100.3
X233.5Y-106.75
X234.0Y-101.5
X235.0Y-101.0
X235.0Y-116.95
X236.0Y-101.5
X237.0Y-118.25
X237.7Y-100.5
X237.75Y-108.0
X240.0Y-101.0
X240.25Y-115.25
X241.75Y-112.5
X249.0Y-103.0
T2
X202.5Y-102.5
X202.5Y-107.5
X202.5Y-112.5
X202.5Y-126.0
X207.0Y-114.75
X207.25Y-107.25
X207.5Y-126.0
X210.0Y-101.5
X212.5Y-107.5
X212.5Y-112.5
X212.5Y-117.0
X212.5Y-121.5
X212.5Y-126.0
X214.75Y-112.5
X214.75Y-115.25
X215.0Y-122.75
X215.0Y-126.5
X215.75Y-109.75
X216.0Y-107.5
X217.5Y-125.0
X217.5Y-126.5
X217.75Y-113.25
X218.0Y-109.0
X220.0Y-122.5
X224.0Y-111.5
X236.6Y-106.6
X240.0Y-120.0
X240.0Y-125.0
X240.25Y-117.25
X240.5Y-105.0
X242.75Y-115.0
X243.0Y-105.0
X243.25Y-107.0
X243.5Y-102.0
X245.0Y-113.0
X245.0Y-117.25
X245.0Y-125.0
X247.0Y-102.0
X247.0Y-105.0
X248.75Y-112.25
X250.0Y-117.0
X250.0Y-125.0
X251.0Y-109.5
X251.25Y-107.0
X255.0Y-105.0
X255.0Y-112.5
X255.0Y-117.5
X255.0Y-125.0
X260.0Y-125.0
X262.5Y-105.0
X262.5Y-110.0
X262.5Y-115.0
X262.5Y-125.0
T3
X208.37Y-96.23
X208.37Y-98.77
X210.91Y-96.23
X210.91Y-98.77
X213.45Y-96.23
X213.45Y-98.77
X215.99Y-96.23
X215.99Y-98.77
X218.53Y-96.23
X218.53Y-98.77
X221.07Y-96.23
X221.07Y-98.77
X223.61Y-96.23
X223.61Y-98.77
X226.15Y-96.23
X226.15Y-98.77
X228.69Y-96.23
X228.69Y-98.77
X231.23Y-96.23
X231.23Y-98.77
X233.77Y-96.23
X233.77Y-98.77
X236.31Y-96.23
X236.31Y-98.77
X238.85Y-96.23
X238.85Y-98.77
X241.39Y-96.23
X241.39Y-98.77
X243.93Y-96.23
X243.93Y-98.77
X246.47Y-96.23
X246.47Y-98.77
X249.01Y-96.23
X249.01Y-98.77
X251.55Y-96.23
X251.55Y-98.77
X254.09Y-96.23
X254.09Y-98.77
X256.63Y-96.23
X256.63Y-98.77
X215.0Y-103.5
X217.5Y-119.5
T4
X225.48Y-126.0
X225.48Y-128.54
X228.02Y-126.0
X228.02Y-128.54
X230.56Y-126.0
X230.56Y-128.54
X233.1Y-126.0
X233.1Y-128.54
T0
M30
