G04 #@! TF.GenerationSoftware,KiCad,Pcbnew,(5.1.5-0)*
G04 #@! TF.CreationDate,2020-05-31T17:35:19+02:00*
G04 #@! TF.ProjectId,ecg_ads1292_main,6563675f-6164-4733-9132-39325f6d6169,rev?*
G04 #@! TF.SameCoordinates,Original*
G04 #@! TF.FileFunction,Soldermask,Bot*
G04 #@! TF.FilePolarity,Negative*
%FSLAX46Y46*%
G04 Gerber Fmt 4.6, Leading zero omitted, Abs format (unit mm)*
G04 Created by KiCad (PCBNEW (5.1.5-0)) date 2020-05-31 17:35:19*
%MOMM*%
%LPD*%
G04 APERTURE LIST*
%ADD10O,1.727200X1.727200*%
%ADD11R,1.727200X1.727200*%
%ADD12C,2.000000*%
%ADD13C,0.150000*%
%ADD14R,1.700000X1.700000*%
%ADD15O,1.700000X1.700000*%
%ADD16C,2.700000*%
%ADD17C,0.900000*%
G04 APERTURE END LIST*
D10*
X225480000Y-128540000D03*
X225480000Y-126000000D03*
X228020000Y-128540000D03*
X228020000Y-126000000D03*
X230560000Y-128540000D03*
X230560000Y-126000000D03*
X233100000Y-128540000D03*
D11*
X233100000Y-126000000D03*
D12*
X215000000Y-103500000D03*
X217500000Y-119500000D03*
D13*
G36*
X218774505Y-127426204D02*
G01*
X218798773Y-127429804D01*
X218822572Y-127435765D01*
X218845671Y-127444030D01*
X218867850Y-127454520D01*
X218888893Y-127467132D01*
X218908599Y-127481747D01*
X218926777Y-127498223D01*
X218943253Y-127516401D01*
X218957868Y-127536107D01*
X218970480Y-127557150D01*
X218980970Y-127579329D01*
X218989235Y-127602428D01*
X218995196Y-127626227D01*
X218998796Y-127650495D01*
X219000000Y-127674999D01*
X219000000Y-128700001D01*
X218998796Y-128724505D01*
X218995196Y-128748773D01*
X218989235Y-128772572D01*
X218980970Y-128795671D01*
X218970480Y-128817850D01*
X218957868Y-128838893D01*
X218943253Y-128858599D01*
X218926777Y-128876777D01*
X218908599Y-128893253D01*
X218888893Y-128907868D01*
X218867850Y-128920480D01*
X218845671Y-128930970D01*
X218822572Y-128939235D01*
X218798773Y-128945196D01*
X218774505Y-128948796D01*
X218750001Y-128950000D01*
X215249999Y-128950000D01*
X215225495Y-128948796D01*
X215201227Y-128945196D01*
X215177428Y-128939235D01*
X215154329Y-128930970D01*
X215132150Y-128920480D01*
X215111107Y-128907868D01*
X215091401Y-128893253D01*
X215073223Y-128876777D01*
X215056747Y-128858599D01*
X215042132Y-128838893D01*
X215029520Y-128817850D01*
X215019030Y-128795671D01*
X215010765Y-128772572D01*
X215004804Y-128748773D01*
X215001204Y-128724505D01*
X215000000Y-128700001D01*
X215000000Y-127674999D01*
X215001204Y-127650495D01*
X215004804Y-127626227D01*
X215010765Y-127602428D01*
X215019030Y-127579329D01*
X215029520Y-127557150D01*
X215042132Y-127536107D01*
X215056747Y-127516401D01*
X215073223Y-127498223D01*
X215091401Y-127481747D01*
X215111107Y-127467132D01*
X215132150Y-127454520D01*
X215154329Y-127444030D01*
X215177428Y-127435765D01*
X215201227Y-127429804D01*
X215225495Y-127426204D01*
X215249999Y-127425000D01*
X218750001Y-127425000D01*
X218774505Y-127426204D01*
G37*
G36*
X218774505Y-125551204D02*
G01*
X218798773Y-125554804D01*
X218822572Y-125560765D01*
X218845671Y-125569030D01*
X218867850Y-125579520D01*
X218888893Y-125592132D01*
X218908599Y-125606747D01*
X218926777Y-125623223D01*
X218943253Y-125641401D01*
X218957868Y-125661107D01*
X218970480Y-125682150D01*
X218980970Y-125704329D01*
X218989235Y-125727428D01*
X218995196Y-125751227D01*
X218998796Y-125775495D01*
X219000000Y-125799999D01*
X219000000Y-126825001D01*
X218998796Y-126849505D01*
X218995196Y-126873773D01*
X218989235Y-126897572D01*
X218980970Y-126920671D01*
X218970480Y-126942850D01*
X218957868Y-126963893D01*
X218943253Y-126983599D01*
X218926777Y-127001777D01*
X218908599Y-127018253D01*
X218888893Y-127032868D01*
X218867850Y-127045480D01*
X218845671Y-127055970D01*
X218822572Y-127064235D01*
X218798773Y-127070196D01*
X218774505Y-127073796D01*
X218750001Y-127075000D01*
X215249999Y-127075000D01*
X215225495Y-127073796D01*
X215201227Y-127070196D01*
X215177428Y-127064235D01*
X215154329Y-127055970D01*
X215132150Y-127045480D01*
X215111107Y-127032868D01*
X215091401Y-127018253D01*
X215073223Y-127001777D01*
X215056747Y-126983599D01*
X215042132Y-126963893D01*
X215029520Y-126942850D01*
X215019030Y-126920671D01*
X215010765Y-126897572D01*
X215004804Y-126873773D01*
X215001204Y-126849505D01*
X215000000Y-126825001D01*
X215000000Y-125799999D01*
X215001204Y-125775495D01*
X215004804Y-125751227D01*
X215010765Y-125727428D01*
X215019030Y-125704329D01*
X215029520Y-125682150D01*
X215042132Y-125661107D01*
X215056747Y-125641401D01*
X215073223Y-125623223D01*
X215091401Y-125606747D01*
X215111107Y-125592132D01*
X215132150Y-125579520D01*
X215154329Y-125569030D01*
X215177428Y-125560765D01*
X215201227Y-125554804D01*
X215225495Y-125551204D01*
X215249999Y-125550000D01*
X218750001Y-125550000D01*
X218774505Y-125551204D01*
G37*
D14*
X208370000Y-98770000D03*
D15*
X208370000Y-96230000D03*
X210910000Y-98770000D03*
X210910000Y-96230000D03*
X213450000Y-98770000D03*
X213450000Y-96230000D03*
X215990000Y-98770000D03*
X215990000Y-96230000D03*
X218530000Y-98770000D03*
X218530000Y-96230000D03*
X221070000Y-98770000D03*
X221070000Y-96230000D03*
X223610000Y-98770000D03*
X223610000Y-96230000D03*
X226150000Y-98770000D03*
X226150000Y-96230000D03*
X228690000Y-98770000D03*
X228690000Y-96230000D03*
X231230000Y-98770000D03*
X231230000Y-96230000D03*
X233770000Y-98770000D03*
X233770000Y-96230000D03*
X236310000Y-98770000D03*
X236310000Y-96230000D03*
X238850000Y-98770000D03*
X238850000Y-96230000D03*
X241390000Y-98770000D03*
X241390000Y-96230000D03*
X243930000Y-98770000D03*
X243930000Y-96230000D03*
X246470000Y-98770000D03*
X246470000Y-96230000D03*
X249010000Y-98770000D03*
X249010000Y-96230000D03*
X251550000Y-98770000D03*
X251550000Y-96230000D03*
X254090000Y-98770000D03*
X254090000Y-96230000D03*
X256630000Y-98770000D03*
X256630000Y-96230000D03*
D16*
X261500000Y-120500000D03*
X203500000Y-120500000D03*
X261500000Y-97500000D03*
X203500000Y-97500000D03*
D17*
X243250000Y-101500000D03*
X238100000Y-103600000D03*
X230313174Y-101563174D03*
X224000000Y-103000000D03*
X219750000Y-102000000D03*
X226000000Y-106750000D03*
X233500000Y-106750000D03*
X238950000Y-108050000D03*
X241750000Y-112500000D03*
X239750000Y-113500000D03*
X235000000Y-116950000D03*
X230500000Y-110750000D03*
X226000000Y-115750000D03*
X225250000Y-116900000D03*
X222000000Y-121000000D03*
X225000000Y-101000000D03*
X230450000Y-117150000D03*
X237000000Y-118250000D03*
X223750000Y-118250000D03*
X240000000Y-120000000D03*
X240000000Y-125000000D03*
X245000000Y-125000000D03*
X250000000Y-125000000D03*
X255000000Y-125000000D03*
X260000000Y-125000000D03*
X262500000Y-125000000D03*
X262500000Y-115000000D03*
X262500000Y-110000000D03*
X262500000Y-105000000D03*
X202500000Y-102500000D03*
X202500000Y-107500000D03*
X202500000Y-112500000D03*
X202500000Y-126000000D03*
X207500000Y-126000000D03*
X212500000Y-126000000D03*
X215000000Y-124000000D03*
X212500000Y-107500000D03*
X212500000Y-112500000D03*
X245000000Y-117250000D03*
X255000000Y-112500000D03*
X255000000Y-105000000D03*
X212500000Y-117000000D03*
X212500000Y-121500000D03*
X207000000Y-114750000D03*
X207250000Y-107250000D03*
X210000000Y-101500000D03*
X216000000Y-107500000D03*
X247000000Y-102000000D03*
X247000000Y-105000000D03*
X244500000Y-102000000D03*
X245500000Y-105000000D03*
X243250000Y-107000000D03*
X251250000Y-107000000D03*
X251000000Y-109500000D03*
X248750000Y-112250000D03*
X245000000Y-113000000D03*
X242750000Y-115000000D03*
X240250000Y-117250000D03*
X219000000Y-124000000D03*
X217000000Y-124000000D03*
X215000000Y-121000000D03*
X214750000Y-115250000D03*
X214750000Y-112500000D03*
X215750000Y-109750000D03*
X218000000Y-109000000D03*
X224000000Y-111500000D03*
X217750000Y-113250000D03*
X250000000Y-117000000D03*
X255000000Y-117500000D03*
X227275000Y-108025000D03*
X241600000Y-110100000D03*
X249000000Y-103000000D03*
X221000016Y-101000000D03*
X229500000Y-100750000D03*
X223500000Y-101500020D03*
X239000000Y-101500000D03*
X226499988Y-102000012D03*
X240777818Y-101527818D03*
X231750000Y-100750004D03*
X237008787Y-101008787D03*
X240200000Y-99949999D03*
X227216636Y-117816636D03*
X228800000Y-118800000D03*
M02*
