G04 #@! TF.GenerationSoftware,KiCad,Pcbnew,(5.1.5-0)*
G04 #@! TF.CreationDate,2020-04-28T13:58:54+02:00*
G04 #@! TF.ProjectId,ecg_ads1292_main,6563675f-6164-4733-9132-39325f6d6169,rev?*
G04 #@! TF.SameCoordinates,Original*
G04 #@! TF.FileFunction,Copper,L2,Bot*
G04 #@! TF.FilePolarity,Positive*
%FSLAX46Y46*%
G04 Gerber Fmt 4.6, Leading zero omitted, Abs format (unit mm)*
G04 Created by KiCad (PCBNEW (5.1.5-0)) date 2020-04-28 13:58:54*
%MOMM*%
%LPD*%
G04 APERTURE LIST*
%ADD10O,1.727200X1.727200*%
%ADD11R,1.727200X1.727200*%
%ADD12C,2.000000*%
%ADD13C,0.150000*%
%ADD14R,1.700000X1.700000*%
%ADD15O,1.700000X1.700000*%
%ADD16C,0.900000*%
%ADD17C,0.250000*%
%ADD18C,1.000000*%
%ADD19C,0.200000*%
G04 APERTURE END LIST*
D10*
X225480000Y-128540000D03*
X225480000Y-126000000D03*
X228020000Y-128540000D03*
X228020000Y-126000000D03*
X230560000Y-128540000D03*
X230560000Y-126000000D03*
X233100000Y-128540000D03*
D11*
X233100000Y-126000000D03*
D12*
X215000000Y-103500000D03*
X217500000Y-119500000D03*
G04 #@! TA.AperFunction,SMDPad,CuDef*
D13*
G36*
X222774505Y-127426204D02*
G01*
X222798773Y-127429804D01*
X222822572Y-127435765D01*
X222845671Y-127444030D01*
X222867850Y-127454520D01*
X222888893Y-127467132D01*
X222908599Y-127481747D01*
X222926777Y-127498223D01*
X222943253Y-127516401D01*
X222957868Y-127536107D01*
X222970480Y-127557150D01*
X222980970Y-127579329D01*
X222989235Y-127602428D01*
X222995196Y-127626227D01*
X222998796Y-127650495D01*
X223000000Y-127674999D01*
X223000000Y-128700001D01*
X222998796Y-128724505D01*
X222995196Y-128748773D01*
X222989235Y-128772572D01*
X222980970Y-128795671D01*
X222970480Y-128817850D01*
X222957868Y-128838893D01*
X222943253Y-128858599D01*
X222926777Y-128876777D01*
X222908599Y-128893253D01*
X222888893Y-128907868D01*
X222867850Y-128920480D01*
X222845671Y-128930970D01*
X222822572Y-128939235D01*
X222798773Y-128945196D01*
X222774505Y-128948796D01*
X222750001Y-128950000D01*
X219249999Y-128950000D01*
X219225495Y-128948796D01*
X219201227Y-128945196D01*
X219177428Y-128939235D01*
X219154329Y-128930970D01*
X219132150Y-128920480D01*
X219111107Y-128907868D01*
X219091401Y-128893253D01*
X219073223Y-128876777D01*
X219056747Y-128858599D01*
X219042132Y-128838893D01*
X219029520Y-128817850D01*
X219019030Y-128795671D01*
X219010765Y-128772572D01*
X219004804Y-128748773D01*
X219001204Y-128724505D01*
X219000000Y-128700001D01*
X219000000Y-127674999D01*
X219001204Y-127650495D01*
X219004804Y-127626227D01*
X219010765Y-127602428D01*
X219019030Y-127579329D01*
X219029520Y-127557150D01*
X219042132Y-127536107D01*
X219056747Y-127516401D01*
X219073223Y-127498223D01*
X219091401Y-127481747D01*
X219111107Y-127467132D01*
X219132150Y-127454520D01*
X219154329Y-127444030D01*
X219177428Y-127435765D01*
X219201227Y-127429804D01*
X219225495Y-127426204D01*
X219249999Y-127425000D01*
X222750001Y-127425000D01*
X222774505Y-127426204D01*
G37*
G04 #@! TD.AperFunction*
G04 #@! TA.AperFunction,SMDPad,CuDef*
G36*
X222774505Y-125551204D02*
G01*
X222798773Y-125554804D01*
X222822572Y-125560765D01*
X222845671Y-125569030D01*
X222867850Y-125579520D01*
X222888893Y-125592132D01*
X222908599Y-125606747D01*
X222926777Y-125623223D01*
X222943253Y-125641401D01*
X222957868Y-125661107D01*
X222970480Y-125682150D01*
X222980970Y-125704329D01*
X222989235Y-125727428D01*
X222995196Y-125751227D01*
X222998796Y-125775495D01*
X223000000Y-125799999D01*
X223000000Y-126825001D01*
X222998796Y-126849505D01*
X222995196Y-126873773D01*
X222989235Y-126897572D01*
X222980970Y-126920671D01*
X222970480Y-126942850D01*
X222957868Y-126963893D01*
X222943253Y-126983599D01*
X222926777Y-127001777D01*
X222908599Y-127018253D01*
X222888893Y-127032868D01*
X222867850Y-127045480D01*
X222845671Y-127055970D01*
X222822572Y-127064235D01*
X222798773Y-127070196D01*
X222774505Y-127073796D01*
X222750001Y-127075000D01*
X219249999Y-127075000D01*
X219225495Y-127073796D01*
X219201227Y-127070196D01*
X219177428Y-127064235D01*
X219154329Y-127055970D01*
X219132150Y-127045480D01*
X219111107Y-127032868D01*
X219091401Y-127018253D01*
X219073223Y-127001777D01*
X219056747Y-126983599D01*
X219042132Y-126963893D01*
X219029520Y-126942850D01*
X219019030Y-126920671D01*
X219010765Y-126897572D01*
X219004804Y-126873773D01*
X219001204Y-126849505D01*
X219000000Y-126825001D01*
X219000000Y-125799999D01*
X219001204Y-125775495D01*
X219004804Y-125751227D01*
X219010765Y-125727428D01*
X219019030Y-125704329D01*
X219029520Y-125682150D01*
X219042132Y-125661107D01*
X219056747Y-125641401D01*
X219073223Y-125623223D01*
X219091401Y-125606747D01*
X219111107Y-125592132D01*
X219132150Y-125579520D01*
X219154329Y-125569030D01*
X219177428Y-125560765D01*
X219201227Y-125554804D01*
X219225495Y-125551204D01*
X219249999Y-125550000D01*
X222750001Y-125550000D01*
X222774505Y-125551204D01*
G37*
G04 #@! TD.AperFunction*
G04 #@! TA.AperFunction,SMDPad,CuDef*
G36*
X238774505Y-127426204D02*
G01*
X238798773Y-127429804D01*
X238822572Y-127435765D01*
X238845671Y-127444030D01*
X238867850Y-127454520D01*
X238888893Y-127467132D01*
X238908599Y-127481747D01*
X238926777Y-127498223D01*
X238943253Y-127516401D01*
X238957868Y-127536107D01*
X238970480Y-127557150D01*
X238980970Y-127579329D01*
X238989235Y-127602428D01*
X238995196Y-127626227D01*
X238998796Y-127650495D01*
X239000000Y-127674999D01*
X239000000Y-128700001D01*
X238998796Y-128724505D01*
X238995196Y-128748773D01*
X238989235Y-128772572D01*
X238980970Y-128795671D01*
X238970480Y-128817850D01*
X238957868Y-128838893D01*
X238943253Y-128858599D01*
X238926777Y-128876777D01*
X238908599Y-128893253D01*
X238888893Y-128907868D01*
X238867850Y-128920480D01*
X238845671Y-128930970D01*
X238822572Y-128939235D01*
X238798773Y-128945196D01*
X238774505Y-128948796D01*
X238750001Y-128950000D01*
X235249999Y-128950000D01*
X235225495Y-128948796D01*
X235201227Y-128945196D01*
X235177428Y-128939235D01*
X235154329Y-128930970D01*
X235132150Y-128920480D01*
X235111107Y-128907868D01*
X235091401Y-128893253D01*
X235073223Y-128876777D01*
X235056747Y-128858599D01*
X235042132Y-128838893D01*
X235029520Y-128817850D01*
X235019030Y-128795671D01*
X235010765Y-128772572D01*
X235004804Y-128748773D01*
X235001204Y-128724505D01*
X235000000Y-128700001D01*
X235000000Y-127674999D01*
X235001204Y-127650495D01*
X235004804Y-127626227D01*
X235010765Y-127602428D01*
X235019030Y-127579329D01*
X235029520Y-127557150D01*
X235042132Y-127536107D01*
X235056747Y-127516401D01*
X235073223Y-127498223D01*
X235091401Y-127481747D01*
X235111107Y-127467132D01*
X235132150Y-127454520D01*
X235154329Y-127444030D01*
X235177428Y-127435765D01*
X235201227Y-127429804D01*
X235225495Y-127426204D01*
X235249999Y-127425000D01*
X238750001Y-127425000D01*
X238774505Y-127426204D01*
G37*
G04 #@! TD.AperFunction*
G04 #@! TA.AperFunction,SMDPad,CuDef*
G36*
X238774505Y-125551204D02*
G01*
X238798773Y-125554804D01*
X238822572Y-125560765D01*
X238845671Y-125569030D01*
X238867850Y-125579520D01*
X238888893Y-125592132D01*
X238908599Y-125606747D01*
X238926777Y-125623223D01*
X238943253Y-125641401D01*
X238957868Y-125661107D01*
X238970480Y-125682150D01*
X238980970Y-125704329D01*
X238989235Y-125727428D01*
X238995196Y-125751227D01*
X238998796Y-125775495D01*
X239000000Y-125799999D01*
X239000000Y-126825001D01*
X238998796Y-126849505D01*
X238995196Y-126873773D01*
X238989235Y-126897572D01*
X238980970Y-126920671D01*
X238970480Y-126942850D01*
X238957868Y-126963893D01*
X238943253Y-126983599D01*
X238926777Y-127001777D01*
X238908599Y-127018253D01*
X238888893Y-127032868D01*
X238867850Y-127045480D01*
X238845671Y-127055970D01*
X238822572Y-127064235D01*
X238798773Y-127070196D01*
X238774505Y-127073796D01*
X238750001Y-127075000D01*
X235249999Y-127075000D01*
X235225495Y-127073796D01*
X235201227Y-127070196D01*
X235177428Y-127064235D01*
X235154329Y-127055970D01*
X235132150Y-127045480D01*
X235111107Y-127032868D01*
X235091401Y-127018253D01*
X235073223Y-127001777D01*
X235056747Y-126983599D01*
X235042132Y-126963893D01*
X235029520Y-126942850D01*
X235019030Y-126920671D01*
X235010765Y-126897572D01*
X235004804Y-126873773D01*
X235001204Y-126849505D01*
X235000000Y-126825001D01*
X235000000Y-125799999D01*
X235001204Y-125775495D01*
X235004804Y-125751227D01*
X235010765Y-125727428D01*
X235019030Y-125704329D01*
X235029520Y-125682150D01*
X235042132Y-125661107D01*
X235056747Y-125641401D01*
X235073223Y-125623223D01*
X235091401Y-125606747D01*
X235111107Y-125592132D01*
X235132150Y-125579520D01*
X235154329Y-125569030D01*
X235177428Y-125560765D01*
X235201227Y-125554804D01*
X235225495Y-125551204D01*
X235249999Y-125550000D01*
X238750001Y-125550000D01*
X238774505Y-125551204D01*
G37*
G04 #@! TD.AperFunction*
G04 #@! TA.AperFunction,SMDPad,CuDef*
G36*
X259524505Y-127426204D02*
G01*
X259548773Y-127429804D01*
X259572572Y-127435765D01*
X259595671Y-127444030D01*
X259617850Y-127454520D01*
X259638893Y-127467132D01*
X259658599Y-127481747D01*
X259676777Y-127498223D01*
X259693253Y-127516401D01*
X259707868Y-127536107D01*
X259720480Y-127557150D01*
X259730970Y-127579329D01*
X259739235Y-127602428D01*
X259745196Y-127626227D01*
X259748796Y-127650495D01*
X259750000Y-127674999D01*
X259750000Y-128700001D01*
X259748796Y-128724505D01*
X259745196Y-128748773D01*
X259739235Y-128772572D01*
X259730970Y-128795671D01*
X259720480Y-128817850D01*
X259707868Y-128838893D01*
X259693253Y-128858599D01*
X259676777Y-128876777D01*
X259658599Y-128893253D01*
X259638893Y-128907868D01*
X259617850Y-128920480D01*
X259595671Y-128930970D01*
X259572572Y-128939235D01*
X259548773Y-128945196D01*
X259524505Y-128948796D01*
X259500001Y-128950000D01*
X255999999Y-128950000D01*
X255975495Y-128948796D01*
X255951227Y-128945196D01*
X255927428Y-128939235D01*
X255904329Y-128930970D01*
X255882150Y-128920480D01*
X255861107Y-128907868D01*
X255841401Y-128893253D01*
X255823223Y-128876777D01*
X255806747Y-128858599D01*
X255792132Y-128838893D01*
X255779520Y-128817850D01*
X255769030Y-128795671D01*
X255760765Y-128772572D01*
X255754804Y-128748773D01*
X255751204Y-128724505D01*
X255750000Y-128700001D01*
X255750000Y-127674999D01*
X255751204Y-127650495D01*
X255754804Y-127626227D01*
X255760765Y-127602428D01*
X255769030Y-127579329D01*
X255779520Y-127557150D01*
X255792132Y-127536107D01*
X255806747Y-127516401D01*
X255823223Y-127498223D01*
X255841401Y-127481747D01*
X255861107Y-127467132D01*
X255882150Y-127454520D01*
X255904329Y-127444030D01*
X255927428Y-127435765D01*
X255951227Y-127429804D01*
X255975495Y-127426204D01*
X255999999Y-127425000D01*
X259500001Y-127425000D01*
X259524505Y-127426204D01*
G37*
G04 #@! TD.AperFunction*
G04 #@! TA.AperFunction,SMDPad,CuDef*
G36*
X259524505Y-125551204D02*
G01*
X259548773Y-125554804D01*
X259572572Y-125560765D01*
X259595671Y-125569030D01*
X259617850Y-125579520D01*
X259638893Y-125592132D01*
X259658599Y-125606747D01*
X259676777Y-125623223D01*
X259693253Y-125641401D01*
X259707868Y-125661107D01*
X259720480Y-125682150D01*
X259730970Y-125704329D01*
X259739235Y-125727428D01*
X259745196Y-125751227D01*
X259748796Y-125775495D01*
X259750000Y-125799999D01*
X259750000Y-126825001D01*
X259748796Y-126849505D01*
X259745196Y-126873773D01*
X259739235Y-126897572D01*
X259730970Y-126920671D01*
X259720480Y-126942850D01*
X259707868Y-126963893D01*
X259693253Y-126983599D01*
X259676777Y-127001777D01*
X259658599Y-127018253D01*
X259638893Y-127032868D01*
X259617850Y-127045480D01*
X259595671Y-127055970D01*
X259572572Y-127064235D01*
X259548773Y-127070196D01*
X259524505Y-127073796D01*
X259500001Y-127075000D01*
X255999999Y-127075000D01*
X255975495Y-127073796D01*
X255951227Y-127070196D01*
X255927428Y-127064235D01*
X255904329Y-127055970D01*
X255882150Y-127045480D01*
X255861107Y-127032868D01*
X255841401Y-127018253D01*
X255823223Y-127001777D01*
X255806747Y-126983599D01*
X255792132Y-126963893D01*
X255779520Y-126942850D01*
X255769030Y-126920671D01*
X255760765Y-126897572D01*
X255754804Y-126873773D01*
X255751204Y-126849505D01*
X255750000Y-126825001D01*
X255750000Y-125799999D01*
X255751204Y-125775495D01*
X255754804Y-125751227D01*
X255760765Y-125727428D01*
X255769030Y-125704329D01*
X255779520Y-125682150D01*
X255792132Y-125661107D01*
X255806747Y-125641401D01*
X255823223Y-125623223D01*
X255841401Y-125606747D01*
X255861107Y-125592132D01*
X255882150Y-125579520D01*
X255904329Y-125569030D01*
X255927428Y-125560765D01*
X255951227Y-125554804D01*
X255975495Y-125551204D01*
X255999999Y-125550000D01*
X259500001Y-125550000D01*
X259524505Y-125551204D01*
G37*
G04 #@! TD.AperFunction*
D14*
X208370000Y-98770000D03*
D15*
X208370000Y-96230000D03*
X210910000Y-98770000D03*
X210910000Y-96230000D03*
X213450000Y-98770000D03*
X213450000Y-96230000D03*
X215990000Y-98770000D03*
X215990000Y-96230000D03*
X218530000Y-98770000D03*
X218530000Y-96230000D03*
X221070000Y-98770000D03*
X221070000Y-96230000D03*
X223610000Y-98770000D03*
X223610000Y-96230000D03*
X226150000Y-98770000D03*
X226150000Y-96230000D03*
X228690000Y-98770000D03*
X228690000Y-96230000D03*
X231230000Y-98770000D03*
X231230000Y-96230000D03*
X233770000Y-98770000D03*
X233770000Y-96230000D03*
X236310000Y-98770000D03*
X236310000Y-96230000D03*
X238850000Y-98770000D03*
X238850000Y-96230000D03*
X241390000Y-98770000D03*
X241390000Y-96230000D03*
X243930000Y-98770000D03*
X243930000Y-96230000D03*
X246470000Y-98770000D03*
X246470000Y-96230000D03*
X249010000Y-98770000D03*
X249010000Y-96230000D03*
X251550000Y-98770000D03*
X251550000Y-96230000D03*
X254090000Y-98770000D03*
X254090000Y-96230000D03*
X256630000Y-98770000D03*
X256630000Y-96230000D03*
D16*
X238100000Y-103600000D03*
X243250000Y-101500000D03*
X230313174Y-101563174D03*
X224000000Y-103000000D03*
X219750000Y-102000000D03*
X226000000Y-106750000D03*
X233500000Y-106750000D03*
X238950000Y-108050000D03*
X241750000Y-112500000D03*
X239750000Y-113500000D03*
X235000000Y-116950000D03*
X230500000Y-110750000D03*
X226000000Y-115750000D03*
X225250000Y-116900000D03*
X221750000Y-120250000D03*
X225000000Y-101000000D03*
X230450000Y-117150000D03*
X237000000Y-118250000D03*
X223750000Y-118250000D03*
X240000000Y-120000000D03*
X240000000Y-125000000D03*
X245000000Y-125000000D03*
X250000000Y-125000000D03*
X255000000Y-125000000D03*
X260000000Y-125000000D03*
X262500000Y-125000000D03*
X262500000Y-115000000D03*
X262500000Y-110000000D03*
X262500000Y-105000000D03*
X202500000Y-102500000D03*
X202500000Y-107500000D03*
X202500000Y-112500000D03*
X202500000Y-126000000D03*
X207500000Y-126000000D03*
X212500000Y-126000000D03*
X217500000Y-125000000D03*
X220000000Y-122500000D03*
X212500000Y-107500000D03*
X212500000Y-112500000D03*
X245000000Y-117250000D03*
X255000000Y-112500000D03*
X255000000Y-105000000D03*
X212500000Y-117000000D03*
X212500000Y-121500000D03*
X207000000Y-114750000D03*
X207250000Y-107250000D03*
X210000000Y-101500000D03*
X216000000Y-107500000D03*
X247000000Y-102000000D03*
X247000000Y-105000000D03*
X244500000Y-102000000D03*
X245500000Y-105000000D03*
X243250000Y-107000000D03*
X251250000Y-107000000D03*
X251000000Y-109500000D03*
X248750000Y-112250000D03*
X245000000Y-113000000D03*
X242750000Y-115000000D03*
X240250000Y-117250000D03*
X217500000Y-126500000D03*
X215000000Y-126500000D03*
X215000000Y-122750000D03*
X214750000Y-115250000D03*
X214750000Y-112500000D03*
X215750000Y-109750000D03*
X218000000Y-109000000D03*
X224000000Y-111500000D03*
X217750000Y-113250000D03*
X250000000Y-117000000D03*
X255000000Y-117500000D03*
X227275000Y-108025000D03*
X241600000Y-110100000D03*
X249000000Y-103000000D03*
X221000016Y-101000000D03*
X229500000Y-100750000D03*
X223500000Y-101500020D03*
X239000000Y-101500000D03*
X226499988Y-102000012D03*
X240777818Y-101527818D03*
X231750000Y-100750004D03*
X237008787Y-101008787D03*
X240200000Y-99949999D03*
X227216636Y-117816636D03*
X228800000Y-118800000D03*
D17*
X242474999Y-100724999D02*
X242800001Y-101050001D01*
X236863590Y-102250000D02*
X238388591Y-100724999D01*
X229539999Y-99619999D02*
X229539999Y-99687003D01*
X228690000Y-98770000D02*
X229539999Y-99619999D01*
X238388591Y-100724999D02*
X242474999Y-100724999D01*
X232102996Y-102250000D02*
X236863590Y-102250000D01*
X229539999Y-99687003D02*
X232102996Y-102250000D01*
X242800001Y-101050001D02*
X243250000Y-101500000D01*
D18*
X207167919Y-96230000D02*
X208370000Y-96230000D01*
X206000000Y-102000000D02*
X206000000Y-97397919D01*
X217660000Y-104750000D02*
X217159999Y-105250001D01*
X209250001Y-105250001D02*
X206000000Y-102000000D01*
X241250000Y-104750000D02*
X217660000Y-104750000D01*
X242799987Y-103200013D02*
X241250000Y-104750000D01*
X248799987Y-103200013D02*
X242799987Y-103200013D01*
X206000000Y-97397919D02*
X207167919Y-96230000D01*
X217159999Y-105250001D02*
X209250001Y-105250001D01*
X249000000Y-103000000D02*
X248799987Y-103200013D01*
D17*
X222000016Y-100000000D02*
X221000016Y-101000000D01*
X228750000Y-100000000D02*
X222000016Y-100000000D01*
X229500000Y-100750000D02*
X228750000Y-100000000D01*
X229250000Y-102750000D02*
X237000000Y-102750000D01*
X227220968Y-101499990D02*
X227999990Y-101499990D01*
X226074989Y-101175011D02*
X226895989Y-101175011D01*
X223999980Y-102000000D02*
X225250000Y-102000000D01*
X225250000Y-102000000D02*
X226074989Y-101175011D01*
X227999990Y-101499990D02*
X229250000Y-102750000D01*
X223500000Y-101500020D02*
X223999980Y-102000000D01*
X237000000Y-102750000D02*
X238250000Y-101500000D01*
X226895989Y-101175011D02*
X227220968Y-101499990D01*
X238250000Y-101500000D02*
X239000000Y-101500000D01*
X240030635Y-102275001D02*
X240327819Y-101977817D01*
X238124999Y-102275001D02*
X240030635Y-102275001D01*
X237150000Y-103250000D02*
X238124999Y-102275001D01*
X229000000Y-103250000D02*
X237150000Y-103250000D01*
X226499988Y-102000012D02*
X226500000Y-102000000D01*
X227750000Y-102000000D02*
X229000000Y-103250000D01*
X240327819Y-101977817D02*
X240777818Y-101527818D01*
X226500000Y-102000000D02*
X227750000Y-102000000D01*
X236310000Y-99990000D02*
X236310000Y-99972081D01*
X232749996Y-101750000D02*
X232750000Y-101750000D01*
X232750000Y-101750000D02*
X232799990Y-101799990D01*
X234500010Y-101799990D02*
X236310000Y-99990000D01*
X232799990Y-101799990D02*
X234500010Y-101799990D01*
X236310000Y-99972081D02*
X236310000Y-98770000D01*
X231750000Y-100750004D02*
X232749996Y-101750000D01*
X237008787Y-101008787D02*
X237742585Y-100274989D01*
X239875010Y-100274989D02*
X240200000Y-99949999D01*
X237742585Y-100274989D02*
X239875010Y-100274989D01*
X228800000Y-118800000D02*
X228200000Y-118800000D01*
X228200000Y-118800000D02*
X227216636Y-117816636D01*
D19*
G36*
X262514397Y-94402116D02*
G01*
X263009196Y-94551505D01*
X263465561Y-94794157D01*
X263866096Y-95120827D01*
X264195561Y-95519081D01*
X264441390Y-95973734D01*
X264594230Y-96467479D01*
X264649991Y-96998008D01*
X264650001Y-97000933D01*
X264650000Y-126982878D01*
X264633613Y-127150000D01*
X260092998Y-127150000D01*
X260094936Y-127143612D01*
X260101694Y-127075000D01*
X260100000Y-126550000D01*
X260012500Y-126462500D01*
X257900000Y-126462500D01*
X257900000Y-126482500D01*
X257600000Y-126482500D01*
X257600000Y-126462500D01*
X255487500Y-126462500D01*
X255400000Y-126550000D01*
X255398306Y-127075000D01*
X255405064Y-127143612D01*
X255407002Y-127150000D01*
X242100000Y-127150000D01*
X242100000Y-125550000D01*
X255398306Y-125550000D01*
X255400000Y-126075000D01*
X255487500Y-126162500D01*
X257600000Y-126162500D01*
X257600000Y-125287500D01*
X257900000Y-125287500D01*
X257900000Y-126162500D01*
X260012500Y-126162500D01*
X260100000Y-126075000D01*
X260101694Y-125550000D01*
X260094936Y-125481388D01*
X260074923Y-125415413D01*
X260042423Y-125354609D01*
X259998685Y-125301315D01*
X259945391Y-125257577D01*
X259884587Y-125225077D01*
X259818612Y-125205064D01*
X259750000Y-125198306D01*
X257987500Y-125200000D01*
X257900000Y-125287500D01*
X257600000Y-125287500D01*
X257512500Y-125200000D01*
X255750000Y-125198306D01*
X255681388Y-125205064D01*
X255615413Y-125225077D01*
X255554609Y-125257577D01*
X255501315Y-125301315D01*
X255457577Y-125354609D01*
X255425077Y-125415413D01*
X255405064Y-125481388D01*
X255398306Y-125550000D01*
X242100000Y-125550000D01*
X242100000Y-120337489D01*
X259850000Y-120337489D01*
X259850000Y-120662511D01*
X259913408Y-120981287D01*
X260037789Y-121281568D01*
X260218361Y-121551814D01*
X260448186Y-121781639D01*
X260718432Y-121962211D01*
X261018713Y-122086592D01*
X261337489Y-122150000D01*
X261662511Y-122150000D01*
X261981287Y-122086592D01*
X262281568Y-121962211D01*
X262551814Y-121781639D01*
X262781639Y-121551814D01*
X262962211Y-121281568D01*
X263086592Y-120981287D01*
X263150000Y-120662511D01*
X263150000Y-120337489D01*
X263086592Y-120018713D01*
X262962211Y-119718432D01*
X262781639Y-119448186D01*
X262551814Y-119218361D01*
X262281568Y-119037789D01*
X261981287Y-118913408D01*
X261662511Y-118850000D01*
X261337489Y-118850000D01*
X261018713Y-118913408D01*
X260718432Y-119037789D01*
X260448186Y-119218361D01*
X260218361Y-119448186D01*
X260037789Y-119718432D01*
X259913408Y-120018713D01*
X259850000Y-120337489D01*
X242100000Y-120337489D01*
X242100000Y-118041422D01*
X246041422Y-114100000D01*
X250000000Y-114100000D01*
X250019509Y-114098079D01*
X250038268Y-114092388D01*
X250055557Y-114083147D01*
X250070711Y-114070711D01*
X253070711Y-111070711D01*
X253083147Y-111055557D01*
X253092388Y-111038268D01*
X253098079Y-111019509D01*
X253100000Y-111000000D01*
X253100000Y-106400000D01*
X253098956Y-106385587D01*
X253094243Y-106366559D01*
X253085908Y-106348816D01*
X253074272Y-106333039D01*
X253059781Y-106319836D01*
X253042993Y-106309714D01*
X252517993Y-106059714D01*
X252494509Y-106051921D01*
X252475000Y-106050000D01*
X240250000Y-106050000D01*
X240230491Y-106051921D01*
X240211732Y-106057612D01*
X240194443Y-106066853D01*
X240179289Y-106079289D01*
X239008578Y-107250000D01*
X237350000Y-107250000D01*
X237330491Y-107251921D01*
X237311732Y-107257612D01*
X237294443Y-107266853D01*
X237279289Y-107279289D01*
X235579289Y-108979289D01*
X235566853Y-108994443D01*
X235557612Y-109011732D01*
X235551921Y-109030491D01*
X235550000Y-109050000D01*
X235550000Y-109708578D01*
X234858578Y-110400000D01*
X232600000Y-110400000D01*
X232580491Y-110401921D01*
X232561732Y-110407612D01*
X232544443Y-110416853D01*
X232529289Y-110429289D01*
X232516853Y-110444443D01*
X232507612Y-110461732D01*
X232501921Y-110480491D01*
X232500000Y-110500000D01*
X232500000Y-110800000D01*
X232501921Y-110819509D01*
X232507612Y-110838268D01*
X232516853Y-110855557D01*
X232529289Y-110870711D01*
X232544443Y-110883147D01*
X232561732Y-110892388D01*
X232580491Y-110898079D01*
X232600000Y-110900000D01*
X235000000Y-110900000D01*
X235019509Y-110898079D01*
X235038268Y-110892388D01*
X235055557Y-110883147D01*
X235070711Y-110870711D01*
X235970711Y-109970711D01*
X235983147Y-109955557D01*
X235992388Y-109938268D01*
X235998079Y-109919509D01*
X236000000Y-109900000D01*
X236000000Y-109291422D01*
X237591422Y-107700000D01*
X239150000Y-107700000D01*
X239169509Y-107698079D01*
X239188268Y-107692388D01*
X239205557Y-107683147D01*
X239220711Y-107670711D01*
X240391422Y-106500000D01*
X251658578Y-106500000D01*
X251900000Y-106741422D01*
X251900000Y-109958578D01*
X248958578Y-112900000D01*
X246000000Y-112900000D01*
X245980491Y-112901921D01*
X245961732Y-112907612D01*
X245944443Y-112916853D01*
X245929289Y-112929289D01*
X240929289Y-117929289D01*
X240916853Y-117944443D01*
X240907612Y-117961732D01*
X240901921Y-117980491D01*
X240900000Y-118000000D01*
X240900000Y-127150000D01*
X239342998Y-127150000D01*
X239344936Y-127143612D01*
X239351694Y-127075000D01*
X239350000Y-126550000D01*
X239262500Y-126462500D01*
X237150000Y-126462500D01*
X237150000Y-126482500D01*
X236850000Y-126482500D01*
X236850000Y-126462500D01*
X234737500Y-126462500D01*
X234650000Y-126550000D01*
X234648306Y-127075000D01*
X234655064Y-127143612D01*
X234657002Y-127150000D01*
X234052932Y-127150000D01*
X234078960Y-127142104D01*
X234131077Y-127114247D01*
X234176758Y-127076758D01*
X234214247Y-127031077D01*
X234242104Y-126978960D01*
X234259259Y-126922410D01*
X234265051Y-126863600D01*
X234265051Y-125550000D01*
X234648306Y-125550000D01*
X234650000Y-126075000D01*
X234737500Y-126162500D01*
X236850000Y-126162500D01*
X236850000Y-125287500D01*
X237150000Y-125287500D01*
X237150000Y-126162500D01*
X239262500Y-126162500D01*
X239350000Y-126075000D01*
X239351694Y-125550000D01*
X239344936Y-125481388D01*
X239324923Y-125415413D01*
X239292423Y-125354609D01*
X239248685Y-125301315D01*
X239195391Y-125257577D01*
X239134587Y-125225077D01*
X239068612Y-125205064D01*
X239000000Y-125198306D01*
X237237500Y-125200000D01*
X237150000Y-125287500D01*
X236850000Y-125287500D01*
X236762500Y-125200000D01*
X235000000Y-125198306D01*
X234931388Y-125205064D01*
X234865413Y-125225077D01*
X234804609Y-125257577D01*
X234751315Y-125301315D01*
X234707577Y-125354609D01*
X234675077Y-125415413D01*
X234655064Y-125481388D01*
X234648306Y-125550000D01*
X234265051Y-125550000D01*
X234265051Y-125136400D01*
X234259259Y-125077590D01*
X234242104Y-125021040D01*
X234214247Y-124968923D01*
X234176758Y-124923242D01*
X234131077Y-124885753D01*
X234078960Y-124857896D01*
X234022410Y-124840741D01*
X233963600Y-124834949D01*
X232236400Y-124834949D01*
X232177590Y-124840741D01*
X232121040Y-124857896D01*
X232068923Y-124885753D01*
X232023242Y-124923242D01*
X231985753Y-124968923D01*
X231957896Y-125021040D01*
X231940741Y-125077590D01*
X231934949Y-125136400D01*
X231934949Y-126863600D01*
X231940741Y-126922410D01*
X231957896Y-126978960D01*
X231985753Y-127031077D01*
X232023242Y-127076758D01*
X232068923Y-127114247D01*
X232121040Y-127142104D01*
X232147068Y-127150000D01*
X230742976Y-127150000D01*
X230899410Y-127118883D01*
X231111171Y-127031169D01*
X231301752Y-126903827D01*
X231463827Y-126741752D01*
X231591169Y-126551171D01*
X231678883Y-126339410D01*
X231723600Y-126114605D01*
X231723600Y-125885395D01*
X231678883Y-125660590D01*
X231591169Y-125448829D01*
X231463827Y-125258248D01*
X231301752Y-125096173D01*
X231111171Y-124968831D01*
X230899410Y-124881117D01*
X230674605Y-124836400D01*
X230445395Y-124836400D01*
X230220590Y-124881117D01*
X230008829Y-124968831D01*
X229818248Y-125096173D01*
X229656173Y-125258248D01*
X229528831Y-125448829D01*
X229441117Y-125660590D01*
X229396400Y-125885395D01*
X229396400Y-126114605D01*
X229441117Y-126339410D01*
X229528831Y-126551171D01*
X229656173Y-126741752D01*
X229818248Y-126903827D01*
X230008829Y-127031169D01*
X230220590Y-127118883D01*
X230377024Y-127150000D01*
X228202976Y-127150000D01*
X228359410Y-127118883D01*
X228571171Y-127031169D01*
X228761752Y-126903827D01*
X228923827Y-126741752D01*
X229051169Y-126551171D01*
X229138883Y-126339410D01*
X229183600Y-126114605D01*
X229183600Y-125885395D01*
X229138883Y-125660590D01*
X229051169Y-125448829D01*
X228923827Y-125258248D01*
X228761752Y-125096173D01*
X228571171Y-124968831D01*
X228359410Y-124881117D01*
X228134605Y-124836400D01*
X227905395Y-124836400D01*
X227680590Y-124881117D01*
X227468829Y-124968831D01*
X227278248Y-125096173D01*
X227116173Y-125258248D01*
X226988831Y-125448829D01*
X226901117Y-125660590D01*
X226856400Y-125885395D01*
X226856400Y-126114605D01*
X226901117Y-126339410D01*
X226988831Y-126551171D01*
X227116173Y-126741752D01*
X227278248Y-126903827D01*
X227468829Y-127031169D01*
X227680590Y-127118883D01*
X227837024Y-127150000D01*
X225662976Y-127150000D01*
X225819410Y-127118883D01*
X226031171Y-127031169D01*
X226221752Y-126903827D01*
X226383827Y-126741752D01*
X226511169Y-126551171D01*
X226598883Y-126339410D01*
X226643600Y-126114605D01*
X226643600Y-125885395D01*
X226598883Y-125660590D01*
X226511169Y-125448829D01*
X226383827Y-125258248D01*
X226221752Y-125096173D01*
X226031171Y-124968831D01*
X225819410Y-124881117D01*
X225594605Y-124836400D01*
X225365395Y-124836400D01*
X225140590Y-124881117D01*
X224928829Y-124968831D01*
X224738248Y-125096173D01*
X224576173Y-125258248D01*
X224448831Y-125448829D01*
X224361117Y-125660590D01*
X224316400Y-125885395D01*
X224316400Y-126114605D01*
X224361117Y-126339410D01*
X224448831Y-126551171D01*
X224576173Y-126741752D01*
X224738248Y-126903827D01*
X224928829Y-127031169D01*
X225140590Y-127118883D01*
X225297024Y-127150000D01*
X223342998Y-127150000D01*
X223344936Y-127143612D01*
X223351694Y-127075000D01*
X223350000Y-126550000D01*
X223262500Y-126462500D01*
X221150000Y-126462500D01*
X221150000Y-126482500D01*
X220850000Y-126482500D01*
X220850000Y-126462500D01*
X218737500Y-126462500D01*
X218650000Y-126550000D01*
X218648306Y-127075000D01*
X218655064Y-127143612D01*
X218657002Y-127150000D01*
X214100000Y-127150000D01*
X214100000Y-125550000D01*
X218648306Y-125550000D01*
X218650000Y-126075000D01*
X218737500Y-126162500D01*
X220850000Y-126162500D01*
X220850000Y-125287500D01*
X221150000Y-125287500D01*
X221150000Y-126162500D01*
X223262500Y-126162500D01*
X223350000Y-126075000D01*
X223351694Y-125550000D01*
X223344936Y-125481388D01*
X223324923Y-125415413D01*
X223292423Y-125354609D01*
X223248685Y-125301315D01*
X223195391Y-125257577D01*
X223134587Y-125225077D01*
X223068612Y-125205064D01*
X223000000Y-125198306D01*
X221237500Y-125200000D01*
X221150000Y-125287500D01*
X220850000Y-125287500D01*
X220762500Y-125200000D01*
X219000000Y-125198306D01*
X218931388Y-125205064D01*
X218865413Y-125225077D01*
X218804609Y-125257577D01*
X218751315Y-125301315D01*
X218707577Y-125354609D01*
X218675077Y-125415413D01*
X218655064Y-125481388D01*
X218648306Y-125550000D01*
X214100000Y-125550000D01*
X214100000Y-120497117D01*
X216715015Y-120497117D01*
X216828893Y-120678895D01*
X217071779Y-120787169D01*
X217331121Y-120845978D01*
X217596954Y-120853062D01*
X217859060Y-120808149D01*
X218107368Y-120712964D01*
X218171107Y-120678895D01*
X218284985Y-120497117D01*
X217500000Y-119712132D01*
X216715015Y-120497117D01*
X214100000Y-120497117D01*
X214100000Y-119596954D01*
X216146938Y-119596954D01*
X216191851Y-119859060D01*
X216287036Y-120107368D01*
X216321105Y-120171107D01*
X216502883Y-120284985D01*
X217287868Y-119500000D01*
X217712132Y-119500000D01*
X218497117Y-120284985D01*
X218678895Y-120171107D01*
X218787169Y-119928221D01*
X218845978Y-119668879D01*
X218853062Y-119403046D01*
X218808149Y-119140940D01*
X218712964Y-118892632D01*
X218678895Y-118828893D01*
X218497117Y-118715015D01*
X217712132Y-119500000D01*
X217287868Y-119500000D01*
X216502883Y-118715015D01*
X216321105Y-118828893D01*
X216212831Y-119071779D01*
X216154022Y-119331121D01*
X216146938Y-119596954D01*
X214100000Y-119596954D01*
X214100000Y-118502883D01*
X216715015Y-118502883D01*
X217500000Y-119287868D01*
X218284985Y-118502883D01*
X218171107Y-118321105D01*
X217928221Y-118212831D01*
X217668879Y-118154022D01*
X217403046Y-118146938D01*
X217140940Y-118191851D01*
X216892632Y-118287036D01*
X216828893Y-118321105D01*
X216715015Y-118502883D01*
X214100000Y-118502883D01*
X214100000Y-117742767D01*
X226466636Y-117742767D01*
X226466636Y-117890505D01*
X226495458Y-118035403D01*
X226551995Y-118171894D01*
X226634073Y-118294733D01*
X226738539Y-118399199D01*
X226861378Y-118481277D01*
X226997869Y-118537814D01*
X227142767Y-118566636D01*
X227290505Y-118566636D01*
X227353137Y-118554178D01*
X227884721Y-119085762D01*
X227898026Y-119101974D01*
X227962740Y-119155084D01*
X228010855Y-119180801D01*
X228036572Y-119194548D01*
X228115074Y-119218361D01*
X228116686Y-119218850D01*
X228179126Y-119225000D01*
X228179133Y-119225000D01*
X228182158Y-119225298D01*
X228217437Y-119278097D01*
X228321903Y-119382563D01*
X228444742Y-119464641D01*
X228581233Y-119521178D01*
X228726131Y-119550000D01*
X228873869Y-119550000D01*
X229018767Y-119521178D01*
X229155258Y-119464641D01*
X229278097Y-119382563D01*
X229382563Y-119278097D01*
X229464641Y-119155258D01*
X229521178Y-119018767D01*
X229550000Y-118873869D01*
X229550000Y-118726131D01*
X229521178Y-118581233D01*
X229464641Y-118444742D01*
X229382563Y-118321903D01*
X229278097Y-118217437D01*
X229155258Y-118135359D01*
X229018767Y-118078822D01*
X228873869Y-118050000D01*
X228726131Y-118050000D01*
X228581233Y-118078822D01*
X228444742Y-118135359D01*
X228321903Y-118217437D01*
X228270190Y-118269150D01*
X227954178Y-117953137D01*
X227966636Y-117890505D01*
X227966636Y-117742767D01*
X227937814Y-117597869D01*
X227881277Y-117461378D01*
X227799199Y-117338539D01*
X227694733Y-117234073D01*
X227571894Y-117151995D01*
X227435403Y-117095458D01*
X227290505Y-117066636D01*
X227142767Y-117066636D01*
X226997869Y-117095458D01*
X226861378Y-117151995D01*
X226738539Y-117234073D01*
X226634073Y-117338539D01*
X226551995Y-117461378D01*
X226495458Y-117597869D01*
X226466636Y-117742767D01*
X214100000Y-117742767D01*
X214100000Y-110147138D01*
X216035925Y-108550000D01*
X223808578Y-108550000D01*
X225629289Y-110370711D01*
X225644443Y-110383147D01*
X225661732Y-110392388D01*
X225680491Y-110398079D01*
X225700000Y-110400000D01*
X228200000Y-110400000D01*
X228219509Y-110398079D01*
X228238268Y-110392388D01*
X228255557Y-110383147D01*
X228270711Y-110370711D01*
X228283147Y-110355557D01*
X228292388Y-110338268D01*
X228298079Y-110319509D01*
X228300000Y-110300000D01*
X228300000Y-110100000D01*
X228298079Y-110080491D01*
X228292388Y-110061732D01*
X228283147Y-110044443D01*
X228270711Y-110029289D01*
X228255557Y-110016853D01*
X228238268Y-110007612D01*
X228219509Y-110001921D01*
X228200000Y-110000000D01*
X225941422Y-110000000D01*
X224070711Y-108129289D01*
X224055557Y-108116853D01*
X224038268Y-108107612D01*
X224019509Y-108101921D01*
X224000000Y-108100000D01*
X215000000Y-108100000D01*
X214985813Y-108101011D01*
X214966774Y-108105681D01*
X214949012Y-108113976D01*
X214933209Y-108125576D01*
X212983209Y-109875576D01*
X212966853Y-109894443D01*
X212957612Y-109911732D01*
X212951921Y-109930491D01*
X212950000Y-109950000D01*
X212950000Y-127150000D01*
X200365565Y-127150000D01*
X200350009Y-127001991D01*
X200350000Y-126999354D01*
X200350000Y-120337489D01*
X201850000Y-120337489D01*
X201850000Y-120662511D01*
X201913408Y-120981287D01*
X202037789Y-121281568D01*
X202218361Y-121551814D01*
X202448186Y-121781639D01*
X202718432Y-121962211D01*
X203018713Y-122086592D01*
X203337489Y-122150000D01*
X203662511Y-122150000D01*
X203981287Y-122086592D01*
X204281568Y-121962211D01*
X204551814Y-121781639D01*
X204781639Y-121551814D01*
X204962211Y-121281568D01*
X205086592Y-120981287D01*
X205150000Y-120662511D01*
X205150000Y-120337489D01*
X205086592Y-120018713D01*
X204962211Y-119718432D01*
X204781639Y-119448186D01*
X204551814Y-119218361D01*
X204281568Y-119037789D01*
X203981287Y-118913408D01*
X203662511Y-118850000D01*
X203337489Y-118850000D01*
X203018713Y-118913408D01*
X202718432Y-119037789D01*
X202448186Y-119218361D01*
X202218361Y-119448186D01*
X202037789Y-119718432D01*
X201913408Y-120018713D01*
X201850000Y-120337489D01*
X200350000Y-120337489D01*
X200350000Y-97337489D01*
X201850000Y-97337489D01*
X201850000Y-97662511D01*
X201913408Y-97981287D01*
X202037789Y-98281568D01*
X202218361Y-98551814D01*
X202448186Y-98781639D01*
X202718432Y-98962211D01*
X203018713Y-99086592D01*
X203337489Y-99150000D01*
X203662511Y-99150000D01*
X203981287Y-99086592D01*
X204281568Y-98962211D01*
X204551814Y-98781639D01*
X204781639Y-98551814D01*
X204962211Y-98281568D01*
X205086592Y-97981287D01*
X205150000Y-97662511D01*
X205150000Y-97397919D01*
X205196130Y-97397919D01*
X205200001Y-97437219D01*
X205200000Y-101960709D01*
X205196130Y-102000000D01*
X205200000Y-102039291D01*
X205200000Y-102039292D01*
X205211576Y-102156826D01*
X205239840Y-102249999D01*
X205257321Y-102307627D01*
X205331607Y-102446606D01*
X205346079Y-102464240D01*
X205431578Y-102568422D01*
X205462103Y-102593473D01*
X208656532Y-105787903D01*
X208681579Y-105818423D01*
X208712099Y-105843470D01*
X208803394Y-105918394D01*
X208851804Y-105944270D01*
X208942373Y-105992680D01*
X209093174Y-106038425D01*
X209210708Y-106050001D01*
X209210717Y-106050001D01*
X209250000Y-106053870D01*
X209289283Y-106050001D01*
X217120708Y-106050001D01*
X217159999Y-106053871D01*
X217199290Y-106050001D01*
X217199292Y-106050001D01*
X217316826Y-106038425D01*
X217467627Y-105992680D01*
X217606605Y-105918394D01*
X217728421Y-105818423D01*
X217753472Y-105787898D01*
X217991370Y-105550000D01*
X241210709Y-105550000D01*
X241250000Y-105553870D01*
X241289291Y-105550000D01*
X241289293Y-105550000D01*
X241406827Y-105538424D01*
X241557628Y-105492679D01*
X241696606Y-105418393D01*
X241818422Y-105318422D01*
X241843473Y-105287897D01*
X243131358Y-104000013D01*
X248760696Y-104000013D01*
X248799987Y-104003883D01*
X248839278Y-104000013D01*
X248839280Y-104000013D01*
X248956814Y-103988437D01*
X249107615Y-103942692D01*
X249246593Y-103868406D01*
X249368409Y-103768435D01*
X249393460Y-103737910D01*
X249593469Y-103537901D01*
X249668393Y-103446606D01*
X249742679Y-103307627D01*
X249788423Y-103156828D01*
X249803870Y-103000001D01*
X249788423Y-102843173D01*
X249742679Y-102692373D01*
X249668393Y-102553394D01*
X249568421Y-102431579D01*
X249446606Y-102331607D01*
X249307627Y-102257321D01*
X249156827Y-102211577D01*
X248999999Y-102196130D01*
X248843172Y-102211577D01*
X248692373Y-102257321D01*
X248553394Y-102331607D01*
X248470041Y-102400013D01*
X242839278Y-102400013D01*
X242799987Y-102396143D01*
X242760696Y-102400013D01*
X242760694Y-102400013D01*
X242643160Y-102411589D01*
X242492359Y-102457334D01*
X242353380Y-102531620D01*
X242263865Y-102605083D01*
X242231565Y-102631591D01*
X242206518Y-102662111D01*
X240918630Y-103950000D01*
X217699282Y-103950000D01*
X217659999Y-103946131D01*
X217620716Y-103950000D01*
X217620707Y-103950000D01*
X217503173Y-103961576D01*
X217363706Y-104003883D01*
X217352372Y-104007321D01*
X217213393Y-104081607D01*
X217182004Y-104107368D01*
X217091578Y-104181578D01*
X217066527Y-104212103D01*
X216828629Y-104450001D01*
X215967740Y-104450001D01*
X216064938Y-104352803D01*
X215997119Y-104284984D01*
X216178895Y-104171107D01*
X216287169Y-103928221D01*
X216345978Y-103668879D01*
X216353062Y-103403046D01*
X216308149Y-103140940D01*
X216212964Y-102892632D01*
X216178895Y-102828893D01*
X215997117Y-102715015D01*
X215212132Y-103500000D01*
X215226275Y-103514143D01*
X215014143Y-103726275D01*
X215000000Y-103712132D01*
X214985858Y-103726275D01*
X214773726Y-103514143D01*
X214787868Y-103500000D01*
X214002883Y-102715015D01*
X213821105Y-102828893D01*
X213712831Y-103071779D01*
X213654022Y-103331121D01*
X213646938Y-103596954D01*
X213691851Y-103859060D01*
X213787036Y-104107368D01*
X213821105Y-104171107D01*
X214002881Y-104284984D01*
X213935062Y-104352803D01*
X214032260Y-104450001D01*
X209581372Y-104450001D01*
X207634254Y-102502883D01*
X214215015Y-102502883D01*
X215000000Y-103287868D01*
X215784985Y-102502883D01*
X215671107Y-102321105D01*
X215428221Y-102212831D01*
X215168879Y-102154022D01*
X214903046Y-102146938D01*
X214640940Y-102191851D01*
X214392632Y-102287036D01*
X214328893Y-102321105D01*
X214215015Y-102502883D01*
X207634254Y-102502883D01*
X206800000Y-101668630D01*
X206800000Y-97920000D01*
X207218549Y-97920000D01*
X207218549Y-99620000D01*
X207224341Y-99678810D01*
X207241496Y-99735360D01*
X207269353Y-99787477D01*
X207306842Y-99833158D01*
X207352523Y-99870647D01*
X207404640Y-99898504D01*
X207461190Y-99915659D01*
X207520000Y-99921451D01*
X209220000Y-99921451D01*
X209278810Y-99915659D01*
X209335360Y-99898504D01*
X209387477Y-99870647D01*
X209433158Y-99833158D01*
X209470647Y-99787477D01*
X209498504Y-99735360D01*
X209515659Y-99678810D01*
X209521451Y-99620000D01*
X209521451Y-98656735D01*
X209760000Y-98656735D01*
X209760000Y-98883265D01*
X209804194Y-99105443D01*
X209890884Y-99314729D01*
X210016737Y-99503082D01*
X210176918Y-99663263D01*
X210365271Y-99789116D01*
X210574557Y-99875806D01*
X210796735Y-99920000D01*
X211023265Y-99920000D01*
X211245443Y-99875806D01*
X211454729Y-99789116D01*
X211643082Y-99663263D01*
X211803263Y-99503082D01*
X211929116Y-99314729D01*
X212015806Y-99105443D01*
X212060000Y-98883265D01*
X212060000Y-98656735D01*
X212300000Y-98656735D01*
X212300000Y-98883265D01*
X212344194Y-99105443D01*
X212430884Y-99314729D01*
X212556737Y-99503082D01*
X212716918Y-99663263D01*
X212905271Y-99789116D01*
X213114557Y-99875806D01*
X213336735Y-99920000D01*
X213563265Y-99920000D01*
X213785443Y-99875806D01*
X213994729Y-99789116D01*
X214183082Y-99663263D01*
X214343263Y-99503082D01*
X214469116Y-99314729D01*
X214555806Y-99105443D01*
X214600000Y-98883265D01*
X214600000Y-98656735D01*
X214840000Y-98656735D01*
X214840000Y-98883265D01*
X214884194Y-99105443D01*
X214970884Y-99314729D01*
X215096737Y-99503082D01*
X215256918Y-99663263D01*
X215445271Y-99789116D01*
X215654557Y-99875806D01*
X215876735Y-99920000D01*
X216103265Y-99920000D01*
X216325443Y-99875806D01*
X216534729Y-99789116D01*
X216723082Y-99663263D01*
X216883263Y-99503082D01*
X217009116Y-99314729D01*
X217095806Y-99105443D01*
X217096012Y-99104403D01*
X217377528Y-99104403D01*
X217464911Y-99322814D01*
X217593225Y-99519980D01*
X217757539Y-99688325D01*
X217951538Y-99821379D01*
X218167767Y-99914029D01*
X218195598Y-99922465D01*
X218380000Y-99872341D01*
X218380000Y-98920000D01*
X218680000Y-98920000D01*
X218680000Y-99872341D01*
X218864402Y-99922465D01*
X218892233Y-99914029D01*
X219108462Y-99821379D01*
X219302461Y-99688325D01*
X219466775Y-99519980D01*
X219595089Y-99322814D01*
X219682472Y-99104403D01*
X219633095Y-98920000D01*
X218680000Y-98920000D01*
X218380000Y-98920000D01*
X217426905Y-98920000D01*
X217377528Y-99104403D01*
X217096012Y-99104403D01*
X217140000Y-98883265D01*
X217140000Y-98656735D01*
X219920000Y-98656735D01*
X219920000Y-98883265D01*
X219964194Y-99105443D01*
X220050884Y-99314729D01*
X220176737Y-99503082D01*
X220336918Y-99663263D01*
X220525271Y-99789116D01*
X220734557Y-99875806D01*
X220956735Y-99920000D01*
X221183265Y-99920000D01*
X221405443Y-99875806D01*
X221606417Y-99792559D01*
X221136518Y-100262458D01*
X221073885Y-100250000D01*
X220926147Y-100250000D01*
X220781249Y-100278822D01*
X220644758Y-100335359D01*
X220521919Y-100417437D01*
X220417453Y-100521903D01*
X220335375Y-100644742D01*
X220278838Y-100781233D01*
X220250016Y-100926131D01*
X220250016Y-101073869D01*
X220278838Y-101218767D01*
X220335375Y-101355258D01*
X220417453Y-101478097D01*
X220521919Y-101582563D01*
X220644758Y-101664641D01*
X220781249Y-101721178D01*
X220926147Y-101750000D01*
X221073885Y-101750000D01*
X221218783Y-101721178D01*
X221355274Y-101664641D01*
X221478113Y-101582563D01*
X221582579Y-101478097D01*
X221664657Y-101355258D01*
X221721194Y-101218767D01*
X221750016Y-101073869D01*
X221750016Y-100926131D01*
X221737558Y-100863498D01*
X222176056Y-100425000D01*
X228573960Y-100425000D01*
X228762458Y-100613499D01*
X228750000Y-100676131D01*
X228750000Y-100823869D01*
X228778822Y-100968767D01*
X228835359Y-101105258D01*
X228917437Y-101228097D01*
X229021903Y-101332563D01*
X229144742Y-101414641D01*
X229281233Y-101471178D01*
X229426131Y-101500000D01*
X229573869Y-101500000D01*
X229718767Y-101471178D01*
X229855258Y-101414641D01*
X229978097Y-101332563D01*
X230082563Y-101228097D01*
X230164641Y-101105258D01*
X230221045Y-100969089D01*
X231576955Y-102325000D01*
X229426041Y-102325000D01*
X228315273Y-101214233D01*
X228301964Y-101198016D01*
X228237250Y-101144906D01*
X228163417Y-101105442D01*
X228083304Y-101081140D01*
X228020864Y-101074990D01*
X228020857Y-101074990D01*
X227999990Y-101072935D01*
X227979123Y-101074990D01*
X227397009Y-101074990D01*
X227211272Y-100889254D01*
X227197963Y-100873037D01*
X227133249Y-100819927D01*
X227059416Y-100780463D01*
X226979303Y-100756161D01*
X226916863Y-100750011D01*
X226916856Y-100750011D01*
X226895989Y-100747956D01*
X226875122Y-100750011D01*
X226095856Y-100750011D01*
X226074989Y-100747956D01*
X226054122Y-100750011D01*
X226054115Y-100750011D01*
X225991675Y-100756161D01*
X225911562Y-100780463D01*
X225837729Y-100819927D01*
X225773015Y-100873037D01*
X225759705Y-100889255D01*
X225073960Y-101575000D01*
X224249779Y-101575000D01*
X224250000Y-101573889D01*
X224250000Y-101426151D01*
X224221178Y-101281253D01*
X224164641Y-101144762D01*
X224082563Y-101021923D01*
X223978097Y-100917457D01*
X223855258Y-100835379D01*
X223718767Y-100778842D01*
X223573869Y-100750020D01*
X223426131Y-100750020D01*
X223281233Y-100778842D01*
X223144742Y-100835379D01*
X223021903Y-100917457D01*
X222917437Y-101021923D01*
X222835359Y-101144762D01*
X222778822Y-101281253D01*
X222750000Y-101426151D01*
X222750000Y-101573889D01*
X222778822Y-101718787D01*
X222835359Y-101855278D01*
X222917437Y-101978117D01*
X223021903Y-102082583D01*
X223144742Y-102164661D01*
X223281233Y-102221198D01*
X223426131Y-102250020D01*
X223573869Y-102250020D01*
X223636501Y-102237562D01*
X223684699Y-102285760D01*
X223698006Y-102301974D01*
X223714218Y-102315279D01*
X223714219Y-102315280D01*
X223735689Y-102332900D01*
X223762720Y-102355084D01*
X223836553Y-102394548D01*
X223876056Y-102406531D01*
X223916665Y-102418850D01*
X223925078Y-102419679D01*
X223979106Y-102425000D01*
X223979112Y-102425000D01*
X223999979Y-102427055D01*
X224020846Y-102425000D01*
X225229133Y-102425000D01*
X225250000Y-102427055D01*
X225270867Y-102425000D01*
X225270874Y-102425000D01*
X225333314Y-102418850D01*
X225413427Y-102394548D01*
X225487260Y-102355084D01*
X225551974Y-102301974D01*
X225565284Y-102285756D01*
X225754496Y-102096544D01*
X225778810Y-102218779D01*
X225835347Y-102355270D01*
X225917425Y-102478109D01*
X226021891Y-102582575D01*
X226144730Y-102664653D01*
X226281221Y-102721190D01*
X226426119Y-102750012D01*
X226573857Y-102750012D01*
X226718755Y-102721190D01*
X226855246Y-102664653D01*
X226978085Y-102582575D01*
X227082551Y-102478109D01*
X227118037Y-102425000D01*
X227573960Y-102425000D01*
X228684721Y-103535762D01*
X228698026Y-103551974D01*
X228762740Y-103605084D01*
X228836573Y-103644548D01*
X228892383Y-103661478D01*
X228916685Y-103668850D01*
X228924327Y-103669603D01*
X228979126Y-103675000D01*
X228979133Y-103675000D01*
X229000000Y-103677055D01*
X229020867Y-103675000D01*
X237129133Y-103675000D01*
X237150000Y-103677055D01*
X237170867Y-103675000D01*
X237170874Y-103675000D01*
X237233314Y-103668850D01*
X237313427Y-103644548D01*
X237387260Y-103605084D01*
X237451974Y-103551974D01*
X237465283Y-103535757D01*
X238301040Y-102700001D01*
X240009768Y-102700001D01*
X240030635Y-102702056D01*
X240051502Y-102700001D01*
X240051509Y-102700001D01*
X240113949Y-102693851D01*
X240194062Y-102669549D01*
X240267895Y-102630085D01*
X240332609Y-102576975D01*
X240345919Y-102560757D01*
X240641316Y-102265360D01*
X240703949Y-102277818D01*
X240851687Y-102277818D01*
X240996585Y-102248996D01*
X241133076Y-102192459D01*
X241255915Y-102110381D01*
X241360381Y-102005915D01*
X241442459Y-101883076D01*
X241498996Y-101746585D01*
X241527818Y-101601687D01*
X241527818Y-101453949D01*
X241498996Y-101309051D01*
X241442459Y-101172560D01*
X241427384Y-101149999D01*
X242298959Y-101149999D01*
X242512458Y-101363499D01*
X242500000Y-101426131D01*
X242500000Y-101573869D01*
X242528822Y-101718767D01*
X242585359Y-101855258D01*
X242667437Y-101978097D01*
X242771903Y-102082563D01*
X242894742Y-102164641D01*
X243031233Y-102221178D01*
X243176131Y-102250000D01*
X243323869Y-102250000D01*
X243468767Y-102221178D01*
X243605258Y-102164641D01*
X243728097Y-102082563D01*
X243832563Y-101978097D01*
X243914641Y-101855258D01*
X243971178Y-101718767D01*
X244000000Y-101573869D01*
X244000000Y-101426131D01*
X243971178Y-101281233D01*
X243914641Y-101144742D01*
X243832563Y-101021903D01*
X243728097Y-100917437D01*
X243605258Y-100835359D01*
X243468767Y-100778822D01*
X243323869Y-100750000D01*
X243176131Y-100750000D01*
X243113499Y-100762458D01*
X242790282Y-100439242D01*
X242776973Y-100423025D01*
X242712259Y-100369915D01*
X242638426Y-100330451D01*
X242558313Y-100306149D01*
X242495873Y-100299999D01*
X242495866Y-100299999D01*
X242474999Y-100297944D01*
X242454132Y-100299999D01*
X240866819Y-100299999D01*
X240921178Y-100168766D01*
X240950000Y-100023868D01*
X240950000Y-99876130D01*
X240940541Y-99828579D01*
X241054557Y-99875806D01*
X241276735Y-99920000D01*
X241503265Y-99920000D01*
X241725443Y-99875806D01*
X241934729Y-99789116D01*
X242123082Y-99663263D01*
X242283263Y-99503082D01*
X242409116Y-99314729D01*
X242495806Y-99105443D01*
X242540000Y-98883265D01*
X242540000Y-98656735D01*
X242780000Y-98656735D01*
X242780000Y-98883265D01*
X242824194Y-99105443D01*
X242910884Y-99314729D01*
X243036737Y-99503082D01*
X243196918Y-99663263D01*
X243385271Y-99789116D01*
X243594557Y-99875806D01*
X243816735Y-99920000D01*
X244043265Y-99920000D01*
X244265443Y-99875806D01*
X244474729Y-99789116D01*
X244663082Y-99663263D01*
X244823263Y-99503082D01*
X244949116Y-99314729D01*
X245035806Y-99105443D01*
X245080000Y-98883265D01*
X245080000Y-98656735D01*
X245320000Y-98656735D01*
X245320000Y-98883265D01*
X245364194Y-99105443D01*
X245450884Y-99314729D01*
X245576737Y-99503082D01*
X245736918Y-99663263D01*
X245925271Y-99789116D01*
X246134557Y-99875806D01*
X246356735Y-99920000D01*
X246583265Y-99920000D01*
X246805443Y-99875806D01*
X247014729Y-99789116D01*
X247203082Y-99663263D01*
X247363263Y-99503082D01*
X247489116Y-99314729D01*
X247575806Y-99105443D01*
X247620000Y-98883265D01*
X247620000Y-98656735D01*
X247860000Y-98656735D01*
X247860000Y-98883265D01*
X247904194Y-99105443D01*
X247990884Y-99314729D01*
X248116737Y-99503082D01*
X248276918Y-99663263D01*
X248465271Y-99789116D01*
X248674557Y-99875806D01*
X248896735Y-99920000D01*
X249123265Y-99920000D01*
X249345443Y-99875806D01*
X249554729Y-99789116D01*
X249743082Y-99663263D01*
X249903263Y-99503082D01*
X250029116Y-99314729D01*
X250115806Y-99105443D01*
X250160000Y-98883265D01*
X250160000Y-98656735D01*
X250400000Y-98656735D01*
X250400000Y-98883265D01*
X250444194Y-99105443D01*
X250530884Y-99314729D01*
X250656737Y-99503082D01*
X250816918Y-99663263D01*
X251005271Y-99789116D01*
X251214557Y-99875806D01*
X251436735Y-99920000D01*
X251663265Y-99920000D01*
X251885443Y-99875806D01*
X252094729Y-99789116D01*
X252283082Y-99663263D01*
X252443263Y-99503082D01*
X252569116Y-99314729D01*
X252655806Y-99105443D01*
X252700000Y-98883265D01*
X252700000Y-98656735D01*
X252940000Y-98656735D01*
X252940000Y-98883265D01*
X252984194Y-99105443D01*
X253070884Y-99314729D01*
X253196737Y-99503082D01*
X253356918Y-99663263D01*
X253545271Y-99789116D01*
X253754557Y-99875806D01*
X253976735Y-99920000D01*
X254203265Y-99920000D01*
X254425443Y-99875806D01*
X254634729Y-99789116D01*
X254823082Y-99663263D01*
X254983263Y-99503082D01*
X255109116Y-99314729D01*
X255195806Y-99105443D01*
X255196012Y-99104403D01*
X255477528Y-99104403D01*
X255564911Y-99322814D01*
X255693225Y-99519980D01*
X255857539Y-99688325D01*
X256051538Y-99821379D01*
X256267767Y-99914029D01*
X256295598Y-99922465D01*
X256480000Y-99872341D01*
X256480000Y-98920000D01*
X256780000Y-98920000D01*
X256780000Y-99872341D01*
X256964402Y-99922465D01*
X256992233Y-99914029D01*
X257208462Y-99821379D01*
X257402461Y-99688325D01*
X257566775Y-99519980D01*
X257695089Y-99322814D01*
X257782472Y-99104403D01*
X257733095Y-98920000D01*
X256780000Y-98920000D01*
X256480000Y-98920000D01*
X255526905Y-98920000D01*
X255477528Y-99104403D01*
X255196012Y-99104403D01*
X255240000Y-98883265D01*
X255240000Y-98656735D01*
X255196013Y-98435597D01*
X255477528Y-98435597D01*
X255526905Y-98620000D01*
X256480000Y-98620000D01*
X256480000Y-97667659D01*
X256780000Y-97667659D01*
X256780000Y-98620000D01*
X257733095Y-98620000D01*
X257782472Y-98435597D01*
X257695089Y-98217186D01*
X257566775Y-98020020D01*
X257402461Y-97851675D01*
X257208462Y-97718621D01*
X256992233Y-97625971D01*
X256964402Y-97617535D01*
X256780000Y-97667659D01*
X256480000Y-97667659D01*
X256295598Y-97617535D01*
X256267767Y-97625971D01*
X256051538Y-97718621D01*
X255857539Y-97851675D01*
X255693225Y-98020020D01*
X255564911Y-98217186D01*
X255477528Y-98435597D01*
X255196013Y-98435597D01*
X255195806Y-98434557D01*
X255109116Y-98225271D01*
X254983263Y-98036918D01*
X254823082Y-97876737D01*
X254634729Y-97750884D01*
X254425443Y-97664194D01*
X254203265Y-97620000D01*
X253976735Y-97620000D01*
X253754557Y-97664194D01*
X253545271Y-97750884D01*
X253356918Y-97876737D01*
X253196737Y-98036918D01*
X253070884Y-98225271D01*
X252984194Y-98434557D01*
X252940000Y-98656735D01*
X252700000Y-98656735D01*
X252655806Y-98434557D01*
X252569116Y-98225271D01*
X252443263Y-98036918D01*
X252283082Y-97876737D01*
X252094729Y-97750884D01*
X251885443Y-97664194D01*
X251663265Y-97620000D01*
X251436735Y-97620000D01*
X251214557Y-97664194D01*
X251005271Y-97750884D01*
X250816918Y-97876737D01*
X250656737Y-98036918D01*
X250530884Y-98225271D01*
X250444194Y-98434557D01*
X250400000Y-98656735D01*
X250160000Y-98656735D01*
X250115806Y-98434557D01*
X250029116Y-98225271D01*
X249903263Y-98036918D01*
X249743082Y-97876737D01*
X249554729Y-97750884D01*
X249345443Y-97664194D01*
X249123265Y-97620000D01*
X248896735Y-97620000D01*
X248674557Y-97664194D01*
X248465271Y-97750884D01*
X248276918Y-97876737D01*
X248116737Y-98036918D01*
X247990884Y-98225271D01*
X247904194Y-98434557D01*
X247860000Y-98656735D01*
X247620000Y-98656735D01*
X247575806Y-98434557D01*
X247489116Y-98225271D01*
X247363263Y-98036918D01*
X247203082Y-97876737D01*
X247014729Y-97750884D01*
X246805443Y-97664194D01*
X246583265Y-97620000D01*
X246356735Y-97620000D01*
X246134557Y-97664194D01*
X245925271Y-97750884D01*
X245736918Y-97876737D01*
X245576737Y-98036918D01*
X245450884Y-98225271D01*
X245364194Y-98434557D01*
X245320000Y-98656735D01*
X245080000Y-98656735D01*
X245035806Y-98434557D01*
X244949116Y-98225271D01*
X244823263Y-98036918D01*
X244663082Y-97876737D01*
X244474729Y-97750884D01*
X244265443Y-97664194D01*
X244043265Y-97620000D01*
X243816735Y-97620000D01*
X243594557Y-97664194D01*
X243385271Y-97750884D01*
X243196918Y-97876737D01*
X243036737Y-98036918D01*
X242910884Y-98225271D01*
X242824194Y-98434557D01*
X242780000Y-98656735D01*
X242540000Y-98656735D01*
X242495806Y-98434557D01*
X242409116Y-98225271D01*
X242283263Y-98036918D01*
X242123082Y-97876737D01*
X241934729Y-97750884D01*
X241725443Y-97664194D01*
X241503265Y-97620000D01*
X241276735Y-97620000D01*
X241054557Y-97664194D01*
X240845271Y-97750884D01*
X240656918Y-97876737D01*
X240496737Y-98036918D01*
X240370884Y-98225271D01*
X240284194Y-98434557D01*
X240240000Y-98656735D01*
X240240000Y-98883265D01*
X240284194Y-99105443D01*
X240327805Y-99210727D01*
X240273869Y-99199999D01*
X240126131Y-99199999D01*
X239981233Y-99228821D01*
X239947025Y-99242990D01*
X240002472Y-99104403D01*
X239953095Y-98920000D01*
X239000000Y-98920000D01*
X239000000Y-98940000D01*
X238700000Y-98940000D01*
X238700000Y-98920000D01*
X237746905Y-98920000D01*
X237697528Y-99104403D01*
X237784911Y-99322814D01*
X237913225Y-99519980D01*
X238077539Y-99688325D01*
X238271538Y-99821379D01*
X238338309Y-99849989D01*
X237763451Y-99849989D01*
X237742584Y-99847934D01*
X237721717Y-99849989D01*
X237721711Y-99849989D01*
X237667683Y-99855310D01*
X237659270Y-99856139D01*
X237634968Y-99863511D01*
X237579158Y-99880441D01*
X237505325Y-99919905D01*
X237440611Y-99973015D01*
X237427306Y-99989227D01*
X237145288Y-100271245D01*
X237082656Y-100258787D01*
X236934918Y-100258787D01*
X236790020Y-100287609D01*
X236653529Y-100344146D01*
X236530690Y-100426224D01*
X236426224Y-100530690D01*
X236344146Y-100653529D01*
X236287609Y-100790020D01*
X236258787Y-100934918D01*
X236258787Y-101082656D01*
X236287609Y-101227554D01*
X236344146Y-101364045D01*
X236426224Y-101486884D01*
X236530690Y-101591350D01*
X236653529Y-101673428D01*
X236784763Y-101727787D01*
X236687550Y-101825000D01*
X235076040Y-101825000D01*
X236595763Y-100305278D01*
X236611974Y-100291974D01*
X236625914Y-100274989D01*
X236665083Y-100227261D01*
X236665084Y-100227260D01*
X236704548Y-100153427D01*
X236725817Y-100083314D01*
X236728850Y-100073315D01*
X236731436Y-100047054D01*
X236735000Y-100010874D01*
X236735000Y-100010868D01*
X236737055Y-99990001D01*
X236735000Y-99969134D01*
X236735000Y-99838710D01*
X236854729Y-99789116D01*
X237043082Y-99663263D01*
X237203263Y-99503082D01*
X237329116Y-99314729D01*
X237415806Y-99105443D01*
X237460000Y-98883265D01*
X237460000Y-98656735D01*
X237416013Y-98435597D01*
X237697528Y-98435597D01*
X237746905Y-98620000D01*
X238700000Y-98620000D01*
X238700000Y-97667659D01*
X239000000Y-97667659D01*
X239000000Y-98620000D01*
X239953095Y-98620000D01*
X240002472Y-98435597D01*
X239915089Y-98217186D01*
X239786775Y-98020020D01*
X239622461Y-97851675D01*
X239428462Y-97718621D01*
X239212233Y-97625971D01*
X239184402Y-97617535D01*
X239000000Y-97667659D01*
X238700000Y-97667659D01*
X238515598Y-97617535D01*
X238487767Y-97625971D01*
X238271538Y-97718621D01*
X238077539Y-97851675D01*
X237913225Y-98020020D01*
X237784911Y-98217186D01*
X237697528Y-98435597D01*
X237416013Y-98435597D01*
X237415806Y-98434557D01*
X237329116Y-98225271D01*
X237203263Y-98036918D01*
X237043082Y-97876737D01*
X236854729Y-97750884D01*
X236645443Y-97664194D01*
X236423265Y-97620000D01*
X236196735Y-97620000D01*
X235974557Y-97664194D01*
X235765271Y-97750884D01*
X235576918Y-97876737D01*
X235416737Y-98036918D01*
X235290884Y-98225271D01*
X235204194Y-98434557D01*
X235160000Y-98656735D01*
X235160000Y-98883265D01*
X235204194Y-99105443D01*
X235290884Y-99314729D01*
X235416737Y-99503082D01*
X235576918Y-99663263D01*
X235765271Y-99789116D01*
X235867499Y-99831460D01*
X234323970Y-101374990D01*
X232976027Y-101374990D01*
X232487542Y-100886505D01*
X232500000Y-100823873D01*
X232500000Y-100676135D01*
X232471178Y-100531237D01*
X232414641Y-100394746D01*
X232332563Y-100271907D01*
X232228097Y-100167441D01*
X232105258Y-100085363D01*
X231968767Y-100028826D01*
X231823869Y-100000004D01*
X231676131Y-100000004D01*
X231531233Y-100028826D01*
X231394742Y-100085363D01*
X231271903Y-100167441D01*
X231167437Y-100271907D01*
X231085359Y-100394746D01*
X231028822Y-100531237D01*
X231021597Y-100567560D01*
X229944970Y-99490934D01*
X229934547Y-99456573D01*
X229934547Y-99456572D01*
X229895083Y-99382739D01*
X229841973Y-99318025D01*
X229825762Y-99304721D01*
X229746212Y-99225171D01*
X229795806Y-99105443D01*
X229840000Y-98883265D01*
X229840000Y-98656735D01*
X230080000Y-98656735D01*
X230080000Y-98883265D01*
X230124194Y-99105443D01*
X230210884Y-99314729D01*
X230336737Y-99503082D01*
X230496918Y-99663263D01*
X230685271Y-99789116D01*
X230894557Y-99875806D01*
X231116735Y-99920000D01*
X231343265Y-99920000D01*
X231565443Y-99875806D01*
X231774729Y-99789116D01*
X231963082Y-99663263D01*
X232123263Y-99503082D01*
X232249116Y-99314729D01*
X232335806Y-99105443D01*
X232380000Y-98883265D01*
X232380000Y-98656735D01*
X232620000Y-98656735D01*
X232620000Y-98883265D01*
X232664194Y-99105443D01*
X232750884Y-99314729D01*
X232876737Y-99503082D01*
X233036918Y-99663263D01*
X233225271Y-99789116D01*
X233434557Y-99875806D01*
X233656735Y-99920000D01*
X233883265Y-99920000D01*
X234105443Y-99875806D01*
X234314729Y-99789116D01*
X234503082Y-99663263D01*
X234663263Y-99503082D01*
X234789116Y-99314729D01*
X234875806Y-99105443D01*
X234920000Y-98883265D01*
X234920000Y-98656735D01*
X234875806Y-98434557D01*
X234789116Y-98225271D01*
X234663263Y-98036918D01*
X234503082Y-97876737D01*
X234314729Y-97750884D01*
X234105443Y-97664194D01*
X233883265Y-97620000D01*
X233656735Y-97620000D01*
X233434557Y-97664194D01*
X233225271Y-97750884D01*
X233036918Y-97876737D01*
X232876737Y-98036918D01*
X232750884Y-98225271D01*
X232664194Y-98434557D01*
X232620000Y-98656735D01*
X232380000Y-98656735D01*
X232335806Y-98434557D01*
X232249116Y-98225271D01*
X232123263Y-98036918D01*
X231963082Y-97876737D01*
X231774729Y-97750884D01*
X231565443Y-97664194D01*
X231343265Y-97620000D01*
X231116735Y-97620000D01*
X230894557Y-97664194D01*
X230685271Y-97750884D01*
X230496918Y-97876737D01*
X230336737Y-98036918D01*
X230210884Y-98225271D01*
X230124194Y-98434557D01*
X230080000Y-98656735D01*
X229840000Y-98656735D01*
X229795806Y-98434557D01*
X229709116Y-98225271D01*
X229583263Y-98036918D01*
X229423082Y-97876737D01*
X229234729Y-97750884D01*
X229025443Y-97664194D01*
X228803265Y-97620000D01*
X228576735Y-97620000D01*
X228354557Y-97664194D01*
X228145271Y-97750884D01*
X227956918Y-97876737D01*
X227796737Y-98036918D01*
X227670884Y-98225271D01*
X227584194Y-98434557D01*
X227540000Y-98656735D01*
X227540000Y-98883265D01*
X227584194Y-99105443D01*
X227670884Y-99314729D01*
X227796737Y-99503082D01*
X227868655Y-99575000D01*
X226971345Y-99575000D01*
X227043263Y-99503082D01*
X227169116Y-99314729D01*
X227255806Y-99105443D01*
X227300000Y-98883265D01*
X227300000Y-98656735D01*
X227255806Y-98434557D01*
X227169116Y-98225271D01*
X227043263Y-98036918D01*
X226883082Y-97876737D01*
X226694729Y-97750884D01*
X226485443Y-97664194D01*
X226263265Y-97620000D01*
X226036735Y-97620000D01*
X225814557Y-97664194D01*
X225605271Y-97750884D01*
X225416918Y-97876737D01*
X225256737Y-98036918D01*
X225130884Y-98225271D01*
X225044194Y-98434557D01*
X225000000Y-98656735D01*
X225000000Y-98883265D01*
X225044194Y-99105443D01*
X225130884Y-99314729D01*
X225256737Y-99503082D01*
X225328655Y-99575000D01*
X224431345Y-99575000D01*
X224503263Y-99503082D01*
X224629116Y-99314729D01*
X224715806Y-99105443D01*
X224760000Y-98883265D01*
X224760000Y-98656735D01*
X224715806Y-98434557D01*
X224629116Y-98225271D01*
X224503263Y-98036918D01*
X224343082Y-97876737D01*
X224154729Y-97750884D01*
X223945443Y-97664194D01*
X223723265Y-97620000D01*
X223496735Y-97620000D01*
X223274557Y-97664194D01*
X223065271Y-97750884D01*
X222876918Y-97876737D01*
X222716737Y-98036918D01*
X222590884Y-98225271D01*
X222504194Y-98434557D01*
X222460000Y-98656735D01*
X222460000Y-98883265D01*
X222504194Y-99105443D01*
X222590884Y-99314729D01*
X222716737Y-99503082D01*
X222788655Y-99575000D01*
X222020890Y-99575000D01*
X222000016Y-99572944D01*
X221979142Y-99575000D01*
X221916702Y-99581150D01*
X221871476Y-99594869D01*
X221963263Y-99503082D01*
X222089116Y-99314729D01*
X222175806Y-99105443D01*
X222220000Y-98883265D01*
X222220000Y-98656735D01*
X222175806Y-98434557D01*
X222089116Y-98225271D01*
X221963263Y-98036918D01*
X221803082Y-97876737D01*
X221614729Y-97750884D01*
X221405443Y-97664194D01*
X221183265Y-97620000D01*
X220956735Y-97620000D01*
X220734557Y-97664194D01*
X220525271Y-97750884D01*
X220336918Y-97876737D01*
X220176737Y-98036918D01*
X220050884Y-98225271D01*
X219964194Y-98434557D01*
X219920000Y-98656735D01*
X217140000Y-98656735D01*
X217096013Y-98435597D01*
X217377528Y-98435597D01*
X217426905Y-98620000D01*
X218380000Y-98620000D01*
X218380000Y-97667659D01*
X218680000Y-97667659D01*
X218680000Y-98620000D01*
X219633095Y-98620000D01*
X219682472Y-98435597D01*
X219595089Y-98217186D01*
X219466775Y-98020020D01*
X219302461Y-97851675D01*
X219108462Y-97718621D01*
X218892233Y-97625971D01*
X218864402Y-97617535D01*
X218680000Y-97667659D01*
X218380000Y-97667659D01*
X218195598Y-97617535D01*
X218167767Y-97625971D01*
X217951538Y-97718621D01*
X217757539Y-97851675D01*
X217593225Y-98020020D01*
X217464911Y-98217186D01*
X217377528Y-98435597D01*
X217096013Y-98435597D01*
X217095806Y-98434557D01*
X217009116Y-98225271D01*
X216883263Y-98036918D01*
X216723082Y-97876737D01*
X216534729Y-97750884D01*
X216325443Y-97664194D01*
X216103265Y-97620000D01*
X215876735Y-97620000D01*
X215654557Y-97664194D01*
X215445271Y-97750884D01*
X215256918Y-97876737D01*
X215096737Y-98036918D01*
X214970884Y-98225271D01*
X214884194Y-98434557D01*
X214840000Y-98656735D01*
X214600000Y-98656735D01*
X214555806Y-98434557D01*
X214469116Y-98225271D01*
X214343263Y-98036918D01*
X214183082Y-97876737D01*
X213994729Y-97750884D01*
X213785443Y-97664194D01*
X213563265Y-97620000D01*
X213336735Y-97620000D01*
X213114557Y-97664194D01*
X212905271Y-97750884D01*
X212716918Y-97876737D01*
X212556737Y-98036918D01*
X212430884Y-98225271D01*
X212344194Y-98434557D01*
X212300000Y-98656735D01*
X212060000Y-98656735D01*
X212015806Y-98434557D01*
X211929116Y-98225271D01*
X211803263Y-98036918D01*
X211643082Y-97876737D01*
X211454729Y-97750884D01*
X211245443Y-97664194D01*
X211023265Y-97620000D01*
X210796735Y-97620000D01*
X210574557Y-97664194D01*
X210365271Y-97750884D01*
X210176918Y-97876737D01*
X210016737Y-98036918D01*
X209890884Y-98225271D01*
X209804194Y-98434557D01*
X209760000Y-98656735D01*
X209521451Y-98656735D01*
X209521451Y-97920000D01*
X209515659Y-97861190D01*
X209498504Y-97804640D01*
X209470647Y-97752523D01*
X209433158Y-97706842D01*
X209387477Y-97669353D01*
X209335360Y-97641496D01*
X209278810Y-97624341D01*
X209220000Y-97618549D01*
X207520000Y-97618549D01*
X207461190Y-97624341D01*
X207404640Y-97641496D01*
X207352523Y-97669353D01*
X207306842Y-97706842D01*
X207269353Y-97752523D01*
X207241496Y-97804640D01*
X207224341Y-97861190D01*
X207218549Y-97920000D01*
X206800000Y-97920000D01*
X206800000Y-97729289D01*
X207499290Y-97030000D01*
X207543655Y-97030000D01*
X207636918Y-97123263D01*
X207825271Y-97249116D01*
X208034557Y-97335806D01*
X208256735Y-97380000D01*
X208483265Y-97380000D01*
X208705443Y-97335806D01*
X208914729Y-97249116D01*
X209103082Y-97123263D01*
X209263263Y-96963082D01*
X209389116Y-96774729D01*
X209475806Y-96565443D01*
X209520000Y-96343265D01*
X209520000Y-96116735D01*
X209760000Y-96116735D01*
X209760000Y-96343265D01*
X209804194Y-96565443D01*
X209890884Y-96774729D01*
X210016737Y-96963082D01*
X210176918Y-97123263D01*
X210365271Y-97249116D01*
X210574557Y-97335806D01*
X210796735Y-97380000D01*
X211023265Y-97380000D01*
X211245443Y-97335806D01*
X211454729Y-97249116D01*
X211643082Y-97123263D01*
X211803263Y-96963082D01*
X211929116Y-96774729D01*
X212015806Y-96565443D01*
X212016012Y-96564403D01*
X212297528Y-96564403D01*
X212384911Y-96782814D01*
X212513225Y-96979980D01*
X212677539Y-97148325D01*
X212871538Y-97281379D01*
X213087767Y-97374029D01*
X213115598Y-97382465D01*
X213300000Y-97332341D01*
X213300000Y-96380000D01*
X213600000Y-96380000D01*
X213600000Y-97332341D01*
X213784402Y-97382465D01*
X213812233Y-97374029D01*
X214028462Y-97281379D01*
X214222461Y-97148325D01*
X214386775Y-96979980D01*
X214515089Y-96782814D01*
X214602472Y-96564403D01*
X214553095Y-96380000D01*
X213600000Y-96380000D01*
X213300000Y-96380000D01*
X212346905Y-96380000D01*
X212297528Y-96564403D01*
X212016012Y-96564403D01*
X212060000Y-96343265D01*
X212060000Y-96116735D01*
X214840000Y-96116735D01*
X214840000Y-96343265D01*
X214884194Y-96565443D01*
X214970884Y-96774729D01*
X215096737Y-96963082D01*
X215256918Y-97123263D01*
X215445271Y-97249116D01*
X215654557Y-97335806D01*
X215876735Y-97380000D01*
X216103265Y-97380000D01*
X216325443Y-97335806D01*
X216534729Y-97249116D01*
X216723082Y-97123263D01*
X216883263Y-96963082D01*
X217009116Y-96774729D01*
X217095806Y-96565443D01*
X217140000Y-96343265D01*
X217140000Y-96116735D01*
X217380000Y-96116735D01*
X217380000Y-96343265D01*
X217424194Y-96565443D01*
X217510884Y-96774729D01*
X217636737Y-96963082D01*
X217796918Y-97123263D01*
X217985271Y-97249116D01*
X218194557Y-97335806D01*
X218416735Y-97380000D01*
X218643265Y-97380000D01*
X218865443Y-97335806D01*
X219074729Y-97249116D01*
X219263082Y-97123263D01*
X219423263Y-96963082D01*
X219549116Y-96774729D01*
X219635806Y-96565443D01*
X219680000Y-96343265D01*
X219680000Y-96116735D01*
X219920000Y-96116735D01*
X219920000Y-96343265D01*
X219964194Y-96565443D01*
X220050884Y-96774729D01*
X220176737Y-96963082D01*
X220336918Y-97123263D01*
X220525271Y-97249116D01*
X220734557Y-97335806D01*
X220956735Y-97380000D01*
X221183265Y-97380000D01*
X221405443Y-97335806D01*
X221614729Y-97249116D01*
X221803082Y-97123263D01*
X221963263Y-96963082D01*
X222089116Y-96774729D01*
X222175806Y-96565443D01*
X222176012Y-96564403D01*
X222457528Y-96564403D01*
X222544911Y-96782814D01*
X222673225Y-96979980D01*
X222837539Y-97148325D01*
X223031538Y-97281379D01*
X223247767Y-97374029D01*
X223275598Y-97382465D01*
X223460000Y-97332341D01*
X223460000Y-96380000D01*
X223760000Y-96380000D01*
X223760000Y-97332341D01*
X223944402Y-97382465D01*
X223972233Y-97374029D01*
X224188462Y-97281379D01*
X224382461Y-97148325D01*
X224546775Y-96979980D01*
X224675089Y-96782814D01*
X224762472Y-96564403D01*
X224713095Y-96380000D01*
X223760000Y-96380000D01*
X223460000Y-96380000D01*
X222506905Y-96380000D01*
X222457528Y-96564403D01*
X222176012Y-96564403D01*
X222220000Y-96343265D01*
X222220000Y-96116735D01*
X225000000Y-96116735D01*
X225000000Y-96343265D01*
X225044194Y-96565443D01*
X225130884Y-96774729D01*
X225256737Y-96963082D01*
X225416918Y-97123263D01*
X225605271Y-97249116D01*
X225814557Y-97335806D01*
X226036735Y-97380000D01*
X226263265Y-97380000D01*
X226485443Y-97335806D01*
X226694729Y-97249116D01*
X226883082Y-97123263D01*
X227043263Y-96963082D01*
X227169116Y-96774729D01*
X227255806Y-96565443D01*
X227300000Y-96343265D01*
X227300000Y-96116735D01*
X227540000Y-96116735D01*
X227540000Y-96343265D01*
X227584194Y-96565443D01*
X227670884Y-96774729D01*
X227796737Y-96963082D01*
X227956918Y-97123263D01*
X228145271Y-97249116D01*
X228354557Y-97335806D01*
X228576735Y-97380000D01*
X228803265Y-97380000D01*
X229025443Y-97335806D01*
X229234729Y-97249116D01*
X229423082Y-97123263D01*
X229583263Y-96963082D01*
X229709116Y-96774729D01*
X229795806Y-96565443D01*
X229796012Y-96564403D01*
X230077528Y-96564403D01*
X230164911Y-96782814D01*
X230293225Y-96979980D01*
X230457539Y-97148325D01*
X230651538Y-97281379D01*
X230867767Y-97374029D01*
X230895598Y-97382465D01*
X231080000Y-97332341D01*
X231080000Y-96380000D01*
X231380000Y-96380000D01*
X231380000Y-97332341D01*
X231564402Y-97382465D01*
X231592233Y-97374029D01*
X231808462Y-97281379D01*
X232002461Y-97148325D01*
X232166775Y-96979980D01*
X232295089Y-96782814D01*
X232382472Y-96564403D01*
X232333095Y-96380000D01*
X231380000Y-96380000D01*
X231080000Y-96380000D01*
X230126905Y-96380000D01*
X230077528Y-96564403D01*
X229796012Y-96564403D01*
X229840000Y-96343265D01*
X229840000Y-96116735D01*
X232620000Y-96116735D01*
X232620000Y-96343265D01*
X232664194Y-96565443D01*
X232750884Y-96774729D01*
X232876737Y-96963082D01*
X233036918Y-97123263D01*
X233225271Y-97249116D01*
X233434557Y-97335806D01*
X233656735Y-97380000D01*
X233883265Y-97380000D01*
X234105443Y-97335806D01*
X234314729Y-97249116D01*
X234503082Y-97123263D01*
X234663263Y-96963082D01*
X234789116Y-96774729D01*
X234875806Y-96565443D01*
X234920000Y-96343265D01*
X234920000Y-96116735D01*
X235160000Y-96116735D01*
X235160000Y-96343265D01*
X235204194Y-96565443D01*
X235290884Y-96774729D01*
X235416737Y-96963082D01*
X235576918Y-97123263D01*
X235765271Y-97249116D01*
X235974557Y-97335806D01*
X236196735Y-97380000D01*
X236423265Y-97380000D01*
X236645443Y-97335806D01*
X236854729Y-97249116D01*
X237043082Y-97123263D01*
X237203263Y-96963082D01*
X237329116Y-96774729D01*
X237415806Y-96565443D01*
X237460000Y-96343265D01*
X237460000Y-96116735D01*
X237700000Y-96116735D01*
X237700000Y-96343265D01*
X237744194Y-96565443D01*
X237830884Y-96774729D01*
X237956737Y-96963082D01*
X238116918Y-97123263D01*
X238305271Y-97249116D01*
X238514557Y-97335806D01*
X238736735Y-97380000D01*
X238963265Y-97380000D01*
X239185443Y-97335806D01*
X239394729Y-97249116D01*
X239583082Y-97123263D01*
X239743263Y-96963082D01*
X239869116Y-96774729D01*
X239955806Y-96565443D01*
X240000000Y-96343265D01*
X240000000Y-96116735D01*
X240240000Y-96116735D01*
X240240000Y-96343265D01*
X240284194Y-96565443D01*
X240370884Y-96774729D01*
X240496737Y-96963082D01*
X240656918Y-97123263D01*
X240845271Y-97249116D01*
X241054557Y-97335806D01*
X241276735Y-97380000D01*
X241503265Y-97380000D01*
X241725443Y-97335806D01*
X241934729Y-97249116D01*
X242123082Y-97123263D01*
X242283263Y-96963082D01*
X242409116Y-96774729D01*
X242495806Y-96565443D01*
X242496012Y-96564403D01*
X242777528Y-96564403D01*
X242864911Y-96782814D01*
X242993225Y-96979980D01*
X243157539Y-97148325D01*
X243351538Y-97281379D01*
X243567767Y-97374029D01*
X243595598Y-97382465D01*
X243780000Y-97332341D01*
X243780000Y-96380000D01*
X244080000Y-96380000D01*
X244080000Y-97332341D01*
X244264402Y-97382465D01*
X244292233Y-97374029D01*
X244508462Y-97281379D01*
X244702461Y-97148325D01*
X244866775Y-96979980D01*
X244995089Y-96782814D01*
X245082472Y-96564403D01*
X245033095Y-96380000D01*
X244080000Y-96380000D01*
X243780000Y-96380000D01*
X242826905Y-96380000D01*
X242777528Y-96564403D01*
X242496012Y-96564403D01*
X242540000Y-96343265D01*
X242540000Y-96116735D01*
X245320000Y-96116735D01*
X245320000Y-96343265D01*
X245364194Y-96565443D01*
X245450884Y-96774729D01*
X245576737Y-96963082D01*
X245736918Y-97123263D01*
X245925271Y-97249116D01*
X246134557Y-97335806D01*
X246356735Y-97380000D01*
X246583265Y-97380000D01*
X246805443Y-97335806D01*
X247014729Y-97249116D01*
X247203082Y-97123263D01*
X247363263Y-96963082D01*
X247489116Y-96774729D01*
X247575806Y-96565443D01*
X247576012Y-96564403D01*
X247857528Y-96564403D01*
X247944911Y-96782814D01*
X248073225Y-96979980D01*
X248237539Y-97148325D01*
X248431538Y-97281379D01*
X248647767Y-97374029D01*
X248675598Y-97382465D01*
X248860000Y-97332341D01*
X248860000Y-96380000D01*
X249160000Y-96380000D01*
X249160000Y-97332341D01*
X249344402Y-97382465D01*
X249372233Y-97374029D01*
X249588462Y-97281379D01*
X249782461Y-97148325D01*
X249946775Y-96979980D01*
X250075089Y-96782814D01*
X250162472Y-96564403D01*
X250113095Y-96380000D01*
X249160000Y-96380000D01*
X248860000Y-96380000D01*
X247906905Y-96380000D01*
X247857528Y-96564403D01*
X247576012Y-96564403D01*
X247620000Y-96343265D01*
X247620000Y-96116735D01*
X250400000Y-96116735D01*
X250400000Y-96343265D01*
X250444194Y-96565443D01*
X250530884Y-96774729D01*
X250656737Y-96963082D01*
X250816918Y-97123263D01*
X251005271Y-97249116D01*
X251214557Y-97335806D01*
X251436735Y-97380000D01*
X251663265Y-97380000D01*
X251885443Y-97335806D01*
X252094729Y-97249116D01*
X252283082Y-97123263D01*
X252443263Y-96963082D01*
X252569116Y-96774729D01*
X252655806Y-96565443D01*
X252700000Y-96343265D01*
X252700000Y-96116735D01*
X252940000Y-96116735D01*
X252940000Y-96343265D01*
X252984194Y-96565443D01*
X253070884Y-96774729D01*
X253196737Y-96963082D01*
X253356918Y-97123263D01*
X253545271Y-97249116D01*
X253754557Y-97335806D01*
X253976735Y-97380000D01*
X254203265Y-97380000D01*
X254425443Y-97335806D01*
X254634729Y-97249116D01*
X254823082Y-97123263D01*
X254983263Y-96963082D01*
X255109116Y-96774729D01*
X255195806Y-96565443D01*
X255240000Y-96343265D01*
X255240000Y-96116735D01*
X255480000Y-96116735D01*
X255480000Y-96343265D01*
X255524194Y-96565443D01*
X255610884Y-96774729D01*
X255736737Y-96963082D01*
X255896918Y-97123263D01*
X256085271Y-97249116D01*
X256294557Y-97335806D01*
X256516735Y-97380000D01*
X256743265Y-97380000D01*
X256956981Y-97337489D01*
X259850000Y-97337489D01*
X259850000Y-97662511D01*
X259913408Y-97981287D01*
X260037789Y-98281568D01*
X260218361Y-98551814D01*
X260448186Y-98781639D01*
X260718432Y-98962211D01*
X261018713Y-99086592D01*
X261337489Y-99150000D01*
X261662511Y-99150000D01*
X261981287Y-99086592D01*
X262281568Y-98962211D01*
X262551814Y-98781639D01*
X262781639Y-98551814D01*
X262962211Y-98281568D01*
X263086592Y-97981287D01*
X263150000Y-97662511D01*
X263150000Y-97337489D01*
X263086592Y-97018713D01*
X262962211Y-96718432D01*
X262781639Y-96448186D01*
X262551814Y-96218361D01*
X262281568Y-96037789D01*
X261981287Y-95913408D01*
X261662511Y-95850000D01*
X261337489Y-95850000D01*
X261018713Y-95913408D01*
X260718432Y-96037789D01*
X260448186Y-96218361D01*
X260218361Y-96448186D01*
X260037789Y-96718432D01*
X259913408Y-97018713D01*
X259850000Y-97337489D01*
X256956981Y-97337489D01*
X256965443Y-97335806D01*
X257174729Y-97249116D01*
X257363082Y-97123263D01*
X257523263Y-96963082D01*
X257649116Y-96774729D01*
X257735806Y-96565443D01*
X257780000Y-96343265D01*
X257780000Y-96116735D01*
X257735806Y-95894557D01*
X257649116Y-95685271D01*
X257523263Y-95496918D01*
X257363082Y-95336737D01*
X257174729Y-95210884D01*
X256965443Y-95124194D01*
X256743265Y-95080000D01*
X256516735Y-95080000D01*
X256294557Y-95124194D01*
X256085271Y-95210884D01*
X255896918Y-95336737D01*
X255736737Y-95496918D01*
X255610884Y-95685271D01*
X255524194Y-95894557D01*
X255480000Y-96116735D01*
X255240000Y-96116735D01*
X255195806Y-95894557D01*
X255109116Y-95685271D01*
X254983263Y-95496918D01*
X254823082Y-95336737D01*
X254634729Y-95210884D01*
X254425443Y-95124194D01*
X254203265Y-95080000D01*
X253976735Y-95080000D01*
X253754557Y-95124194D01*
X253545271Y-95210884D01*
X253356918Y-95336737D01*
X253196737Y-95496918D01*
X253070884Y-95685271D01*
X252984194Y-95894557D01*
X252940000Y-96116735D01*
X252700000Y-96116735D01*
X252655806Y-95894557D01*
X252569116Y-95685271D01*
X252443263Y-95496918D01*
X252283082Y-95336737D01*
X252094729Y-95210884D01*
X251885443Y-95124194D01*
X251663265Y-95080000D01*
X251436735Y-95080000D01*
X251214557Y-95124194D01*
X251005271Y-95210884D01*
X250816918Y-95336737D01*
X250656737Y-95496918D01*
X250530884Y-95685271D01*
X250444194Y-95894557D01*
X250400000Y-96116735D01*
X247620000Y-96116735D01*
X247576013Y-95895597D01*
X247857528Y-95895597D01*
X247906905Y-96080000D01*
X248860000Y-96080000D01*
X248860000Y-95127659D01*
X249160000Y-95127659D01*
X249160000Y-96080000D01*
X250113095Y-96080000D01*
X250162472Y-95895597D01*
X250075089Y-95677186D01*
X249946775Y-95480020D01*
X249782461Y-95311675D01*
X249588462Y-95178621D01*
X249372233Y-95085971D01*
X249344402Y-95077535D01*
X249160000Y-95127659D01*
X248860000Y-95127659D01*
X248675598Y-95077535D01*
X248647767Y-95085971D01*
X248431538Y-95178621D01*
X248237539Y-95311675D01*
X248073225Y-95480020D01*
X247944911Y-95677186D01*
X247857528Y-95895597D01*
X247576013Y-95895597D01*
X247575806Y-95894557D01*
X247489116Y-95685271D01*
X247363263Y-95496918D01*
X247203082Y-95336737D01*
X247014729Y-95210884D01*
X246805443Y-95124194D01*
X246583265Y-95080000D01*
X246356735Y-95080000D01*
X246134557Y-95124194D01*
X245925271Y-95210884D01*
X245736918Y-95336737D01*
X245576737Y-95496918D01*
X245450884Y-95685271D01*
X245364194Y-95894557D01*
X245320000Y-96116735D01*
X242540000Y-96116735D01*
X242496013Y-95895597D01*
X242777528Y-95895597D01*
X242826905Y-96080000D01*
X243780000Y-96080000D01*
X243780000Y-95127659D01*
X244080000Y-95127659D01*
X244080000Y-96080000D01*
X245033095Y-96080000D01*
X245082472Y-95895597D01*
X244995089Y-95677186D01*
X244866775Y-95480020D01*
X244702461Y-95311675D01*
X244508462Y-95178621D01*
X244292233Y-95085971D01*
X244264402Y-95077535D01*
X244080000Y-95127659D01*
X243780000Y-95127659D01*
X243595598Y-95077535D01*
X243567767Y-95085971D01*
X243351538Y-95178621D01*
X243157539Y-95311675D01*
X242993225Y-95480020D01*
X242864911Y-95677186D01*
X242777528Y-95895597D01*
X242496013Y-95895597D01*
X242495806Y-95894557D01*
X242409116Y-95685271D01*
X242283263Y-95496918D01*
X242123082Y-95336737D01*
X241934729Y-95210884D01*
X241725443Y-95124194D01*
X241503265Y-95080000D01*
X241276735Y-95080000D01*
X241054557Y-95124194D01*
X240845271Y-95210884D01*
X240656918Y-95336737D01*
X240496737Y-95496918D01*
X240370884Y-95685271D01*
X240284194Y-95894557D01*
X240240000Y-96116735D01*
X240000000Y-96116735D01*
X239955806Y-95894557D01*
X239869116Y-95685271D01*
X239743263Y-95496918D01*
X239583082Y-95336737D01*
X239394729Y-95210884D01*
X239185443Y-95124194D01*
X238963265Y-95080000D01*
X238736735Y-95080000D01*
X238514557Y-95124194D01*
X238305271Y-95210884D01*
X238116918Y-95336737D01*
X237956737Y-95496918D01*
X237830884Y-95685271D01*
X237744194Y-95894557D01*
X237700000Y-96116735D01*
X237460000Y-96116735D01*
X237415806Y-95894557D01*
X237329116Y-95685271D01*
X237203263Y-95496918D01*
X237043082Y-95336737D01*
X236854729Y-95210884D01*
X236645443Y-95124194D01*
X236423265Y-95080000D01*
X236196735Y-95080000D01*
X235974557Y-95124194D01*
X235765271Y-95210884D01*
X235576918Y-95336737D01*
X235416737Y-95496918D01*
X235290884Y-95685271D01*
X235204194Y-95894557D01*
X235160000Y-96116735D01*
X234920000Y-96116735D01*
X234875806Y-95894557D01*
X234789116Y-95685271D01*
X234663263Y-95496918D01*
X234503082Y-95336737D01*
X234314729Y-95210884D01*
X234105443Y-95124194D01*
X233883265Y-95080000D01*
X233656735Y-95080000D01*
X233434557Y-95124194D01*
X233225271Y-95210884D01*
X233036918Y-95336737D01*
X232876737Y-95496918D01*
X232750884Y-95685271D01*
X232664194Y-95894557D01*
X232620000Y-96116735D01*
X229840000Y-96116735D01*
X229796013Y-95895597D01*
X230077528Y-95895597D01*
X230126905Y-96080000D01*
X231080000Y-96080000D01*
X231080000Y-95127659D01*
X231380000Y-95127659D01*
X231380000Y-96080000D01*
X232333095Y-96080000D01*
X232382472Y-95895597D01*
X232295089Y-95677186D01*
X232166775Y-95480020D01*
X232002461Y-95311675D01*
X231808462Y-95178621D01*
X231592233Y-95085971D01*
X231564402Y-95077535D01*
X231380000Y-95127659D01*
X231080000Y-95127659D01*
X230895598Y-95077535D01*
X230867767Y-95085971D01*
X230651538Y-95178621D01*
X230457539Y-95311675D01*
X230293225Y-95480020D01*
X230164911Y-95677186D01*
X230077528Y-95895597D01*
X229796013Y-95895597D01*
X229795806Y-95894557D01*
X229709116Y-95685271D01*
X229583263Y-95496918D01*
X229423082Y-95336737D01*
X229234729Y-95210884D01*
X229025443Y-95124194D01*
X228803265Y-95080000D01*
X228576735Y-95080000D01*
X228354557Y-95124194D01*
X228145271Y-95210884D01*
X227956918Y-95336737D01*
X227796737Y-95496918D01*
X227670884Y-95685271D01*
X227584194Y-95894557D01*
X227540000Y-96116735D01*
X227300000Y-96116735D01*
X227255806Y-95894557D01*
X227169116Y-95685271D01*
X227043263Y-95496918D01*
X226883082Y-95336737D01*
X226694729Y-95210884D01*
X226485443Y-95124194D01*
X226263265Y-95080000D01*
X226036735Y-95080000D01*
X225814557Y-95124194D01*
X225605271Y-95210884D01*
X225416918Y-95336737D01*
X225256737Y-95496918D01*
X225130884Y-95685271D01*
X225044194Y-95894557D01*
X225000000Y-96116735D01*
X222220000Y-96116735D01*
X222176013Y-95895597D01*
X222457528Y-95895597D01*
X222506905Y-96080000D01*
X223460000Y-96080000D01*
X223460000Y-95127659D01*
X223760000Y-95127659D01*
X223760000Y-96080000D01*
X224713095Y-96080000D01*
X224762472Y-95895597D01*
X224675089Y-95677186D01*
X224546775Y-95480020D01*
X224382461Y-95311675D01*
X224188462Y-95178621D01*
X223972233Y-95085971D01*
X223944402Y-95077535D01*
X223760000Y-95127659D01*
X223460000Y-95127659D01*
X223275598Y-95077535D01*
X223247767Y-95085971D01*
X223031538Y-95178621D01*
X222837539Y-95311675D01*
X222673225Y-95480020D01*
X222544911Y-95677186D01*
X222457528Y-95895597D01*
X222176013Y-95895597D01*
X222175806Y-95894557D01*
X222089116Y-95685271D01*
X221963263Y-95496918D01*
X221803082Y-95336737D01*
X221614729Y-95210884D01*
X221405443Y-95124194D01*
X221183265Y-95080000D01*
X220956735Y-95080000D01*
X220734557Y-95124194D01*
X220525271Y-95210884D01*
X220336918Y-95336737D01*
X220176737Y-95496918D01*
X220050884Y-95685271D01*
X219964194Y-95894557D01*
X219920000Y-96116735D01*
X219680000Y-96116735D01*
X219635806Y-95894557D01*
X219549116Y-95685271D01*
X219423263Y-95496918D01*
X219263082Y-95336737D01*
X219074729Y-95210884D01*
X218865443Y-95124194D01*
X218643265Y-95080000D01*
X218416735Y-95080000D01*
X218194557Y-95124194D01*
X217985271Y-95210884D01*
X217796918Y-95336737D01*
X217636737Y-95496918D01*
X217510884Y-95685271D01*
X217424194Y-95894557D01*
X217380000Y-96116735D01*
X217140000Y-96116735D01*
X217095806Y-95894557D01*
X217009116Y-95685271D01*
X216883263Y-95496918D01*
X216723082Y-95336737D01*
X216534729Y-95210884D01*
X216325443Y-95124194D01*
X216103265Y-95080000D01*
X215876735Y-95080000D01*
X215654557Y-95124194D01*
X215445271Y-95210884D01*
X215256918Y-95336737D01*
X215096737Y-95496918D01*
X214970884Y-95685271D01*
X214884194Y-95894557D01*
X214840000Y-96116735D01*
X212060000Y-96116735D01*
X212016013Y-95895597D01*
X212297528Y-95895597D01*
X212346905Y-96080000D01*
X213300000Y-96080000D01*
X213300000Y-95127659D01*
X213600000Y-95127659D01*
X213600000Y-96080000D01*
X214553095Y-96080000D01*
X214602472Y-95895597D01*
X214515089Y-95677186D01*
X214386775Y-95480020D01*
X214222461Y-95311675D01*
X214028462Y-95178621D01*
X213812233Y-95085971D01*
X213784402Y-95077535D01*
X213600000Y-95127659D01*
X213300000Y-95127659D01*
X213115598Y-95077535D01*
X213087767Y-95085971D01*
X212871538Y-95178621D01*
X212677539Y-95311675D01*
X212513225Y-95480020D01*
X212384911Y-95677186D01*
X212297528Y-95895597D01*
X212016013Y-95895597D01*
X212015806Y-95894557D01*
X211929116Y-95685271D01*
X211803263Y-95496918D01*
X211643082Y-95336737D01*
X211454729Y-95210884D01*
X211245443Y-95124194D01*
X211023265Y-95080000D01*
X210796735Y-95080000D01*
X210574557Y-95124194D01*
X210365271Y-95210884D01*
X210176918Y-95336737D01*
X210016737Y-95496918D01*
X209890884Y-95685271D01*
X209804194Y-95894557D01*
X209760000Y-96116735D01*
X209520000Y-96116735D01*
X209475806Y-95894557D01*
X209389116Y-95685271D01*
X209263263Y-95496918D01*
X209103082Y-95336737D01*
X208914729Y-95210884D01*
X208705443Y-95124194D01*
X208483265Y-95080000D01*
X208256735Y-95080000D01*
X208034557Y-95124194D01*
X207825271Y-95210884D01*
X207636918Y-95336737D01*
X207543655Y-95430000D01*
X207207210Y-95430000D01*
X207167919Y-95426130D01*
X207128628Y-95430000D01*
X207128626Y-95430000D01*
X207011092Y-95441576D01*
X206869347Y-95484574D01*
X206860291Y-95487321D01*
X206721312Y-95561607D01*
X206657040Y-95614354D01*
X206599497Y-95661578D01*
X206574450Y-95692098D01*
X205462098Y-96804451D01*
X205431579Y-96829497D01*
X205406532Y-96860017D01*
X205406531Y-96860018D01*
X205331607Y-96951313D01*
X205257321Y-97090292D01*
X205211577Y-97241092D01*
X205196130Y-97397919D01*
X205150000Y-97397919D01*
X205150000Y-97337489D01*
X205086592Y-97018713D01*
X204962211Y-96718432D01*
X204781639Y-96448186D01*
X204551814Y-96218361D01*
X204281568Y-96037789D01*
X203981287Y-95913408D01*
X203662511Y-95850000D01*
X203337489Y-95850000D01*
X203018713Y-95913408D01*
X202718432Y-96037789D01*
X202448186Y-96218361D01*
X202218361Y-96448186D01*
X202037789Y-96718432D01*
X201913408Y-97018713D01*
X201850000Y-97337489D01*
X200350000Y-97337489D01*
X200350000Y-97017122D01*
X200402116Y-96485603D01*
X200551505Y-95990804D01*
X200794157Y-95534439D01*
X201120827Y-95133904D01*
X201519081Y-94804439D01*
X201973734Y-94558610D01*
X202467479Y-94405770D01*
X202998008Y-94350009D01*
X203000646Y-94350000D01*
X261982878Y-94350000D01*
X262514397Y-94402116D01*
G37*
X262514397Y-94402116D02*
X263009196Y-94551505D01*
X263465561Y-94794157D01*
X263866096Y-95120827D01*
X264195561Y-95519081D01*
X264441390Y-95973734D01*
X264594230Y-96467479D01*
X264649991Y-96998008D01*
X264650001Y-97000933D01*
X264650000Y-126982878D01*
X264633613Y-127150000D01*
X260092998Y-127150000D01*
X260094936Y-127143612D01*
X260101694Y-127075000D01*
X260100000Y-126550000D01*
X260012500Y-126462500D01*
X257900000Y-126462500D01*
X257900000Y-126482500D01*
X257600000Y-126482500D01*
X257600000Y-126462500D01*
X255487500Y-126462500D01*
X255400000Y-126550000D01*
X255398306Y-127075000D01*
X255405064Y-127143612D01*
X255407002Y-127150000D01*
X242100000Y-127150000D01*
X242100000Y-125550000D01*
X255398306Y-125550000D01*
X255400000Y-126075000D01*
X255487500Y-126162500D01*
X257600000Y-126162500D01*
X257600000Y-125287500D01*
X257900000Y-125287500D01*
X257900000Y-126162500D01*
X260012500Y-126162500D01*
X260100000Y-126075000D01*
X260101694Y-125550000D01*
X260094936Y-125481388D01*
X260074923Y-125415413D01*
X260042423Y-125354609D01*
X259998685Y-125301315D01*
X259945391Y-125257577D01*
X259884587Y-125225077D01*
X259818612Y-125205064D01*
X259750000Y-125198306D01*
X257987500Y-125200000D01*
X257900000Y-125287500D01*
X257600000Y-125287500D01*
X257512500Y-125200000D01*
X255750000Y-125198306D01*
X255681388Y-125205064D01*
X255615413Y-125225077D01*
X255554609Y-125257577D01*
X255501315Y-125301315D01*
X255457577Y-125354609D01*
X255425077Y-125415413D01*
X255405064Y-125481388D01*
X255398306Y-125550000D01*
X242100000Y-125550000D01*
X242100000Y-120337489D01*
X259850000Y-120337489D01*
X259850000Y-120662511D01*
X259913408Y-120981287D01*
X260037789Y-121281568D01*
X260218361Y-121551814D01*
X260448186Y-121781639D01*
X260718432Y-121962211D01*
X261018713Y-122086592D01*
X261337489Y-122150000D01*
X261662511Y-122150000D01*
X261981287Y-122086592D01*
X262281568Y-121962211D01*
X262551814Y-121781639D01*
X262781639Y-121551814D01*
X262962211Y-121281568D01*
X263086592Y-120981287D01*
X263150000Y-120662511D01*
X263150000Y-120337489D01*
X263086592Y-120018713D01*
X262962211Y-119718432D01*
X262781639Y-119448186D01*
X262551814Y-119218361D01*
X262281568Y-119037789D01*
X261981287Y-118913408D01*
X261662511Y-118850000D01*
X261337489Y-118850000D01*
X261018713Y-118913408D01*
X260718432Y-119037789D01*
X260448186Y-119218361D01*
X260218361Y-119448186D01*
X260037789Y-119718432D01*
X259913408Y-120018713D01*
X259850000Y-120337489D01*
X242100000Y-120337489D01*
X242100000Y-118041422D01*
X246041422Y-114100000D01*
X250000000Y-114100000D01*
X250019509Y-114098079D01*
X250038268Y-114092388D01*
X250055557Y-114083147D01*
X250070711Y-114070711D01*
X253070711Y-111070711D01*
X253083147Y-111055557D01*
X253092388Y-111038268D01*
X253098079Y-111019509D01*
X253100000Y-111000000D01*
X253100000Y-106400000D01*
X253098956Y-106385587D01*
X253094243Y-106366559D01*
X253085908Y-106348816D01*
X253074272Y-106333039D01*
X253059781Y-106319836D01*
X253042993Y-106309714D01*
X252517993Y-106059714D01*
X252494509Y-106051921D01*
X252475000Y-106050000D01*
X240250000Y-106050000D01*
X240230491Y-106051921D01*
X240211732Y-106057612D01*
X240194443Y-106066853D01*
X240179289Y-106079289D01*
X239008578Y-107250000D01*
X237350000Y-107250000D01*
X237330491Y-107251921D01*
X237311732Y-107257612D01*
X237294443Y-107266853D01*
X237279289Y-107279289D01*
X235579289Y-108979289D01*
X235566853Y-108994443D01*
X235557612Y-109011732D01*
X235551921Y-109030491D01*
X235550000Y-109050000D01*
X235550000Y-109708578D01*
X234858578Y-110400000D01*
X232600000Y-110400000D01*
X232580491Y-110401921D01*
X232561732Y-110407612D01*
X232544443Y-110416853D01*
X232529289Y-110429289D01*
X232516853Y-110444443D01*
X232507612Y-110461732D01*
X232501921Y-110480491D01*
X232500000Y-110500000D01*
X232500000Y-110800000D01*
X232501921Y-110819509D01*
X232507612Y-110838268D01*
X232516853Y-110855557D01*
X232529289Y-110870711D01*
X232544443Y-110883147D01*
X232561732Y-110892388D01*
X232580491Y-110898079D01*
X232600000Y-110900000D01*
X235000000Y-110900000D01*
X235019509Y-110898079D01*
X235038268Y-110892388D01*
X235055557Y-110883147D01*
X235070711Y-110870711D01*
X235970711Y-109970711D01*
X235983147Y-109955557D01*
X235992388Y-109938268D01*
X235998079Y-109919509D01*
X236000000Y-109900000D01*
X236000000Y-109291422D01*
X237591422Y-107700000D01*
X239150000Y-107700000D01*
X239169509Y-107698079D01*
X239188268Y-107692388D01*
X239205557Y-107683147D01*
X239220711Y-107670711D01*
X240391422Y-106500000D01*
X251658578Y-106500000D01*
X251900000Y-106741422D01*
X251900000Y-109958578D01*
X248958578Y-112900000D01*
X246000000Y-112900000D01*
X245980491Y-112901921D01*
X245961732Y-112907612D01*
X245944443Y-112916853D01*
X245929289Y-112929289D01*
X240929289Y-117929289D01*
X240916853Y-117944443D01*
X240907612Y-117961732D01*
X240901921Y-117980491D01*
X240900000Y-118000000D01*
X240900000Y-127150000D01*
X239342998Y-127150000D01*
X239344936Y-127143612D01*
X239351694Y-127075000D01*
X239350000Y-126550000D01*
X239262500Y-126462500D01*
X237150000Y-126462500D01*
X237150000Y-126482500D01*
X236850000Y-126482500D01*
X236850000Y-126462500D01*
X234737500Y-126462500D01*
X234650000Y-126550000D01*
X234648306Y-127075000D01*
X234655064Y-127143612D01*
X234657002Y-127150000D01*
X234052932Y-127150000D01*
X234078960Y-127142104D01*
X234131077Y-127114247D01*
X234176758Y-127076758D01*
X234214247Y-127031077D01*
X234242104Y-126978960D01*
X234259259Y-126922410D01*
X234265051Y-126863600D01*
X234265051Y-125550000D01*
X234648306Y-125550000D01*
X234650000Y-126075000D01*
X234737500Y-126162500D01*
X236850000Y-126162500D01*
X236850000Y-125287500D01*
X237150000Y-125287500D01*
X237150000Y-126162500D01*
X239262500Y-126162500D01*
X239350000Y-126075000D01*
X239351694Y-125550000D01*
X239344936Y-125481388D01*
X239324923Y-125415413D01*
X239292423Y-125354609D01*
X239248685Y-125301315D01*
X239195391Y-125257577D01*
X239134587Y-125225077D01*
X239068612Y-125205064D01*
X239000000Y-125198306D01*
X237237500Y-125200000D01*
X237150000Y-125287500D01*
X236850000Y-125287500D01*
X236762500Y-125200000D01*
X235000000Y-125198306D01*
X234931388Y-125205064D01*
X234865413Y-125225077D01*
X234804609Y-125257577D01*
X234751315Y-125301315D01*
X234707577Y-125354609D01*
X234675077Y-125415413D01*
X234655064Y-125481388D01*
X234648306Y-125550000D01*
X234265051Y-125550000D01*
X234265051Y-125136400D01*
X234259259Y-125077590D01*
X234242104Y-125021040D01*
X234214247Y-124968923D01*
X234176758Y-124923242D01*
X234131077Y-124885753D01*
X234078960Y-124857896D01*
X234022410Y-124840741D01*
X233963600Y-124834949D01*
X232236400Y-124834949D01*
X232177590Y-124840741D01*
X232121040Y-124857896D01*
X232068923Y-124885753D01*
X232023242Y-124923242D01*
X231985753Y-124968923D01*
X231957896Y-125021040D01*
X231940741Y-125077590D01*
X231934949Y-125136400D01*
X231934949Y-126863600D01*
X231940741Y-126922410D01*
X231957896Y-126978960D01*
X231985753Y-127031077D01*
X232023242Y-127076758D01*
X232068923Y-127114247D01*
X232121040Y-127142104D01*
X232147068Y-127150000D01*
X230742976Y-127150000D01*
X230899410Y-127118883D01*
X231111171Y-127031169D01*
X231301752Y-126903827D01*
X231463827Y-126741752D01*
X231591169Y-126551171D01*
X231678883Y-126339410D01*
X231723600Y-126114605D01*
X231723600Y-125885395D01*
X231678883Y-125660590D01*
X231591169Y-125448829D01*
X231463827Y-125258248D01*
X231301752Y-125096173D01*
X231111171Y-124968831D01*
X230899410Y-124881117D01*
X230674605Y-124836400D01*
X230445395Y-124836400D01*
X230220590Y-124881117D01*
X230008829Y-124968831D01*
X229818248Y-125096173D01*
X229656173Y-125258248D01*
X229528831Y-125448829D01*
X229441117Y-125660590D01*
X229396400Y-125885395D01*
X229396400Y-126114605D01*
X229441117Y-126339410D01*
X229528831Y-126551171D01*
X229656173Y-126741752D01*
X229818248Y-126903827D01*
X230008829Y-127031169D01*
X230220590Y-127118883D01*
X230377024Y-127150000D01*
X228202976Y-127150000D01*
X228359410Y-127118883D01*
X228571171Y-127031169D01*
X228761752Y-126903827D01*
X228923827Y-126741752D01*
X229051169Y-126551171D01*
X229138883Y-126339410D01*
X229183600Y-126114605D01*
X229183600Y-125885395D01*
X229138883Y-125660590D01*
X229051169Y-125448829D01*
X228923827Y-125258248D01*
X228761752Y-125096173D01*
X228571171Y-124968831D01*
X228359410Y-124881117D01*
X228134605Y-124836400D01*
X227905395Y-124836400D01*
X227680590Y-124881117D01*
X227468829Y-124968831D01*
X227278248Y-125096173D01*
X227116173Y-125258248D01*
X226988831Y-125448829D01*
X226901117Y-125660590D01*
X226856400Y-125885395D01*
X226856400Y-126114605D01*
X226901117Y-126339410D01*
X226988831Y-126551171D01*
X227116173Y-126741752D01*
X227278248Y-126903827D01*
X227468829Y-127031169D01*
X227680590Y-127118883D01*
X227837024Y-127150000D01*
X225662976Y-127150000D01*
X225819410Y-127118883D01*
X226031171Y-127031169D01*
X226221752Y-126903827D01*
X226383827Y-126741752D01*
X226511169Y-126551171D01*
X226598883Y-126339410D01*
X226643600Y-126114605D01*
X226643600Y-125885395D01*
X226598883Y-125660590D01*
X226511169Y-125448829D01*
X226383827Y-125258248D01*
X226221752Y-125096173D01*
X226031171Y-124968831D01*
X225819410Y-124881117D01*
X225594605Y-124836400D01*
X225365395Y-124836400D01*
X225140590Y-124881117D01*
X224928829Y-124968831D01*
X224738248Y-125096173D01*
X224576173Y-125258248D01*
X224448831Y-125448829D01*
X224361117Y-125660590D01*
X224316400Y-125885395D01*
X224316400Y-126114605D01*
X224361117Y-126339410D01*
X224448831Y-126551171D01*
X224576173Y-126741752D01*
X224738248Y-126903827D01*
X224928829Y-127031169D01*
X225140590Y-127118883D01*
X225297024Y-127150000D01*
X223342998Y-127150000D01*
X223344936Y-127143612D01*
X223351694Y-127075000D01*
X223350000Y-126550000D01*
X223262500Y-126462500D01*
X221150000Y-126462500D01*
X221150000Y-126482500D01*
X220850000Y-126482500D01*
X220850000Y-126462500D01*
X218737500Y-126462500D01*
X218650000Y-126550000D01*
X218648306Y-127075000D01*
X218655064Y-127143612D01*
X218657002Y-127150000D01*
X214100000Y-127150000D01*
X214100000Y-125550000D01*
X218648306Y-125550000D01*
X218650000Y-126075000D01*
X218737500Y-126162500D01*
X220850000Y-126162500D01*
X220850000Y-125287500D01*
X221150000Y-125287500D01*
X221150000Y-126162500D01*
X223262500Y-126162500D01*
X223350000Y-126075000D01*
X223351694Y-125550000D01*
X223344936Y-125481388D01*
X223324923Y-125415413D01*
X223292423Y-125354609D01*
X223248685Y-125301315D01*
X223195391Y-125257577D01*
X223134587Y-125225077D01*
X223068612Y-125205064D01*
X223000000Y-125198306D01*
X221237500Y-125200000D01*
X221150000Y-125287500D01*
X220850000Y-125287500D01*
X220762500Y-125200000D01*
X219000000Y-125198306D01*
X218931388Y-125205064D01*
X218865413Y-125225077D01*
X218804609Y-125257577D01*
X218751315Y-125301315D01*
X218707577Y-125354609D01*
X218675077Y-125415413D01*
X218655064Y-125481388D01*
X218648306Y-125550000D01*
X214100000Y-125550000D01*
X214100000Y-120497117D01*
X216715015Y-120497117D01*
X216828893Y-120678895D01*
X217071779Y-120787169D01*
X217331121Y-120845978D01*
X217596954Y-120853062D01*
X217859060Y-120808149D01*
X218107368Y-120712964D01*
X218171107Y-120678895D01*
X218284985Y-120497117D01*
X217500000Y-119712132D01*
X216715015Y-120497117D01*
X214100000Y-120497117D01*
X214100000Y-119596954D01*
X216146938Y-119596954D01*
X216191851Y-119859060D01*
X216287036Y-120107368D01*
X216321105Y-120171107D01*
X216502883Y-120284985D01*
X217287868Y-119500000D01*
X217712132Y-119500000D01*
X218497117Y-120284985D01*
X218678895Y-120171107D01*
X218787169Y-119928221D01*
X218845978Y-119668879D01*
X218853062Y-119403046D01*
X218808149Y-119140940D01*
X218712964Y-118892632D01*
X218678895Y-118828893D01*
X218497117Y-118715015D01*
X217712132Y-119500000D01*
X217287868Y-119500000D01*
X216502883Y-118715015D01*
X216321105Y-118828893D01*
X216212831Y-119071779D01*
X216154022Y-119331121D01*
X216146938Y-119596954D01*
X214100000Y-119596954D01*
X214100000Y-118502883D01*
X216715015Y-118502883D01*
X217500000Y-119287868D01*
X218284985Y-118502883D01*
X218171107Y-118321105D01*
X217928221Y-118212831D01*
X217668879Y-118154022D01*
X217403046Y-118146938D01*
X217140940Y-118191851D01*
X216892632Y-118287036D01*
X216828893Y-118321105D01*
X216715015Y-118502883D01*
X214100000Y-118502883D01*
X214100000Y-117742767D01*
X226466636Y-117742767D01*
X226466636Y-117890505D01*
X226495458Y-118035403D01*
X226551995Y-118171894D01*
X226634073Y-118294733D01*
X226738539Y-118399199D01*
X226861378Y-118481277D01*
X226997869Y-118537814D01*
X227142767Y-118566636D01*
X227290505Y-118566636D01*
X227353137Y-118554178D01*
X227884721Y-119085762D01*
X227898026Y-119101974D01*
X227962740Y-119155084D01*
X228010855Y-119180801D01*
X228036572Y-119194548D01*
X228115074Y-119218361D01*
X228116686Y-119218850D01*
X228179126Y-119225000D01*
X228179133Y-119225000D01*
X228182158Y-119225298D01*
X228217437Y-119278097D01*
X228321903Y-119382563D01*
X228444742Y-119464641D01*
X228581233Y-119521178D01*
X228726131Y-119550000D01*
X228873869Y-119550000D01*
X229018767Y-119521178D01*
X229155258Y-119464641D01*
X229278097Y-119382563D01*
X229382563Y-119278097D01*
X229464641Y-119155258D01*
X229521178Y-119018767D01*
X229550000Y-118873869D01*
X229550000Y-118726131D01*
X229521178Y-118581233D01*
X229464641Y-118444742D01*
X229382563Y-118321903D01*
X229278097Y-118217437D01*
X229155258Y-118135359D01*
X229018767Y-118078822D01*
X228873869Y-118050000D01*
X228726131Y-118050000D01*
X228581233Y-118078822D01*
X228444742Y-118135359D01*
X228321903Y-118217437D01*
X228270190Y-118269150D01*
X227954178Y-117953137D01*
X227966636Y-117890505D01*
X227966636Y-117742767D01*
X227937814Y-117597869D01*
X227881277Y-117461378D01*
X227799199Y-117338539D01*
X227694733Y-117234073D01*
X227571894Y-117151995D01*
X227435403Y-117095458D01*
X227290505Y-117066636D01*
X227142767Y-117066636D01*
X226997869Y-117095458D01*
X226861378Y-117151995D01*
X226738539Y-117234073D01*
X226634073Y-117338539D01*
X226551995Y-117461378D01*
X226495458Y-117597869D01*
X226466636Y-117742767D01*
X214100000Y-117742767D01*
X214100000Y-110147138D01*
X216035925Y-108550000D01*
X223808578Y-108550000D01*
X225629289Y-110370711D01*
X225644443Y-110383147D01*
X225661732Y-110392388D01*
X225680491Y-110398079D01*
X225700000Y-110400000D01*
X228200000Y-110400000D01*
X228219509Y-110398079D01*
X228238268Y-110392388D01*
X228255557Y-110383147D01*
X228270711Y-110370711D01*
X228283147Y-110355557D01*
X228292388Y-110338268D01*
X228298079Y-110319509D01*
X228300000Y-110300000D01*
X228300000Y-110100000D01*
X228298079Y-110080491D01*
X228292388Y-110061732D01*
X228283147Y-110044443D01*
X228270711Y-110029289D01*
X228255557Y-110016853D01*
X228238268Y-110007612D01*
X228219509Y-110001921D01*
X228200000Y-110000000D01*
X225941422Y-110000000D01*
X224070711Y-108129289D01*
X224055557Y-108116853D01*
X224038268Y-108107612D01*
X224019509Y-108101921D01*
X224000000Y-108100000D01*
X215000000Y-108100000D01*
X214985813Y-108101011D01*
X214966774Y-108105681D01*
X214949012Y-108113976D01*
X214933209Y-108125576D01*
X212983209Y-109875576D01*
X212966853Y-109894443D01*
X212957612Y-109911732D01*
X212951921Y-109930491D01*
X212950000Y-109950000D01*
X212950000Y-127150000D01*
X200365565Y-127150000D01*
X200350009Y-127001991D01*
X200350000Y-126999354D01*
X200350000Y-120337489D01*
X201850000Y-120337489D01*
X201850000Y-120662511D01*
X201913408Y-120981287D01*
X202037789Y-121281568D01*
X202218361Y-121551814D01*
X202448186Y-121781639D01*
X202718432Y-121962211D01*
X203018713Y-122086592D01*
X203337489Y-122150000D01*
X203662511Y-122150000D01*
X203981287Y-122086592D01*
X204281568Y-121962211D01*
X204551814Y-121781639D01*
X204781639Y-121551814D01*
X204962211Y-121281568D01*
X205086592Y-120981287D01*
X205150000Y-120662511D01*
X205150000Y-120337489D01*
X205086592Y-120018713D01*
X204962211Y-119718432D01*
X204781639Y-119448186D01*
X204551814Y-119218361D01*
X204281568Y-119037789D01*
X203981287Y-118913408D01*
X203662511Y-118850000D01*
X203337489Y-118850000D01*
X203018713Y-118913408D01*
X202718432Y-119037789D01*
X202448186Y-119218361D01*
X202218361Y-119448186D01*
X202037789Y-119718432D01*
X201913408Y-120018713D01*
X201850000Y-120337489D01*
X200350000Y-120337489D01*
X200350000Y-97337489D01*
X201850000Y-97337489D01*
X201850000Y-97662511D01*
X201913408Y-97981287D01*
X202037789Y-98281568D01*
X202218361Y-98551814D01*
X202448186Y-98781639D01*
X202718432Y-98962211D01*
X203018713Y-99086592D01*
X203337489Y-99150000D01*
X203662511Y-99150000D01*
X203981287Y-99086592D01*
X204281568Y-98962211D01*
X204551814Y-98781639D01*
X204781639Y-98551814D01*
X204962211Y-98281568D01*
X205086592Y-97981287D01*
X205150000Y-97662511D01*
X205150000Y-97397919D01*
X205196130Y-97397919D01*
X205200001Y-97437219D01*
X205200000Y-101960709D01*
X205196130Y-102000000D01*
X205200000Y-102039291D01*
X205200000Y-102039292D01*
X205211576Y-102156826D01*
X205239840Y-102249999D01*
X205257321Y-102307627D01*
X205331607Y-102446606D01*
X205346079Y-102464240D01*
X205431578Y-102568422D01*
X205462103Y-102593473D01*
X208656532Y-105787903D01*
X208681579Y-105818423D01*
X208712099Y-105843470D01*
X208803394Y-105918394D01*
X208851804Y-105944270D01*
X208942373Y-105992680D01*
X209093174Y-106038425D01*
X209210708Y-106050001D01*
X209210717Y-106050001D01*
X209250000Y-106053870D01*
X209289283Y-106050001D01*
X217120708Y-106050001D01*
X217159999Y-106053871D01*
X217199290Y-106050001D01*
X217199292Y-106050001D01*
X217316826Y-106038425D01*
X217467627Y-105992680D01*
X217606605Y-105918394D01*
X217728421Y-105818423D01*
X217753472Y-105787898D01*
X217991370Y-105550000D01*
X241210709Y-105550000D01*
X241250000Y-105553870D01*
X241289291Y-105550000D01*
X241289293Y-105550000D01*
X241406827Y-105538424D01*
X241557628Y-105492679D01*
X241696606Y-105418393D01*
X241818422Y-105318422D01*
X241843473Y-105287897D01*
X243131358Y-104000013D01*
X248760696Y-104000013D01*
X248799987Y-104003883D01*
X248839278Y-104000013D01*
X248839280Y-104000013D01*
X248956814Y-103988437D01*
X249107615Y-103942692D01*
X249246593Y-103868406D01*
X249368409Y-103768435D01*
X249393460Y-103737910D01*
X249593469Y-103537901D01*
X249668393Y-103446606D01*
X249742679Y-103307627D01*
X249788423Y-103156828D01*
X249803870Y-103000001D01*
X249788423Y-102843173D01*
X249742679Y-102692373D01*
X249668393Y-102553394D01*
X249568421Y-102431579D01*
X249446606Y-102331607D01*
X249307627Y-102257321D01*
X249156827Y-102211577D01*
X248999999Y-102196130D01*
X248843172Y-102211577D01*
X248692373Y-102257321D01*
X248553394Y-102331607D01*
X248470041Y-102400013D01*
X242839278Y-102400013D01*
X242799987Y-102396143D01*
X242760696Y-102400013D01*
X242760694Y-102400013D01*
X242643160Y-102411589D01*
X242492359Y-102457334D01*
X242353380Y-102531620D01*
X242263865Y-102605083D01*
X242231565Y-102631591D01*
X242206518Y-102662111D01*
X240918630Y-103950000D01*
X217699282Y-103950000D01*
X217659999Y-103946131D01*
X217620716Y-103950000D01*
X217620707Y-103950000D01*
X217503173Y-103961576D01*
X217363706Y-104003883D01*
X217352372Y-104007321D01*
X217213393Y-104081607D01*
X217182004Y-104107368D01*
X217091578Y-104181578D01*
X217066527Y-104212103D01*
X216828629Y-104450001D01*
X215967740Y-104450001D01*
X216064938Y-104352803D01*
X215997119Y-104284984D01*
X216178895Y-104171107D01*
X216287169Y-103928221D01*
X216345978Y-103668879D01*
X216353062Y-103403046D01*
X216308149Y-103140940D01*
X216212964Y-102892632D01*
X216178895Y-102828893D01*
X215997117Y-102715015D01*
X215212132Y-103500000D01*
X215226275Y-103514143D01*
X215014143Y-103726275D01*
X215000000Y-103712132D01*
X214985858Y-103726275D01*
X214773726Y-103514143D01*
X214787868Y-103500000D01*
X214002883Y-102715015D01*
X213821105Y-102828893D01*
X213712831Y-103071779D01*
X213654022Y-103331121D01*
X213646938Y-103596954D01*
X213691851Y-103859060D01*
X213787036Y-104107368D01*
X213821105Y-104171107D01*
X214002881Y-104284984D01*
X213935062Y-104352803D01*
X214032260Y-104450001D01*
X209581372Y-104450001D01*
X207634254Y-102502883D01*
X214215015Y-102502883D01*
X215000000Y-103287868D01*
X215784985Y-102502883D01*
X215671107Y-102321105D01*
X215428221Y-102212831D01*
X215168879Y-102154022D01*
X214903046Y-102146938D01*
X214640940Y-102191851D01*
X214392632Y-102287036D01*
X214328893Y-102321105D01*
X214215015Y-102502883D01*
X207634254Y-102502883D01*
X206800000Y-101668630D01*
X206800000Y-97920000D01*
X207218549Y-97920000D01*
X207218549Y-99620000D01*
X207224341Y-99678810D01*
X207241496Y-99735360D01*
X207269353Y-99787477D01*
X207306842Y-99833158D01*
X207352523Y-99870647D01*
X207404640Y-99898504D01*
X207461190Y-99915659D01*
X207520000Y-99921451D01*
X209220000Y-99921451D01*
X209278810Y-99915659D01*
X209335360Y-99898504D01*
X209387477Y-99870647D01*
X209433158Y-99833158D01*
X209470647Y-99787477D01*
X209498504Y-99735360D01*
X209515659Y-99678810D01*
X209521451Y-99620000D01*
X209521451Y-98656735D01*
X209760000Y-98656735D01*
X209760000Y-98883265D01*
X209804194Y-99105443D01*
X209890884Y-99314729D01*
X210016737Y-99503082D01*
X210176918Y-99663263D01*
X210365271Y-99789116D01*
X210574557Y-99875806D01*
X210796735Y-99920000D01*
X211023265Y-99920000D01*
X211245443Y-99875806D01*
X211454729Y-99789116D01*
X211643082Y-99663263D01*
X211803263Y-99503082D01*
X211929116Y-99314729D01*
X212015806Y-99105443D01*
X212060000Y-98883265D01*
X212060000Y-98656735D01*
X212300000Y-98656735D01*
X212300000Y-98883265D01*
X212344194Y-99105443D01*
X212430884Y-99314729D01*
X212556737Y-99503082D01*
X212716918Y-99663263D01*
X212905271Y-99789116D01*
X213114557Y-99875806D01*
X213336735Y-99920000D01*
X213563265Y-99920000D01*
X213785443Y-99875806D01*
X213994729Y-99789116D01*
X214183082Y-99663263D01*
X214343263Y-99503082D01*
X214469116Y-99314729D01*
X214555806Y-99105443D01*
X214600000Y-98883265D01*
X214600000Y-98656735D01*
X214840000Y-98656735D01*
X214840000Y-98883265D01*
X214884194Y-99105443D01*
X214970884Y-99314729D01*
X215096737Y-99503082D01*
X215256918Y-99663263D01*
X215445271Y-99789116D01*
X215654557Y-99875806D01*
X215876735Y-99920000D01*
X216103265Y-99920000D01*
X216325443Y-99875806D01*
X216534729Y-99789116D01*
X216723082Y-99663263D01*
X216883263Y-99503082D01*
X217009116Y-99314729D01*
X217095806Y-99105443D01*
X217096012Y-99104403D01*
X217377528Y-99104403D01*
X217464911Y-99322814D01*
X217593225Y-99519980D01*
X217757539Y-99688325D01*
X217951538Y-99821379D01*
X218167767Y-99914029D01*
X218195598Y-99922465D01*
X218380000Y-99872341D01*
X218380000Y-98920000D01*
X218680000Y-98920000D01*
X218680000Y-99872341D01*
X218864402Y-99922465D01*
X218892233Y-99914029D01*
X219108462Y-99821379D01*
X219302461Y-99688325D01*
X219466775Y-99519980D01*
X219595089Y-99322814D01*
X219682472Y-99104403D01*
X219633095Y-98920000D01*
X218680000Y-98920000D01*
X218380000Y-98920000D01*
X217426905Y-98920000D01*
X217377528Y-99104403D01*
X217096012Y-99104403D01*
X217140000Y-98883265D01*
X217140000Y-98656735D01*
X219920000Y-98656735D01*
X219920000Y-98883265D01*
X219964194Y-99105443D01*
X220050884Y-99314729D01*
X220176737Y-99503082D01*
X220336918Y-99663263D01*
X220525271Y-99789116D01*
X220734557Y-99875806D01*
X220956735Y-99920000D01*
X221183265Y-99920000D01*
X221405443Y-99875806D01*
X221606417Y-99792559D01*
X221136518Y-100262458D01*
X221073885Y-100250000D01*
X220926147Y-100250000D01*
X220781249Y-100278822D01*
X220644758Y-100335359D01*
X220521919Y-100417437D01*
X220417453Y-100521903D01*
X220335375Y-100644742D01*
X220278838Y-100781233D01*
X220250016Y-100926131D01*
X220250016Y-101073869D01*
X220278838Y-101218767D01*
X220335375Y-101355258D01*
X220417453Y-101478097D01*
X220521919Y-101582563D01*
X220644758Y-101664641D01*
X220781249Y-101721178D01*
X220926147Y-101750000D01*
X221073885Y-101750000D01*
X221218783Y-101721178D01*
X221355274Y-101664641D01*
X221478113Y-101582563D01*
X221582579Y-101478097D01*
X221664657Y-101355258D01*
X221721194Y-101218767D01*
X221750016Y-101073869D01*
X221750016Y-100926131D01*
X221737558Y-100863498D01*
X222176056Y-100425000D01*
X228573960Y-100425000D01*
X228762458Y-100613499D01*
X228750000Y-100676131D01*
X228750000Y-100823869D01*
X228778822Y-100968767D01*
X228835359Y-101105258D01*
X228917437Y-101228097D01*
X229021903Y-101332563D01*
X229144742Y-101414641D01*
X229281233Y-101471178D01*
X229426131Y-101500000D01*
X229573869Y-101500000D01*
X229718767Y-101471178D01*
X229855258Y-101414641D01*
X229978097Y-101332563D01*
X230082563Y-101228097D01*
X230164641Y-101105258D01*
X230221045Y-100969089D01*
X231576955Y-102325000D01*
X229426041Y-102325000D01*
X228315273Y-101214233D01*
X228301964Y-101198016D01*
X228237250Y-101144906D01*
X228163417Y-101105442D01*
X228083304Y-101081140D01*
X228020864Y-101074990D01*
X228020857Y-101074990D01*
X227999990Y-101072935D01*
X227979123Y-101074990D01*
X227397009Y-101074990D01*
X227211272Y-100889254D01*
X227197963Y-100873037D01*
X227133249Y-100819927D01*
X227059416Y-100780463D01*
X226979303Y-100756161D01*
X226916863Y-100750011D01*
X226916856Y-100750011D01*
X226895989Y-100747956D01*
X226875122Y-100750011D01*
X226095856Y-100750011D01*
X226074989Y-100747956D01*
X226054122Y-100750011D01*
X226054115Y-100750011D01*
X225991675Y-100756161D01*
X225911562Y-100780463D01*
X225837729Y-100819927D01*
X225773015Y-100873037D01*
X225759705Y-100889255D01*
X225073960Y-101575000D01*
X224249779Y-101575000D01*
X224250000Y-101573889D01*
X224250000Y-101426151D01*
X224221178Y-101281253D01*
X224164641Y-101144762D01*
X224082563Y-101021923D01*
X223978097Y-100917457D01*
X223855258Y-100835379D01*
X223718767Y-100778842D01*
X223573869Y-100750020D01*
X223426131Y-100750020D01*
X223281233Y-100778842D01*
X223144742Y-100835379D01*
X223021903Y-100917457D01*
X222917437Y-101021923D01*
X222835359Y-101144762D01*
X222778822Y-101281253D01*
X222750000Y-101426151D01*
X222750000Y-101573889D01*
X222778822Y-101718787D01*
X222835359Y-101855278D01*
X222917437Y-101978117D01*
X223021903Y-102082583D01*
X223144742Y-102164661D01*
X223281233Y-102221198D01*
X223426131Y-102250020D01*
X223573869Y-102250020D01*
X223636501Y-102237562D01*
X223684699Y-102285760D01*
X223698006Y-102301974D01*
X223714218Y-102315279D01*
X223714219Y-102315280D01*
X223735689Y-102332900D01*
X223762720Y-102355084D01*
X223836553Y-102394548D01*
X223876056Y-102406531D01*
X223916665Y-102418850D01*
X223925078Y-102419679D01*
X223979106Y-102425000D01*
X223979112Y-102425000D01*
X223999979Y-102427055D01*
X224020846Y-102425000D01*
X225229133Y-102425000D01*
X225250000Y-102427055D01*
X225270867Y-102425000D01*
X225270874Y-102425000D01*
X225333314Y-102418850D01*
X225413427Y-102394548D01*
X225487260Y-102355084D01*
X225551974Y-102301974D01*
X225565284Y-102285756D01*
X225754496Y-102096544D01*
X225778810Y-102218779D01*
X225835347Y-102355270D01*
X225917425Y-102478109D01*
X226021891Y-102582575D01*
X226144730Y-102664653D01*
X226281221Y-102721190D01*
X226426119Y-102750012D01*
X226573857Y-102750012D01*
X226718755Y-102721190D01*
X226855246Y-102664653D01*
X226978085Y-102582575D01*
X227082551Y-102478109D01*
X227118037Y-102425000D01*
X227573960Y-102425000D01*
X228684721Y-103535762D01*
X228698026Y-103551974D01*
X228762740Y-103605084D01*
X228836573Y-103644548D01*
X228892383Y-103661478D01*
X228916685Y-103668850D01*
X228924327Y-103669603D01*
X228979126Y-103675000D01*
X228979133Y-103675000D01*
X229000000Y-103677055D01*
X229020867Y-103675000D01*
X237129133Y-103675000D01*
X237150000Y-103677055D01*
X237170867Y-103675000D01*
X237170874Y-103675000D01*
X237233314Y-103668850D01*
X237313427Y-103644548D01*
X237387260Y-103605084D01*
X237451974Y-103551974D01*
X237465283Y-103535757D01*
X238301040Y-102700001D01*
X240009768Y-102700001D01*
X240030635Y-102702056D01*
X240051502Y-102700001D01*
X240051509Y-102700001D01*
X240113949Y-102693851D01*
X240194062Y-102669549D01*
X240267895Y-102630085D01*
X240332609Y-102576975D01*
X240345919Y-102560757D01*
X240641316Y-102265360D01*
X240703949Y-102277818D01*
X240851687Y-102277818D01*
X240996585Y-102248996D01*
X241133076Y-102192459D01*
X241255915Y-102110381D01*
X241360381Y-102005915D01*
X241442459Y-101883076D01*
X241498996Y-101746585D01*
X241527818Y-101601687D01*
X241527818Y-101453949D01*
X241498996Y-101309051D01*
X241442459Y-101172560D01*
X241427384Y-101149999D01*
X242298959Y-101149999D01*
X242512458Y-101363499D01*
X242500000Y-101426131D01*
X242500000Y-101573869D01*
X242528822Y-101718767D01*
X242585359Y-101855258D01*
X242667437Y-101978097D01*
X242771903Y-102082563D01*
X242894742Y-102164641D01*
X243031233Y-102221178D01*
X243176131Y-102250000D01*
X243323869Y-102250000D01*
X243468767Y-102221178D01*
X243605258Y-102164641D01*
X243728097Y-102082563D01*
X243832563Y-101978097D01*
X243914641Y-101855258D01*
X243971178Y-101718767D01*
X244000000Y-101573869D01*
X244000000Y-101426131D01*
X243971178Y-101281233D01*
X243914641Y-101144742D01*
X243832563Y-101021903D01*
X243728097Y-100917437D01*
X243605258Y-100835359D01*
X243468767Y-100778822D01*
X243323869Y-100750000D01*
X243176131Y-100750000D01*
X243113499Y-100762458D01*
X242790282Y-100439242D01*
X242776973Y-100423025D01*
X242712259Y-100369915D01*
X242638426Y-100330451D01*
X242558313Y-100306149D01*
X242495873Y-100299999D01*
X242495866Y-100299999D01*
X242474999Y-100297944D01*
X242454132Y-100299999D01*
X240866819Y-100299999D01*
X240921178Y-100168766D01*
X240950000Y-100023868D01*
X240950000Y-99876130D01*
X240940541Y-99828579D01*
X241054557Y-99875806D01*
X241276735Y-99920000D01*
X241503265Y-99920000D01*
X241725443Y-99875806D01*
X241934729Y-99789116D01*
X242123082Y-99663263D01*
X242283263Y-99503082D01*
X242409116Y-99314729D01*
X242495806Y-99105443D01*
X242540000Y-98883265D01*
X242540000Y-98656735D01*
X242780000Y-98656735D01*
X242780000Y-98883265D01*
X242824194Y-99105443D01*
X242910884Y-99314729D01*
X243036737Y-99503082D01*
X243196918Y-99663263D01*
X243385271Y-99789116D01*
X243594557Y-99875806D01*
X243816735Y-99920000D01*
X244043265Y-99920000D01*
X244265443Y-99875806D01*
X244474729Y-99789116D01*
X244663082Y-99663263D01*
X244823263Y-99503082D01*
X244949116Y-99314729D01*
X245035806Y-99105443D01*
X245080000Y-98883265D01*
X245080000Y-98656735D01*
X245320000Y-98656735D01*
X245320000Y-98883265D01*
X245364194Y-99105443D01*
X245450884Y-99314729D01*
X245576737Y-99503082D01*
X245736918Y-99663263D01*
X245925271Y-99789116D01*
X246134557Y-99875806D01*
X246356735Y-99920000D01*
X246583265Y-99920000D01*
X246805443Y-99875806D01*
X247014729Y-99789116D01*
X247203082Y-99663263D01*
X247363263Y-99503082D01*
X247489116Y-99314729D01*
X247575806Y-99105443D01*
X247620000Y-98883265D01*
X247620000Y-98656735D01*
X247860000Y-98656735D01*
X247860000Y-98883265D01*
X247904194Y-99105443D01*
X247990884Y-99314729D01*
X248116737Y-99503082D01*
X248276918Y-99663263D01*
X248465271Y-99789116D01*
X248674557Y-99875806D01*
X248896735Y-99920000D01*
X249123265Y-99920000D01*
X249345443Y-99875806D01*
X249554729Y-99789116D01*
X249743082Y-99663263D01*
X249903263Y-99503082D01*
X250029116Y-99314729D01*
X250115806Y-99105443D01*
X250160000Y-98883265D01*
X250160000Y-98656735D01*
X250400000Y-98656735D01*
X250400000Y-98883265D01*
X250444194Y-99105443D01*
X250530884Y-99314729D01*
X250656737Y-99503082D01*
X250816918Y-99663263D01*
X251005271Y-99789116D01*
X251214557Y-99875806D01*
X251436735Y-99920000D01*
X251663265Y-99920000D01*
X251885443Y-99875806D01*
X252094729Y-99789116D01*
X252283082Y-99663263D01*
X252443263Y-99503082D01*
X252569116Y-99314729D01*
X252655806Y-99105443D01*
X252700000Y-98883265D01*
X252700000Y-98656735D01*
X252940000Y-98656735D01*
X252940000Y-98883265D01*
X252984194Y-99105443D01*
X253070884Y-99314729D01*
X253196737Y-99503082D01*
X253356918Y-99663263D01*
X253545271Y-99789116D01*
X253754557Y-99875806D01*
X253976735Y-99920000D01*
X254203265Y-99920000D01*
X254425443Y-99875806D01*
X254634729Y-99789116D01*
X254823082Y-99663263D01*
X254983263Y-99503082D01*
X255109116Y-99314729D01*
X255195806Y-99105443D01*
X255196012Y-99104403D01*
X255477528Y-99104403D01*
X255564911Y-99322814D01*
X255693225Y-99519980D01*
X255857539Y-99688325D01*
X256051538Y-99821379D01*
X256267767Y-99914029D01*
X256295598Y-99922465D01*
X256480000Y-99872341D01*
X256480000Y-98920000D01*
X256780000Y-98920000D01*
X256780000Y-99872341D01*
X256964402Y-99922465D01*
X256992233Y-99914029D01*
X257208462Y-99821379D01*
X257402461Y-99688325D01*
X257566775Y-99519980D01*
X257695089Y-99322814D01*
X257782472Y-99104403D01*
X257733095Y-98920000D01*
X256780000Y-98920000D01*
X256480000Y-98920000D01*
X255526905Y-98920000D01*
X255477528Y-99104403D01*
X255196012Y-99104403D01*
X255240000Y-98883265D01*
X255240000Y-98656735D01*
X255196013Y-98435597D01*
X255477528Y-98435597D01*
X255526905Y-98620000D01*
X256480000Y-98620000D01*
X256480000Y-97667659D01*
X256780000Y-97667659D01*
X256780000Y-98620000D01*
X257733095Y-98620000D01*
X257782472Y-98435597D01*
X257695089Y-98217186D01*
X257566775Y-98020020D01*
X257402461Y-97851675D01*
X257208462Y-97718621D01*
X256992233Y-97625971D01*
X256964402Y-97617535D01*
X256780000Y-97667659D01*
X256480000Y-97667659D01*
X256295598Y-97617535D01*
X256267767Y-97625971D01*
X256051538Y-97718621D01*
X255857539Y-97851675D01*
X255693225Y-98020020D01*
X255564911Y-98217186D01*
X255477528Y-98435597D01*
X255196013Y-98435597D01*
X255195806Y-98434557D01*
X255109116Y-98225271D01*
X254983263Y-98036918D01*
X254823082Y-97876737D01*
X254634729Y-97750884D01*
X254425443Y-97664194D01*
X254203265Y-97620000D01*
X253976735Y-97620000D01*
X253754557Y-97664194D01*
X253545271Y-97750884D01*
X253356918Y-97876737D01*
X253196737Y-98036918D01*
X253070884Y-98225271D01*
X252984194Y-98434557D01*
X252940000Y-98656735D01*
X252700000Y-98656735D01*
X252655806Y-98434557D01*
X252569116Y-98225271D01*
X252443263Y-98036918D01*
X252283082Y-97876737D01*
X252094729Y-97750884D01*
X251885443Y-97664194D01*
X251663265Y-97620000D01*
X251436735Y-97620000D01*
X251214557Y-97664194D01*
X251005271Y-97750884D01*
X250816918Y-97876737D01*
X250656737Y-98036918D01*
X250530884Y-98225271D01*
X250444194Y-98434557D01*
X250400000Y-98656735D01*
X250160000Y-98656735D01*
X250115806Y-98434557D01*
X250029116Y-98225271D01*
X249903263Y-98036918D01*
X249743082Y-97876737D01*
X249554729Y-97750884D01*
X249345443Y-97664194D01*
X249123265Y-97620000D01*
X248896735Y-97620000D01*
X248674557Y-97664194D01*
X248465271Y-97750884D01*
X248276918Y-97876737D01*
X248116737Y-98036918D01*
X247990884Y-98225271D01*
X247904194Y-98434557D01*
X247860000Y-98656735D01*
X247620000Y-98656735D01*
X247575806Y-98434557D01*
X247489116Y-98225271D01*
X247363263Y-98036918D01*
X247203082Y-97876737D01*
X247014729Y-97750884D01*
X246805443Y-97664194D01*
X246583265Y-97620000D01*
X246356735Y-97620000D01*
X246134557Y-97664194D01*
X245925271Y-97750884D01*
X245736918Y-97876737D01*
X245576737Y-98036918D01*
X245450884Y-98225271D01*
X245364194Y-98434557D01*
X245320000Y-98656735D01*
X245080000Y-98656735D01*
X245035806Y-98434557D01*
X244949116Y-98225271D01*
X244823263Y-98036918D01*
X244663082Y-97876737D01*
X244474729Y-97750884D01*
X244265443Y-97664194D01*
X244043265Y-97620000D01*
X243816735Y-97620000D01*
X243594557Y-97664194D01*
X243385271Y-97750884D01*
X243196918Y-97876737D01*
X243036737Y-98036918D01*
X242910884Y-98225271D01*
X242824194Y-98434557D01*
X242780000Y-98656735D01*
X242540000Y-98656735D01*
X242495806Y-98434557D01*
X242409116Y-98225271D01*
X242283263Y-98036918D01*
X242123082Y-97876737D01*
X241934729Y-97750884D01*
X241725443Y-97664194D01*
X241503265Y-97620000D01*
X241276735Y-97620000D01*
X241054557Y-97664194D01*
X240845271Y-97750884D01*
X240656918Y-97876737D01*
X240496737Y-98036918D01*
X240370884Y-98225271D01*
X240284194Y-98434557D01*
X240240000Y-98656735D01*
X240240000Y-98883265D01*
X240284194Y-99105443D01*
X240327805Y-99210727D01*
X240273869Y-99199999D01*
X240126131Y-99199999D01*
X239981233Y-99228821D01*
X239947025Y-99242990D01*
X240002472Y-99104403D01*
X239953095Y-98920000D01*
X239000000Y-98920000D01*
X239000000Y-98940000D01*
X238700000Y-98940000D01*
X238700000Y-98920000D01*
X237746905Y-98920000D01*
X237697528Y-99104403D01*
X237784911Y-99322814D01*
X237913225Y-99519980D01*
X238077539Y-99688325D01*
X238271538Y-99821379D01*
X238338309Y-99849989D01*
X237763451Y-99849989D01*
X237742584Y-99847934D01*
X237721717Y-99849989D01*
X237721711Y-99849989D01*
X237667683Y-99855310D01*
X237659270Y-99856139D01*
X237634968Y-99863511D01*
X237579158Y-99880441D01*
X237505325Y-99919905D01*
X237440611Y-99973015D01*
X237427306Y-99989227D01*
X237145288Y-100271245D01*
X237082656Y-100258787D01*
X236934918Y-100258787D01*
X236790020Y-100287609D01*
X236653529Y-100344146D01*
X236530690Y-100426224D01*
X236426224Y-100530690D01*
X236344146Y-100653529D01*
X236287609Y-100790020D01*
X236258787Y-100934918D01*
X236258787Y-101082656D01*
X236287609Y-101227554D01*
X236344146Y-101364045D01*
X236426224Y-101486884D01*
X236530690Y-101591350D01*
X236653529Y-101673428D01*
X236784763Y-101727787D01*
X236687550Y-101825000D01*
X235076040Y-101825000D01*
X236595763Y-100305278D01*
X236611974Y-100291974D01*
X236625914Y-100274989D01*
X236665083Y-100227261D01*
X236665084Y-100227260D01*
X236704548Y-100153427D01*
X236725817Y-100083314D01*
X236728850Y-100073315D01*
X236731436Y-100047054D01*
X236735000Y-100010874D01*
X236735000Y-100010868D01*
X236737055Y-99990001D01*
X236735000Y-99969134D01*
X236735000Y-99838710D01*
X236854729Y-99789116D01*
X237043082Y-99663263D01*
X237203263Y-99503082D01*
X237329116Y-99314729D01*
X237415806Y-99105443D01*
X237460000Y-98883265D01*
X237460000Y-98656735D01*
X237416013Y-98435597D01*
X237697528Y-98435597D01*
X237746905Y-98620000D01*
X238700000Y-98620000D01*
X238700000Y-97667659D01*
X239000000Y-97667659D01*
X239000000Y-98620000D01*
X239953095Y-98620000D01*
X240002472Y-98435597D01*
X239915089Y-98217186D01*
X239786775Y-98020020D01*
X239622461Y-97851675D01*
X239428462Y-97718621D01*
X239212233Y-97625971D01*
X239184402Y-97617535D01*
X239000000Y-97667659D01*
X238700000Y-97667659D01*
X238515598Y-97617535D01*
X238487767Y-97625971D01*
X238271538Y-97718621D01*
X238077539Y-97851675D01*
X237913225Y-98020020D01*
X237784911Y-98217186D01*
X237697528Y-98435597D01*
X237416013Y-98435597D01*
X237415806Y-98434557D01*
X237329116Y-98225271D01*
X237203263Y-98036918D01*
X237043082Y-97876737D01*
X236854729Y-97750884D01*
X236645443Y-97664194D01*
X236423265Y-97620000D01*
X236196735Y-97620000D01*
X235974557Y-97664194D01*
X235765271Y-97750884D01*
X235576918Y-97876737D01*
X235416737Y-98036918D01*
X235290884Y-98225271D01*
X235204194Y-98434557D01*
X235160000Y-98656735D01*
X235160000Y-98883265D01*
X235204194Y-99105443D01*
X235290884Y-99314729D01*
X235416737Y-99503082D01*
X235576918Y-99663263D01*
X235765271Y-99789116D01*
X235867499Y-99831460D01*
X234323970Y-101374990D01*
X232976027Y-101374990D01*
X232487542Y-100886505D01*
X232500000Y-100823873D01*
X232500000Y-100676135D01*
X232471178Y-100531237D01*
X232414641Y-100394746D01*
X232332563Y-100271907D01*
X232228097Y-100167441D01*
X232105258Y-100085363D01*
X231968767Y-100028826D01*
X231823869Y-100000004D01*
X231676131Y-100000004D01*
X231531233Y-100028826D01*
X231394742Y-100085363D01*
X231271903Y-100167441D01*
X231167437Y-100271907D01*
X231085359Y-100394746D01*
X231028822Y-100531237D01*
X231021597Y-100567560D01*
X229944970Y-99490934D01*
X229934547Y-99456573D01*
X229934547Y-99456572D01*
X229895083Y-99382739D01*
X229841973Y-99318025D01*
X229825762Y-99304721D01*
X229746212Y-99225171D01*
X229795806Y-99105443D01*
X229840000Y-98883265D01*
X229840000Y-98656735D01*
X230080000Y-98656735D01*
X230080000Y-98883265D01*
X230124194Y-99105443D01*
X230210884Y-99314729D01*
X230336737Y-99503082D01*
X230496918Y-99663263D01*
X230685271Y-99789116D01*
X230894557Y-99875806D01*
X231116735Y-99920000D01*
X231343265Y-99920000D01*
X231565443Y-99875806D01*
X231774729Y-99789116D01*
X231963082Y-99663263D01*
X232123263Y-99503082D01*
X232249116Y-99314729D01*
X232335806Y-99105443D01*
X232380000Y-98883265D01*
X232380000Y-98656735D01*
X232620000Y-98656735D01*
X232620000Y-98883265D01*
X232664194Y-99105443D01*
X232750884Y-99314729D01*
X232876737Y-99503082D01*
X233036918Y-99663263D01*
X233225271Y-99789116D01*
X233434557Y-99875806D01*
X233656735Y-99920000D01*
X233883265Y-99920000D01*
X234105443Y-99875806D01*
X234314729Y-99789116D01*
X234503082Y-99663263D01*
X234663263Y-99503082D01*
X234789116Y-99314729D01*
X234875806Y-99105443D01*
X234920000Y-98883265D01*
X234920000Y-98656735D01*
X234875806Y-98434557D01*
X234789116Y-98225271D01*
X234663263Y-98036918D01*
X234503082Y-97876737D01*
X234314729Y-97750884D01*
X234105443Y-97664194D01*
X233883265Y-97620000D01*
X233656735Y-97620000D01*
X233434557Y-97664194D01*
X233225271Y-97750884D01*
X233036918Y-97876737D01*
X232876737Y-98036918D01*
X232750884Y-98225271D01*
X232664194Y-98434557D01*
X232620000Y-98656735D01*
X232380000Y-98656735D01*
X232335806Y-98434557D01*
X232249116Y-98225271D01*
X232123263Y-98036918D01*
X231963082Y-97876737D01*
X231774729Y-97750884D01*
X231565443Y-97664194D01*
X231343265Y-97620000D01*
X231116735Y-97620000D01*
X230894557Y-97664194D01*
X230685271Y-97750884D01*
X230496918Y-97876737D01*
X230336737Y-98036918D01*
X230210884Y-98225271D01*
X230124194Y-98434557D01*
X230080000Y-98656735D01*
X229840000Y-98656735D01*
X229795806Y-98434557D01*
X229709116Y-98225271D01*
X229583263Y-98036918D01*
X229423082Y-97876737D01*
X229234729Y-97750884D01*
X229025443Y-97664194D01*
X228803265Y-97620000D01*
X228576735Y-97620000D01*
X228354557Y-97664194D01*
X228145271Y-97750884D01*
X227956918Y-97876737D01*
X227796737Y-98036918D01*
X227670884Y-98225271D01*
X227584194Y-98434557D01*
X227540000Y-98656735D01*
X227540000Y-98883265D01*
X227584194Y-99105443D01*
X227670884Y-99314729D01*
X227796737Y-99503082D01*
X227868655Y-99575000D01*
X226971345Y-99575000D01*
X227043263Y-99503082D01*
X227169116Y-99314729D01*
X227255806Y-99105443D01*
X227300000Y-98883265D01*
X227300000Y-98656735D01*
X227255806Y-98434557D01*
X227169116Y-98225271D01*
X227043263Y-98036918D01*
X226883082Y-97876737D01*
X226694729Y-97750884D01*
X226485443Y-97664194D01*
X226263265Y-97620000D01*
X226036735Y-97620000D01*
X225814557Y-97664194D01*
X225605271Y-97750884D01*
X225416918Y-97876737D01*
X225256737Y-98036918D01*
X225130884Y-98225271D01*
X225044194Y-98434557D01*
X225000000Y-98656735D01*
X225000000Y-98883265D01*
X225044194Y-99105443D01*
X225130884Y-99314729D01*
X225256737Y-99503082D01*
X225328655Y-99575000D01*
X224431345Y-99575000D01*
X224503263Y-99503082D01*
X224629116Y-99314729D01*
X224715806Y-99105443D01*
X224760000Y-98883265D01*
X224760000Y-98656735D01*
X224715806Y-98434557D01*
X224629116Y-98225271D01*
X224503263Y-98036918D01*
X224343082Y-97876737D01*
X224154729Y-97750884D01*
X223945443Y-97664194D01*
X223723265Y-97620000D01*
X223496735Y-97620000D01*
X223274557Y-97664194D01*
X223065271Y-97750884D01*
X222876918Y-97876737D01*
X222716737Y-98036918D01*
X222590884Y-98225271D01*
X222504194Y-98434557D01*
X222460000Y-98656735D01*
X222460000Y-98883265D01*
X222504194Y-99105443D01*
X222590884Y-99314729D01*
X222716737Y-99503082D01*
X222788655Y-99575000D01*
X222020890Y-99575000D01*
X222000016Y-99572944D01*
X221979142Y-99575000D01*
X221916702Y-99581150D01*
X221871476Y-99594869D01*
X221963263Y-99503082D01*
X222089116Y-99314729D01*
X222175806Y-99105443D01*
X222220000Y-98883265D01*
X222220000Y-98656735D01*
X222175806Y-98434557D01*
X222089116Y-98225271D01*
X221963263Y-98036918D01*
X221803082Y-97876737D01*
X221614729Y-97750884D01*
X221405443Y-97664194D01*
X221183265Y-97620000D01*
X220956735Y-97620000D01*
X220734557Y-97664194D01*
X220525271Y-97750884D01*
X220336918Y-97876737D01*
X220176737Y-98036918D01*
X220050884Y-98225271D01*
X219964194Y-98434557D01*
X219920000Y-98656735D01*
X217140000Y-98656735D01*
X217096013Y-98435597D01*
X217377528Y-98435597D01*
X217426905Y-98620000D01*
X218380000Y-98620000D01*
X218380000Y-97667659D01*
X218680000Y-97667659D01*
X218680000Y-98620000D01*
X219633095Y-98620000D01*
X219682472Y-98435597D01*
X219595089Y-98217186D01*
X219466775Y-98020020D01*
X219302461Y-97851675D01*
X219108462Y-97718621D01*
X218892233Y-97625971D01*
X218864402Y-97617535D01*
X218680000Y-97667659D01*
X218380000Y-97667659D01*
X218195598Y-97617535D01*
X218167767Y-97625971D01*
X217951538Y-97718621D01*
X217757539Y-97851675D01*
X217593225Y-98020020D01*
X217464911Y-98217186D01*
X217377528Y-98435597D01*
X217096013Y-98435597D01*
X217095806Y-98434557D01*
X217009116Y-98225271D01*
X216883263Y-98036918D01*
X216723082Y-97876737D01*
X216534729Y-97750884D01*
X216325443Y-97664194D01*
X216103265Y-97620000D01*
X215876735Y-97620000D01*
X215654557Y-97664194D01*
X215445271Y-97750884D01*
X215256918Y-97876737D01*
X215096737Y-98036918D01*
X214970884Y-98225271D01*
X214884194Y-98434557D01*
X214840000Y-98656735D01*
X214600000Y-98656735D01*
X214555806Y-98434557D01*
X214469116Y-98225271D01*
X214343263Y-98036918D01*
X214183082Y-97876737D01*
X213994729Y-97750884D01*
X213785443Y-97664194D01*
X213563265Y-97620000D01*
X213336735Y-97620000D01*
X213114557Y-97664194D01*
X212905271Y-97750884D01*
X212716918Y-97876737D01*
X212556737Y-98036918D01*
X212430884Y-98225271D01*
X212344194Y-98434557D01*
X212300000Y-98656735D01*
X212060000Y-98656735D01*
X212015806Y-98434557D01*
X211929116Y-98225271D01*
X211803263Y-98036918D01*
X211643082Y-97876737D01*
X211454729Y-97750884D01*
X211245443Y-97664194D01*
X211023265Y-97620000D01*
X210796735Y-97620000D01*
X210574557Y-97664194D01*
X210365271Y-97750884D01*
X210176918Y-97876737D01*
X210016737Y-98036918D01*
X209890884Y-98225271D01*
X209804194Y-98434557D01*
X209760000Y-98656735D01*
X209521451Y-98656735D01*
X209521451Y-97920000D01*
X209515659Y-97861190D01*
X209498504Y-97804640D01*
X209470647Y-97752523D01*
X209433158Y-97706842D01*
X209387477Y-97669353D01*
X209335360Y-97641496D01*
X209278810Y-97624341D01*
X209220000Y-97618549D01*
X207520000Y-97618549D01*
X207461190Y-97624341D01*
X207404640Y-97641496D01*
X207352523Y-97669353D01*
X207306842Y-97706842D01*
X207269353Y-97752523D01*
X207241496Y-97804640D01*
X207224341Y-97861190D01*
X207218549Y-97920000D01*
X206800000Y-97920000D01*
X206800000Y-97729289D01*
X207499290Y-97030000D01*
X207543655Y-97030000D01*
X207636918Y-97123263D01*
X207825271Y-97249116D01*
X208034557Y-97335806D01*
X208256735Y-97380000D01*
X208483265Y-97380000D01*
X208705443Y-97335806D01*
X208914729Y-97249116D01*
X209103082Y-97123263D01*
X209263263Y-96963082D01*
X209389116Y-96774729D01*
X209475806Y-96565443D01*
X209520000Y-96343265D01*
X209520000Y-96116735D01*
X209760000Y-96116735D01*
X209760000Y-96343265D01*
X209804194Y-96565443D01*
X209890884Y-96774729D01*
X210016737Y-96963082D01*
X210176918Y-97123263D01*
X210365271Y-97249116D01*
X210574557Y-97335806D01*
X210796735Y-97380000D01*
X211023265Y-97380000D01*
X211245443Y-97335806D01*
X211454729Y-97249116D01*
X211643082Y-97123263D01*
X211803263Y-96963082D01*
X211929116Y-96774729D01*
X212015806Y-96565443D01*
X212016012Y-96564403D01*
X212297528Y-96564403D01*
X212384911Y-96782814D01*
X212513225Y-96979980D01*
X212677539Y-97148325D01*
X212871538Y-97281379D01*
X213087767Y-97374029D01*
X213115598Y-97382465D01*
X213300000Y-97332341D01*
X213300000Y-96380000D01*
X213600000Y-96380000D01*
X213600000Y-97332341D01*
X213784402Y-97382465D01*
X213812233Y-97374029D01*
X214028462Y-97281379D01*
X214222461Y-97148325D01*
X214386775Y-96979980D01*
X214515089Y-96782814D01*
X214602472Y-96564403D01*
X214553095Y-96380000D01*
X213600000Y-96380000D01*
X213300000Y-96380000D01*
X212346905Y-96380000D01*
X212297528Y-96564403D01*
X212016012Y-96564403D01*
X212060000Y-96343265D01*
X212060000Y-96116735D01*
X214840000Y-96116735D01*
X214840000Y-96343265D01*
X214884194Y-96565443D01*
X214970884Y-96774729D01*
X215096737Y-96963082D01*
X215256918Y-97123263D01*
X215445271Y-97249116D01*
X215654557Y-97335806D01*
X215876735Y-97380000D01*
X216103265Y-97380000D01*
X216325443Y-97335806D01*
X216534729Y-97249116D01*
X216723082Y-97123263D01*
X216883263Y-96963082D01*
X217009116Y-96774729D01*
X217095806Y-96565443D01*
X217140000Y-96343265D01*
X217140000Y-96116735D01*
X217380000Y-96116735D01*
X217380000Y-96343265D01*
X217424194Y-96565443D01*
X217510884Y-96774729D01*
X217636737Y-96963082D01*
X217796918Y-97123263D01*
X217985271Y-97249116D01*
X218194557Y-97335806D01*
X218416735Y-97380000D01*
X218643265Y-97380000D01*
X218865443Y-97335806D01*
X219074729Y-97249116D01*
X219263082Y-97123263D01*
X219423263Y-96963082D01*
X219549116Y-96774729D01*
X219635806Y-96565443D01*
X219680000Y-96343265D01*
X219680000Y-96116735D01*
X219920000Y-96116735D01*
X219920000Y-96343265D01*
X219964194Y-96565443D01*
X220050884Y-96774729D01*
X220176737Y-96963082D01*
X220336918Y-97123263D01*
X220525271Y-97249116D01*
X220734557Y-97335806D01*
X220956735Y-97380000D01*
X221183265Y-97380000D01*
X221405443Y-97335806D01*
X221614729Y-97249116D01*
X221803082Y-97123263D01*
X221963263Y-96963082D01*
X222089116Y-96774729D01*
X222175806Y-96565443D01*
X222176012Y-96564403D01*
X222457528Y-96564403D01*
X222544911Y-96782814D01*
X222673225Y-96979980D01*
X222837539Y-97148325D01*
X223031538Y-97281379D01*
X223247767Y-97374029D01*
X223275598Y-97382465D01*
X223460000Y-97332341D01*
X223460000Y-96380000D01*
X223760000Y-96380000D01*
X223760000Y-97332341D01*
X223944402Y-97382465D01*
X223972233Y-97374029D01*
X224188462Y-97281379D01*
X224382461Y-97148325D01*
X224546775Y-96979980D01*
X224675089Y-96782814D01*
X224762472Y-96564403D01*
X224713095Y-96380000D01*
X223760000Y-96380000D01*
X223460000Y-96380000D01*
X222506905Y-96380000D01*
X222457528Y-96564403D01*
X222176012Y-96564403D01*
X222220000Y-96343265D01*
X222220000Y-96116735D01*
X225000000Y-96116735D01*
X225000000Y-96343265D01*
X225044194Y-96565443D01*
X225130884Y-96774729D01*
X225256737Y-96963082D01*
X225416918Y-97123263D01*
X225605271Y-97249116D01*
X225814557Y-97335806D01*
X226036735Y-97380000D01*
X226263265Y-97380000D01*
X226485443Y-97335806D01*
X226694729Y-97249116D01*
X226883082Y-97123263D01*
X227043263Y-96963082D01*
X227169116Y-96774729D01*
X227255806Y-96565443D01*
X227300000Y-96343265D01*
X227300000Y-96116735D01*
X227540000Y-96116735D01*
X227540000Y-96343265D01*
X227584194Y-96565443D01*
X227670884Y-96774729D01*
X227796737Y-96963082D01*
X227956918Y-97123263D01*
X228145271Y-97249116D01*
X228354557Y-97335806D01*
X228576735Y-97380000D01*
X228803265Y-97380000D01*
X229025443Y-97335806D01*
X229234729Y-97249116D01*
X229423082Y-97123263D01*
X229583263Y-96963082D01*
X229709116Y-96774729D01*
X229795806Y-96565443D01*
X229796012Y-96564403D01*
X230077528Y-96564403D01*
X230164911Y-96782814D01*
X230293225Y-96979980D01*
X230457539Y-97148325D01*
X230651538Y-97281379D01*
X230867767Y-97374029D01*
X230895598Y-97382465D01*
X231080000Y-97332341D01*
X231080000Y-96380000D01*
X231380000Y-96380000D01*
X231380000Y-97332341D01*
X231564402Y-97382465D01*
X231592233Y-97374029D01*
X231808462Y-97281379D01*
X232002461Y-97148325D01*
X232166775Y-96979980D01*
X232295089Y-96782814D01*
X232382472Y-96564403D01*
X232333095Y-96380000D01*
X231380000Y-96380000D01*
X231080000Y-96380000D01*
X230126905Y-96380000D01*
X230077528Y-96564403D01*
X229796012Y-96564403D01*
X229840000Y-96343265D01*
X229840000Y-96116735D01*
X232620000Y-96116735D01*
X232620000Y-96343265D01*
X232664194Y-96565443D01*
X232750884Y-96774729D01*
X232876737Y-96963082D01*
X233036918Y-97123263D01*
X233225271Y-97249116D01*
X233434557Y-97335806D01*
X233656735Y-97380000D01*
X233883265Y-97380000D01*
X234105443Y-97335806D01*
X234314729Y-97249116D01*
X234503082Y-97123263D01*
X234663263Y-96963082D01*
X234789116Y-96774729D01*
X234875806Y-96565443D01*
X234920000Y-96343265D01*
X234920000Y-96116735D01*
X235160000Y-96116735D01*
X235160000Y-96343265D01*
X235204194Y-96565443D01*
X235290884Y-96774729D01*
X235416737Y-96963082D01*
X235576918Y-97123263D01*
X235765271Y-97249116D01*
X235974557Y-97335806D01*
X236196735Y-97380000D01*
X236423265Y-97380000D01*
X236645443Y-97335806D01*
X236854729Y-97249116D01*
X237043082Y-97123263D01*
X237203263Y-96963082D01*
X237329116Y-96774729D01*
X237415806Y-96565443D01*
X237460000Y-96343265D01*
X237460000Y-96116735D01*
X237700000Y-96116735D01*
X237700000Y-96343265D01*
X237744194Y-96565443D01*
X237830884Y-96774729D01*
X237956737Y-96963082D01*
X238116918Y-97123263D01*
X238305271Y-97249116D01*
X238514557Y-97335806D01*
X238736735Y-97380000D01*
X238963265Y-97380000D01*
X239185443Y-97335806D01*
X239394729Y-97249116D01*
X239583082Y-97123263D01*
X239743263Y-96963082D01*
X239869116Y-96774729D01*
X239955806Y-96565443D01*
X240000000Y-96343265D01*
X240000000Y-96116735D01*
X240240000Y-96116735D01*
X240240000Y-96343265D01*
X240284194Y-96565443D01*
X240370884Y-96774729D01*
X240496737Y-96963082D01*
X240656918Y-97123263D01*
X240845271Y-97249116D01*
X241054557Y-97335806D01*
X241276735Y-97380000D01*
X241503265Y-97380000D01*
X241725443Y-97335806D01*
X241934729Y-97249116D01*
X242123082Y-97123263D01*
X242283263Y-96963082D01*
X242409116Y-96774729D01*
X242495806Y-96565443D01*
X242496012Y-96564403D01*
X242777528Y-96564403D01*
X242864911Y-96782814D01*
X242993225Y-96979980D01*
X243157539Y-97148325D01*
X243351538Y-97281379D01*
X243567767Y-97374029D01*
X243595598Y-97382465D01*
X243780000Y-97332341D01*
X243780000Y-96380000D01*
X244080000Y-96380000D01*
X244080000Y-97332341D01*
X244264402Y-97382465D01*
X244292233Y-97374029D01*
X244508462Y-97281379D01*
X244702461Y-97148325D01*
X244866775Y-96979980D01*
X244995089Y-96782814D01*
X245082472Y-96564403D01*
X245033095Y-96380000D01*
X244080000Y-96380000D01*
X243780000Y-96380000D01*
X242826905Y-96380000D01*
X242777528Y-96564403D01*
X242496012Y-96564403D01*
X242540000Y-96343265D01*
X242540000Y-96116735D01*
X245320000Y-96116735D01*
X245320000Y-96343265D01*
X245364194Y-96565443D01*
X245450884Y-96774729D01*
X245576737Y-96963082D01*
X245736918Y-97123263D01*
X245925271Y-97249116D01*
X246134557Y-97335806D01*
X246356735Y-97380000D01*
X246583265Y-97380000D01*
X246805443Y-97335806D01*
X247014729Y-97249116D01*
X247203082Y-97123263D01*
X247363263Y-96963082D01*
X247489116Y-96774729D01*
X247575806Y-96565443D01*
X247576012Y-96564403D01*
X247857528Y-96564403D01*
X247944911Y-96782814D01*
X248073225Y-96979980D01*
X248237539Y-97148325D01*
X248431538Y-97281379D01*
X248647767Y-97374029D01*
X248675598Y-97382465D01*
X248860000Y-97332341D01*
X248860000Y-96380000D01*
X249160000Y-96380000D01*
X249160000Y-97332341D01*
X249344402Y-97382465D01*
X249372233Y-97374029D01*
X249588462Y-97281379D01*
X249782461Y-97148325D01*
X249946775Y-96979980D01*
X250075089Y-96782814D01*
X250162472Y-96564403D01*
X250113095Y-96380000D01*
X249160000Y-96380000D01*
X248860000Y-96380000D01*
X247906905Y-96380000D01*
X247857528Y-96564403D01*
X247576012Y-96564403D01*
X247620000Y-96343265D01*
X247620000Y-96116735D01*
X250400000Y-96116735D01*
X250400000Y-96343265D01*
X250444194Y-96565443D01*
X250530884Y-96774729D01*
X250656737Y-96963082D01*
X250816918Y-97123263D01*
X251005271Y-97249116D01*
X251214557Y-97335806D01*
X251436735Y-97380000D01*
X251663265Y-97380000D01*
X251885443Y-97335806D01*
X252094729Y-97249116D01*
X252283082Y-97123263D01*
X252443263Y-96963082D01*
X252569116Y-96774729D01*
X252655806Y-96565443D01*
X252700000Y-96343265D01*
X252700000Y-96116735D01*
X252940000Y-96116735D01*
X252940000Y-96343265D01*
X252984194Y-96565443D01*
X253070884Y-96774729D01*
X253196737Y-96963082D01*
X253356918Y-97123263D01*
X253545271Y-97249116D01*
X253754557Y-97335806D01*
X253976735Y-97380000D01*
X254203265Y-97380000D01*
X254425443Y-97335806D01*
X254634729Y-97249116D01*
X254823082Y-97123263D01*
X254983263Y-96963082D01*
X255109116Y-96774729D01*
X255195806Y-96565443D01*
X255240000Y-96343265D01*
X255240000Y-96116735D01*
X255480000Y-96116735D01*
X255480000Y-96343265D01*
X255524194Y-96565443D01*
X255610884Y-96774729D01*
X255736737Y-96963082D01*
X255896918Y-97123263D01*
X256085271Y-97249116D01*
X256294557Y-97335806D01*
X256516735Y-97380000D01*
X256743265Y-97380000D01*
X256956981Y-97337489D01*
X259850000Y-97337489D01*
X259850000Y-97662511D01*
X259913408Y-97981287D01*
X260037789Y-98281568D01*
X260218361Y-98551814D01*
X260448186Y-98781639D01*
X260718432Y-98962211D01*
X261018713Y-99086592D01*
X261337489Y-99150000D01*
X261662511Y-99150000D01*
X261981287Y-99086592D01*
X262281568Y-98962211D01*
X262551814Y-98781639D01*
X262781639Y-98551814D01*
X262962211Y-98281568D01*
X263086592Y-97981287D01*
X263150000Y-97662511D01*
X263150000Y-97337489D01*
X263086592Y-97018713D01*
X262962211Y-96718432D01*
X262781639Y-96448186D01*
X262551814Y-96218361D01*
X262281568Y-96037789D01*
X261981287Y-95913408D01*
X261662511Y-95850000D01*
X261337489Y-95850000D01*
X261018713Y-95913408D01*
X260718432Y-96037789D01*
X260448186Y-96218361D01*
X260218361Y-96448186D01*
X260037789Y-96718432D01*
X259913408Y-97018713D01*
X259850000Y-97337489D01*
X256956981Y-97337489D01*
X256965443Y-97335806D01*
X257174729Y-97249116D01*
X257363082Y-97123263D01*
X257523263Y-96963082D01*
X257649116Y-96774729D01*
X257735806Y-96565443D01*
X257780000Y-96343265D01*
X257780000Y-96116735D01*
X257735806Y-95894557D01*
X257649116Y-95685271D01*
X257523263Y-95496918D01*
X257363082Y-95336737D01*
X257174729Y-95210884D01*
X256965443Y-95124194D01*
X256743265Y-95080000D01*
X256516735Y-95080000D01*
X256294557Y-95124194D01*
X256085271Y-95210884D01*
X255896918Y-95336737D01*
X255736737Y-95496918D01*
X255610884Y-95685271D01*
X255524194Y-95894557D01*
X255480000Y-96116735D01*
X255240000Y-96116735D01*
X255195806Y-95894557D01*
X255109116Y-95685271D01*
X254983263Y-95496918D01*
X254823082Y-95336737D01*
X254634729Y-95210884D01*
X254425443Y-95124194D01*
X254203265Y-95080000D01*
X253976735Y-95080000D01*
X253754557Y-95124194D01*
X253545271Y-95210884D01*
X253356918Y-95336737D01*
X253196737Y-95496918D01*
X253070884Y-95685271D01*
X252984194Y-95894557D01*
X252940000Y-96116735D01*
X252700000Y-96116735D01*
X252655806Y-95894557D01*
X252569116Y-95685271D01*
X252443263Y-95496918D01*
X252283082Y-95336737D01*
X252094729Y-95210884D01*
X251885443Y-95124194D01*
X251663265Y-95080000D01*
X251436735Y-95080000D01*
X251214557Y-95124194D01*
X251005271Y-95210884D01*
X250816918Y-95336737D01*
X250656737Y-95496918D01*
X250530884Y-95685271D01*
X250444194Y-95894557D01*
X250400000Y-96116735D01*
X247620000Y-96116735D01*
X247576013Y-95895597D01*
X247857528Y-95895597D01*
X247906905Y-96080000D01*
X248860000Y-96080000D01*
X248860000Y-95127659D01*
X249160000Y-95127659D01*
X249160000Y-96080000D01*
X250113095Y-96080000D01*
X250162472Y-95895597D01*
X250075089Y-95677186D01*
X249946775Y-95480020D01*
X249782461Y-95311675D01*
X249588462Y-95178621D01*
X249372233Y-95085971D01*
X249344402Y-95077535D01*
X249160000Y-95127659D01*
X248860000Y-95127659D01*
X248675598Y-95077535D01*
X248647767Y-95085971D01*
X248431538Y-95178621D01*
X248237539Y-95311675D01*
X248073225Y-95480020D01*
X247944911Y-95677186D01*
X247857528Y-95895597D01*
X247576013Y-95895597D01*
X247575806Y-95894557D01*
X247489116Y-95685271D01*
X247363263Y-95496918D01*
X247203082Y-95336737D01*
X247014729Y-95210884D01*
X246805443Y-95124194D01*
X246583265Y-95080000D01*
X246356735Y-95080000D01*
X246134557Y-95124194D01*
X245925271Y-95210884D01*
X245736918Y-95336737D01*
X245576737Y-95496918D01*
X245450884Y-95685271D01*
X245364194Y-95894557D01*
X245320000Y-96116735D01*
X242540000Y-96116735D01*
X242496013Y-95895597D01*
X242777528Y-95895597D01*
X242826905Y-96080000D01*
X243780000Y-96080000D01*
X243780000Y-95127659D01*
X244080000Y-95127659D01*
X244080000Y-96080000D01*
X245033095Y-96080000D01*
X245082472Y-95895597D01*
X244995089Y-95677186D01*
X244866775Y-95480020D01*
X244702461Y-95311675D01*
X244508462Y-95178621D01*
X244292233Y-95085971D01*
X244264402Y-95077535D01*
X244080000Y-95127659D01*
X243780000Y-95127659D01*
X243595598Y-95077535D01*
X243567767Y-95085971D01*
X243351538Y-95178621D01*
X243157539Y-95311675D01*
X242993225Y-95480020D01*
X242864911Y-95677186D01*
X242777528Y-95895597D01*
X242496013Y-95895597D01*
X242495806Y-95894557D01*
X242409116Y-95685271D01*
X242283263Y-95496918D01*
X242123082Y-95336737D01*
X241934729Y-95210884D01*
X241725443Y-95124194D01*
X241503265Y-95080000D01*
X241276735Y-95080000D01*
X241054557Y-95124194D01*
X240845271Y-95210884D01*
X240656918Y-95336737D01*
X240496737Y-95496918D01*
X240370884Y-95685271D01*
X240284194Y-95894557D01*
X240240000Y-96116735D01*
X240000000Y-96116735D01*
X239955806Y-95894557D01*
X239869116Y-95685271D01*
X239743263Y-95496918D01*
X239583082Y-95336737D01*
X239394729Y-95210884D01*
X239185443Y-95124194D01*
X238963265Y-95080000D01*
X238736735Y-95080000D01*
X238514557Y-95124194D01*
X238305271Y-95210884D01*
X238116918Y-95336737D01*
X237956737Y-95496918D01*
X237830884Y-95685271D01*
X237744194Y-95894557D01*
X237700000Y-96116735D01*
X237460000Y-96116735D01*
X237415806Y-95894557D01*
X237329116Y-95685271D01*
X237203263Y-95496918D01*
X237043082Y-95336737D01*
X236854729Y-95210884D01*
X236645443Y-95124194D01*
X236423265Y-95080000D01*
X236196735Y-95080000D01*
X235974557Y-95124194D01*
X235765271Y-95210884D01*
X235576918Y-95336737D01*
X235416737Y-95496918D01*
X235290884Y-95685271D01*
X235204194Y-95894557D01*
X235160000Y-96116735D01*
X234920000Y-96116735D01*
X234875806Y-95894557D01*
X234789116Y-95685271D01*
X234663263Y-95496918D01*
X234503082Y-95336737D01*
X234314729Y-95210884D01*
X234105443Y-95124194D01*
X233883265Y-95080000D01*
X233656735Y-95080000D01*
X233434557Y-95124194D01*
X233225271Y-95210884D01*
X233036918Y-95336737D01*
X232876737Y-95496918D01*
X232750884Y-95685271D01*
X232664194Y-95894557D01*
X232620000Y-96116735D01*
X229840000Y-96116735D01*
X229796013Y-95895597D01*
X230077528Y-95895597D01*
X230126905Y-96080000D01*
X231080000Y-96080000D01*
X231080000Y-95127659D01*
X231380000Y-95127659D01*
X231380000Y-96080000D01*
X232333095Y-96080000D01*
X232382472Y-95895597D01*
X232295089Y-95677186D01*
X232166775Y-95480020D01*
X232002461Y-95311675D01*
X231808462Y-95178621D01*
X231592233Y-95085971D01*
X231564402Y-95077535D01*
X231380000Y-95127659D01*
X231080000Y-95127659D01*
X230895598Y-95077535D01*
X230867767Y-95085971D01*
X230651538Y-95178621D01*
X230457539Y-95311675D01*
X230293225Y-95480020D01*
X230164911Y-95677186D01*
X230077528Y-95895597D01*
X229796013Y-95895597D01*
X229795806Y-95894557D01*
X229709116Y-95685271D01*
X229583263Y-95496918D01*
X229423082Y-95336737D01*
X229234729Y-95210884D01*
X229025443Y-95124194D01*
X228803265Y-95080000D01*
X228576735Y-95080000D01*
X228354557Y-95124194D01*
X228145271Y-95210884D01*
X227956918Y-95336737D01*
X227796737Y-95496918D01*
X227670884Y-95685271D01*
X227584194Y-95894557D01*
X227540000Y-96116735D01*
X227300000Y-96116735D01*
X227255806Y-95894557D01*
X227169116Y-95685271D01*
X227043263Y-95496918D01*
X226883082Y-95336737D01*
X226694729Y-95210884D01*
X226485443Y-95124194D01*
X226263265Y-95080000D01*
X226036735Y-95080000D01*
X225814557Y-95124194D01*
X225605271Y-95210884D01*
X225416918Y-95336737D01*
X225256737Y-95496918D01*
X225130884Y-95685271D01*
X225044194Y-95894557D01*
X225000000Y-96116735D01*
X222220000Y-96116735D01*
X222176013Y-95895597D01*
X222457528Y-95895597D01*
X222506905Y-96080000D01*
X223460000Y-96080000D01*
X223460000Y-95127659D01*
X223760000Y-95127659D01*
X223760000Y-96080000D01*
X224713095Y-96080000D01*
X224762472Y-95895597D01*
X224675089Y-95677186D01*
X224546775Y-95480020D01*
X224382461Y-95311675D01*
X224188462Y-95178621D01*
X223972233Y-95085971D01*
X223944402Y-95077535D01*
X223760000Y-95127659D01*
X223460000Y-95127659D01*
X223275598Y-95077535D01*
X223247767Y-95085971D01*
X223031538Y-95178621D01*
X222837539Y-95311675D01*
X222673225Y-95480020D01*
X222544911Y-95677186D01*
X222457528Y-95895597D01*
X222176013Y-95895597D01*
X222175806Y-95894557D01*
X222089116Y-95685271D01*
X221963263Y-95496918D01*
X221803082Y-95336737D01*
X221614729Y-95210884D01*
X221405443Y-95124194D01*
X221183265Y-95080000D01*
X220956735Y-95080000D01*
X220734557Y-95124194D01*
X220525271Y-95210884D01*
X220336918Y-95336737D01*
X220176737Y-95496918D01*
X220050884Y-95685271D01*
X219964194Y-95894557D01*
X219920000Y-96116735D01*
X219680000Y-96116735D01*
X219635806Y-95894557D01*
X219549116Y-95685271D01*
X219423263Y-95496918D01*
X219263082Y-95336737D01*
X219074729Y-95210884D01*
X218865443Y-95124194D01*
X218643265Y-95080000D01*
X218416735Y-95080000D01*
X218194557Y-95124194D01*
X217985271Y-95210884D01*
X217796918Y-95336737D01*
X217636737Y-95496918D01*
X217510884Y-95685271D01*
X217424194Y-95894557D01*
X217380000Y-96116735D01*
X217140000Y-96116735D01*
X217095806Y-95894557D01*
X217009116Y-95685271D01*
X216883263Y-95496918D01*
X216723082Y-95336737D01*
X216534729Y-95210884D01*
X216325443Y-95124194D01*
X216103265Y-95080000D01*
X215876735Y-95080000D01*
X215654557Y-95124194D01*
X215445271Y-95210884D01*
X215256918Y-95336737D01*
X215096737Y-95496918D01*
X214970884Y-95685271D01*
X214884194Y-95894557D01*
X214840000Y-96116735D01*
X212060000Y-96116735D01*
X212016013Y-95895597D01*
X212297528Y-95895597D01*
X212346905Y-96080000D01*
X213300000Y-96080000D01*
X213300000Y-95127659D01*
X213600000Y-95127659D01*
X213600000Y-96080000D01*
X214553095Y-96080000D01*
X214602472Y-95895597D01*
X214515089Y-95677186D01*
X214386775Y-95480020D01*
X214222461Y-95311675D01*
X214028462Y-95178621D01*
X213812233Y-95085971D01*
X213784402Y-95077535D01*
X213600000Y-95127659D01*
X213300000Y-95127659D01*
X213115598Y-95077535D01*
X213087767Y-95085971D01*
X212871538Y-95178621D01*
X212677539Y-95311675D01*
X212513225Y-95480020D01*
X212384911Y-95677186D01*
X212297528Y-95895597D01*
X212016013Y-95895597D01*
X212015806Y-95894557D01*
X211929116Y-95685271D01*
X211803263Y-95496918D01*
X211643082Y-95336737D01*
X211454729Y-95210884D01*
X211245443Y-95124194D01*
X211023265Y-95080000D01*
X210796735Y-95080000D01*
X210574557Y-95124194D01*
X210365271Y-95210884D01*
X210176918Y-95336737D01*
X210016737Y-95496918D01*
X209890884Y-95685271D01*
X209804194Y-95894557D01*
X209760000Y-96116735D01*
X209520000Y-96116735D01*
X209475806Y-95894557D01*
X209389116Y-95685271D01*
X209263263Y-95496918D01*
X209103082Y-95336737D01*
X208914729Y-95210884D01*
X208705443Y-95124194D01*
X208483265Y-95080000D01*
X208256735Y-95080000D01*
X208034557Y-95124194D01*
X207825271Y-95210884D01*
X207636918Y-95336737D01*
X207543655Y-95430000D01*
X207207210Y-95430000D01*
X207167919Y-95426130D01*
X207128628Y-95430000D01*
X207128626Y-95430000D01*
X207011092Y-95441576D01*
X206869347Y-95484574D01*
X206860291Y-95487321D01*
X206721312Y-95561607D01*
X206657040Y-95614354D01*
X206599497Y-95661578D01*
X206574450Y-95692098D01*
X205462098Y-96804451D01*
X205431579Y-96829497D01*
X205406532Y-96860017D01*
X205406531Y-96860018D01*
X205331607Y-96951313D01*
X205257321Y-97090292D01*
X205211577Y-97241092D01*
X205196130Y-97397919D01*
X205150000Y-97397919D01*
X205150000Y-97337489D01*
X205086592Y-97018713D01*
X204962211Y-96718432D01*
X204781639Y-96448186D01*
X204551814Y-96218361D01*
X204281568Y-96037789D01*
X203981287Y-95913408D01*
X203662511Y-95850000D01*
X203337489Y-95850000D01*
X203018713Y-95913408D01*
X202718432Y-96037789D01*
X202448186Y-96218361D01*
X202218361Y-96448186D01*
X202037789Y-96718432D01*
X201913408Y-97018713D01*
X201850000Y-97337489D01*
X200350000Y-97337489D01*
X200350000Y-97017122D01*
X200402116Y-96485603D01*
X200551505Y-95990804D01*
X200794157Y-95534439D01*
X201120827Y-95133904D01*
X201519081Y-94804439D01*
X201973734Y-94558610D01*
X202467479Y-94405770D01*
X202998008Y-94350009D01*
X203000646Y-94350000D01*
X261982878Y-94350000D01*
X262514397Y-94402116D01*
G36*
X218650000Y-127950000D02*
G01*
X218737500Y-128037500D01*
X220850000Y-128037500D01*
X220850000Y-128017500D01*
X221150000Y-128017500D01*
X221150000Y-128037500D01*
X223262500Y-128037500D01*
X223350000Y-127950000D01*
X223351129Y-127600000D01*
X224715458Y-127600000D01*
X224697474Y-127612372D01*
X224531539Y-127782859D01*
X224402053Y-127982443D01*
X224313991Y-128203453D01*
X224363199Y-128390000D01*
X225330000Y-128390000D01*
X225330000Y-128370000D01*
X225630000Y-128370000D01*
X225630000Y-128390000D01*
X226596801Y-128390000D01*
X226646009Y-128203453D01*
X226557947Y-127982443D01*
X226428461Y-127782859D01*
X226262526Y-127612372D01*
X226244542Y-127600000D01*
X227255458Y-127600000D01*
X227237474Y-127612372D01*
X227071539Y-127782859D01*
X226942053Y-127982443D01*
X226853991Y-128203453D01*
X226903199Y-128390000D01*
X227870000Y-128390000D01*
X227870000Y-128370000D01*
X228170000Y-128370000D01*
X228170000Y-128390000D01*
X229136801Y-128390000D01*
X229186009Y-128203453D01*
X229097947Y-127982443D01*
X228968461Y-127782859D01*
X228802526Y-127612372D01*
X228784542Y-127600000D01*
X229795458Y-127600000D01*
X229777474Y-127612372D01*
X229611539Y-127782859D01*
X229482053Y-127982443D01*
X229393991Y-128203453D01*
X229443199Y-128390000D01*
X230410000Y-128390000D01*
X230410000Y-128370000D01*
X230710000Y-128370000D01*
X230710000Y-128390000D01*
X231676801Y-128390000D01*
X231726009Y-128203453D01*
X231637947Y-127982443D01*
X231508461Y-127782859D01*
X231342526Y-127612372D01*
X231324542Y-127600000D01*
X232335458Y-127600000D01*
X232317474Y-127612372D01*
X232151539Y-127782859D01*
X232022053Y-127982443D01*
X231933991Y-128203453D01*
X231983199Y-128390000D01*
X232950000Y-128390000D01*
X232950000Y-128370000D01*
X233250000Y-128370000D01*
X233250000Y-128390000D01*
X234216801Y-128390000D01*
X234266009Y-128203453D01*
X234177947Y-127982443D01*
X234048461Y-127782859D01*
X233882526Y-127612372D01*
X233864542Y-127600000D01*
X234648871Y-127600000D01*
X234650000Y-127950000D01*
X234737500Y-128037500D01*
X236850000Y-128037500D01*
X236850000Y-128017500D01*
X237150000Y-128017500D01*
X237150000Y-128037500D01*
X239262500Y-128037500D01*
X239350000Y-127950000D01*
X239351129Y-127600000D01*
X255398871Y-127600000D01*
X255400000Y-127950000D01*
X255487500Y-128037500D01*
X257600000Y-128037500D01*
X257600000Y-128017500D01*
X257900000Y-128017500D01*
X257900000Y-128037500D01*
X260012500Y-128037500D01*
X260100000Y-127950000D01*
X260101129Y-127600000D01*
X264519809Y-127600000D01*
X264402046Y-127990053D01*
X264163998Y-128437757D01*
X263843522Y-128830698D01*
X263452830Y-129153907D01*
X263006795Y-129395077D01*
X262522419Y-129545016D01*
X261999288Y-129600000D01*
X233690105Y-129600000D01*
X233882526Y-129467628D01*
X234048461Y-129297141D01*
X234177947Y-129097557D01*
X234236741Y-128950000D01*
X234648306Y-128950000D01*
X234655064Y-129018612D01*
X234675077Y-129084587D01*
X234707577Y-129145391D01*
X234751315Y-129198685D01*
X234804609Y-129242423D01*
X234865413Y-129274923D01*
X234931388Y-129294936D01*
X235000000Y-129301694D01*
X236762500Y-129300000D01*
X236850000Y-129212500D01*
X236850000Y-128337500D01*
X237150000Y-128337500D01*
X237150000Y-129212500D01*
X237237500Y-129300000D01*
X239000000Y-129301694D01*
X239068612Y-129294936D01*
X239134587Y-129274923D01*
X239195391Y-129242423D01*
X239248685Y-129198685D01*
X239292423Y-129145391D01*
X239324923Y-129084587D01*
X239344936Y-129018612D01*
X239351694Y-128950000D01*
X255398306Y-128950000D01*
X255405064Y-129018612D01*
X255425077Y-129084587D01*
X255457577Y-129145391D01*
X255501315Y-129198685D01*
X255554609Y-129242423D01*
X255615413Y-129274923D01*
X255681388Y-129294936D01*
X255750000Y-129301694D01*
X257512500Y-129300000D01*
X257600000Y-129212500D01*
X257600000Y-128337500D01*
X257900000Y-128337500D01*
X257900000Y-129212500D01*
X257987500Y-129300000D01*
X259750000Y-129301694D01*
X259818612Y-129294936D01*
X259884587Y-129274923D01*
X259945391Y-129242423D01*
X259998685Y-129198685D01*
X260042423Y-129145391D01*
X260074923Y-129084587D01*
X260094936Y-129018612D01*
X260101694Y-128950000D01*
X260100000Y-128425000D01*
X260012500Y-128337500D01*
X257900000Y-128337500D01*
X257600000Y-128337500D01*
X255487500Y-128337500D01*
X255400000Y-128425000D01*
X255398306Y-128950000D01*
X239351694Y-128950000D01*
X239350000Y-128425000D01*
X239262500Y-128337500D01*
X237150000Y-128337500D01*
X236850000Y-128337500D01*
X234737500Y-128337500D01*
X234650000Y-128425000D01*
X234648306Y-128950000D01*
X234236741Y-128950000D01*
X234266009Y-128876547D01*
X234216801Y-128690000D01*
X233250000Y-128690000D01*
X233250000Y-128710000D01*
X232950000Y-128710000D01*
X232950000Y-128690000D01*
X231983199Y-128690000D01*
X231933991Y-128876547D01*
X232022053Y-129097557D01*
X232151539Y-129297141D01*
X232317474Y-129467628D01*
X232509895Y-129600000D01*
X231150105Y-129600000D01*
X231342526Y-129467628D01*
X231508461Y-129297141D01*
X231637947Y-129097557D01*
X231726009Y-128876547D01*
X231676801Y-128690000D01*
X230710000Y-128690000D01*
X230710000Y-128710000D01*
X230410000Y-128710000D01*
X230410000Y-128690000D01*
X229443199Y-128690000D01*
X229393991Y-128876547D01*
X229482053Y-129097557D01*
X229611539Y-129297141D01*
X229777474Y-129467628D01*
X229969895Y-129600000D01*
X228610105Y-129600000D01*
X228802526Y-129467628D01*
X228968461Y-129297141D01*
X229097947Y-129097557D01*
X229186009Y-128876547D01*
X229136801Y-128690000D01*
X228170000Y-128690000D01*
X228170000Y-128710000D01*
X227870000Y-128710000D01*
X227870000Y-128690000D01*
X226903199Y-128690000D01*
X226853991Y-128876547D01*
X226942053Y-129097557D01*
X227071539Y-129297141D01*
X227237474Y-129467628D01*
X227429895Y-129600000D01*
X226070105Y-129600000D01*
X226262526Y-129467628D01*
X226428461Y-129297141D01*
X226557947Y-129097557D01*
X226646009Y-128876547D01*
X226596801Y-128690000D01*
X225630000Y-128690000D01*
X225630000Y-128710000D01*
X225330000Y-128710000D01*
X225330000Y-128690000D01*
X224363199Y-128690000D01*
X224313991Y-128876547D01*
X224402053Y-129097557D01*
X224531539Y-129297141D01*
X224697474Y-129467628D01*
X224889895Y-129600000D01*
X203019564Y-129600000D01*
X202495363Y-129548601D01*
X202009947Y-129402046D01*
X201562243Y-129163998D01*
X201299857Y-128950000D01*
X218648306Y-128950000D01*
X218655064Y-129018612D01*
X218675077Y-129084587D01*
X218707577Y-129145391D01*
X218751315Y-129198685D01*
X218804609Y-129242423D01*
X218865413Y-129274923D01*
X218931388Y-129294936D01*
X219000000Y-129301694D01*
X220762500Y-129300000D01*
X220850000Y-129212500D01*
X220850000Y-128337500D01*
X221150000Y-128337500D01*
X221150000Y-129212500D01*
X221237500Y-129300000D01*
X223000000Y-129301694D01*
X223068612Y-129294936D01*
X223134587Y-129274923D01*
X223195391Y-129242423D01*
X223248685Y-129198685D01*
X223292423Y-129145391D01*
X223324923Y-129084587D01*
X223344936Y-129018612D01*
X223351694Y-128950000D01*
X223350000Y-128425000D01*
X223262500Y-128337500D01*
X221150000Y-128337500D01*
X220850000Y-128337500D01*
X218737500Y-128337500D01*
X218650000Y-128425000D01*
X218648306Y-128950000D01*
X201299857Y-128950000D01*
X201169302Y-128843522D01*
X200846093Y-128452830D01*
X200604923Y-128006795D01*
X200478999Y-127600000D01*
X218648871Y-127600000D01*
X218650000Y-127950000D01*
G37*
X218650000Y-127950000D02*
X218737500Y-128037500D01*
X220850000Y-128037500D01*
X220850000Y-128017500D01*
X221150000Y-128017500D01*
X221150000Y-128037500D01*
X223262500Y-128037500D01*
X223350000Y-127950000D01*
X223351129Y-127600000D01*
X224715458Y-127600000D01*
X224697474Y-127612372D01*
X224531539Y-127782859D01*
X224402053Y-127982443D01*
X224313991Y-128203453D01*
X224363199Y-128390000D01*
X225330000Y-128390000D01*
X225330000Y-128370000D01*
X225630000Y-128370000D01*
X225630000Y-128390000D01*
X226596801Y-128390000D01*
X226646009Y-128203453D01*
X226557947Y-127982443D01*
X226428461Y-127782859D01*
X226262526Y-127612372D01*
X226244542Y-127600000D01*
X227255458Y-127600000D01*
X227237474Y-127612372D01*
X227071539Y-127782859D01*
X226942053Y-127982443D01*
X226853991Y-128203453D01*
X226903199Y-128390000D01*
X227870000Y-128390000D01*
X227870000Y-128370000D01*
X228170000Y-128370000D01*
X228170000Y-128390000D01*
X229136801Y-128390000D01*
X229186009Y-128203453D01*
X229097947Y-127982443D01*
X228968461Y-127782859D01*
X228802526Y-127612372D01*
X228784542Y-127600000D01*
X229795458Y-127600000D01*
X229777474Y-127612372D01*
X229611539Y-127782859D01*
X229482053Y-127982443D01*
X229393991Y-128203453D01*
X229443199Y-128390000D01*
X230410000Y-128390000D01*
X230410000Y-128370000D01*
X230710000Y-128370000D01*
X230710000Y-128390000D01*
X231676801Y-128390000D01*
X231726009Y-128203453D01*
X231637947Y-127982443D01*
X231508461Y-127782859D01*
X231342526Y-127612372D01*
X231324542Y-127600000D01*
X232335458Y-127600000D01*
X232317474Y-127612372D01*
X232151539Y-127782859D01*
X232022053Y-127982443D01*
X231933991Y-128203453D01*
X231983199Y-128390000D01*
X232950000Y-128390000D01*
X232950000Y-128370000D01*
X233250000Y-128370000D01*
X233250000Y-128390000D01*
X234216801Y-128390000D01*
X234266009Y-128203453D01*
X234177947Y-127982443D01*
X234048461Y-127782859D01*
X233882526Y-127612372D01*
X233864542Y-127600000D01*
X234648871Y-127600000D01*
X234650000Y-127950000D01*
X234737500Y-128037500D01*
X236850000Y-128037500D01*
X236850000Y-128017500D01*
X237150000Y-128017500D01*
X237150000Y-128037500D01*
X239262500Y-128037500D01*
X239350000Y-127950000D01*
X239351129Y-127600000D01*
X255398871Y-127600000D01*
X255400000Y-127950000D01*
X255487500Y-128037500D01*
X257600000Y-128037500D01*
X257600000Y-128017500D01*
X257900000Y-128017500D01*
X257900000Y-128037500D01*
X260012500Y-128037500D01*
X260100000Y-127950000D01*
X260101129Y-127600000D01*
X264519809Y-127600000D01*
X264402046Y-127990053D01*
X264163998Y-128437757D01*
X263843522Y-128830698D01*
X263452830Y-129153907D01*
X263006795Y-129395077D01*
X262522419Y-129545016D01*
X261999288Y-129600000D01*
X233690105Y-129600000D01*
X233882526Y-129467628D01*
X234048461Y-129297141D01*
X234177947Y-129097557D01*
X234236741Y-128950000D01*
X234648306Y-128950000D01*
X234655064Y-129018612D01*
X234675077Y-129084587D01*
X234707577Y-129145391D01*
X234751315Y-129198685D01*
X234804609Y-129242423D01*
X234865413Y-129274923D01*
X234931388Y-129294936D01*
X235000000Y-129301694D01*
X236762500Y-129300000D01*
X236850000Y-129212500D01*
X236850000Y-128337500D01*
X237150000Y-128337500D01*
X237150000Y-129212500D01*
X237237500Y-129300000D01*
X239000000Y-129301694D01*
X239068612Y-129294936D01*
X239134587Y-129274923D01*
X239195391Y-129242423D01*
X239248685Y-129198685D01*
X239292423Y-129145391D01*
X239324923Y-129084587D01*
X239344936Y-129018612D01*
X239351694Y-128950000D01*
X255398306Y-128950000D01*
X255405064Y-129018612D01*
X255425077Y-129084587D01*
X255457577Y-129145391D01*
X255501315Y-129198685D01*
X255554609Y-129242423D01*
X255615413Y-129274923D01*
X255681388Y-129294936D01*
X255750000Y-129301694D01*
X257512500Y-129300000D01*
X257600000Y-129212500D01*
X257600000Y-128337500D01*
X257900000Y-128337500D01*
X257900000Y-129212500D01*
X257987500Y-129300000D01*
X259750000Y-129301694D01*
X259818612Y-129294936D01*
X259884587Y-129274923D01*
X259945391Y-129242423D01*
X259998685Y-129198685D01*
X260042423Y-129145391D01*
X260074923Y-129084587D01*
X260094936Y-129018612D01*
X260101694Y-128950000D01*
X260100000Y-128425000D01*
X260012500Y-128337500D01*
X257900000Y-128337500D01*
X257600000Y-128337500D01*
X255487500Y-128337500D01*
X255400000Y-128425000D01*
X255398306Y-128950000D01*
X239351694Y-128950000D01*
X239350000Y-128425000D01*
X239262500Y-128337500D01*
X237150000Y-128337500D01*
X236850000Y-128337500D01*
X234737500Y-128337500D01*
X234650000Y-128425000D01*
X234648306Y-128950000D01*
X234236741Y-128950000D01*
X234266009Y-128876547D01*
X234216801Y-128690000D01*
X233250000Y-128690000D01*
X233250000Y-128710000D01*
X232950000Y-128710000D01*
X232950000Y-128690000D01*
X231983199Y-128690000D01*
X231933991Y-128876547D01*
X232022053Y-129097557D01*
X232151539Y-129297141D01*
X232317474Y-129467628D01*
X232509895Y-129600000D01*
X231150105Y-129600000D01*
X231342526Y-129467628D01*
X231508461Y-129297141D01*
X231637947Y-129097557D01*
X231726009Y-128876547D01*
X231676801Y-128690000D01*
X230710000Y-128690000D01*
X230710000Y-128710000D01*
X230410000Y-128710000D01*
X230410000Y-128690000D01*
X229443199Y-128690000D01*
X229393991Y-128876547D01*
X229482053Y-129097557D01*
X229611539Y-129297141D01*
X229777474Y-129467628D01*
X229969895Y-129600000D01*
X228610105Y-129600000D01*
X228802526Y-129467628D01*
X228968461Y-129297141D01*
X229097947Y-129097557D01*
X229186009Y-128876547D01*
X229136801Y-128690000D01*
X228170000Y-128690000D01*
X228170000Y-128710000D01*
X227870000Y-128710000D01*
X227870000Y-128690000D01*
X226903199Y-128690000D01*
X226853991Y-128876547D01*
X226942053Y-129097557D01*
X227071539Y-129297141D01*
X227237474Y-129467628D01*
X227429895Y-129600000D01*
X226070105Y-129600000D01*
X226262526Y-129467628D01*
X226428461Y-129297141D01*
X226557947Y-129097557D01*
X226646009Y-128876547D01*
X226596801Y-128690000D01*
X225630000Y-128690000D01*
X225630000Y-128710000D01*
X225330000Y-128710000D01*
X225330000Y-128690000D01*
X224363199Y-128690000D01*
X224313991Y-128876547D01*
X224402053Y-129097557D01*
X224531539Y-129297141D01*
X224697474Y-129467628D01*
X224889895Y-129600000D01*
X203019564Y-129600000D01*
X202495363Y-129548601D01*
X202009947Y-129402046D01*
X201562243Y-129163998D01*
X201299857Y-128950000D01*
X218648306Y-128950000D01*
X218655064Y-129018612D01*
X218675077Y-129084587D01*
X218707577Y-129145391D01*
X218751315Y-129198685D01*
X218804609Y-129242423D01*
X218865413Y-129274923D01*
X218931388Y-129294936D01*
X219000000Y-129301694D01*
X220762500Y-129300000D01*
X220850000Y-129212500D01*
X220850000Y-128337500D01*
X221150000Y-128337500D01*
X221150000Y-129212500D01*
X221237500Y-129300000D01*
X223000000Y-129301694D01*
X223068612Y-129294936D01*
X223134587Y-129274923D01*
X223195391Y-129242423D01*
X223248685Y-129198685D01*
X223292423Y-129145391D01*
X223324923Y-129084587D01*
X223344936Y-129018612D01*
X223351694Y-128950000D01*
X223350000Y-128425000D01*
X223262500Y-128337500D01*
X221150000Y-128337500D01*
X220850000Y-128337500D01*
X218737500Y-128337500D01*
X218650000Y-128425000D01*
X218648306Y-128950000D01*
X201299857Y-128950000D01*
X201169302Y-128843522D01*
X200846093Y-128452830D01*
X200604923Y-128006795D01*
X200478999Y-127600000D01*
X218648871Y-127600000D01*
X218650000Y-127950000D01*
M02*
