%FSLAX45Y45*%
G04 Gerber Fmt 4.5, Leading zero omitted, Abs format (unit mm)*
G04 Created by KiCad (PCBNEW (5.1.5-0)) date 2020-05-31 17:34:41*
%MOMM*%
%LPD*%
G04 APERTURE LIST*
%TA.AperFunction,Profile*%
%ADD10C,0.100000*%
%TD*%
%ADD11C,0.200000*%
%ADD12C,0.300000*%
G04 APERTURE END LIST*
D10*
X20300000Y-13000000D02*
G75*
G02X20000000Y-12700000I0J300000D01*
G01*
X26500000Y-12700000D02*
G75*
G02X26200000Y-13000000I-300000J0D01*
G01*
X20300000Y-13000000D02*
X26200000Y-13000000D01*
X26500000Y-9700000D02*
G75*
G03X26200000Y-9400000I-300000J0D01*
G01*
X20300000Y-9400000D02*
G75*
G03X20000000Y-9700000I0J-300000D01*
G01*
X26200000Y-9400000D02*
X20300000Y-9400000D01*
X26500000Y-12700000D02*
X26500000Y-9700000D01*
X20000000Y-9700000D02*
X20000000Y-12700000D01*
D11*
X21950000Y-10175000D02*
X22000000Y-10225000D01*
X22000000Y-10175000D02*
X21950000Y-10225000D01*
X22075002Y-10075000D02*
X22125002Y-10125000D01*
X22125002Y-10075000D02*
X22075002Y-10125000D01*
X22175000Y-12075000D02*
X22225000Y-12125000D01*
X22225000Y-12075000D02*
X22175000Y-12125000D01*
X22325000Y-10125002D02*
X22375000Y-10175002D01*
X22375000Y-10125002D02*
X22325000Y-10175002D01*
X22350000Y-11800000D02*
X22400000Y-11850000D01*
X22400000Y-11800000D02*
X22350000Y-11850000D01*
X22375000Y-10275000D02*
X22425000Y-10325000D01*
X22425000Y-10275000D02*
X22375000Y-10325000D01*
X22475000Y-10075000D02*
X22525000Y-10125000D01*
X22525000Y-10075000D02*
X22475000Y-10125000D01*
X22500000Y-11665000D02*
X22550000Y-11715000D01*
X22550000Y-11665000D02*
X22500000Y-11715000D01*
X22575000Y-10650000D02*
X22625000Y-10700000D01*
X22625000Y-10650000D02*
X22575000Y-10700000D01*
X22575000Y-11550000D02*
X22625000Y-11600000D01*
X22625000Y-11550000D02*
X22575000Y-11600000D01*
X22624999Y-10175001D02*
X22674999Y-10225001D01*
X22674999Y-10175001D02*
X22624999Y-10225001D01*
X22696664Y-11756664D02*
X22746664Y-11806664D01*
X22746664Y-11756664D02*
X22696664Y-11806664D01*
X22855000Y-11855000D02*
X22905000Y-11905000D01*
X22905000Y-11855000D02*
X22855000Y-11905000D01*
X22925000Y-10050000D02*
X22975000Y-10100000D01*
X22975000Y-10050000D02*
X22925000Y-10100000D01*
X23006317Y-10131317D02*
X23056317Y-10181317D01*
X23056317Y-10131317D02*
X23006317Y-10181317D01*
X23020000Y-11690000D02*
X23070000Y-11740000D01*
X23070000Y-11690000D02*
X23020000Y-11740000D01*
X23025000Y-11050000D02*
X23075000Y-11100000D01*
X23075000Y-11050000D02*
X23025000Y-11100000D01*
X23150000Y-10050000D02*
X23200000Y-10100000D01*
X23200000Y-10050000D02*
X23150000Y-10100000D01*
X23325000Y-10650000D02*
X23375000Y-10700000D01*
X23375000Y-10650000D02*
X23325000Y-10700000D01*
X23475000Y-11670000D02*
X23525000Y-11720000D01*
X23525000Y-11670000D02*
X23475000Y-11720000D01*
X23675000Y-11800000D02*
X23725000Y-11850000D01*
X23725000Y-11800000D02*
X23675000Y-11850000D01*
X23675879Y-10075879D02*
X23725879Y-10125879D01*
X23725879Y-10075879D02*
X23675879Y-10125879D01*
X23785000Y-10335000D02*
X23835000Y-10385000D01*
X23835000Y-10335000D02*
X23785000Y-10385000D01*
X23870000Y-10780000D02*
X23920000Y-10830000D01*
X23920000Y-10780000D02*
X23870000Y-10830000D01*
X23950000Y-11325000D02*
X24000000Y-11375000D01*
X24000000Y-11325000D02*
X23950000Y-11375000D01*
X23995000Y-9970000D02*
X24045000Y-10020000D01*
X24045000Y-9970000D02*
X23995000Y-10020000D01*
X24150000Y-11225000D02*
X24200000Y-11275000D01*
X24200000Y-11225000D02*
X24150000Y-11275000D01*
X24875000Y-10275000D02*
X24925000Y-10325000D01*
X24925000Y-10275000D02*
X24875000Y-10325000D01*
X20280000Y-10250000D02*
G75*
G03X20280000Y-10250000I-30000J0D01*
G01*
X20280000Y-10750000D02*
G75*
G03X20280000Y-10750000I-30000J0D01*
G01*
X20280000Y-11250000D02*
G75*
G03X20280000Y-11250000I-30000J0D01*
G01*
X20280000Y-12600000D02*
G75*
G03X20280000Y-12600000I-30000J0D01*
G01*
X20730000Y-11475000D02*
G75*
G03X20730000Y-11475000I-30000J0D01*
G01*
X20755000Y-10725000D02*
G75*
G03X20755000Y-10725000I-30000J0D01*
G01*
X20780000Y-12600000D02*
G75*
G03X20780000Y-12600000I-30000J0D01*
G01*
X21030000Y-10150000D02*
G75*
G03X21030000Y-10150000I-30000J0D01*
G01*
X21280000Y-10750000D02*
G75*
G03X21280000Y-10750000I-30000J0D01*
G01*
X21280000Y-11250000D02*
G75*
G03X21280000Y-11250000I-30000J0D01*
G01*
X21280000Y-11700000D02*
G75*
G03X21280000Y-11700000I-30000J0D01*
G01*
X21280000Y-12150000D02*
G75*
G03X21280000Y-12150000I-30000J0D01*
G01*
X21280000Y-12600000D02*
G75*
G03X21280000Y-12600000I-30000J0D01*
G01*
X21505000Y-11250000D02*
G75*
G03X21505000Y-11250000I-30000J0D01*
G01*
X21505000Y-11525000D02*
G75*
G03X21505000Y-11525000I-30000J0D01*
G01*
X21530000Y-12100000D02*
G75*
G03X21530000Y-12100000I-30000J0D01*
G01*
X21530000Y-12400000D02*
G75*
G03X21530000Y-12400000I-30000J0D01*
G01*
X21605000Y-10975000D02*
G75*
G03X21605000Y-10975000I-30000J0D01*
G01*
X21630000Y-10750000D02*
G75*
G03X21630000Y-10750000I-30000J0D01*
G01*
X21730000Y-12400000D02*
G75*
G03X21730000Y-12400000I-30000J0D01*
G01*
X21805000Y-11325000D02*
G75*
G03X21805000Y-11325000I-30000J0D01*
G01*
X21830000Y-10900000D02*
G75*
G03X21830000Y-10900000I-30000J0D01*
G01*
X21930000Y-12400000D02*
G75*
G03X21930000Y-12400000I-30000J0D01*
G01*
X22430000Y-11150000D02*
G75*
G03X22430000Y-11150000I-30000J0D01*
G01*
X22757500Y-10802500D02*
G75*
G03X22757500Y-10802500I-30000J0D01*
G01*
X23930000Y-10150000D02*
G75*
G03X23930000Y-10150000I-30000J0D01*
G01*
X24030000Y-12000000D02*
G75*
G03X24030000Y-12000000I-30000J0D01*
G01*
X24030000Y-12500000D02*
G75*
G03X24030000Y-12500000I-30000J0D01*
G01*
X24055000Y-11725000D02*
G75*
G03X24055000Y-11725000I-30000J0D01*
G01*
X24107782Y-10152782D02*
G75*
G03X24107782Y-10152782I-30000J0D01*
G01*
X24190000Y-11010000D02*
G75*
G03X24190000Y-11010000I-30000J0D01*
G01*
X24305000Y-11500000D02*
G75*
G03X24305000Y-11500000I-30000J0D01*
G01*
X24355000Y-10150000D02*
G75*
G03X24355000Y-10150000I-30000J0D01*
G01*
X24355000Y-10700000D02*
G75*
G03X24355000Y-10700000I-30000J0D01*
G01*
X24480000Y-10200000D02*
G75*
G03X24480000Y-10200000I-30000J0D01*
G01*
X24530000Y-11300000D02*
G75*
G03X24530000Y-11300000I-30000J0D01*
G01*
X24530000Y-11725000D02*
G75*
G03X24530000Y-11725000I-30000J0D01*
G01*
X24530000Y-12500000D02*
G75*
G03X24530000Y-12500000I-30000J0D01*
G01*
X24580000Y-10500000D02*
G75*
G03X24580000Y-10500000I-30000J0D01*
G01*
X24730000Y-10200000D02*
G75*
G03X24730000Y-10200000I-30000J0D01*
G01*
X24730000Y-10500000D02*
G75*
G03X24730000Y-10500000I-30000J0D01*
G01*
X24905000Y-11225000D02*
G75*
G03X24905000Y-11225000I-30000J0D01*
G01*
X25030000Y-11700000D02*
G75*
G03X25030000Y-11700000I-30000J0D01*
G01*
X25030000Y-12500000D02*
G75*
G03X25030000Y-12500000I-30000J0D01*
G01*
X25130000Y-10950000D02*
G75*
G03X25130000Y-10950000I-30000J0D01*
G01*
X25155000Y-10700000D02*
G75*
G03X25155000Y-10700000I-30000J0D01*
G01*
X25530000Y-10500000D02*
G75*
G03X25530000Y-10500000I-30000J0D01*
G01*
X25530000Y-11250000D02*
G75*
G03X25530000Y-11250000I-30000J0D01*
G01*
X25530000Y-11750000D02*
G75*
G03X25530000Y-11750000I-30000J0D01*
G01*
X25530000Y-12500000D02*
G75*
G03X25530000Y-12500000I-30000J0D01*
G01*
X26030000Y-12500000D02*
G75*
G03X26030000Y-12500000I-30000J0D01*
G01*
X26280000Y-10500000D02*
G75*
G03X26280000Y-10500000I-30000J0D01*
G01*
X26280000Y-11000000D02*
G75*
G03X26280000Y-11000000I-30000J0D01*
G01*
X26280000Y-11500000D02*
G75*
G03X26280000Y-11500000I-30000J0D01*
G01*
X26280000Y-12500000D02*
G75*
G03X26280000Y-12500000I-30000J0D01*
G01*
X21750000Y-11900000D02*
X21750000Y-12000000D01*
X21700000Y-11950000D02*
X21800000Y-11950000D01*
X20837000Y-9573000D02*
X20837000Y-9673000D01*
X20787000Y-9623000D02*
X20887000Y-9623000D01*
X20837000Y-9827000D02*
X20837000Y-9927000D01*
X20787000Y-9877000D02*
X20887000Y-9877000D01*
X21091000Y-9573000D02*
X21091000Y-9673000D01*
X21041000Y-9623000D02*
X21141000Y-9623000D01*
X21091000Y-9827000D02*
X21091000Y-9927000D01*
X21041000Y-9877000D02*
X21141000Y-9877000D01*
X21345000Y-9573000D02*
X21345000Y-9673000D01*
X21295000Y-9623000D02*
X21395000Y-9623000D01*
X21345000Y-9827000D02*
X21345000Y-9927000D01*
X21295000Y-9877000D02*
X21395000Y-9877000D01*
X21599000Y-9573000D02*
X21599000Y-9673000D01*
X21549000Y-9623000D02*
X21649000Y-9623000D01*
X21599000Y-9827000D02*
X21599000Y-9927000D01*
X21549000Y-9877000D02*
X21649000Y-9877000D01*
X21853000Y-9573000D02*
X21853000Y-9673000D01*
X21803000Y-9623000D02*
X21903000Y-9623000D01*
X21853000Y-9827000D02*
X21853000Y-9927000D01*
X21803000Y-9877000D02*
X21903000Y-9877000D01*
X22107000Y-9573000D02*
X22107000Y-9673000D01*
X22057000Y-9623000D02*
X22157000Y-9623000D01*
X22107000Y-9827000D02*
X22107000Y-9927000D01*
X22057000Y-9877000D02*
X22157000Y-9877000D01*
X22361000Y-9573000D02*
X22361000Y-9673000D01*
X22311000Y-9623000D02*
X22411000Y-9623000D01*
X22361000Y-9827000D02*
X22361000Y-9927000D01*
X22311000Y-9877000D02*
X22411000Y-9877000D01*
X22615000Y-9573000D02*
X22615000Y-9673000D01*
X22565000Y-9623000D02*
X22665000Y-9623000D01*
X22615000Y-9827000D02*
X22615000Y-9927000D01*
X22565000Y-9877000D02*
X22665000Y-9877000D01*
X22869000Y-9573000D02*
X22869000Y-9673000D01*
X22819000Y-9623000D02*
X22919000Y-9623000D01*
X22869000Y-9827000D02*
X22869000Y-9927000D01*
X22819000Y-9877000D02*
X22919000Y-9877000D01*
X23123000Y-9573000D02*
X23123000Y-9673000D01*
X23073000Y-9623000D02*
X23173000Y-9623000D01*
X23123000Y-9827000D02*
X23123000Y-9927000D01*
X23073000Y-9877000D02*
X23173000Y-9877000D01*
X23377000Y-9573000D02*
X23377000Y-9673000D01*
X23327000Y-9623000D02*
X23427000Y-9623000D01*
X23377000Y-9827000D02*
X23377000Y-9927000D01*
X23327000Y-9877000D02*
X23427000Y-9877000D01*
X23631000Y-9573000D02*
X23631000Y-9673000D01*
X23581000Y-9623000D02*
X23681000Y-9623000D01*
X23631000Y-9827000D02*
X23631000Y-9927000D01*
X23581000Y-9877000D02*
X23681000Y-9877000D01*
X23885000Y-9573000D02*
X23885000Y-9673000D01*
X23835000Y-9623000D02*
X23935000Y-9623000D01*
X23885000Y-9827000D02*
X23885000Y-9927000D01*
X23835000Y-9877000D02*
X23935000Y-9877000D01*
X24139000Y-9573000D02*
X24139000Y-9673000D01*
X24089000Y-9623000D02*
X24189000Y-9623000D01*
X24139000Y-9827000D02*
X24139000Y-9927000D01*
X24089000Y-9877000D02*
X24189000Y-9877000D01*
X24393000Y-9573000D02*
X24393000Y-9673000D01*
X24343000Y-9623000D02*
X24443000Y-9623000D01*
X24393000Y-9827000D02*
X24393000Y-9927000D01*
X24343000Y-9877000D02*
X24443000Y-9877000D01*
X24647000Y-9573000D02*
X24647000Y-9673000D01*
X24597000Y-9623000D02*
X24697000Y-9623000D01*
X24647000Y-9827000D02*
X24647000Y-9927000D01*
X24597000Y-9877000D02*
X24697000Y-9877000D01*
X24901000Y-9573000D02*
X24901000Y-9673000D01*
X24851000Y-9623000D02*
X24951000Y-9623000D01*
X24901000Y-9827000D02*
X24901000Y-9927000D01*
X24851000Y-9877000D02*
X24951000Y-9877000D01*
X25155000Y-9573000D02*
X25155000Y-9673000D01*
X25105000Y-9623000D02*
X25205000Y-9623000D01*
X25155000Y-9827000D02*
X25155000Y-9927000D01*
X25105000Y-9877000D02*
X25205000Y-9877000D01*
X25409000Y-9573000D02*
X25409000Y-9673000D01*
X25359000Y-9623000D02*
X25459000Y-9623000D01*
X25409000Y-9827000D02*
X25409000Y-9927000D01*
X25359000Y-9877000D02*
X25459000Y-9877000D01*
X25663000Y-9573000D02*
X25663000Y-9673000D01*
X25613000Y-9623000D02*
X25713000Y-9623000D01*
X25663000Y-9827000D02*
X25663000Y-9927000D01*
X25613000Y-9877000D02*
X25713000Y-9877000D01*
X21500000Y-10300000D02*
X21500000Y-10400000D01*
X21450000Y-10350000D02*
X21550000Y-10350000D01*
X22583921Y-12635921D02*
X22583921Y-12564079D01*
X22512079Y-12564079D01*
X22512079Y-12635921D01*
X22583921Y-12635921D01*
X22583921Y-12889921D02*
X22583921Y-12818079D01*
X22512079Y-12818079D01*
X22512079Y-12889921D01*
X22583921Y-12889921D01*
X22837921Y-12635921D02*
X22837921Y-12564079D01*
X22766079Y-12564079D01*
X22766079Y-12635921D01*
X22837921Y-12635921D01*
X22837921Y-12889921D02*
X22837921Y-12818079D01*
X22766079Y-12818079D01*
X22766079Y-12889921D01*
X22837921Y-12889921D01*
X23091921Y-12635921D02*
X23091921Y-12564079D01*
X23020079Y-12564079D01*
X23020079Y-12635921D01*
X23091921Y-12635921D01*
X23091921Y-12889921D02*
X23091921Y-12818079D01*
X23020079Y-12818079D01*
X23020079Y-12889921D01*
X23091921Y-12889921D01*
X23345921Y-12635921D02*
X23345921Y-12564079D01*
X23274079Y-12564079D01*
X23274079Y-12635921D01*
X23345921Y-12635921D01*
X23345921Y-12889921D02*
X23345921Y-12818079D01*
X23274079Y-12818079D01*
X23274079Y-12889921D01*
X23345921Y-12889921D01*
D12*
X20281428Y-13470714D02*
X20281428Y-13170714D01*
X20352857Y-13170714D01*
X20395714Y-13185000D01*
X20424286Y-13213571D01*
X20438571Y-13242143D01*
X20452857Y-13299286D01*
X20452857Y-13342143D01*
X20438571Y-13399286D01*
X20424286Y-13427857D01*
X20395714Y-13456429D01*
X20352857Y-13470714D01*
X20281428Y-13470714D01*
X20581428Y-13470714D02*
X20581428Y-13270714D01*
X20581428Y-13327857D02*
X20595714Y-13299286D01*
X20610000Y-13285000D01*
X20638571Y-13270714D01*
X20667143Y-13270714D01*
X20767143Y-13470714D02*
X20767143Y-13270714D01*
X20767143Y-13170714D02*
X20752857Y-13185000D01*
X20767143Y-13199286D01*
X20781428Y-13185000D01*
X20767143Y-13170714D01*
X20767143Y-13199286D01*
X20952857Y-13470714D02*
X20924286Y-13456429D01*
X20910000Y-13427857D01*
X20910000Y-13170714D01*
X21110000Y-13470714D02*
X21081428Y-13456429D01*
X21067143Y-13427857D01*
X21067143Y-13170714D01*
X21452857Y-13470714D02*
X21452857Y-13170714D01*
X21552857Y-13385000D01*
X21652857Y-13170714D01*
X21652857Y-13470714D01*
X21924286Y-13470714D02*
X21924286Y-13313571D01*
X21910000Y-13285000D01*
X21881428Y-13270714D01*
X21824286Y-13270714D01*
X21795714Y-13285000D01*
X21924286Y-13456429D02*
X21895714Y-13470714D01*
X21824286Y-13470714D01*
X21795714Y-13456429D01*
X21781428Y-13427857D01*
X21781428Y-13399286D01*
X21795714Y-13370714D01*
X21824286Y-13356429D01*
X21895714Y-13356429D01*
X21924286Y-13342143D01*
X22067143Y-13270714D02*
X22067143Y-13570714D01*
X22067143Y-13285000D02*
X22095714Y-13270714D01*
X22152857Y-13270714D01*
X22181428Y-13285000D01*
X22195714Y-13299286D01*
X22210000Y-13327857D01*
X22210000Y-13413571D01*
X22195714Y-13442143D01*
X22181428Y-13456429D01*
X22152857Y-13470714D01*
X22095714Y-13470714D01*
X22067143Y-13456429D01*
X22338571Y-13442143D02*
X22352857Y-13456429D01*
X22338571Y-13470714D01*
X22324286Y-13456429D01*
X22338571Y-13442143D01*
X22338571Y-13470714D01*
X22338571Y-13285000D02*
X22352857Y-13299286D01*
X22338571Y-13313571D01*
X22324286Y-13299286D01*
X22338571Y-13285000D01*
X22338571Y-13313571D01*
X19945000Y-13940000D02*
X19995000Y-13990000D01*
X19995000Y-13940000D02*
X19945000Y-13990000D01*
X20338571Y-13800714D02*
X20367143Y-13800714D01*
X20395714Y-13815000D01*
X20410000Y-13829286D01*
X20424286Y-13857857D01*
X20438571Y-13915000D01*
X20438571Y-13986429D01*
X20424286Y-14043571D01*
X20410000Y-14072143D01*
X20395714Y-14086429D01*
X20367143Y-14100714D01*
X20338571Y-14100714D01*
X20310000Y-14086429D01*
X20295714Y-14072143D01*
X20281428Y-14043571D01*
X20267143Y-13986429D01*
X20267143Y-13915000D01*
X20281428Y-13857857D01*
X20295714Y-13829286D01*
X20310000Y-13815000D01*
X20338571Y-13800714D01*
X20567143Y-14072143D02*
X20581428Y-14086429D01*
X20567143Y-14100714D01*
X20552857Y-14086429D01*
X20567143Y-14072143D01*
X20567143Y-14100714D01*
X20852857Y-13800714D02*
X20710000Y-13800714D01*
X20695714Y-13943571D01*
X20710000Y-13929286D01*
X20738571Y-13915000D01*
X20810000Y-13915000D01*
X20838571Y-13929286D01*
X20852857Y-13943571D01*
X20867143Y-13972143D01*
X20867143Y-14043571D01*
X20852857Y-14072143D01*
X20838571Y-14086429D01*
X20810000Y-14100714D01*
X20738571Y-14100714D01*
X20710000Y-14086429D01*
X20695714Y-14072143D01*
X21052857Y-13800714D02*
X21081428Y-13800714D01*
X21110000Y-13815000D01*
X21124286Y-13829286D01*
X21138571Y-13857857D01*
X21152857Y-13915000D01*
X21152857Y-13986429D01*
X21138571Y-14043571D01*
X21124286Y-14072143D01*
X21110000Y-14086429D01*
X21081428Y-14100714D01*
X21052857Y-14100714D01*
X21024286Y-14086429D01*
X21010000Y-14072143D01*
X20995714Y-14043571D01*
X20981428Y-13986429D01*
X20981428Y-13915000D01*
X20995714Y-13857857D01*
X21010000Y-13829286D01*
X21024286Y-13815000D01*
X21052857Y-13800714D01*
X21281428Y-14100714D02*
X21281428Y-13900714D01*
X21281428Y-13929286D02*
X21295714Y-13915000D01*
X21324286Y-13900714D01*
X21367143Y-13900714D01*
X21395714Y-13915000D01*
X21410000Y-13943571D01*
X21410000Y-14100714D01*
X21410000Y-13943571D02*
X21424286Y-13915000D01*
X21452857Y-13900714D01*
X21495714Y-13900714D01*
X21524286Y-13915000D01*
X21538571Y-13943571D01*
X21538571Y-14100714D01*
X21681428Y-14100714D02*
X21681428Y-13900714D01*
X21681428Y-13929286D02*
X21695714Y-13915000D01*
X21724286Y-13900714D01*
X21767143Y-13900714D01*
X21795714Y-13915000D01*
X21810000Y-13943571D01*
X21810000Y-14100714D01*
X21810000Y-13943571D02*
X21824286Y-13915000D01*
X21852857Y-13900714D01*
X21895714Y-13900714D01*
X21924286Y-13915000D01*
X21938571Y-13943571D01*
X21938571Y-14100714D01*
X22524286Y-13786429D02*
X22267143Y-14172143D01*
X22910000Y-13800714D02*
X22938571Y-13800714D01*
X22967143Y-13815000D01*
X22981428Y-13829286D01*
X22995714Y-13857857D01*
X23010000Y-13915000D01*
X23010000Y-13986429D01*
X22995714Y-14043571D01*
X22981428Y-14072143D01*
X22967143Y-14086429D01*
X22938571Y-14100714D01*
X22910000Y-14100714D01*
X22881428Y-14086429D01*
X22867143Y-14072143D01*
X22852857Y-14043571D01*
X22838571Y-13986429D01*
X22838571Y-13915000D01*
X22852857Y-13857857D01*
X22867143Y-13829286D01*
X22881428Y-13815000D01*
X22910000Y-13800714D01*
X23138571Y-14072143D02*
X23152857Y-14086429D01*
X23138571Y-14100714D01*
X23124286Y-14086429D01*
X23138571Y-14072143D01*
X23138571Y-14100714D01*
X23338571Y-13800714D02*
X23367143Y-13800714D01*
X23395714Y-13815000D01*
X23410000Y-13829286D01*
X23424286Y-13857857D01*
X23438571Y-13915000D01*
X23438571Y-13986429D01*
X23424286Y-14043571D01*
X23410000Y-14072143D01*
X23395714Y-14086429D01*
X23367143Y-14100714D01*
X23338571Y-14100714D01*
X23310000Y-14086429D01*
X23295714Y-14072143D01*
X23281428Y-14043571D01*
X23267143Y-13986429D01*
X23267143Y-13915000D01*
X23281428Y-13857857D01*
X23295714Y-13829286D01*
X23310000Y-13815000D01*
X23338571Y-13800714D01*
X23552857Y-13829286D02*
X23567143Y-13815000D01*
X23595714Y-13800714D01*
X23667143Y-13800714D01*
X23695714Y-13815000D01*
X23710000Y-13829286D01*
X23724286Y-13857857D01*
X23724286Y-13886429D01*
X23710000Y-13929286D01*
X23538571Y-14100714D01*
X23724286Y-14100714D01*
X23910000Y-13800714D02*
X23938571Y-13800714D01*
X23967143Y-13815000D01*
X23981428Y-13829286D01*
X23995714Y-13857857D01*
X24010000Y-13915000D01*
X24010000Y-13986429D01*
X23995714Y-14043571D01*
X23981428Y-14072143D01*
X23967143Y-14086429D01*
X23938571Y-14100714D01*
X23910000Y-14100714D01*
X23881428Y-14086429D01*
X23867143Y-14072143D01*
X23852857Y-14043571D01*
X23838571Y-13986429D01*
X23838571Y-13915000D01*
X23852857Y-13857857D01*
X23867143Y-13829286D01*
X23881428Y-13815000D01*
X23910000Y-13800714D01*
X24124286Y-13800714D02*
X24124286Y-13857857D01*
X24238571Y-13800714D02*
X24238571Y-13857857D01*
X24681428Y-14215000D02*
X24667143Y-14200714D01*
X24638571Y-14157857D01*
X24624286Y-14129286D01*
X24610000Y-14086429D01*
X24595714Y-14015000D01*
X24595714Y-13957857D01*
X24610000Y-13886429D01*
X24624286Y-13843571D01*
X24638571Y-13815000D01*
X24667143Y-13772143D01*
X24681428Y-13757857D01*
X24781428Y-13829286D02*
X24795714Y-13815000D01*
X24824286Y-13800714D01*
X24895714Y-13800714D01*
X24924286Y-13815000D01*
X24938571Y-13829286D01*
X24952857Y-13857857D01*
X24952857Y-13886429D01*
X24938571Y-13929286D01*
X24767143Y-14100714D01*
X24952857Y-14100714D01*
X25124286Y-13929286D02*
X25095714Y-13915000D01*
X25081428Y-13900714D01*
X25067143Y-13872143D01*
X25067143Y-13857857D01*
X25081428Y-13829286D01*
X25095714Y-13815000D01*
X25124286Y-13800714D01*
X25181428Y-13800714D01*
X25210000Y-13815000D01*
X25224286Y-13829286D01*
X25238571Y-13857857D01*
X25238571Y-13872143D01*
X25224286Y-13900714D01*
X25210000Y-13915000D01*
X25181428Y-13929286D01*
X25124286Y-13929286D01*
X25095714Y-13943571D01*
X25081428Y-13957857D01*
X25067143Y-13986429D01*
X25067143Y-14043571D01*
X25081428Y-14072143D01*
X25095714Y-14086429D01*
X25124286Y-14100714D01*
X25181428Y-14100714D01*
X25210000Y-14086429D01*
X25224286Y-14072143D01*
X25238571Y-14043571D01*
X25238571Y-13986429D01*
X25224286Y-13957857D01*
X25210000Y-13943571D01*
X25181428Y-13929286D01*
X25595714Y-14100714D02*
X25595714Y-13800714D01*
X25724286Y-14100714D02*
X25724286Y-13943571D01*
X25710000Y-13915000D01*
X25681428Y-13900714D01*
X25638571Y-13900714D01*
X25610000Y-13915000D01*
X25595714Y-13929286D01*
X25910000Y-14100714D02*
X25881428Y-14086429D01*
X25867143Y-14072143D01*
X25852857Y-14043571D01*
X25852857Y-13957857D01*
X25867143Y-13929286D01*
X25881428Y-13915000D01*
X25910000Y-13900714D01*
X25952857Y-13900714D01*
X25981428Y-13915000D01*
X25995714Y-13929286D01*
X26010000Y-13957857D01*
X26010000Y-14043571D01*
X25995714Y-14072143D01*
X25981428Y-14086429D01*
X25952857Y-14100714D01*
X25910000Y-14100714D01*
X26181428Y-14100714D02*
X26152857Y-14086429D01*
X26138571Y-14057857D01*
X26138571Y-13800714D01*
X26410000Y-14086429D02*
X26381428Y-14100714D01*
X26324286Y-14100714D01*
X26295714Y-14086429D01*
X26281428Y-14057857D01*
X26281428Y-13943571D01*
X26295714Y-13915000D01*
X26324286Y-13900714D01*
X26381428Y-13900714D01*
X26410000Y-13915000D01*
X26424286Y-13943571D01*
X26424286Y-13972143D01*
X26281428Y-14000714D01*
X26538571Y-14086429D02*
X26567143Y-14100714D01*
X26624286Y-14100714D01*
X26652857Y-14086429D01*
X26667143Y-14057857D01*
X26667143Y-14043571D01*
X26652857Y-14015000D01*
X26624286Y-14000714D01*
X26581428Y-14000714D01*
X26552857Y-13986429D01*
X26538571Y-13957857D01*
X26538571Y-13943571D01*
X26552857Y-13915000D01*
X26581428Y-13900714D01*
X26624286Y-13900714D01*
X26652857Y-13915000D01*
X26767143Y-14215000D02*
X26781428Y-14200714D01*
X26810000Y-14157857D01*
X26824286Y-14129286D01*
X26838571Y-14086429D01*
X26852857Y-14015000D01*
X26852857Y-13957857D01*
X26838571Y-13886429D01*
X26824286Y-13843571D01*
X26810000Y-13815000D01*
X26781428Y-13772143D01*
X26767143Y-13757857D01*
X19995000Y-14361000D02*
G75*
G03X19995000Y-14361000I-30000J0D01*
G01*
X20338571Y-14196714D02*
X20367143Y-14196714D01*
X20395714Y-14211000D01*
X20410000Y-14225286D01*
X20424286Y-14253857D01*
X20438571Y-14311000D01*
X20438571Y-14382429D01*
X20424286Y-14439571D01*
X20410000Y-14468143D01*
X20395714Y-14482429D01*
X20367143Y-14496714D01*
X20338571Y-14496714D01*
X20310000Y-14482429D01*
X20295714Y-14468143D01*
X20281428Y-14439571D01*
X20267143Y-14382429D01*
X20267143Y-14311000D01*
X20281428Y-14253857D01*
X20295714Y-14225286D01*
X20310000Y-14211000D01*
X20338571Y-14196714D01*
X20567143Y-14468143D02*
X20581428Y-14482429D01*
X20567143Y-14496714D01*
X20552857Y-14482429D01*
X20567143Y-14468143D01*
X20567143Y-14496714D01*
X20838571Y-14196714D02*
X20781428Y-14196714D01*
X20752857Y-14211000D01*
X20738571Y-14225286D01*
X20710000Y-14268143D01*
X20695714Y-14325286D01*
X20695714Y-14439571D01*
X20710000Y-14468143D01*
X20724286Y-14482429D01*
X20752857Y-14496714D01*
X20810000Y-14496714D01*
X20838571Y-14482429D01*
X20852857Y-14468143D01*
X20867143Y-14439571D01*
X20867143Y-14368143D01*
X20852857Y-14339571D01*
X20838571Y-14325286D01*
X20810000Y-14311000D01*
X20752857Y-14311000D01*
X20724286Y-14325286D01*
X20710000Y-14339571D01*
X20695714Y-14368143D01*
X21052857Y-14196714D02*
X21081428Y-14196714D01*
X21110000Y-14211000D01*
X21124286Y-14225286D01*
X21138571Y-14253857D01*
X21152857Y-14311000D01*
X21152857Y-14382429D01*
X21138571Y-14439571D01*
X21124286Y-14468143D01*
X21110000Y-14482429D01*
X21081428Y-14496714D01*
X21052857Y-14496714D01*
X21024286Y-14482429D01*
X21010000Y-14468143D01*
X20995714Y-14439571D01*
X20981428Y-14382429D01*
X20981428Y-14311000D01*
X20995714Y-14253857D01*
X21010000Y-14225286D01*
X21024286Y-14211000D01*
X21052857Y-14196714D01*
X21281428Y-14496714D02*
X21281428Y-14296714D01*
X21281428Y-14325286D02*
X21295714Y-14311000D01*
X21324286Y-14296714D01*
X21367143Y-14296714D01*
X21395714Y-14311000D01*
X21410000Y-14339571D01*
X21410000Y-14496714D01*
X21410000Y-14339571D02*
X21424286Y-14311000D01*
X21452857Y-14296714D01*
X21495714Y-14296714D01*
X21524286Y-14311000D01*
X21538571Y-14339571D01*
X21538571Y-14496714D01*
X21681428Y-14496714D02*
X21681428Y-14296714D01*
X21681428Y-14325286D02*
X21695714Y-14311000D01*
X21724286Y-14296714D01*
X21767143Y-14296714D01*
X21795714Y-14311000D01*
X21810000Y-14339571D01*
X21810000Y-14496714D01*
X21810000Y-14339571D02*
X21824286Y-14311000D01*
X21852857Y-14296714D01*
X21895714Y-14296714D01*
X21924286Y-14311000D01*
X21938571Y-14339571D01*
X21938571Y-14496714D01*
X22524286Y-14182429D02*
X22267143Y-14568143D01*
X22910000Y-14196714D02*
X22938571Y-14196714D01*
X22967143Y-14211000D01*
X22981428Y-14225286D01*
X22995714Y-14253857D01*
X23010000Y-14311000D01*
X23010000Y-14382429D01*
X22995714Y-14439571D01*
X22981428Y-14468143D01*
X22967143Y-14482429D01*
X22938571Y-14496714D01*
X22910000Y-14496714D01*
X22881428Y-14482429D01*
X22867143Y-14468143D01*
X22852857Y-14439571D01*
X22838571Y-14382429D01*
X22838571Y-14311000D01*
X22852857Y-14253857D01*
X22867143Y-14225286D01*
X22881428Y-14211000D01*
X22910000Y-14196714D01*
X23138571Y-14468143D02*
X23152857Y-14482429D01*
X23138571Y-14496714D01*
X23124286Y-14482429D01*
X23138571Y-14468143D01*
X23138571Y-14496714D01*
X23338571Y-14196714D02*
X23367143Y-14196714D01*
X23395714Y-14211000D01*
X23410000Y-14225286D01*
X23424286Y-14253857D01*
X23438571Y-14311000D01*
X23438571Y-14382429D01*
X23424286Y-14439571D01*
X23410000Y-14468143D01*
X23395714Y-14482429D01*
X23367143Y-14496714D01*
X23338571Y-14496714D01*
X23310000Y-14482429D01*
X23295714Y-14468143D01*
X23281428Y-14439571D01*
X23267143Y-14382429D01*
X23267143Y-14311000D01*
X23281428Y-14253857D01*
X23295714Y-14225286D01*
X23310000Y-14211000D01*
X23338571Y-14196714D01*
X23552857Y-14225286D02*
X23567143Y-14211000D01*
X23595714Y-14196714D01*
X23667143Y-14196714D01*
X23695714Y-14211000D01*
X23710000Y-14225286D01*
X23724286Y-14253857D01*
X23724286Y-14282429D01*
X23710000Y-14325286D01*
X23538571Y-14496714D01*
X23724286Y-14496714D01*
X23981428Y-14296714D02*
X23981428Y-14496714D01*
X23910000Y-14182429D02*
X23838571Y-14396714D01*
X24024286Y-14396714D01*
X24124286Y-14196714D02*
X24124286Y-14253857D01*
X24238571Y-14196714D02*
X24238571Y-14253857D01*
X24681428Y-14611000D02*
X24667143Y-14596714D01*
X24638571Y-14553857D01*
X24624286Y-14525286D01*
X24610000Y-14482429D01*
X24595714Y-14411000D01*
X24595714Y-14353857D01*
X24610000Y-14282429D01*
X24624286Y-14239571D01*
X24638571Y-14211000D01*
X24667143Y-14168143D01*
X24681428Y-14153857D01*
X24938571Y-14196714D02*
X24795714Y-14196714D01*
X24781428Y-14339571D01*
X24795714Y-14325286D01*
X24824286Y-14311000D01*
X24895714Y-14311000D01*
X24924286Y-14325286D01*
X24938571Y-14339571D01*
X24952857Y-14368143D01*
X24952857Y-14439571D01*
X24938571Y-14468143D01*
X24924286Y-14482429D01*
X24895714Y-14496714D01*
X24824286Y-14496714D01*
X24795714Y-14482429D01*
X24781428Y-14468143D01*
X25224286Y-14196714D02*
X25081428Y-14196714D01*
X25067143Y-14339571D01*
X25081428Y-14325286D01*
X25110000Y-14311000D01*
X25181428Y-14311000D01*
X25210000Y-14325286D01*
X25224286Y-14339571D01*
X25238571Y-14368143D01*
X25238571Y-14439571D01*
X25224286Y-14468143D01*
X25210000Y-14482429D01*
X25181428Y-14496714D01*
X25110000Y-14496714D01*
X25081428Y-14482429D01*
X25067143Y-14468143D01*
X25595714Y-14496714D02*
X25595714Y-14196714D01*
X25724286Y-14496714D02*
X25724286Y-14339571D01*
X25710000Y-14311000D01*
X25681428Y-14296714D01*
X25638571Y-14296714D01*
X25610000Y-14311000D01*
X25595714Y-14325286D01*
X25910000Y-14496714D02*
X25881428Y-14482429D01*
X25867143Y-14468143D01*
X25852857Y-14439571D01*
X25852857Y-14353857D01*
X25867143Y-14325286D01*
X25881428Y-14311000D01*
X25910000Y-14296714D01*
X25952857Y-14296714D01*
X25981428Y-14311000D01*
X25995714Y-14325286D01*
X26010000Y-14353857D01*
X26010000Y-14439571D01*
X25995714Y-14468143D01*
X25981428Y-14482429D01*
X25952857Y-14496714D01*
X25910000Y-14496714D01*
X26181428Y-14496714D02*
X26152857Y-14482429D01*
X26138571Y-14453857D01*
X26138571Y-14196714D01*
X26410000Y-14482429D02*
X26381428Y-14496714D01*
X26324286Y-14496714D01*
X26295714Y-14482429D01*
X26281428Y-14453857D01*
X26281428Y-14339571D01*
X26295714Y-14311000D01*
X26324286Y-14296714D01*
X26381428Y-14296714D01*
X26410000Y-14311000D01*
X26424286Y-14339571D01*
X26424286Y-14368143D01*
X26281428Y-14396714D01*
X26538571Y-14482429D02*
X26567143Y-14496714D01*
X26624286Y-14496714D01*
X26652857Y-14482429D01*
X26667143Y-14453857D01*
X26667143Y-14439571D01*
X26652857Y-14411000D01*
X26624286Y-14396714D01*
X26581428Y-14396714D01*
X26552857Y-14382429D01*
X26538571Y-14353857D01*
X26538571Y-14339571D01*
X26552857Y-14311000D01*
X26581428Y-14296714D01*
X26624286Y-14296714D01*
X26652857Y-14311000D01*
X26767143Y-14611000D02*
X26781428Y-14596714D01*
X26810000Y-14553857D01*
X26824286Y-14525286D01*
X26838571Y-14482429D01*
X26852857Y-14411000D01*
X26852857Y-14353857D01*
X26838571Y-14282429D01*
X26824286Y-14239571D01*
X26810000Y-14211000D01*
X26781428Y-14168143D01*
X26767143Y-14153857D01*
X19945000Y-14707000D02*
X19945000Y-14807000D01*
X19895000Y-14757000D02*
X19995000Y-14757000D01*
X20438571Y-14892714D02*
X20267143Y-14892714D01*
X20352857Y-14892714D02*
X20352857Y-14592714D01*
X20324286Y-14635571D01*
X20295714Y-14664143D01*
X20267143Y-14678429D01*
X20567143Y-14864143D02*
X20581428Y-14878429D01*
X20567143Y-14892714D01*
X20552857Y-14878429D01*
X20567143Y-14864143D01*
X20567143Y-14892714D01*
X20767143Y-14592714D02*
X20795714Y-14592714D01*
X20824286Y-14607000D01*
X20838571Y-14621286D01*
X20852857Y-14649857D01*
X20867143Y-14707000D01*
X20867143Y-14778429D01*
X20852857Y-14835571D01*
X20838571Y-14864143D01*
X20824286Y-14878429D01*
X20795714Y-14892714D01*
X20767143Y-14892714D01*
X20738571Y-14878429D01*
X20724286Y-14864143D01*
X20710000Y-14835571D01*
X20695714Y-14778429D01*
X20695714Y-14707000D01*
X20710000Y-14649857D01*
X20724286Y-14621286D01*
X20738571Y-14607000D01*
X20767143Y-14592714D01*
X21052857Y-14592714D02*
X21081428Y-14592714D01*
X21110000Y-14607000D01*
X21124286Y-14621286D01*
X21138571Y-14649857D01*
X21152857Y-14707000D01*
X21152857Y-14778429D01*
X21138571Y-14835571D01*
X21124286Y-14864143D01*
X21110000Y-14878429D01*
X21081428Y-14892714D01*
X21052857Y-14892714D01*
X21024286Y-14878429D01*
X21010000Y-14864143D01*
X20995714Y-14835571D01*
X20981428Y-14778429D01*
X20981428Y-14707000D01*
X20995714Y-14649857D01*
X21010000Y-14621286D01*
X21024286Y-14607000D01*
X21052857Y-14592714D01*
X21281428Y-14892714D02*
X21281428Y-14692714D01*
X21281428Y-14721286D02*
X21295714Y-14707000D01*
X21324286Y-14692714D01*
X21367143Y-14692714D01*
X21395714Y-14707000D01*
X21410000Y-14735571D01*
X21410000Y-14892714D01*
X21410000Y-14735571D02*
X21424286Y-14707000D01*
X21452857Y-14692714D01*
X21495714Y-14692714D01*
X21524286Y-14707000D01*
X21538571Y-14735571D01*
X21538571Y-14892714D01*
X21681428Y-14892714D02*
X21681428Y-14692714D01*
X21681428Y-14721286D02*
X21695714Y-14707000D01*
X21724286Y-14692714D01*
X21767143Y-14692714D01*
X21795714Y-14707000D01*
X21810000Y-14735571D01*
X21810000Y-14892714D01*
X21810000Y-14735571D02*
X21824286Y-14707000D01*
X21852857Y-14692714D01*
X21895714Y-14692714D01*
X21924286Y-14707000D01*
X21938571Y-14735571D01*
X21938571Y-14892714D01*
X22524286Y-14578429D02*
X22267143Y-14964143D01*
X22910000Y-14592714D02*
X22938571Y-14592714D01*
X22967143Y-14607000D01*
X22981428Y-14621286D01*
X22995714Y-14649857D01*
X23010000Y-14707000D01*
X23010000Y-14778429D01*
X22995714Y-14835571D01*
X22981428Y-14864143D01*
X22967143Y-14878429D01*
X22938571Y-14892714D01*
X22910000Y-14892714D01*
X22881428Y-14878429D01*
X22867143Y-14864143D01*
X22852857Y-14835571D01*
X22838571Y-14778429D01*
X22838571Y-14707000D01*
X22852857Y-14649857D01*
X22867143Y-14621286D01*
X22881428Y-14607000D01*
X22910000Y-14592714D01*
X23138571Y-14864143D02*
X23152857Y-14878429D01*
X23138571Y-14892714D01*
X23124286Y-14878429D01*
X23138571Y-14864143D01*
X23138571Y-14892714D01*
X23338571Y-14592714D02*
X23367143Y-14592714D01*
X23395714Y-14607000D01*
X23410000Y-14621286D01*
X23424286Y-14649857D01*
X23438571Y-14707000D01*
X23438571Y-14778429D01*
X23424286Y-14835571D01*
X23410000Y-14864143D01*
X23395714Y-14878429D01*
X23367143Y-14892714D01*
X23338571Y-14892714D01*
X23310000Y-14878429D01*
X23295714Y-14864143D01*
X23281428Y-14835571D01*
X23267143Y-14778429D01*
X23267143Y-14707000D01*
X23281428Y-14649857D01*
X23295714Y-14621286D01*
X23310000Y-14607000D01*
X23338571Y-14592714D01*
X23538571Y-14592714D02*
X23724286Y-14592714D01*
X23624286Y-14707000D01*
X23667143Y-14707000D01*
X23695714Y-14721286D01*
X23710000Y-14735571D01*
X23724286Y-14764143D01*
X23724286Y-14835571D01*
X23710000Y-14864143D01*
X23695714Y-14878429D01*
X23667143Y-14892714D01*
X23581428Y-14892714D01*
X23552857Y-14878429D01*
X23538571Y-14864143D01*
X23867143Y-14892714D02*
X23924286Y-14892714D01*
X23952857Y-14878429D01*
X23967143Y-14864143D01*
X23995714Y-14821286D01*
X24010000Y-14764143D01*
X24010000Y-14649857D01*
X23995714Y-14621286D01*
X23981428Y-14607000D01*
X23952857Y-14592714D01*
X23895714Y-14592714D01*
X23867143Y-14607000D01*
X23852857Y-14621286D01*
X23838571Y-14649857D01*
X23838571Y-14721286D01*
X23852857Y-14749857D01*
X23867143Y-14764143D01*
X23895714Y-14778429D01*
X23952857Y-14778429D01*
X23981428Y-14764143D01*
X23995714Y-14749857D01*
X24010000Y-14721286D01*
X24124286Y-14592714D02*
X24124286Y-14649857D01*
X24238571Y-14592714D02*
X24238571Y-14649857D01*
X24681428Y-15007000D02*
X24667143Y-14992714D01*
X24638571Y-14949857D01*
X24624286Y-14921286D01*
X24610000Y-14878429D01*
X24595714Y-14807000D01*
X24595714Y-14749857D01*
X24610000Y-14678429D01*
X24624286Y-14635571D01*
X24638571Y-14607000D01*
X24667143Y-14564143D01*
X24681428Y-14549857D01*
X24924286Y-14692714D02*
X24924286Y-14892714D01*
X24852857Y-14578429D02*
X24781428Y-14792714D01*
X24967143Y-14792714D01*
X25067143Y-14621286D02*
X25081428Y-14607000D01*
X25110000Y-14592714D01*
X25181428Y-14592714D01*
X25210000Y-14607000D01*
X25224286Y-14621286D01*
X25238571Y-14649857D01*
X25238571Y-14678429D01*
X25224286Y-14721286D01*
X25052857Y-14892714D01*
X25238571Y-14892714D01*
X25595714Y-14892714D02*
X25595714Y-14592714D01*
X25724286Y-14892714D02*
X25724286Y-14735571D01*
X25710000Y-14707000D01*
X25681428Y-14692714D01*
X25638571Y-14692714D01*
X25610000Y-14707000D01*
X25595714Y-14721286D01*
X25910000Y-14892714D02*
X25881428Y-14878429D01*
X25867143Y-14864143D01*
X25852857Y-14835571D01*
X25852857Y-14749857D01*
X25867143Y-14721286D01*
X25881428Y-14707000D01*
X25910000Y-14692714D01*
X25952857Y-14692714D01*
X25981428Y-14707000D01*
X25995714Y-14721286D01*
X26010000Y-14749857D01*
X26010000Y-14835571D01*
X25995714Y-14864143D01*
X25981428Y-14878429D01*
X25952857Y-14892714D01*
X25910000Y-14892714D01*
X26181428Y-14892714D02*
X26152857Y-14878429D01*
X26138571Y-14849857D01*
X26138571Y-14592714D01*
X26410000Y-14878429D02*
X26381428Y-14892714D01*
X26324286Y-14892714D01*
X26295714Y-14878429D01*
X26281428Y-14849857D01*
X26281428Y-14735571D01*
X26295714Y-14707000D01*
X26324286Y-14692714D01*
X26381428Y-14692714D01*
X26410000Y-14707000D01*
X26424286Y-14735571D01*
X26424286Y-14764143D01*
X26281428Y-14792714D01*
X26538571Y-14878429D02*
X26567143Y-14892714D01*
X26624286Y-14892714D01*
X26652857Y-14878429D01*
X26667143Y-14849857D01*
X26667143Y-14835571D01*
X26652857Y-14807000D01*
X26624286Y-14792714D01*
X26581428Y-14792714D01*
X26552857Y-14778429D01*
X26538571Y-14749857D01*
X26538571Y-14735571D01*
X26552857Y-14707000D01*
X26581428Y-14692714D01*
X26624286Y-14692714D01*
X26652857Y-14707000D01*
X26767143Y-15007000D02*
X26781428Y-14992714D01*
X26810000Y-14949857D01*
X26824286Y-14921286D01*
X26838571Y-14878429D01*
X26852857Y-14807000D01*
X26852857Y-14749857D01*
X26838571Y-14678429D01*
X26824286Y-14635571D01*
X26810000Y-14607000D01*
X26781428Y-14564143D01*
X26767143Y-14549857D01*
X19980121Y-15188921D02*
X19980121Y-15117079D01*
X19908279Y-15117079D01*
X19908279Y-15188921D01*
X19980121Y-15188921D01*
X20438571Y-15288714D02*
X20267143Y-15288714D01*
X20352857Y-15288714D02*
X20352857Y-14988714D01*
X20324286Y-15031571D01*
X20295714Y-15060143D01*
X20267143Y-15074429D01*
X20567143Y-15260143D02*
X20581428Y-15274429D01*
X20567143Y-15288714D01*
X20552857Y-15274429D01*
X20567143Y-15260143D01*
X20567143Y-15288714D01*
X20767143Y-14988714D02*
X20795714Y-14988714D01*
X20824286Y-15003000D01*
X20838571Y-15017286D01*
X20852857Y-15045857D01*
X20867143Y-15103000D01*
X20867143Y-15174429D01*
X20852857Y-15231571D01*
X20838571Y-15260143D01*
X20824286Y-15274429D01*
X20795714Y-15288714D01*
X20767143Y-15288714D01*
X20738571Y-15274429D01*
X20724286Y-15260143D01*
X20710000Y-15231571D01*
X20695714Y-15174429D01*
X20695714Y-15103000D01*
X20710000Y-15045857D01*
X20724286Y-15017286D01*
X20738571Y-15003000D01*
X20767143Y-14988714D01*
X20981428Y-15017286D02*
X20995714Y-15003000D01*
X21024286Y-14988714D01*
X21095714Y-14988714D01*
X21124286Y-15003000D01*
X21138571Y-15017286D01*
X21152857Y-15045857D01*
X21152857Y-15074429D01*
X21138571Y-15117286D01*
X20967143Y-15288714D01*
X21152857Y-15288714D01*
X21281428Y-15288714D02*
X21281428Y-15088714D01*
X21281428Y-15117286D02*
X21295714Y-15103000D01*
X21324286Y-15088714D01*
X21367143Y-15088714D01*
X21395714Y-15103000D01*
X21410000Y-15131571D01*
X21410000Y-15288714D01*
X21410000Y-15131571D02*
X21424286Y-15103000D01*
X21452857Y-15088714D01*
X21495714Y-15088714D01*
X21524286Y-15103000D01*
X21538571Y-15131571D01*
X21538571Y-15288714D01*
X21681428Y-15288714D02*
X21681428Y-15088714D01*
X21681428Y-15117286D02*
X21695714Y-15103000D01*
X21724286Y-15088714D01*
X21767143Y-15088714D01*
X21795714Y-15103000D01*
X21810000Y-15131571D01*
X21810000Y-15288714D01*
X21810000Y-15131571D02*
X21824286Y-15103000D01*
X21852857Y-15088714D01*
X21895714Y-15088714D01*
X21924286Y-15103000D01*
X21938571Y-15131571D01*
X21938571Y-15288714D01*
X22524286Y-14974429D02*
X22267143Y-15360143D01*
X22910000Y-14988714D02*
X22938571Y-14988714D01*
X22967143Y-15003000D01*
X22981428Y-15017286D01*
X22995714Y-15045857D01*
X23010000Y-15103000D01*
X23010000Y-15174429D01*
X22995714Y-15231571D01*
X22981428Y-15260143D01*
X22967143Y-15274429D01*
X22938571Y-15288714D01*
X22910000Y-15288714D01*
X22881428Y-15274429D01*
X22867143Y-15260143D01*
X22852857Y-15231571D01*
X22838571Y-15174429D01*
X22838571Y-15103000D01*
X22852857Y-15045857D01*
X22867143Y-15017286D01*
X22881428Y-15003000D01*
X22910000Y-14988714D01*
X23138571Y-15260143D02*
X23152857Y-15274429D01*
X23138571Y-15288714D01*
X23124286Y-15274429D01*
X23138571Y-15260143D01*
X23138571Y-15288714D01*
X23338571Y-14988714D02*
X23367143Y-14988714D01*
X23395714Y-15003000D01*
X23410000Y-15017286D01*
X23424286Y-15045857D01*
X23438571Y-15103000D01*
X23438571Y-15174429D01*
X23424286Y-15231571D01*
X23410000Y-15260143D01*
X23395714Y-15274429D01*
X23367143Y-15288714D01*
X23338571Y-15288714D01*
X23310000Y-15274429D01*
X23295714Y-15260143D01*
X23281428Y-15231571D01*
X23267143Y-15174429D01*
X23267143Y-15103000D01*
X23281428Y-15045857D01*
X23295714Y-15017286D01*
X23310000Y-15003000D01*
X23338571Y-14988714D01*
X23695714Y-15088714D02*
X23695714Y-15288714D01*
X23624286Y-14974429D02*
X23552857Y-15188714D01*
X23738571Y-15188714D01*
X23910000Y-14988714D02*
X23938571Y-14988714D01*
X23967143Y-15003000D01*
X23981428Y-15017286D01*
X23995714Y-15045857D01*
X24010000Y-15103000D01*
X24010000Y-15174429D01*
X23995714Y-15231571D01*
X23981428Y-15260143D01*
X23967143Y-15274429D01*
X23938571Y-15288714D01*
X23910000Y-15288714D01*
X23881428Y-15274429D01*
X23867143Y-15260143D01*
X23852857Y-15231571D01*
X23838571Y-15174429D01*
X23838571Y-15103000D01*
X23852857Y-15045857D01*
X23867143Y-15017286D01*
X23881428Y-15003000D01*
X23910000Y-14988714D01*
X24124286Y-14988714D02*
X24124286Y-15045857D01*
X24238571Y-14988714D02*
X24238571Y-15045857D01*
X24681428Y-15403000D02*
X24667143Y-15388714D01*
X24638571Y-15345857D01*
X24624286Y-15317286D01*
X24610000Y-15274429D01*
X24595714Y-15203000D01*
X24595714Y-15145857D01*
X24610000Y-15074429D01*
X24624286Y-15031571D01*
X24638571Y-15003000D01*
X24667143Y-14960143D01*
X24681428Y-14945857D01*
X24838571Y-15117286D02*
X24810000Y-15103000D01*
X24795714Y-15088714D01*
X24781428Y-15060143D01*
X24781428Y-15045857D01*
X24795714Y-15017286D01*
X24810000Y-15003000D01*
X24838571Y-14988714D01*
X24895714Y-14988714D01*
X24924286Y-15003000D01*
X24938571Y-15017286D01*
X24952857Y-15045857D01*
X24952857Y-15060143D01*
X24938571Y-15088714D01*
X24924286Y-15103000D01*
X24895714Y-15117286D01*
X24838571Y-15117286D01*
X24810000Y-15131571D01*
X24795714Y-15145857D01*
X24781428Y-15174429D01*
X24781428Y-15231571D01*
X24795714Y-15260143D01*
X24810000Y-15274429D01*
X24838571Y-15288714D01*
X24895714Y-15288714D01*
X24924286Y-15274429D01*
X24938571Y-15260143D01*
X24952857Y-15231571D01*
X24952857Y-15174429D01*
X24938571Y-15145857D01*
X24924286Y-15131571D01*
X24895714Y-15117286D01*
X25310000Y-15288714D02*
X25310000Y-14988714D01*
X25438571Y-15288714D02*
X25438571Y-15131571D01*
X25424286Y-15103000D01*
X25395714Y-15088714D01*
X25352857Y-15088714D01*
X25324286Y-15103000D01*
X25310000Y-15117286D01*
X25624286Y-15288714D02*
X25595714Y-15274429D01*
X25581428Y-15260143D01*
X25567143Y-15231571D01*
X25567143Y-15145857D01*
X25581428Y-15117286D01*
X25595714Y-15103000D01*
X25624286Y-15088714D01*
X25667143Y-15088714D01*
X25695714Y-15103000D01*
X25710000Y-15117286D01*
X25724286Y-15145857D01*
X25724286Y-15231571D01*
X25710000Y-15260143D01*
X25695714Y-15274429D01*
X25667143Y-15288714D01*
X25624286Y-15288714D01*
X25895714Y-15288714D02*
X25867143Y-15274429D01*
X25852857Y-15245857D01*
X25852857Y-14988714D01*
X26124286Y-15274429D02*
X26095714Y-15288714D01*
X26038571Y-15288714D01*
X26010000Y-15274429D01*
X25995714Y-15245857D01*
X25995714Y-15131571D01*
X26010000Y-15103000D01*
X26038571Y-15088714D01*
X26095714Y-15088714D01*
X26124286Y-15103000D01*
X26138571Y-15131571D01*
X26138571Y-15160143D01*
X25995714Y-15188714D01*
X26252857Y-15274429D02*
X26281428Y-15288714D01*
X26338571Y-15288714D01*
X26367143Y-15274429D01*
X26381428Y-15245857D01*
X26381428Y-15231571D01*
X26367143Y-15203000D01*
X26338571Y-15188714D01*
X26295714Y-15188714D01*
X26267143Y-15174429D01*
X26252857Y-15145857D01*
X26252857Y-15131571D01*
X26267143Y-15103000D01*
X26295714Y-15088714D01*
X26338571Y-15088714D01*
X26367143Y-15103000D01*
X26481428Y-15403000D02*
X26495714Y-15388714D01*
X26524286Y-15345857D01*
X26538571Y-15317286D01*
X26552857Y-15274429D01*
X26567143Y-15203000D01*
X26567143Y-15145857D01*
X26552857Y-15074429D01*
X26538571Y-15031571D01*
X26524286Y-15003000D01*
X26495714Y-14960143D01*
X26481428Y-14945857D01*
M02*
