G04 #@! TF.GenerationSoftware,KiCad,Pcbnew,(5.1.5-0)*
G04 #@! TF.CreationDate,2020-05-31T17:35:19+02:00*
G04 #@! TF.ProjectId,ecg_ads1292_main,6563675f-6164-4733-9132-39325f6d6169,rev?*
G04 #@! TF.SameCoordinates,Original*
G04 #@! TF.FileFunction,Copper,L2,Bot*
G04 #@! TF.FilePolarity,Positive*
%FSLAX46Y46*%
G04 Gerber Fmt 4.6, Leading zero omitted, Abs format (unit mm)*
G04 Created by KiCad (PCBNEW (5.1.5-0)) date 2020-05-31 17:35:19*
%MOMM*%
%LPD*%
G04 APERTURE LIST*
%ADD10O,1.727200X1.727200*%
%ADD11R,1.727200X1.727200*%
%ADD12C,2.000000*%
%ADD13C,0.150000*%
%ADD14R,1.700000X1.700000*%
%ADD15O,1.700000X1.700000*%
%ADD16C,0.900000*%
%ADD17C,0.250000*%
%ADD18C,1.000000*%
%ADD19C,0.200000*%
%ADD20C,0.025400*%
G04 APERTURE END LIST*
D10*
X225480000Y-128540000D03*
X225480000Y-126000000D03*
X228020000Y-128540000D03*
X228020000Y-126000000D03*
X230560000Y-128540000D03*
X230560000Y-126000000D03*
X233100000Y-128540000D03*
D11*
X233100000Y-126000000D03*
D12*
X215000000Y-103500000D03*
X217500000Y-119500000D03*
G04 #@! TA.AperFunction,SMDPad,CuDef*
D13*
G36*
X218774505Y-127426204D02*
G01*
X218798773Y-127429804D01*
X218822572Y-127435765D01*
X218845671Y-127444030D01*
X218867850Y-127454520D01*
X218888893Y-127467132D01*
X218908599Y-127481747D01*
X218926777Y-127498223D01*
X218943253Y-127516401D01*
X218957868Y-127536107D01*
X218970480Y-127557150D01*
X218980970Y-127579329D01*
X218989235Y-127602428D01*
X218995196Y-127626227D01*
X218998796Y-127650495D01*
X219000000Y-127674999D01*
X219000000Y-128700001D01*
X218998796Y-128724505D01*
X218995196Y-128748773D01*
X218989235Y-128772572D01*
X218980970Y-128795671D01*
X218970480Y-128817850D01*
X218957868Y-128838893D01*
X218943253Y-128858599D01*
X218926777Y-128876777D01*
X218908599Y-128893253D01*
X218888893Y-128907868D01*
X218867850Y-128920480D01*
X218845671Y-128930970D01*
X218822572Y-128939235D01*
X218798773Y-128945196D01*
X218774505Y-128948796D01*
X218750001Y-128950000D01*
X215249999Y-128950000D01*
X215225495Y-128948796D01*
X215201227Y-128945196D01*
X215177428Y-128939235D01*
X215154329Y-128930970D01*
X215132150Y-128920480D01*
X215111107Y-128907868D01*
X215091401Y-128893253D01*
X215073223Y-128876777D01*
X215056747Y-128858599D01*
X215042132Y-128838893D01*
X215029520Y-128817850D01*
X215019030Y-128795671D01*
X215010765Y-128772572D01*
X215004804Y-128748773D01*
X215001204Y-128724505D01*
X215000000Y-128700001D01*
X215000000Y-127674999D01*
X215001204Y-127650495D01*
X215004804Y-127626227D01*
X215010765Y-127602428D01*
X215019030Y-127579329D01*
X215029520Y-127557150D01*
X215042132Y-127536107D01*
X215056747Y-127516401D01*
X215073223Y-127498223D01*
X215091401Y-127481747D01*
X215111107Y-127467132D01*
X215132150Y-127454520D01*
X215154329Y-127444030D01*
X215177428Y-127435765D01*
X215201227Y-127429804D01*
X215225495Y-127426204D01*
X215249999Y-127425000D01*
X218750001Y-127425000D01*
X218774505Y-127426204D01*
G37*
G04 #@! TD.AperFunction*
G04 #@! TA.AperFunction,SMDPad,CuDef*
G36*
X218774505Y-125551204D02*
G01*
X218798773Y-125554804D01*
X218822572Y-125560765D01*
X218845671Y-125569030D01*
X218867850Y-125579520D01*
X218888893Y-125592132D01*
X218908599Y-125606747D01*
X218926777Y-125623223D01*
X218943253Y-125641401D01*
X218957868Y-125661107D01*
X218970480Y-125682150D01*
X218980970Y-125704329D01*
X218989235Y-125727428D01*
X218995196Y-125751227D01*
X218998796Y-125775495D01*
X219000000Y-125799999D01*
X219000000Y-126825001D01*
X218998796Y-126849505D01*
X218995196Y-126873773D01*
X218989235Y-126897572D01*
X218980970Y-126920671D01*
X218970480Y-126942850D01*
X218957868Y-126963893D01*
X218943253Y-126983599D01*
X218926777Y-127001777D01*
X218908599Y-127018253D01*
X218888893Y-127032868D01*
X218867850Y-127045480D01*
X218845671Y-127055970D01*
X218822572Y-127064235D01*
X218798773Y-127070196D01*
X218774505Y-127073796D01*
X218750001Y-127075000D01*
X215249999Y-127075000D01*
X215225495Y-127073796D01*
X215201227Y-127070196D01*
X215177428Y-127064235D01*
X215154329Y-127055970D01*
X215132150Y-127045480D01*
X215111107Y-127032868D01*
X215091401Y-127018253D01*
X215073223Y-127001777D01*
X215056747Y-126983599D01*
X215042132Y-126963893D01*
X215029520Y-126942850D01*
X215019030Y-126920671D01*
X215010765Y-126897572D01*
X215004804Y-126873773D01*
X215001204Y-126849505D01*
X215000000Y-126825001D01*
X215000000Y-125799999D01*
X215001204Y-125775495D01*
X215004804Y-125751227D01*
X215010765Y-125727428D01*
X215019030Y-125704329D01*
X215029520Y-125682150D01*
X215042132Y-125661107D01*
X215056747Y-125641401D01*
X215073223Y-125623223D01*
X215091401Y-125606747D01*
X215111107Y-125592132D01*
X215132150Y-125579520D01*
X215154329Y-125569030D01*
X215177428Y-125560765D01*
X215201227Y-125554804D01*
X215225495Y-125551204D01*
X215249999Y-125550000D01*
X218750001Y-125550000D01*
X218774505Y-125551204D01*
G37*
G04 #@! TD.AperFunction*
D14*
X208370000Y-98770000D03*
D15*
X208370000Y-96230000D03*
X210910000Y-98770000D03*
X210910000Y-96230000D03*
X213450000Y-98770000D03*
X213450000Y-96230000D03*
X215990000Y-98770000D03*
X215990000Y-96230000D03*
X218530000Y-98770000D03*
X218530000Y-96230000D03*
X221070000Y-98770000D03*
X221070000Y-96230000D03*
X223610000Y-98770000D03*
X223610000Y-96230000D03*
X226150000Y-98770000D03*
X226150000Y-96230000D03*
X228690000Y-98770000D03*
X228690000Y-96230000D03*
X231230000Y-98770000D03*
X231230000Y-96230000D03*
X233770000Y-98770000D03*
X233770000Y-96230000D03*
X236310000Y-98770000D03*
X236310000Y-96230000D03*
X238850000Y-98770000D03*
X238850000Y-96230000D03*
X241390000Y-98770000D03*
X241390000Y-96230000D03*
X243930000Y-98770000D03*
X243930000Y-96230000D03*
X246470000Y-98770000D03*
X246470000Y-96230000D03*
X249010000Y-98770000D03*
X249010000Y-96230000D03*
X251550000Y-98770000D03*
X251550000Y-96230000D03*
X254090000Y-98770000D03*
X254090000Y-96230000D03*
X256630000Y-98770000D03*
X256630000Y-96230000D03*
D16*
X243250000Y-101500000D03*
X238100000Y-103600000D03*
X230313174Y-101563174D03*
X224000000Y-103000000D03*
X219750000Y-102000000D03*
X226000000Y-106750000D03*
X233500000Y-106750000D03*
X238950000Y-108050000D03*
X241750000Y-112500000D03*
X239750000Y-113500000D03*
X235000000Y-116950000D03*
X230500000Y-110750000D03*
X226000000Y-115750000D03*
X225250000Y-116900000D03*
X222000000Y-121000000D03*
X225000000Y-101000000D03*
X230450000Y-117150000D03*
X237000000Y-118250000D03*
X223750000Y-118250000D03*
X240000000Y-120000000D03*
X240000000Y-125000000D03*
X245000000Y-125000000D03*
X250000000Y-125000000D03*
X255000000Y-125000000D03*
X260000000Y-125000000D03*
X262500000Y-125000000D03*
X262500000Y-115000000D03*
X262500000Y-110000000D03*
X262500000Y-105000000D03*
X202500000Y-102500000D03*
X202500000Y-107500000D03*
X202500000Y-112500000D03*
X202500000Y-126000000D03*
X207500000Y-126000000D03*
X212500000Y-126000000D03*
X215000000Y-124000000D03*
X212500000Y-107500000D03*
X212500000Y-112500000D03*
X245000000Y-117250000D03*
X255000000Y-112500000D03*
X255000000Y-105000000D03*
X212500000Y-117000000D03*
X212500000Y-121500000D03*
X207000000Y-114750000D03*
X207250000Y-107250000D03*
X210000000Y-101500000D03*
X216000000Y-107500000D03*
X247000000Y-102000000D03*
X247000000Y-105000000D03*
X244500000Y-102000000D03*
X245500000Y-105000000D03*
X243250000Y-107000000D03*
X251250000Y-107000000D03*
X251000000Y-109500000D03*
X248750000Y-112250000D03*
X245000000Y-113000000D03*
X242750000Y-115000000D03*
X240250000Y-117250000D03*
X219000000Y-124000000D03*
X217000000Y-124000000D03*
X215000000Y-121000000D03*
X214750000Y-115250000D03*
X214750000Y-112500000D03*
X215750000Y-109750000D03*
X218000000Y-109000000D03*
X224000000Y-111500000D03*
X217750000Y-113250000D03*
X250000000Y-117000000D03*
X255000000Y-117500000D03*
X227275000Y-108025000D03*
X241600000Y-110100000D03*
X249000000Y-103000000D03*
X221000016Y-101000000D03*
X229500000Y-100750000D03*
X223500000Y-101500020D03*
X239000000Y-101500000D03*
X226499988Y-102000012D03*
X240777818Y-101527818D03*
X231750000Y-100750004D03*
X237008787Y-101008787D03*
X240200000Y-99949999D03*
X227216636Y-117816636D03*
X228800000Y-118800000D03*
D17*
X242474999Y-100724999D02*
X242800001Y-101050001D01*
X236863590Y-102250000D02*
X238388591Y-100724999D01*
X229539999Y-99619999D02*
X229539999Y-99687003D01*
X228690000Y-98770000D02*
X229539999Y-99619999D01*
X238388591Y-100724999D02*
X242474999Y-100724999D01*
X232102996Y-102250000D02*
X236863590Y-102250000D01*
X229539999Y-99687003D02*
X232102996Y-102250000D01*
X242800001Y-101050001D02*
X243250000Y-101500000D01*
D18*
X207167919Y-96230000D02*
X208370000Y-96230000D01*
X206000000Y-102000000D02*
X206000000Y-97397919D01*
X217660000Y-104750000D02*
X217159999Y-105250001D01*
X209250001Y-105250001D02*
X206000000Y-102000000D01*
X241250000Y-104750000D02*
X217660000Y-104750000D01*
X242799987Y-103200013D02*
X241250000Y-104750000D01*
X248799987Y-103200013D02*
X242799987Y-103200013D01*
X206000000Y-97397919D02*
X207167919Y-96230000D01*
X217159999Y-105250001D02*
X209250001Y-105250001D01*
X249000000Y-103000000D02*
X248799987Y-103200013D01*
D17*
X222000016Y-100000000D02*
X221000016Y-101000000D01*
X228750000Y-100000000D02*
X222000016Y-100000000D01*
X229500000Y-100750000D02*
X228750000Y-100000000D01*
X229250000Y-102750000D02*
X237000000Y-102750000D01*
X227220968Y-101499990D02*
X227999990Y-101499990D01*
X226074989Y-101175011D02*
X226895989Y-101175011D01*
X223999980Y-102000000D02*
X225250000Y-102000000D01*
X225250000Y-102000000D02*
X226074989Y-101175011D01*
X227999990Y-101499990D02*
X229250000Y-102750000D01*
X223500000Y-101500020D02*
X223999980Y-102000000D01*
X237000000Y-102750000D02*
X238250000Y-101500000D01*
X226895989Y-101175011D02*
X227220968Y-101499990D01*
X238250000Y-101500000D02*
X239000000Y-101500000D01*
X240030635Y-102275001D02*
X240327819Y-101977817D01*
X238124999Y-102275001D02*
X240030635Y-102275001D01*
X237150000Y-103250000D02*
X238124999Y-102275001D01*
X229000000Y-103250000D02*
X237150000Y-103250000D01*
X226499988Y-102000012D02*
X226500000Y-102000000D01*
X227750000Y-102000000D02*
X229000000Y-103250000D01*
X240327819Y-101977817D02*
X240777818Y-101527818D01*
X226500000Y-102000000D02*
X227750000Y-102000000D01*
X236310000Y-99990000D02*
X236310000Y-99972081D01*
X232749996Y-101750000D02*
X232750000Y-101750000D01*
X232750000Y-101750000D02*
X232799990Y-101799990D01*
X234500010Y-101799990D02*
X236310000Y-99990000D01*
X232799990Y-101799990D02*
X234500010Y-101799990D01*
X236310000Y-99972081D02*
X236310000Y-98770000D01*
X231750000Y-100750004D02*
X232749996Y-101750000D01*
X237008787Y-101008787D02*
X237742585Y-100274989D01*
X239875010Y-100274989D02*
X240200000Y-99949999D01*
X237742585Y-100274989D02*
X239875010Y-100274989D01*
X228800000Y-118800000D02*
X228200000Y-118800000D01*
X228200000Y-118800000D02*
X227216636Y-117816636D01*
D19*
G36*
X262514397Y-94402116D02*
G01*
X263009196Y-94551505D01*
X263465561Y-94794157D01*
X263866096Y-95120827D01*
X264195561Y-95519081D01*
X264441390Y-95973734D01*
X264594230Y-96467479D01*
X264649991Y-96998008D01*
X264650001Y-97000933D01*
X264650000Y-126982878D01*
X264633613Y-127150000D01*
X242100000Y-127150000D01*
X242100000Y-120337489D01*
X259850000Y-120337489D01*
X259850000Y-120662511D01*
X259913408Y-120981287D01*
X260037789Y-121281568D01*
X260218361Y-121551814D01*
X260448186Y-121781639D01*
X260718432Y-121962211D01*
X261018713Y-122086592D01*
X261337489Y-122150000D01*
X261662511Y-122150000D01*
X261981287Y-122086592D01*
X262281568Y-121962211D01*
X262551814Y-121781639D01*
X262781639Y-121551814D01*
X262962211Y-121281568D01*
X263086592Y-120981287D01*
X263150000Y-120662511D01*
X263150000Y-120337489D01*
X263086592Y-120018713D01*
X262962211Y-119718432D01*
X262781639Y-119448186D01*
X262551814Y-119218361D01*
X262281568Y-119037789D01*
X261981287Y-118913408D01*
X261662511Y-118850000D01*
X261337489Y-118850000D01*
X261018713Y-118913408D01*
X260718432Y-119037789D01*
X260448186Y-119218361D01*
X260218361Y-119448186D01*
X260037789Y-119718432D01*
X259913408Y-120018713D01*
X259850000Y-120337489D01*
X242100000Y-120337489D01*
X242100000Y-118041422D01*
X246041422Y-114100000D01*
X250000000Y-114100000D01*
X250019509Y-114098079D01*
X250038268Y-114092388D01*
X250055557Y-114083147D01*
X250070711Y-114070711D01*
X253070711Y-111070711D01*
X253083147Y-111055557D01*
X253092388Y-111038268D01*
X253098079Y-111019509D01*
X253100000Y-111000000D01*
X253100000Y-106400000D01*
X253098079Y-106380491D01*
X253092388Y-106361732D01*
X253083147Y-106344443D01*
X253070711Y-106329289D01*
X252170711Y-105429289D01*
X252155557Y-105416853D01*
X252138268Y-105407612D01*
X252119509Y-105401921D01*
X252100000Y-105400000D01*
X247800000Y-105400000D01*
X247784134Y-105401267D01*
X247765177Y-105406259D01*
X247747558Y-105414854D01*
X247731955Y-105426721D01*
X247060731Y-106050000D01*
X240250000Y-106050000D01*
X240230491Y-106051921D01*
X240211732Y-106057612D01*
X240194443Y-106066853D01*
X240179289Y-106079289D01*
X239008578Y-107250000D01*
X237350000Y-107250000D01*
X237330491Y-107251921D01*
X237311732Y-107257612D01*
X237294443Y-107266853D01*
X237279289Y-107279289D01*
X235579289Y-108979289D01*
X235566853Y-108994443D01*
X235557612Y-109011732D01*
X235551921Y-109030491D01*
X235550000Y-109050000D01*
X235550000Y-109708578D01*
X234858578Y-110400000D01*
X232600000Y-110400000D01*
X232580491Y-110401921D01*
X232561732Y-110407612D01*
X232544443Y-110416853D01*
X232529289Y-110429289D01*
X232516853Y-110444443D01*
X232507612Y-110461732D01*
X232501921Y-110480491D01*
X232500000Y-110500000D01*
X232500000Y-110800000D01*
X232501921Y-110819509D01*
X232507612Y-110838268D01*
X232516853Y-110855557D01*
X232529289Y-110870711D01*
X232544443Y-110883147D01*
X232561732Y-110892388D01*
X232580491Y-110898079D01*
X232600000Y-110900000D01*
X235000000Y-110900000D01*
X235019509Y-110898079D01*
X235038268Y-110892388D01*
X235055557Y-110883147D01*
X235070711Y-110870711D01*
X235970711Y-109970711D01*
X235983147Y-109955557D01*
X235992388Y-109938268D01*
X235998079Y-109919509D01*
X236000000Y-109900000D01*
X236000000Y-109291422D01*
X237591422Y-107700000D01*
X239150000Y-107700000D01*
X239169509Y-107698079D01*
X239188268Y-107692388D01*
X239205557Y-107683147D01*
X239220711Y-107670711D01*
X240391422Y-106500000D01*
X251658578Y-106500000D01*
X251900000Y-106741422D01*
X251900000Y-109958578D01*
X248958578Y-112900000D01*
X246000000Y-112900000D01*
X245980491Y-112901921D01*
X245961732Y-112907612D01*
X245944443Y-112916853D01*
X245929289Y-112929289D01*
X240929289Y-117929289D01*
X240916853Y-117944443D01*
X240907612Y-117961732D01*
X240901921Y-117980491D01*
X240900000Y-118000000D01*
X240900000Y-127150000D01*
X234052932Y-127150000D01*
X234078960Y-127142104D01*
X234131077Y-127114247D01*
X234176758Y-127076758D01*
X234214247Y-127031077D01*
X234242104Y-126978960D01*
X234259259Y-126922410D01*
X234265051Y-126863600D01*
X234265051Y-125136400D01*
X234259259Y-125077590D01*
X234242104Y-125021040D01*
X234214247Y-124968923D01*
X234176758Y-124923242D01*
X234131077Y-124885753D01*
X234078960Y-124857896D01*
X234022410Y-124840741D01*
X233963600Y-124834949D01*
X232236400Y-124834949D01*
X232177590Y-124840741D01*
X232121040Y-124857896D01*
X232068923Y-124885753D01*
X232023242Y-124923242D01*
X231985753Y-124968923D01*
X231957896Y-125021040D01*
X231940741Y-125077590D01*
X231934949Y-125136400D01*
X231934949Y-126863600D01*
X231940741Y-126922410D01*
X231957896Y-126978960D01*
X231985753Y-127031077D01*
X232023242Y-127076758D01*
X232068923Y-127114247D01*
X232121040Y-127142104D01*
X232147068Y-127150000D01*
X230742976Y-127150000D01*
X230899410Y-127118883D01*
X231111171Y-127031169D01*
X231301752Y-126903827D01*
X231463827Y-126741752D01*
X231591169Y-126551171D01*
X231678883Y-126339410D01*
X231723600Y-126114605D01*
X231723600Y-125885395D01*
X231678883Y-125660590D01*
X231591169Y-125448829D01*
X231463827Y-125258248D01*
X231301752Y-125096173D01*
X231111171Y-124968831D01*
X230899410Y-124881117D01*
X230674605Y-124836400D01*
X230445395Y-124836400D01*
X230220590Y-124881117D01*
X230008829Y-124968831D01*
X229818248Y-125096173D01*
X229656173Y-125258248D01*
X229528831Y-125448829D01*
X229441117Y-125660590D01*
X229396400Y-125885395D01*
X229396400Y-126114605D01*
X229441117Y-126339410D01*
X229528831Y-126551171D01*
X229656173Y-126741752D01*
X229818248Y-126903827D01*
X230008829Y-127031169D01*
X230220590Y-127118883D01*
X230377024Y-127150000D01*
X228202976Y-127150000D01*
X228359410Y-127118883D01*
X228571171Y-127031169D01*
X228761752Y-126903827D01*
X228923827Y-126741752D01*
X229051169Y-126551171D01*
X229138883Y-126339410D01*
X229183600Y-126114605D01*
X229183600Y-125885395D01*
X229138883Y-125660590D01*
X229051169Y-125448829D01*
X228923827Y-125258248D01*
X228761752Y-125096173D01*
X228571171Y-124968831D01*
X228359410Y-124881117D01*
X228134605Y-124836400D01*
X227905395Y-124836400D01*
X227680590Y-124881117D01*
X227468829Y-124968831D01*
X227278248Y-125096173D01*
X227116173Y-125258248D01*
X226988831Y-125448829D01*
X226901117Y-125660590D01*
X226856400Y-125885395D01*
X226856400Y-126114605D01*
X226901117Y-126339410D01*
X226988831Y-126551171D01*
X227116173Y-126741752D01*
X227278248Y-126903827D01*
X227468829Y-127031169D01*
X227680590Y-127118883D01*
X227837024Y-127150000D01*
X225662976Y-127150000D01*
X225819410Y-127118883D01*
X226031171Y-127031169D01*
X226221752Y-126903827D01*
X226383827Y-126741752D01*
X226511169Y-126551171D01*
X226598883Y-126339410D01*
X226643600Y-126114605D01*
X226643600Y-125885395D01*
X226598883Y-125660590D01*
X226511169Y-125448829D01*
X226383827Y-125258248D01*
X226221752Y-125096173D01*
X226031171Y-124968831D01*
X225819410Y-124881117D01*
X225594605Y-124836400D01*
X225365395Y-124836400D01*
X225140590Y-124881117D01*
X224928829Y-124968831D01*
X224738248Y-125096173D01*
X224576173Y-125258248D01*
X224448831Y-125448829D01*
X224361117Y-125660590D01*
X224316400Y-125885395D01*
X224316400Y-126114605D01*
X224361117Y-126339410D01*
X224448831Y-126551171D01*
X224576173Y-126741752D01*
X224738248Y-126903827D01*
X224928829Y-127031169D01*
X225140590Y-127118883D01*
X225297024Y-127150000D01*
X219342998Y-127150000D01*
X219344936Y-127143612D01*
X219351694Y-127075000D01*
X219350000Y-126550000D01*
X219262500Y-126462500D01*
X217150000Y-126462500D01*
X217150000Y-126482500D01*
X216850000Y-126482500D01*
X216850000Y-126462500D01*
X214737500Y-126462500D01*
X214650000Y-126550000D01*
X214648306Y-127075000D01*
X214655064Y-127143612D01*
X214657002Y-127150000D01*
X214100000Y-127150000D01*
X214100000Y-125550000D01*
X214648306Y-125550000D01*
X214650000Y-126075000D01*
X214737500Y-126162500D01*
X216850000Y-126162500D01*
X216850000Y-125287500D01*
X217150000Y-125287500D01*
X217150000Y-126162500D01*
X219262500Y-126162500D01*
X219350000Y-126075000D01*
X219351694Y-125550000D01*
X219344936Y-125481388D01*
X219324923Y-125415413D01*
X219292423Y-125354609D01*
X219248685Y-125301315D01*
X219195391Y-125257577D01*
X219134587Y-125225077D01*
X219068612Y-125205064D01*
X219000000Y-125198306D01*
X217237500Y-125200000D01*
X217150000Y-125287500D01*
X216850000Y-125287500D01*
X216762500Y-125200000D01*
X215000000Y-125198306D01*
X214931388Y-125205064D01*
X214865413Y-125225077D01*
X214804609Y-125257577D01*
X214751315Y-125301315D01*
X214707577Y-125354609D01*
X214675077Y-125415413D01*
X214655064Y-125481388D01*
X214648306Y-125550000D01*
X214100000Y-125550000D01*
X214100000Y-120497117D01*
X216715015Y-120497117D01*
X216828893Y-120678895D01*
X217071779Y-120787169D01*
X217331121Y-120845978D01*
X217596954Y-120853062D01*
X217859060Y-120808149D01*
X218107368Y-120712964D01*
X218171107Y-120678895D01*
X218284985Y-120497117D01*
X217500000Y-119712132D01*
X216715015Y-120497117D01*
X214100000Y-120497117D01*
X214100000Y-119596954D01*
X216146938Y-119596954D01*
X216191851Y-119859060D01*
X216287036Y-120107368D01*
X216321105Y-120171107D01*
X216502883Y-120284985D01*
X217287868Y-119500000D01*
X217712132Y-119500000D01*
X218497117Y-120284985D01*
X218678895Y-120171107D01*
X218787169Y-119928221D01*
X218845978Y-119668879D01*
X218853062Y-119403046D01*
X218808149Y-119140940D01*
X218712964Y-118892632D01*
X218678895Y-118828893D01*
X218497117Y-118715015D01*
X217712132Y-119500000D01*
X217287868Y-119500000D01*
X216502883Y-118715015D01*
X216321105Y-118828893D01*
X216212831Y-119071779D01*
X216154022Y-119331121D01*
X216146938Y-119596954D01*
X214100000Y-119596954D01*
X214100000Y-118502883D01*
X216715015Y-118502883D01*
X217500000Y-119287868D01*
X218284985Y-118502883D01*
X218171107Y-118321105D01*
X217928221Y-118212831D01*
X217668879Y-118154022D01*
X217403046Y-118146938D01*
X217140940Y-118191851D01*
X216892632Y-118287036D01*
X216828893Y-118321105D01*
X216715015Y-118502883D01*
X214100000Y-118502883D01*
X214100000Y-117742767D01*
X226466636Y-117742767D01*
X226466636Y-117890505D01*
X226495458Y-118035403D01*
X226551995Y-118171894D01*
X226634073Y-118294733D01*
X226738539Y-118399199D01*
X226861378Y-118481277D01*
X226997869Y-118537814D01*
X227142767Y-118566636D01*
X227217823Y-118566636D01*
X227253632Y-118567627D01*
X227280984Y-118570530D01*
X227306458Y-118575345D01*
X227330550Y-118582012D01*
X227353800Y-118590608D01*
X227376654Y-118601312D01*
X227399548Y-118614439D01*
X227422806Y-118630377D01*
X227446564Y-118649495D01*
X227474620Y-118675660D01*
X227884721Y-119085762D01*
X227898026Y-119101974D01*
X227962740Y-119155084D01*
X228010855Y-119180801D01*
X228036572Y-119194548D01*
X228094553Y-119212136D01*
X228116686Y-119218850D01*
X228148921Y-119222025D01*
X228162383Y-119231794D01*
X228182380Y-119247893D01*
X228206410Y-119268929D01*
X228233908Y-119294725D01*
X228261205Y-119321865D01*
X228321903Y-119382563D01*
X228444742Y-119464641D01*
X228581233Y-119521178D01*
X228726131Y-119550000D01*
X228873869Y-119550000D01*
X229018767Y-119521178D01*
X229155258Y-119464641D01*
X229278097Y-119382563D01*
X229382563Y-119278097D01*
X229464641Y-119155258D01*
X229521178Y-119018767D01*
X229550000Y-118873869D01*
X229550000Y-118726131D01*
X229521178Y-118581233D01*
X229464641Y-118444742D01*
X229382563Y-118321903D01*
X229278097Y-118217437D01*
X229155258Y-118135359D01*
X229018767Y-118078822D01*
X228873869Y-118050000D01*
X228726131Y-118050000D01*
X228581233Y-118078822D01*
X228444742Y-118135359D01*
X228321903Y-118217437D01*
X228270190Y-118269150D01*
X228075660Y-118074620D01*
X228049495Y-118046564D01*
X228030377Y-118022806D01*
X228014439Y-117999548D01*
X228001312Y-117976654D01*
X227990608Y-117953800D01*
X227982012Y-117930550D01*
X227975345Y-117906458D01*
X227970530Y-117880984D01*
X227967627Y-117853632D01*
X227966636Y-117817823D01*
X227966636Y-117742767D01*
X227937814Y-117597869D01*
X227881277Y-117461378D01*
X227799199Y-117338539D01*
X227694733Y-117234073D01*
X227571894Y-117151995D01*
X227435403Y-117095458D01*
X227290505Y-117066636D01*
X227142767Y-117066636D01*
X226997869Y-117095458D01*
X226861378Y-117151995D01*
X226738539Y-117234073D01*
X226634073Y-117338539D01*
X226551995Y-117461378D01*
X226495458Y-117597869D01*
X226466636Y-117742767D01*
X214100000Y-117742767D01*
X214100000Y-110147138D01*
X216035925Y-108550000D01*
X223808578Y-108550000D01*
X225629289Y-110370711D01*
X225644443Y-110383147D01*
X225661732Y-110392388D01*
X225680491Y-110398079D01*
X225700000Y-110400000D01*
X228200000Y-110400000D01*
X228219509Y-110398079D01*
X228238268Y-110392388D01*
X228255557Y-110383147D01*
X228270711Y-110370711D01*
X228283147Y-110355557D01*
X228292388Y-110338268D01*
X228298079Y-110319509D01*
X228300000Y-110300000D01*
X228300000Y-110100000D01*
X228298079Y-110080491D01*
X228292388Y-110061732D01*
X228283147Y-110044443D01*
X228270711Y-110029289D01*
X228255557Y-110016853D01*
X228238268Y-110007612D01*
X228219509Y-110001921D01*
X228200000Y-110000000D01*
X225941422Y-110000000D01*
X224070711Y-108129289D01*
X224055557Y-108116853D01*
X224038268Y-108107612D01*
X224019509Y-108101921D01*
X224000000Y-108100000D01*
X215000000Y-108100000D01*
X214985813Y-108101011D01*
X214966774Y-108105681D01*
X214949012Y-108113976D01*
X214933209Y-108125576D01*
X212983209Y-109875576D01*
X212966853Y-109894443D01*
X212957612Y-109911732D01*
X212951921Y-109930491D01*
X212950000Y-109950000D01*
X212950000Y-127150000D01*
X200365565Y-127150000D01*
X200350009Y-127001991D01*
X200350000Y-126999354D01*
X200350000Y-120337489D01*
X201850000Y-120337489D01*
X201850000Y-120662511D01*
X201913408Y-120981287D01*
X202037789Y-121281568D01*
X202218361Y-121551814D01*
X202448186Y-121781639D01*
X202718432Y-121962211D01*
X203018713Y-122086592D01*
X203337489Y-122150000D01*
X203662511Y-122150000D01*
X203981287Y-122086592D01*
X204281568Y-121962211D01*
X204551814Y-121781639D01*
X204781639Y-121551814D01*
X204962211Y-121281568D01*
X205086592Y-120981287D01*
X205150000Y-120662511D01*
X205150000Y-120337489D01*
X205086592Y-120018713D01*
X204962211Y-119718432D01*
X204781639Y-119448186D01*
X204551814Y-119218361D01*
X204281568Y-119037789D01*
X203981287Y-118913408D01*
X203662511Y-118850000D01*
X203337489Y-118850000D01*
X203018713Y-118913408D01*
X202718432Y-119037789D01*
X202448186Y-119218361D01*
X202218361Y-119448186D01*
X202037789Y-119718432D01*
X201913408Y-120018713D01*
X201850000Y-120337489D01*
X200350000Y-120337489D01*
X200350000Y-97337489D01*
X201850000Y-97337489D01*
X201850000Y-97662511D01*
X201913408Y-97981287D01*
X202037789Y-98281568D01*
X202218361Y-98551814D01*
X202448186Y-98781639D01*
X202718432Y-98962211D01*
X203018713Y-99086592D01*
X203337489Y-99150000D01*
X203662511Y-99150000D01*
X203981287Y-99086592D01*
X204281568Y-98962211D01*
X204551814Y-98781639D01*
X204781639Y-98551814D01*
X204962211Y-98281568D01*
X205086592Y-97981287D01*
X205150000Y-97662511D01*
X205150000Y-97397919D01*
X205196130Y-97397919D01*
X205200001Y-97437219D01*
X205200000Y-101960709D01*
X205196130Y-102000000D01*
X205200000Y-102039291D01*
X205200000Y-102039292D01*
X205211576Y-102156826D01*
X205250896Y-102286446D01*
X205257321Y-102307627D01*
X205331607Y-102446606D01*
X205346079Y-102464240D01*
X205431578Y-102568422D01*
X205462103Y-102593473D01*
X208656532Y-105787903D01*
X208681579Y-105818423D01*
X208712099Y-105843470D01*
X208803394Y-105918394D01*
X208851804Y-105944270D01*
X208942373Y-105992680D01*
X209093174Y-106038425D01*
X209210708Y-106050001D01*
X209210717Y-106050001D01*
X209250000Y-106053870D01*
X209289283Y-106050001D01*
X217120708Y-106050001D01*
X217159999Y-106053871D01*
X217199290Y-106050001D01*
X217199292Y-106050001D01*
X217316826Y-106038425D01*
X217467627Y-105992680D01*
X217606605Y-105918394D01*
X217728421Y-105818423D01*
X217753472Y-105787898D01*
X217991370Y-105550000D01*
X241210709Y-105550000D01*
X241250000Y-105553870D01*
X241289291Y-105550000D01*
X241289293Y-105550000D01*
X241406827Y-105538424D01*
X241557628Y-105492679D01*
X241696606Y-105418393D01*
X241818422Y-105318422D01*
X241843473Y-105287897D01*
X243131358Y-104000013D01*
X248760696Y-104000013D01*
X248799987Y-104003883D01*
X248839278Y-104000013D01*
X248839280Y-104000013D01*
X248956814Y-103988437D01*
X249107615Y-103942692D01*
X249246593Y-103868406D01*
X249368409Y-103768435D01*
X249393460Y-103737910D01*
X249593469Y-103537901D01*
X249668393Y-103446606D01*
X249742679Y-103307627D01*
X249788423Y-103156828D01*
X249803870Y-103000001D01*
X249788423Y-102843173D01*
X249742679Y-102692373D01*
X249668393Y-102553394D01*
X249568421Y-102431579D01*
X249446606Y-102331607D01*
X249307627Y-102257321D01*
X249156827Y-102211577D01*
X248999999Y-102196130D01*
X248843172Y-102211577D01*
X248692373Y-102257321D01*
X248553394Y-102331607D01*
X248470041Y-102400013D01*
X242839278Y-102400013D01*
X242799987Y-102396143D01*
X242760696Y-102400013D01*
X242760694Y-102400013D01*
X242643160Y-102411589D01*
X242515534Y-102450304D01*
X242492359Y-102457334D01*
X242353380Y-102531620D01*
X242275854Y-102595244D01*
X242231565Y-102631591D01*
X242206518Y-102662111D01*
X240918630Y-103950000D01*
X217699282Y-103950000D01*
X217659999Y-103946131D01*
X217620716Y-103950000D01*
X217620707Y-103950000D01*
X217503173Y-103961576D01*
X217363706Y-104003883D01*
X217352372Y-104007321D01*
X217213393Y-104081607D01*
X217182004Y-104107368D01*
X217091578Y-104181578D01*
X217066527Y-104212103D01*
X216828629Y-104450001D01*
X215967740Y-104450001D01*
X216064938Y-104352803D01*
X215997119Y-104284984D01*
X216178895Y-104171107D01*
X216287169Y-103928221D01*
X216345978Y-103668879D01*
X216353062Y-103403046D01*
X216308149Y-103140940D01*
X216212964Y-102892632D01*
X216178895Y-102828893D01*
X215997117Y-102715015D01*
X215212132Y-103500000D01*
X215226275Y-103514143D01*
X215014143Y-103726275D01*
X215000000Y-103712132D01*
X214985858Y-103726275D01*
X214773726Y-103514143D01*
X214787868Y-103500000D01*
X214002883Y-102715015D01*
X213821105Y-102828893D01*
X213712831Y-103071779D01*
X213654022Y-103331121D01*
X213646938Y-103596954D01*
X213691851Y-103859060D01*
X213787036Y-104107368D01*
X213821105Y-104171107D01*
X214002881Y-104284984D01*
X213935062Y-104352803D01*
X214032260Y-104450001D01*
X209581372Y-104450001D01*
X207634254Y-102502883D01*
X214215015Y-102502883D01*
X215000000Y-103287868D01*
X215784985Y-102502883D01*
X215671107Y-102321105D01*
X215428221Y-102212831D01*
X215168879Y-102154022D01*
X214903046Y-102146938D01*
X214640940Y-102191851D01*
X214392632Y-102287036D01*
X214328893Y-102321105D01*
X214215015Y-102502883D01*
X207634254Y-102502883D01*
X206800000Y-101668630D01*
X206800000Y-97920000D01*
X207218549Y-97920000D01*
X207218549Y-99620000D01*
X207224341Y-99678810D01*
X207241496Y-99735360D01*
X207269353Y-99787477D01*
X207306842Y-99833158D01*
X207352523Y-99870647D01*
X207404640Y-99898504D01*
X207461190Y-99915659D01*
X207520000Y-99921451D01*
X209220000Y-99921451D01*
X209278810Y-99915659D01*
X209335360Y-99898504D01*
X209387477Y-99870647D01*
X209433158Y-99833158D01*
X209470647Y-99787477D01*
X209498504Y-99735360D01*
X209515659Y-99678810D01*
X209521451Y-99620000D01*
X209521451Y-98656735D01*
X209760000Y-98656735D01*
X209760000Y-98883265D01*
X209804194Y-99105443D01*
X209890884Y-99314729D01*
X210016737Y-99503082D01*
X210176918Y-99663263D01*
X210365271Y-99789116D01*
X210574557Y-99875806D01*
X210796735Y-99920000D01*
X211023265Y-99920000D01*
X211245443Y-99875806D01*
X211454729Y-99789116D01*
X211643082Y-99663263D01*
X211803263Y-99503082D01*
X211929116Y-99314729D01*
X212015806Y-99105443D01*
X212060000Y-98883265D01*
X212060000Y-98656735D01*
X212300000Y-98656735D01*
X212300000Y-98883265D01*
X212344194Y-99105443D01*
X212430884Y-99314729D01*
X212556737Y-99503082D01*
X212716918Y-99663263D01*
X212905271Y-99789116D01*
X213114557Y-99875806D01*
X213336735Y-99920000D01*
X213563265Y-99920000D01*
X213785443Y-99875806D01*
X213994729Y-99789116D01*
X214183082Y-99663263D01*
X214343263Y-99503082D01*
X214469116Y-99314729D01*
X214555806Y-99105443D01*
X214600000Y-98883265D01*
X214600000Y-98656735D01*
X214840000Y-98656735D01*
X214840000Y-98883265D01*
X214884194Y-99105443D01*
X214970884Y-99314729D01*
X215096737Y-99503082D01*
X215256918Y-99663263D01*
X215445271Y-99789116D01*
X215654557Y-99875806D01*
X215876735Y-99920000D01*
X216103265Y-99920000D01*
X216325443Y-99875806D01*
X216534729Y-99789116D01*
X216723082Y-99663263D01*
X216883263Y-99503082D01*
X217009116Y-99314729D01*
X217095806Y-99105443D01*
X217096012Y-99104403D01*
X217377528Y-99104403D01*
X217464911Y-99322814D01*
X217593225Y-99519980D01*
X217757539Y-99688325D01*
X217951538Y-99821379D01*
X218167767Y-99914029D01*
X218195598Y-99922465D01*
X218380000Y-99872341D01*
X218380000Y-98920000D01*
X218680000Y-98920000D01*
X218680000Y-99872341D01*
X218864402Y-99922465D01*
X218892233Y-99914029D01*
X219108462Y-99821379D01*
X219302461Y-99688325D01*
X219466775Y-99519980D01*
X219595089Y-99322814D01*
X219682472Y-99104403D01*
X219633095Y-98920000D01*
X218680000Y-98920000D01*
X218380000Y-98920000D01*
X217426905Y-98920000D01*
X217377528Y-99104403D01*
X217096012Y-99104403D01*
X217140000Y-98883265D01*
X217140000Y-98656735D01*
X219920000Y-98656735D01*
X219920000Y-98883265D01*
X219964194Y-99105443D01*
X220050884Y-99314729D01*
X220176737Y-99503082D01*
X220336918Y-99663263D01*
X220525271Y-99789116D01*
X220734557Y-99875806D01*
X220956735Y-99920000D01*
X221183265Y-99920000D01*
X221405443Y-99875806D01*
X221606417Y-99792559D01*
X221257998Y-100140978D01*
X221229951Y-100167134D01*
X221206186Y-100186258D01*
X221182928Y-100202196D01*
X221160034Y-100215323D01*
X221137180Y-100226027D01*
X221113930Y-100234623D01*
X221089838Y-100241290D01*
X221064364Y-100246105D01*
X221037011Y-100249008D01*
X221001195Y-100250000D01*
X220926147Y-100250000D01*
X220781249Y-100278822D01*
X220644758Y-100335359D01*
X220521919Y-100417437D01*
X220417453Y-100521903D01*
X220335375Y-100644742D01*
X220278838Y-100781233D01*
X220250016Y-100926131D01*
X220250016Y-101073869D01*
X220278838Y-101218767D01*
X220335375Y-101355258D01*
X220417453Y-101478097D01*
X220521919Y-101582563D01*
X220644758Y-101664641D01*
X220781249Y-101721178D01*
X220926147Y-101750000D01*
X221073885Y-101750000D01*
X221218783Y-101721178D01*
X221355274Y-101664641D01*
X221478113Y-101582563D01*
X221582579Y-101478097D01*
X221664657Y-101355258D01*
X221721194Y-101218767D01*
X221750016Y-101073869D01*
X221750016Y-100998812D01*
X221751007Y-100963003D01*
X221753910Y-100935651D01*
X221758725Y-100910177D01*
X221765392Y-100886085D01*
X221773988Y-100862835D01*
X221784692Y-100839981D01*
X221797819Y-100817087D01*
X221813757Y-100793829D01*
X221832875Y-100770071D01*
X221859044Y-100742012D01*
X222176056Y-100425000D01*
X228573960Y-100425000D01*
X228640972Y-100492012D01*
X228667140Y-100520071D01*
X228686258Y-100543829D01*
X228702196Y-100567087D01*
X228715323Y-100589981D01*
X228726027Y-100612835D01*
X228734623Y-100636085D01*
X228741290Y-100660177D01*
X228746105Y-100685651D01*
X228749008Y-100713004D01*
X228750000Y-100748821D01*
X228750000Y-100823869D01*
X228778822Y-100968767D01*
X228835359Y-101105258D01*
X228917437Y-101228097D01*
X229021903Y-101332563D01*
X229144742Y-101414641D01*
X229281233Y-101471178D01*
X229426131Y-101500000D01*
X229573869Y-101500000D01*
X229718767Y-101471178D01*
X229855258Y-101414641D01*
X229978097Y-101332563D01*
X230082563Y-101228097D01*
X230164641Y-101105258D01*
X230221045Y-100969089D01*
X231576955Y-102325000D01*
X229426041Y-102325000D01*
X228315273Y-101214233D01*
X228301964Y-101198016D01*
X228237250Y-101144906D01*
X228163417Y-101105442D01*
X228083304Y-101081140D01*
X228020864Y-101074990D01*
X228020857Y-101074990D01*
X227999990Y-101072935D01*
X227979123Y-101074990D01*
X227397009Y-101074990D01*
X227211272Y-100889254D01*
X227197963Y-100873037D01*
X227133249Y-100819927D01*
X227059416Y-100780463D01*
X226979303Y-100756161D01*
X226916863Y-100750011D01*
X226916856Y-100750011D01*
X226895989Y-100747956D01*
X226875122Y-100750011D01*
X226095856Y-100750011D01*
X226074989Y-100747956D01*
X226054122Y-100750011D01*
X226054115Y-100750011D01*
X225991675Y-100756161D01*
X225911562Y-100780463D01*
X225837729Y-100819927D01*
X225773015Y-100873037D01*
X225759705Y-100889255D01*
X225073960Y-101575000D01*
X224253275Y-101575000D01*
X224253052Y-101573429D01*
X224250682Y-101542426D01*
X224250000Y-101503211D01*
X224250000Y-101426151D01*
X224221178Y-101281253D01*
X224164641Y-101144762D01*
X224082563Y-101021923D01*
X223978097Y-100917457D01*
X223855258Y-100835379D01*
X223718767Y-100778842D01*
X223573869Y-100750020D01*
X223426131Y-100750020D01*
X223281233Y-100778842D01*
X223144742Y-100835379D01*
X223021903Y-100917457D01*
X222917437Y-101021923D01*
X222835359Y-101144762D01*
X222778822Y-101281253D01*
X222750000Y-101426151D01*
X222750000Y-101573889D01*
X222778822Y-101718787D01*
X222835359Y-101855278D01*
X222917437Y-101978117D01*
X223021903Y-102082583D01*
X223144742Y-102164661D01*
X223281233Y-102221198D01*
X223426131Y-102250020D01*
X223503191Y-102250020D01*
X223542406Y-102250702D01*
X223573409Y-102253072D01*
X223600346Y-102256888D01*
X223623268Y-102261801D01*
X223642456Y-102267472D01*
X223658254Y-102273588D01*
X223671159Y-102279925D01*
X223681847Y-102286446D01*
X223690690Y-102293059D01*
X223698006Y-102301974D01*
X223714218Y-102315279D01*
X223714219Y-102315280D01*
X223735689Y-102332900D01*
X223762720Y-102355084D01*
X223836553Y-102394548D01*
X223876056Y-102406531D01*
X223916665Y-102418850D01*
X223925078Y-102419679D01*
X223979106Y-102425000D01*
X223979112Y-102425000D01*
X223999979Y-102427055D01*
X224020846Y-102425000D01*
X225229133Y-102425000D01*
X225250000Y-102427055D01*
X225270867Y-102425000D01*
X225270874Y-102425000D01*
X225333314Y-102418850D01*
X225413427Y-102394548D01*
X225487260Y-102355084D01*
X225551974Y-102301974D01*
X225565284Y-102285756D01*
X225754496Y-102096544D01*
X225778810Y-102218779D01*
X225835347Y-102355270D01*
X225917425Y-102478109D01*
X226021891Y-102582575D01*
X226144730Y-102664653D01*
X226281221Y-102721190D01*
X226426119Y-102750012D01*
X226573857Y-102750012D01*
X226718755Y-102721190D01*
X226855246Y-102664653D01*
X226978085Y-102582575D01*
X227031158Y-102529502D01*
X227057175Y-102504886D01*
X227078569Y-102487597D01*
X227099994Y-102472985D01*
X227121751Y-102460659D01*
X227144253Y-102450304D01*
X227168006Y-102441704D01*
X227193476Y-102434797D01*
X227221189Y-102429620D01*
X227251524Y-102426337D01*
X227289835Y-102425000D01*
X227573960Y-102425000D01*
X228684721Y-103535762D01*
X228698026Y-103551974D01*
X228762740Y-103605084D01*
X228836573Y-103644548D01*
X228892383Y-103661478D01*
X228916685Y-103668850D01*
X228924327Y-103669603D01*
X228979126Y-103675000D01*
X228979133Y-103675000D01*
X229000000Y-103677055D01*
X229020867Y-103675000D01*
X237129133Y-103675000D01*
X237150000Y-103677055D01*
X237170867Y-103675000D01*
X237170874Y-103675000D01*
X237233314Y-103668850D01*
X237313427Y-103644548D01*
X237387260Y-103605084D01*
X237451974Y-103551974D01*
X237465283Y-103535757D01*
X238301040Y-102700001D01*
X240009768Y-102700001D01*
X240030635Y-102702056D01*
X240051502Y-102700001D01*
X240051509Y-102700001D01*
X240113949Y-102693851D01*
X240194062Y-102669549D01*
X240267895Y-102630085D01*
X240332609Y-102576975D01*
X240345919Y-102560757D01*
X240614077Y-102292599D01*
X240623593Y-102289859D01*
X240641337Y-102286115D01*
X240665275Y-102282592D01*
X240694976Y-102279816D01*
X240730159Y-102278144D01*
X240771610Y-102277818D01*
X240851687Y-102277818D01*
X240996585Y-102248996D01*
X241133076Y-102192459D01*
X241255915Y-102110381D01*
X241360381Y-102005915D01*
X241442459Y-101883076D01*
X241498996Y-101746585D01*
X241527818Y-101601687D01*
X241527818Y-101453949D01*
X241498996Y-101309051D01*
X241442459Y-101172560D01*
X241427384Y-101149999D01*
X242298959Y-101149999D01*
X242485220Y-101336261D01*
X242487954Y-101345756D01*
X242491702Y-101363523D01*
X242495225Y-101387457D01*
X242498001Y-101417158D01*
X242499673Y-101452343D01*
X242500000Y-101493809D01*
X242500000Y-101573869D01*
X242528822Y-101718767D01*
X242585359Y-101855258D01*
X242667437Y-101978097D01*
X242771903Y-102082563D01*
X242894742Y-102164641D01*
X243031233Y-102221178D01*
X243176131Y-102250000D01*
X243323869Y-102250000D01*
X243468767Y-102221178D01*
X243605258Y-102164641D01*
X243728097Y-102082563D01*
X243832563Y-101978097D01*
X243914641Y-101855258D01*
X243971178Y-101718767D01*
X244000000Y-101573869D01*
X244000000Y-101426131D01*
X243971178Y-101281233D01*
X243914641Y-101144742D01*
X243832563Y-101021903D01*
X243728097Y-100917437D01*
X243605258Y-100835359D01*
X243468767Y-100778822D01*
X243323869Y-100750000D01*
X243243809Y-100750000D01*
X243202343Y-100749673D01*
X243167158Y-100748001D01*
X243137457Y-100745225D01*
X243113523Y-100741702D01*
X243095756Y-100737954D01*
X243086261Y-100735220D01*
X242790282Y-100439242D01*
X242776973Y-100423025D01*
X242712259Y-100369915D01*
X242638426Y-100330451D01*
X242558313Y-100306149D01*
X242495873Y-100299999D01*
X242495866Y-100299999D01*
X242474999Y-100297944D01*
X242454132Y-100299999D01*
X240866819Y-100299999D01*
X240921178Y-100168766D01*
X240950000Y-100023868D01*
X240950000Y-99876130D01*
X240940541Y-99828579D01*
X241054557Y-99875806D01*
X241276735Y-99920000D01*
X241503265Y-99920000D01*
X241725443Y-99875806D01*
X241934729Y-99789116D01*
X242123082Y-99663263D01*
X242283263Y-99503082D01*
X242409116Y-99314729D01*
X242495806Y-99105443D01*
X242540000Y-98883265D01*
X242540000Y-98656735D01*
X242780000Y-98656735D01*
X242780000Y-98883265D01*
X242824194Y-99105443D01*
X242910884Y-99314729D01*
X243036737Y-99503082D01*
X243196918Y-99663263D01*
X243385271Y-99789116D01*
X243594557Y-99875806D01*
X243816735Y-99920000D01*
X244043265Y-99920000D01*
X244265443Y-99875806D01*
X244474729Y-99789116D01*
X244663082Y-99663263D01*
X244823263Y-99503082D01*
X244949116Y-99314729D01*
X245035806Y-99105443D01*
X245080000Y-98883265D01*
X245080000Y-98656735D01*
X245320000Y-98656735D01*
X245320000Y-98883265D01*
X245364194Y-99105443D01*
X245450884Y-99314729D01*
X245576737Y-99503082D01*
X245736918Y-99663263D01*
X245925271Y-99789116D01*
X246134557Y-99875806D01*
X246356735Y-99920000D01*
X246583265Y-99920000D01*
X246805443Y-99875806D01*
X247014729Y-99789116D01*
X247203082Y-99663263D01*
X247363263Y-99503082D01*
X247489116Y-99314729D01*
X247575806Y-99105443D01*
X247620000Y-98883265D01*
X247620000Y-98656735D01*
X247860000Y-98656735D01*
X247860000Y-98883265D01*
X247904194Y-99105443D01*
X247990884Y-99314729D01*
X248116737Y-99503082D01*
X248276918Y-99663263D01*
X248465271Y-99789116D01*
X248674557Y-99875806D01*
X248896735Y-99920000D01*
X249123265Y-99920000D01*
X249345443Y-99875806D01*
X249554729Y-99789116D01*
X249743082Y-99663263D01*
X249903263Y-99503082D01*
X250029116Y-99314729D01*
X250115806Y-99105443D01*
X250160000Y-98883265D01*
X250160000Y-98656735D01*
X250400000Y-98656735D01*
X250400000Y-98883265D01*
X250444194Y-99105443D01*
X250530884Y-99314729D01*
X250656737Y-99503082D01*
X250816918Y-99663263D01*
X251005271Y-99789116D01*
X251214557Y-99875806D01*
X251436735Y-99920000D01*
X251663265Y-99920000D01*
X251885443Y-99875806D01*
X252094729Y-99789116D01*
X252283082Y-99663263D01*
X252443263Y-99503082D01*
X252569116Y-99314729D01*
X252655806Y-99105443D01*
X252700000Y-98883265D01*
X252700000Y-98656735D01*
X252940000Y-98656735D01*
X252940000Y-98883265D01*
X252984194Y-99105443D01*
X253070884Y-99314729D01*
X253196737Y-99503082D01*
X253356918Y-99663263D01*
X253545271Y-99789116D01*
X253754557Y-99875806D01*
X253976735Y-99920000D01*
X254203265Y-99920000D01*
X254425443Y-99875806D01*
X254634729Y-99789116D01*
X254823082Y-99663263D01*
X254983263Y-99503082D01*
X255109116Y-99314729D01*
X255195806Y-99105443D01*
X255196012Y-99104403D01*
X255477528Y-99104403D01*
X255564911Y-99322814D01*
X255693225Y-99519980D01*
X255857539Y-99688325D01*
X256051538Y-99821379D01*
X256267767Y-99914029D01*
X256295598Y-99922465D01*
X256480000Y-99872341D01*
X256480000Y-98920000D01*
X256780000Y-98920000D01*
X256780000Y-99872341D01*
X256964402Y-99922465D01*
X256992233Y-99914029D01*
X257208462Y-99821379D01*
X257402461Y-99688325D01*
X257566775Y-99519980D01*
X257695089Y-99322814D01*
X257782472Y-99104403D01*
X257733095Y-98920000D01*
X256780000Y-98920000D01*
X256480000Y-98920000D01*
X255526905Y-98920000D01*
X255477528Y-99104403D01*
X255196012Y-99104403D01*
X255240000Y-98883265D01*
X255240000Y-98656735D01*
X255196013Y-98435597D01*
X255477528Y-98435597D01*
X255526905Y-98620000D01*
X256480000Y-98620000D01*
X256480000Y-97667659D01*
X256780000Y-97667659D01*
X256780000Y-98620000D01*
X257733095Y-98620000D01*
X257782472Y-98435597D01*
X257695089Y-98217186D01*
X257566775Y-98020020D01*
X257402461Y-97851675D01*
X257208462Y-97718621D01*
X256992233Y-97625971D01*
X256964402Y-97617535D01*
X256780000Y-97667659D01*
X256480000Y-97667659D01*
X256295598Y-97617535D01*
X256267767Y-97625971D01*
X256051538Y-97718621D01*
X255857539Y-97851675D01*
X255693225Y-98020020D01*
X255564911Y-98217186D01*
X255477528Y-98435597D01*
X255196013Y-98435597D01*
X255195806Y-98434557D01*
X255109116Y-98225271D01*
X254983263Y-98036918D01*
X254823082Y-97876737D01*
X254634729Y-97750884D01*
X254425443Y-97664194D01*
X254203265Y-97620000D01*
X253976735Y-97620000D01*
X253754557Y-97664194D01*
X253545271Y-97750884D01*
X253356918Y-97876737D01*
X253196737Y-98036918D01*
X253070884Y-98225271D01*
X252984194Y-98434557D01*
X252940000Y-98656735D01*
X252700000Y-98656735D01*
X252655806Y-98434557D01*
X252569116Y-98225271D01*
X252443263Y-98036918D01*
X252283082Y-97876737D01*
X252094729Y-97750884D01*
X251885443Y-97664194D01*
X251663265Y-97620000D01*
X251436735Y-97620000D01*
X251214557Y-97664194D01*
X251005271Y-97750884D01*
X250816918Y-97876737D01*
X250656737Y-98036918D01*
X250530884Y-98225271D01*
X250444194Y-98434557D01*
X250400000Y-98656735D01*
X250160000Y-98656735D01*
X250115806Y-98434557D01*
X250029116Y-98225271D01*
X249903263Y-98036918D01*
X249743082Y-97876737D01*
X249554729Y-97750884D01*
X249345443Y-97664194D01*
X249123265Y-97620000D01*
X248896735Y-97620000D01*
X248674557Y-97664194D01*
X248465271Y-97750884D01*
X248276918Y-97876737D01*
X248116737Y-98036918D01*
X247990884Y-98225271D01*
X247904194Y-98434557D01*
X247860000Y-98656735D01*
X247620000Y-98656735D01*
X247575806Y-98434557D01*
X247489116Y-98225271D01*
X247363263Y-98036918D01*
X247203082Y-97876737D01*
X247014729Y-97750884D01*
X246805443Y-97664194D01*
X246583265Y-97620000D01*
X246356735Y-97620000D01*
X246134557Y-97664194D01*
X245925271Y-97750884D01*
X245736918Y-97876737D01*
X245576737Y-98036918D01*
X245450884Y-98225271D01*
X245364194Y-98434557D01*
X245320000Y-98656735D01*
X245080000Y-98656735D01*
X245035806Y-98434557D01*
X244949116Y-98225271D01*
X244823263Y-98036918D01*
X244663082Y-97876737D01*
X244474729Y-97750884D01*
X244265443Y-97664194D01*
X244043265Y-97620000D01*
X243816735Y-97620000D01*
X243594557Y-97664194D01*
X243385271Y-97750884D01*
X243196918Y-97876737D01*
X243036737Y-98036918D01*
X242910884Y-98225271D01*
X242824194Y-98434557D01*
X242780000Y-98656735D01*
X242540000Y-98656735D01*
X242495806Y-98434557D01*
X242409116Y-98225271D01*
X242283263Y-98036918D01*
X242123082Y-97876737D01*
X241934729Y-97750884D01*
X241725443Y-97664194D01*
X241503265Y-97620000D01*
X241276735Y-97620000D01*
X241054557Y-97664194D01*
X240845271Y-97750884D01*
X240656918Y-97876737D01*
X240496737Y-98036918D01*
X240370884Y-98225271D01*
X240284194Y-98434557D01*
X240240000Y-98656735D01*
X240240000Y-98883265D01*
X240284194Y-99105443D01*
X240327805Y-99210727D01*
X240273869Y-99199999D01*
X240126131Y-99199999D01*
X239981233Y-99228821D01*
X239947025Y-99242990D01*
X240002472Y-99104403D01*
X239953095Y-98920000D01*
X239000000Y-98920000D01*
X239000000Y-98940000D01*
X238700000Y-98940000D01*
X238700000Y-98920000D01*
X237746905Y-98920000D01*
X237697528Y-99104403D01*
X237784911Y-99322814D01*
X237913225Y-99519980D01*
X238077539Y-99688325D01*
X238271538Y-99821379D01*
X238338309Y-99849989D01*
X237763451Y-99849989D01*
X237742584Y-99847934D01*
X237721717Y-99849989D01*
X237721711Y-99849989D01*
X237667683Y-99855310D01*
X237659270Y-99856139D01*
X237655229Y-99857365D01*
X237579158Y-99880441D01*
X237505325Y-99919905D01*
X237440611Y-99973015D01*
X237427306Y-99989227D01*
X237266758Y-100149775D01*
X237238722Y-100175921D01*
X237214957Y-100195045D01*
X237191699Y-100210983D01*
X237168805Y-100224110D01*
X237145951Y-100234814D01*
X237122701Y-100243410D01*
X237098609Y-100250077D01*
X237073135Y-100254892D01*
X237045782Y-100257795D01*
X237009966Y-100258787D01*
X236934918Y-100258787D01*
X236790020Y-100287609D01*
X236653529Y-100344146D01*
X236530690Y-100426224D01*
X236426224Y-100530690D01*
X236344146Y-100653529D01*
X236287609Y-100790020D01*
X236258787Y-100934918D01*
X236258787Y-101082656D01*
X236287609Y-101227554D01*
X236344146Y-101364045D01*
X236426224Y-101486884D01*
X236530690Y-101591350D01*
X236653529Y-101673428D01*
X236784763Y-101727787D01*
X236687550Y-101825000D01*
X235076040Y-101825000D01*
X236595763Y-100305278D01*
X236611974Y-100291974D01*
X236625914Y-100274989D01*
X236658108Y-100235760D01*
X236665084Y-100227260D01*
X236704548Y-100153427D01*
X236725428Y-100084596D01*
X236728850Y-100073315D01*
X236729690Y-100064789D01*
X236734364Y-100017335D01*
X236734626Y-100016853D01*
X236755398Y-99985463D01*
X236788272Y-99941753D01*
X236832553Y-99887991D01*
X236887699Y-99825448D01*
X236953335Y-99754857D01*
X237029213Y-99676654D01*
X237041822Y-99664105D01*
X237043082Y-99663263D01*
X237203263Y-99503082D01*
X237329116Y-99314729D01*
X237415806Y-99105443D01*
X237460000Y-98883265D01*
X237460000Y-98656735D01*
X237416013Y-98435597D01*
X237697528Y-98435597D01*
X237746905Y-98620000D01*
X238700000Y-98620000D01*
X238700000Y-97667659D01*
X239000000Y-97667659D01*
X239000000Y-98620000D01*
X239953095Y-98620000D01*
X240002472Y-98435597D01*
X239915089Y-98217186D01*
X239786775Y-98020020D01*
X239622461Y-97851675D01*
X239428462Y-97718621D01*
X239212233Y-97625971D01*
X239184402Y-97617535D01*
X239000000Y-97667659D01*
X238700000Y-97667659D01*
X238515598Y-97617535D01*
X238487767Y-97625971D01*
X238271538Y-97718621D01*
X238077539Y-97851675D01*
X237913225Y-98020020D01*
X237784911Y-98217186D01*
X237697528Y-98435597D01*
X237416013Y-98435597D01*
X237415806Y-98434557D01*
X237329116Y-98225271D01*
X237203263Y-98036918D01*
X237043082Y-97876737D01*
X236854729Y-97750884D01*
X236645443Y-97664194D01*
X236423265Y-97620000D01*
X236196735Y-97620000D01*
X235974557Y-97664194D01*
X235765271Y-97750884D01*
X235576918Y-97876737D01*
X235416737Y-98036918D01*
X235290884Y-98225271D01*
X235204194Y-98434557D01*
X235160000Y-98656735D01*
X235160000Y-98883265D01*
X235204194Y-99105443D01*
X235290884Y-99314729D01*
X235416737Y-99503082D01*
X235576918Y-99663263D01*
X235578178Y-99664105D01*
X235590787Y-99676654D01*
X235666665Y-99754857D01*
X235732301Y-99825448D01*
X235787447Y-99887991D01*
X235798070Y-99900889D01*
X234323970Y-101374990D01*
X232976027Y-101374990D01*
X232609024Y-101007988D01*
X232582859Y-100979932D01*
X232563741Y-100956174D01*
X232547803Y-100932916D01*
X232534676Y-100910022D01*
X232523972Y-100887168D01*
X232515376Y-100863918D01*
X232508709Y-100839826D01*
X232503894Y-100814352D01*
X232500991Y-100787000D01*
X232500000Y-100751191D01*
X232500000Y-100676135D01*
X232471178Y-100531237D01*
X232414641Y-100394746D01*
X232332563Y-100271907D01*
X232228097Y-100167441D01*
X232105258Y-100085363D01*
X231968767Y-100028826D01*
X231823869Y-100000004D01*
X231676131Y-100000004D01*
X231531233Y-100028826D01*
X231394742Y-100085363D01*
X231271903Y-100167441D01*
X231167437Y-100271907D01*
X231085359Y-100394746D01*
X231028822Y-100531237D01*
X231021597Y-100567560D01*
X229944971Y-99490935D01*
X229934547Y-99456572D01*
X229895083Y-99382739D01*
X229873345Y-99356251D01*
X229871913Y-99351402D01*
X229864405Y-99314516D01*
X229856743Y-99260366D01*
X229850038Y-99191030D01*
X229844810Y-99107837D01*
X229841305Y-99011490D01*
X229839661Y-98902567D01*
X229839704Y-98884755D01*
X229840000Y-98883265D01*
X229840000Y-98656735D01*
X230080000Y-98656735D01*
X230080000Y-98883265D01*
X230124194Y-99105443D01*
X230210884Y-99314729D01*
X230336737Y-99503082D01*
X230496918Y-99663263D01*
X230685271Y-99789116D01*
X230894557Y-99875806D01*
X231116735Y-99920000D01*
X231343265Y-99920000D01*
X231565443Y-99875806D01*
X231774729Y-99789116D01*
X231963082Y-99663263D01*
X232123263Y-99503082D01*
X232249116Y-99314729D01*
X232335806Y-99105443D01*
X232380000Y-98883265D01*
X232380000Y-98656735D01*
X232620000Y-98656735D01*
X232620000Y-98883265D01*
X232664194Y-99105443D01*
X232750884Y-99314729D01*
X232876737Y-99503082D01*
X233036918Y-99663263D01*
X233225271Y-99789116D01*
X233434557Y-99875806D01*
X233656735Y-99920000D01*
X233883265Y-99920000D01*
X234105443Y-99875806D01*
X234314729Y-99789116D01*
X234503082Y-99663263D01*
X234663263Y-99503082D01*
X234789116Y-99314729D01*
X234875806Y-99105443D01*
X234920000Y-98883265D01*
X234920000Y-98656735D01*
X234875806Y-98434557D01*
X234789116Y-98225271D01*
X234663263Y-98036918D01*
X234503082Y-97876737D01*
X234314729Y-97750884D01*
X234105443Y-97664194D01*
X233883265Y-97620000D01*
X233656735Y-97620000D01*
X233434557Y-97664194D01*
X233225271Y-97750884D01*
X233036918Y-97876737D01*
X232876737Y-98036918D01*
X232750884Y-98225271D01*
X232664194Y-98434557D01*
X232620000Y-98656735D01*
X232380000Y-98656735D01*
X232335806Y-98434557D01*
X232249116Y-98225271D01*
X232123263Y-98036918D01*
X231963082Y-97876737D01*
X231774729Y-97750884D01*
X231565443Y-97664194D01*
X231343265Y-97620000D01*
X231116735Y-97620000D01*
X230894557Y-97664194D01*
X230685271Y-97750884D01*
X230496918Y-97876737D01*
X230336737Y-98036918D01*
X230210884Y-98225271D01*
X230124194Y-98434557D01*
X230080000Y-98656735D01*
X229840000Y-98656735D01*
X229795806Y-98434557D01*
X229709116Y-98225271D01*
X229583263Y-98036918D01*
X229423082Y-97876737D01*
X229234729Y-97750884D01*
X229025443Y-97664194D01*
X228803265Y-97620000D01*
X228576735Y-97620000D01*
X228354557Y-97664194D01*
X228145271Y-97750884D01*
X227956918Y-97876737D01*
X227796737Y-98036918D01*
X227670884Y-98225271D01*
X227584194Y-98434557D01*
X227540000Y-98656735D01*
X227540000Y-98883265D01*
X227584194Y-99105443D01*
X227670884Y-99314729D01*
X227796737Y-99503082D01*
X227868655Y-99575000D01*
X226971345Y-99575000D01*
X227043263Y-99503082D01*
X227169116Y-99314729D01*
X227255806Y-99105443D01*
X227300000Y-98883265D01*
X227300000Y-98656735D01*
X227255806Y-98434557D01*
X227169116Y-98225271D01*
X227043263Y-98036918D01*
X226883082Y-97876737D01*
X226694729Y-97750884D01*
X226485443Y-97664194D01*
X226263265Y-97620000D01*
X226036735Y-97620000D01*
X225814557Y-97664194D01*
X225605271Y-97750884D01*
X225416918Y-97876737D01*
X225256737Y-98036918D01*
X225130884Y-98225271D01*
X225044194Y-98434557D01*
X225000000Y-98656735D01*
X225000000Y-98883265D01*
X225044194Y-99105443D01*
X225130884Y-99314729D01*
X225256737Y-99503082D01*
X225328655Y-99575000D01*
X224431345Y-99575000D01*
X224503263Y-99503082D01*
X224629116Y-99314729D01*
X224715806Y-99105443D01*
X224760000Y-98883265D01*
X224760000Y-98656735D01*
X224715806Y-98434557D01*
X224629116Y-98225271D01*
X224503263Y-98036918D01*
X224343082Y-97876737D01*
X224154729Y-97750884D01*
X223945443Y-97664194D01*
X223723265Y-97620000D01*
X223496735Y-97620000D01*
X223274557Y-97664194D01*
X223065271Y-97750884D01*
X222876918Y-97876737D01*
X222716737Y-98036918D01*
X222590884Y-98225271D01*
X222504194Y-98434557D01*
X222460000Y-98656735D01*
X222460000Y-98883265D01*
X222504194Y-99105443D01*
X222590884Y-99314729D01*
X222716737Y-99503082D01*
X222788655Y-99575000D01*
X222020890Y-99575000D01*
X222000016Y-99572944D01*
X221979142Y-99575000D01*
X221916702Y-99581150D01*
X221871476Y-99594869D01*
X221963263Y-99503082D01*
X222089116Y-99314729D01*
X222175806Y-99105443D01*
X222220000Y-98883265D01*
X222220000Y-98656735D01*
X222175806Y-98434557D01*
X222089116Y-98225271D01*
X221963263Y-98036918D01*
X221803082Y-97876737D01*
X221614729Y-97750884D01*
X221405443Y-97664194D01*
X221183265Y-97620000D01*
X220956735Y-97620000D01*
X220734557Y-97664194D01*
X220525271Y-97750884D01*
X220336918Y-97876737D01*
X220176737Y-98036918D01*
X220050884Y-98225271D01*
X219964194Y-98434557D01*
X219920000Y-98656735D01*
X217140000Y-98656735D01*
X217096013Y-98435597D01*
X217377528Y-98435597D01*
X217426905Y-98620000D01*
X218380000Y-98620000D01*
X218380000Y-97667659D01*
X218680000Y-97667659D01*
X218680000Y-98620000D01*
X219633095Y-98620000D01*
X219682472Y-98435597D01*
X219595089Y-98217186D01*
X219466775Y-98020020D01*
X219302461Y-97851675D01*
X219108462Y-97718621D01*
X218892233Y-97625971D01*
X218864402Y-97617535D01*
X218680000Y-97667659D01*
X218380000Y-97667659D01*
X218195598Y-97617535D01*
X218167767Y-97625971D01*
X217951538Y-97718621D01*
X217757539Y-97851675D01*
X217593225Y-98020020D01*
X217464911Y-98217186D01*
X217377528Y-98435597D01*
X217096013Y-98435597D01*
X217095806Y-98434557D01*
X217009116Y-98225271D01*
X216883263Y-98036918D01*
X216723082Y-97876737D01*
X216534729Y-97750884D01*
X216325443Y-97664194D01*
X216103265Y-97620000D01*
X215876735Y-97620000D01*
X215654557Y-97664194D01*
X215445271Y-97750884D01*
X215256918Y-97876737D01*
X215096737Y-98036918D01*
X214970884Y-98225271D01*
X214884194Y-98434557D01*
X214840000Y-98656735D01*
X214600000Y-98656735D01*
X214555806Y-98434557D01*
X214469116Y-98225271D01*
X214343263Y-98036918D01*
X214183082Y-97876737D01*
X213994729Y-97750884D01*
X213785443Y-97664194D01*
X213563265Y-97620000D01*
X213336735Y-97620000D01*
X213114557Y-97664194D01*
X212905271Y-97750884D01*
X212716918Y-97876737D01*
X212556737Y-98036918D01*
X212430884Y-98225271D01*
X212344194Y-98434557D01*
X212300000Y-98656735D01*
X212060000Y-98656735D01*
X212015806Y-98434557D01*
X211929116Y-98225271D01*
X211803263Y-98036918D01*
X211643082Y-97876737D01*
X211454729Y-97750884D01*
X211245443Y-97664194D01*
X211023265Y-97620000D01*
X210796735Y-97620000D01*
X210574557Y-97664194D01*
X210365271Y-97750884D01*
X210176918Y-97876737D01*
X210016737Y-98036918D01*
X209890884Y-98225271D01*
X209804194Y-98434557D01*
X209760000Y-98656735D01*
X209521451Y-98656735D01*
X209521451Y-97920000D01*
X209515659Y-97861190D01*
X209498504Y-97804640D01*
X209470647Y-97752523D01*
X209433158Y-97706842D01*
X209387477Y-97669353D01*
X209335360Y-97641496D01*
X209278810Y-97624341D01*
X209220000Y-97618549D01*
X207520000Y-97618549D01*
X207461190Y-97624341D01*
X207404640Y-97641496D01*
X207352523Y-97669353D01*
X207306842Y-97706842D01*
X207269353Y-97752523D01*
X207241496Y-97804640D01*
X207224341Y-97861190D01*
X207218549Y-97920000D01*
X206800000Y-97920000D01*
X206800000Y-97729289D01*
X207487942Y-97041348D01*
X207498302Y-97042513D01*
X207535183Y-97048472D01*
X207561915Y-97054456D01*
X207570835Y-97057180D01*
X207636918Y-97123263D01*
X207825271Y-97249116D01*
X208034557Y-97335806D01*
X208256735Y-97380000D01*
X208483265Y-97380000D01*
X208705443Y-97335806D01*
X208914729Y-97249116D01*
X209103082Y-97123263D01*
X209263263Y-96963082D01*
X209389116Y-96774729D01*
X209475806Y-96565443D01*
X209520000Y-96343265D01*
X209520000Y-96116735D01*
X209760000Y-96116735D01*
X209760000Y-96343265D01*
X209804194Y-96565443D01*
X209890884Y-96774729D01*
X210016737Y-96963082D01*
X210176918Y-97123263D01*
X210365271Y-97249116D01*
X210574557Y-97335806D01*
X210796735Y-97380000D01*
X211023265Y-97380000D01*
X211245443Y-97335806D01*
X211454729Y-97249116D01*
X211643082Y-97123263D01*
X211803263Y-96963082D01*
X211929116Y-96774729D01*
X212015806Y-96565443D01*
X212016012Y-96564403D01*
X212297528Y-96564403D01*
X212384911Y-96782814D01*
X212513225Y-96979980D01*
X212677539Y-97148325D01*
X212871538Y-97281379D01*
X213087767Y-97374029D01*
X213115598Y-97382465D01*
X213300000Y-97332341D01*
X213300000Y-96380000D01*
X213600000Y-96380000D01*
X213600000Y-97332341D01*
X213784402Y-97382465D01*
X213812233Y-97374029D01*
X214028462Y-97281379D01*
X214222461Y-97148325D01*
X214386775Y-96979980D01*
X214515089Y-96782814D01*
X214602472Y-96564403D01*
X214553095Y-96380000D01*
X213600000Y-96380000D01*
X213300000Y-96380000D01*
X212346905Y-96380000D01*
X212297528Y-96564403D01*
X212016012Y-96564403D01*
X212060000Y-96343265D01*
X212060000Y-96116735D01*
X214840000Y-96116735D01*
X214840000Y-96343265D01*
X214884194Y-96565443D01*
X214970884Y-96774729D01*
X215096737Y-96963082D01*
X215256918Y-97123263D01*
X215445271Y-97249116D01*
X215654557Y-97335806D01*
X215876735Y-97380000D01*
X216103265Y-97380000D01*
X216325443Y-97335806D01*
X216534729Y-97249116D01*
X216723082Y-97123263D01*
X216883263Y-96963082D01*
X217009116Y-96774729D01*
X217095806Y-96565443D01*
X217140000Y-96343265D01*
X217140000Y-96116735D01*
X217380000Y-96116735D01*
X217380000Y-96343265D01*
X217424194Y-96565443D01*
X217510884Y-96774729D01*
X217636737Y-96963082D01*
X217796918Y-97123263D01*
X217985271Y-97249116D01*
X218194557Y-97335806D01*
X218416735Y-97380000D01*
X218643265Y-97380000D01*
X218865443Y-97335806D01*
X219074729Y-97249116D01*
X219263082Y-97123263D01*
X219423263Y-96963082D01*
X219549116Y-96774729D01*
X219635806Y-96565443D01*
X219680000Y-96343265D01*
X219680000Y-96116735D01*
X219920000Y-96116735D01*
X219920000Y-96343265D01*
X219964194Y-96565443D01*
X220050884Y-96774729D01*
X220176737Y-96963082D01*
X220336918Y-97123263D01*
X220525271Y-97249116D01*
X220734557Y-97335806D01*
X220956735Y-97380000D01*
X221183265Y-97380000D01*
X221405443Y-97335806D01*
X221614729Y-97249116D01*
X221803082Y-97123263D01*
X221963263Y-96963082D01*
X222089116Y-96774729D01*
X222175806Y-96565443D01*
X222176012Y-96564403D01*
X222457528Y-96564403D01*
X222544911Y-96782814D01*
X222673225Y-96979980D01*
X222837539Y-97148325D01*
X223031538Y-97281379D01*
X223247767Y-97374029D01*
X223275598Y-97382465D01*
X223460000Y-97332341D01*
X223460000Y-96380000D01*
X223760000Y-96380000D01*
X223760000Y-97332341D01*
X223944402Y-97382465D01*
X223972233Y-97374029D01*
X224188462Y-97281379D01*
X224382461Y-97148325D01*
X224546775Y-96979980D01*
X224675089Y-96782814D01*
X224762472Y-96564403D01*
X224713095Y-96380000D01*
X223760000Y-96380000D01*
X223460000Y-96380000D01*
X222506905Y-96380000D01*
X222457528Y-96564403D01*
X222176012Y-96564403D01*
X222220000Y-96343265D01*
X222220000Y-96116735D01*
X225000000Y-96116735D01*
X225000000Y-96343265D01*
X225044194Y-96565443D01*
X225130884Y-96774729D01*
X225256737Y-96963082D01*
X225416918Y-97123263D01*
X225605271Y-97249116D01*
X225814557Y-97335806D01*
X226036735Y-97380000D01*
X226263265Y-97380000D01*
X226485443Y-97335806D01*
X226694729Y-97249116D01*
X226883082Y-97123263D01*
X227043263Y-96963082D01*
X227169116Y-96774729D01*
X227255806Y-96565443D01*
X227300000Y-96343265D01*
X227300000Y-96116735D01*
X227540000Y-96116735D01*
X227540000Y-96343265D01*
X227584194Y-96565443D01*
X227670884Y-96774729D01*
X227796737Y-96963082D01*
X227956918Y-97123263D01*
X228145271Y-97249116D01*
X228354557Y-97335806D01*
X228576735Y-97380000D01*
X228803265Y-97380000D01*
X229025443Y-97335806D01*
X229234729Y-97249116D01*
X229423082Y-97123263D01*
X229583263Y-96963082D01*
X229709116Y-96774729D01*
X229795806Y-96565443D01*
X229796012Y-96564403D01*
X230077528Y-96564403D01*
X230164911Y-96782814D01*
X230293225Y-96979980D01*
X230457539Y-97148325D01*
X230651538Y-97281379D01*
X230867767Y-97374029D01*
X230895598Y-97382465D01*
X231080000Y-97332341D01*
X231080000Y-96380000D01*
X231380000Y-96380000D01*
X231380000Y-97332341D01*
X231564402Y-97382465D01*
X231592233Y-97374029D01*
X231808462Y-97281379D01*
X232002461Y-97148325D01*
X232166775Y-96979980D01*
X232295089Y-96782814D01*
X232382472Y-96564403D01*
X232333095Y-96380000D01*
X231380000Y-96380000D01*
X231080000Y-96380000D01*
X230126905Y-96380000D01*
X230077528Y-96564403D01*
X229796012Y-96564403D01*
X229840000Y-96343265D01*
X229840000Y-96116735D01*
X232620000Y-96116735D01*
X232620000Y-96343265D01*
X232664194Y-96565443D01*
X232750884Y-96774729D01*
X232876737Y-96963082D01*
X233036918Y-97123263D01*
X233225271Y-97249116D01*
X233434557Y-97335806D01*
X233656735Y-97380000D01*
X233883265Y-97380000D01*
X234105443Y-97335806D01*
X234314729Y-97249116D01*
X234503082Y-97123263D01*
X234663263Y-96963082D01*
X234789116Y-96774729D01*
X234875806Y-96565443D01*
X234920000Y-96343265D01*
X234920000Y-96116735D01*
X235160000Y-96116735D01*
X235160000Y-96343265D01*
X235204194Y-96565443D01*
X235290884Y-96774729D01*
X235416737Y-96963082D01*
X235576918Y-97123263D01*
X235765271Y-97249116D01*
X235974557Y-97335806D01*
X236196735Y-97380000D01*
X236423265Y-97380000D01*
X236645443Y-97335806D01*
X236854729Y-97249116D01*
X237043082Y-97123263D01*
X237203263Y-96963082D01*
X237329116Y-96774729D01*
X237415806Y-96565443D01*
X237460000Y-96343265D01*
X237460000Y-96116735D01*
X237700000Y-96116735D01*
X237700000Y-96343265D01*
X237744194Y-96565443D01*
X237830884Y-96774729D01*
X237956737Y-96963082D01*
X238116918Y-97123263D01*
X238305271Y-97249116D01*
X238514557Y-97335806D01*
X238736735Y-97380000D01*
X238963265Y-97380000D01*
X239185443Y-97335806D01*
X239394729Y-97249116D01*
X239583082Y-97123263D01*
X239743263Y-96963082D01*
X239869116Y-96774729D01*
X239955806Y-96565443D01*
X240000000Y-96343265D01*
X240000000Y-96116735D01*
X240240000Y-96116735D01*
X240240000Y-96343265D01*
X240284194Y-96565443D01*
X240370884Y-96774729D01*
X240496737Y-96963082D01*
X240656918Y-97123263D01*
X240845271Y-97249116D01*
X241054557Y-97335806D01*
X241276735Y-97380000D01*
X241503265Y-97380000D01*
X241725443Y-97335806D01*
X241934729Y-97249116D01*
X242123082Y-97123263D01*
X242283263Y-96963082D01*
X242409116Y-96774729D01*
X242495806Y-96565443D01*
X242496012Y-96564403D01*
X242777528Y-96564403D01*
X242864911Y-96782814D01*
X242993225Y-96979980D01*
X243157539Y-97148325D01*
X243351538Y-97281379D01*
X243567767Y-97374029D01*
X243595598Y-97382465D01*
X243780000Y-97332341D01*
X243780000Y-96380000D01*
X244080000Y-96380000D01*
X244080000Y-97332341D01*
X244264402Y-97382465D01*
X244292233Y-97374029D01*
X244508462Y-97281379D01*
X244702461Y-97148325D01*
X244866775Y-96979980D01*
X244995089Y-96782814D01*
X245082472Y-96564403D01*
X245033095Y-96380000D01*
X244080000Y-96380000D01*
X243780000Y-96380000D01*
X242826905Y-96380000D01*
X242777528Y-96564403D01*
X242496012Y-96564403D01*
X242540000Y-96343265D01*
X242540000Y-96116735D01*
X245320000Y-96116735D01*
X245320000Y-96343265D01*
X245364194Y-96565443D01*
X245450884Y-96774729D01*
X245576737Y-96963082D01*
X245736918Y-97123263D01*
X245925271Y-97249116D01*
X246134557Y-97335806D01*
X246356735Y-97380000D01*
X246583265Y-97380000D01*
X246805443Y-97335806D01*
X247014729Y-97249116D01*
X247203082Y-97123263D01*
X247363263Y-96963082D01*
X247489116Y-96774729D01*
X247575806Y-96565443D01*
X247576012Y-96564403D01*
X247857528Y-96564403D01*
X247944911Y-96782814D01*
X248073225Y-96979980D01*
X248237539Y-97148325D01*
X248431538Y-97281379D01*
X248647767Y-97374029D01*
X248675598Y-97382465D01*
X248860000Y-97332341D01*
X248860000Y-96380000D01*
X249160000Y-96380000D01*
X249160000Y-97332341D01*
X249344402Y-97382465D01*
X249372233Y-97374029D01*
X249588462Y-97281379D01*
X249782461Y-97148325D01*
X249946775Y-96979980D01*
X250075089Y-96782814D01*
X250162472Y-96564403D01*
X250113095Y-96380000D01*
X249160000Y-96380000D01*
X248860000Y-96380000D01*
X247906905Y-96380000D01*
X247857528Y-96564403D01*
X247576012Y-96564403D01*
X247620000Y-96343265D01*
X247620000Y-96116735D01*
X250400000Y-96116735D01*
X250400000Y-96343265D01*
X250444194Y-96565443D01*
X250530884Y-96774729D01*
X250656737Y-96963082D01*
X250816918Y-97123263D01*
X251005271Y-97249116D01*
X251214557Y-97335806D01*
X251436735Y-97380000D01*
X251663265Y-97380000D01*
X251885443Y-97335806D01*
X252094729Y-97249116D01*
X252283082Y-97123263D01*
X252443263Y-96963082D01*
X252569116Y-96774729D01*
X252655806Y-96565443D01*
X252700000Y-96343265D01*
X252700000Y-96116735D01*
X252940000Y-96116735D01*
X252940000Y-96343265D01*
X252984194Y-96565443D01*
X253070884Y-96774729D01*
X253196737Y-96963082D01*
X253356918Y-97123263D01*
X253545271Y-97249116D01*
X253754557Y-97335806D01*
X253976735Y-97380000D01*
X254203265Y-97380000D01*
X254425443Y-97335806D01*
X254634729Y-97249116D01*
X254823082Y-97123263D01*
X254983263Y-96963082D01*
X255109116Y-96774729D01*
X255195806Y-96565443D01*
X255240000Y-96343265D01*
X255240000Y-96116735D01*
X255480000Y-96116735D01*
X255480000Y-96343265D01*
X255524194Y-96565443D01*
X255610884Y-96774729D01*
X255736737Y-96963082D01*
X255896918Y-97123263D01*
X256085271Y-97249116D01*
X256294557Y-97335806D01*
X256516735Y-97380000D01*
X256743265Y-97380000D01*
X256956981Y-97337489D01*
X259850000Y-97337489D01*
X259850000Y-97662511D01*
X259913408Y-97981287D01*
X260037789Y-98281568D01*
X260218361Y-98551814D01*
X260448186Y-98781639D01*
X260718432Y-98962211D01*
X261018713Y-99086592D01*
X261337489Y-99150000D01*
X261662511Y-99150000D01*
X261981287Y-99086592D01*
X262281568Y-98962211D01*
X262551814Y-98781639D01*
X262781639Y-98551814D01*
X262962211Y-98281568D01*
X263086592Y-97981287D01*
X263150000Y-97662511D01*
X263150000Y-97337489D01*
X263086592Y-97018713D01*
X262962211Y-96718432D01*
X262781639Y-96448186D01*
X262551814Y-96218361D01*
X262281568Y-96037789D01*
X261981287Y-95913408D01*
X261662511Y-95850000D01*
X261337489Y-95850000D01*
X261018713Y-95913408D01*
X260718432Y-96037789D01*
X260448186Y-96218361D01*
X260218361Y-96448186D01*
X260037789Y-96718432D01*
X259913408Y-97018713D01*
X259850000Y-97337489D01*
X256956981Y-97337489D01*
X256965443Y-97335806D01*
X257174729Y-97249116D01*
X257363082Y-97123263D01*
X257523263Y-96963082D01*
X257649116Y-96774729D01*
X257735806Y-96565443D01*
X257780000Y-96343265D01*
X257780000Y-96116735D01*
X257735806Y-95894557D01*
X257649116Y-95685271D01*
X257523263Y-95496918D01*
X257363082Y-95336737D01*
X257174729Y-95210884D01*
X256965443Y-95124194D01*
X256743265Y-95080000D01*
X256516735Y-95080000D01*
X256294557Y-95124194D01*
X256085271Y-95210884D01*
X255896918Y-95336737D01*
X255736737Y-95496918D01*
X255610884Y-95685271D01*
X255524194Y-95894557D01*
X255480000Y-96116735D01*
X255240000Y-96116735D01*
X255195806Y-95894557D01*
X255109116Y-95685271D01*
X254983263Y-95496918D01*
X254823082Y-95336737D01*
X254634729Y-95210884D01*
X254425443Y-95124194D01*
X254203265Y-95080000D01*
X253976735Y-95080000D01*
X253754557Y-95124194D01*
X253545271Y-95210884D01*
X253356918Y-95336737D01*
X253196737Y-95496918D01*
X253070884Y-95685271D01*
X252984194Y-95894557D01*
X252940000Y-96116735D01*
X252700000Y-96116735D01*
X252655806Y-95894557D01*
X252569116Y-95685271D01*
X252443263Y-95496918D01*
X252283082Y-95336737D01*
X252094729Y-95210884D01*
X251885443Y-95124194D01*
X251663265Y-95080000D01*
X251436735Y-95080000D01*
X251214557Y-95124194D01*
X251005271Y-95210884D01*
X250816918Y-95336737D01*
X250656737Y-95496918D01*
X250530884Y-95685271D01*
X250444194Y-95894557D01*
X250400000Y-96116735D01*
X247620000Y-96116735D01*
X247576013Y-95895597D01*
X247857528Y-95895597D01*
X247906905Y-96080000D01*
X248860000Y-96080000D01*
X248860000Y-95127659D01*
X249160000Y-95127659D01*
X249160000Y-96080000D01*
X250113095Y-96080000D01*
X250162472Y-95895597D01*
X250075089Y-95677186D01*
X249946775Y-95480020D01*
X249782461Y-95311675D01*
X249588462Y-95178621D01*
X249372233Y-95085971D01*
X249344402Y-95077535D01*
X249160000Y-95127659D01*
X248860000Y-95127659D01*
X248675598Y-95077535D01*
X248647767Y-95085971D01*
X248431538Y-95178621D01*
X248237539Y-95311675D01*
X248073225Y-95480020D01*
X247944911Y-95677186D01*
X247857528Y-95895597D01*
X247576013Y-95895597D01*
X247575806Y-95894557D01*
X247489116Y-95685271D01*
X247363263Y-95496918D01*
X247203082Y-95336737D01*
X247014729Y-95210884D01*
X246805443Y-95124194D01*
X246583265Y-95080000D01*
X246356735Y-95080000D01*
X246134557Y-95124194D01*
X245925271Y-95210884D01*
X245736918Y-95336737D01*
X245576737Y-95496918D01*
X245450884Y-95685271D01*
X245364194Y-95894557D01*
X245320000Y-96116735D01*
X242540000Y-96116735D01*
X242496013Y-95895597D01*
X242777528Y-95895597D01*
X242826905Y-96080000D01*
X243780000Y-96080000D01*
X243780000Y-95127659D01*
X244080000Y-95127659D01*
X244080000Y-96080000D01*
X245033095Y-96080000D01*
X245082472Y-95895597D01*
X244995089Y-95677186D01*
X244866775Y-95480020D01*
X244702461Y-95311675D01*
X244508462Y-95178621D01*
X244292233Y-95085971D01*
X244264402Y-95077535D01*
X244080000Y-95127659D01*
X243780000Y-95127659D01*
X243595598Y-95077535D01*
X243567767Y-95085971D01*
X243351538Y-95178621D01*
X243157539Y-95311675D01*
X242993225Y-95480020D01*
X242864911Y-95677186D01*
X242777528Y-95895597D01*
X242496013Y-95895597D01*
X242495806Y-95894557D01*
X242409116Y-95685271D01*
X242283263Y-95496918D01*
X242123082Y-95336737D01*
X241934729Y-95210884D01*
X241725443Y-95124194D01*
X241503265Y-95080000D01*
X241276735Y-95080000D01*
X241054557Y-95124194D01*
X240845271Y-95210884D01*
X240656918Y-95336737D01*
X240496737Y-95496918D01*
X240370884Y-95685271D01*
X240284194Y-95894557D01*
X240240000Y-96116735D01*
X240000000Y-96116735D01*
X239955806Y-95894557D01*
X239869116Y-95685271D01*
X239743263Y-95496918D01*
X239583082Y-95336737D01*
X239394729Y-95210884D01*
X239185443Y-95124194D01*
X238963265Y-95080000D01*
X238736735Y-95080000D01*
X238514557Y-95124194D01*
X238305271Y-95210884D01*
X238116918Y-95336737D01*
X237956737Y-95496918D01*
X237830884Y-95685271D01*
X237744194Y-95894557D01*
X237700000Y-96116735D01*
X237460000Y-96116735D01*
X237415806Y-95894557D01*
X237329116Y-95685271D01*
X237203263Y-95496918D01*
X237043082Y-95336737D01*
X236854729Y-95210884D01*
X236645443Y-95124194D01*
X236423265Y-95080000D01*
X236196735Y-95080000D01*
X235974557Y-95124194D01*
X235765271Y-95210884D01*
X235576918Y-95336737D01*
X235416737Y-95496918D01*
X235290884Y-95685271D01*
X235204194Y-95894557D01*
X235160000Y-96116735D01*
X234920000Y-96116735D01*
X234875806Y-95894557D01*
X234789116Y-95685271D01*
X234663263Y-95496918D01*
X234503082Y-95336737D01*
X234314729Y-95210884D01*
X234105443Y-95124194D01*
X233883265Y-95080000D01*
X233656735Y-95080000D01*
X233434557Y-95124194D01*
X233225271Y-95210884D01*
X233036918Y-95336737D01*
X232876737Y-95496918D01*
X232750884Y-95685271D01*
X232664194Y-95894557D01*
X232620000Y-96116735D01*
X229840000Y-96116735D01*
X229796013Y-95895597D01*
X230077528Y-95895597D01*
X230126905Y-96080000D01*
X231080000Y-96080000D01*
X231080000Y-95127659D01*
X231380000Y-95127659D01*
X231380000Y-96080000D01*
X232333095Y-96080000D01*
X232382472Y-95895597D01*
X232295089Y-95677186D01*
X232166775Y-95480020D01*
X232002461Y-95311675D01*
X231808462Y-95178621D01*
X231592233Y-95085971D01*
X231564402Y-95077535D01*
X231380000Y-95127659D01*
X231080000Y-95127659D01*
X230895598Y-95077535D01*
X230867767Y-95085971D01*
X230651538Y-95178621D01*
X230457539Y-95311675D01*
X230293225Y-95480020D01*
X230164911Y-95677186D01*
X230077528Y-95895597D01*
X229796013Y-95895597D01*
X229795806Y-95894557D01*
X229709116Y-95685271D01*
X229583263Y-95496918D01*
X229423082Y-95336737D01*
X229234729Y-95210884D01*
X229025443Y-95124194D01*
X228803265Y-95080000D01*
X228576735Y-95080000D01*
X228354557Y-95124194D01*
X228145271Y-95210884D01*
X227956918Y-95336737D01*
X227796737Y-95496918D01*
X227670884Y-95685271D01*
X227584194Y-95894557D01*
X227540000Y-96116735D01*
X227300000Y-96116735D01*
X227255806Y-95894557D01*
X227169116Y-95685271D01*
X227043263Y-95496918D01*
X226883082Y-95336737D01*
X226694729Y-95210884D01*
X226485443Y-95124194D01*
X226263265Y-95080000D01*
X226036735Y-95080000D01*
X225814557Y-95124194D01*
X225605271Y-95210884D01*
X225416918Y-95336737D01*
X225256737Y-95496918D01*
X225130884Y-95685271D01*
X225044194Y-95894557D01*
X225000000Y-96116735D01*
X222220000Y-96116735D01*
X222176013Y-95895597D01*
X222457528Y-95895597D01*
X222506905Y-96080000D01*
X223460000Y-96080000D01*
X223460000Y-95127659D01*
X223760000Y-95127659D01*
X223760000Y-96080000D01*
X224713095Y-96080000D01*
X224762472Y-95895597D01*
X224675089Y-95677186D01*
X224546775Y-95480020D01*
X224382461Y-95311675D01*
X224188462Y-95178621D01*
X223972233Y-95085971D01*
X223944402Y-95077535D01*
X223760000Y-95127659D01*
X223460000Y-95127659D01*
X223275598Y-95077535D01*
X223247767Y-95085971D01*
X223031538Y-95178621D01*
X222837539Y-95311675D01*
X222673225Y-95480020D01*
X222544911Y-95677186D01*
X222457528Y-95895597D01*
X222176013Y-95895597D01*
X222175806Y-95894557D01*
X222089116Y-95685271D01*
X221963263Y-95496918D01*
X221803082Y-95336737D01*
X221614729Y-95210884D01*
X221405443Y-95124194D01*
X221183265Y-95080000D01*
X220956735Y-95080000D01*
X220734557Y-95124194D01*
X220525271Y-95210884D01*
X220336918Y-95336737D01*
X220176737Y-95496918D01*
X220050884Y-95685271D01*
X219964194Y-95894557D01*
X219920000Y-96116735D01*
X219680000Y-96116735D01*
X219635806Y-95894557D01*
X219549116Y-95685271D01*
X219423263Y-95496918D01*
X219263082Y-95336737D01*
X219074729Y-95210884D01*
X218865443Y-95124194D01*
X218643265Y-95080000D01*
X218416735Y-95080000D01*
X218194557Y-95124194D01*
X217985271Y-95210884D01*
X217796918Y-95336737D01*
X217636737Y-95496918D01*
X217510884Y-95685271D01*
X217424194Y-95894557D01*
X217380000Y-96116735D01*
X217140000Y-96116735D01*
X217095806Y-95894557D01*
X217009116Y-95685271D01*
X216883263Y-95496918D01*
X216723082Y-95336737D01*
X216534729Y-95210884D01*
X216325443Y-95124194D01*
X216103265Y-95080000D01*
X215876735Y-95080000D01*
X215654557Y-95124194D01*
X215445271Y-95210884D01*
X215256918Y-95336737D01*
X215096737Y-95496918D01*
X214970884Y-95685271D01*
X214884194Y-95894557D01*
X214840000Y-96116735D01*
X212060000Y-96116735D01*
X212016013Y-95895597D01*
X212297528Y-95895597D01*
X212346905Y-96080000D01*
X213300000Y-96080000D01*
X213300000Y-95127659D01*
X213600000Y-95127659D01*
X213600000Y-96080000D01*
X214553095Y-96080000D01*
X214602472Y-95895597D01*
X214515089Y-95677186D01*
X214386775Y-95480020D01*
X214222461Y-95311675D01*
X214028462Y-95178621D01*
X213812233Y-95085971D01*
X213784402Y-95077535D01*
X213600000Y-95127659D01*
X213300000Y-95127659D01*
X213115598Y-95077535D01*
X213087767Y-95085971D01*
X212871538Y-95178621D01*
X212677539Y-95311675D01*
X212513225Y-95480020D01*
X212384911Y-95677186D01*
X212297528Y-95895597D01*
X212016013Y-95895597D01*
X212015806Y-95894557D01*
X211929116Y-95685271D01*
X211803263Y-95496918D01*
X211643082Y-95336737D01*
X211454729Y-95210884D01*
X211245443Y-95124194D01*
X211023265Y-95080000D01*
X210796735Y-95080000D01*
X210574557Y-95124194D01*
X210365271Y-95210884D01*
X210176918Y-95336737D01*
X210016737Y-95496918D01*
X209890884Y-95685271D01*
X209804194Y-95894557D01*
X209760000Y-96116735D01*
X209520000Y-96116735D01*
X209475806Y-95894557D01*
X209389116Y-95685271D01*
X209263263Y-95496918D01*
X209103082Y-95336737D01*
X208914729Y-95210884D01*
X208705443Y-95124194D01*
X208483265Y-95080000D01*
X208256735Y-95080000D01*
X208034557Y-95124194D01*
X207825271Y-95210884D01*
X207636918Y-95336737D01*
X207570836Y-95402819D01*
X207561915Y-95405543D01*
X207535183Y-95411527D01*
X207498302Y-95417486D01*
X207452205Y-95422669D01*
X207397659Y-95426631D01*
X207335060Y-95429122D01*
X207263142Y-95430000D01*
X207207210Y-95430000D01*
X207167919Y-95426130D01*
X207128628Y-95430000D01*
X207128626Y-95430000D01*
X207011092Y-95441576D01*
X206869347Y-95484574D01*
X206860291Y-95487321D01*
X206721312Y-95561607D01*
X206657040Y-95614354D01*
X206599497Y-95661578D01*
X206574450Y-95692098D01*
X205462098Y-96804451D01*
X205431579Y-96829497D01*
X205406532Y-96860017D01*
X205406531Y-96860018D01*
X205331607Y-96951313D01*
X205257321Y-97090292D01*
X205211577Y-97241092D01*
X205196130Y-97397919D01*
X205150000Y-97397919D01*
X205150000Y-97337489D01*
X205086592Y-97018713D01*
X204962211Y-96718432D01*
X204781639Y-96448186D01*
X204551814Y-96218361D01*
X204281568Y-96037789D01*
X203981287Y-95913408D01*
X203662511Y-95850000D01*
X203337489Y-95850000D01*
X203018713Y-95913408D01*
X202718432Y-96037789D01*
X202448186Y-96218361D01*
X202218361Y-96448186D01*
X202037789Y-96718432D01*
X201913408Y-97018713D01*
X201850000Y-97337489D01*
X200350000Y-97337489D01*
X200350000Y-97017122D01*
X200402116Y-96485603D01*
X200551505Y-95990804D01*
X200794157Y-95534439D01*
X201120827Y-95133904D01*
X201519081Y-94804439D01*
X201973734Y-94558610D01*
X202467479Y-94405770D01*
X202998008Y-94350009D01*
X203000646Y-94350000D01*
X261982878Y-94350000D01*
X262514397Y-94402116D01*
G37*
X262514397Y-94402116D02*
X263009196Y-94551505D01*
X263465561Y-94794157D01*
X263866096Y-95120827D01*
X264195561Y-95519081D01*
X264441390Y-95973734D01*
X264594230Y-96467479D01*
X264649991Y-96998008D01*
X264650001Y-97000933D01*
X264650000Y-126982878D01*
X264633613Y-127150000D01*
X242100000Y-127150000D01*
X242100000Y-120337489D01*
X259850000Y-120337489D01*
X259850000Y-120662511D01*
X259913408Y-120981287D01*
X260037789Y-121281568D01*
X260218361Y-121551814D01*
X260448186Y-121781639D01*
X260718432Y-121962211D01*
X261018713Y-122086592D01*
X261337489Y-122150000D01*
X261662511Y-122150000D01*
X261981287Y-122086592D01*
X262281568Y-121962211D01*
X262551814Y-121781639D01*
X262781639Y-121551814D01*
X262962211Y-121281568D01*
X263086592Y-120981287D01*
X263150000Y-120662511D01*
X263150000Y-120337489D01*
X263086592Y-120018713D01*
X262962211Y-119718432D01*
X262781639Y-119448186D01*
X262551814Y-119218361D01*
X262281568Y-119037789D01*
X261981287Y-118913408D01*
X261662511Y-118850000D01*
X261337489Y-118850000D01*
X261018713Y-118913408D01*
X260718432Y-119037789D01*
X260448186Y-119218361D01*
X260218361Y-119448186D01*
X260037789Y-119718432D01*
X259913408Y-120018713D01*
X259850000Y-120337489D01*
X242100000Y-120337489D01*
X242100000Y-118041422D01*
X246041422Y-114100000D01*
X250000000Y-114100000D01*
X250019509Y-114098079D01*
X250038268Y-114092388D01*
X250055557Y-114083147D01*
X250070711Y-114070711D01*
X253070711Y-111070711D01*
X253083147Y-111055557D01*
X253092388Y-111038268D01*
X253098079Y-111019509D01*
X253100000Y-111000000D01*
X253100000Y-106400000D01*
X253098079Y-106380491D01*
X253092388Y-106361732D01*
X253083147Y-106344443D01*
X253070711Y-106329289D01*
X252170711Y-105429289D01*
X252155557Y-105416853D01*
X252138268Y-105407612D01*
X252119509Y-105401921D01*
X252100000Y-105400000D01*
X247800000Y-105400000D01*
X247784134Y-105401267D01*
X247765177Y-105406259D01*
X247747558Y-105414854D01*
X247731955Y-105426721D01*
X247060731Y-106050000D01*
X240250000Y-106050000D01*
X240230491Y-106051921D01*
X240211732Y-106057612D01*
X240194443Y-106066853D01*
X240179289Y-106079289D01*
X239008578Y-107250000D01*
X237350000Y-107250000D01*
X237330491Y-107251921D01*
X237311732Y-107257612D01*
X237294443Y-107266853D01*
X237279289Y-107279289D01*
X235579289Y-108979289D01*
X235566853Y-108994443D01*
X235557612Y-109011732D01*
X235551921Y-109030491D01*
X235550000Y-109050000D01*
X235550000Y-109708578D01*
X234858578Y-110400000D01*
X232600000Y-110400000D01*
X232580491Y-110401921D01*
X232561732Y-110407612D01*
X232544443Y-110416853D01*
X232529289Y-110429289D01*
X232516853Y-110444443D01*
X232507612Y-110461732D01*
X232501921Y-110480491D01*
X232500000Y-110500000D01*
X232500000Y-110800000D01*
X232501921Y-110819509D01*
X232507612Y-110838268D01*
X232516853Y-110855557D01*
X232529289Y-110870711D01*
X232544443Y-110883147D01*
X232561732Y-110892388D01*
X232580491Y-110898079D01*
X232600000Y-110900000D01*
X235000000Y-110900000D01*
X235019509Y-110898079D01*
X235038268Y-110892388D01*
X235055557Y-110883147D01*
X235070711Y-110870711D01*
X235970711Y-109970711D01*
X235983147Y-109955557D01*
X235992388Y-109938268D01*
X235998079Y-109919509D01*
X236000000Y-109900000D01*
X236000000Y-109291422D01*
X237591422Y-107700000D01*
X239150000Y-107700000D01*
X239169509Y-107698079D01*
X239188268Y-107692388D01*
X239205557Y-107683147D01*
X239220711Y-107670711D01*
X240391422Y-106500000D01*
X251658578Y-106500000D01*
X251900000Y-106741422D01*
X251900000Y-109958578D01*
X248958578Y-112900000D01*
X246000000Y-112900000D01*
X245980491Y-112901921D01*
X245961732Y-112907612D01*
X245944443Y-112916853D01*
X245929289Y-112929289D01*
X240929289Y-117929289D01*
X240916853Y-117944443D01*
X240907612Y-117961732D01*
X240901921Y-117980491D01*
X240900000Y-118000000D01*
X240900000Y-127150000D01*
X234052932Y-127150000D01*
X234078960Y-127142104D01*
X234131077Y-127114247D01*
X234176758Y-127076758D01*
X234214247Y-127031077D01*
X234242104Y-126978960D01*
X234259259Y-126922410D01*
X234265051Y-126863600D01*
X234265051Y-125136400D01*
X234259259Y-125077590D01*
X234242104Y-125021040D01*
X234214247Y-124968923D01*
X234176758Y-124923242D01*
X234131077Y-124885753D01*
X234078960Y-124857896D01*
X234022410Y-124840741D01*
X233963600Y-124834949D01*
X232236400Y-124834949D01*
X232177590Y-124840741D01*
X232121040Y-124857896D01*
X232068923Y-124885753D01*
X232023242Y-124923242D01*
X231985753Y-124968923D01*
X231957896Y-125021040D01*
X231940741Y-125077590D01*
X231934949Y-125136400D01*
X231934949Y-126863600D01*
X231940741Y-126922410D01*
X231957896Y-126978960D01*
X231985753Y-127031077D01*
X232023242Y-127076758D01*
X232068923Y-127114247D01*
X232121040Y-127142104D01*
X232147068Y-127150000D01*
X230742976Y-127150000D01*
X230899410Y-127118883D01*
X231111171Y-127031169D01*
X231301752Y-126903827D01*
X231463827Y-126741752D01*
X231591169Y-126551171D01*
X231678883Y-126339410D01*
X231723600Y-126114605D01*
X231723600Y-125885395D01*
X231678883Y-125660590D01*
X231591169Y-125448829D01*
X231463827Y-125258248D01*
X231301752Y-125096173D01*
X231111171Y-124968831D01*
X230899410Y-124881117D01*
X230674605Y-124836400D01*
X230445395Y-124836400D01*
X230220590Y-124881117D01*
X230008829Y-124968831D01*
X229818248Y-125096173D01*
X229656173Y-125258248D01*
X229528831Y-125448829D01*
X229441117Y-125660590D01*
X229396400Y-125885395D01*
X229396400Y-126114605D01*
X229441117Y-126339410D01*
X229528831Y-126551171D01*
X229656173Y-126741752D01*
X229818248Y-126903827D01*
X230008829Y-127031169D01*
X230220590Y-127118883D01*
X230377024Y-127150000D01*
X228202976Y-127150000D01*
X228359410Y-127118883D01*
X228571171Y-127031169D01*
X228761752Y-126903827D01*
X228923827Y-126741752D01*
X229051169Y-126551171D01*
X229138883Y-126339410D01*
X229183600Y-126114605D01*
X229183600Y-125885395D01*
X229138883Y-125660590D01*
X229051169Y-125448829D01*
X228923827Y-125258248D01*
X228761752Y-125096173D01*
X228571171Y-124968831D01*
X228359410Y-124881117D01*
X228134605Y-124836400D01*
X227905395Y-124836400D01*
X227680590Y-124881117D01*
X227468829Y-124968831D01*
X227278248Y-125096173D01*
X227116173Y-125258248D01*
X226988831Y-125448829D01*
X226901117Y-125660590D01*
X226856400Y-125885395D01*
X226856400Y-126114605D01*
X226901117Y-126339410D01*
X226988831Y-126551171D01*
X227116173Y-126741752D01*
X227278248Y-126903827D01*
X227468829Y-127031169D01*
X227680590Y-127118883D01*
X227837024Y-127150000D01*
X225662976Y-127150000D01*
X225819410Y-127118883D01*
X226031171Y-127031169D01*
X226221752Y-126903827D01*
X226383827Y-126741752D01*
X226511169Y-126551171D01*
X226598883Y-126339410D01*
X226643600Y-126114605D01*
X226643600Y-125885395D01*
X226598883Y-125660590D01*
X226511169Y-125448829D01*
X226383827Y-125258248D01*
X226221752Y-125096173D01*
X226031171Y-124968831D01*
X225819410Y-124881117D01*
X225594605Y-124836400D01*
X225365395Y-124836400D01*
X225140590Y-124881117D01*
X224928829Y-124968831D01*
X224738248Y-125096173D01*
X224576173Y-125258248D01*
X224448831Y-125448829D01*
X224361117Y-125660590D01*
X224316400Y-125885395D01*
X224316400Y-126114605D01*
X224361117Y-126339410D01*
X224448831Y-126551171D01*
X224576173Y-126741752D01*
X224738248Y-126903827D01*
X224928829Y-127031169D01*
X225140590Y-127118883D01*
X225297024Y-127150000D01*
X219342998Y-127150000D01*
X219344936Y-127143612D01*
X219351694Y-127075000D01*
X219350000Y-126550000D01*
X219262500Y-126462500D01*
X217150000Y-126462500D01*
X217150000Y-126482500D01*
X216850000Y-126482500D01*
X216850000Y-126462500D01*
X214737500Y-126462500D01*
X214650000Y-126550000D01*
X214648306Y-127075000D01*
X214655064Y-127143612D01*
X214657002Y-127150000D01*
X214100000Y-127150000D01*
X214100000Y-125550000D01*
X214648306Y-125550000D01*
X214650000Y-126075000D01*
X214737500Y-126162500D01*
X216850000Y-126162500D01*
X216850000Y-125287500D01*
X217150000Y-125287500D01*
X217150000Y-126162500D01*
X219262500Y-126162500D01*
X219350000Y-126075000D01*
X219351694Y-125550000D01*
X219344936Y-125481388D01*
X219324923Y-125415413D01*
X219292423Y-125354609D01*
X219248685Y-125301315D01*
X219195391Y-125257577D01*
X219134587Y-125225077D01*
X219068612Y-125205064D01*
X219000000Y-125198306D01*
X217237500Y-125200000D01*
X217150000Y-125287500D01*
X216850000Y-125287500D01*
X216762500Y-125200000D01*
X215000000Y-125198306D01*
X214931388Y-125205064D01*
X214865413Y-125225077D01*
X214804609Y-125257577D01*
X214751315Y-125301315D01*
X214707577Y-125354609D01*
X214675077Y-125415413D01*
X214655064Y-125481388D01*
X214648306Y-125550000D01*
X214100000Y-125550000D01*
X214100000Y-120497117D01*
X216715015Y-120497117D01*
X216828893Y-120678895D01*
X217071779Y-120787169D01*
X217331121Y-120845978D01*
X217596954Y-120853062D01*
X217859060Y-120808149D01*
X218107368Y-120712964D01*
X218171107Y-120678895D01*
X218284985Y-120497117D01*
X217500000Y-119712132D01*
X216715015Y-120497117D01*
X214100000Y-120497117D01*
X214100000Y-119596954D01*
X216146938Y-119596954D01*
X216191851Y-119859060D01*
X216287036Y-120107368D01*
X216321105Y-120171107D01*
X216502883Y-120284985D01*
X217287868Y-119500000D01*
X217712132Y-119500000D01*
X218497117Y-120284985D01*
X218678895Y-120171107D01*
X218787169Y-119928221D01*
X218845978Y-119668879D01*
X218853062Y-119403046D01*
X218808149Y-119140940D01*
X218712964Y-118892632D01*
X218678895Y-118828893D01*
X218497117Y-118715015D01*
X217712132Y-119500000D01*
X217287868Y-119500000D01*
X216502883Y-118715015D01*
X216321105Y-118828893D01*
X216212831Y-119071779D01*
X216154022Y-119331121D01*
X216146938Y-119596954D01*
X214100000Y-119596954D01*
X214100000Y-118502883D01*
X216715015Y-118502883D01*
X217500000Y-119287868D01*
X218284985Y-118502883D01*
X218171107Y-118321105D01*
X217928221Y-118212831D01*
X217668879Y-118154022D01*
X217403046Y-118146938D01*
X217140940Y-118191851D01*
X216892632Y-118287036D01*
X216828893Y-118321105D01*
X216715015Y-118502883D01*
X214100000Y-118502883D01*
X214100000Y-117742767D01*
X226466636Y-117742767D01*
X226466636Y-117890505D01*
X226495458Y-118035403D01*
X226551995Y-118171894D01*
X226634073Y-118294733D01*
X226738539Y-118399199D01*
X226861378Y-118481277D01*
X226997869Y-118537814D01*
X227142767Y-118566636D01*
X227217823Y-118566636D01*
X227253632Y-118567627D01*
X227280984Y-118570530D01*
X227306458Y-118575345D01*
X227330550Y-118582012D01*
X227353800Y-118590608D01*
X227376654Y-118601312D01*
X227399548Y-118614439D01*
X227422806Y-118630377D01*
X227446564Y-118649495D01*
X227474620Y-118675660D01*
X227884721Y-119085762D01*
X227898026Y-119101974D01*
X227962740Y-119155084D01*
X228010855Y-119180801D01*
X228036572Y-119194548D01*
X228094553Y-119212136D01*
X228116686Y-119218850D01*
X228148921Y-119222025D01*
X228162383Y-119231794D01*
X228182380Y-119247893D01*
X228206410Y-119268929D01*
X228233908Y-119294725D01*
X228261205Y-119321865D01*
X228321903Y-119382563D01*
X228444742Y-119464641D01*
X228581233Y-119521178D01*
X228726131Y-119550000D01*
X228873869Y-119550000D01*
X229018767Y-119521178D01*
X229155258Y-119464641D01*
X229278097Y-119382563D01*
X229382563Y-119278097D01*
X229464641Y-119155258D01*
X229521178Y-119018767D01*
X229550000Y-118873869D01*
X229550000Y-118726131D01*
X229521178Y-118581233D01*
X229464641Y-118444742D01*
X229382563Y-118321903D01*
X229278097Y-118217437D01*
X229155258Y-118135359D01*
X229018767Y-118078822D01*
X228873869Y-118050000D01*
X228726131Y-118050000D01*
X228581233Y-118078822D01*
X228444742Y-118135359D01*
X228321903Y-118217437D01*
X228270190Y-118269150D01*
X228075660Y-118074620D01*
X228049495Y-118046564D01*
X228030377Y-118022806D01*
X228014439Y-117999548D01*
X228001312Y-117976654D01*
X227990608Y-117953800D01*
X227982012Y-117930550D01*
X227975345Y-117906458D01*
X227970530Y-117880984D01*
X227967627Y-117853632D01*
X227966636Y-117817823D01*
X227966636Y-117742767D01*
X227937814Y-117597869D01*
X227881277Y-117461378D01*
X227799199Y-117338539D01*
X227694733Y-117234073D01*
X227571894Y-117151995D01*
X227435403Y-117095458D01*
X227290505Y-117066636D01*
X227142767Y-117066636D01*
X226997869Y-117095458D01*
X226861378Y-117151995D01*
X226738539Y-117234073D01*
X226634073Y-117338539D01*
X226551995Y-117461378D01*
X226495458Y-117597869D01*
X226466636Y-117742767D01*
X214100000Y-117742767D01*
X214100000Y-110147138D01*
X216035925Y-108550000D01*
X223808578Y-108550000D01*
X225629289Y-110370711D01*
X225644443Y-110383147D01*
X225661732Y-110392388D01*
X225680491Y-110398079D01*
X225700000Y-110400000D01*
X228200000Y-110400000D01*
X228219509Y-110398079D01*
X228238268Y-110392388D01*
X228255557Y-110383147D01*
X228270711Y-110370711D01*
X228283147Y-110355557D01*
X228292388Y-110338268D01*
X228298079Y-110319509D01*
X228300000Y-110300000D01*
X228300000Y-110100000D01*
X228298079Y-110080491D01*
X228292388Y-110061732D01*
X228283147Y-110044443D01*
X228270711Y-110029289D01*
X228255557Y-110016853D01*
X228238268Y-110007612D01*
X228219509Y-110001921D01*
X228200000Y-110000000D01*
X225941422Y-110000000D01*
X224070711Y-108129289D01*
X224055557Y-108116853D01*
X224038268Y-108107612D01*
X224019509Y-108101921D01*
X224000000Y-108100000D01*
X215000000Y-108100000D01*
X214985813Y-108101011D01*
X214966774Y-108105681D01*
X214949012Y-108113976D01*
X214933209Y-108125576D01*
X212983209Y-109875576D01*
X212966853Y-109894443D01*
X212957612Y-109911732D01*
X212951921Y-109930491D01*
X212950000Y-109950000D01*
X212950000Y-127150000D01*
X200365565Y-127150000D01*
X200350009Y-127001991D01*
X200350000Y-126999354D01*
X200350000Y-120337489D01*
X201850000Y-120337489D01*
X201850000Y-120662511D01*
X201913408Y-120981287D01*
X202037789Y-121281568D01*
X202218361Y-121551814D01*
X202448186Y-121781639D01*
X202718432Y-121962211D01*
X203018713Y-122086592D01*
X203337489Y-122150000D01*
X203662511Y-122150000D01*
X203981287Y-122086592D01*
X204281568Y-121962211D01*
X204551814Y-121781639D01*
X204781639Y-121551814D01*
X204962211Y-121281568D01*
X205086592Y-120981287D01*
X205150000Y-120662511D01*
X205150000Y-120337489D01*
X205086592Y-120018713D01*
X204962211Y-119718432D01*
X204781639Y-119448186D01*
X204551814Y-119218361D01*
X204281568Y-119037789D01*
X203981287Y-118913408D01*
X203662511Y-118850000D01*
X203337489Y-118850000D01*
X203018713Y-118913408D01*
X202718432Y-119037789D01*
X202448186Y-119218361D01*
X202218361Y-119448186D01*
X202037789Y-119718432D01*
X201913408Y-120018713D01*
X201850000Y-120337489D01*
X200350000Y-120337489D01*
X200350000Y-97337489D01*
X201850000Y-97337489D01*
X201850000Y-97662511D01*
X201913408Y-97981287D01*
X202037789Y-98281568D01*
X202218361Y-98551814D01*
X202448186Y-98781639D01*
X202718432Y-98962211D01*
X203018713Y-99086592D01*
X203337489Y-99150000D01*
X203662511Y-99150000D01*
X203981287Y-99086592D01*
X204281568Y-98962211D01*
X204551814Y-98781639D01*
X204781639Y-98551814D01*
X204962211Y-98281568D01*
X205086592Y-97981287D01*
X205150000Y-97662511D01*
X205150000Y-97397919D01*
X205196130Y-97397919D01*
X205200001Y-97437219D01*
X205200000Y-101960709D01*
X205196130Y-102000000D01*
X205200000Y-102039291D01*
X205200000Y-102039292D01*
X205211576Y-102156826D01*
X205250896Y-102286446D01*
X205257321Y-102307627D01*
X205331607Y-102446606D01*
X205346079Y-102464240D01*
X205431578Y-102568422D01*
X205462103Y-102593473D01*
X208656532Y-105787903D01*
X208681579Y-105818423D01*
X208712099Y-105843470D01*
X208803394Y-105918394D01*
X208851804Y-105944270D01*
X208942373Y-105992680D01*
X209093174Y-106038425D01*
X209210708Y-106050001D01*
X209210717Y-106050001D01*
X209250000Y-106053870D01*
X209289283Y-106050001D01*
X217120708Y-106050001D01*
X217159999Y-106053871D01*
X217199290Y-106050001D01*
X217199292Y-106050001D01*
X217316826Y-106038425D01*
X217467627Y-105992680D01*
X217606605Y-105918394D01*
X217728421Y-105818423D01*
X217753472Y-105787898D01*
X217991370Y-105550000D01*
X241210709Y-105550000D01*
X241250000Y-105553870D01*
X241289291Y-105550000D01*
X241289293Y-105550000D01*
X241406827Y-105538424D01*
X241557628Y-105492679D01*
X241696606Y-105418393D01*
X241818422Y-105318422D01*
X241843473Y-105287897D01*
X243131358Y-104000013D01*
X248760696Y-104000013D01*
X248799987Y-104003883D01*
X248839278Y-104000013D01*
X248839280Y-104000013D01*
X248956814Y-103988437D01*
X249107615Y-103942692D01*
X249246593Y-103868406D01*
X249368409Y-103768435D01*
X249393460Y-103737910D01*
X249593469Y-103537901D01*
X249668393Y-103446606D01*
X249742679Y-103307627D01*
X249788423Y-103156828D01*
X249803870Y-103000001D01*
X249788423Y-102843173D01*
X249742679Y-102692373D01*
X249668393Y-102553394D01*
X249568421Y-102431579D01*
X249446606Y-102331607D01*
X249307627Y-102257321D01*
X249156827Y-102211577D01*
X248999999Y-102196130D01*
X248843172Y-102211577D01*
X248692373Y-102257321D01*
X248553394Y-102331607D01*
X248470041Y-102400013D01*
X242839278Y-102400013D01*
X242799987Y-102396143D01*
X242760696Y-102400013D01*
X242760694Y-102400013D01*
X242643160Y-102411589D01*
X242515534Y-102450304D01*
X242492359Y-102457334D01*
X242353380Y-102531620D01*
X242275854Y-102595244D01*
X242231565Y-102631591D01*
X242206518Y-102662111D01*
X240918630Y-103950000D01*
X217699282Y-103950000D01*
X217659999Y-103946131D01*
X217620716Y-103950000D01*
X217620707Y-103950000D01*
X217503173Y-103961576D01*
X217363706Y-104003883D01*
X217352372Y-104007321D01*
X217213393Y-104081607D01*
X217182004Y-104107368D01*
X217091578Y-104181578D01*
X217066527Y-104212103D01*
X216828629Y-104450001D01*
X215967740Y-104450001D01*
X216064938Y-104352803D01*
X215997119Y-104284984D01*
X216178895Y-104171107D01*
X216287169Y-103928221D01*
X216345978Y-103668879D01*
X216353062Y-103403046D01*
X216308149Y-103140940D01*
X216212964Y-102892632D01*
X216178895Y-102828893D01*
X215997117Y-102715015D01*
X215212132Y-103500000D01*
X215226275Y-103514143D01*
X215014143Y-103726275D01*
X215000000Y-103712132D01*
X214985858Y-103726275D01*
X214773726Y-103514143D01*
X214787868Y-103500000D01*
X214002883Y-102715015D01*
X213821105Y-102828893D01*
X213712831Y-103071779D01*
X213654022Y-103331121D01*
X213646938Y-103596954D01*
X213691851Y-103859060D01*
X213787036Y-104107368D01*
X213821105Y-104171107D01*
X214002881Y-104284984D01*
X213935062Y-104352803D01*
X214032260Y-104450001D01*
X209581372Y-104450001D01*
X207634254Y-102502883D01*
X214215015Y-102502883D01*
X215000000Y-103287868D01*
X215784985Y-102502883D01*
X215671107Y-102321105D01*
X215428221Y-102212831D01*
X215168879Y-102154022D01*
X214903046Y-102146938D01*
X214640940Y-102191851D01*
X214392632Y-102287036D01*
X214328893Y-102321105D01*
X214215015Y-102502883D01*
X207634254Y-102502883D01*
X206800000Y-101668630D01*
X206800000Y-97920000D01*
X207218549Y-97920000D01*
X207218549Y-99620000D01*
X207224341Y-99678810D01*
X207241496Y-99735360D01*
X207269353Y-99787477D01*
X207306842Y-99833158D01*
X207352523Y-99870647D01*
X207404640Y-99898504D01*
X207461190Y-99915659D01*
X207520000Y-99921451D01*
X209220000Y-99921451D01*
X209278810Y-99915659D01*
X209335360Y-99898504D01*
X209387477Y-99870647D01*
X209433158Y-99833158D01*
X209470647Y-99787477D01*
X209498504Y-99735360D01*
X209515659Y-99678810D01*
X209521451Y-99620000D01*
X209521451Y-98656735D01*
X209760000Y-98656735D01*
X209760000Y-98883265D01*
X209804194Y-99105443D01*
X209890884Y-99314729D01*
X210016737Y-99503082D01*
X210176918Y-99663263D01*
X210365271Y-99789116D01*
X210574557Y-99875806D01*
X210796735Y-99920000D01*
X211023265Y-99920000D01*
X211245443Y-99875806D01*
X211454729Y-99789116D01*
X211643082Y-99663263D01*
X211803263Y-99503082D01*
X211929116Y-99314729D01*
X212015806Y-99105443D01*
X212060000Y-98883265D01*
X212060000Y-98656735D01*
X212300000Y-98656735D01*
X212300000Y-98883265D01*
X212344194Y-99105443D01*
X212430884Y-99314729D01*
X212556737Y-99503082D01*
X212716918Y-99663263D01*
X212905271Y-99789116D01*
X213114557Y-99875806D01*
X213336735Y-99920000D01*
X213563265Y-99920000D01*
X213785443Y-99875806D01*
X213994729Y-99789116D01*
X214183082Y-99663263D01*
X214343263Y-99503082D01*
X214469116Y-99314729D01*
X214555806Y-99105443D01*
X214600000Y-98883265D01*
X214600000Y-98656735D01*
X214840000Y-98656735D01*
X214840000Y-98883265D01*
X214884194Y-99105443D01*
X214970884Y-99314729D01*
X215096737Y-99503082D01*
X215256918Y-99663263D01*
X215445271Y-99789116D01*
X215654557Y-99875806D01*
X215876735Y-99920000D01*
X216103265Y-99920000D01*
X216325443Y-99875806D01*
X216534729Y-99789116D01*
X216723082Y-99663263D01*
X216883263Y-99503082D01*
X217009116Y-99314729D01*
X217095806Y-99105443D01*
X217096012Y-99104403D01*
X217377528Y-99104403D01*
X217464911Y-99322814D01*
X217593225Y-99519980D01*
X217757539Y-99688325D01*
X217951538Y-99821379D01*
X218167767Y-99914029D01*
X218195598Y-99922465D01*
X218380000Y-99872341D01*
X218380000Y-98920000D01*
X218680000Y-98920000D01*
X218680000Y-99872341D01*
X218864402Y-99922465D01*
X218892233Y-99914029D01*
X219108462Y-99821379D01*
X219302461Y-99688325D01*
X219466775Y-99519980D01*
X219595089Y-99322814D01*
X219682472Y-99104403D01*
X219633095Y-98920000D01*
X218680000Y-98920000D01*
X218380000Y-98920000D01*
X217426905Y-98920000D01*
X217377528Y-99104403D01*
X217096012Y-99104403D01*
X217140000Y-98883265D01*
X217140000Y-98656735D01*
X219920000Y-98656735D01*
X219920000Y-98883265D01*
X219964194Y-99105443D01*
X220050884Y-99314729D01*
X220176737Y-99503082D01*
X220336918Y-99663263D01*
X220525271Y-99789116D01*
X220734557Y-99875806D01*
X220956735Y-99920000D01*
X221183265Y-99920000D01*
X221405443Y-99875806D01*
X221606417Y-99792559D01*
X221257998Y-100140978D01*
X221229951Y-100167134D01*
X221206186Y-100186258D01*
X221182928Y-100202196D01*
X221160034Y-100215323D01*
X221137180Y-100226027D01*
X221113930Y-100234623D01*
X221089838Y-100241290D01*
X221064364Y-100246105D01*
X221037011Y-100249008D01*
X221001195Y-100250000D01*
X220926147Y-100250000D01*
X220781249Y-100278822D01*
X220644758Y-100335359D01*
X220521919Y-100417437D01*
X220417453Y-100521903D01*
X220335375Y-100644742D01*
X220278838Y-100781233D01*
X220250016Y-100926131D01*
X220250016Y-101073869D01*
X220278838Y-101218767D01*
X220335375Y-101355258D01*
X220417453Y-101478097D01*
X220521919Y-101582563D01*
X220644758Y-101664641D01*
X220781249Y-101721178D01*
X220926147Y-101750000D01*
X221073885Y-101750000D01*
X221218783Y-101721178D01*
X221355274Y-101664641D01*
X221478113Y-101582563D01*
X221582579Y-101478097D01*
X221664657Y-101355258D01*
X221721194Y-101218767D01*
X221750016Y-101073869D01*
X221750016Y-100998812D01*
X221751007Y-100963003D01*
X221753910Y-100935651D01*
X221758725Y-100910177D01*
X221765392Y-100886085D01*
X221773988Y-100862835D01*
X221784692Y-100839981D01*
X221797819Y-100817087D01*
X221813757Y-100793829D01*
X221832875Y-100770071D01*
X221859044Y-100742012D01*
X222176056Y-100425000D01*
X228573960Y-100425000D01*
X228640972Y-100492012D01*
X228667140Y-100520071D01*
X228686258Y-100543829D01*
X228702196Y-100567087D01*
X228715323Y-100589981D01*
X228726027Y-100612835D01*
X228734623Y-100636085D01*
X228741290Y-100660177D01*
X228746105Y-100685651D01*
X228749008Y-100713004D01*
X228750000Y-100748821D01*
X228750000Y-100823869D01*
X228778822Y-100968767D01*
X228835359Y-101105258D01*
X228917437Y-101228097D01*
X229021903Y-101332563D01*
X229144742Y-101414641D01*
X229281233Y-101471178D01*
X229426131Y-101500000D01*
X229573869Y-101500000D01*
X229718767Y-101471178D01*
X229855258Y-101414641D01*
X229978097Y-101332563D01*
X230082563Y-101228097D01*
X230164641Y-101105258D01*
X230221045Y-100969089D01*
X231576955Y-102325000D01*
X229426041Y-102325000D01*
X228315273Y-101214233D01*
X228301964Y-101198016D01*
X228237250Y-101144906D01*
X228163417Y-101105442D01*
X228083304Y-101081140D01*
X228020864Y-101074990D01*
X228020857Y-101074990D01*
X227999990Y-101072935D01*
X227979123Y-101074990D01*
X227397009Y-101074990D01*
X227211272Y-100889254D01*
X227197963Y-100873037D01*
X227133249Y-100819927D01*
X227059416Y-100780463D01*
X226979303Y-100756161D01*
X226916863Y-100750011D01*
X226916856Y-100750011D01*
X226895989Y-100747956D01*
X226875122Y-100750011D01*
X226095856Y-100750011D01*
X226074989Y-100747956D01*
X226054122Y-100750011D01*
X226054115Y-100750011D01*
X225991675Y-100756161D01*
X225911562Y-100780463D01*
X225837729Y-100819927D01*
X225773015Y-100873037D01*
X225759705Y-100889255D01*
X225073960Y-101575000D01*
X224253275Y-101575000D01*
X224253052Y-101573429D01*
X224250682Y-101542426D01*
X224250000Y-101503211D01*
X224250000Y-101426151D01*
X224221178Y-101281253D01*
X224164641Y-101144762D01*
X224082563Y-101021923D01*
X223978097Y-100917457D01*
X223855258Y-100835379D01*
X223718767Y-100778842D01*
X223573869Y-100750020D01*
X223426131Y-100750020D01*
X223281233Y-100778842D01*
X223144742Y-100835379D01*
X223021903Y-100917457D01*
X222917437Y-101021923D01*
X222835359Y-101144762D01*
X222778822Y-101281253D01*
X222750000Y-101426151D01*
X222750000Y-101573889D01*
X222778822Y-101718787D01*
X222835359Y-101855278D01*
X222917437Y-101978117D01*
X223021903Y-102082583D01*
X223144742Y-102164661D01*
X223281233Y-102221198D01*
X223426131Y-102250020D01*
X223503191Y-102250020D01*
X223542406Y-102250702D01*
X223573409Y-102253072D01*
X223600346Y-102256888D01*
X223623268Y-102261801D01*
X223642456Y-102267472D01*
X223658254Y-102273588D01*
X223671159Y-102279925D01*
X223681847Y-102286446D01*
X223690690Y-102293059D01*
X223698006Y-102301974D01*
X223714218Y-102315279D01*
X223714219Y-102315280D01*
X223735689Y-102332900D01*
X223762720Y-102355084D01*
X223836553Y-102394548D01*
X223876056Y-102406531D01*
X223916665Y-102418850D01*
X223925078Y-102419679D01*
X223979106Y-102425000D01*
X223979112Y-102425000D01*
X223999979Y-102427055D01*
X224020846Y-102425000D01*
X225229133Y-102425000D01*
X225250000Y-102427055D01*
X225270867Y-102425000D01*
X225270874Y-102425000D01*
X225333314Y-102418850D01*
X225413427Y-102394548D01*
X225487260Y-102355084D01*
X225551974Y-102301974D01*
X225565284Y-102285756D01*
X225754496Y-102096544D01*
X225778810Y-102218779D01*
X225835347Y-102355270D01*
X225917425Y-102478109D01*
X226021891Y-102582575D01*
X226144730Y-102664653D01*
X226281221Y-102721190D01*
X226426119Y-102750012D01*
X226573857Y-102750012D01*
X226718755Y-102721190D01*
X226855246Y-102664653D01*
X226978085Y-102582575D01*
X227031158Y-102529502D01*
X227057175Y-102504886D01*
X227078569Y-102487597D01*
X227099994Y-102472985D01*
X227121751Y-102460659D01*
X227144253Y-102450304D01*
X227168006Y-102441704D01*
X227193476Y-102434797D01*
X227221189Y-102429620D01*
X227251524Y-102426337D01*
X227289835Y-102425000D01*
X227573960Y-102425000D01*
X228684721Y-103535762D01*
X228698026Y-103551974D01*
X228762740Y-103605084D01*
X228836573Y-103644548D01*
X228892383Y-103661478D01*
X228916685Y-103668850D01*
X228924327Y-103669603D01*
X228979126Y-103675000D01*
X228979133Y-103675000D01*
X229000000Y-103677055D01*
X229020867Y-103675000D01*
X237129133Y-103675000D01*
X237150000Y-103677055D01*
X237170867Y-103675000D01*
X237170874Y-103675000D01*
X237233314Y-103668850D01*
X237313427Y-103644548D01*
X237387260Y-103605084D01*
X237451974Y-103551974D01*
X237465283Y-103535757D01*
X238301040Y-102700001D01*
X240009768Y-102700001D01*
X240030635Y-102702056D01*
X240051502Y-102700001D01*
X240051509Y-102700001D01*
X240113949Y-102693851D01*
X240194062Y-102669549D01*
X240267895Y-102630085D01*
X240332609Y-102576975D01*
X240345919Y-102560757D01*
X240614077Y-102292599D01*
X240623593Y-102289859D01*
X240641337Y-102286115D01*
X240665275Y-102282592D01*
X240694976Y-102279816D01*
X240730159Y-102278144D01*
X240771610Y-102277818D01*
X240851687Y-102277818D01*
X240996585Y-102248996D01*
X241133076Y-102192459D01*
X241255915Y-102110381D01*
X241360381Y-102005915D01*
X241442459Y-101883076D01*
X241498996Y-101746585D01*
X241527818Y-101601687D01*
X241527818Y-101453949D01*
X241498996Y-101309051D01*
X241442459Y-101172560D01*
X241427384Y-101149999D01*
X242298959Y-101149999D01*
X242485220Y-101336261D01*
X242487954Y-101345756D01*
X242491702Y-101363523D01*
X242495225Y-101387457D01*
X242498001Y-101417158D01*
X242499673Y-101452343D01*
X242500000Y-101493809D01*
X242500000Y-101573869D01*
X242528822Y-101718767D01*
X242585359Y-101855258D01*
X242667437Y-101978097D01*
X242771903Y-102082563D01*
X242894742Y-102164641D01*
X243031233Y-102221178D01*
X243176131Y-102250000D01*
X243323869Y-102250000D01*
X243468767Y-102221178D01*
X243605258Y-102164641D01*
X243728097Y-102082563D01*
X243832563Y-101978097D01*
X243914641Y-101855258D01*
X243971178Y-101718767D01*
X244000000Y-101573869D01*
X244000000Y-101426131D01*
X243971178Y-101281233D01*
X243914641Y-101144742D01*
X243832563Y-101021903D01*
X243728097Y-100917437D01*
X243605258Y-100835359D01*
X243468767Y-100778822D01*
X243323869Y-100750000D01*
X243243809Y-100750000D01*
X243202343Y-100749673D01*
X243167158Y-100748001D01*
X243137457Y-100745225D01*
X243113523Y-100741702D01*
X243095756Y-100737954D01*
X243086261Y-100735220D01*
X242790282Y-100439242D01*
X242776973Y-100423025D01*
X242712259Y-100369915D01*
X242638426Y-100330451D01*
X242558313Y-100306149D01*
X242495873Y-100299999D01*
X242495866Y-100299999D01*
X242474999Y-100297944D01*
X242454132Y-100299999D01*
X240866819Y-100299999D01*
X240921178Y-100168766D01*
X240950000Y-100023868D01*
X240950000Y-99876130D01*
X240940541Y-99828579D01*
X241054557Y-99875806D01*
X241276735Y-99920000D01*
X241503265Y-99920000D01*
X241725443Y-99875806D01*
X241934729Y-99789116D01*
X242123082Y-99663263D01*
X242283263Y-99503082D01*
X242409116Y-99314729D01*
X242495806Y-99105443D01*
X242540000Y-98883265D01*
X242540000Y-98656735D01*
X242780000Y-98656735D01*
X242780000Y-98883265D01*
X242824194Y-99105443D01*
X242910884Y-99314729D01*
X243036737Y-99503082D01*
X243196918Y-99663263D01*
X243385271Y-99789116D01*
X243594557Y-99875806D01*
X243816735Y-99920000D01*
X244043265Y-99920000D01*
X244265443Y-99875806D01*
X244474729Y-99789116D01*
X244663082Y-99663263D01*
X244823263Y-99503082D01*
X244949116Y-99314729D01*
X245035806Y-99105443D01*
X245080000Y-98883265D01*
X245080000Y-98656735D01*
X245320000Y-98656735D01*
X245320000Y-98883265D01*
X245364194Y-99105443D01*
X245450884Y-99314729D01*
X245576737Y-99503082D01*
X245736918Y-99663263D01*
X245925271Y-99789116D01*
X246134557Y-99875806D01*
X246356735Y-99920000D01*
X246583265Y-99920000D01*
X246805443Y-99875806D01*
X247014729Y-99789116D01*
X247203082Y-99663263D01*
X247363263Y-99503082D01*
X247489116Y-99314729D01*
X247575806Y-99105443D01*
X247620000Y-98883265D01*
X247620000Y-98656735D01*
X247860000Y-98656735D01*
X247860000Y-98883265D01*
X247904194Y-99105443D01*
X247990884Y-99314729D01*
X248116737Y-99503082D01*
X248276918Y-99663263D01*
X248465271Y-99789116D01*
X248674557Y-99875806D01*
X248896735Y-99920000D01*
X249123265Y-99920000D01*
X249345443Y-99875806D01*
X249554729Y-99789116D01*
X249743082Y-99663263D01*
X249903263Y-99503082D01*
X250029116Y-99314729D01*
X250115806Y-99105443D01*
X250160000Y-98883265D01*
X250160000Y-98656735D01*
X250400000Y-98656735D01*
X250400000Y-98883265D01*
X250444194Y-99105443D01*
X250530884Y-99314729D01*
X250656737Y-99503082D01*
X250816918Y-99663263D01*
X251005271Y-99789116D01*
X251214557Y-99875806D01*
X251436735Y-99920000D01*
X251663265Y-99920000D01*
X251885443Y-99875806D01*
X252094729Y-99789116D01*
X252283082Y-99663263D01*
X252443263Y-99503082D01*
X252569116Y-99314729D01*
X252655806Y-99105443D01*
X252700000Y-98883265D01*
X252700000Y-98656735D01*
X252940000Y-98656735D01*
X252940000Y-98883265D01*
X252984194Y-99105443D01*
X253070884Y-99314729D01*
X253196737Y-99503082D01*
X253356918Y-99663263D01*
X253545271Y-99789116D01*
X253754557Y-99875806D01*
X253976735Y-99920000D01*
X254203265Y-99920000D01*
X254425443Y-99875806D01*
X254634729Y-99789116D01*
X254823082Y-99663263D01*
X254983263Y-99503082D01*
X255109116Y-99314729D01*
X255195806Y-99105443D01*
X255196012Y-99104403D01*
X255477528Y-99104403D01*
X255564911Y-99322814D01*
X255693225Y-99519980D01*
X255857539Y-99688325D01*
X256051538Y-99821379D01*
X256267767Y-99914029D01*
X256295598Y-99922465D01*
X256480000Y-99872341D01*
X256480000Y-98920000D01*
X256780000Y-98920000D01*
X256780000Y-99872341D01*
X256964402Y-99922465D01*
X256992233Y-99914029D01*
X257208462Y-99821379D01*
X257402461Y-99688325D01*
X257566775Y-99519980D01*
X257695089Y-99322814D01*
X257782472Y-99104403D01*
X257733095Y-98920000D01*
X256780000Y-98920000D01*
X256480000Y-98920000D01*
X255526905Y-98920000D01*
X255477528Y-99104403D01*
X255196012Y-99104403D01*
X255240000Y-98883265D01*
X255240000Y-98656735D01*
X255196013Y-98435597D01*
X255477528Y-98435597D01*
X255526905Y-98620000D01*
X256480000Y-98620000D01*
X256480000Y-97667659D01*
X256780000Y-97667659D01*
X256780000Y-98620000D01*
X257733095Y-98620000D01*
X257782472Y-98435597D01*
X257695089Y-98217186D01*
X257566775Y-98020020D01*
X257402461Y-97851675D01*
X257208462Y-97718621D01*
X256992233Y-97625971D01*
X256964402Y-97617535D01*
X256780000Y-97667659D01*
X256480000Y-97667659D01*
X256295598Y-97617535D01*
X256267767Y-97625971D01*
X256051538Y-97718621D01*
X255857539Y-97851675D01*
X255693225Y-98020020D01*
X255564911Y-98217186D01*
X255477528Y-98435597D01*
X255196013Y-98435597D01*
X255195806Y-98434557D01*
X255109116Y-98225271D01*
X254983263Y-98036918D01*
X254823082Y-97876737D01*
X254634729Y-97750884D01*
X254425443Y-97664194D01*
X254203265Y-97620000D01*
X253976735Y-97620000D01*
X253754557Y-97664194D01*
X253545271Y-97750884D01*
X253356918Y-97876737D01*
X253196737Y-98036918D01*
X253070884Y-98225271D01*
X252984194Y-98434557D01*
X252940000Y-98656735D01*
X252700000Y-98656735D01*
X252655806Y-98434557D01*
X252569116Y-98225271D01*
X252443263Y-98036918D01*
X252283082Y-97876737D01*
X252094729Y-97750884D01*
X251885443Y-97664194D01*
X251663265Y-97620000D01*
X251436735Y-97620000D01*
X251214557Y-97664194D01*
X251005271Y-97750884D01*
X250816918Y-97876737D01*
X250656737Y-98036918D01*
X250530884Y-98225271D01*
X250444194Y-98434557D01*
X250400000Y-98656735D01*
X250160000Y-98656735D01*
X250115806Y-98434557D01*
X250029116Y-98225271D01*
X249903263Y-98036918D01*
X249743082Y-97876737D01*
X249554729Y-97750884D01*
X249345443Y-97664194D01*
X249123265Y-97620000D01*
X248896735Y-97620000D01*
X248674557Y-97664194D01*
X248465271Y-97750884D01*
X248276918Y-97876737D01*
X248116737Y-98036918D01*
X247990884Y-98225271D01*
X247904194Y-98434557D01*
X247860000Y-98656735D01*
X247620000Y-98656735D01*
X247575806Y-98434557D01*
X247489116Y-98225271D01*
X247363263Y-98036918D01*
X247203082Y-97876737D01*
X247014729Y-97750884D01*
X246805443Y-97664194D01*
X246583265Y-97620000D01*
X246356735Y-97620000D01*
X246134557Y-97664194D01*
X245925271Y-97750884D01*
X245736918Y-97876737D01*
X245576737Y-98036918D01*
X245450884Y-98225271D01*
X245364194Y-98434557D01*
X245320000Y-98656735D01*
X245080000Y-98656735D01*
X245035806Y-98434557D01*
X244949116Y-98225271D01*
X244823263Y-98036918D01*
X244663082Y-97876737D01*
X244474729Y-97750884D01*
X244265443Y-97664194D01*
X244043265Y-97620000D01*
X243816735Y-97620000D01*
X243594557Y-97664194D01*
X243385271Y-97750884D01*
X243196918Y-97876737D01*
X243036737Y-98036918D01*
X242910884Y-98225271D01*
X242824194Y-98434557D01*
X242780000Y-98656735D01*
X242540000Y-98656735D01*
X242495806Y-98434557D01*
X242409116Y-98225271D01*
X242283263Y-98036918D01*
X242123082Y-97876737D01*
X241934729Y-97750884D01*
X241725443Y-97664194D01*
X241503265Y-97620000D01*
X241276735Y-97620000D01*
X241054557Y-97664194D01*
X240845271Y-97750884D01*
X240656918Y-97876737D01*
X240496737Y-98036918D01*
X240370884Y-98225271D01*
X240284194Y-98434557D01*
X240240000Y-98656735D01*
X240240000Y-98883265D01*
X240284194Y-99105443D01*
X240327805Y-99210727D01*
X240273869Y-99199999D01*
X240126131Y-99199999D01*
X239981233Y-99228821D01*
X239947025Y-99242990D01*
X240002472Y-99104403D01*
X239953095Y-98920000D01*
X239000000Y-98920000D01*
X239000000Y-98940000D01*
X238700000Y-98940000D01*
X238700000Y-98920000D01*
X237746905Y-98920000D01*
X237697528Y-99104403D01*
X237784911Y-99322814D01*
X237913225Y-99519980D01*
X238077539Y-99688325D01*
X238271538Y-99821379D01*
X238338309Y-99849989D01*
X237763451Y-99849989D01*
X237742584Y-99847934D01*
X237721717Y-99849989D01*
X237721711Y-99849989D01*
X237667683Y-99855310D01*
X237659270Y-99856139D01*
X237655229Y-99857365D01*
X237579158Y-99880441D01*
X237505325Y-99919905D01*
X237440611Y-99973015D01*
X237427306Y-99989227D01*
X237266758Y-100149775D01*
X237238722Y-100175921D01*
X237214957Y-100195045D01*
X237191699Y-100210983D01*
X237168805Y-100224110D01*
X237145951Y-100234814D01*
X237122701Y-100243410D01*
X237098609Y-100250077D01*
X237073135Y-100254892D01*
X237045782Y-100257795D01*
X237009966Y-100258787D01*
X236934918Y-100258787D01*
X236790020Y-100287609D01*
X236653529Y-100344146D01*
X236530690Y-100426224D01*
X236426224Y-100530690D01*
X236344146Y-100653529D01*
X236287609Y-100790020D01*
X236258787Y-100934918D01*
X236258787Y-101082656D01*
X236287609Y-101227554D01*
X236344146Y-101364045D01*
X236426224Y-101486884D01*
X236530690Y-101591350D01*
X236653529Y-101673428D01*
X236784763Y-101727787D01*
X236687550Y-101825000D01*
X235076040Y-101825000D01*
X236595763Y-100305278D01*
X236611974Y-100291974D01*
X236625914Y-100274989D01*
X236658108Y-100235760D01*
X236665084Y-100227260D01*
X236704548Y-100153427D01*
X236725428Y-100084596D01*
X236728850Y-100073315D01*
X236729690Y-100064789D01*
X236734364Y-100017335D01*
X236734626Y-100016853D01*
X236755398Y-99985463D01*
X236788272Y-99941753D01*
X236832553Y-99887991D01*
X236887699Y-99825448D01*
X236953335Y-99754857D01*
X237029213Y-99676654D01*
X237041822Y-99664105D01*
X237043082Y-99663263D01*
X237203263Y-99503082D01*
X237329116Y-99314729D01*
X237415806Y-99105443D01*
X237460000Y-98883265D01*
X237460000Y-98656735D01*
X237416013Y-98435597D01*
X237697528Y-98435597D01*
X237746905Y-98620000D01*
X238700000Y-98620000D01*
X238700000Y-97667659D01*
X239000000Y-97667659D01*
X239000000Y-98620000D01*
X239953095Y-98620000D01*
X240002472Y-98435597D01*
X239915089Y-98217186D01*
X239786775Y-98020020D01*
X239622461Y-97851675D01*
X239428462Y-97718621D01*
X239212233Y-97625971D01*
X239184402Y-97617535D01*
X239000000Y-97667659D01*
X238700000Y-97667659D01*
X238515598Y-97617535D01*
X238487767Y-97625971D01*
X238271538Y-97718621D01*
X238077539Y-97851675D01*
X237913225Y-98020020D01*
X237784911Y-98217186D01*
X237697528Y-98435597D01*
X237416013Y-98435597D01*
X237415806Y-98434557D01*
X237329116Y-98225271D01*
X237203263Y-98036918D01*
X237043082Y-97876737D01*
X236854729Y-97750884D01*
X236645443Y-97664194D01*
X236423265Y-97620000D01*
X236196735Y-97620000D01*
X235974557Y-97664194D01*
X235765271Y-97750884D01*
X235576918Y-97876737D01*
X235416737Y-98036918D01*
X235290884Y-98225271D01*
X235204194Y-98434557D01*
X235160000Y-98656735D01*
X235160000Y-98883265D01*
X235204194Y-99105443D01*
X235290884Y-99314729D01*
X235416737Y-99503082D01*
X235576918Y-99663263D01*
X235578178Y-99664105D01*
X235590787Y-99676654D01*
X235666665Y-99754857D01*
X235732301Y-99825448D01*
X235787447Y-99887991D01*
X235798070Y-99900889D01*
X234323970Y-101374990D01*
X232976027Y-101374990D01*
X232609024Y-101007988D01*
X232582859Y-100979932D01*
X232563741Y-100956174D01*
X232547803Y-100932916D01*
X232534676Y-100910022D01*
X232523972Y-100887168D01*
X232515376Y-100863918D01*
X232508709Y-100839826D01*
X232503894Y-100814352D01*
X232500991Y-100787000D01*
X232500000Y-100751191D01*
X232500000Y-100676135D01*
X232471178Y-100531237D01*
X232414641Y-100394746D01*
X232332563Y-100271907D01*
X232228097Y-100167441D01*
X232105258Y-100085363D01*
X231968767Y-100028826D01*
X231823869Y-100000004D01*
X231676131Y-100000004D01*
X231531233Y-100028826D01*
X231394742Y-100085363D01*
X231271903Y-100167441D01*
X231167437Y-100271907D01*
X231085359Y-100394746D01*
X231028822Y-100531237D01*
X231021597Y-100567560D01*
X229944971Y-99490935D01*
X229934547Y-99456572D01*
X229895083Y-99382739D01*
X229873345Y-99356251D01*
X229871913Y-99351402D01*
X229864405Y-99314516D01*
X229856743Y-99260366D01*
X229850038Y-99191030D01*
X229844810Y-99107837D01*
X229841305Y-99011490D01*
X229839661Y-98902567D01*
X229839704Y-98884755D01*
X229840000Y-98883265D01*
X229840000Y-98656735D01*
X230080000Y-98656735D01*
X230080000Y-98883265D01*
X230124194Y-99105443D01*
X230210884Y-99314729D01*
X230336737Y-99503082D01*
X230496918Y-99663263D01*
X230685271Y-99789116D01*
X230894557Y-99875806D01*
X231116735Y-99920000D01*
X231343265Y-99920000D01*
X231565443Y-99875806D01*
X231774729Y-99789116D01*
X231963082Y-99663263D01*
X232123263Y-99503082D01*
X232249116Y-99314729D01*
X232335806Y-99105443D01*
X232380000Y-98883265D01*
X232380000Y-98656735D01*
X232620000Y-98656735D01*
X232620000Y-98883265D01*
X232664194Y-99105443D01*
X232750884Y-99314729D01*
X232876737Y-99503082D01*
X233036918Y-99663263D01*
X233225271Y-99789116D01*
X233434557Y-99875806D01*
X233656735Y-99920000D01*
X233883265Y-99920000D01*
X234105443Y-99875806D01*
X234314729Y-99789116D01*
X234503082Y-99663263D01*
X234663263Y-99503082D01*
X234789116Y-99314729D01*
X234875806Y-99105443D01*
X234920000Y-98883265D01*
X234920000Y-98656735D01*
X234875806Y-98434557D01*
X234789116Y-98225271D01*
X234663263Y-98036918D01*
X234503082Y-97876737D01*
X234314729Y-97750884D01*
X234105443Y-97664194D01*
X233883265Y-97620000D01*
X233656735Y-97620000D01*
X233434557Y-97664194D01*
X233225271Y-97750884D01*
X233036918Y-97876737D01*
X232876737Y-98036918D01*
X232750884Y-98225271D01*
X232664194Y-98434557D01*
X232620000Y-98656735D01*
X232380000Y-98656735D01*
X232335806Y-98434557D01*
X232249116Y-98225271D01*
X232123263Y-98036918D01*
X231963082Y-97876737D01*
X231774729Y-97750884D01*
X231565443Y-97664194D01*
X231343265Y-97620000D01*
X231116735Y-97620000D01*
X230894557Y-97664194D01*
X230685271Y-97750884D01*
X230496918Y-97876737D01*
X230336737Y-98036918D01*
X230210884Y-98225271D01*
X230124194Y-98434557D01*
X230080000Y-98656735D01*
X229840000Y-98656735D01*
X229795806Y-98434557D01*
X229709116Y-98225271D01*
X229583263Y-98036918D01*
X229423082Y-97876737D01*
X229234729Y-97750884D01*
X229025443Y-97664194D01*
X228803265Y-97620000D01*
X228576735Y-97620000D01*
X228354557Y-97664194D01*
X228145271Y-97750884D01*
X227956918Y-97876737D01*
X227796737Y-98036918D01*
X227670884Y-98225271D01*
X227584194Y-98434557D01*
X227540000Y-98656735D01*
X227540000Y-98883265D01*
X227584194Y-99105443D01*
X227670884Y-99314729D01*
X227796737Y-99503082D01*
X227868655Y-99575000D01*
X226971345Y-99575000D01*
X227043263Y-99503082D01*
X227169116Y-99314729D01*
X227255806Y-99105443D01*
X227300000Y-98883265D01*
X227300000Y-98656735D01*
X227255806Y-98434557D01*
X227169116Y-98225271D01*
X227043263Y-98036918D01*
X226883082Y-97876737D01*
X226694729Y-97750884D01*
X226485443Y-97664194D01*
X226263265Y-97620000D01*
X226036735Y-97620000D01*
X225814557Y-97664194D01*
X225605271Y-97750884D01*
X225416918Y-97876737D01*
X225256737Y-98036918D01*
X225130884Y-98225271D01*
X225044194Y-98434557D01*
X225000000Y-98656735D01*
X225000000Y-98883265D01*
X225044194Y-99105443D01*
X225130884Y-99314729D01*
X225256737Y-99503082D01*
X225328655Y-99575000D01*
X224431345Y-99575000D01*
X224503263Y-99503082D01*
X224629116Y-99314729D01*
X224715806Y-99105443D01*
X224760000Y-98883265D01*
X224760000Y-98656735D01*
X224715806Y-98434557D01*
X224629116Y-98225271D01*
X224503263Y-98036918D01*
X224343082Y-97876737D01*
X224154729Y-97750884D01*
X223945443Y-97664194D01*
X223723265Y-97620000D01*
X223496735Y-97620000D01*
X223274557Y-97664194D01*
X223065271Y-97750884D01*
X222876918Y-97876737D01*
X222716737Y-98036918D01*
X222590884Y-98225271D01*
X222504194Y-98434557D01*
X222460000Y-98656735D01*
X222460000Y-98883265D01*
X222504194Y-99105443D01*
X222590884Y-99314729D01*
X222716737Y-99503082D01*
X222788655Y-99575000D01*
X222020890Y-99575000D01*
X222000016Y-99572944D01*
X221979142Y-99575000D01*
X221916702Y-99581150D01*
X221871476Y-99594869D01*
X221963263Y-99503082D01*
X222089116Y-99314729D01*
X222175806Y-99105443D01*
X222220000Y-98883265D01*
X222220000Y-98656735D01*
X222175806Y-98434557D01*
X222089116Y-98225271D01*
X221963263Y-98036918D01*
X221803082Y-97876737D01*
X221614729Y-97750884D01*
X221405443Y-97664194D01*
X221183265Y-97620000D01*
X220956735Y-97620000D01*
X220734557Y-97664194D01*
X220525271Y-97750884D01*
X220336918Y-97876737D01*
X220176737Y-98036918D01*
X220050884Y-98225271D01*
X219964194Y-98434557D01*
X219920000Y-98656735D01*
X217140000Y-98656735D01*
X217096013Y-98435597D01*
X217377528Y-98435597D01*
X217426905Y-98620000D01*
X218380000Y-98620000D01*
X218380000Y-97667659D01*
X218680000Y-97667659D01*
X218680000Y-98620000D01*
X219633095Y-98620000D01*
X219682472Y-98435597D01*
X219595089Y-98217186D01*
X219466775Y-98020020D01*
X219302461Y-97851675D01*
X219108462Y-97718621D01*
X218892233Y-97625971D01*
X218864402Y-97617535D01*
X218680000Y-97667659D01*
X218380000Y-97667659D01*
X218195598Y-97617535D01*
X218167767Y-97625971D01*
X217951538Y-97718621D01*
X217757539Y-97851675D01*
X217593225Y-98020020D01*
X217464911Y-98217186D01*
X217377528Y-98435597D01*
X217096013Y-98435597D01*
X217095806Y-98434557D01*
X217009116Y-98225271D01*
X216883263Y-98036918D01*
X216723082Y-97876737D01*
X216534729Y-97750884D01*
X216325443Y-97664194D01*
X216103265Y-97620000D01*
X215876735Y-97620000D01*
X215654557Y-97664194D01*
X215445271Y-97750884D01*
X215256918Y-97876737D01*
X215096737Y-98036918D01*
X214970884Y-98225271D01*
X214884194Y-98434557D01*
X214840000Y-98656735D01*
X214600000Y-98656735D01*
X214555806Y-98434557D01*
X214469116Y-98225271D01*
X214343263Y-98036918D01*
X214183082Y-97876737D01*
X213994729Y-97750884D01*
X213785443Y-97664194D01*
X213563265Y-97620000D01*
X213336735Y-97620000D01*
X213114557Y-97664194D01*
X212905271Y-97750884D01*
X212716918Y-97876737D01*
X212556737Y-98036918D01*
X212430884Y-98225271D01*
X212344194Y-98434557D01*
X212300000Y-98656735D01*
X212060000Y-98656735D01*
X212015806Y-98434557D01*
X211929116Y-98225271D01*
X211803263Y-98036918D01*
X211643082Y-97876737D01*
X211454729Y-97750884D01*
X211245443Y-97664194D01*
X211023265Y-97620000D01*
X210796735Y-97620000D01*
X210574557Y-97664194D01*
X210365271Y-97750884D01*
X210176918Y-97876737D01*
X210016737Y-98036918D01*
X209890884Y-98225271D01*
X209804194Y-98434557D01*
X209760000Y-98656735D01*
X209521451Y-98656735D01*
X209521451Y-97920000D01*
X209515659Y-97861190D01*
X209498504Y-97804640D01*
X209470647Y-97752523D01*
X209433158Y-97706842D01*
X209387477Y-97669353D01*
X209335360Y-97641496D01*
X209278810Y-97624341D01*
X209220000Y-97618549D01*
X207520000Y-97618549D01*
X207461190Y-97624341D01*
X207404640Y-97641496D01*
X207352523Y-97669353D01*
X207306842Y-97706842D01*
X207269353Y-97752523D01*
X207241496Y-97804640D01*
X207224341Y-97861190D01*
X207218549Y-97920000D01*
X206800000Y-97920000D01*
X206800000Y-97729289D01*
X207487942Y-97041348D01*
X207498302Y-97042513D01*
X207535183Y-97048472D01*
X207561915Y-97054456D01*
X207570835Y-97057180D01*
X207636918Y-97123263D01*
X207825271Y-97249116D01*
X208034557Y-97335806D01*
X208256735Y-97380000D01*
X208483265Y-97380000D01*
X208705443Y-97335806D01*
X208914729Y-97249116D01*
X209103082Y-97123263D01*
X209263263Y-96963082D01*
X209389116Y-96774729D01*
X209475806Y-96565443D01*
X209520000Y-96343265D01*
X209520000Y-96116735D01*
X209760000Y-96116735D01*
X209760000Y-96343265D01*
X209804194Y-96565443D01*
X209890884Y-96774729D01*
X210016737Y-96963082D01*
X210176918Y-97123263D01*
X210365271Y-97249116D01*
X210574557Y-97335806D01*
X210796735Y-97380000D01*
X211023265Y-97380000D01*
X211245443Y-97335806D01*
X211454729Y-97249116D01*
X211643082Y-97123263D01*
X211803263Y-96963082D01*
X211929116Y-96774729D01*
X212015806Y-96565443D01*
X212016012Y-96564403D01*
X212297528Y-96564403D01*
X212384911Y-96782814D01*
X212513225Y-96979980D01*
X212677539Y-97148325D01*
X212871538Y-97281379D01*
X213087767Y-97374029D01*
X213115598Y-97382465D01*
X213300000Y-97332341D01*
X213300000Y-96380000D01*
X213600000Y-96380000D01*
X213600000Y-97332341D01*
X213784402Y-97382465D01*
X213812233Y-97374029D01*
X214028462Y-97281379D01*
X214222461Y-97148325D01*
X214386775Y-96979980D01*
X214515089Y-96782814D01*
X214602472Y-96564403D01*
X214553095Y-96380000D01*
X213600000Y-96380000D01*
X213300000Y-96380000D01*
X212346905Y-96380000D01*
X212297528Y-96564403D01*
X212016012Y-96564403D01*
X212060000Y-96343265D01*
X212060000Y-96116735D01*
X214840000Y-96116735D01*
X214840000Y-96343265D01*
X214884194Y-96565443D01*
X214970884Y-96774729D01*
X215096737Y-96963082D01*
X215256918Y-97123263D01*
X215445271Y-97249116D01*
X215654557Y-97335806D01*
X215876735Y-97380000D01*
X216103265Y-97380000D01*
X216325443Y-97335806D01*
X216534729Y-97249116D01*
X216723082Y-97123263D01*
X216883263Y-96963082D01*
X217009116Y-96774729D01*
X217095806Y-96565443D01*
X217140000Y-96343265D01*
X217140000Y-96116735D01*
X217380000Y-96116735D01*
X217380000Y-96343265D01*
X217424194Y-96565443D01*
X217510884Y-96774729D01*
X217636737Y-96963082D01*
X217796918Y-97123263D01*
X217985271Y-97249116D01*
X218194557Y-97335806D01*
X218416735Y-97380000D01*
X218643265Y-97380000D01*
X218865443Y-97335806D01*
X219074729Y-97249116D01*
X219263082Y-97123263D01*
X219423263Y-96963082D01*
X219549116Y-96774729D01*
X219635806Y-96565443D01*
X219680000Y-96343265D01*
X219680000Y-96116735D01*
X219920000Y-96116735D01*
X219920000Y-96343265D01*
X219964194Y-96565443D01*
X220050884Y-96774729D01*
X220176737Y-96963082D01*
X220336918Y-97123263D01*
X220525271Y-97249116D01*
X220734557Y-97335806D01*
X220956735Y-97380000D01*
X221183265Y-97380000D01*
X221405443Y-97335806D01*
X221614729Y-97249116D01*
X221803082Y-97123263D01*
X221963263Y-96963082D01*
X222089116Y-96774729D01*
X222175806Y-96565443D01*
X222176012Y-96564403D01*
X222457528Y-96564403D01*
X222544911Y-96782814D01*
X222673225Y-96979980D01*
X222837539Y-97148325D01*
X223031538Y-97281379D01*
X223247767Y-97374029D01*
X223275598Y-97382465D01*
X223460000Y-97332341D01*
X223460000Y-96380000D01*
X223760000Y-96380000D01*
X223760000Y-97332341D01*
X223944402Y-97382465D01*
X223972233Y-97374029D01*
X224188462Y-97281379D01*
X224382461Y-97148325D01*
X224546775Y-96979980D01*
X224675089Y-96782814D01*
X224762472Y-96564403D01*
X224713095Y-96380000D01*
X223760000Y-96380000D01*
X223460000Y-96380000D01*
X222506905Y-96380000D01*
X222457528Y-96564403D01*
X222176012Y-96564403D01*
X222220000Y-96343265D01*
X222220000Y-96116735D01*
X225000000Y-96116735D01*
X225000000Y-96343265D01*
X225044194Y-96565443D01*
X225130884Y-96774729D01*
X225256737Y-96963082D01*
X225416918Y-97123263D01*
X225605271Y-97249116D01*
X225814557Y-97335806D01*
X226036735Y-97380000D01*
X226263265Y-97380000D01*
X226485443Y-97335806D01*
X226694729Y-97249116D01*
X226883082Y-97123263D01*
X227043263Y-96963082D01*
X227169116Y-96774729D01*
X227255806Y-96565443D01*
X227300000Y-96343265D01*
X227300000Y-96116735D01*
X227540000Y-96116735D01*
X227540000Y-96343265D01*
X227584194Y-96565443D01*
X227670884Y-96774729D01*
X227796737Y-96963082D01*
X227956918Y-97123263D01*
X228145271Y-97249116D01*
X228354557Y-97335806D01*
X228576735Y-97380000D01*
X228803265Y-97380000D01*
X229025443Y-97335806D01*
X229234729Y-97249116D01*
X229423082Y-97123263D01*
X229583263Y-96963082D01*
X229709116Y-96774729D01*
X229795806Y-96565443D01*
X229796012Y-96564403D01*
X230077528Y-96564403D01*
X230164911Y-96782814D01*
X230293225Y-96979980D01*
X230457539Y-97148325D01*
X230651538Y-97281379D01*
X230867767Y-97374029D01*
X230895598Y-97382465D01*
X231080000Y-97332341D01*
X231080000Y-96380000D01*
X231380000Y-96380000D01*
X231380000Y-97332341D01*
X231564402Y-97382465D01*
X231592233Y-97374029D01*
X231808462Y-97281379D01*
X232002461Y-97148325D01*
X232166775Y-96979980D01*
X232295089Y-96782814D01*
X232382472Y-96564403D01*
X232333095Y-96380000D01*
X231380000Y-96380000D01*
X231080000Y-96380000D01*
X230126905Y-96380000D01*
X230077528Y-96564403D01*
X229796012Y-96564403D01*
X229840000Y-96343265D01*
X229840000Y-96116735D01*
X232620000Y-96116735D01*
X232620000Y-96343265D01*
X232664194Y-96565443D01*
X232750884Y-96774729D01*
X232876737Y-96963082D01*
X233036918Y-97123263D01*
X233225271Y-97249116D01*
X233434557Y-97335806D01*
X233656735Y-97380000D01*
X233883265Y-97380000D01*
X234105443Y-97335806D01*
X234314729Y-97249116D01*
X234503082Y-97123263D01*
X234663263Y-96963082D01*
X234789116Y-96774729D01*
X234875806Y-96565443D01*
X234920000Y-96343265D01*
X234920000Y-96116735D01*
X235160000Y-96116735D01*
X235160000Y-96343265D01*
X235204194Y-96565443D01*
X235290884Y-96774729D01*
X235416737Y-96963082D01*
X235576918Y-97123263D01*
X235765271Y-97249116D01*
X235974557Y-97335806D01*
X236196735Y-97380000D01*
X236423265Y-97380000D01*
X236645443Y-97335806D01*
X236854729Y-97249116D01*
X237043082Y-97123263D01*
X237203263Y-96963082D01*
X237329116Y-96774729D01*
X237415806Y-96565443D01*
X237460000Y-96343265D01*
X237460000Y-96116735D01*
X237700000Y-96116735D01*
X237700000Y-96343265D01*
X237744194Y-96565443D01*
X237830884Y-96774729D01*
X237956737Y-96963082D01*
X238116918Y-97123263D01*
X238305271Y-97249116D01*
X238514557Y-97335806D01*
X238736735Y-97380000D01*
X238963265Y-97380000D01*
X239185443Y-97335806D01*
X239394729Y-97249116D01*
X239583082Y-97123263D01*
X239743263Y-96963082D01*
X239869116Y-96774729D01*
X239955806Y-96565443D01*
X240000000Y-96343265D01*
X240000000Y-96116735D01*
X240240000Y-96116735D01*
X240240000Y-96343265D01*
X240284194Y-96565443D01*
X240370884Y-96774729D01*
X240496737Y-96963082D01*
X240656918Y-97123263D01*
X240845271Y-97249116D01*
X241054557Y-97335806D01*
X241276735Y-97380000D01*
X241503265Y-97380000D01*
X241725443Y-97335806D01*
X241934729Y-97249116D01*
X242123082Y-97123263D01*
X242283263Y-96963082D01*
X242409116Y-96774729D01*
X242495806Y-96565443D01*
X242496012Y-96564403D01*
X242777528Y-96564403D01*
X242864911Y-96782814D01*
X242993225Y-96979980D01*
X243157539Y-97148325D01*
X243351538Y-97281379D01*
X243567767Y-97374029D01*
X243595598Y-97382465D01*
X243780000Y-97332341D01*
X243780000Y-96380000D01*
X244080000Y-96380000D01*
X244080000Y-97332341D01*
X244264402Y-97382465D01*
X244292233Y-97374029D01*
X244508462Y-97281379D01*
X244702461Y-97148325D01*
X244866775Y-96979980D01*
X244995089Y-96782814D01*
X245082472Y-96564403D01*
X245033095Y-96380000D01*
X244080000Y-96380000D01*
X243780000Y-96380000D01*
X242826905Y-96380000D01*
X242777528Y-96564403D01*
X242496012Y-96564403D01*
X242540000Y-96343265D01*
X242540000Y-96116735D01*
X245320000Y-96116735D01*
X245320000Y-96343265D01*
X245364194Y-96565443D01*
X245450884Y-96774729D01*
X245576737Y-96963082D01*
X245736918Y-97123263D01*
X245925271Y-97249116D01*
X246134557Y-97335806D01*
X246356735Y-97380000D01*
X246583265Y-97380000D01*
X246805443Y-97335806D01*
X247014729Y-97249116D01*
X247203082Y-97123263D01*
X247363263Y-96963082D01*
X247489116Y-96774729D01*
X247575806Y-96565443D01*
X247576012Y-96564403D01*
X247857528Y-96564403D01*
X247944911Y-96782814D01*
X248073225Y-96979980D01*
X248237539Y-97148325D01*
X248431538Y-97281379D01*
X248647767Y-97374029D01*
X248675598Y-97382465D01*
X248860000Y-97332341D01*
X248860000Y-96380000D01*
X249160000Y-96380000D01*
X249160000Y-97332341D01*
X249344402Y-97382465D01*
X249372233Y-97374029D01*
X249588462Y-97281379D01*
X249782461Y-97148325D01*
X249946775Y-96979980D01*
X250075089Y-96782814D01*
X250162472Y-96564403D01*
X250113095Y-96380000D01*
X249160000Y-96380000D01*
X248860000Y-96380000D01*
X247906905Y-96380000D01*
X247857528Y-96564403D01*
X247576012Y-96564403D01*
X247620000Y-96343265D01*
X247620000Y-96116735D01*
X250400000Y-96116735D01*
X250400000Y-96343265D01*
X250444194Y-96565443D01*
X250530884Y-96774729D01*
X250656737Y-96963082D01*
X250816918Y-97123263D01*
X251005271Y-97249116D01*
X251214557Y-97335806D01*
X251436735Y-97380000D01*
X251663265Y-97380000D01*
X251885443Y-97335806D01*
X252094729Y-97249116D01*
X252283082Y-97123263D01*
X252443263Y-96963082D01*
X252569116Y-96774729D01*
X252655806Y-96565443D01*
X252700000Y-96343265D01*
X252700000Y-96116735D01*
X252940000Y-96116735D01*
X252940000Y-96343265D01*
X252984194Y-96565443D01*
X253070884Y-96774729D01*
X253196737Y-96963082D01*
X253356918Y-97123263D01*
X253545271Y-97249116D01*
X253754557Y-97335806D01*
X253976735Y-97380000D01*
X254203265Y-97380000D01*
X254425443Y-97335806D01*
X254634729Y-97249116D01*
X254823082Y-97123263D01*
X254983263Y-96963082D01*
X255109116Y-96774729D01*
X255195806Y-96565443D01*
X255240000Y-96343265D01*
X255240000Y-96116735D01*
X255480000Y-96116735D01*
X255480000Y-96343265D01*
X255524194Y-96565443D01*
X255610884Y-96774729D01*
X255736737Y-96963082D01*
X255896918Y-97123263D01*
X256085271Y-97249116D01*
X256294557Y-97335806D01*
X256516735Y-97380000D01*
X256743265Y-97380000D01*
X256956981Y-97337489D01*
X259850000Y-97337489D01*
X259850000Y-97662511D01*
X259913408Y-97981287D01*
X260037789Y-98281568D01*
X260218361Y-98551814D01*
X260448186Y-98781639D01*
X260718432Y-98962211D01*
X261018713Y-99086592D01*
X261337489Y-99150000D01*
X261662511Y-99150000D01*
X261981287Y-99086592D01*
X262281568Y-98962211D01*
X262551814Y-98781639D01*
X262781639Y-98551814D01*
X262962211Y-98281568D01*
X263086592Y-97981287D01*
X263150000Y-97662511D01*
X263150000Y-97337489D01*
X263086592Y-97018713D01*
X262962211Y-96718432D01*
X262781639Y-96448186D01*
X262551814Y-96218361D01*
X262281568Y-96037789D01*
X261981287Y-95913408D01*
X261662511Y-95850000D01*
X261337489Y-95850000D01*
X261018713Y-95913408D01*
X260718432Y-96037789D01*
X260448186Y-96218361D01*
X260218361Y-96448186D01*
X260037789Y-96718432D01*
X259913408Y-97018713D01*
X259850000Y-97337489D01*
X256956981Y-97337489D01*
X256965443Y-97335806D01*
X257174729Y-97249116D01*
X257363082Y-97123263D01*
X257523263Y-96963082D01*
X257649116Y-96774729D01*
X257735806Y-96565443D01*
X257780000Y-96343265D01*
X257780000Y-96116735D01*
X257735806Y-95894557D01*
X257649116Y-95685271D01*
X257523263Y-95496918D01*
X257363082Y-95336737D01*
X257174729Y-95210884D01*
X256965443Y-95124194D01*
X256743265Y-95080000D01*
X256516735Y-95080000D01*
X256294557Y-95124194D01*
X256085271Y-95210884D01*
X255896918Y-95336737D01*
X255736737Y-95496918D01*
X255610884Y-95685271D01*
X255524194Y-95894557D01*
X255480000Y-96116735D01*
X255240000Y-96116735D01*
X255195806Y-95894557D01*
X255109116Y-95685271D01*
X254983263Y-95496918D01*
X254823082Y-95336737D01*
X254634729Y-95210884D01*
X254425443Y-95124194D01*
X254203265Y-95080000D01*
X253976735Y-95080000D01*
X253754557Y-95124194D01*
X253545271Y-95210884D01*
X253356918Y-95336737D01*
X253196737Y-95496918D01*
X253070884Y-95685271D01*
X252984194Y-95894557D01*
X252940000Y-96116735D01*
X252700000Y-96116735D01*
X252655806Y-95894557D01*
X252569116Y-95685271D01*
X252443263Y-95496918D01*
X252283082Y-95336737D01*
X252094729Y-95210884D01*
X251885443Y-95124194D01*
X251663265Y-95080000D01*
X251436735Y-95080000D01*
X251214557Y-95124194D01*
X251005271Y-95210884D01*
X250816918Y-95336737D01*
X250656737Y-95496918D01*
X250530884Y-95685271D01*
X250444194Y-95894557D01*
X250400000Y-96116735D01*
X247620000Y-96116735D01*
X247576013Y-95895597D01*
X247857528Y-95895597D01*
X247906905Y-96080000D01*
X248860000Y-96080000D01*
X248860000Y-95127659D01*
X249160000Y-95127659D01*
X249160000Y-96080000D01*
X250113095Y-96080000D01*
X250162472Y-95895597D01*
X250075089Y-95677186D01*
X249946775Y-95480020D01*
X249782461Y-95311675D01*
X249588462Y-95178621D01*
X249372233Y-95085971D01*
X249344402Y-95077535D01*
X249160000Y-95127659D01*
X248860000Y-95127659D01*
X248675598Y-95077535D01*
X248647767Y-95085971D01*
X248431538Y-95178621D01*
X248237539Y-95311675D01*
X248073225Y-95480020D01*
X247944911Y-95677186D01*
X247857528Y-95895597D01*
X247576013Y-95895597D01*
X247575806Y-95894557D01*
X247489116Y-95685271D01*
X247363263Y-95496918D01*
X247203082Y-95336737D01*
X247014729Y-95210884D01*
X246805443Y-95124194D01*
X246583265Y-95080000D01*
X246356735Y-95080000D01*
X246134557Y-95124194D01*
X245925271Y-95210884D01*
X245736918Y-95336737D01*
X245576737Y-95496918D01*
X245450884Y-95685271D01*
X245364194Y-95894557D01*
X245320000Y-96116735D01*
X242540000Y-96116735D01*
X242496013Y-95895597D01*
X242777528Y-95895597D01*
X242826905Y-96080000D01*
X243780000Y-96080000D01*
X243780000Y-95127659D01*
X244080000Y-95127659D01*
X244080000Y-96080000D01*
X245033095Y-96080000D01*
X245082472Y-95895597D01*
X244995089Y-95677186D01*
X244866775Y-95480020D01*
X244702461Y-95311675D01*
X244508462Y-95178621D01*
X244292233Y-95085971D01*
X244264402Y-95077535D01*
X244080000Y-95127659D01*
X243780000Y-95127659D01*
X243595598Y-95077535D01*
X243567767Y-95085971D01*
X243351538Y-95178621D01*
X243157539Y-95311675D01*
X242993225Y-95480020D01*
X242864911Y-95677186D01*
X242777528Y-95895597D01*
X242496013Y-95895597D01*
X242495806Y-95894557D01*
X242409116Y-95685271D01*
X242283263Y-95496918D01*
X242123082Y-95336737D01*
X241934729Y-95210884D01*
X241725443Y-95124194D01*
X241503265Y-95080000D01*
X241276735Y-95080000D01*
X241054557Y-95124194D01*
X240845271Y-95210884D01*
X240656918Y-95336737D01*
X240496737Y-95496918D01*
X240370884Y-95685271D01*
X240284194Y-95894557D01*
X240240000Y-96116735D01*
X240000000Y-96116735D01*
X239955806Y-95894557D01*
X239869116Y-95685271D01*
X239743263Y-95496918D01*
X239583082Y-95336737D01*
X239394729Y-95210884D01*
X239185443Y-95124194D01*
X238963265Y-95080000D01*
X238736735Y-95080000D01*
X238514557Y-95124194D01*
X238305271Y-95210884D01*
X238116918Y-95336737D01*
X237956737Y-95496918D01*
X237830884Y-95685271D01*
X237744194Y-95894557D01*
X237700000Y-96116735D01*
X237460000Y-96116735D01*
X237415806Y-95894557D01*
X237329116Y-95685271D01*
X237203263Y-95496918D01*
X237043082Y-95336737D01*
X236854729Y-95210884D01*
X236645443Y-95124194D01*
X236423265Y-95080000D01*
X236196735Y-95080000D01*
X235974557Y-95124194D01*
X235765271Y-95210884D01*
X235576918Y-95336737D01*
X235416737Y-95496918D01*
X235290884Y-95685271D01*
X235204194Y-95894557D01*
X235160000Y-96116735D01*
X234920000Y-96116735D01*
X234875806Y-95894557D01*
X234789116Y-95685271D01*
X234663263Y-95496918D01*
X234503082Y-95336737D01*
X234314729Y-95210884D01*
X234105443Y-95124194D01*
X233883265Y-95080000D01*
X233656735Y-95080000D01*
X233434557Y-95124194D01*
X233225271Y-95210884D01*
X233036918Y-95336737D01*
X232876737Y-95496918D01*
X232750884Y-95685271D01*
X232664194Y-95894557D01*
X232620000Y-96116735D01*
X229840000Y-96116735D01*
X229796013Y-95895597D01*
X230077528Y-95895597D01*
X230126905Y-96080000D01*
X231080000Y-96080000D01*
X231080000Y-95127659D01*
X231380000Y-95127659D01*
X231380000Y-96080000D01*
X232333095Y-96080000D01*
X232382472Y-95895597D01*
X232295089Y-95677186D01*
X232166775Y-95480020D01*
X232002461Y-95311675D01*
X231808462Y-95178621D01*
X231592233Y-95085971D01*
X231564402Y-95077535D01*
X231380000Y-95127659D01*
X231080000Y-95127659D01*
X230895598Y-95077535D01*
X230867767Y-95085971D01*
X230651538Y-95178621D01*
X230457539Y-95311675D01*
X230293225Y-95480020D01*
X230164911Y-95677186D01*
X230077528Y-95895597D01*
X229796013Y-95895597D01*
X229795806Y-95894557D01*
X229709116Y-95685271D01*
X229583263Y-95496918D01*
X229423082Y-95336737D01*
X229234729Y-95210884D01*
X229025443Y-95124194D01*
X228803265Y-95080000D01*
X228576735Y-95080000D01*
X228354557Y-95124194D01*
X228145271Y-95210884D01*
X227956918Y-95336737D01*
X227796737Y-95496918D01*
X227670884Y-95685271D01*
X227584194Y-95894557D01*
X227540000Y-96116735D01*
X227300000Y-96116735D01*
X227255806Y-95894557D01*
X227169116Y-95685271D01*
X227043263Y-95496918D01*
X226883082Y-95336737D01*
X226694729Y-95210884D01*
X226485443Y-95124194D01*
X226263265Y-95080000D01*
X226036735Y-95080000D01*
X225814557Y-95124194D01*
X225605271Y-95210884D01*
X225416918Y-95336737D01*
X225256737Y-95496918D01*
X225130884Y-95685271D01*
X225044194Y-95894557D01*
X225000000Y-96116735D01*
X222220000Y-96116735D01*
X222176013Y-95895597D01*
X222457528Y-95895597D01*
X222506905Y-96080000D01*
X223460000Y-96080000D01*
X223460000Y-95127659D01*
X223760000Y-95127659D01*
X223760000Y-96080000D01*
X224713095Y-96080000D01*
X224762472Y-95895597D01*
X224675089Y-95677186D01*
X224546775Y-95480020D01*
X224382461Y-95311675D01*
X224188462Y-95178621D01*
X223972233Y-95085971D01*
X223944402Y-95077535D01*
X223760000Y-95127659D01*
X223460000Y-95127659D01*
X223275598Y-95077535D01*
X223247767Y-95085971D01*
X223031538Y-95178621D01*
X222837539Y-95311675D01*
X222673225Y-95480020D01*
X222544911Y-95677186D01*
X222457528Y-95895597D01*
X222176013Y-95895597D01*
X222175806Y-95894557D01*
X222089116Y-95685271D01*
X221963263Y-95496918D01*
X221803082Y-95336737D01*
X221614729Y-95210884D01*
X221405443Y-95124194D01*
X221183265Y-95080000D01*
X220956735Y-95080000D01*
X220734557Y-95124194D01*
X220525271Y-95210884D01*
X220336918Y-95336737D01*
X220176737Y-95496918D01*
X220050884Y-95685271D01*
X219964194Y-95894557D01*
X219920000Y-96116735D01*
X219680000Y-96116735D01*
X219635806Y-95894557D01*
X219549116Y-95685271D01*
X219423263Y-95496918D01*
X219263082Y-95336737D01*
X219074729Y-95210884D01*
X218865443Y-95124194D01*
X218643265Y-95080000D01*
X218416735Y-95080000D01*
X218194557Y-95124194D01*
X217985271Y-95210884D01*
X217796918Y-95336737D01*
X217636737Y-95496918D01*
X217510884Y-95685271D01*
X217424194Y-95894557D01*
X217380000Y-96116735D01*
X217140000Y-96116735D01*
X217095806Y-95894557D01*
X217009116Y-95685271D01*
X216883263Y-95496918D01*
X216723082Y-95336737D01*
X216534729Y-95210884D01*
X216325443Y-95124194D01*
X216103265Y-95080000D01*
X215876735Y-95080000D01*
X215654557Y-95124194D01*
X215445271Y-95210884D01*
X215256918Y-95336737D01*
X215096737Y-95496918D01*
X214970884Y-95685271D01*
X214884194Y-95894557D01*
X214840000Y-96116735D01*
X212060000Y-96116735D01*
X212016013Y-95895597D01*
X212297528Y-95895597D01*
X212346905Y-96080000D01*
X213300000Y-96080000D01*
X213300000Y-95127659D01*
X213600000Y-95127659D01*
X213600000Y-96080000D01*
X214553095Y-96080000D01*
X214602472Y-95895597D01*
X214515089Y-95677186D01*
X214386775Y-95480020D01*
X214222461Y-95311675D01*
X214028462Y-95178621D01*
X213812233Y-95085971D01*
X213784402Y-95077535D01*
X213600000Y-95127659D01*
X213300000Y-95127659D01*
X213115598Y-95077535D01*
X213087767Y-95085971D01*
X212871538Y-95178621D01*
X212677539Y-95311675D01*
X212513225Y-95480020D01*
X212384911Y-95677186D01*
X212297528Y-95895597D01*
X212016013Y-95895597D01*
X212015806Y-95894557D01*
X211929116Y-95685271D01*
X211803263Y-95496918D01*
X211643082Y-95336737D01*
X211454729Y-95210884D01*
X211245443Y-95124194D01*
X211023265Y-95080000D01*
X210796735Y-95080000D01*
X210574557Y-95124194D01*
X210365271Y-95210884D01*
X210176918Y-95336737D01*
X210016737Y-95496918D01*
X209890884Y-95685271D01*
X209804194Y-95894557D01*
X209760000Y-96116735D01*
X209520000Y-96116735D01*
X209475806Y-95894557D01*
X209389116Y-95685271D01*
X209263263Y-95496918D01*
X209103082Y-95336737D01*
X208914729Y-95210884D01*
X208705443Y-95124194D01*
X208483265Y-95080000D01*
X208256735Y-95080000D01*
X208034557Y-95124194D01*
X207825271Y-95210884D01*
X207636918Y-95336737D01*
X207570836Y-95402819D01*
X207561915Y-95405543D01*
X207535183Y-95411527D01*
X207498302Y-95417486D01*
X207452205Y-95422669D01*
X207397659Y-95426631D01*
X207335060Y-95429122D01*
X207263142Y-95430000D01*
X207207210Y-95430000D01*
X207167919Y-95426130D01*
X207128628Y-95430000D01*
X207128626Y-95430000D01*
X207011092Y-95441576D01*
X206869347Y-95484574D01*
X206860291Y-95487321D01*
X206721312Y-95561607D01*
X206657040Y-95614354D01*
X206599497Y-95661578D01*
X206574450Y-95692098D01*
X205462098Y-96804451D01*
X205431579Y-96829497D01*
X205406532Y-96860017D01*
X205406531Y-96860018D01*
X205331607Y-96951313D01*
X205257321Y-97090292D01*
X205211577Y-97241092D01*
X205196130Y-97397919D01*
X205150000Y-97397919D01*
X205150000Y-97337489D01*
X205086592Y-97018713D01*
X204962211Y-96718432D01*
X204781639Y-96448186D01*
X204551814Y-96218361D01*
X204281568Y-96037789D01*
X203981287Y-95913408D01*
X203662511Y-95850000D01*
X203337489Y-95850000D01*
X203018713Y-95913408D01*
X202718432Y-96037789D01*
X202448186Y-96218361D01*
X202218361Y-96448186D01*
X202037789Y-96718432D01*
X201913408Y-97018713D01*
X201850000Y-97337489D01*
X200350000Y-97337489D01*
X200350000Y-97017122D01*
X200402116Y-96485603D01*
X200551505Y-95990804D01*
X200794157Y-95534439D01*
X201120827Y-95133904D01*
X201519081Y-94804439D01*
X201973734Y-94558610D01*
X202467479Y-94405770D01*
X202998008Y-94350009D01*
X203000646Y-94350000D01*
X261982878Y-94350000D01*
X262514397Y-94402116D01*
G36*
X214650000Y-127950000D02*
G01*
X214737500Y-128037500D01*
X216850000Y-128037500D01*
X216850000Y-128017500D01*
X217150000Y-128017500D01*
X217150000Y-128037500D01*
X219262500Y-128037500D01*
X219350000Y-127950000D01*
X219351129Y-127600000D01*
X224715458Y-127600000D01*
X224697474Y-127612372D01*
X224531539Y-127782859D01*
X224402053Y-127982443D01*
X224313991Y-128203453D01*
X224363199Y-128390000D01*
X225330000Y-128390000D01*
X225330000Y-128370000D01*
X225630000Y-128370000D01*
X225630000Y-128390000D01*
X226596801Y-128390000D01*
X226646009Y-128203453D01*
X226557947Y-127982443D01*
X226428461Y-127782859D01*
X226262526Y-127612372D01*
X226244542Y-127600000D01*
X227255458Y-127600000D01*
X227237474Y-127612372D01*
X227071539Y-127782859D01*
X226942053Y-127982443D01*
X226853991Y-128203453D01*
X226903199Y-128390000D01*
X227870000Y-128390000D01*
X227870000Y-128370000D01*
X228170000Y-128370000D01*
X228170000Y-128390000D01*
X229136801Y-128390000D01*
X229186009Y-128203453D01*
X229097947Y-127982443D01*
X228968461Y-127782859D01*
X228802526Y-127612372D01*
X228784542Y-127600000D01*
X229795458Y-127600000D01*
X229777474Y-127612372D01*
X229611539Y-127782859D01*
X229482053Y-127982443D01*
X229393991Y-128203453D01*
X229443199Y-128390000D01*
X230410000Y-128390000D01*
X230410000Y-128370000D01*
X230710000Y-128370000D01*
X230710000Y-128390000D01*
X231676801Y-128390000D01*
X231726009Y-128203453D01*
X231637947Y-127982443D01*
X231508461Y-127782859D01*
X231342526Y-127612372D01*
X231324542Y-127600000D01*
X232335458Y-127600000D01*
X232317474Y-127612372D01*
X232151539Y-127782859D01*
X232022053Y-127982443D01*
X231933991Y-128203453D01*
X231983199Y-128390000D01*
X232950000Y-128390000D01*
X232950000Y-128370000D01*
X233250000Y-128370000D01*
X233250000Y-128390000D01*
X234216801Y-128390000D01*
X234266009Y-128203453D01*
X234177947Y-127982443D01*
X234048461Y-127782859D01*
X233882526Y-127612372D01*
X233864542Y-127600000D01*
X264519809Y-127600000D01*
X264402046Y-127990053D01*
X264163998Y-128437757D01*
X263843522Y-128830698D01*
X263452830Y-129153907D01*
X263006795Y-129395077D01*
X262522419Y-129545016D01*
X261999288Y-129600000D01*
X233690105Y-129600000D01*
X233882526Y-129467628D01*
X234048461Y-129297141D01*
X234177947Y-129097557D01*
X234266009Y-128876547D01*
X234216801Y-128690000D01*
X233250000Y-128690000D01*
X233250000Y-128710000D01*
X232950000Y-128710000D01*
X232950000Y-128690000D01*
X231983199Y-128690000D01*
X231933991Y-128876547D01*
X232022053Y-129097557D01*
X232151539Y-129297141D01*
X232317474Y-129467628D01*
X232509895Y-129600000D01*
X231150105Y-129600000D01*
X231342526Y-129467628D01*
X231508461Y-129297141D01*
X231637947Y-129097557D01*
X231726009Y-128876547D01*
X231676801Y-128690000D01*
X230710000Y-128690000D01*
X230710000Y-128710000D01*
X230410000Y-128710000D01*
X230410000Y-128690000D01*
X229443199Y-128690000D01*
X229393991Y-128876547D01*
X229482053Y-129097557D01*
X229611539Y-129297141D01*
X229777474Y-129467628D01*
X229969895Y-129600000D01*
X228610105Y-129600000D01*
X228802526Y-129467628D01*
X228968461Y-129297141D01*
X229097947Y-129097557D01*
X229186009Y-128876547D01*
X229136801Y-128690000D01*
X228170000Y-128690000D01*
X228170000Y-128710000D01*
X227870000Y-128710000D01*
X227870000Y-128690000D01*
X226903199Y-128690000D01*
X226853991Y-128876547D01*
X226942053Y-129097557D01*
X227071539Y-129297141D01*
X227237474Y-129467628D01*
X227429895Y-129600000D01*
X226070105Y-129600000D01*
X226262526Y-129467628D01*
X226428461Y-129297141D01*
X226557947Y-129097557D01*
X226646009Y-128876547D01*
X226596801Y-128690000D01*
X225630000Y-128690000D01*
X225630000Y-128710000D01*
X225330000Y-128710000D01*
X225330000Y-128690000D01*
X224363199Y-128690000D01*
X224313991Y-128876547D01*
X224402053Y-129097557D01*
X224531539Y-129297141D01*
X224697474Y-129467628D01*
X224889895Y-129600000D01*
X203019564Y-129600000D01*
X202495363Y-129548601D01*
X202009947Y-129402046D01*
X201562243Y-129163998D01*
X201299857Y-128950000D01*
X214648306Y-128950000D01*
X214655064Y-129018612D01*
X214675077Y-129084587D01*
X214707577Y-129145391D01*
X214751315Y-129198685D01*
X214804609Y-129242423D01*
X214865413Y-129274923D01*
X214931388Y-129294936D01*
X215000000Y-129301694D01*
X216762500Y-129300000D01*
X216850000Y-129212500D01*
X216850000Y-128337500D01*
X217150000Y-128337500D01*
X217150000Y-129212500D01*
X217237500Y-129300000D01*
X219000000Y-129301694D01*
X219068612Y-129294936D01*
X219134587Y-129274923D01*
X219195391Y-129242423D01*
X219248685Y-129198685D01*
X219292423Y-129145391D01*
X219324923Y-129084587D01*
X219344936Y-129018612D01*
X219351694Y-128950000D01*
X219350000Y-128425000D01*
X219262500Y-128337500D01*
X217150000Y-128337500D01*
X216850000Y-128337500D01*
X214737500Y-128337500D01*
X214650000Y-128425000D01*
X214648306Y-128950000D01*
X201299857Y-128950000D01*
X201169302Y-128843522D01*
X200846093Y-128452830D01*
X200604923Y-128006795D01*
X200478999Y-127600000D01*
X214648871Y-127600000D01*
X214650000Y-127950000D01*
G37*
X214650000Y-127950000D02*
X214737500Y-128037500D01*
X216850000Y-128037500D01*
X216850000Y-128017500D01*
X217150000Y-128017500D01*
X217150000Y-128037500D01*
X219262500Y-128037500D01*
X219350000Y-127950000D01*
X219351129Y-127600000D01*
X224715458Y-127600000D01*
X224697474Y-127612372D01*
X224531539Y-127782859D01*
X224402053Y-127982443D01*
X224313991Y-128203453D01*
X224363199Y-128390000D01*
X225330000Y-128390000D01*
X225330000Y-128370000D01*
X225630000Y-128370000D01*
X225630000Y-128390000D01*
X226596801Y-128390000D01*
X226646009Y-128203453D01*
X226557947Y-127982443D01*
X226428461Y-127782859D01*
X226262526Y-127612372D01*
X226244542Y-127600000D01*
X227255458Y-127600000D01*
X227237474Y-127612372D01*
X227071539Y-127782859D01*
X226942053Y-127982443D01*
X226853991Y-128203453D01*
X226903199Y-128390000D01*
X227870000Y-128390000D01*
X227870000Y-128370000D01*
X228170000Y-128370000D01*
X228170000Y-128390000D01*
X229136801Y-128390000D01*
X229186009Y-128203453D01*
X229097947Y-127982443D01*
X228968461Y-127782859D01*
X228802526Y-127612372D01*
X228784542Y-127600000D01*
X229795458Y-127600000D01*
X229777474Y-127612372D01*
X229611539Y-127782859D01*
X229482053Y-127982443D01*
X229393991Y-128203453D01*
X229443199Y-128390000D01*
X230410000Y-128390000D01*
X230410000Y-128370000D01*
X230710000Y-128370000D01*
X230710000Y-128390000D01*
X231676801Y-128390000D01*
X231726009Y-128203453D01*
X231637947Y-127982443D01*
X231508461Y-127782859D01*
X231342526Y-127612372D01*
X231324542Y-127600000D01*
X232335458Y-127600000D01*
X232317474Y-127612372D01*
X232151539Y-127782859D01*
X232022053Y-127982443D01*
X231933991Y-128203453D01*
X231983199Y-128390000D01*
X232950000Y-128390000D01*
X232950000Y-128370000D01*
X233250000Y-128370000D01*
X233250000Y-128390000D01*
X234216801Y-128390000D01*
X234266009Y-128203453D01*
X234177947Y-127982443D01*
X234048461Y-127782859D01*
X233882526Y-127612372D01*
X233864542Y-127600000D01*
X264519809Y-127600000D01*
X264402046Y-127990053D01*
X264163998Y-128437757D01*
X263843522Y-128830698D01*
X263452830Y-129153907D01*
X263006795Y-129395077D01*
X262522419Y-129545016D01*
X261999288Y-129600000D01*
X233690105Y-129600000D01*
X233882526Y-129467628D01*
X234048461Y-129297141D01*
X234177947Y-129097557D01*
X234266009Y-128876547D01*
X234216801Y-128690000D01*
X233250000Y-128690000D01*
X233250000Y-128710000D01*
X232950000Y-128710000D01*
X232950000Y-128690000D01*
X231983199Y-128690000D01*
X231933991Y-128876547D01*
X232022053Y-129097557D01*
X232151539Y-129297141D01*
X232317474Y-129467628D01*
X232509895Y-129600000D01*
X231150105Y-129600000D01*
X231342526Y-129467628D01*
X231508461Y-129297141D01*
X231637947Y-129097557D01*
X231726009Y-128876547D01*
X231676801Y-128690000D01*
X230710000Y-128690000D01*
X230710000Y-128710000D01*
X230410000Y-128710000D01*
X230410000Y-128690000D01*
X229443199Y-128690000D01*
X229393991Y-128876547D01*
X229482053Y-129097557D01*
X229611539Y-129297141D01*
X229777474Y-129467628D01*
X229969895Y-129600000D01*
X228610105Y-129600000D01*
X228802526Y-129467628D01*
X228968461Y-129297141D01*
X229097947Y-129097557D01*
X229186009Y-128876547D01*
X229136801Y-128690000D01*
X228170000Y-128690000D01*
X228170000Y-128710000D01*
X227870000Y-128710000D01*
X227870000Y-128690000D01*
X226903199Y-128690000D01*
X226853991Y-128876547D01*
X226942053Y-129097557D01*
X227071539Y-129297141D01*
X227237474Y-129467628D01*
X227429895Y-129600000D01*
X226070105Y-129600000D01*
X226262526Y-129467628D01*
X226428461Y-129297141D01*
X226557947Y-129097557D01*
X226646009Y-128876547D01*
X226596801Y-128690000D01*
X225630000Y-128690000D01*
X225630000Y-128710000D01*
X225330000Y-128710000D01*
X225330000Y-128690000D01*
X224363199Y-128690000D01*
X224313991Y-128876547D01*
X224402053Y-129097557D01*
X224531539Y-129297141D01*
X224697474Y-129467628D01*
X224889895Y-129600000D01*
X203019564Y-129600000D01*
X202495363Y-129548601D01*
X202009947Y-129402046D01*
X201562243Y-129163998D01*
X201299857Y-128950000D01*
X214648306Y-128950000D01*
X214655064Y-129018612D01*
X214675077Y-129084587D01*
X214707577Y-129145391D01*
X214751315Y-129198685D01*
X214804609Y-129242423D01*
X214865413Y-129274923D01*
X214931388Y-129294936D01*
X215000000Y-129301694D01*
X216762500Y-129300000D01*
X216850000Y-129212500D01*
X216850000Y-128337500D01*
X217150000Y-128337500D01*
X217150000Y-129212500D01*
X217237500Y-129300000D01*
X219000000Y-129301694D01*
X219068612Y-129294936D01*
X219134587Y-129274923D01*
X219195391Y-129242423D01*
X219248685Y-129198685D01*
X219292423Y-129145391D01*
X219324923Y-129084587D01*
X219344936Y-129018612D01*
X219351694Y-128950000D01*
X219350000Y-128425000D01*
X219262500Y-128337500D01*
X217150000Y-128337500D01*
X216850000Y-128337500D01*
X214737500Y-128337500D01*
X214650000Y-128425000D01*
X214648306Y-128950000D01*
X201299857Y-128950000D01*
X201169302Y-128843522D01*
X200846093Y-128452830D01*
X200604923Y-128006795D01*
X200478999Y-127600000D01*
X214648871Y-127600000D01*
X214650000Y-127950000D01*
D20*
G36*
X229527234Y-98788232D02*
G01*
X229526956Y-98904458D01*
X229526957Y-98904680D01*
X229528688Y-99019408D01*
X229528695Y-99019678D01*
X229532459Y-99123143D01*
X229532476Y-99123478D01*
X229538271Y-99215682D01*
X229538305Y-99216107D01*
X229546132Y-99297049D01*
X229546198Y-99297606D01*
X229556057Y-99367286D01*
X229556187Y-99368040D01*
X229568078Y-99426458D01*
X229568343Y-99427521D01*
X229582265Y-99474678D01*
X229582840Y-99476241D01*
X229598795Y-99512135D01*
X229600143Y-99514465D01*
X229611719Y-99530318D01*
X229450318Y-99691719D01*
X229434465Y-99680143D01*
X229432135Y-99678795D01*
X229396241Y-99662840D01*
X229394678Y-99662265D01*
X229347521Y-99648343D01*
X229346458Y-99648078D01*
X229288040Y-99636187D01*
X229287286Y-99636057D01*
X229217606Y-99626198D01*
X229217049Y-99626132D01*
X229136107Y-99618305D01*
X229135682Y-99618271D01*
X229043478Y-99612476D01*
X229043143Y-99612459D01*
X228939678Y-99608695D01*
X228939408Y-99608688D01*
X228824680Y-99606957D01*
X228824458Y-99606956D01*
X228708232Y-99607234D01*
X228407459Y-98487459D01*
X229527234Y-98788232D01*
G37*
X229527234Y-98788232D02*
X229526956Y-98904458D01*
X229526957Y-98904680D01*
X229528688Y-99019408D01*
X229528695Y-99019678D01*
X229532459Y-99123143D01*
X229532476Y-99123478D01*
X229538271Y-99215682D01*
X229538305Y-99216107D01*
X229546132Y-99297049D01*
X229546198Y-99297606D01*
X229556057Y-99367286D01*
X229556187Y-99368040D01*
X229568078Y-99426458D01*
X229568343Y-99427521D01*
X229582265Y-99474678D01*
X229582840Y-99476241D01*
X229598795Y-99512135D01*
X229600143Y-99514465D01*
X229611719Y-99530318D01*
X229450318Y-99691719D01*
X229434465Y-99680143D01*
X229432135Y-99678795D01*
X229396241Y-99662840D01*
X229394678Y-99662265D01*
X229347521Y-99648343D01*
X229346458Y-99648078D01*
X229288040Y-99636187D01*
X229287286Y-99636057D01*
X229217606Y-99626198D01*
X229217049Y-99626132D01*
X229136107Y-99618305D01*
X229135682Y-99618271D01*
X229043478Y-99612476D01*
X229043143Y-99612459D01*
X228939678Y-99608695D01*
X228939408Y-99608688D01*
X228824680Y-99606957D01*
X228824458Y-99606956D01*
X228708232Y-99607234D01*
X228407459Y-98487459D01*
X229527234Y-98788232D01*
G36*
X242900042Y-100988492D02*
G01*
X242901383Y-100989506D01*
X242924846Y-101004909D01*
X242926121Y-101005644D01*
X242953084Y-101019171D01*
X242954241Y-101019681D01*
X242984703Y-101031334D01*
X242985727Y-101031676D01*
X243019688Y-101041455D01*
X243020580Y-101041677D01*
X243058041Y-101049580D01*
X243058814Y-101049719D01*
X243099774Y-101055748D01*
X243100441Y-101055828D01*
X243144900Y-101059983D01*
X243145479Y-101060024D01*
X243193438Y-101062303D01*
X243193941Y-101062317D01*
X243235741Y-101062647D01*
X243391120Y-101641120D01*
X242812647Y-101485741D01*
X242812317Y-101443941D01*
X242812303Y-101443438D01*
X242810024Y-101395479D01*
X242809983Y-101394900D01*
X242805828Y-101350441D01*
X242805748Y-101349774D01*
X242799719Y-101308814D01*
X242799580Y-101308041D01*
X242791677Y-101270580D01*
X242791455Y-101269688D01*
X242781676Y-101235727D01*
X242781334Y-101234703D01*
X242769681Y-101204241D01*
X242769171Y-101203084D01*
X242755644Y-101176121D01*
X242754909Y-101174846D01*
X242739506Y-101151383D01*
X242738492Y-101150042D01*
X242728949Y-101139014D01*
X242889014Y-100978949D01*
X242900042Y-100988492D01*
G37*
X242900042Y-100988492D02*
X242901383Y-100989506D01*
X242924846Y-101004909D01*
X242926121Y-101005644D01*
X242953084Y-101019171D01*
X242954241Y-101019681D01*
X242984703Y-101031334D01*
X242985727Y-101031676D01*
X243019688Y-101041455D01*
X243020580Y-101041677D01*
X243058041Y-101049580D01*
X243058814Y-101049719D01*
X243099774Y-101055748D01*
X243100441Y-101055828D01*
X243144900Y-101059983D01*
X243145479Y-101060024D01*
X243193438Y-101062303D01*
X243193941Y-101062317D01*
X243235741Y-101062647D01*
X243391120Y-101641120D01*
X242812647Y-101485741D01*
X242812317Y-101443941D01*
X242812303Y-101443438D01*
X242810024Y-101395479D01*
X242809983Y-101394900D01*
X242805828Y-101350441D01*
X242805748Y-101349774D01*
X242799719Y-101308814D01*
X242799580Y-101308041D01*
X242791677Y-101270580D01*
X242791455Y-101269688D01*
X242781676Y-101235727D01*
X242781334Y-101234703D01*
X242769681Y-101204241D01*
X242769171Y-101203084D01*
X242755644Y-101176121D01*
X242754909Y-101174846D01*
X242739506Y-101151383D01*
X242738492Y-101150042D01*
X242728949Y-101139014D01*
X242889014Y-100978949D01*
X242900042Y-100988492D01*
G36*
X208769574Y-96230000D02*
G01*
X207764292Y-96809584D01*
X207749349Y-96797178D01*
X207747586Y-96795950D01*
X207719610Y-96779800D01*
X207718144Y-96779075D01*
X207683933Y-96764825D01*
X207682759Y-96764403D01*
X207642314Y-96752053D01*
X207641379Y-96751806D01*
X207594698Y-96741356D01*
X207593950Y-96741212D01*
X207541035Y-96732662D01*
X207540428Y-96732579D01*
X207481278Y-96725929D01*
X207480779Y-96725882D01*
X207415394Y-96721132D01*
X207414979Y-96721109D01*
X207343359Y-96718259D01*
X207343009Y-96718250D01*
X207277700Y-96717454D01*
X207277700Y-95742546D01*
X207343009Y-95741749D01*
X207343359Y-95741740D01*
X207414979Y-95738890D01*
X207415394Y-95738867D01*
X207480779Y-95734117D01*
X207481278Y-95734070D01*
X207540428Y-95727420D01*
X207541035Y-95727337D01*
X207593950Y-95718787D01*
X207594698Y-95718643D01*
X207641379Y-95708193D01*
X207642314Y-95707946D01*
X207682759Y-95695596D01*
X207683933Y-95695174D01*
X207718144Y-95680924D01*
X207719610Y-95680199D01*
X207747586Y-95664049D01*
X207749349Y-95662821D01*
X207764292Y-95650416D01*
X208769574Y-96230000D01*
G37*
X208769574Y-96230000D02*
X207764292Y-96809584D01*
X207749349Y-96797178D01*
X207747586Y-96795950D01*
X207719610Y-96779800D01*
X207718144Y-96779075D01*
X207683933Y-96764825D01*
X207682759Y-96764403D01*
X207642314Y-96752053D01*
X207641379Y-96751806D01*
X207594698Y-96741356D01*
X207593950Y-96741212D01*
X207541035Y-96732662D01*
X207540428Y-96732579D01*
X207481278Y-96725929D01*
X207480779Y-96725882D01*
X207415394Y-96721132D01*
X207414979Y-96721109D01*
X207343359Y-96718259D01*
X207343009Y-96718250D01*
X207277700Y-96717454D01*
X207277700Y-95742546D01*
X207343009Y-95741749D01*
X207343359Y-95741740D01*
X207414979Y-95738890D01*
X207415394Y-95738867D01*
X207480779Y-95734117D01*
X207481278Y-95734070D01*
X207540428Y-95727420D01*
X207541035Y-95727337D01*
X207593950Y-95718787D01*
X207594698Y-95718643D01*
X207641379Y-95708193D01*
X207642314Y-95707946D01*
X207682759Y-95695596D01*
X207683933Y-95695174D01*
X207718144Y-95680924D01*
X207719610Y-95680199D01*
X207747586Y-95664049D01*
X207749349Y-95662821D01*
X207764292Y-95650416D01*
X208769574Y-96230000D01*
G36*
X221625557Y-100533889D02*
G01*
X221596731Y-100564797D01*
X221596125Y-100565497D01*
X221562906Y-100606777D01*
X221562324Y-100607560D01*
X221533075Y-100650244D01*
X221532534Y-100651106D01*
X221507256Y-100695193D01*
X221506772Y-100696123D01*
X221485465Y-100741613D01*
X221485054Y-100742596D01*
X221467718Y-100789489D01*
X221467390Y-100790506D01*
X221454024Y-100838803D01*
X221453785Y-100839831D01*
X221444391Y-100889531D01*
X221444241Y-100890550D01*
X221438817Y-100941653D01*
X221438751Y-100942642D01*
X221437560Y-100985690D01*
X220858896Y-101141120D01*
X221014326Y-100562456D01*
X221057374Y-100561264D01*
X221058362Y-100561198D01*
X221109465Y-100555774D01*
X221110484Y-100555624D01*
X221160184Y-100546230D01*
X221161212Y-100545991D01*
X221209509Y-100532625D01*
X221210526Y-100532297D01*
X221257419Y-100514961D01*
X221258402Y-100514550D01*
X221303892Y-100493243D01*
X221304822Y-100492759D01*
X221348909Y-100467481D01*
X221349771Y-100466940D01*
X221392455Y-100437691D01*
X221393238Y-100437109D01*
X221434518Y-100403890D01*
X221435218Y-100403284D01*
X221466127Y-100374459D01*
X221625557Y-100533889D01*
G37*
X221625557Y-100533889D02*
X221596731Y-100564797D01*
X221596125Y-100565497D01*
X221562906Y-100606777D01*
X221562324Y-100607560D01*
X221533075Y-100650244D01*
X221532534Y-100651106D01*
X221507256Y-100695193D01*
X221506772Y-100696123D01*
X221485465Y-100741613D01*
X221485054Y-100742596D01*
X221467718Y-100789489D01*
X221467390Y-100790506D01*
X221454024Y-100838803D01*
X221453785Y-100839831D01*
X221444391Y-100889531D01*
X221444241Y-100890550D01*
X221438817Y-100941653D01*
X221438751Y-100942642D01*
X221437560Y-100985690D01*
X220858896Y-101141120D01*
X221014326Y-100562456D01*
X221057374Y-100561264D01*
X221058362Y-100561198D01*
X221109465Y-100555774D01*
X221110484Y-100555624D01*
X221160184Y-100546230D01*
X221161212Y-100545991D01*
X221209509Y-100532625D01*
X221210526Y-100532297D01*
X221257419Y-100514961D01*
X221258402Y-100514550D01*
X221303892Y-100493243D01*
X221304822Y-100492759D01*
X221348909Y-100467481D01*
X221349771Y-100466940D01*
X221392455Y-100437691D01*
X221393238Y-100437109D01*
X221434518Y-100403890D01*
X221435218Y-100403284D01*
X221466127Y-100374459D01*
X221625557Y-100533889D01*
G36*
X229064797Y-100153284D02*
G01*
X229065497Y-100153890D01*
X229106777Y-100187109D01*
X229107560Y-100187691D01*
X229150244Y-100216940D01*
X229151106Y-100217481D01*
X229195193Y-100242759D01*
X229196123Y-100243243D01*
X229241613Y-100264550D01*
X229242596Y-100264961D01*
X229289489Y-100282297D01*
X229290506Y-100282625D01*
X229338803Y-100295991D01*
X229339831Y-100296230D01*
X229389531Y-100305624D01*
X229390550Y-100305774D01*
X229441653Y-100311198D01*
X229442641Y-100311264D01*
X229485690Y-100312456D01*
X229641120Y-100891120D01*
X229062456Y-100735690D01*
X229061264Y-100692641D01*
X229061198Y-100691653D01*
X229055774Y-100640550D01*
X229055624Y-100639531D01*
X229046230Y-100589831D01*
X229045991Y-100588803D01*
X229032625Y-100540506D01*
X229032297Y-100539489D01*
X229014961Y-100492596D01*
X229014550Y-100491613D01*
X228993243Y-100446123D01*
X228992759Y-100445193D01*
X228967481Y-100401106D01*
X228966940Y-100400244D01*
X228937691Y-100357560D01*
X228937109Y-100356777D01*
X228903890Y-100315497D01*
X228903284Y-100314797D01*
X228874459Y-100283889D01*
X229033889Y-100124459D01*
X229064797Y-100153284D01*
G37*
X229064797Y-100153284D02*
X229065497Y-100153890D01*
X229106777Y-100187109D01*
X229107560Y-100187691D01*
X229150244Y-100216940D01*
X229151106Y-100217481D01*
X229195193Y-100242759D01*
X229196123Y-100243243D01*
X229241613Y-100264550D01*
X229242596Y-100264961D01*
X229289489Y-100282297D01*
X229290506Y-100282625D01*
X229338803Y-100295991D01*
X229339831Y-100296230D01*
X229389531Y-100305624D01*
X229390550Y-100305774D01*
X229441653Y-100311198D01*
X229442641Y-100311264D01*
X229485690Y-100312456D01*
X229641120Y-100891120D01*
X229062456Y-100735690D01*
X229061264Y-100692641D01*
X229061198Y-100691653D01*
X229055774Y-100640550D01*
X229055624Y-100639531D01*
X229046230Y-100589831D01*
X229045991Y-100588803D01*
X229032625Y-100540506D01*
X229032297Y-100539489D01*
X229014961Y-100492596D01*
X229014550Y-100491613D01*
X228993243Y-100446123D01*
X228992759Y-100445193D01*
X228967481Y-100401106D01*
X228966940Y-100400244D01*
X228937691Y-100357560D01*
X228937109Y-100356777D01*
X228903890Y-100315497D01*
X228903284Y-100314797D01*
X228874459Y-100283889D01*
X229033889Y-100124459D01*
X229064797Y-100153284D01*
G36*
X223937445Y-101514304D02*
G01*
X223938183Y-101556699D01*
X223938218Y-101557446D01*
X223941998Y-101606904D01*
X223942087Y-101607718D01*
X223948740Y-101654676D01*
X223948896Y-101655555D01*
X223958424Y-101700014D01*
X223958663Y-101700953D01*
X223971065Y-101742912D01*
X223971401Y-101743897D01*
X223986677Y-101783356D01*
X223987120Y-101784369D01*
X224005270Y-101821329D01*
X224005829Y-101822346D01*
X224026854Y-101856806D01*
X224027524Y-101857797D01*
X224051423Y-101889756D01*
X224052195Y-101890691D01*
X224070827Y-101911192D01*
X223911172Y-102070847D01*
X223890671Y-102052215D01*
X223889736Y-102051443D01*
X223857777Y-102027544D01*
X223856786Y-102026874D01*
X223822326Y-102005849D01*
X223821309Y-102005290D01*
X223784349Y-101987140D01*
X223783336Y-101986697D01*
X223743877Y-101971421D01*
X223742892Y-101971085D01*
X223700933Y-101958683D01*
X223699994Y-101958444D01*
X223655535Y-101948916D01*
X223654656Y-101948760D01*
X223607698Y-101942107D01*
X223606884Y-101942018D01*
X223557426Y-101938238D01*
X223556679Y-101938203D01*
X223514284Y-101937465D01*
X223358880Y-101358900D01*
X223937445Y-101514304D01*
G37*
X223937445Y-101514304D02*
X223938183Y-101556699D01*
X223938218Y-101557446D01*
X223941998Y-101606904D01*
X223942087Y-101607718D01*
X223948740Y-101654676D01*
X223948896Y-101655555D01*
X223958424Y-101700014D01*
X223958663Y-101700953D01*
X223971065Y-101742912D01*
X223971401Y-101743897D01*
X223986677Y-101783356D01*
X223987120Y-101784369D01*
X224005270Y-101821329D01*
X224005829Y-101822346D01*
X224026854Y-101856806D01*
X224027524Y-101857797D01*
X224051423Y-101889756D01*
X224052195Y-101890691D01*
X224070827Y-101911192D01*
X223911172Y-102070847D01*
X223890671Y-102052215D01*
X223889736Y-102051443D01*
X223857777Y-102027544D01*
X223856786Y-102026874D01*
X223822326Y-102005849D01*
X223821309Y-102005290D01*
X223784349Y-101987140D01*
X223783336Y-101986697D01*
X223743877Y-101971421D01*
X223742892Y-101971085D01*
X223700933Y-101958683D01*
X223699994Y-101958444D01*
X223655535Y-101948916D01*
X223654656Y-101948760D01*
X223607698Y-101942107D01*
X223606884Y-101942018D01*
X223557426Y-101938238D01*
X223556679Y-101938203D01*
X223514284Y-101937465D01*
X223358880Y-101358900D01*
X223937445Y-101514304D01*
G36*
X239199574Y-101500000D02*
G01*
X238680530Y-101799249D01*
X238649596Y-101769714D01*
X238648935Y-101769126D01*
X238610003Y-101736826D01*
X238609257Y-101736252D01*
X238569202Y-101707752D01*
X238568372Y-101707209D01*
X238527193Y-101682509D01*
X238526286Y-101682014D01*
X238483984Y-101661114D01*
X238483011Y-101660683D01*
X238439586Y-101643583D01*
X238438566Y-101643231D01*
X238394017Y-101629931D01*
X238392970Y-101629666D01*
X238347299Y-101620166D01*
X238346249Y-101619993D01*
X238299454Y-101614293D01*
X238298421Y-101614210D01*
X238262700Y-101612794D01*
X238262700Y-101387206D01*
X238298421Y-101385790D01*
X238299454Y-101385707D01*
X238346249Y-101380007D01*
X238347299Y-101379834D01*
X238392970Y-101370334D01*
X238394017Y-101370069D01*
X238438566Y-101356769D01*
X238439586Y-101356417D01*
X238483011Y-101339317D01*
X238483984Y-101338886D01*
X238526286Y-101317986D01*
X238527193Y-101317491D01*
X238568372Y-101292791D01*
X238569202Y-101292248D01*
X238609257Y-101263748D01*
X238610003Y-101263174D01*
X238648935Y-101230874D01*
X238649596Y-101230286D01*
X238680530Y-101200751D01*
X239199574Y-101500000D01*
G37*
X239199574Y-101500000D02*
X238680530Y-101799249D01*
X238649596Y-101769714D01*
X238648935Y-101769126D01*
X238610003Y-101736826D01*
X238609257Y-101736252D01*
X238569202Y-101707752D01*
X238568372Y-101707209D01*
X238527193Y-101682509D01*
X238526286Y-101682014D01*
X238483984Y-101661114D01*
X238483011Y-101660683D01*
X238439586Y-101643583D01*
X238438566Y-101643231D01*
X238394017Y-101629931D01*
X238392970Y-101629666D01*
X238347299Y-101620166D01*
X238346249Y-101619993D01*
X238299454Y-101614293D01*
X238298421Y-101614210D01*
X238262700Y-101612794D01*
X238262700Y-101387206D01*
X238298421Y-101385790D01*
X238299454Y-101385707D01*
X238346249Y-101380007D01*
X238347299Y-101379834D01*
X238392970Y-101370334D01*
X238394017Y-101370069D01*
X238438566Y-101356769D01*
X238439586Y-101356417D01*
X238483011Y-101339317D01*
X238483984Y-101338886D01*
X238526286Y-101317986D01*
X238527193Y-101317491D01*
X238568372Y-101292791D01*
X238569202Y-101292248D01*
X238609257Y-101263748D01*
X238610003Y-101263174D01*
X238648935Y-101230874D01*
X238649596Y-101230286D01*
X238680530Y-101200751D01*
X239199574Y-101500000D01*
G36*
X240763559Y-101965171D02*
G01*
X240721759Y-101965500D01*
X240721256Y-101965514D01*
X240673297Y-101967793D01*
X240672718Y-101967834D01*
X240628259Y-101971989D01*
X240627592Y-101972069D01*
X240586632Y-101978098D01*
X240585859Y-101978237D01*
X240548398Y-101986141D01*
X240547506Y-101986363D01*
X240513545Y-101996141D01*
X240512521Y-101996483D01*
X240482059Y-102008136D01*
X240480902Y-102008646D01*
X240453939Y-102022173D01*
X240452664Y-102022908D01*
X240429201Y-102038311D01*
X240427860Y-102039325D01*
X240416832Y-102048869D01*
X240256766Y-101888803D01*
X240266310Y-101877774D01*
X240267324Y-101876434D01*
X240282727Y-101852971D01*
X240283462Y-101851696D01*
X240296989Y-101824733D01*
X240297499Y-101823576D01*
X240309152Y-101793114D01*
X240309494Y-101792090D01*
X240319273Y-101758129D01*
X240319495Y-101757237D01*
X240327398Y-101719776D01*
X240327537Y-101719003D01*
X240333566Y-101678043D01*
X240333646Y-101677376D01*
X240337801Y-101632917D01*
X240337842Y-101632338D01*
X240340121Y-101584379D01*
X240340135Y-101583876D01*
X240340465Y-101542077D01*
X240918938Y-101386698D01*
X240763559Y-101965171D01*
G37*
X240763559Y-101965171D02*
X240721759Y-101965500D01*
X240721256Y-101965514D01*
X240673297Y-101967793D01*
X240672718Y-101967834D01*
X240628259Y-101971989D01*
X240627592Y-101972069D01*
X240586632Y-101978098D01*
X240585859Y-101978237D01*
X240548398Y-101986141D01*
X240547506Y-101986363D01*
X240513545Y-101996141D01*
X240512521Y-101996483D01*
X240482059Y-102008136D01*
X240480902Y-102008646D01*
X240453939Y-102022173D01*
X240452664Y-102022908D01*
X240429201Y-102038311D01*
X240427860Y-102039325D01*
X240416832Y-102048869D01*
X240256766Y-101888803D01*
X240266310Y-101877774D01*
X240267324Y-101876434D01*
X240282727Y-101852971D01*
X240283462Y-101851696D01*
X240296989Y-101824733D01*
X240297499Y-101823576D01*
X240309152Y-101793114D01*
X240309494Y-101792090D01*
X240319273Y-101758129D01*
X240319495Y-101757237D01*
X240327398Y-101719776D01*
X240327537Y-101719003D01*
X240333566Y-101678043D01*
X240333646Y-101677376D01*
X240337801Y-101632917D01*
X240337842Y-101632338D01*
X240340121Y-101584379D01*
X240340135Y-101583876D01*
X240340465Y-101542077D01*
X240918938Y-101386698D01*
X240763559Y-101965171D01*
G36*
X226850779Y-101730336D02*
G01*
X226851525Y-101730989D01*
X226891496Y-101763289D01*
X226892322Y-101763903D01*
X226934109Y-101792402D01*
X226935005Y-101792960D01*
X226978607Y-101817660D01*
X226979558Y-101818147D01*
X227024977Y-101839046D01*
X227025963Y-101839451D01*
X227073197Y-101856549D01*
X227074197Y-101856864D01*
X227123247Y-101870163D01*
X227124239Y-101870390D01*
X227175105Y-101879888D01*
X227176070Y-101880030D01*
X227228751Y-101885728D01*
X227229675Y-101885794D01*
X227271915Y-101887265D01*
X227271915Y-102112736D01*
X227229674Y-102114210D01*
X227228750Y-102114276D01*
X227176069Y-102119978D01*
X227175104Y-102120120D01*
X227124238Y-102129622D01*
X227123246Y-102129849D01*
X227074196Y-102143150D01*
X227073196Y-102143466D01*
X227025962Y-102160568D01*
X227024977Y-102160972D01*
X226979558Y-102181873D01*
X226978607Y-102182360D01*
X226935005Y-102207060D01*
X226934109Y-102207618D01*
X226892322Y-102236119D01*
X226891496Y-102236733D01*
X226851525Y-102269033D01*
X226850778Y-102269686D01*
X226819497Y-102299283D01*
X226300414Y-102000012D01*
X226819498Y-101700740D01*
X226850779Y-101730336D01*
G37*
X226850779Y-101730336D02*
X226851525Y-101730989D01*
X226891496Y-101763289D01*
X226892322Y-101763903D01*
X226934109Y-101792402D01*
X226935005Y-101792960D01*
X226978607Y-101817660D01*
X226979558Y-101818147D01*
X227024977Y-101839046D01*
X227025963Y-101839451D01*
X227073197Y-101856549D01*
X227074197Y-101856864D01*
X227123247Y-101870163D01*
X227124239Y-101870390D01*
X227175105Y-101879888D01*
X227176070Y-101880030D01*
X227228751Y-101885728D01*
X227229675Y-101885794D01*
X227271915Y-101887265D01*
X227271915Y-102112736D01*
X227229674Y-102114210D01*
X227228750Y-102114276D01*
X227176069Y-102119978D01*
X227175104Y-102120120D01*
X227124238Y-102129622D01*
X227123246Y-102129849D01*
X227074196Y-102143150D01*
X227073196Y-102143466D01*
X227025962Y-102160568D01*
X227024977Y-102160972D01*
X226979558Y-102181873D01*
X226978607Y-102182360D01*
X226935005Y-102207060D01*
X226934109Y-102207618D01*
X226892322Y-102236119D01*
X226891496Y-102236733D01*
X226851525Y-102269033D01*
X226850778Y-102269686D01*
X226819497Y-102299283D01*
X226300414Y-102000012D01*
X226819498Y-101700740D01*
X226850779Y-101730336D01*
G36*
X236889121Y-99374906D02*
G01*
X236806741Y-99456894D01*
X236806585Y-99457052D01*
X236726685Y-99539400D01*
X236726499Y-99539596D01*
X236655999Y-99615419D01*
X236655774Y-99615668D01*
X236594674Y-99684963D01*
X236594397Y-99685288D01*
X236542697Y-99748058D01*
X236542350Y-99748498D01*
X236500050Y-99804740D01*
X236499609Y-99805365D01*
X236466709Y-99855082D01*
X236466144Y-99856021D01*
X236442644Y-99899210D01*
X236441946Y-99900721D01*
X236427846Y-99937385D01*
X236427152Y-99939987D01*
X236424127Y-99959381D01*
X236195873Y-99959381D01*
X236192848Y-99939987D01*
X236192154Y-99937385D01*
X236178054Y-99900721D01*
X236177356Y-99899210D01*
X236153856Y-99856021D01*
X236153291Y-99855082D01*
X236120391Y-99805365D01*
X236119950Y-99804740D01*
X236077650Y-99748498D01*
X236077303Y-99748058D01*
X236025603Y-99685288D01*
X236025326Y-99684963D01*
X235964226Y-99615668D01*
X235964001Y-99615419D01*
X235893501Y-99539596D01*
X235893315Y-99539400D01*
X235813415Y-99457052D01*
X235813259Y-99456894D01*
X235730879Y-99374906D01*
X236310000Y-98370426D01*
X236889121Y-99374906D01*
G37*
X236889121Y-99374906D02*
X236806741Y-99456894D01*
X236806585Y-99457052D01*
X236726685Y-99539400D01*
X236726499Y-99539596D01*
X236655999Y-99615419D01*
X236655774Y-99615668D01*
X236594674Y-99684963D01*
X236594397Y-99685288D01*
X236542697Y-99748058D01*
X236542350Y-99748498D01*
X236500050Y-99804740D01*
X236499609Y-99805365D01*
X236466709Y-99855082D01*
X236466144Y-99856021D01*
X236442644Y-99899210D01*
X236441946Y-99900721D01*
X236427846Y-99937385D01*
X236427152Y-99939987D01*
X236424127Y-99959381D01*
X236195873Y-99959381D01*
X236192848Y-99939987D01*
X236192154Y-99937385D01*
X236178054Y-99900721D01*
X236177356Y-99899210D01*
X236153856Y-99856021D01*
X236153291Y-99855082D01*
X236120391Y-99805365D01*
X236119950Y-99804740D01*
X236077650Y-99748498D01*
X236077303Y-99748058D01*
X236025603Y-99685288D01*
X236025326Y-99684963D01*
X235964226Y-99615668D01*
X235964001Y-99615419D01*
X235893501Y-99539596D01*
X235893315Y-99539400D01*
X235813415Y-99457052D01*
X235813259Y-99456894D01*
X235730879Y-99374906D01*
X236310000Y-98370426D01*
X236889121Y-99374906D01*
G36*
X232187544Y-100764314D02*
G01*
X232188735Y-100807361D01*
X232188801Y-100808350D01*
X232194225Y-100859453D01*
X232194375Y-100860472D01*
X232203769Y-100910172D01*
X232204008Y-100911200D01*
X232217374Y-100959497D01*
X232217702Y-100960514D01*
X232235038Y-101007407D01*
X232235449Y-101008390D01*
X232256756Y-101053880D01*
X232257240Y-101054810D01*
X232282518Y-101098897D01*
X232283059Y-101099759D01*
X232312308Y-101142443D01*
X232312890Y-101143226D01*
X232346109Y-101184506D01*
X232346715Y-101185206D01*
X232375541Y-101216115D01*
X232216111Y-101375545D01*
X232185202Y-101346719D01*
X232184502Y-101346113D01*
X232143222Y-101312894D01*
X232142439Y-101312312D01*
X232099755Y-101283063D01*
X232098893Y-101282522D01*
X232054806Y-101257244D01*
X232053876Y-101256760D01*
X232008386Y-101235453D01*
X232007403Y-101235042D01*
X231960510Y-101217706D01*
X231959493Y-101217378D01*
X231911196Y-101204012D01*
X231910168Y-101203773D01*
X231860468Y-101194379D01*
X231859449Y-101194229D01*
X231808346Y-101188805D01*
X231807357Y-101188739D01*
X231764310Y-101187548D01*
X231608880Y-100608884D01*
X232187544Y-100764314D01*
G37*
X232187544Y-100764314D02*
X232188735Y-100807361D01*
X232188801Y-100808350D01*
X232194225Y-100859453D01*
X232194375Y-100860472D01*
X232203769Y-100910172D01*
X232204008Y-100911200D01*
X232217374Y-100959497D01*
X232217702Y-100960514D01*
X232235038Y-101007407D01*
X232235449Y-101008390D01*
X232256756Y-101053880D01*
X232257240Y-101054810D01*
X232282518Y-101098897D01*
X232283059Y-101099759D01*
X232312308Y-101142443D01*
X232312890Y-101143226D01*
X232346109Y-101184506D01*
X232346715Y-101185206D01*
X232375541Y-101216115D01*
X232216111Y-101375545D01*
X232185202Y-101346719D01*
X232184502Y-101346113D01*
X232143222Y-101312894D01*
X232142439Y-101312312D01*
X232099755Y-101283063D01*
X232098893Y-101282522D01*
X232054806Y-101257244D01*
X232053876Y-101256760D01*
X232008386Y-101235453D01*
X232007403Y-101235042D01*
X231960510Y-101217706D01*
X231959493Y-101217378D01*
X231911196Y-101204012D01*
X231910168Y-101203773D01*
X231860468Y-101194379D01*
X231859449Y-101194229D01*
X231808346Y-101188805D01*
X231807357Y-101188739D01*
X231764310Y-101187548D01*
X231608880Y-100608884D01*
X232187544Y-100764314D01*
G36*
X237634328Y-100542676D02*
G01*
X237605502Y-100573584D01*
X237604896Y-100574284D01*
X237571677Y-100615564D01*
X237571095Y-100616347D01*
X237541846Y-100659031D01*
X237541305Y-100659893D01*
X237516027Y-100703980D01*
X237515543Y-100704910D01*
X237494236Y-100750400D01*
X237493825Y-100751383D01*
X237476489Y-100798276D01*
X237476161Y-100799293D01*
X237462795Y-100847590D01*
X237462556Y-100848618D01*
X237453162Y-100898318D01*
X237453012Y-100899337D01*
X237447588Y-100950440D01*
X237447522Y-100951429D01*
X237446331Y-100994477D01*
X236867667Y-101149907D01*
X237023097Y-100571243D01*
X237066145Y-100570051D01*
X237067133Y-100569985D01*
X237118236Y-100564561D01*
X237119255Y-100564411D01*
X237168955Y-100555017D01*
X237169983Y-100554778D01*
X237218280Y-100541412D01*
X237219297Y-100541084D01*
X237266190Y-100523748D01*
X237267173Y-100523337D01*
X237312663Y-100502030D01*
X237313593Y-100501546D01*
X237357680Y-100476268D01*
X237358542Y-100475727D01*
X237401226Y-100446478D01*
X237402009Y-100445896D01*
X237443289Y-100412677D01*
X237443989Y-100412071D01*
X237474898Y-100383246D01*
X237634328Y-100542676D01*
G37*
X237634328Y-100542676D02*
X237605502Y-100573584D01*
X237604896Y-100574284D01*
X237571677Y-100615564D01*
X237571095Y-100616347D01*
X237541846Y-100659031D01*
X237541305Y-100659893D01*
X237516027Y-100703980D01*
X237515543Y-100704910D01*
X237494236Y-100750400D01*
X237493825Y-100751383D01*
X237476489Y-100798276D01*
X237476161Y-100799293D01*
X237462795Y-100847590D01*
X237462556Y-100848618D01*
X237453162Y-100898318D01*
X237453012Y-100899337D01*
X237447588Y-100950440D01*
X237447522Y-100951429D01*
X237446331Y-100994477D01*
X236867667Y-101149907D01*
X237023097Y-100571243D01*
X237066145Y-100570051D01*
X237067133Y-100569985D01*
X237118236Y-100564561D01*
X237119255Y-100564411D01*
X237168955Y-100555017D01*
X237169983Y-100554778D01*
X237218280Y-100541412D01*
X237219297Y-100541084D01*
X237266190Y-100523748D01*
X237267173Y-100523337D01*
X237312663Y-100502030D01*
X237313593Y-100501546D01*
X237357680Y-100476268D01*
X237358542Y-100475727D01*
X237401226Y-100446478D01*
X237402009Y-100445896D01*
X237443289Y-100412677D01*
X237443989Y-100412071D01*
X237474898Y-100383246D01*
X237634328Y-100542676D01*
G36*
X228999574Y-118800000D02*
G01*
X228480705Y-119099148D01*
X228451280Y-119069893D01*
X228451015Y-119069637D01*
X228416583Y-119037337D01*
X228416259Y-119037043D01*
X228383704Y-119008543D01*
X228383303Y-119008207D01*
X228352624Y-118983507D01*
X228352119Y-118983120D01*
X228323317Y-118962220D01*
X228322667Y-118961778D01*
X228295742Y-118944678D01*
X228294889Y-118944182D01*
X228269841Y-118930882D01*
X228268703Y-118930348D01*
X228245531Y-118920848D01*
X228243997Y-118920331D01*
X228222702Y-118914631D01*
X228220655Y-118914259D01*
X228212701Y-118913481D01*
X228212701Y-118686519D01*
X228220655Y-118685740D01*
X228222702Y-118685368D01*
X228243997Y-118679668D01*
X228245531Y-118679151D01*
X228268703Y-118669651D01*
X228269841Y-118669117D01*
X228294889Y-118655817D01*
X228295742Y-118655321D01*
X228322667Y-118638221D01*
X228323317Y-118637779D01*
X228352119Y-118616879D01*
X228352624Y-118616492D01*
X228383303Y-118591792D01*
X228383704Y-118591456D01*
X228416259Y-118562956D01*
X228416583Y-118562662D01*
X228451015Y-118530362D01*
X228451280Y-118530106D01*
X228480705Y-118500852D01*
X228999574Y-118800000D01*
G37*
X228999574Y-118800000D02*
X228480705Y-119099148D01*
X228451280Y-119069893D01*
X228451015Y-119069637D01*
X228416583Y-119037337D01*
X228416259Y-119037043D01*
X228383704Y-119008543D01*
X228383303Y-119008207D01*
X228352624Y-118983507D01*
X228352119Y-118983120D01*
X228323317Y-118962220D01*
X228322667Y-118961778D01*
X228295742Y-118944678D01*
X228294889Y-118944182D01*
X228269841Y-118930882D01*
X228268703Y-118930348D01*
X228245531Y-118920848D01*
X228243997Y-118920331D01*
X228222702Y-118914631D01*
X228220655Y-118914259D01*
X228212701Y-118913481D01*
X228212701Y-118686519D01*
X228220655Y-118685740D01*
X228222702Y-118685368D01*
X228243997Y-118679668D01*
X228245531Y-118679151D01*
X228268703Y-118669651D01*
X228269841Y-118669117D01*
X228294889Y-118655817D01*
X228295742Y-118655321D01*
X228322667Y-118638221D01*
X228323317Y-118637779D01*
X228352119Y-118616879D01*
X228352624Y-118616492D01*
X228383303Y-118591792D01*
X228383704Y-118591456D01*
X228416259Y-118562956D01*
X228416583Y-118562662D01*
X228451015Y-118530362D01*
X228451280Y-118530106D01*
X228480705Y-118500852D01*
X228999574Y-118800000D01*
G36*
X227654180Y-117830946D02*
G01*
X227655371Y-117873993D01*
X227655437Y-117874982D01*
X227660861Y-117926085D01*
X227661011Y-117927104D01*
X227670405Y-117976804D01*
X227670644Y-117977832D01*
X227684010Y-118026129D01*
X227684338Y-118027146D01*
X227701674Y-118074039D01*
X227702085Y-118075022D01*
X227723392Y-118120512D01*
X227723876Y-118121442D01*
X227749154Y-118165529D01*
X227749695Y-118166391D01*
X227778944Y-118209075D01*
X227779526Y-118209858D01*
X227812745Y-118251138D01*
X227813351Y-118251838D01*
X227842177Y-118282747D01*
X227682747Y-118442177D01*
X227651838Y-118413351D01*
X227651138Y-118412745D01*
X227609858Y-118379526D01*
X227609075Y-118378944D01*
X227566391Y-118349695D01*
X227565529Y-118349154D01*
X227521442Y-118323876D01*
X227520512Y-118323392D01*
X227475022Y-118302085D01*
X227474039Y-118301674D01*
X227427146Y-118284338D01*
X227426129Y-118284010D01*
X227377832Y-118270644D01*
X227376804Y-118270405D01*
X227327104Y-118261011D01*
X227326085Y-118260861D01*
X227274982Y-118255437D01*
X227273993Y-118255371D01*
X227230946Y-118254180D01*
X227075516Y-117675516D01*
X227654180Y-117830946D01*
G37*
X227654180Y-117830946D02*
X227655371Y-117873993D01*
X227655437Y-117874982D01*
X227660861Y-117926085D01*
X227661011Y-117927104D01*
X227670405Y-117976804D01*
X227670644Y-117977832D01*
X227684010Y-118026129D01*
X227684338Y-118027146D01*
X227701674Y-118074039D01*
X227702085Y-118075022D01*
X227723392Y-118120512D01*
X227723876Y-118121442D01*
X227749154Y-118165529D01*
X227749695Y-118166391D01*
X227778944Y-118209075D01*
X227779526Y-118209858D01*
X227812745Y-118251138D01*
X227813351Y-118251838D01*
X227842177Y-118282747D01*
X227682747Y-118442177D01*
X227651838Y-118413351D01*
X227651138Y-118412745D01*
X227609858Y-118379526D01*
X227609075Y-118378944D01*
X227566391Y-118349695D01*
X227565529Y-118349154D01*
X227521442Y-118323876D01*
X227520512Y-118323392D01*
X227475022Y-118302085D01*
X227474039Y-118301674D01*
X227427146Y-118284338D01*
X227426129Y-118284010D01*
X227377832Y-118270644D01*
X227376804Y-118270405D01*
X227327104Y-118261011D01*
X227326085Y-118260861D01*
X227274982Y-118255437D01*
X227273993Y-118255371D01*
X227230946Y-118254180D01*
X227075516Y-117675516D01*
X227654180Y-117830946D01*
M02*
